<?xml version="1.0" encoding="UTF-8" standalone="no"?>
<svg
   version="1.1"
   width="44.022999mm"
   height="28.0924mm"
   viewBox="0 0 44.022999 28.092399"
   id="svg311"
   xmlns="http://www.w3.org/2000/svg"
   xmlns:svg="http://www.w3.org/2000/svg">
  <defs
     id="defs311" />
  <title
     id="title1">SVG Image created as imp.svg date 2024/11/30 21:07:26 </title>
  <desc
     id="desc1">Image generated by Eeschema-SVG </desc>
  <g
     style="fill:#000000;fill-opacity:1;stroke:#000000;stroke-linecap:round;stroke-linejoin:round;stroke-opacity:1"
     id="g4"
     transform="translate(-67.8132,-69.7738)">
    <path
       style="fill:none;stroke:#000000;stroke-width:0.1524;stroke-linecap:round;stroke-linejoin:round;stroke-opacity:1"
       d="m 98.425,70.485 h 1.27"
       id="path1" />
    <path
       style="fill:none;stroke:#000000;stroke-width:0.1524;stroke-linecap:round;stroke-linejoin:round;stroke-opacity:1"
       d="m 98.933,69.85 h 0.254"
       id="path2" />
    <path
       style="fill:none;stroke:#000000;stroke-width:0.1524;stroke-linecap:round;stroke-linejoin:round;stroke-opacity:1"
       d="m 99.06,71.12 v 1.27"
       id="path3" />
    <path
       style="fill:none;stroke:#000000;stroke-width:0.1524;stroke-linecap:round;stroke-linejoin:round;stroke-opacity:1"
       d="M 100.33,71.12 H 97.79"
       id="path4" />
  </g>
  <g
     style="fill:none;stroke:#000000;stroke-width:0.1524;stroke-linecap:round;stroke-linejoin:round;stroke-opacity:1"
     id="g12"
     transform="translate(-67.8132,-69.7738)">
    <path
       d="m 99.06,72.39 v 0"
       id="path5" />
    <path
       style="fill:none;stroke:#000000;stroke-width:0.1524;stroke-linecap:round;stroke-linejoin:round;stroke-opacity:1"
       d="m 74.295,97.155 h -1.27"
       id="path6" />
    <path
       style="fill:none;stroke:#000000;stroke-width:0.1524;stroke-linecap:round;stroke-linejoin:round;stroke-opacity:1"
       d="M 73.787,97.79 H 73.533"
       id="path7" />
    <path
       style="fill:none;stroke:#000000;stroke-width:0.1524;stroke-linecap:round;stroke-linejoin:round;stroke-opacity:1"
       d="M 73.66,96.52 V 95.25"
       id="path8" />
    <path
       style="fill:none;stroke:#000000;stroke-width:0.1524;stroke-linecap:round;stroke-linejoin:round;stroke-opacity:1"
       d="m 72.39,96.52 h 2.54"
       id="path9" />
    <path
       d="m 73.66,95.25 v 0"
       id="path10" />
    <path
       style="fill:none;stroke:#000000;stroke-width:0.254;stroke-linecap:round;stroke-linejoin:round;stroke-opacity:1"
       d="m 69.85,93.726 v 3.556"
       id="path11" />
    <path
       style="fill:#000000;fill-opacity:1;fill-rule:evenodd;stroke:#000000;stroke-width:0.1524;stroke-linecap:round;stroke-linejoin:round;stroke-opacity:1"
       d="m 69.85,93.218 -0.508,1.27 h 1.016 z"
       id="path12" />
  </g>
  <g
     style="fill:none;stroke:#000000;stroke-width:0.1524;stroke-linecap:round;stroke-linejoin:round;stroke-opacity:1"
     id="g42"
     transform="translate(-67.8132,-69.7738)">
    <g
       transform="rotate(-90,68.5799,94.9959)"
       id="g13">
      <text
         x="68.579903"
         y="95.630898"
         textLength="2.5617001"
         font-size="1.6933px"
         lengthAdjust="spacingAndGlyphs"
         text-anchor="middle"
         opacity="0"
         stroke-opacity="0"
         id="text12">Zo</text>
    </g>
    <g
       class="stroked-text"
       id="g31">
      <desc
         id="desc13">Zo</desc>
      <path
         d="M 67.8894,95.9936 V 95.147"
         id="path13" />
      <path
         d="m 67.8894,95.147 1.27,0.8466"
         id="path14" />
      <path
         d="M 69.1594,95.9936 V 95.147"
         id="path15" />
      <path
         d="m 69.1594,94.4817 -0.0604,0.121"
         id="path16" />
      <path
         d="m 69.099,94.6027 -0.0605,0.0605"
         id="path17" />
      <path
         d="m 69.0385,94.6632 -0.121,0.0604"
         id="path18" />
      <path
         d="M 68.9175,94.7236 H 68.5547"
         id="path19" />
      <path
         d="m 68.5547,94.7236 -0.121,-0.0604"
         id="path20" />
      <path
         d="M 68.4337,94.6632 68.3732,94.6027"
         id="path21" />
      <path
         d="m 68.3732,94.6027 -0.0604,-0.121"
         id="path22" />
      <path
         d="M 68.3128,94.4817 V 94.3003"
         id="path23" />
      <path
         d="m 68.3128,94.3003 0.0604,-0.1209"
         id="path24" />
      <path
         d="m 68.3732,94.1794 0.0605,-0.0605"
         id="path25" />
      <path
         d="m 68.4337,94.1189 0.121,-0.0605"
         id="path26" />
      <path
         d="m 68.5547,94.0584 h 0.3628"
         id="path27" />
      <path
         d="m 68.9175,94.0584 0.121,0.0605"
         id="path28" />
      <path
         d="m 69.0385,94.1189 0.0605,0.0605"
         id="path29" />
      <path
         d="m 69.099,94.1794 0.0604,0.1209"
         id="path30" />
      <path
         d="m 69.1594,94.3003 v 0.1814"
         id="path31" />
    </g>
    <path
       style="fill:none;stroke:#000000;stroke-width:0.1524;stroke-linecap:round;stroke-linejoin:round;stroke-opacity:1"
       d="M 75.946,85.09 H 78.74"
       id="path32" />
    <path
       style="fill:none;stroke:#000000;stroke-width:0.254;stroke-linecap:round;stroke-linejoin:round;stroke-opacity:1"
       d="m 75.946,83.185 v 3.81"
       id="path33" />
    <path
       style="fill:none;stroke:#000000;stroke-width:0.254;stroke-linecap:round;stroke-linejoin:round;stroke-opacity:1"
       d="m 75.438,86.36 v 1.016"
       id="path34" />
    <path
       style="fill:none;stroke:#000000;stroke-width:0.254;stroke-linecap:round;stroke-linejoin:round;stroke-opacity:1"
       d="m 75.438,84.582 v 1.016"
       id="path35" />
    <path
       style="fill:none;stroke:#000000;stroke-width:0.254;stroke-linecap:round;stroke-linejoin:round;stroke-opacity:1"
       d="M 75.438,82.804 V 83.82"
       id="path36" />
    <path
       style="fill:none;stroke:#000000;stroke-width:0.1524;stroke-linecap:round;stroke-linejoin:round;stroke-opacity:1"
       d="m 73.66,82.55 v 0.762"
       id="path37" />
    <path
       style="fill:none;stroke:#000000;stroke-width:0.1524;stroke-linecap:round;stroke-linejoin:round;stroke-opacity:1"
       d="m 73.66,87.63 v -2.54 h 1.778"
       id="path38" />
    <path
       style="fill:none;stroke:#000000;stroke-width:0.1524;stroke-linecap:round;stroke-linejoin:round;stroke-opacity:1"
       d="m 75.438,86.868 h -2.54 v -3.556 h 2.54"
       id="path39" />
    <path
       style="fill:#000000;fill-opacity:1;fill-rule:evenodd;stroke:#000000;stroke-width:0.1524;stroke-linecap:round;stroke-linejoin:round;stroke-opacity:1"
       d="m 75.184,85.09 -1.016,-0.381 v 0.762 z"
       id="path40" />
    <path
       style="fill:none;stroke:#000000;stroke-width:0.1524;stroke-linecap:round;stroke-linejoin:round;stroke-opacity:1"
       d="m 73.406,84.582 -0.127,0.127 h -0.762 l -0.127,0.127"
       id="path41" />
    <path
       style="fill:none;stroke:#000000;stroke-width:0.1524;stroke-linecap:round;stroke-linejoin:round;stroke-opacity:1"
       d="m 72.898,84.709 0.381,0.635 h -0.762 z"
       id="path42" />
  </g>
  <g
     style="fill:none;stroke:#000000;stroke-width:0.254;stroke-linecap:round;stroke-linejoin:round;stroke-opacity:1"
     id="g43"
     transform="translate(-67.8132,-69.7738)">
    <circle
       cx="74.549004"
       cy="85.089996"
       r="2.7939999"
       id="circle42" />
  </g>
  <g
     style="fill:#000000;fill-opacity:1;stroke:#000000;stroke-width:0.1524;stroke-linecap:round;stroke-linejoin:round;stroke-opacity:1"
     id="g44"
     transform="translate(-67.8132,-69.7738)">
    <circle
       cx="73.660004"
       cy="86.867996"
       r="0.25400001"
       id="circle43" />
    <circle
       cx="73.660004"
       cy="83.311996"
       r="0.25400001"
       id="circle44" />
  </g>
  <g
     style="fill:none;stroke:#000000;stroke-width:0.1524;stroke-linecap:round;stroke-linejoin:round;stroke-opacity:1"
     id="g94"
     transform="translate(-67.8132,-69.7738)">
    <path
       d="M 73.66,82.55 V 80.01"
       id="path44" />
    <g
       transform="rotate(-90,73.406,81.28)"
       id="g45">
      <text
         x="73.405998"
         y="81.279999"
         textLength="1.4732"
         font-size="1.6933px"
         lengthAdjust="spacingAndGlyphs"
         text-anchor="middle"
         opacity="0"
         stroke-opacity="0"
         id="text44">D</text>
    </g>
    <g
       class="stroked-text"
       id="g56">
      <desc
         id="desc45">D</desc>
      <path
         d="m 73.2425,81.6126 h -1.27"
         id="path45" />
      <path
         d="M 71.9725,81.6126 V 81.3102"
         id="path46" />
      <path
         d="M 71.9725,81.3102 72.033,81.1288"
         id="path47" />
      <path
         d="m 72.033,81.1288 0.121,-0.121"
         id="path48" />
      <path
         d="m 72.154,81.0078 0.1209,-0.0605"
         id="path49" />
      <path
         d="m 72.2749,80.9473 0.2419,-0.0604"
         id="path50" />
      <path
         d="m 72.5168,80.8869 h 0.1814"
         id="path51" />
      <path
         d="m 72.6982,80.8869 0.2419,0.0604"
         id="path52" />
      <path
         d="m 72.9401,80.9473 0.121,0.0605"
         id="path53" />
      <path
         d="m 73.0611,81.0078 0.121,0.121"
         id="path54" />
      <path
         d="m 73.1821,81.1288 0.0604,0.1814"
         id="path55" />
      <path
         d="m 73.2425,81.3102 v 0.3024"
         id="path56" />
    </g>
    <path
       d="m 78.74,85.09 h 2.54"
       id="path57" />
    <text
       x="80.010002"
       y="84.835999"
       textLength="1.4732"
       font-size="1.6933px"
       lengthAdjust="spacingAndGlyphs"
       text-anchor="middle"
       opacity="0"
       stroke-opacity="0"
       id="text57">G</text>
    <g
       class="stroked-text"
       id="g73">
      <desc
         id="desc57">G</desc>
      <path
         d="m 80.3426,83.463 -0.121,-0.0605"
         id="path58" />
      <path
         d="M 80.2216,83.4025 H 80.0402"
         id="path59" />
      <path
         d="M 80.0402,83.4025 79.8588,83.463"
         id="path60" />
      <path
         d="m 79.8588,83.463 -0.121,0.121"
         id="path61" />
      <path
         d="m 79.7378,83.584 -0.0605,0.1209"
         id="path62" />
      <path
         d="m 79.6773,83.7049 -0.0604,0.2419"
         id="path63" />
      <path
         d="m 79.6169,83.9468 v 0.1814"
         id="path64" />
      <path
         d="m 79.6169,84.1282 0.0604,0.2419"
         id="path65" />
      <path
         d="m 79.6773,84.3701 0.0605,0.121"
         id="path66" />
      <path
         d="m 79.7378,84.4911 0.121,0.121"
         id="path67" />
      <path
         d="m 79.8588,84.6121 0.1814,0.0604"
         id="path68" />
      <path
         d="m 80.0402,84.6725 h 0.1209"
         id="path69" />
      <path
         d="m 80.1611,84.6725 0.1815,-0.0604"
         id="path70" />
      <path
         d="M 80.3426,84.6121 80.403,84.5516"
         id="path71" />
      <path
         d="M 80.403,84.5516 V 84.1282"
         id="path72" />
      <path
         d="M 80.403,84.1282 H 80.1611"
         id="path73" />
    </g>
    <path
       d="m 73.66,87.63 v 2.54"
       id="path74" />
    <g
       transform="rotate(-90,73.406,88.9)"
       id="g74">
      <text
         x="73.405998"
         y="88.900002"
         textLength="1.4127001"
         font-size="1.6933px"
         lengthAdjust="spacingAndGlyphs"
         text-anchor="middle"
         opacity="0"
         stroke-opacity="0"
         id="text74">S</text>
    </g>
    <g
       class="stroked-text"
       id="g93">
      <desc
         id="desc74">S</desc>
      <path
         d="m 73.1821,89.2627 0.0604,-0.1814"
         id="path75" />
      <path
         d="M 73.2425,89.0813 V 88.7789"
         id="path76" />
      <path
         d="M 73.2425,88.7789 73.1821,88.658"
         id="path77" />
      <path
         d="M 73.1821,88.658 73.1216,88.5975"
         id="path78" />
      <path
         d="M 73.1216,88.5975 73.0006,88.537"
         id="path79" />
      <path
         d="M 73.0006,88.537 H 72.8797"
         id="path80" />
      <path
         d="m 72.8797,88.537 -0.121,0.0605"
         id="path81" />
      <path
         d="M 72.7587,88.5975 72.6982,88.658"
         id="path82" />
      <path
         d="m 72.6982,88.658 -0.0604,0.1209"
         id="path83" />
      <path
         d="m 72.6378,88.7789 -0.0605,0.2419"
         id="path84" />
      <path
         d="m 72.5773,89.0208 -0.0605,0.121"
         id="path85" />
      <path
         d="m 72.5168,89.1418 -0.0605,0.0605"
         id="path86" />
      <path
         d="m 72.4563,89.2023 -0.1209,0.0604"
         id="path87" />
      <path
         d="m 72.3354,89.2627 h -0.121"
         id="path88" />
      <path
         d="M 72.2144,89.2627 72.0935,89.2023"
         id="path89" />
      <path
         d="M 72.0935,89.2023 72.033,89.1418"
         id="path90" />
      <path
         d="m 72.033,89.1418 -0.0605,-0.121"
         id="path91" />
      <path
         d="M 71.9725,89.0208 V 88.7185"
         id="path92" />
      <path
         d="M 71.9725,88.7185 72.033,88.537"
         id="path93" />
    </g>
  </g>
  <g
     style="fill:none;stroke:#000000;stroke-width:0.254;stroke-linecap:round;stroke-linejoin:round;stroke-opacity:1"
     id="g95"
     transform="translate(-67.8132,-69.7738)">
    <rect
       x="101.854"
       y="82.550003"
       width="2.0320001"
       height="5.0799999"
       rx="0.000000"
       id="rect94" />
  </g>
  <g
     style="fill:none;stroke:#000000;stroke-width:0.1524;stroke-linecap:round;stroke-linejoin:round;stroke-opacity:1"
     id="g120"
     transform="translate(-67.8132,-69.7738)">
    <path
       d="M 102.87,82.55 V 81.28"
       id="path95" />
    <path
       d="M 102.87,87.63 V 88.9"
       id="path96" />
    <text
       x="106.2348"
       y="85.724998"
       textLength="2.1384001"
       font-size="1.6933px"
       lengthAdjust="spacingAndGlyphs"
       text-anchor="middle"
       opacity="0"
       stroke-opacity="0"
       id="text96">rd</text>
    <g
       class="stroked-text"
       id="g113">
      <desc
         id="desc96">rd</desc>
      <path
         d="M 105.5695,85.6695 V 84.8229"
         id="path97" />
      <path
         d="m 105.5695,85.0648 0.0605,-0.121"
         id="path98" />
      <path
         d="m 105.63,84.9438 0.0605,-0.0605"
         id="path99" />
      <path
         d="m 105.6905,84.8833 0.1209,-0.0604"
         id="path100" />
      <path
         d="m 105.8114,84.8229 h 0.121"
         id="path101" />
      <path
         d="m 106.9,85.6695 v -1.27"
         id="path102" />
      <path
         d="m 106.9,85.6091 -0.1209,0.0604"
         id="path103" />
      <path
         d="m 106.7791,85.6695 h -0.2419"
         id="path104" />
      <path
         d="m 106.5372,85.6695 -0.121,-0.0604"
         id="path105" />
      <path
         d="m 106.4162,85.6091 -0.0605,-0.0605"
         id="path106" />
      <path
         d="m 106.3557,85.5486 -0.0604,-0.121"
         id="path107" />
      <path
         d="M 106.2953,85.4276 V 85.0648"
         id="path108" />
      <path
         d="m 106.2953,85.0648 0.0604,-0.121"
         id="path109" />
      <path
         d="m 106.3557,84.9438 0.0605,-0.0605"
         id="path110" />
      <path
         d="m 106.4162,84.8833 0.121,-0.0604"
         id="path111" />
      <path
         d="m 106.5372,84.8229 h 0.2419"
         id="path112" />
      <path
         d="M 106.7791,84.8229 106.9,84.8833"
         id="path113" />
    </g>
    <path
       style="fill:none;stroke:#000000;stroke-width:0.1524;stroke-linecap:round;stroke-linejoin:round;stroke-opacity:1"
       d="m 73.025,70.485 h 1.27"
       id="path114" />
    <path
       style="fill:none;stroke:#000000;stroke-width:0.1524;stroke-linecap:round;stroke-linejoin:round;stroke-opacity:1"
       d="m 73.533,69.85 h 0.254"
       id="path115" />
    <path
       style="fill:none;stroke:#000000;stroke-width:0.1524;stroke-linecap:round;stroke-linejoin:round;stroke-opacity:1"
       d="m 73.66,71.12 v 1.27"
       id="path116" />
    <path
       style="fill:none;stroke:#000000;stroke-width:0.1524;stroke-linecap:round;stroke-linejoin:round;stroke-opacity:1"
       d="M 74.93,71.12 H 72.39"
       id="path117" />
    <path
       d="m 73.66,72.39 v 0"
       id="path118" />
    <path
       style="fill:none;stroke:#000000;stroke-width:0.254;stroke-linecap:round;stroke-linejoin:round;stroke-opacity:1"
       d="M 69.85,73.914 V 70.358"
       id="path119" />
    <path
       style="fill:#000000;fill-opacity:1;fill-rule:evenodd;stroke:#000000;stroke-width:0.1524;stroke-linecap:round;stroke-linejoin:round;stroke-opacity:1"
       d="m 69.85,74.422 -0.508,-1.27 h 1.016 z"
       id="path120" />
  </g>
  <g
     style="fill:none;stroke:#000000;stroke-width:0.1524;stroke-linecap:round;stroke-linejoin:round;stroke-opacity:1"
     id="g131"
     transform="translate(-67.8132,-69.7738)">
    <g
       transform="rotate(-90,68.5799,72.644)"
       id="g121">
      <text
         x="68.579903"
         y="73.278999"
         textLength="2.0174999"
         font-size="1.6933px"
         lengthAdjust="spacingAndGlyphs"
         text-anchor="middle"
         opacity="0"
         stroke-opacity="0"
         id="text120">Zi</text>
    </g>
    <g
       class="stroked-text"
       id="g129">
      <desc
         id="desc121">Zi</desc>
      <path
         d="M 67.8894,73.3696 V 72.523"
         id="path121" />
      <path
         d="m 67.8894,72.523 1.27,0.8466"
         id="path122" />
      <path
         d="M 69.1594,73.3696 V 72.523"
         id="path123" />
      <path
         d="M 69.1594,72.0392 H 68.3128"
         id="path124" />
      <path
         d="m 67.8894,72.0392 0.0605,0.0604"
         id="path125" />
      <path
         d="m 67.9499,72.0996 0.0605,-0.0604"
         id="path126" />
      <path
         d="M 68.0104,72.0392 67.9499,71.9787"
         id="path127" />
      <path
         d="m 67.9499,71.9787 -0.0605,0.0605"
         id="path128" />
      <path
         d="m 67.8894,72.0392 h 0.121"
         id="path129" />
    </g>
    <path
       style="fill:none;stroke:#000000;stroke-width:0.254;stroke-linecap:round;stroke-linejoin:round;stroke-opacity:1"
       d="M 96.52,73.914 V 70.358"
       id="path130" />
    <path
       style="fill:#000000;fill-opacity:1;fill-rule:evenodd;stroke:#000000;stroke-width:0.1524;stroke-linecap:round;stroke-linejoin:round;stroke-opacity:1"
       d="m 96.52,74.422 -0.508,-1.27 h 1.016 z"
       id="path131" />
  </g>
  <g
     style="fill:none;stroke:#000000;stroke-width:0.1524;stroke-linecap:round;stroke-linejoin:round;stroke-opacity:1"
     id="g147"
     transform="translate(-67.8132,-69.7738)">
    <g
       transform="rotate(-90,95.2499,72.644)"
       id="g132">
      <text
         x="95.249901"
         y="73.278999"
         textLength="2.0174999"
         font-size="1.6933px"
         lengthAdjust="spacingAndGlyphs"
         text-anchor="middle"
         opacity="0"
         stroke-opacity="0"
         id="text131">Zi</text>
    </g>
    <g
       class="stroked-text"
       id="g140">
      <desc
         id="desc132">Zi</desc>
      <path
         d="M 94.5594,73.3696 V 72.523"
         id="path132" />
      <path
         d="m 94.5594,72.523 1.27,0.8466"
         id="path133" />
      <path
         d="M 95.8294,73.3696 V 72.523"
         id="path134" />
      <path
         d="M 95.8294,72.0392 H 94.9828"
         id="path135" />
      <path
         d="m 94.5594,72.0392 0.0605,0.0604"
         id="path136" />
      <path
         d="m 94.6199,72.0996 0.0605,-0.0604"
         id="path137" />
      <path
         d="M 94.6804,72.0392 94.6199,71.9787"
         id="path138" />
      <path
         d="m 94.6199,71.9787 -0.0605,0.0605"
         id="path139" />
      <path
         d="m 94.5594,72.0392 h 0.121"
         id="path140" />
    </g>
    <path
       style="fill:none;stroke:#000000;stroke-width:0.1524;stroke-linecap:round;stroke-linejoin:round;stroke-opacity:1"
       d="m 99.695,97.155 h -1.27"
       id="path141" />
    <path
       style="fill:none;stroke:#000000;stroke-width:0.1524;stroke-linecap:round;stroke-linejoin:round;stroke-opacity:1"
       d="M 99.187,97.79 H 98.933"
       id="path142" />
    <path
       style="fill:none;stroke:#000000;stroke-width:0.1524;stroke-linecap:round;stroke-linejoin:round;stroke-opacity:1"
       d="M 99.06,96.52 V 95.25"
       id="path143" />
    <path
       style="fill:none;stroke:#000000;stroke-width:0.1524;stroke-linecap:round;stroke-linejoin:round;stroke-opacity:1"
       d="m 97.79,96.52 h 2.54"
       id="path144" />
    <path
       d="m 99.06,95.25 v 0"
       id="path145" />
    <path
       style="fill:none;stroke:#000000;stroke-width:0.254;stroke-linecap:round;stroke-linejoin:round;stroke-opacity:1"
       d="m 96.52,93.726 v 3.556"
       id="path146" />
    <path
       style="fill:#000000;fill-opacity:1;fill-rule:evenodd;stroke:#000000;stroke-width:0.1524;stroke-linecap:round;stroke-linejoin:round;stroke-opacity:1"
       d="m 96.52,93.218 -0.508,1.27 h 1.016 z"
       id="path147" />
  </g>
  <g
     style="fill:none;stroke:#000000;stroke-width:0.1524;stroke-linecap:round;stroke-linejoin:round;stroke-opacity:1"
     id="g169"
     transform="translate(-67.8132,-69.7738)">
    <g
       transform="rotate(-90,95.2499,94.9959)"
       id="g148">
      <text
         x="95.249901"
         y="95.630898"
         textLength="2.5617001"
         font-size="1.6933px"
         lengthAdjust="spacingAndGlyphs"
         text-anchor="middle"
         opacity="0"
         stroke-opacity="0"
         id="text147">Zo</text>
    </g>
    <g
       class="stroked-text"
       id="g166">
      <desc
         id="desc148">Zo</desc>
      <path
         d="M 94.5594,95.9936 V 95.147"
         id="path148" />
      <path
         d="m 94.5594,95.147 1.27,0.8466"
         id="path149" />
      <path
         d="M 95.8294,95.9936 V 95.147"
         id="path150" />
      <path
         d="m 95.8294,94.4817 -0.0604,0.121"
         id="path151" />
      <path
         d="m 95.769,94.6027 -0.0605,0.0605"
         id="path152" />
      <path
         d="m 95.7085,94.6632 -0.121,0.0604"
         id="path153" />
      <path
         d="M 95.5875,94.7236 H 95.2247"
         id="path154" />
      <path
         d="m 95.2247,94.7236 -0.121,-0.0604"
         id="path155" />
      <path
         d="M 95.1037,94.6632 95.0432,94.6027"
         id="path156" />
      <path
         d="m 95.0432,94.6027 -0.0604,-0.121"
         id="path157" />
      <path
         d="M 94.9828,94.4817 V 94.3003"
         id="path158" />
      <path
         d="m 94.9828,94.3003 0.0604,-0.1209"
         id="path159" />
      <path
         d="m 95.0432,94.1794 0.0605,-0.0605"
         id="path160" />
      <path
         d="m 95.1037,94.1189 0.121,-0.0605"
         id="path161" />
      <path
         d="m 95.2247,94.0584 h 0.3628"
         id="path162" />
      <path
         d="m 95.5875,94.0584 0.121,0.0605"
         id="path163" />
      <path
         d="m 95.7085,94.1189 0.0605,0.0605"
         id="path164" />
      <path
         d="m 95.769,94.1794 0.0604,0.1209"
         id="path165" />
      <path
         d="m 95.8294,94.3003 v 0.1814"
         id="path166" />
    </g>
    <path
       style="fill:#000000;fill-opacity:1;fill-rule:evenodd;stroke:#000000;stroke-width:0.1524;stroke-linecap:round;stroke-linejoin:round;stroke-opacity:1"
       d="m 94.742,86.106 0.508,0.762 0.508,-0.762 z"
       id="path167" />
    <path
       style="fill:none;stroke:#000000;stroke-width:0.1524;stroke-linecap:round;stroke-linejoin:round;stroke-opacity:1"
       d="m 95.25,87.63 -2.54,-2.54 2.54,-2.54 2.54,2.54 z"
       id="path168" />
    <path
       style="fill:none;stroke:#000000;stroke-width:0.1524;stroke-linecap:round;stroke-linejoin:round;stroke-opacity:1"
       d="M 95.25,86.106 V 83.312"
       id="path169" />
  </g>
  <g
     style="fill:none;stroke:#000000;stroke-width:0.1524;stroke-linecap:round;stroke-linejoin:round;stroke-opacity:1"
     id="g308"
     transform="translate(-67.8132,-69.7738)">
    <path
       d="m 95.25,87.63 v 2.54"
       id="path170" />
    <path
       d="M 95.25,82.55 V 80.01"
       id="path171" />
    <text
       x="91.093002"
       y="89.026901"
       textLength="7.2788"
       font-size="1.6933px"
       lengthAdjust="spacingAndGlyphs"
       text-anchor="middle"
       opacity="0"
       stroke-opacity="0"
       id="text171">gm⋅Vgs</text>
    <g
       class="stroked-text"
       id="g240">
      <desc
         id="desc171">gm⋅Vgs</desc>
      <path
         d="m 88.4018,88.1248 v 1.0281"
         id="path172" />
      <path
         d="m 88.4018,89.1529 -0.0605,0.1209"
         id="path173" />
      <path
         d="m 88.3413,89.2738 -0.0604,0.0605"
         id="path174" />
      <path
         d="m 88.2809,89.3343 -0.121,0.0605"
         id="path175" />
      <path
         d="M 88.1599,89.3948 H 87.9785"
         id="path176" />
      <path
         d="m 87.9785,89.3948 -0.121,-0.0605"
         id="path177" />
      <path
         d="m 88.4018,88.911 -0.1209,0.0604"
         id="path178" />
      <path
         d="M 88.2809,88.9714 H 88.039"
         id="path179" />
      <path
         d="M 88.039,88.9714 87.918,88.911"
         id="path180" />
      <path
         d="M 87.918,88.911 87.8575,88.8505"
         id="path181" />
      <path
         d="m 87.8575,88.8505 -0.0604,-0.121"
         id="path182" />
      <path
         d="M 87.7971,88.7295 V 88.3667"
         id="path183" />
      <path
         d="m 87.7971,88.3667 0.0604,-0.121"
         id="path184" />
      <path
         d="M 87.8575,88.2457 87.918,88.1852"
         id="path185" />
      <path
         d="m 87.918,88.1852 0.121,-0.0604"
         id="path186" />
      <path
         d="m 88.039,88.1248 h 0.2419"
         id="path187" />
      <path
         d="m 88.2809,88.1248 0.1209,0.0604"
         id="path188" />
      <path
         d="M 89.0065,88.9714 V 88.1248"
         id="path189" />
      <path
         d="M 89.0065,88.2457 89.067,88.1852"
         id="path190" />
      <path
         d="m 89.067,88.1852 0.121,-0.0604"
         id="path191" />
      <path
         d="m 89.188,88.1248 h 0.1814"
         id="path192" />
      <path
         d="m 89.3694,88.1248 0.1209,0.0604"
         id="path193" />
      <path
         d="m 89.4903,88.1852 0.0605,0.121"
         id="path194" />
      <path
         d="m 89.5508,88.3062 v 0.6652"
         id="path195" />
      <path
         d="m 89.5508,88.3062 0.0605,-0.121"
         id="path196" />
      <path
         d="m 89.6113,88.1852 0.1209,-0.0604"
         id="path197" />
      <path
         d="m 89.7322,88.1248 h 0.1815"
         id="path198" />
      <path
         d="m 89.9137,88.1248 0.1209,0.0604"
         id="path199" />
      <path
         d="m 90.0346,88.1852 0.0605,0.121"
         id="path200" />
      <path
         d="m 90.0951,88.3062 v 0.6652"
         id="path201" />
      <path
         d="m 90.8813,88.4271 -0.0605,0.0605"
         id="path202" />
      <path
         d="m 90.8208,88.4876 0.0605,0.0605"
         id="path203" />
      <path
         d="m 90.8813,88.5481 0.0604,-0.0605"
         id="path204" />
      <path
         d="M 90.9417,88.4876 90.8813,88.4271"
         id="path205" />
      <path
         d="m 90.8813,88.4271 v 0.121"
         id="path206" />
      <path
         d="m 91.486,87.7014 0.4233,1.27"
         id="path207" />
      <path
         d="m 91.9093,88.9714 0.4234,-1.27"
         id="path208" />
      <path
         d="m 93.3003,88.1248 v 1.0281"
         id="path209" />
      <path
         d="m 93.3003,89.1529 -0.0605,0.1209"
         id="path210" />
      <path
         d="m 93.2398,89.2738 -0.0604,0.0605"
         id="path211" />
      <path
         d="m 93.1794,89.3343 -0.121,0.0605"
         id="path212" />
      <path
         d="M 93.0584,89.3948 H 92.877"
         id="path213" />
      <path
         d="M 92.877,89.3948 92.756,89.3343"
         id="path214" />
      <path
         d="m 93.3003,88.911 -0.1209,0.0604"
         id="path215" />
      <path
         d="M 93.1794,88.9714 H 92.9375"
         id="path216" />
      <path
         d="M 92.9375,88.9714 92.8165,88.911"
         id="path217" />
      <path
         d="M 92.8165,88.911 92.756,88.8505"
         id="path218" />
      <path
         d="m 92.756,88.8505 -0.0604,-0.121"
         id="path219" />
      <path
         d="M 92.6956,88.7295 V 88.3667"
         id="path220" />
      <path
         d="m 92.6956,88.3667 0.0604,-0.121"
         id="path221" />
      <path
         d="m 92.756,88.2457 0.0605,-0.0605"
         id="path222" />
      <path
         d="m 92.8165,88.1852 0.121,-0.0604"
         id="path223" />
      <path
         d="m 92.9375,88.1248 h 0.2419"
         id="path224" />
      <path
         d="m 93.1794,88.1248 0.1209,0.0604"
         id="path225" />
      <path
         d="m 93.8446,88.911 0.1209,0.0604"
         id="path226" />
      <path
         d="m 93.9655,88.9714 h 0.2419"
         id="path227" />
      <path
         d="m 94.2074,88.9714 0.121,-0.0604"
         id="path228" />
      <path
         d="M 94.3284,88.911 94.3888,88.79"
         id="path229" />
      <path
         d="M 94.3888,88.79 V 88.7295"
         id="path230" />
      <path
         d="M 94.3888,88.7295 94.3284,88.6086"
         id="path231" />
      <path
         d="m 94.3284,88.6086 -0.121,-0.0605"
         id="path232" />
      <path
         d="M 94.2074,88.5481 H 94.026"
         id="path233" />
      <path
         d="M 94.026,88.5481 93.905,88.4876"
         id="path234" />
      <path
         d="M 93.905,88.4876 93.8446,88.3667"
         id="path235" />
      <path
         d="M 93.8446,88.3667 V 88.3062"
         id="path236" />
      <path
         d="m 93.8446,88.3062 0.0604,-0.121"
         id="path237" />
      <path
         d="m 93.905,88.1852 0.121,-0.0604"
         id="path238" />
      <path
         d="m 94.026,88.1248 h 0.1814"
         id="path239" />
      <path
         d="m 94.2074,88.1248 0.121,0.0604"
         id="path240" />
    </g>
    <text
       x="99.059998"
       y="89.827103"
       textLength="0.45719999"
       font-size="1.6933px"
       lengthAdjust="spacingAndGlyphs"
       text-anchor="end"
       opacity="0"
       stroke-opacity="0"
       id="text240" />
    <g
       class="stroked-text"
       id="g241">
      <desc
         id="desc240" />
    </g>
    <path
       d="m 99.06,90.17 v 2.032"
       id="path241" />
    <circle
       cx="99.059998"
       cy="92.709999"
       r="0.50800002"
       id="circle241" />
    <text
       x="99.758499"
       y="93.345001"
       textLength="1.4127001"
       font-size="1.6933px"
       lengthAdjust="spacingAndGlyphs"
       text-anchor="start"
       opacity="0"
       stroke-opacity="0"
       id="text241">S</text>
    <g
       class="stroked-text"
       id="g260">
      <desc
         id="desc241">S</desc>
      <path
         d="m 100.1006,93.2291 0.1738,0.0604"
         id="path242" />
      <path
         d="m 100.2744,93.2895 h 0.3024"
         id="path243" />
      <path
         d="m 100.5768,93.2895 0.1285,-0.0604"
         id="path244" />
      <path
         d="m 100.7053,93.2291 0.0681,-0.0605"
         id="path245" />
      <path
         d="m 100.7734,93.1686 0.0755,-0.121"
         id="path246" />
      <path
         d="m 100.8489,93.0476 0.0152,-0.1209"
         id="path247" />
      <path
         d="m 100.8641,92.9267 -0.0454,-0.121"
         id="path248" />
      <path
         d="m 100.8187,92.8057 -0.0529,-0.0605"
         id="path249" />
      <path
         d="m 100.7658,92.7452 -0.1134,-0.0604"
         id="path250" />
      <path
         d="m 100.6524,92.6848 -0.2343,-0.0605"
         id="path251" />
      <path
         d="m 100.4181,92.6243 -0.1134,-0.0605"
         id="path252" />
      <path
         d="m 100.3047,92.5638 -0.053,-0.0605"
         id="path253" />
      <path
         d="m 100.2517,92.5033 -0.0453,-0.1209"
         id="path254" />
      <path
         d="m 100.2064,92.3824 0.0151,-0.121"
         id="path255" />
      <path
         d="m 100.2215,92.2614 0.0756,-0.1209"
         id="path256" />
      <path
         d="m 100.2971,92.1405 0.068,-0.0605"
         id="path257" />
      <path
         d="m 100.3651,92.08 0.1286,-0.0605"
         id="path258" />
      <path
         d="m 100.4937,92.0195 h 0.3023"
         id="path259" />
      <path
         d="m 100.796,92.0195 0.1739,0.0605"
         id="path260" />
    </g>
    <text
       x="99.059998"
       y="79.667099"
       textLength="0.45719999"
       font-size="1.6933px"
       lengthAdjust="spacingAndGlyphs"
       text-anchor="start"
       opacity="0"
       stroke-opacity="0"
       id="text260" />
    <g
       class="stroked-text"
       id="g261">
      <desc
         id="desc260" />
    </g>
    <path
       d="M 99.06,80.01 V 77.978"
       id="path261" />
    <circle
       cx="99.059998"
       cy="77.470001"
       r="0.50800002"
       id="circle261" />
    <text
       x="99.758499"
       y="78.105003"
       textLength="1.4732"
       font-size="1.6933px"
       lengthAdjust="spacingAndGlyphs"
       text-anchor="start"
       opacity="0"
       stroke-opacity="0"
       id="text261">D</text>
    <g
       class="stroked-text"
       id="g273">
      <desc
         id="desc261">D</desc>
      <path
         d="m 100.1535,78.0495 0.1587,-1.27"
         id="path262" />
      <path
         d="m 100.3122,76.7795 h 0.3024"
         id="path263" />
      <path
         d="m 100.6146,76.7795 0.1739,0.0605"
         id="path264" />
      <path
         d="m 100.7885,76.84 0.1058,0.121"
         id="path265" />
      <path
         d="m 100.8943,76.961 0.0454,0.1209"
         id="path266" />
      <path
         d="m 100.9397,77.0819 0.0302,0.2419"
         id="path267" />
      <path
         d="m 100.9699,77.3238 -0.0227,0.1814"
         id="path268" />
      <path
         d="m 100.9472,77.5052 -0.0907,0.2419"
         id="path269" />
      <path
         d="m 100.8565,77.7471 -0.0756,0.121"
         id="path270" />
      <path
         d="m 100.7809,77.8681 -0.1361,0.121"
         id="path271" />
      <path
         d="m 100.6448,77.9891 -0.1889,0.0604"
         id="path272" />
      <path
         d="m 100.4559,78.0495 h -0.3024"
         id="path273" />
    </g>
    <g
       transform="rotate(-90,111.4171,85.09)"
       id="g274">
      <text
         x="111.4171"
         y="85.089996"
         textLength="0.45719999"
         font-size="1.6933px"
         lengthAdjust="spacingAndGlyphs"
         text-anchor="start"
         opacity="0"
         stroke-opacity="0"
         id="text273" />
    </g>
    <g
       class="stroked-text"
       id="g275">
      <desc
         id="desc274" />
    </g>
    <path
       d="m 111.76,85.09 h -2.032"
       id="path275" />
    <circle
       cx="109.22"
       cy="85.089996"
       r="0.50800002"
       id="circle275" />
    <text
       x="108.458"
       y="83.946999"
       textLength="1.4732"
       font-size="1.6933px"
       lengthAdjust="spacingAndGlyphs"
       text-anchor="start"
       opacity="0"
       stroke-opacity="0"
       id="text275">G</text>
    <g
       class="stroked-text"
       id="g291">
      <desc
         id="desc275">G</desc>
      <path
         d="M 109.6694,82.682 109.556,82.6215"
         id="path276" />
      <path
         d="m 109.556,82.6215 h -0.1814"
         id="path277" />
      <path
         d="m 109.3746,82.6215 -0.189,0.0605"
         id="path278" />
      <path
         d="m 109.1856,82.682 -0.1361,0.121"
         id="path279" />
      <path
         d="m 109.0495,82.803 -0.0756,0.1209"
         id="path280" />
      <path
         d="m 108.9739,82.9239 -0.0907,0.2419"
         id="path281" />
      <path
         d="m 108.8832,83.1658 -0.0227,0.1814"
         id="path282" />
      <path
         d="m 108.8605,83.3472 0.0303,0.2419"
         id="path283" />
      <path
         d="m 108.8908,83.5891 0.0453,0.121"
         id="path284" />
      <path
         d="m 108.9361,83.7101 0.1059,0.121"
         id="path285" />
      <path
         d="m 109.042,83.8311 0.1738,0.0604"
         id="path286" />
      <path
         d="m 109.2158,83.8915 h 0.121"
         id="path287" />
      <path
         d="m 109.3368,83.8915 0.189,-0.0604"
         id="path288" />
      <path
         d="m 109.5258,83.8311 0.068,-0.0605"
         id="path289" />
      <path
         d="m 109.5938,83.7706 0.0529,-0.4234"
         id="path290" />
      <path
         d="m 109.6467,83.3472 h -0.2419"
         id="path291" />
    </g>
    <path
       d="m 81.28,85.09 h 5.08"
       id="path292" />
    <path
       d="m 95.25,80.01 h 3.81"
       id="path293" />
    <path
       d="m 73.66,90.17 v 5.08"
       id="path294" />
    <path
       d="m 73.66,74.93 v 5.08"
       id="path295" />
    <path
       d="m 99.06,90.17 v 5.08"
       id="path296" />
    <path
       d="M 111.76,74.93 V 85.09"
       id="path297" />
    <path
       d="M 111.76,74.93 H 99.06"
       id="path298" />
    <path
       d="m 102.87,80.01 v 1.27"
       id="path299" />
    <path
       d="m 99.06,90.17 h 3.81"
       id="path300" />
    <path
       d="M 102.87,90.17 V 88.9"
       id="path301" />
    <path
       d="M 86.36,74.93 H 73.66"
       id="path302" />
    <path
       d="m 73.66,72.39 v 2.54"
       id="path303" />
    <path
       d="m 95.25,90.17 h 3.81"
       id="path304" />
    <path
       d="M 86.36,74.93 V 85.09"
       id="path305" />
    <path
       d="m 99.06,72.39 v 2.54"
       id="path306" />
    <path
       d="m 99.06,74.93 v 5.08"
       id="path307" />
    <path
       d="m 99.06,80.01 h 3.81"
       id="path308" />
  </g>
  <g
     style="fill:#000000;fill-opacity:1;stroke:#000000;stroke-width:0.1524;stroke-linecap:round;stroke-linejoin:round;stroke-opacity:1"
     id="g311"
     transform="translate(-67.8132,-69.7738)">
    <circle
       cx="99.059998"
       cy="74.93"
       r="0.45719999"
       id="circle308" />
    <circle
       cx="99.059998"
       cy="90.169998"
       r="0.45719999"
       id="circle309" />
    <circle
       cx="99.059998"
       cy="80.010002"
       r="0.45719999"
       id="circle310" />
    <circle
       cx="73.660004"
       cy="74.93"
       r="0.45719999"
       id="circle311" />
  </g>
</svg>
