<?xml version="1.0"?><svg width="400" height="400" version="1.1" viewBox="0 0 200 200" xmlns="http://www.w3.org/2000/svg"><g stroke="#000"><path id="a" d="m98.69 6.01c-22.89 0.2617-45.56 9.269-62.35 24.83-15.13 13.9-25.52 32.87-28.96 53.13-3.352 19.29-0.5194 39.62 8.119 57.2 8.072 16.58 21.11 30.72 37.06 39.98 16.13 9.431 35.11 13.96 53.77 12.63 18.65-1.257 36.9-8.183 51.59-19.75 15.18-11.87 26.61-28.5 32.1-46.98 5.59-18.6 5.29-38.95-1.035-57.32-6.149-18.08-17.91-34.23-33.36-45.49-14.97-11-33.26-17.46-51.84-18.15-1.701-0.07483-3.405-0.09105-5.108-0.07691z" fill-opacity="0" stroke-width="2.835"/><g id="b" fill="none" stroke-width="1.89"><path id="c" d="m100 72.19v27.81h-20.21"/><path id="d" d="m147.3 100 38.28-27.81h-171.2l38.28 27.81"/><path id="e" d="m79.79 149.1-32.69 23.75 52.9-162.8 52.9 162.8-32.69-23.75"/></g></g></svg>