<?xml version="1.0" encoding="UTF-8" standalone="no"?><!DOCTYPE svg PUBLIC "-//W3C//DTD SVG 20010904//EN" "http://www.w3.org/TR/2001/REC-SVG-20010904/DTD/svg10.dtd"><svg xmlns="http://www.w3.org/2000/svg" width="3.6in" height="3.6in" viewBox="0 0 1080 1080"><path id="Jackestar" fill="none" stroke="black" stroke-width="20" d="M 795.92,520.93 C 887.79,453.98 955.00,405.00 955.00,405.00 955.00,405.00 125.00,405.00 125.00,405.00 125.00,405.00 192.27,454.02 284.20,521.02M 637.99,778.85 C 729.32,845.40 796.00,894.00 796.00,894.00 796.00,894.00 540.00,104.00 540.00,104.00 540.00,104.00 284.00,894.00 284.00,894.00 284.00,894.00 350.68,845.40 442.01,778.85M 540.00,405.00 C 540.00,405.00 540.00,540.00 540.00,540.00 540.00,540.00 442.00,540.00 442.00,540.00" /></svg>