<svg width="650" height="320" viewBox="0 0 650 320" xmlns="http://www.w3.org/2000/svg">
  <style>
    .signal { stroke: #007bff; stroke-width: 2; fill: none; }
    .baseline { stroke: #007bff; stroke-width: 1; }
    .label { font-family: sans-serif; font-size: 14px; fill: black; }
    .title { font-family: sans-serif; font-size: 18px; font-weight: bold; text-anchor: middle; }
    .time-label { font-family: sans-serif; font-size: 11px; fill: #555; text-anchor: middle; }
    .arrow-line { stroke: #555; stroke-width: 1; marker-start: url(#arrow); marker-end: url(#arrow); }
    .tick { stroke: #555; stroke-width: 1; }
    .dashed-line { stroke: #aaa; stroke-width: 1; stroke-dasharray: 4 2; }
  </style>

  <defs>
    <marker id="arrow" viewBox="0 0 10 10" refX="5" refY="5" markerWidth="6" markerHeight="6" orient="auto-start-reverse">
      <path d="M 0 0 L 10 5 L 0 10 z" fill="#555" />
    </marker>
  </defs>

  <title>Diagrama de Tiempos HC-SR04</title>
  <text x="325" y="25" class="title">Diagrama de Tiempos Módulo Ultrasónico HC-SR04</text>

  <!-- Coordenadas X clave -->
  <variable id="trigger_start" value="100"/>
  <variable id="trigger_width" value="15"/>
  <variable id="trigger_end" value="115"/>
  <variable id="ultra_start" value="130"/>
  <variable id="ultra_pulse_width" value="5"/>
  <variable id="ultra_pulse_gap" value="5"/>
  <variable id="ultra_end" value="205"/> <!-- 130 + 8*(5+5) - 5 gap -->
  <variable id="echo_start" value="220"/>
  <variable id="echo_end" value="480"/>
  <variable id="end_time" value="630"/>

  <!-- Pin Trigger -->
  <g transform="translate(0, 60)">
    <text x="10" y="30" class="label" dominant-baseline="middle">Pin Trigger</text>
    <line x1="80" y1="40" x2="630" y2="40" class="baseline" />
    <!-- Pulso de 10us -->
    <path d="M 100 40 v -25 h 15 v 25" class="signal" />
    <text x="107.5" y="55" class="time-label">Pulso de disparo (10µs)</text>
    <!-- Linea punteada fin trigger -->
    <!-- <line x1="115" y1="15" x2="115" y2="85" class="dashed-line" /> -->
  </g>

  <!-- Pulsos Ultrasónicos -->
  <g transform="translate(0, 120)">
     <text x="10" y="22" class="label">
        <tspan x="10">Pulsos</tspan>
        <tspan x="10" dy="16">Ultrasónicos</tspan>
     </text>
    <line x1="80" y1="40" x2="630" y2="40" class="baseline" />
    <!-- 8 Pulsos de 40kHz -->
    <g class="signal">
      <path d="M 130 40 v -20 h 5 v 20" />
      <path d="M 140 40 v -20 h 5 v 20" />
      <path d="M 150 40 v -20 h 5 v 20" />
      <path d="M 160 40 v -20 h 5 v 20" />
      <path d="M 170 40 v -20 h 5 v 20" />
      <path d="M 180 40 v -20 h 5 v 20" />
      <path d="M 190 40 v -20 h 5 v 20" />
      <path d="M 200 40 v -20 h 5 v 20" />
    </g>
    <text x="167.5" y="55" class="time-label">Ocho pulsos (40 kHz)</text>
     <!-- Linea punteada inicio pulsos -->
    <!-- <line x1="130" y1="20" x2="130" y2="145" class="dashed-line" /> -->
     <!-- Linea punteada fin pulsos -->
    <!-- <line x1="205" y1="20" x2="205" y2="145" class="dashed-line" /> -->
  </g>

  <!-- Pin ECHO -->
  <g transform="translate(0, 180)">
    <text x="10" y="30" class="label" dominant-baseline="middle">Pin ECHO</text>
    <line x1="80" y1="40" x2="630" y2="40" class="baseline" />
    <!-- Pulso de Echo (tiempo variable) -->
    <path d="M 220 40 v -25 h 260 v 25" class="signal" />

    <!-- Indicador de tiempo de ida y vuelta -->
    <line x1="220" y1="45" x2="220" y2="55" class="tick" />
    <line x1="480" y1="45" x2="480" y2="55" class="tick" />
    <line x1="220" y1="50" x2="480" y2="50" class="arrow-line" />
    <text x="350" y="65" class="time-label">Tiempo de ida y vuelta del pulso</text>

    <!-- Linea punteada inicio echo -->
    <!-- <line x1="220" y1="15" x2="220" y2="105" class="dashed-line" /> -->
     <!-- Linea punteada fin echo -->
    <!-- <line x1="480" y1="15" x2="480" y2="105" class="dashed-line" /> -->
  </g>

  <!-- Lineas punteadas verticales completas (opcional, para alinear todo) -->
   <!-- <line x1="115" y1="50" x2="115" y2="250" class="dashed-line" /> -->
   <!-- <line x1="130" y1="50" x2="130" y2="250" class="dashed-line" /> -->
   <!-- <line x1="205" y1="50" x2="205" y2="250" class="dashed-line" /> -->
   <!-- <line x1="220" y1="50" x2="220" y2="250" class="dashed-line" /> -->
   <!-- <line x1="480" y1="50" x2="480" y2="250" class="dashed-line" /> -->

</svg>