<?xml version="1.0" encoding="UTF-8" standalone="no"?>
<!-- Generator: Adobe Illustrator 14.0.0, SVG Export Plug-In . SVG Version: 6.00 Build 43363)  -->

<svg
   version="1.1"
   id="svg2"
   x="0px"
   y="0px"
   width="104.922"
   height="178.685"
   viewBox="0 0 104.922 178.685"
   enable-background="new 0 0 56.693 56.693"
   xml:space="preserve"
   xmlns="http://www.w3.org/2000/svg"
   xmlns:svg="http://www.w3.org/2000/svg"><defs
   id="defs12" />
<g
   id="icon"
   transform="translate(15.2185,55.997075)">
	
		
	<path
   stroke="#000000"
   stroke-width="2.655"
   d="m 81.4435,75.602507 c 0,4.706 -3.822,8.528 -8.524,8.528 H 3.9815 c -4.708,0 -8.524,-3.822 -8.524,-8.528 v -82.708 c 0,-4.704 3.818,-8.528 8.524,-8.528 h 68.938 c 4.708,0 8.524,3.824 8.524,8.528 z"
   id="path1" />
	<rect
   x="-8.0524998"
   y="27.608505"
   fill="#cccccc"
   width="92.75"
   height="13.284"
   id="rect1"
   style="stroke-width:2" />
	<rect
   x="57.331497"
   y="84.104507"
   fill="#cccccc"
   width="5.2160001"
   height="8.0200005"
   id="rect2"
   style="stroke-width:2" />
	<rect
   x="35.671501"
   y="84.104507"
   fill="#cccccc"
   width="5.2199998"
   height="8.0200005"
   id="rect3"
   style="stroke-width:2" />
	<rect
   x="14.0075"
   y="84.104507"
   fill="#cccccc"
   width="5.2199998"
   height="8.0200005"
   id="rect4"
   style="stroke-width:2" /><rect
   x="57.331505"
   y="-25.288994"
   fill="#cccccc"
   width="5.2160001"
   height="4"
   id="rect2-5"
   style="stroke-width:1.41245" /><rect
   x="14.0075"
   y="-25.288994"
   fill="#cccccc"
   width="5.2199998"
   height="4"
   id="rect4-3"
   style="stroke-width:1.41245" />
	<path
   fill="none"
   stroke="#000000"
   stroke-width="2.655"
   d="m 79.2755,71.272507 c 0,4.708 -3.814,8.532 -8.524,8.532 H 1.8175 c -4.708,0 -8.526,-3.822 -8.526,-8.532 v -82.708 c 0,-4.706 3.818,-8.526 8.526,-8.526 h 68.934 c 4.706,0 8.524,3.82 8.524,8.526 z"
   id="path4" />
	<polygon
   fill="#cccccc"
   points="54.011,7.582 55.095,9.747 55.095,47.849 54.011,45.685 9.515,45.685 9.515,7.582 "
   id="polygon4"
   transform="matrix(2,0,0,2,-27.2425,-23.345493)" />
	<polygon
   fill="#ababab"
   points="8.512,29.955 8.512,23.313 54.889,23.313 55.973,25.477 55.973,32.119 54.889,29.955 9.515,29.83 9.494,32.088 "
   id="polygon5"
   transform="matrix(2,0,0,2,-27.2425,-23.345493)" />
	<path
   fill="#ababab"
   d="m 78.6295,70.548507 c 0,4.626 -3.75,8.374 -8.378,8.374 h -67.72 c -4.626,0 -8.376,-3.746 -8.376,-8.374 v -81.252 c 0,-4.624 3.75,-8.378 8.376,-8.378 h 67.718 c 4.624,0 8.376,3.754 8.376,8.378 z"
   id="path5"
   style="stroke-width:2" />
	<circle
   cx="69.963501"
   cy="69.762512"
   r="4.7579999"
   id="circle5"
   style="stroke-width:2" />
	<circle
   cx="2.8155005"
   cy="69.762512"
   r="4.7579999"
   id="circle6"
   style="stroke-width:2" />
	<circle
   cx="69.963501"
   cy="-10.377493"
   r="4.7579999"
   id="circle7"
   style="stroke-width:2" />
	<circle
   cx="2.8155005"
   cy="-10.377493"
   r="4.7579999"
   id="circle8"
   style="stroke-width:2" />
	<path
   fill="#878787"
   stroke="#777777"
   stroke-width="3.008"
   d="m 36.2975,5.416507 c 13.494,0 24.44,10.942 24.44,24.44 0,13.498 -10.946,24.438 -24.44,24.438 -13.504,0 -24.448,-10.942 -24.448,-24.438 0.002,-13.498 10.944,-24.44 24.448,-24.44 z"
   id="path8" />
	<circle
   fill="#878787"
   cx="36.297501"
   cy="29.856506"
   r="19.552"
   id="circle9"
   style="stroke-width:2" />
	<path
   fill="#3a3a3a"
   d="m 34.1355,5.972507 c 10.798,0 19.55,8.752 19.55,19.55 0,10.796 -8.752,19.552 -19.55,19.552 -10.806,0 -19.558,-8.756 -19.558,-19.552 0,-10.796 8.752,-19.55 19.558,-19.55 z"
   id="path9"
   style="stroke-width:2" />
	<polygon
   fill="#3a3a3a"
   points="22.244,29.248 39.641,20.509 35.078,11.465 17.535,19.992 "
   id="polygon9"
   transform="matrix(2,0,0,2,-27.2425,-23.345493)" />
	<path
   fill="#595959"
   d="m 27.7975,36.188507 21.508,-23.934 c 0.368,1.494 0.33,2.898 0.33,4.506 0,10.798 -8.754,19.556 -19.56,19.556 -0.768,0.004 -1.526,-0.04 -2.278,-0.128 z"
   id="path10"
   style="stroke-width:2" />
	
	<path
   fill="#3a3a3a"
   d="m 23.4475,27.650507 c -9.852,-1.006 -17.54,-9.338 -17.54,-19.458 0,-10.798 8.752,-19.552 19.552,-19.552 9.396,0 17.236,6.614 19.126,15.434 z"
   id="path12"
   style="stroke-width:2" />
	<polygon
   fill="#828282"
   points="27.52,29.767 38.277,17.802 36.089,13.563 25.345,25.498 "
   id="polygon12"
   transform="matrix(2,0,0,2,-27.2425,-23.345493)" />
<text
   xml:space="preserve"
   style="font-weight:900;font-size:8px;font-family:Roboto;-inkscape-font-specification:'Roboto Heavy';text-align:center;text-anchor:middle;fill:#000000;stroke:none;stroke-width:11.3386;stroke-linejoin:round"
   x="22.716974"
   y="-7.956501"
   id="text12"><tspan
     id="tspan12"
     x="22.716974"
     y="-7.956501" /></text><path
   d="m 18.506084,-41.420175 h -3.757812 l -0.65625,2.125 h -2.929688 l 4.171876,-11.375 h 2.578124 l 4.203126,11.375 h -2.945312 z m -3.101562,-2.117188 h 2.445312 l -1.226562,-3.945312 z"
   id="text15"
   style="font-weight:900;font-size:8px;font-family:Roboto;-inkscape-font-specification:'Roboto Heavy';text-align:center;text-anchor:middle;stroke-width:22.6772;stroke-linejoin:round"
   aria-label="A" /><path
   d="m 58.24122,-46.247075 h 1.242186 q 1.476564,0 1.476564,-1.445312 0,-0.5625 -0.351564,-0.914062 -0.351562,-0.359376 -0.992186,-0.359376 -0.523438,0 -0.914064,0.304688 -0.382812,0.304688 -0.382812,0.757812 h -2.632812 q 0,-0.898438 0.5,-1.601562 0.5,-0.703126 1.382812,-1.09375 0.890626,-0.398438 1.953126,-0.398438 1.898436,0 2.984374,0.867188 1.085938,0.867188 1.085938,2.382812 0,0.734376 -0.453126,1.390626 -0.445312,0.648436 -1.304686,1.054686 0.90625,0.328126 1.421874,1 0.515626,0.664064 0.515626,1.648438 0,1.523437 -1.171876,2.4375 -1.171874,0.914062 -3.078124,0.914062 -1.117188,0 -2.078126,-0.421875 -0.953124,-0.429687 -1.445312,-1.179687 -0.492188,-0.757813 -0.492188,-1.71875 h 2.648438 q 0,0.523437 0.421874,0.90625 0.421876,0.382812 1.039064,0.382812 0.695312,0 1.109374,-0.382812 0.414062,-0.390625 0.414062,-0.992188 0,-0.859374 -0.429686,-1.21875 -0.429688,-0.359374 -1.1875,-0.359374 h -1.28125 z"
   id="text16"
   style="font-weight:900;font-size:8px;font-family:Roboto;-inkscape-font-specification:'Roboto Heavy';text-align:center;text-anchor:middle;stroke-width:22.6772;stroke-linejoin:round"
   aria-label="3" /><path
   d="M 18.906986,117.47602 H 16.26636 v -8.40625 l -2.59375,0.75782 v -2 l 4.992188,-1.72657 h 0.242188 z"
   id="text17"
   style="font-weight:900;font-size:8px;font-family:Roboto;-inkscape-font-specification:'Roboto Heavy';text-align:center;text-anchor:middle;stroke-width:22.6772;stroke-linejoin:round"
   aria-label="1" /><path
   d="m 34.165776,117.53401 v -11.375 h 4.085938 q 2.195312,0 3.335938,0.80469 1.148436,0.80468 1.148436,2.33593 0,0.88282 -0.40625,1.50782 -0.40625,0.625 -1.195312,0.92187 0.890626,0.23438 1.367188,0.875 0.476562,0.64063 0.476562,1.5625 0,1.67188 -1.0625,2.51563 -1.054688,0.83593 -3.132812,0.85156 z m 2.742188,-4.83594 v 2.72656 h 1.796874 q 0.742188,0 1.140626,-0.33593 0.398438,-0.34375 0.398438,-0.96094 0,-1.42188 -1.414064,-1.42969 z m 0,-1.79687 h 1.429688 q 0.898436,-0.008 1.28125,-0.32813 0.382812,-0.32031 0.382812,-0.94531 0,-0.71875 -0.414062,-1.03125 -0.414064,-0.32031 -1.335938,-0.32031 h -1.34375 z"
   id="text18"
   style="font-weight:900;font-size:8px;font-family:Roboto;-inkscape-font-specification:'Roboto Heavy';text-align:center;text-anchor:middle;stroke-width:22.6772;stroke-linejoin:round"
   aria-label="B" /><path
   d="m 63.903696,117.68806 h -7.9375 v -1.71875 l 3.65625,-3.84375 q 1.351562,-1.53906 1.351562,-2.44531 0,-0.73438 -0.320312,-1.11719 -0.320314,-0.38281 -0.929688,-0.38281 -0.601562,0 -0.976562,0.51562 -0.375,0.50782 -0.375,1.27344 H 55.73182 q 0,-1.04687 0.523438,-1.92969 0.523438,-0.89062 1.453124,-1.39062 0.929688,-0.5 2.078126,-0.5 1.84375,0 2.835938,0.85156 1,0.85156 1,2.44531 0,0.67188 -0.25,1.3125 -0.25,0.63282 -0.78125,1.33594 -0.523438,0.69531 -1.695314,1.86719 l -1.46875,1.69531 h 4.476564 z"
   id="text19"
   style="font-weight:900;font-size:8px;font-family:Roboto;-inkscape-font-specification:'Roboto Heavy';text-align:center;text-anchor:middle;stroke-width:22.6772;stroke-linejoin:round"
   aria-label="2" /></g>
</svg>
