<svg version="1.1" xmlns="http://www.w3.org/2000/svg" xmlns:xlink="http://www.w3.org/1999/xlink" width="588" height="260"><defs/><g transform="scale(1,1) translate(-74,-62)"><path fill="none" stroke="#000000" paint-order="fill stroke markers" d=" M 144 272 L 144 241" stroke-linecap="round" stroke-miterlimit="10" stroke-width="3" stroke-dasharray=""/><path fill="none" stroke="#000000" paint-order="fill stroke markers" d=" M 144 207 L 144 176" stroke-linecap="round" stroke-miterlimit="10" stroke-width="3" stroke-dasharray=""/><path fill="none" stroke="#808080" paint-order="fill stroke markers" d=" M 160.66 224 A 16.66 16.66 0 1 1 160.6599916700007 223.98334000277666" stroke-linecap="round" stroke-miterlimit="10" stroke-width="3" stroke-dasharray=""/><path fill="none" stroke="#808080" paint-order="fill stroke markers" d=" M 134 224 L 135 222 L 136 220 L 137 218 L 138 217 L 139 217 L 140 217 L 141 218 L 142 220 L 143 222 L 144 224 L 145 226 L 146 228 L 147 230 L 148 231 L 149 231 L 150 231 L 151 230 L 152 228 L 153 226 L 154 224" stroke-linecap="round" stroke-miterlimit="10" stroke-width="3" stroke-dasharray=""/><text fill="#000000" stroke="none" font-family="sans-serif" font-size="12px" font-style="normal" font-weight="normal" text-decoration="normal" x="97" y="230" text-anchor="start" dominant-baseline="alphabetic">60Hz</text><text fill="#000000" stroke="none" font-family="sans-serif" font-size="12px" font-style="normal" font-weight="normal" text-decoration="normal" x="151" y="207" text-anchor="start" dominant-baseline="alphabetic">*</text><path fill="none" stroke="#000000" paint-order="fill stroke markers" d=" M 416 176 L 398 194" stroke-linecap="round" stroke-miterlimit="10" stroke-width="3" stroke-dasharray=""/><path fill="none" stroke="#000000" paint-order="fill stroke markers" d=" M 386 206 L 368 224" stroke-linecap="round" stroke-miterlimit="10" stroke-width="3" stroke-dasharray=""/><path fill="#000000" stroke="none" paint-order="stroke fill markers" d=" M 404 200 L 392 188 L 386 206 Z"/><path fill="none" stroke="#000000" paint-order="fill stroke markers" d=" M 392 212 L 380 200" stroke-linecap="round" stroke-miterlimit="10" stroke-width="3" stroke-dasharray=""/><path fill="none" stroke="#000000" paint-order="fill stroke markers" d=" M 192 176 L 239 176" stroke-linecap="round" stroke-miterlimit="10" stroke-width="3" stroke-dasharray=""/><path fill="none" stroke="#000000" paint-order="fill stroke markers" d=" M 304 176 L 257 176" stroke-linecap="round" stroke-miterlimit="10" stroke-width="3" stroke-dasharray=""/><path fill="none" stroke="#000000" paint-order="fill stroke markers" d=" M 192 272 L 239 272" stroke-linecap="round" stroke-miterlimit="10" stroke-width="3" stroke-dasharray=""/><path fill="none" stroke="#000000" paint-order="fill stroke markers" d=" M 304 272 L 257 272" stroke-linecap="round" stroke-miterlimit="10" stroke-width="3" stroke-dasharray=""/><g transform="matrix(0,1,-1,0,239,176) scale(1,1)"><path fill="none" stroke="#000000" paint-order="fill stroke markers" d=" M 0 0 L 0 6.53144959545255e-16 A 5.333333333333333 5.333333333333333 0 0 1 10.666666666666666 0 L 10.666666666666666 0" stroke-linecap="round" stroke-miterlimit="10" stroke-width="3" stroke-dasharray=""/><path fill="none" stroke="#000000" paint-order="fill stroke markers" d=" M 10.666666666666666 0 L 10.666666666666668 6.53144959545255e-16 A 5.333333333333333 5.333333333333333 0 0 1 21.333333333333332 0 L 21.333333333333332 0" stroke-linecap="round" stroke-miterlimit="10" stroke-width="3" stroke-dasharray=""/><path fill="none" stroke="#000000" paint-order="fill stroke markers" d=" M 21.333333333333332 0 L 21.333333333333336 6.53144959545255e-16 A 5.333333333333333 5.333333333333333 0 0 1 32 0 L 32 0" stroke-linecap="round" stroke-miterlimit="10" stroke-width="3" stroke-dasharray=""/><path fill="none" stroke="#000000" paint-order="fill stroke markers" d=" M 32 0 L 32 6.53144959545255e-16 A 5.333333333333333 5.333333333333333 0 0 1 42.66666666666667 0 L 42.666666666666664 0" stroke-linecap="round" stroke-miterlimit="10" stroke-width="3" stroke-dasharray=""/><path fill="none" stroke="#000000" paint-order="fill stroke markers" d=" M 42.666666666666664 0 L 42.666666666666664 6.53144959545255e-16 A 5.333333333333333 5.333333333333333 0 0 1 53.333333333333336 0 L 53.333333333333336 0" stroke-linecap="round" stroke-miterlimit="10" stroke-width="3" stroke-dasharray=""/><path fill="none" stroke="#000000" paint-order="fill stroke markers" d=" M 53.333333333333336 0 L 53.33333333333333 6.53144959545255e-16 A 5.333333333333333 5.333333333333333 0 0 1 64 0 L 64 0" stroke-linecap="round" stroke-miterlimit="10" stroke-width="3" stroke-dasharray=""/><path fill="none" stroke="#000000" paint-order="fill stroke markers" d=" M 64 0 L 63.99999999999999 6.53144959545255e-16 A 5.333333333333333 5.333333333333333 0 0 1 74.66666666666666 0 L 74.66666666666667 0" stroke-linecap="round" stroke-miterlimit="10" stroke-width="3" stroke-dasharray=""/><path fill="none" stroke="#000000" paint-order="fill stroke markers" d=" M 74.66666666666667 0 L 74.66666666666667 6.53144959545255e-16 A 5.333333333333333 5.333333333333333 0 0 1 85.33333333333333 0 L 85.33333333333333 0" stroke-linecap="round" stroke-miterlimit="10" stroke-width="3" stroke-dasharray=""/><path fill="none" stroke="#000000" paint-order="fill stroke markers" d=" M 85.33333333333333 0 L 85.33333333333334 6.53144959545255e-16 A 5.333333333333333 5.333333333333333 0 0 1 96 0 L 96 0" stroke-linecap="round" stroke-miterlimit="10" stroke-width="3" stroke-dasharray=""/></g><g transform="matrix(0,1,-1,0,257,176) scale(1,-1)"><path fill="none" stroke="#000000" paint-order="fill stroke markers" d=" M 0 0 L 0 6.53144959545255e-16 A 5.333333333333333 5.333333333333333 0 0 1 10.666666666666666 0 L 10.666666666666666 0" stroke-linecap="round" stroke-miterlimit="10" stroke-width="3" stroke-dasharray=""/><path fill="none" stroke="#000000" paint-order="fill stroke markers" d=" M 10.666666666666666 0 L 10.666666666666668 6.53144959545255e-16 A 5.333333333333333 5.333333333333333 0 0 1 21.333333333333332 0 L 21.333333333333332 0" stroke-linecap="round" stroke-miterlimit="10" stroke-width="3" stroke-dasharray=""/><path fill="none" stroke="#000000" paint-order="fill stroke markers" d=" M 21.333333333333332 0 L 21.333333333333336 6.53144959545255e-16 A 5.333333333333333 5.333333333333333 0 0 1 32 0 L 32 0" stroke-linecap="round" stroke-miterlimit="10" stroke-width="3" stroke-dasharray=""/><path fill="none" stroke="#000000" paint-order="fill stroke markers" d=" M 32 0 L 32 6.53144959545255e-16 A 5.333333333333333 5.333333333333333 0 0 1 42.66666666666667 0 L 42.666666666666664 0" stroke-linecap="round" stroke-miterlimit="10" stroke-width="3" stroke-dasharray=""/><path fill="none" stroke="#000000" paint-order="fill stroke markers" d=" M 42.666666666666664 0 L 42.666666666666664 6.53144959545255e-16 A 5.333333333333333 5.333333333333333 0 0 1 53.333333333333336 0 L 53.333333333333336 0" stroke-linecap="round" stroke-miterlimit="10" stroke-width="3" stroke-dasharray=""/><path fill="none" stroke="#000000" paint-order="fill stroke markers" d=" M 53.333333333333336 0 L 53.33333333333333 6.53144959545255e-16 A 5.333333333333333 5.333333333333333 0 0 1 64 0 L 64 0" stroke-linecap="round" stroke-miterlimit="10" stroke-width="3" stroke-dasharray=""/><path fill="none" stroke="#000000" paint-order="fill stroke markers" d=" M 64 0 L 63.99999999999999 6.53144959545255e-16 A 5.333333333333333 5.333333333333333 0 0 1 74.66666666666666 0 L 74.66666666666667 0" stroke-linecap="round" stroke-miterlimit="10" stroke-width="3" stroke-dasharray=""/><path fill="none" stroke="#000000" paint-order="fill stroke markers" d=" M 74.66666666666667 0 L 74.66666666666667 6.53144959545255e-16 A 5.333333333333333 5.333333333333333 0 0 1 85.33333333333333 0 L 85.33333333333333 0" stroke-linecap="round" stroke-miterlimit="10" stroke-width="3" stroke-dasharray=""/><path fill="none" stroke="#000000" paint-order="fill stroke markers" d=" M 85.33333333333333 0 L 85.33333333333334 6.53144959545255e-16 A 5.333333333333333 5.333333333333333 0 0 1 96 0 L 96 0" stroke-linecap="round" stroke-miterlimit="10" stroke-width="3" stroke-dasharray=""/></g><path fill="none" stroke="#000000" paint-order="fill stroke markers" d=" M 246 176 L 246 272" stroke-linecap="round" stroke-miterlimit="10" stroke-width="3" stroke-dasharray=""/><path fill="none" stroke="#000000" paint-order="fill stroke markers" d=" M 249 176 L 249 272" stroke-linecap="round" stroke-miterlimit="10" stroke-width="3" stroke-dasharray=""/><path fill="none" stroke="#000000" paint-order="fill stroke markers" d=" M 144 176 L 192 176" stroke-linecap="round" stroke-miterlimit="10" stroke-width="3" stroke-dasharray=""/><text fill="#000000" stroke="none" font-family="sans-serif" font-size="12px" font-style="normal" font-weight="normal" text-decoration="normal" x="168" y="170" text-anchor="start" dominant-baseline="alphabetic"></text><path fill="none" stroke="#000000" paint-order="fill stroke markers" d=" M 144 272 L 192 272" stroke-linecap="round" stroke-miterlimit="10" stroke-width="3" stroke-dasharray=""/><text fill="#000000" stroke="none" font-family="sans-serif" font-size="12px" font-style="normal" font-weight="normal" text-decoration="normal" x="168" y="266" text-anchor="start" dominant-baseline="alphabetic"></text><path fill="none" stroke="#000000" paint-order="fill stroke markers" d=" M 416 272 L 398 254" stroke-linecap="round" stroke-miterlimit="10" stroke-width="3" stroke-dasharray=""/><path fill="none" stroke="#000000" paint-order="fill stroke markers" d=" M 386 242 L 368 224" stroke-linecap="round" stroke-miterlimit="10" stroke-width="3" stroke-dasharray=""/><path fill="#000000" stroke="none" paint-order="stroke fill markers" d=" M 392 260 L 404 248 L 386 242 Z"/><path fill="none" stroke="#000000" paint-order="fill stroke markers" d=" M 380 248 L 392 236" stroke-linecap="round" stroke-miterlimit="10" stroke-width="3" stroke-dasharray=""/><path fill="none" stroke="#000000" paint-order="fill stroke markers" d=" M 464 224 L 446 242" stroke-linecap="round" stroke-miterlimit="10" stroke-width="3" stroke-dasharray=""/><path fill="none" stroke="#000000" paint-order="fill stroke markers" d=" M 434 254 L 416 272" stroke-linecap="round" stroke-miterlimit="10" stroke-width="3" stroke-dasharray=""/><path fill="#000000" stroke="none" paint-order="stroke fill markers" d=" M 452 248 L 440 236 L 434 254 Z"/><path fill="none" stroke="#000000" paint-order="fill stroke markers" d=" M 440 260 L 428 248" stroke-linecap="round" stroke-miterlimit="10" stroke-width="3" stroke-dasharray=""/><path fill="none" stroke="#000000" paint-order="fill stroke markers" d=" M 464 224 L 446 206" stroke-linecap="round" stroke-miterlimit="10" stroke-width="3" stroke-dasharray=""/><path fill="none" stroke="#000000" paint-order="fill stroke markers" d=" M 434 194 L 416 176" stroke-linecap="round" stroke-miterlimit="10" stroke-width="3" stroke-dasharray=""/><path fill="#000000" stroke="none" paint-order="stroke fill markers" d=" M 440 212 L 452 200 L 434 194 Z"/><path fill="none" stroke="#000000" paint-order="fill stroke markers" d=" M 428 200 L 440 188" stroke-linecap="round" stroke-miterlimit="10" stroke-width="3" stroke-dasharray=""/><path fill="none" stroke="#000000" paint-order="fill stroke markers" d=" M 416 176 L 304 176" stroke-linecap="round" stroke-miterlimit="10" stroke-width="3" stroke-dasharray=""/><text fill="#000000" stroke="none" font-family="sans-serif" font-size="12px" font-style="normal" font-weight="normal" text-decoration="normal" x="360" y="170" text-anchor="start" dominant-baseline="alphabetic"></text><path fill="none" stroke="#000000" paint-order="fill stroke markers" d=" M 416 272 L 304 272" stroke-linecap="round" stroke-miterlimit="10" stroke-width="3" stroke-dasharray=""/><text fill="#000000" stroke="none" font-family="sans-serif" font-size="12px" font-style="normal" font-weight="normal" text-decoration="normal" x="360" y="266" text-anchor="start" dominant-baseline="alphabetic"></text><path fill="none" stroke="#000000" paint-order="fill stroke markers" d=" M 368 224 L 320 224" stroke-linecap="round" stroke-miterlimit="10" stroke-width="3" stroke-dasharray=""/><text fill="#000000" stroke="none" font-family="sans-serif" font-size="12px" font-style="normal" font-weight="normal" text-decoration="normal" x="344" y="218" text-anchor="start" dominant-baseline="alphabetic"></text><path fill="none" stroke="#000000" paint-order="fill stroke markers" d=" M 320 224 L 320 112" stroke-linecap="round" stroke-miterlimit="10" stroke-width="3" stroke-dasharray=""/><text fill="#000000" stroke="none" font-family="sans-serif" font-size="12px" font-style="normal" font-weight="normal" text-decoration="normal" x="326" y="174" text-anchor="start" dominant-baseline="alphabetic"></text><path fill="none" stroke="#000000" paint-order="fill stroke markers" d=" M 320 112 L 512 112" stroke-linecap="round" stroke-miterlimit="10" stroke-width="3" stroke-dasharray=""/><text fill="#000000" stroke="none" font-family="sans-serif" font-size="12px" font-style="normal" font-weight="normal" text-decoration="normal" x="416" y="106" text-anchor="start" dominant-baseline="alphabetic"></text><path fill="none" stroke="#000000" paint-order="fill stroke markers" d=" M 464 224 L 512 224" stroke-linecap="round" stroke-miterlimit="10" stroke-width="3" stroke-dasharray=""/><text fill="#000000" stroke="none" font-family="sans-serif" font-size="12px" font-style="normal" font-weight="normal" text-decoration="normal" x="488" y="218" text-anchor="start" dominant-baseline="alphabetic"></text><path fill="none" stroke="#000000" paint-order="fill stroke markers" d=" M 512 112 L 512 164" stroke-linecap="round" stroke-miterlimit="10" stroke-width="3" stroke-dasharray=""/><path fill="none" stroke="#000000" paint-order="fill stroke markers" d=" M 524 164 L 500 164" stroke-linecap="round" stroke-miterlimit="10" stroke-width="3" stroke-dasharray=""/><path fill="none" stroke="#000000" paint-order="fill stroke markers" d=" M 512 224 L 512 172" stroke-linecap="round" stroke-miterlimit="10" stroke-width="3" stroke-dasharray=""/><path fill="none" stroke="#000000" paint-order="fill stroke markers" d=" M 524 172 L 500 172" stroke-linecap="round" stroke-miterlimit="10" stroke-width="3" stroke-dasharray=""/><text fill="#000000" stroke="none" font-family="sans-serif" font-size="12px" font-style="normal" font-weight="normal" text-decoration="normal" x="526" y="174" text-anchor="start" dominant-baseline="alphabetic">47μF</text><path fill="none" stroke="#000000" paint-order="fill stroke markers" d=" M 512 112 L 592 112" stroke-linecap="round" stroke-miterlimit="10" stroke-width="3" stroke-dasharray=""/><text fill="#000000" stroke="none" font-family="sans-serif" font-size="12px" font-style="normal" font-weight="normal" text-decoration="normal" x="552" y="106" text-anchor="start" dominant-baseline="alphabetic"></text><path fill="none" stroke="#000000" paint-order="fill stroke markers" d=" M 512 224 L 592 224" stroke-linecap="round" stroke-miterlimit="10" stroke-width="3" stroke-dasharray=""/><text fill="#000000" stroke="none" font-family="sans-serif" font-size="12px" font-style="normal" font-weight="normal" text-decoration="normal" x="552" y="218" text-anchor="start" dominant-baseline="alphabetic"></text><path fill="none" stroke="#000000" paint-order="fill stroke markers" d=" M 592 112 L 592 152" stroke-linecap="round" stroke-miterlimit="10" stroke-width="3" stroke-dasharray=""/><path fill="none" stroke="#000000" paint-order="fill stroke markers" d=" M 592 184 L 592 224" stroke-linecap="round" stroke-miterlimit="10" stroke-width="3" stroke-dasharray=""/><g transform="matrix(0,1,-1,0,592,152)"><rect fill="none" stroke="#000000" x="0" y="-6" width="32" height="12" stroke-linecap="round" stroke-miterlimit="10" stroke-width="3" stroke-dasharray=""/></g><text fill="#000000" stroke="none" font-family="sans-serif" font-size="12px" font-style="normal" font-weight="normal" text-decoration="normal" x="602" y="174" text-anchor="start" dominant-baseline="alphabetic">1k</text><g><text fill="#000000" stroke="none" font-family="sans-serif" font-size="24px" font-style="normal" font-weight="normal" text-decoration="normal" x="224" y="164" text-anchor="start" dominant-baseline="alphabetic">10:1</text></g><g><text fill="#000000" stroke="none" font-family="sans-serif" font-size="20px" font-style="normal" font-weight="normal" text-decoration="normal" x="341" y="201" text-anchor="start" dominant-baseline="alphabetic">D1</text></g><g><text fill="#000000" stroke="none" font-family="sans-serif" font-size="20px" font-style="normal" font-weight="normal" text-decoration="normal" x="456" y="193" text-anchor="start" dominant-baseline="alphabetic">D2</text></g><g><text fill="#000000" stroke="none" font-family="sans-serif" font-size="20px" font-style="normal" font-weight="normal" text-decoration="normal" x="453" y="269" text-anchor="start" dominant-baseline="alphabetic">D3</text></g><g><text fill="#000000" stroke="none" font-family="sans-serif" font-size="20px" font-style="normal" font-weight="normal" text-decoration="normal" x="339" y="258" text-anchor="start" dominant-baseline="alphabetic">D4</text></g><path fill="#000000" stroke="none" paint-order="stroke fill markers" d=" M 419 176 A 3 3 0 1 1 418.99999999995777 175.99998407846124 Z"/><path fill="#000000" stroke="none" paint-order="stroke fill markers" d=" M 371 224 A 3 3 0 1 1 370.99999999995777 223.99998407846124 Z"/><path fill="#000000" stroke="none" paint-order="stroke fill markers" d=" M 419 272 A 3 3 0 1 1 418.99999999995777 271.99998407846124 Z"/><path fill="#000000" stroke="none" paint-order="stroke fill markers" d=" M 467 224 A 3 3 0 1 1 466.99999999995777 223.99998407846124 Z"/><path fill="#000000" stroke="none" paint-order="stroke fill markers" d=" M 515 112 A 3 3 0 1 1 514.9999999999577 111.99998407846124 Z"/><path fill="#000000" stroke="none" paint-order="stroke fill markers" d=" M 515 224 A 3 3 0 1 1 514.9999999999577 223.99998407846124 Z"/></g></svg>