<svg version="1.1" xmlns="http://www.w3.org/2000/svg" xmlns:xlink="http://www.w3.org/1999/xlink" width="476" height="348"><defs/><g transform="scale(1,1) translate(-10,-118)"><path fill="none" stroke="#000000" paint-order="fill stroke markers" d=" M 80 416 L 80 308" stroke-linecap="round" stroke-miterlimit="10" stroke-width="3" stroke-dasharray=""/><path fill="none" stroke="#000000" paint-order="fill stroke markers" d=" M 80 300 L 80 192" stroke-linecap="round" stroke-miterlimit="10" stroke-width="3" stroke-dasharray=""/><path fill="none" stroke="#000000" paint-order="fill stroke markers" d=" M 70 308 L 90 308" stroke-linecap="round" stroke-miterlimit="10" stroke-width="3" stroke-dasharray=""/><path fill="none" stroke="#000000" paint-order="fill stroke markers" d=" M 64 300 L 96 300" stroke-linecap="round" stroke-miterlimit="10" stroke-width="3" stroke-dasharray=""/><path fill="none" stroke="#000000" paint-order="fill stroke markers" d=" M 80 192 L 128 192" stroke-linecap="round" stroke-miterlimit="10" stroke-width="3" stroke-dasharray=""/><path fill="none" stroke="#000000" paint-order="fill stroke markers" d=" M 160 192 L 208 192" stroke-linecap="round" stroke-miterlimit="10" stroke-width="3" stroke-dasharray=""/><g transform="matrix(1,0,0,1,128,192)"><rect fill="none" stroke="#000000" x="0" y="-6" width="32" height="12" stroke-linecap="round" stroke-miterlimit="10" stroke-width="3" stroke-dasharray=""/></g><path fill="none" stroke="#000000" paint-order="fill stroke markers" d=" M 80 416 L 208 416" stroke-linecap="round" stroke-miterlimit="10" stroke-width="3" stroke-dasharray=""/><text fill="#000000" stroke="none" font-family="sans-serif" font-size="12px" font-style="normal" font-weight="normal" text-decoration="normal" x="144" y="410" text-anchor="start" dominant-baseline="alphabetic"></text><path fill="none" stroke="#000000" paint-order="fill stroke markers" d=" M 208 192 L 208 256" stroke-linecap="round" stroke-miterlimit="10" stroke-width="3" stroke-dasharray=""/><text fill="#000000" stroke="none" font-family="sans-serif" font-size="12px" font-style="normal" font-weight="normal" text-decoration="normal" x="214" y="230" text-anchor="start" dominant-baseline="alphabetic"></text><path fill="none" stroke="#000000" paint-order="fill stroke markers" d=" M 208 416 L 208 352" stroke-linecap="round" stroke-miterlimit="10" stroke-width="3" stroke-dasharray=""/><text fill="#000000" stroke="none" font-family="sans-serif" font-size="12px" font-style="normal" font-weight="normal" text-decoration="normal" x="214" y="390" text-anchor="start" dominant-baseline="alphabetic"></text><path fill="none" stroke="#000000" paint-order="fill stroke markers" d=" M 208 192 L 272 192" stroke-linecap="round" stroke-miterlimit="10" stroke-width="3" stroke-dasharray=""/><text fill="#000000" stroke="none" font-family="sans-serif" font-size="12px" font-style="normal" font-weight="normal" text-decoration="normal" x="240" y="186" text-anchor="start" dominant-baseline="alphabetic"></text><path fill="none" stroke="#000000" paint-order="fill stroke markers" d=" M 208 416 L 272 416" stroke-linecap="round" stroke-miterlimit="10" stroke-width="3" stroke-dasharray=""/><text fill="#000000" stroke="none" font-family="sans-serif" font-size="12px" font-style="normal" font-weight="normal" text-decoration="normal" x="240" y="410" text-anchor="start" dominant-baseline="alphabetic"></text><path fill="none" stroke="#000000" paint-order="fill stroke markers" d=" M 272 416 L 272 352" stroke-linecap="round" stroke-miterlimit="10" stroke-width="3" stroke-dasharray=""/><text fill="#000000" stroke="none" font-family="sans-serif" font-size="12px" font-style="normal" font-weight="normal" text-decoration="normal" x="278" y="390" text-anchor="start" dominant-baseline="alphabetic"></text><path fill="none" stroke="#000000" paint-order="fill stroke markers" d=" M 272 192 L 272 256" stroke-linecap="round" stroke-miterlimit="10" stroke-width="3" stroke-dasharray=""/><text fill="#000000" stroke="none" font-family="sans-serif" font-size="12px" font-style="normal" font-weight="normal" text-decoration="normal" x="278" y="230" text-anchor="start" dominant-baseline="alphabetic"></text><path fill="none" stroke="#000000" paint-order="fill stroke markers" d=" M 272 416 L 336 416" stroke-linecap="round" stroke-miterlimit="10" stroke-width="3" stroke-dasharray=""/><text fill="#000000" stroke="none" font-family="sans-serif" font-size="12px" font-style="normal" font-weight="normal" text-decoration="normal" x="304" y="410" text-anchor="start" dominant-baseline="alphabetic"></text><path fill="none" stroke="#000000" paint-order="fill stroke markers" d=" M 272 192 L 336 192" stroke-linecap="round" stroke-miterlimit="10" stroke-width="3" stroke-dasharray=""/><text fill="#000000" stroke="none" font-family="sans-serif" font-size="12px" font-style="normal" font-weight="normal" text-decoration="normal" x="304" y="186" text-anchor="start" dominant-baseline="alphabetic"></text><path fill="none" stroke="#000000" paint-order="fill stroke markers" d=" M 336 192 L 336 208" stroke-linecap="round" stroke-miterlimit="10" stroke-width="3" stroke-dasharray=""/><path fill="none" stroke="#000000" paint-order="fill stroke markers" d=" M 336 240 L 336 256" stroke-linecap="round" stroke-miterlimit="10" stroke-width="3" stroke-dasharray=""/><g transform="matrix(0,1,-1,0,336,208)"><rect fill="none" stroke="#000000" x="0" y="-6" width="32" height="12" stroke-linecap="round" stroke-miterlimit="10" stroke-width="3" stroke-dasharray=""/></g><path fill="none" stroke="#000000" paint-order="fill stroke markers" d=" M 336 256 L 336 272" stroke-linecap="round" stroke-miterlimit="10" stroke-width="3" stroke-dasharray=""/><path fill="none" stroke="#000000" paint-order="fill stroke markers" d=" M 336 304 L 336 320" stroke-linecap="round" stroke-miterlimit="10" stroke-width="3" stroke-dasharray=""/><g transform="matrix(0,1,-1,0,336,272)"><rect fill="none" stroke="#000000" x="0" y="-6" width="32" height="12" stroke-linecap="round" stroke-miterlimit="10" stroke-width="3" stroke-dasharray=""/></g><path fill="none" stroke="#000000" paint-order="fill stroke markers" d=" M 336 416 L 336 400" stroke-linecap="round" stroke-miterlimit="10" stroke-width="3" stroke-dasharray=""/><text fill="#000000" stroke="none" font-family="sans-serif" font-size="12px" font-style="normal" font-weight="normal" text-decoration="normal" x="342" y="414" text-anchor="start" dominant-baseline="alphabetic"></text><g><text fill="#000000" stroke="none" font-family="sans-serif" font-size="24px" font-style="normal" font-weight="normal" text-decoration="normal" x="325" y="361" text-anchor="start" dominant-baseline="alphabetic">...</text></g><g><text fill="#000000" stroke="none" font-family="sans-serif" font-size="24px" font-style="normal" font-weight="normal" text-decoration="normal" x="259" y="308" text-anchor="start" dominant-baseline="alphabetic">...</text></g><g><text fill="#000000" stroke="none" font-family="sans-serif" font-size="24px" font-style="normal" font-weight="normal" text-decoration="normal" x="201" y="308" text-anchor="start" dominant-baseline="alphabetic">...</text></g><g><text fill="#000000" stroke="none" font-family="sans-serif" font-size="24px" font-style="normal" font-weight="normal" text-decoration="normal" x="127" y="168" text-anchor="start" dominant-baseline="alphabetic">Rs</text></g><g><text fill="#000000" stroke="none" font-family="sans-serif" font-size="24px" font-style="normal" font-weight="normal" text-decoration="normal" x="108" y="313" text-anchor="start" dominant-baseline="alphabetic">Vs</text></g><path fill="none" stroke="#000000" paint-order="fill stroke markers" d=" M 336 192 L 416 192" stroke-linecap="round" stroke-miterlimit="10" stroke-width="3" stroke-dasharray=""/><text fill="#000000" stroke="none" font-family="sans-serif" font-size="12px" font-style="normal" font-weight="normal" text-decoration="normal" x="376" y="186" text-anchor="start" dominant-baseline="alphabetic"></text><path fill="none" stroke="#000000" paint-order="fill stroke markers" d=" M 336 256 L 416 256" stroke-linecap="round" stroke-miterlimit="10" stroke-width="3" stroke-dasharray=""/><text fill="#000000" stroke="none" font-family="sans-serif" font-size="12px" font-style="normal" font-weight="normal" text-decoration="normal" x="376" y="250" text-anchor="start" dominant-baseline="alphabetic"></text><g><text fill="#000000" stroke="none" font-family="sans-serif" font-size="24px" font-style="normal" font-weight="normal" text-decoration="normal" x="356" y="230" text-anchor="start" dominant-baseline="alphabetic">R1</text></g><g><text fill="#000000" stroke="none" font-family="sans-serif" font-size="24px" font-style="normal" font-weight="normal" text-decoration="normal" x="355" y="294" text-anchor="start" dominant-baseline="alphabetic">R2</text></g><path fill="#000000" stroke="none" paint-order="stroke fill markers" d=" M 211 192 A 3 3 0 1 1 210.99999999995774 191.99998407846124 Z"/><path fill="#000000" stroke="none" paint-order="stroke fill markers" d=" M 211 416 A 3 3 0 1 1 210.99999999995774 415.99998407846124 Z"/><path fill="#000000" stroke="none" paint-order="stroke fill markers" d=" M 211 256 A 3 3 0 1 1 210.99999999995774 255.99998407846124 Z"/><path fill="#000000" stroke="none" paint-order="stroke fill markers" d=" M 211 352 A 3 3 0 1 1 210.99999999995774 351.99998407846124 Z"/><path fill="#000000" stroke="none" paint-order="stroke fill markers" d=" M 275 192 A 3 3 0 1 1 274.99999999995777 191.99998407846124 Z"/><path fill="#000000" stroke="none" paint-order="stroke fill markers" d=" M 275 416 A 3 3 0 1 1 274.99999999995777 415.99998407846124 Z"/><path fill="#000000" stroke="none" paint-order="stroke fill markers" d=" M 275 352 A 3 3 0 1 1 274.99999999995777 351.99998407846124 Z"/><path fill="#000000" stroke="none" paint-order="stroke fill markers" d=" M 275 256 A 3 3 0 1 1 274.99999999995777 255.99998407846124 Z"/><path fill="#000000" stroke="none" paint-order="stroke fill markers" d=" M 339 192 A 3 3 0 1 1 338.99999999995777 191.99998407846124 Z"/><path fill="#000000" stroke="none" paint-order="stroke fill markers" d=" M 339 256 A 3 3 0 1 1 338.99999999995777 255.99998407846124 Z"/><path fill="#000000" stroke="none" paint-order="stroke fill markers" d=" M 339 320 A 3 3 0 1 1 338.99999999995777 319.99998407846124 Z"/><path fill="#000000" stroke="none" paint-order="stroke fill markers" d=" M 339 400 A 3 3 0 1 1 338.99999999995777 399.99998407846124 Z"/><path fill="#000000" stroke="none" paint-order="stroke fill markers" d=" M 419 192 A 3 3 0 1 1 418.99999999995777 191.99998407846124 Z"/><path fill="#000000" stroke="none" paint-order="stroke fill markers" d=" M 419 256 A 3 3 0 1 1 418.99999999995777 255.99998407846124 Z"/></g></svg>