<svg version="1.1" xmlns="http://www.w3.org/2000/svg" xmlns:xlink="http://www.w3.org/1999/xlink" width="556" height="356"><defs/><g transform="scale(1,1) translate(86,-30)"><path fill="none" stroke="#000000" paint-order="fill stroke markers" d=" M 128 240 L 81 240" stroke-linecap="round" stroke-miterlimit="10" stroke-width="3" stroke-dasharray=""/><path fill="none" stroke="#000000" paint-order="fill stroke markers" d=" M 16 240 L 63 240" stroke-linecap="round" stroke-miterlimit="10" stroke-width="3" stroke-dasharray=""/><path fill="none" stroke="#000000" paint-order="fill stroke markers" d=" M 128 144 L 81 144" stroke-linecap="round" stroke-miterlimit="10" stroke-width="3" stroke-dasharray=""/><path fill="none" stroke="#000000" paint-order="fill stroke markers" d=" M 16 144 L 63 144" stroke-linecap="round" stroke-miterlimit="10" stroke-width="3" stroke-dasharray=""/><g transform="matrix(0,-1,1,0,81,240) scale(1,1)"><path fill="none" stroke="#000000" paint-order="fill stroke markers" d=" M 0 0 L 0 6.53144959545255e-16 A 5.333333333333333 5.333333333333333 0 0 1 10.666666666666666 0 L 10.666666666666666 0" stroke-linecap="round" stroke-miterlimit="10" stroke-width="3" stroke-dasharray=""/><path fill="none" stroke="#000000" paint-order="fill stroke markers" d=" M 10.666666666666666 0 L 10.666666666666668 6.53144959545255e-16 A 5.333333333333333 5.333333333333333 0 0 1 21.333333333333332 0 L 21.333333333333332 0" stroke-linecap="round" stroke-miterlimit="10" stroke-width="3" stroke-dasharray=""/><path fill="none" stroke="#000000" paint-order="fill stroke markers" d=" M 21.333333333333332 0 L 21.333333333333336 6.53144959545255e-16 A 5.333333333333333 5.333333333333333 0 0 1 32 0 L 32 0" stroke-linecap="round" stroke-miterlimit="10" stroke-width="3" stroke-dasharray=""/><path fill="none" stroke="#000000" paint-order="fill stroke markers" d=" M 32 0 L 32 6.53144959545255e-16 A 5.333333333333333 5.333333333333333 0 0 1 42.66666666666667 0 L 42.666666666666664 0" stroke-linecap="round" stroke-miterlimit="10" stroke-width="3" stroke-dasharray=""/><path fill="none" stroke="#000000" paint-order="fill stroke markers" d=" M 42.666666666666664 0 L 42.666666666666664 6.53144959545255e-16 A 5.333333333333333 5.333333333333333 0 0 1 53.333333333333336 0 L 53.333333333333336 0" stroke-linecap="round" stroke-miterlimit="10" stroke-width="3" stroke-dasharray=""/><path fill="none" stroke="#000000" paint-order="fill stroke markers" d=" M 53.333333333333336 0 L 53.33333333333333 6.53144959545255e-16 A 5.333333333333333 5.333333333333333 0 0 1 64 0 L 64 0" stroke-linecap="round" stroke-miterlimit="10" stroke-width="3" stroke-dasharray=""/><path fill="none" stroke="#000000" paint-order="fill stroke markers" d=" M 64 0 L 63.99999999999999 6.53144959545255e-16 A 5.333333333333333 5.333333333333333 0 0 1 74.66666666666666 0 L 74.66666666666667 0" stroke-linecap="round" stroke-miterlimit="10" stroke-width="3" stroke-dasharray=""/><path fill="none" stroke="#000000" paint-order="fill stroke markers" d=" M 74.66666666666667 0 L 74.66666666666667 6.53144959545255e-16 A 5.333333333333333 5.333333333333333 0 0 1 85.33333333333333 0 L 85.33333333333333 0" stroke-linecap="round" stroke-miterlimit="10" stroke-width="3" stroke-dasharray=""/><path fill="none" stroke="#000000" paint-order="fill stroke markers" d=" M 85.33333333333333 0 L 85.33333333333334 6.53144959545255e-16 A 5.333333333333333 5.333333333333333 0 0 1 96 0 L 96 0" stroke-linecap="round" stroke-miterlimit="10" stroke-width="3" stroke-dasharray=""/></g><g transform="matrix(0,-1,1,0,63,240) scale(1,-1)"><path fill="none" stroke="#000000" paint-order="fill stroke markers" d=" M 0 0 L 0 6.53144959545255e-16 A 5.333333333333333 5.333333333333333 0 0 1 10.666666666666666 0 L 10.666666666666666 0" stroke-linecap="round" stroke-miterlimit="10" stroke-width="3" stroke-dasharray=""/><path fill="none" stroke="#000000" paint-order="fill stroke markers" d=" M 10.666666666666666 0 L 10.666666666666668 6.53144959545255e-16 A 5.333333333333333 5.333333333333333 0 0 1 21.333333333333332 0 L 21.333333333333332 0" stroke-linecap="round" stroke-miterlimit="10" stroke-width="3" stroke-dasharray=""/><path fill="none" stroke="#000000" paint-order="fill stroke markers" d=" M 21.333333333333332 0 L 21.333333333333336 6.53144959545255e-16 A 5.333333333333333 5.333333333333333 0 0 1 32 0 L 32 0" stroke-linecap="round" stroke-miterlimit="10" stroke-width="3" stroke-dasharray=""/><path fill="none" stroke="#000000" paint-order="fill stroke markers" d=" M 32 0 L 32 6.53144959545255e-16 A 5.333333333333333 5.333333333333333 0 0 1 42.66666666666667 0 L 42.666666666666664 0" stroke-linecap="round" stroke-miterlimit="10" stroke-width="3" stroke-dasharray=""/><path fill="none" stroke="#000000" paint-order="fill stroke markers" d=" M 42.666666666666664 0 L 42.666666666666664 6.53144959545255e-16 A 5.333333333333333 5.333333333333333 0 0 1 53.333333333333336 0 L 53.333333333333336 0" stroke-linecap="round" stroke-miterlimit="10" stroke-width="3" stroke-dasharray=""/><path fill="none" stroke="#000000" paint-order="fill stroke markers" d=" M 53.333333333333336 0 L 53.33333333333333 6.53144959545255e-16 A 5.333333333333333 5.333333333333333 0 0 1 64 0 L 64 0" stroke-linecap="round" stroke-miterlimit="10" stroke-width="3" stroke-dasharray=""/><path fill="none" stroke="#000000" paint-order="fill stroke markers" d=" M 64 0 L 63.99999999999999 6.53144959545255e-16 A 5.333333333333333 5.333333333333333 0 0 1 74.66666666666666 0 L 74.66666666666667 0" stroke-linecap="round" stroke-miterlimit="10" stroke-width="3" stroke-dasharray=""/><path fill="none" stroke="#000000" paint-order="fill stroke markers" d=" M 74.66666666666667 0 L 74.66666666666667 6.53144959545255e-16 A 5.333333333333333 5.333333333333333 0 0 1 85.33333333333333 0 L 85.33333333333333 0" stroke-linecap="round" stroke-miterlimit="10" stroke-width="3" stroke-dasharray=""/><path fill="none" stroke="#000000" paint-order="fill stroke markers" d=" M 85.33333333333333 0 L 85.33333333333334 6.53144959545255e-16 A 5.333333333333333 5.333333333333333 0 0 1 96 0 L 96 0" stroke-linecap="round" stroke-miterlimit="10" stroke-width="3" stroke-dasharray=""/></g><path fill="none" stroke="#000000" paint-order="fill stroke markers" d=" M 73 240 L 73 144" stroke-linecap="round" stroke-miterlimit="10" stroke-width="3" stroke-dasharray=""/><path fill="none" stroke="#000000" paint-order="fill stroke markers" d=" M 70 240 L 70 144" stroke-linecap="round" stroke-miterlimit="10" stroke-width="3" stroke-dasharray=""/><path fill="none" stroke="#000000" paint-order="fill stroke markers" d=" M -16 144 L -16 175" stroke-linecap="round" stroke-miterlimit="10" stroke-width="3" stroke-dasharray=""/><path fill="none" stroke="#000000" paint-order="fill stroke markers" d=" M -16 209 L -16 240" stroke-linecap="round" stroke-miterlimit="10" stroke-width="3" stroke-dasharray=""/><path fill="none" stroke="#808080" paint-order="fill stroke markers" d=" M 0.6600000000000001 192 A 16.66 16.66 0 1 1 0.6599916700006929 191.98334000277666" stroke-linecap="round" stroke-miterlimit="10" stroke-width="3" stroke-dasharray=""/><path fill="none" stroke="#808080" paint-order="fill stroke markers" d=" M -26 192 L -25 190 L -24 188 L -23 186 L -22 185 L -21 185 L -20 185 L -19 186 L -18 188 L -17 190 L -16 192 L -15 194 L -14 196 L -13 198 L -12 199 L -11 199 L -10 199 L -9 198 L -8 196 L -7 194 L -6 192" stroke-linecap="round" stroke-miterlimit="10" stroke-width="3" stroke-dasharray=""/><text fill="#000000" stroke="none" font-family="sans-serif" font-size="12px" font-style="normal" font-weight="normal" text-decoration="normal" x="-63" y="198" text-anchor="start" dominant-baseline="alphabetic">60Hz</text><text fill="#000000" stroke="none" font-family="sans-serif" font-size="12px" font-style="normal" font-weight="normal" text-decoration="normal" x="-9" y="217" text-anchor="start" dominant-baseline="alphabetic">*</text><path fill="none" stroke="#000000" paint-order="fill stroke markers" d=" M 208 240 L 190 222" stroke-linecap="round" stroke-miterlimit="10" stroke-width="3" stroke-dasharray=""/><path fill="none" stroke="#000000" paint-order="fill stroke markers" d=" M 178 210 L 160 192" stroke-linecap="round" stroke-miterlimit="10" stroke-width="3" stroke-dasharray=""/><path fill="#000000" stroke="none" paint-order="stroke fill markers" d=" M 184 228 L 196 216 L 178 210 Z"/><path fill="none" stroke="#000000" paint-order="fill stroke markers" d=" M 172 216 L 184 204" stroke-linecap="round" stroke-miterlimit="10" stroke-width="3" stroke-dasharray=""/><path fill="none" stroke="#000000" paint-order="fill stroke markers" d=" M 208 144 L 190 162" stroke-linecap="round" stroke-miterlimit="10" stroke-width="3" stroke-dasharray=""/><path fill="none" stroke="#000000" paint-order="fill stroke markers" d=" M 178 174 L 160 192" stroke-linecap="round" stroke-miterlimit="10" stroke-width="3" stroke-dasharray=""/><path fill="#000000" stroke="none" paint-order="stroke fill markers" d=" M 196 168 L 184 156 L 178 174 Z"/><path fill="none" stroke="#000000" paint-order="fill stroke markers" d=" M 184 180 L 172 168" stroke-linecap="round" stroke-miterlimit="10" stroke-width="3" stroke-dasharray=""/><path fill="none" stroke="#000000" paint-order="fill stroke markers" d=" M 256 192 L 238 174" stroke-linecap="round" stroke-miterlimit="10" stroke-width="3" stroke-dasharray=""/><path fill="none" stroke="#000000" paint-order="fill stroke markers" d=" M 226 162 L 208 144" stroke-linecap="round" stroke-miterlimit="10" stroke-width="3" stroke-dasharray=""/><path fill="#000000" stroke="none" paint-order="stroke fill markers" d=" M 232 180 L 244 168 L 226 162 Z"/><path fill="none" stroke="#000000" paint-order="fill stroke markers" d=" M 220 168 L 232 156" stroke-linecap="round" stroke-miterlimit="10" stroke-width="3" stroke-dasharray=""/><path fill="none" stroke="#000000" paint-order="fill stroke markers" d=" M 256 192 L 238 210" stroke-linecap="round" stroke-miterlimit="10" stroke-width="3" stroke-dasharray=""/><path fill="none" stroke="#000000" paint-order="fill stroke markers" d=" M 226 222 L 208 240" stroke-linecap="round" stroke-miterlimit="10" stroke-width="3" stroke-dasharray=""/><path fill="#000000" stroke="none" paint-order="stroke fill markers" d=" M 244 216 L 232 204 L 226 222 Z"/><path fill="none" stroke="#000000" paint-order="fill stroke markers" d=" M 232 228 L 220 216" stroke-linecap="round" stroke-miterlimit="10" stroke-width="3" stroke-dasharray=""/><path fill="none" stroke="#000000" paint-order="fill stroke markers" d=" M 208 240 L 128 240" stroke-linecap="round" stroke-miterlimit="10" stroke-width="3" stroke-dasharray=""/><text fill="#000000" stroke="none" font-family="sans-serif" font-size="12px" font-style="normal" font-weight="normal" text-decoration="normal" x="168" y="234" text-anchor="start" dominant-baseline="alphabetic"></text><path fill="none" stroke="#000000" paint-order="fill stroke markers" d=" M 128 144 L 208 144" stroke-linecap="round" stroke-miterlimit="10" stroke-width="3" stroke-dasharray=""/><text fill="#000000" stroke="none" font-family="sans-serif" font-size="12px" font-style="normal" font-weight="normal" text-decoration="normal" x="168" y="138" text-anchor="start" dominant-baseline="alphabetic"></text><path fill="none" stroke="#000000" paint-order="fill stroke markers" d=" M 160 192 L 160 112" stroke-linecap="round" stroke-miterlimit="10" stroke-width="3" stroke-dasharray=""/><text fill="#000000" stroke="none" font-family="sans-serif" font-size="12px" font-style="normal" font-weight="normal" text-decoration="normal" x="166" y="158" text-anchor="start" dominant-baseline="alphabetic"></text><path fill="none" stroke="#000000" paint-order="fill stroke markers" d=" M 160 112 L 336 112" stroke-linecap="round" stroke-miterlimit="10" stroke-width="3" stroke-dasharray=""/><text fill="#000000" stroke="none" font-family="sans-serif" font-size="12px" font-style="normal" font-weight="normal" text-decoration="normal" x="248" y="106" text-anchor="start" dominant-baseline="alphabetic"></text><path fill="none" stroke="#000000" paint-order="fill stroke markers" d=" M 336 192 L 304 192" stroke-linecap="round" stroke-miterlimit="10" stroke-width="3" stroke-dasharray=""/><path fill="none" stroke="#000000" paint-order="fill stroke markers" d=" M 288 192 L 256 192" stroke-linecap="round" stroke-miterlimit="10" stroke-width="3" stroke-dasharray=""/><path fill="#000000" stroke="none" paint-order="stroke fill markers" d=" M 304 200 L 304 184 L 288 192 Z"/><path fill="none" stroke="#000000" paint-order="fill stroke markers" d=" M 288 200 L 288 184" stroke-linecap="round" stroke-miterlimit="10" stroke-width="3" stroke-dasharray=""/><path fill="none" stroke="#000000" paint-order="fill stroke markers" d=" M 336 112 L 336 148" stroke-linecap="round" stroke-miterlimit="10" stroke-width="3" stroke-dasharray=""/><path fill="none" stroke="#000000" paint-order="fill stroke markers" d=" M 348 148 L 324 148" stroke-linecap="round" stroke-miterlimit="10" stroke-width="3" stroke-dasharray=""/><path fill="none" stroke="#000000" paint-order="fill stroke markers" d=" M 336 192 L 336 156" stroke-linecap="round" stroke-miterlimit="10" stroke-width="3" stroke-dasharray=""/><path fill="none" stroke="#000000" paint-order="fill stroke markers" d=" M 348 156 L 324 156" stroke-linecap="round" stroke-miterlimit="10" stroke-width="3" stroke-dasharray=""/><text fill="#000000" stroke="none" font-family="sans-serif" font-size="12px" font-style="normal" font-weight="normal" text-decoration="normal" x="350" y="158" text-anchor="start" dominant-baseline="alphabetic">47μF</text><path fill="none" stroke="#000000" paint-order="fill stroke markers" d=" M 400 112 L 400 136" stroke-linecap="round" stroke-miterlimit="10" stroke-width="3" stroke-dasharray=""/><path fill="none" stroke="#000000" paint-order="fill stroke markers" d=" M 400 168 L 400 192" stroke-linecap="round" stroke-miterlimit="10" stroke-width="3" stroke-dasharray=""/><g transform="matrix(0,1,-1,0,400,136)"><rect fill="none" stroke="#000000" x="0" y="-6" width="32" height="12" stroke-linecap="round" stroke-miterlimit="10" stroke-width="3" stroke-dasharray=""/></g><text fill="#000000" stroke="none" font-family="sans-serif" font-size="12px" font-style="normal" font-weight="normal" text-decoration="normal" x="410" y="158" text-anchor="start" dominant-baseline="alphabetic">10k</text><path fill="none" stroke="#000000" paint-order="fill stroke markers" d=" M 400 192 L 336 192" stroke-linecap="round" stroke-miterlimit="10" stroke-width="3" stroke-dasharray=""/><text fill="#000000" stroke="none" font-family="sans-serif" font-size="12px" font-style="normal" font-weight="normal" text-decoration="normal" x="368" y="186" text-anchor="start" dominant-baseline="alphabetic"></text><path fill="none" stroke="#000000" paint-order="fill stroke markers" d=" M 336 112 L 400 112" stroke-linecap="round" stroke-miterlimit="10" stroke-width="3" stroke-dasharray=""/><text fill="#000000" stroke="none" font-family="sans-serif" font-size="12px" font-style="normal" font-weight="normal" text-decoration="normal" x="368" y="106" text-anchor="start" dominant-baseline="alphabetic"></text><path fill="none" stroke="#000000" paint-order="fill stroke markers" d=" M 16 144 L -16 144" stroke-linecap="round" stroke-miterlimit="10" stroke-width="3" stroke-dasharray=""/><text fill="#000000" stroke="none" font-family="sans-serif" font-size="12px" font-style="normal" font-weight="normal" text-decoration="normal" x="0" y="138" text-anchor="start" dominant-baseline="alphabetic"></text><path fill="none" stroke="#000000" paint-order="fill stroke markers" d=" M -16 240 L 16 240" stroke-linecap="round" stroke-miterlimit="10" stroke-width="3" stroke-dasharray=""/><text fill="#000000" stroke="none" font-family="sans-serif" font-size="12px" font-style="normal" font-weight="normal" text-decoration="normal" x="0" y="234" text-anchor="start" dominant-baseline="alphabetic"></text><g><text fill="#000000" stroke="none" font-family="sans-serif" font-size="17px" font-style="normal" font-weight="normal" text-decoration="normal" x="288" y="223" text-anchor="start" dominant-baseline="alphabetic">Vz</text></g><path fill="none" stroke="#000000" paint-order="fill stroke markers" d=" M 336 112 L 336 80" stroke-linecap="round" stroke-miterlimit="10" stroke-width="3" stroke-dasharray=""/><path fill="none" stroke="#000000" paint-order="fill stroke markers" d=" M 326 80 L 346 80" stroke-linecap="round" stroke-miterlimit="10" stroke-width="3" stroke-dasharray=""/><path fill="none" stroke="#000000" paint-order="fill stroke markers" d=" M 330 75 L 342 75" stroke-linecap="round" stroke-miterlimit="10" stroke-width="3" stroke-dasharray=""/><path fill="none" stroke="#000000" paint-order="fill stroke markers" d=" M 334 70 L 338 70" stroke-linecap="round" stroke-miterlimit="10" stroke-width="3" stroke-dasharray=""/><path fill="#000000" stroke="none" paint-order="stroke fill markers" d=" M 211 240 A 3 3 0 1 1 210.99999999995774 239.99998407846124 Z"/><path fill="#000000" stroke="none" paint-order="stroke fill markers" d=" M 163 192 A 3 3 0 1 1 162.99999999995774 191.99998407846124 Z"/><path fill="#000000" stroke="none" paint-order="stroke fill markers" d=" M 211 144 A 3 3 0 1 1 210.99999999995774 143.99998407846124 Z"/><path fill="#000000" stroke="none" paint-order="stroke fill markers" d=" M 259 192 A 3 3 0 1 1 258.99999999995777 191.99998407846124 Z"/><path fill="#000000" stroke="none" paint-order="stroke fill markers" d=" M 339 112 A 3 3 0 1 1 338.99999999995777 111.99998407846124 Z"/><path fill="#000000" stroke="none" paint-order="stroke fill markers" d=" M 339 192 A 3 3 0 1 1 338.99999999995777 191.99998407846124 Z"/></g></svg>