<svg version="1.1" xmlns="http://www.w3.org/2000/svg" xmlns:xlink="http://www.w3.org/1999/xlink" width="565" height="383"><defs/><g transform="scale(1,1) translate(131,-51)"><path fill="none" stroke="#000000" paint-order="fill stroke markers" d=" M -32 368 L -32 345" stroke-linecap="round" stroke-miterlimit="10" stroke-width="3" stroke-dasharray=""/><path fill="none" stroke="#000000" paint-order="fill stroke markers" d=" M -32 311 L -32 288" stroke-linecap="round" stroke-miterlimit="10" stroke-width="3" stroke-dasharray=""/><path fill="none" stroke="#808080" paint-order="fill stroke markers" d=" M -15.34 328 A 16.66 16.66 0 1 1 -15.340008329999307 327.98334000277663" stroke-linecap="round" stroke-miterlimit="10" stroke-width="3" stroke-dasharray=""/><path fill="none" stroke="#808080" paint-order="fill stroke markers" d=" M -42 328 L -41 326 L -40 324 L -39 322 L -38 321 L -37 321 L -36 321 L -35 322 L -34 324 L -33 326 L -32 328 L -31 330 L -30 332 L -29 334 L -28 335 L -27 335 L -26 335 L -25 334 L -24 332 L -23 330 L -22 328" stroke-linecap="round" stroke-miterlimit="10" stroke-width="3" stroke-dasharray=""/><text fill="#000000" stroke="none" font-family="sans-serif" font-size="12px" font-style="normal" font-weight="normal" text-decoration="normal" x="-25" y="311" text-anchor="start" dominant-baseline="alphabetic">*</text><path fill="none" stroke="#000000" paint-order="fill stroke markers" d=" M -32 368 L -32 384" stroke-linecap="round" stroke-miterlimit="10" stroke-width="3" stroke-dasharray=""/><path fill="none" stroke="#000000" paint-order="fill stroke markers" d=" M -22 384 L -42 384" stroke-linecap="round" stroke-miterlimit="10" stroke-width="3" stroke-dasharray=""/><path fill="none" stroke="#000000" paint-order="fill stroke markers" d=" M -26 389 L -38 389" stroke-linecap="round" stroke-miterlimit="10" stroke-width="3" stroke-dasharray=""/><path fill="none" stroke="#000000" paint-order="fill stroke markers" d=" M -30 394 L -34 394" stroke-linecap="round" stroke-miterlimit="10" stroke-width="3" stroke-dasharray=""/><path fill="none" stroke="#000000" paint-order="fill stroke markers" d=" M -32 288 L -32 272" stroke-linecap="round" stroke-miterlimit="10" stroke-width="3" stroke-dasharray=""/><path fill="none" stroke="#000000" paint-order="fill stroke markers" d=" M -32 240 L -32 224" stroke-linecap="round" stroke-miterlimit="10" stroke-width="3" stroke-dasharray=""/><g transform="matrix(0,-1,1,0,-32,272)"><rect fill="none" stroke="#000000" x="0" y="-6" width="32" height="12" stroke-linecap="round" stroke-miterlimit="10" stroke-width="3" stroke-dasharray=""/></g><path fill="none" stroke="#000000" paint-order="fill stroke markers" d=" M -32 224 L 4 224" stroke-linecap="round" stroke-miterlimit="10" stroke-width="3" stroke-dasharray=""/><path fill="none" stroke="#000000" paint-order="fill stroke markers" d=" M 4 212 L 4 236" stroke-linecap="round" stroke-miterlimit="10" stroke-width="3" stroke-dasharray=""/><path fill="none" stroke="#000000" paint-order="fill stroke markers" d=" M 48 224 L 12 224" stroke-linecap="round" stroke-miterlimit="10" stroke-width="3" stroke-dasharray=""/><path fill="none" stroke="#000000" paint-order="fill stroke markers" d=" M 12 212 L 12 236" stroke-linecap="round" stroke-miterlimit="10" stroke-width="3" stroke-dasharray=""/><path fill="none" stroke="#000000" paint-order="fill stroke markers" d=" M 48 224 L 48 192" stroke-linecap="round" stroke-miterlimit="10" stroke-width="3" stroke-dasharray=""/><path fill="none" stroke="#000000" paint-order="fill stroke markers" d=" M 48 160 L 48 128" stroke-linecap="round" stroke-miterlimit="10" stroke-width="3" stroke-dasharray=""/><g transform="matrix(0,-1,1,0,48,192)"><rect fill="none" stroke="#000000" x="0" y="-6" width="32" height="12" stroke-linecap="round" stroke-miterlimit="10" stroke-width="3" stroke-dasharray=""/></g><path fill="none" stroke="#000000" paint-order="fill stroke markers" d=" M 48 224 L 48 256" stroke-linecap="round" stroke-miterlimit="10" stroke-width="3" stroke-dasharray=""/><path fill="none" stroke="#000000" paint-order="fill stroke markers" d=" M 48 288 L 48 320" stroke-linecap="round" stroke-miterlimit="10" stroke-width="3" stroke-dasharray=""/><g transform="matrix(0,1,-1,0,48,256)"><rect fill="none" stroke="#000000" x="0" y="-6" width="32" height="12" stroke-linecap="round" stroke-miterlimit="10" stroke-width="3" stroke-dasharray=""/></g><path fill="none" stroke="#000000" paint-order="fill stroke markers" d=" M 48 320 L 48 336" stroke-linecap="round" stroke-miterlimit="10" stroke-width="3" stroke-dasharray=""/><path fill="none" stroke="#000000" paint-order="fill stroke markers" d=" M 58 336 L 38 336" stroke-linecap="round" stroke-miterlimit="10" stroke-width="3" stroke-dasharray=""/><path fill="none" stroke="#000000" paint-order="fill stroke markers" d=" M 54 341 L 42 341" stroke-linecap="round" stroke-miterlimit="10" stroke-width="3" stroke-dasharray=""/><path fill="none" stroke="#000000" paint-order="fill stroke markers" d=" M 50 346 L 46 346" stroke-linecap="round" stroke-miterlimit="10" stroke-width="3" stroke-dasharray=""/><path fill="none" stroke="#000000" paint-order="fill stroke markers" d=" M 112 208 L 99 218" stroke-linecap="round" stroke-miterlimit="10" stroke-width="3" stroke-dasharray=""/><path fill="none" stroke="#000000" paint-order="fill stroke markers" d=" M 112 240 L 99 230" stroke-linecap="round" stroke-miterlimit="10" stroke-width="3" stroke-dasharray=""/><path fill="#000000" stroke="none" paint-order="stroke fill markers" d=" M 112 240 L 108 232 L 103 238 Z"/><path fill="none" stroke="#000000" paint-order="fill stroke markers" d=" M 48 224 L 96 224" stroke-linecap="round" stroke-miterlimit="10" stroke-width="3" stroke-dasharray=""/><path fill="#000000" stroke="none" paint-order="stroke fill markers" d=" M 96 208 L 99 208 L 99 240 L 96 240 Z"/><path fill="none" stroke="#000000" paint-order="fill stroke markers" d=" M 112 240 L 112 264" stroke-linecap="round" stroke-miterlimit="10" stroke-width="3" stroke-dasharray=""/><path fill="none" stroke="#000000" paint-order="fill stroke markers" d=" M 112 296 L 112 320" stroke-linecap="round" stroke-miterlimit="10" stroke-width="3" stroke-dasharray=""/><g transform="matrix(0,1,-1,0,112,264)"><rect fill="none" stroke="#000000" x="0" y="-6" width="32" height="12" stroke-linecap="round" stroke-miterlimit="10" stroke-width="3" stroke-dasharray=""/></g><path fill="none" stroke="#000000" paint-order="fill stroke markers" d=" M 112 320 L 112 336" stroke-linecap="round" stroke-miterlimit="10" stroke-width="3" stroke-dasharray=""/><path fill="none" stroke="#000000" paint-order="fill stroke markers" d=" M 122 336 L 102 336" stroke-linecap="round" stroke-miterlimit="10" stroke-width="3" stroke-dasharray=""/><path fill="none" stroke="#000000" paint-order="fill stroke markers" d=" M 118 341 L 106 341" stroke-linecap="round" stroke-miterlimit="10" stroke-width="3" stroke-dasharray=""/><path fill="none" stroke="#000000" paint-order="fill stroke markers" d=" M 114 346 L 110 346" stroke-linecap="round" stroke-miterlimit="10" stroke-width="3" stroke-dasharray=""/><path fill="none" stroke="#000000" paint-order="fill stroke markers" d=" M 112 208 L 112 184" stroke-linecap="round" stroke-miterlimit="10" stroke-width="3" stroke-dasharray=""/><path fill="none" stroke="#000000" paint-order="fill stroke markers" d=" M 112 152 L 112 128" stroke-linecap="round" stroke-miterlimit="10" stroke-width="3" stroke-dasharray=""/><g transform="matrix(0,-1,1,0,112,184)"><rect fill="none" stroke="#000000" x="0" y="-6" width="32" height="12" stroke-linecap="round" stroke-miterlimit="10" stroke-width="3" stroke-dasharray=""/></g><path fill="none" stroke="#000000" paint-order="fill stroke markers" d=" M 240 208 L 230 221" stroke-linecap="round" stroke-miterlimit="10" stroke-width="3" stroke-dasharray=""/><path fill="none" stroke="#000000" paint-order="fill stroke markers" d=" M 208 208 L 218 221" stroke-linecap="round" stroke-miterlimit="10" stroke-width="3" stroke-dasharray=""/><path fill="#000000" stroke="none" paint-order="stroke fill markers" d=" M 219 219 L 216 210 L 210 216 Z"/><path fill="none" stroke="#000000" paint-order="fill stroke markers" d=" M 224 240 L 224 224" stroke-linecap="round" stroke-miterlimit="10" stroke-width="3" stroke-dasharray=""/><path fill="#000000" stroke="none" paint-order="stroke fill markers" d=" M 208 224 L 208 221 L 240 221 L 240 224 Z"/><path fill="none" stroke="#000000" paint-order="fill stroke markers" d=" M 112 208 L 208 208" stroke-linecap="round" stroke-miterlimit="10" stroke-width="3" stroke-dasharray=""/><text fill="#000000" stroke="none" font-family="sans-serif" font-size="12px" font-style="normal" font-weight="normal" text-decoration="normal" x="160" y="202" text-anchor="start" dominant-baseline="alphabetic"></text><path fill="none" stroke="#000000" paint-order="fill stroke markers" d=" M 224 240 L 224 264" stroke-linecap="round" stroke-miterlimit="10" stroke-width="3" stroke-dasharray=""/><path fill="none" stroke="#000000" paint-order="fill stroke markers" d=" M 224 296 L 224 320" stroke-linecap="round" stroke-miterlimit="10" stroke-width="3" stroke-dasharray=""/><g transform="matrix(0,1,-1,0,224,264)"><rect fill="none" stroke="#000000" x="0" y="-6" width="32" height="12" stroke-linecap="round" stroke-miterlimit="10" stroke-width="3" stroke-dasharray=""/></g><path fill="none" stroke="#000000" paint-order="fill stroke markers" d=" M 224 320 L 224 336" stroke-linecap="round" stroke-miterlimit="10" stroke-width="3" stroke-dasharray=""/><path fill="none" stroke="#000000" paint-order="fill stroke markers" d=" M 234 336 L 214 336" stroke-linecap="round" stroke-miterlimit="10" stroke-width="3" stroke-dasharray=""/><path fill="none" stroke="#000000" paint-order="fill stroke markers" d=" M 230 341 L 218 341" stroke-linecap="round" stroke-miterlimit="10" stroke-width="3" stroke-dasharray=""/><path fill="none" stroke="#000000" paint-order="fill stroke markers" d=" M 226 346 L 222 346" stroke-linecap="round" stroke-miterlimit="10" stroke-width="3" stroke-dasharray=""/><path fill="none" stroke="#000000" paint-order="fill stroke markers" d=" M 224 240 L 256 240" stroke-linecap="round" stroke-miterlimit="10" stroke-width="3" stroke-dasharray=""/><text fill="#000000" stroke="none" font-family="sans-serif" font-size="12px" font-style="normal" font-weight="normal" text-decoration="normal" x="240" y="234" text-anchor="start" dominant-baseline="alphabetic"></text><path fill="none" stroke="#000000" paint-order="fill stroke markers" d=" M 256 240 L 256 276" stroke-linecap="round" stroke-miterlimit="10" stroke-width="3" stroke-dasharray=""/><path fill="none" stroke="#000000" paint-order="fill stroke markers" d=" M 268 276 L 244 276" stroke-linecap="round" stroke-miterlimit="10" stroke-width="3" stroke-dasharray=""/><path fill="none" stroke="#000000" paint-order="fill stroke markers" d=" M 256 320 L 256 284" stroke-linecap="round" stroke-miterlimit="10" stroke-width="3" stroke-dasharray=""/><path fill="none" stroke="#000000" paint-order="fill stroke markers" d=" M 268 284 L 244 284" stroke-linecap="round" stroke-miterlimit="10" stroke-width="3" stroke-dasharray=""/><path fill="none" stroke="#000000" paint-order="fill stroke markers" d=" M 256 320 L 256 336" stroke-linecap="round" stroke-miterlimit="10" stroke-width="3" stroke-dasharray=""/><path fill="none" stroke="#000000" paint-order="fill stroke markers" d=" M 266 336 L 246 336" stroke-linecap="round" stroke-miterlimit="10" stroke-width="3" stroke-dasharray=""/><path fill="none" stroke="#000000" paint-order="fill stroke markers" d=" M 262 341 L 250 341" stroke-linecap="round" stroke-miterlimit="10" stroke-width="3" stroke-dasharray=""/><path fill="none" stroke="#000000" paint-order="fill stroke markers" d=" M 258 346 L 254 346" stroke-linecap="round" stroke-miterlimit="10" stroke-width="3" stroke-dasharray=""/><path fill="none" stroke="#000000" paint-order="fill stroke markers" d=" M 240 208 L 320 208" stroke-linecap="round" stroke-miterlimit="10" stroke-width="3" stroke-dasharray=""/><text fill="#000000" stroke="none" font-family="sans-serif" font-size="12px" font-style="normal" font-weight="normal" text-decoration="normal" x="280" y="202" text-anchor="start" dominant-baseline="alphabetic"></text><path fill="none" stroke="#000000" paint-order="fill stroke markers" d=" M 320 240 L 320 264" stroke-linecap="round" stroke-miterlimit="10" stroke-width="3" stroke-dasharray=""/><path fill="none" stroke="#000000" paint-order="fill stroke markers" d=" M 320 296 L 320 320" stroke-linecap="round" stroke-miterlimit="10" stroke-width="3" stroke-dasharray=""/><g transform="matrix(0,1,-1,0,320,264)"><rect fill="none" stroke="#000000" x="0" y="-6" width="32" height="12" stroke-linecap="round" stroke-miterlimit="10" stroke-width="3" stroke-dasharray=""/></g><path fill="none" stroke="#000000" paint-order="fill stroke markers" d=" M 320 320 L 320 336" stroke-linecap="round" stroke-miterlimit="10" stroke-width="3" stroke-dasharray=""/><path fill="none" stroke="#000000" paint-order="fill stroke markers" d=" M 330 336 L 310 336" stroke-linecap="round" stroke-miterlimit="10" stroke-width="3" stroke-dasharray=""/><path fill="none" stroke="#000000" paint-order="fill stroke markers" d=" M 326 341 L 314 341" stroke-linecap="round" stroke-miterlimit="10" stroke-width="3" stroke-dasharray=""/><path fill="none" stroke="#000000" paint-order="fill stroke markers" d=" M 322 346 L 318 346" stroke-linecap="round" stroke-miterlimit="10" stroke-width="3" stroke-dasharray=""/><path fill="none" stroke="#000000" paint-order="fill stroke markers" d=" M 320 240 L 320 208" stroke-linecap="round" stroke-miterlimit="10" stroke-width="3" stroke-dasharray=""/><text fill="#000000" stroke="none" font-family="sans-serif" font-size="12px" font-style="normal" font-weight="normal" text-decoration="normal" x="326" y="230" text-anchor="start" dominant-baseline="alphabetic"></text><path fill="none" stroke="#000000" paint-order="fill stroke markers" d=" M 320 208 L 352 208" stroke-linecap="round" stroke-miterlimit="10" stroke-width="3" stroke-dasharray=""/><text fill="#000000" stroke="none" font-family="sans-serif" font-size="12px" font-style="normal" font-weight="normal" text-decoration="normal" x="336" y="202" text-anchor="start" dominant-baseline="alphabetic"></text><g><text fill="#000000" stroke="none" font-family="sans-serif" font-size="16px" font-style="normal" font-weight="normal" text-decoration="normal" x="346" y="195" text-anchor="start" dominant-baseline="alphabetic">Vo</text></g><g><text fill="#000000" stroke="none" font-family="sans-serif" font-size="16px" font-style="normal" font-weight="normal" text-decoration="normal" x="332" y="283" text-anchor="start" dominant-baseline="alphabetic">RL</text></g><g><text fill="#000000" stroke="none" font-family="sans-serif" font-size="16px" font-style="normal" font-weight="normal" text-decoration="normal" x="193" y="284" text-anchor="start" dominant-baseline="alphabetic">Rb</text></g><g><text fill="#000000" stroke="none" font-family="sans-serif" font-size="16px" font-style="normal" font-weight="normal" text-decoration="normal" x="123" y="173" text-anchor="start" dominant-baseline="alphabetic">Rc</text></g><g><text fill="#000000" stroke="none" font-family="sans-serif" font-size="16px" font-style="normal" font-weight="normal" text-decoration="normal" x="124" y="282" text-anchor="start" dominant-baseline="alphabetic">Re</text></g><g><text fill="#000000" stroke="none" font-family="sans-serif" font-size="16px" font-style="normal" font-weight="normal" text-decoration="normal" x="6" y="176" text-anchor="start" dominant-baseline="alphabetic">Rb1</text></g><g><text fill="#000000" stroke="none" font-family="sans-serif" font-size="16px" font-style="normal" font-weight="normal" text-decoration="normal" x="6" y="279" text-anchor="start" dominant-baseline="alphabetic">Rb2</text></g><g><text fill="#000000" stroke="none" font-family="sans-serif" font-size="16px" font-style="normal" font-weight="normal" text-decoration="normal" x="-61" y="259" text-anchor="start" dominant-baseline="alphabetic">Ri</text></g><g><text fill="#000000" stroke="none" font-family="sans-serif" font-size="16px" font-style="normal" font-weight="normal" text-decoration="normal" x="101" y="101" text-anchor="start" dominant-baseline="alphabetic">Vcc</text></g><path fill="none" stroke="#000000" paint-order="fill stroke markers" d=" M 112 112 L 112 128" stroke-linecap="round" stroke-miterlimit="10" stroke-width="3" stroke-dasharray=""/><text fill="#000000" stroke="none" font-family="sans-serif" font-size="12px" font-style="normal" font-weight="normal" text-decoration="normal" x="118" y="126" text-anchor="start" dominant-baseline="alphabetic"></text><path fill="none" stroke="#000000" paint-order="fill stroke markers" d=" M 48 112 L 48 128" stroke-linecap="round" stroke-miterlimit="10" stroke-width="3" stroke-dasharray=""/><text fill="#000000" stroke="none" font-family="sans-serif" font-size="12px" font-style="normal" font-weight="normal" text-decoration="normal" x="54" y="126" text-anchor="start" dominant-baseline="alphabetic"></text><g><text fill="#000000" stroke="none" font-family="sans-serif" font-size="16px" font-style="normal" font-weight="normal" text-decoration="normal" x="37" y="101" text-anchor="start" dominant-baseline="alphabetic">Vcc</text></g><path fill="#000000" stroke="none" paint-order="stroke fill markers" d=" M 51 224 A 3 3 0 1 1 50.99999999995775 223.99998407846124 Z"/><path fill="#000000" stroke="none" paint-order="stroke fill markers" d=" M 115 208 A 3 3 0 1 1 114.99999999995775 207.99998407846124 Z"/><path fill="#000000" stroke="none" paint-order="stroke fill markers" d=" M 227 240 A 3 3 0 1 1 226.99999999995774 239.99998407846124 Z"/><path fill="#000000" stroke="none" paint-order="stroke fill markers" d=" M 323 208 A 3 3 0 1 1 322.99999999995777 207.99998407846124 Z"/><path fill="#000000" stroke="none" paint-order="stroke fill markers" d=" M 355 208 A 3 3 0 1 1 354.99999999995777 207.99998407846124 Z"/><path fill="#000000" stroke="none" paint-order="stroke fill markers" d=" M 115 112 A 3 3 0 1 1 114.99999999995775 111.99998407846124 Z"/><path fill="#000000" stroke="none" paint-order="stroke fill markers" d=" M 51 112 A 3 3 0 1 1 50.99999999995775 111.99998407846124 Z"/></g></svg>