<svg version="1.1" xmlns="http://www.w3.org/2000/svg" xmlns:xlink="http://www.w3.org/1999/xlink" width="348" height="184"><defs/><g transform="scale(1,1) translate(38,-154)"><path fill="none" stroke="#000000" paint-order="fill stroke markers" d=" M 32 288 L 32 260" stroke-linecap="round" stroke-miterlimit="10" stroke-width="3" stroke-dasharray=""/><path fill="none" stroke="#000000" paint-order="fill stroke markers" d=" M 32 252 L 32 224" stroke-linecap="round" stroke-miterlimit="10" stroke-width="3" stroke-dasharray=""/><path fill="none" stroke="#000000" paint-order="fill stroke markers" d=" M 22 260 L 42 260" stroke-linecap="round" stroke-miterlimit="10" stroke-width="3" stroke-dasharray=""/><path fill="none" stroke="#000000" paint-order="fill stroke markers" d=" M 16 252 L 48 252" stroke-linecap="round" stroke-miterlimit="10" stroke-width="3" stroke-dasharray=""/><path fill="none" stroke="#000000" paint-order="fill stroke markers" d=" M 32 224 L 64 224" stroke-linecap="round" stroke-miterlimit="10" stroke-width="3" stroke-dasharray=""/><path fill="none" stroke="#000000" paint-order="fill stroke markers" d=" M 96 224 L 128 224" stroke-linecap="round" stroke-miterlimit="10" stroke-width="3" stroke-dasharray=""/><g transform="matrix(1,0,0,1,64,224)"><rect fill="none" stroke="#000000" x="0" y="-6" width="32" height="12" stroke-linecap="round" stroke-miterlimit="10" stroke-width="3" stroke-dasharray=""/></g><path fill="none" stroke="#000000" paint-order="fill stroke markers" d=" M 128 288 L 128 264" stroke-linecap="round" stroke-miterlimit="10" stroke-width="3" stroke-dasharray=""/><path fill="none" stroke="#000000" paint-order="fill stroke markers" d=" M 128 248 L 128 224" stroke-linecap="round" stroke-miterlimit="10" stroke-width="3" stroke-dasharray=""/><path fill="#000000" stroke="none" paint-order="stroke fill markers" d=" M 120 264 L 136 264 L 128 248 Z"/><path fill="none" stroke="#000000" paint-order="fill stroke markers" d=" M 120 248 L 136 248" stroke-linecap="round" stroke-miterlimit="10" stroke-width="3" stroke-dasharray=""/><path fill="none" stroke="#000000" paint-order="fill stroke markers" d=" M 128 288 L 32 288" stroke-linecap="round" stroke-miterlimit="10" stroke-width="3" stroke-dasharray=""/><text fill="#000000" stroke="none" font-family="sans-serif" font-size="12px" font-style="normal" font-weight="normal" text-decoration="normal" x="80" y="282" text-anchor="start" dominant-baseline="alphabetic"></text><path fill="none" stroke="#000000" paint-order="fill stroke markers" d=" M 208 224 L 208 240" stroke-linecap="round" stroke-miterlimit="10" stroke-width="3" stroke-dasharray=""/><path fill="none" stroke="#000000" paint-order="fill stroke markers" d=" M 208 272 L 208 288" stroke-linecap="round" stroke-miterlimit="10" stroke-width="3" stroke-dasharray=""/><g transform="matrix(0,1,-1,0,208,240)"><rect fill="none" stroke="#000000" x="0" y="-6" width="32" height="12" stroke-linecap="round" stroke-miterlimit="10" stroke-width="3" stroke-dasharray=""/></g><path fill="none" stroke="#000000" paint-order="fill stroke markers" d=" M 208 288 L 128 288" stroke-linecap="round" stroke-miterlimit="10" stroke-width="3" stroke-dasharray=""/><text fill="#000000" stroke="none" font-family="sans-serif" font-size="12px" font-style="normal" font-weight="normal" text-decoration="normal" x="168" y="282" text-anchor="start" dominant-baseline="alphabetic"></text><path fill="none" stroke="#000000" paint-order="fill stroke markers" d=" M 128 224 L 208 224" stroke-linecap="round" stroke-miterlimit="10" stroke-width="3" stroke-dasharray=""/><text fill="#000000" stroke="none" font-family="sans-serif" font-size="12px" font-style="normal" font-weight="normal" text-decoration="normal" x="168" y="218" text-anchor="start" dominant-baseline="alphabetic"></text><g><text fill="#000000" stroke="none" font-family="sans-serif" font-size="18px" font-style="normal" font-weight="normal" text-decoration="normal" x="67" y="204" text-anchor="start" dominant-baseline="alphabetic">Rp</text></g><g><text fill="#000000" stroke="none" font-family="sans-serif" font-size="18px" font-style="normal" font-weight="normal" text-decoration="normal" x="220" y="261" text-anchor="start" dominant-baseline="alphabetic">RL</text></g><path fill="#000000" stroke="none" paint-order="stroke fill markers" d=" M 131 224 A 3 3 0 1 1 130.99999999995774 223.99998407846124 Z"/><path fill="#000000" stroke="none" paint-order="stroke fill markers" d=" M 131 288 A 3 3 0 1 1 130.99999999995774 287.99998407846124 Z"/></g></svg>