<svg version="1.1" xmlns="http://www.w3.org/2000/svg" xmlns:xlink="http://www.w3.org/1999/xlink" width="536" height="335"><defs/><g transform="scale(1,1) translate(102,-51)"><path fill="none" stroke="#000000" paint-order="fill stroke markers" d=" M 48 224 L 24 224" stroke-linecap="round" stroke-miterlimit="10" stroke-width="3" stroke-dasharray=""/><path fill="none" stroke="#000000" paint-order="fill stroke markers" d=" M -8 224 L -32 224" stroke-linecap="round" stroke-miterlimit="10" stroke-width="3" stroke-dasharray=""/><g transform="matrix(-1,0,0,-1,24,224)"><rect fill="none" stroke="#000000" x="0" y="-6" width="32" height="12" stroke-linecap="round" stroke-miterlimit="10" stroke-width="3" stroke-dasharray=""/></g><path fill="none" stroke="#000000" paint-order="fill stroke markers" d=" M 112 208 L 99 218" stroke-linecap="round" stroke-miterlimit="10" stroke-width="3" stroke-dasharray=""/><path fill="none" stroke="#000000" paint-order="fill stroke markers" d=" M 112 240 L 99 230" stroke-linecap="round" stroke-miterlimit="10" stroke-width="3" stroke-dasharray=""/><path fill="#000000" stroke="none" paint-order="stroke fill markers" d=" M 112 240 L 108 232 L 103 238 Z"/><path fill="none" stroke="#000000" paint-order="fill stroke markers" d=" M 48 224 L 96 224" stroke-linecap="round" stroke-miterlimit="10" stroke-width="3" stroke-dasharray=""/><path fill="#000000" stroke="none" paint-order="stroke fill markers" d=" M 96 208 L 99 208 L 99 240 L 96 240 Z"/><path fill="none" stroke="#000000" paint-order="fill stroke markers" d=" M 112 240 L 112 264" stroke-linecap="round" stroke-miterlimit="10" stroke-width="3" stroke-dasharray=""/><path fill="none" stroke="#000000" paint-order="fill stroke markers" d=" M 112 296 L 112 320" stroke-linecap="round" stroke-miterlimit="10" stroke-width="3" stroke-dasharray=""/><g transform="matrix(0,1,-1,0,112,264)"><rect fill="none" stroke="#000000" x="0" y="-6" width="32" height="12" stroke-linecap="round" stroke-miterlimit="10" stroke-width="3" stroke-dasharray=""/></g><path fill="none" stroke="#000000" paint-order="fill stroke markers" d=" M 112 320 L 112 336" stroke-linecap="round" stroke-miterlimit="10" stroke-width="3" stroke-dasharray=""/><path fill="none" stroke="#000000" paint-order="fill stroke markers" d=" M 122 336 L 102 336" stroke-linecap="round" stroke-miterlimit="10" stroke-width="3" stroke-dasharray=""/><path fill="none" stroke="#000000" paint-order="fill stroke markers" d=" M 118 341 L 106 341" stroke-linecap="round" stroke-miterlimit="10" stroke-width="3" stroke-dasharray=""/><path fill="none" stroke="#000000" paint-order="fill stroke markers" d=" M 114 346 L 110 346" stroke-linecap="round" stroke-miterlimit="10" stroke-width="3" stroke-dasharray=""/><path fill="none" stroke="#000000" paint-order="fill stroke markers" d=" M 112 208 L 112 184" stroke-linecap="round" stroke-miterlimit="10" stroke-width="3" stroke-dasharray=""/><path fill="none" stroke="#000000" paint-order="fill stroke markers" d=" M 112 152 L 112 128" stroke-linecap="round" stroke-miterlimit="10" stroke-width="3" stroke-dasharray=""/><g transform="matrix(0,-1,1,0,112,184)"><rect fill="none" stroke="#000000" x="0" y="-6" width="32" height="12" stroke-linecap="round" stroke-miterlimit="10" stroke-width="3" stroke-dasharray=""/></g><path fill="none" stroke="#000000" paint-order="fill stroke markers" d=" M 240 208 L 230 221" stroke-linecap="round" stroke-miterlimit="10" stroke-width="3" stroke-dasharray=""/><path fill="none" stroke="#000000" paint-order="fill stroke markers" d=" M 208 208 L 218 221" stroke-linecap="round" stroke-miterlimit="10" stroke-width="3" stroke-dasharray=""/><path fill="#000000" stroke="none" paint-order="stroke fill markers" d=" M 219 219 L 216 210 L 210 216 Z"/><path fill="none" stroke="#000000" paint-order="fill stroke markers" d=" M 224 240 L 224 224" stroke-linecap="round" stroke-miterlimit="10" stroke-width="3" stroke-dasharray=""/><path fill="#000000" stroke="none" paint-order="stroke fill markers" d=" M 208 224 L 208 221 L 240 221 L 240 224 Z"/><path fill="none" stroke="#000000" paint-order="fill stroke markers" d=" M 112 208 L 208 208" stroke-linecap="round" stroke-miterlimit="10" stroke-width="3" stroke-dasharray=""/><text fill="#000000" stroke="none" font-family="sans-serif" font-size="12px" font-style="normal" font-weight="normal" text-decoration="normal" x="160" y="202" text-anchor="start" dominant-baseline="alphabetic"></text><path fill="none" stroke="#000000" paint-order="fill stroke markers" d=" M 224 240 L 224 264" stroke-linecap="round" stroke-miterlimit="10" stroke-width="3" stroke-dasharray=""/><path fill="none" stroke="#000000" paint-order="fill stroke markers" d=" M 224 296 L 224 320" stroke-linecap="round" stroke-miterlimit="10" stroke-width="3" stroke-dasharray=""/><g transform="matrix(0,1,-1,0,224,264)"><rect fill="none" stroke="#000000" x="0" y="-6" width="32" height="12" stroke-linecap="round" stroke-miterlimit="10" stroke-width="3" stroke-dasharray=""/></g><path fill="none" stroke="#000000" paint-order="fill stroke markers" d=" M 224 320 L 224 336" stroke-linecap="round" stroke-miterlimit="10" stroke-width="3" stroke-dasharray=""/><path fill="none" stroke="#000000" paint-order="fill stroke markers" d=" M 234 336 L 214 336" stroke-linecap="round" stroke-miterlimit="10" stroke-width="3" stroke-dasharray=""/><path fill="none" stroke="#000000" paint-order="fill stroke markers" d=" M 230 341 L 218 341" stroke-linecap="round" stroke-miterlimit="10" stroke-width="3" stroke-dasharray=""/><path fill="none" stroke="#000000" paint-order="fill stroke markers" d=" M 226 346 L 222 346" stroke-linecap="round" stroke-miterlimit="10" stroke-width="3" stroke-dasharray=""/><path fill="none" stroke="#000000" paint-order="fill stroke markers" d=" M 240 208 L 320 208" stroke-linecap="round" stroke-miterlimit="10" stroke-width="3" stroke-dasharray=""/><text fill="#000000" stroke="none" font-family="sans-serif" font-size="12px" font-style="normal" font-weight="normal" text-decoration="normal" x="280" y="202" text-anchor="start" dominant-baseline="alphabetic"></text><path fill="none" stroke="#000000" paint-order="fill stroke markers" d=" M 320 240 L 320 264" stroke-linecap="round" stroke-miterlimit="10" stroke-width="3" stroke-dasharray=""/><path fill="none" stroke="#000000" paint-order="fill stroke markers" d=" M 320 296 L 320 320" stroke-linecap="round" stroke-miterlimit="10" stroke-width="3" stroke-dasharray=""/><g transform="matrix(0,1,-1,0,320,264)"><rect fill="none" stroke="#000000" x="0" y="-6" width="32" height="12" stroke-linecap="round" stroke-miterlimit="10" stroke-width="3" stroke-dasharray=""/></g><path fill="none" stroke="#000000" paint-order="fill stroke markers" d=" M 320 320 L 320 336" stroke-linecap="round" stroke-miterlimit="10" stroke-width="3" stroke-dasharray=""/><path fill="none" stroke="#000000" paint-order="fill stroke markers" d=" M 330 336 L 310 336" stroke-linecap="round" stroke-miterlimit="10" stroke-width="3" stroke-dasharray=""/><path fill="none" stroke="#000000" paint-order="fill stroke markers" d=" M 326 341 L 314 341" stroke-linecap="round" stroke-miterlimit="10" stroke-width="3" stroke-dasharray=""/><path fill="none" stroke="#000000" paint-order="fill stroke markers" d=" M 322 346 L 318 346" stroke-linecap="round" stroke-miterlimit="10" stroke-width="3" stroke-dasharray=""/><path fill="none" stroke="#000000" paint-order="fill stroke markers" d=" M 320 240 L 320 208" stroke-linecap="round" stroke-miterlimit="10" stroke-width="3" stroke-dasharray=""/><text fill="#000000" stroke="none" font-family="sans-serif" font-size="12px" font-style="normal" font-weight="normal" text-decoration="normal" x="326" y="230" text-anchor="start" dominant-baseline="alphabetic"></text><path fill="none" stroke="#000000" paint-order="fill stroke markers" d=" M 320 208 L 352 208" stroke-linecap="round" stroke-miterlimit="10" stroke-width="3" stroke-dasharray=""/><text fill="#000000" stroke="none" font-family="sans-serif" font-size="12px" font-style="normal" font-weight="normal" text-decoration="normal" x="336" y="202" text-anchor="start" dominant-baseline="alphabetic"></text><g><text fill="#000000" stroke="none" font-family="sans-serif" font-size="16px" font-style="normal" font-weight="normal" text-decoration="normal" x="346" y="195" text-anchor="start" dominant-baseline="alphabetic">Vo</text></g><g><text fill="#000000" stroke="none" font-family="sans-serif" font-size="16px" font-style="normal" font-weight="normal" text-decoration="normal" x="332" y="283" text-anchor="start" dominant-baseline="alphabetic">RL</text></g><g><text fill="#000000" stroke="none" font-family="sans-serif" font-size="16px" font-style="normal" font-weight="normal" text-decoration="normal" x="193" y="284" text-anchor="start" dominant-baseline="alphabetic">Rb</text></g><g><text fill="#000000" stroke="none" font-family="sans-serif" font-size="16px" font-style="normal" font-weight="normal" text-decoration="normal" x="123" y="173" text-anchor="start" dominant-baseline="alphabetic">Rc</text></g><g><text fill="#000000" stroke="none" font-family="sans-serif" font-size="16px" font-style="normal" font-weight="normal" text-decoration="normal" x="124" y="282" text-anchor="start" dominant-baseline="alphabetic">Re</text></g><g><text fill="#000000" stroke="none" font-family="sans-serif" font-size="16px" font-style="normal" font-weight="normal" text-decoration="normal" x="-7" y="209" text-anchor="start" dominant-baseline="alphabetic">Rth</text></g><g><text fill="#000000" stroke="none" font-family="sans-serif" font-size="16px" font-style="normal" font-weight="normal" text-decoration="normal" x="-10" y="278" text-anchor="start" dominant-baseline="alphabetic">Vth</text></g><g><text fill="#000000" stroke="none" font-family="sans-serif" font-size="16px" font-style="normal" font-weight="normal" text-decoration="normal" x="101" y="101" text-anchor="start" dominant-baseline="alphabetic">Vcc</text></g><path fill="none" stroke="#000000" paint-order="fill stroke markers" d=" M 112 112 L 112 128" stroke-linecap="round" stroke-miterlimit="10" stroke-width="3" stroke-dasharray=""/><text fill="#000000" stroke="none" font-family="sans-serif" font-size="12px" font-style="normal" font-weight="normal" text-decoration="normal" x="118" y="126" text-anchor="start" dominant-baseline="alphabetic"></text><path fill="none" stroke="#000000" paint-order="fill stroke markers" d=" M -32 320 L -32 276" stroke-linecap="round" stroke-miterlimit="10" stroke-width="3" stroke-dasharray=""/><path fill="none" stroke="#000000" paint-order="fill stroke markers" d=" M -32 268 L -32 224" stroke-linecap="round" stroke-miterlimit="10" stroke-width="3" stroke-dasharray=""/><path fill="none" stroke="#000000" paint-order="fill stroke markers" d=" M -42 276 L -22 276" stroke-linecap="round" stroke-miterlimit="10" stroke-width="3" stroke-dasharray=""/><path fill="none" stroke="#000000" paint-order="fill stroke markers" d=" M -48 268 L -16 268" stroke-linecap="round" stroke-miterlimit="10" stroke-width="3" stroke-dasharray=""/><path fill="none" stroke="#000000" paint-order="fill stroke markers" d=" M -32 320 L -32 336" stroke-linecap="round" stroke-miterlimit="10" stroke-width="3" stroke-dasharray=""/><path fill="none" stroke="#000000" paint-order="fill stroke markers" d=" M -22 336 L -42 336" stroke-linecap="round" stroke-miterlimit="10" stroke-width="3" stroke-dasharray=""/><path fill="none" stroke="#000000" paint-order="fill stroke markers" d=" M -26 341 L -38 341" stroke-linecap="round" stroke-miterlimit="10" stroke-width="3" stroke-dasharray=""/><path fill="none" stroke="#000000" paint-order="fill stroke markers" d=" M -30 346 L -34 346" stroke-linecap="round" stroke-miterlimit="10" stroke-width="3" stroke-dasharray=""/><path fill="#000000" stroke="none" paint-order="stroke fill markers" d=" M 115 208 A 3 3 0 1 1 114.99999999995775 207.99998407846124 Z"/><path fill="#000000" stroke="none" paint-order="stroke fill markers" d=" M 323 208 A 3 3 0 1 1 322.99999999995777 207.99998407846124 Z"/><path fill="#000000" stroke="none" paint-order="stroke fill markers" d=" M 355 208 A 3 3 0 1 1 354.99999999995777 207.99998407846124 Z"/><path fill="#000000" stroke="none" paint-order="stroke fill markers" d=" M 115 112 A 3 3 0 1 1 114.99999999995775 111.99998407846124 Z"/></g></svg>