<svg version="1.1" xmlns="http://www.w3.org/2000/svg" xmlns:xlink="http://www.w3.org/1999/xlink" width="1198" height="805"><defs><clipPath id="cHRyyTpKgQSc"><path fill="none" stroke="none" d=" M 0 0 L 1198 0 L 1198 805 L 0 805 L 0 0 Z"/></clipPath></defs><g transform="scale(1,1)" clip-path="url(#cHRyyTpKgQSc)"><g><rect fill="rgb(255,255,255)" stroke="none" x="0" y="0" width="1199" height="806" fill-opacity="1"/><path fill="none" stroke="rgb(192,192,192)" paint-order="fill stroke markers" d=" M 0.5 0.5 L 0.5 805.5 M 0.5 0.5 L 0.5 805.5 M 54.5 0.5 L 54.5 805.5 M 108.5 0.5 L 108.5 805.5 M 163.5 0.5 L 163.5 805.5 M 217.5 0.5 L 217.5 805.5 M 272.5 0.5 L 272.5 805.5 M 326.5 0.5 L 326.5 805.5 M 381.5 0.5 L 381.5 805.5 M 435.5 0.5 L 435.5 805.5 M 490.5 0.5 L 490.5 805.5 M 544.5 0.5 L 544.5 805.5 M 653.5 0.5 L 653.5 805.5 M 707.5 0.5 L 707.5 805.5 M 762.5 0.5 L 762.5 805.5 M 816.5 0.5 L 816.5 805.5 M 871.5 0.5 L 871.5 805.5 M 925.5 0.5 L 925.5 805.5 M 980.5 0.5 L 980.5 805.5 M 1034.5 0.5 L 1034.5 805.5 M 1089.5 0.5 L 1089.5 805.5 M 1143.5 0.5 L 1143.5 805.5 M 1198.5 0.5 L 1198.5 805.5" stroke-opacity="1" stroke-linecap="round" stroke-linejoin="round" stroke-miterlimit="10"/><path fill="none" stroke="rgb(192,192,192)" paint-order="fill stroke markers" d=" M 10.5 0.5 L 10.5 805.5 M 21.5 0.5 L 21.5 805.5 M 32.5 0.5 L 32.5 805.5 M 43.5 0.5 L 43.5 805.5 M 65.5 0.5 L 65.5 805.5 M 76.5 0.5 L 76.5 805.5 M 87.5 0.5 L 87.5 805.5 M 98.5 0.5 L 98.5 805.5 M 119.5 0.5 L 119.5 805.5 M 130.5 0.5 L 130.5 805.5 M 141.5 0.5 L 141.5 805.5 M 152.5 0.5 L 152.5 805.5 M 174.5 0.5 L 174.5 805.5 M 185.5 0.5 L 185.5 805.5 M 196.5 0.5 L 196.5 805.5 M 206.5 0.5 L 206.5 805.5 M 228.5 0.5 L 228.5 805.5 M 239.5 0.5 L 239.5 805.5 M 250.5 0.5 L 250.5 805.5 M 261.5 0.5 L 261.5 805.5 M 283.5 0.5 L 283.5 805.5 M 294.5 0.5 L 294.5 805.5 M 304.5 0.5 L 304.5 805.5 M 315.5 0.5 L 315.5 805.5 M 337.5 0.5 L 337.5 805.5 M 348.5 0.5 L 348.5 805.5 M 359.5 0.5 L 359.5 805.5 M 370.5 0.5 L 370.5 805.5 M 392.5 0.5 L 392.5 805.5 M 402.5 0.5 L 402.5 805.5 M 413.5 0.5 L 413.5 805.5 M 424.5 0.5 L 424.5 805.5 M 446.5 0.5 L 446.5 805.5 M 457.5 0.5 L 457.5 805.5 M 468.5 0.5 L 468.5 805.5 M 479.5 0.5 L 479.5 805.5 M 500.5 0.5 L 500.5 805.5 M 511.5 0.5 L 511.5 805.5 M 522.5 0.5 L 522.5 805.5 M 533.5 0.5 L 533.5 805.5 M 555.5 0.5 L 555.5 805.5 M 566.5 0.5 L 566.5 805.5 M 577.5 0.5 L 577.5 805.5 M 588.5 0.5 L 588.5 805.5 M 609.5 0.5 L 609.5 805.5 M 620.5 0.5 L 620.5 805.5 M 631.5 0.5 L 631.5 805.5 M 642.5 0.5 L 642.5 805.5 M 664.5 0.5 L 664.5 805.5 M 675.5 0.5 L 675.5 805.5 M 686.5 0.5 L 686.5 805.5 M 697.5 0.5 L 697.5 805.5 M 718.5 0.5 L 718.5 805.5 M 729.5 0.5 L 729.5 805.5 M 740.5 0.5 L 740.5 805.5 M 751.5 0.5 L 751.5 805.5 M 773.5 0.5 L 773.5 805.5 M 784.5 0.5 L 784.5 805.5 M 795.5 0.5 L 795.5 805.5 M 805.5 0.5 L 805.5 805.5 M 827.5 0.5 L 827.5 805.5 M 838.5 0.5 L 838.5 805.5 M 849.5 0.5 L 849.5 805.5 M 860.5 0.5 L 860.5 805.5 M 882.5 0.5 L 882.5 805.5 M 893.5 0.5 L 893.5 805.5 M 903.5 0.5 L 903.5 805.5 M 914.5 0.5 L 914.5 805.5 M 936.5 0.5 L 936.5 805.5 M 947.5 0.5 L 947.5 805.5 M 958.5 0.5 L 958.5 805.5 M 969.5 0.5 L 969.5 805.5 M 991.5 0.5 L 991.5 805.5 M 1001.5 0.5 L 1001.5 805.5 M 1012.5 0.5 L 1012.5 805.5 M 1023.5 0.5 L 1023.5 805.5 M 1045.5 0.5 L 1045.5 805.5 M 1056.5 0.5 L 1056.5 805.5 M 1067.5 0.5 L 1067.5 805.5 M 1078.5 0.5 L 1078.5 805.5 M 1099.5 0.5 L 1099.5 805.5 M 1110.5 0.5 L 1110.5 805.5 M 1121.5 0.5 L 1121.5 805.5 M 1132.5 0.5 L 1132.5 805.5 M 1154.5 0.5 L 1154.5 805.5 M 1165.5 0.5 L 1165.5 805.5 M 1176.5 0.5 L 1176.5 805.5 M 1187.5 0.5 L 1187.5 805.5" stroke-opacity="0.23529411764705882" stroke-linecap="round" stroke-linejoin="round" stroke-miterlimit="10"/><path fill="none" stroke="rgb(192,192,192)" paint-order="fill stroke markers" d=" M 0.5 -0.5 L 1198.5 -0.5 M 0.5 -0.5 L 1198.5 -0.5 M 0.5 80.5 L 1198.5 80.5 M 0.5 160.5 L 1198.5 160.5 M 0.5 241.5 L 1198.5 241.5 M 0.5 321.5 L 1198.5 321.5 M 0.5 482.5 L 1198.5 482.5 M 0.5 563.5 L 1198.5 563.5 M 0.5 644.5 L 1198.5 644.5 M 0.5 724.5 L 1198.5 724.5 M 0.5 805.5 L 1198.5 805.5" stroke-opacity="1" stroke-linecap="round" stroke-linejoin="round" stroke-miterlimit="10"/><path fill="none" stroke="rgb(192,192,192)" paint-order="fill stroke markers" d=" M 0.5 16.5 L 1198.5 16.5 M 0.5 32.5 L 1198.5 32.5 M 0.5 48.5 L 1198.5 48.5 M 0.5 64.5 L 1198.5 64.5 M 0.5 96.5 L 1198.5 96.5 M 0.5 112.5 L 1198.5 112.5 M 0.5 128.5 L 1198.5 128.5 M 0.5 144.5 L 1198.5 144.5 M 0.5 177.5 L 1198.5 177.5 M 0.5 193.5 L 1198.5 193.5 M 0.5 209.5 L 1198.5 209.5 M 0.5 225.5 L 1198.5 225.5 M 0.5 257.5 L 1198.5 257.5 M 0.5 273.5 L 1198.5 273.5 M 0.5 289.5 L 1198.5 289.5 M 0.5 305.5 L 1198.5 305.5 M 0.5 338.5 L 1198.5 338.5 M 0.5 354.5 L 1198.5 354.5 M 0.5 370.5 L 1198.5 370.5 M 0.5 386.5 L 1198.5 386.5 M 0.5 418.5 L 1198.5 418.5 M 0.5 434.5 L 1198.5 434.5 M 0.5 450.5 L 1198.5 450.5 M 0.5 466.5 L 1198.5 466.5 M 0.5 499.5 L 1198.5 499.5 M 0.5 515.5 L 1198.5 515.5 M 0.5 531.5 L 1198.5 531.5 M 0.5 547.5 L 1198.5 547.5 M 0.5 579.5 L 1198.5 579.5 M 0.5 595.5 L 1198.5 595.5 M 0.5 611.5 L 1198.5 611.5 M 0.5 627.5 L 1198.5 627.5 M 0.5 660.5 L 1198.5 660.5 M 0.5 676.5 L 1198.5 676.5 M 0.5 692.5 L 1198.5 692.5 M 0.5 708.5 L 1198.5 708.5 M 0.5 740.5 L 1198.5 740.5 M 0.5 756.5 L 1198.5 756.5 M 0.5 772.5 L 1198.5 772.5 M 0.5 788.5 L 1198.5 788.5" stroke-opacity="0.23529411764705882" stroke-linecap="round" stroke-linejoin="round" stroke-miterlimit="10"/><path fill="none" stroke="rgb(37,37,37)" paint-order="fill stroke markers" d=" M 599.5 2.5 L 599.5 805.5" stroke-opacity="1" stroke-miterlimit="10"/><path fill="none" stroke="rgb(37,37,37)" paint-order="fill stroke markers" d=" M 599.5 1.5 L 595.5 5.5" stroke-opacity="1" stroke-miterlimit="10"/><path fill="none" stroke="rgb(37,37,37)" paint-order="fill stroke markers" d=" M 599.5 1.5 L 603.5 5.5" stroke-opacity="1" stroke-miterlimit="10"/><text fill="rgb(37,37,37)" stroke="none" font-family="geogebra-sans-serif, sans-serif" font-size="16px" font-style="normal" font-weight="normal" text-decoration="normal" x="1174" y="398" text-anchor="start" dominant-baseline="alphabetic" fill-opacity="1">Vi</text><path fill="none" stroke="rgb(37,37,37)" paint-order="fill stroke markers" d=" M 0.5 402.5 L 1196.5 402.5" stroke-opacity="1" stroke-miterlimit="10"/><path fill="none" stroke="rgb(37,37,37)" paint-order="fill stroke markers" d=" M 1197.5 402.5 L 1193.5 398.5" stroke-opacity="1" stroke-miterlimit="10"/><path fill="none" stroke="rgb(37,37,37)" paint-order="fill stroke markers" d=" M 1197.5 402.5 L 1193.5 406.5" stroke-opacity="1" stroke-miterlimit="10"/><text fill="rgb(37,37,37)" stroke="none" font-family="geogebra-sans-serif, sans-serif" font-size="12px" font-style="normal" font-weight="normal" text-decoration="normal" x="43" y="418" text-anchor="start" dominant-baseline="alphabetic" fill-opacity="1">–10V</text><text fill="none" stroke="rgb(255,255,255)" font-family="geogebra-sans-serif, sans-serif" font-size="12px" font-style="normal" font-weight="normal" text-decoration="normal" x="43" y="418" text-anchor="start" dominant-baseline="alphabetic" stroke-opacity="1" stroke-linejoin="bevel" stroke-miterlimit="10" stroke-width="3">–10V</text><text fill="rgb(37,37,37)" stroke="none" font-family="geogebra-sans-serif, sans-serif" font-size="12px" font-style="normal" font-weight="normal" text-decoration="normal" x="43" y="418" text-anchor="start" dominant-baseline="alphabetic" fill-opacity="1">–10V</text><text fill="rgb(37,37,37)" stroke="none" font-family="geogebra-sans-serif, sans-serif" font-size="12px" font-style="normal" font-weight="normal" text-decoration="normal" x="100" y="418" text-anchor="start" dominant-baseline="alphabetic" fill-opacity="1">–9V</text><text fill="none" stroke="rgb(255,255,255)" font-family="geogebra-sans-serif, sans-serif" font-size="12px" font-style="normal" font-weight="normal" text-decoration="normal" x="100" y="418" text-anchor="start" dominant-baseline="alphabetic" stroke-opacity="1" stroke-linejoin="bevel" stroke-miterlimit="10" stroke-width="3">–9V</text><text fill="rgb(37,37,37)" stroke="none" font-family="geogebra-sans-serif, sans-serif" font-size="12px" font-style="normal" font-weight="normal" text-decoration="normal" x="100" y="418" text-anchor="start" dominant-baseline="alphabetic" fill-opacity="1">–9V</text><text fill="rgb(37,37,37)" stroke="none" font-family="geogebra-sans-serif, sans-serif" font-size="12px" font-style="normal" font-weight="normal" text-decoration="normal" x="155" y="418" text-anchor="start" dominant-baseline="alphabetic" fill-opacity="1">–8V</text><text fill="none" stroke="rgb(255,255,255)" font-family="geogebra-sans-serif, sans-serif" font-size="12px" font-style="normal" font-weight="normal" text-decoration="normal" x="155" y="418" text-anchor="start" dominant-baseline="alphabetic" stroke-opacity="1" stroke-linejoin="bevel" stroke-miterlimit="10" stroke-width="3">–8V</text><text fill="rgb(37,37,37)" stroke="none" font-family="geogebra-sans-serif, sans-serif" font-size="12px" font-style="normal" font-weight="normal" text-decoration="normal" x="155" y="418" text-anchor="start" dominant-baseline="alphabetic" fill-opacity="1">–8V</text><text fill="rgb(37,37,37)" stroke="none" font-family="geogebra-sans-serif, sans-serif" font-size="12px" font-style="normal" font-weight="normal" text-decoration="normal" x="209" y="418" text-anchor="start" dominant-baseline="alphabetic" fill-opacity="1">–7V</text><text fill="none" stroke="rgb(255,255,255)" font-family="geogebra-sans-serif, sans-serif" font-size="12px" font-style="normal" font-weight="normal" text-decoration="normal" x="209" y="418" text-anchor="start" dominant-baseline="alphabetic" stroke-opacity="1" stroke-linejoin="bevel" stroke-miterlimit="10" stroke-width="3">–7V</text><text fill="rgb(37,37,37)" stroke="none" font-family="geogebra-sans-serif, sans-serif" font-size="12px" font-style="normal" font-weight="normal" text-decoration="normal" x="209" y="418" text-anchor="start" dominant-baseline="alphabetic" fill-opacity="1">–7V</text><text fill="rgb(37,37,37)" stroke="none" font-family="geogebra-sans-serif, sans-serif" font-size="12px" font-style="normal" font-weight="normal" text-decoration="normal" x="264" y="418" text-anchor="start" dominant-baseline="alphabetic" fill-opacity="1">–6V</text><text fill="none" stroke="rgb(255,255,255)" font-family="geogebra-sans-serif, sans-serif" font-size="12px" font-style="normal" font-weight="normal" text-decoration="normal" x="264" y="418" text-anchor="start" dominant-baseline="alphabetic" stroke-opacity="1" stroke-linejoin="bevel" stroke-miterlimit="10" stroke-width="3">–6V</text><text fill="rgb(37,37,37)" stroke="none" font-family="geogebra-sans-serif, sans-serif" font-size="12px" font-style="normal" font-weight="normal" text-decoration="normal" x="264" y="418" text-anchor="start" dominant-baseline="alphabetic" fill-opacity="1">–6V</text><text fill="rgb(37,37,37)" stroke="none" font-family="geogebra-sans-serif, sans-serif" font-size="12px" font-style="normal" font-weight="normal" text-decoration="normal" x="318" y="418" text-anchor="start" dominant-baseline="alphabetic" fill-opacity="1">–5V</text><text fill="none" stroke="rgb(255,255,255)" font-family="geogebra-sans-serif, sans-serif" font-size="12px" font-style="normal" font-weight="normal" text-decoration="normal" x="318" y="418" text-anchor="start" dominant-baseline="alphabetic" stroke-opacity="1" stroke-linejoin="bevel" stroke-miterlimit="10" stroke-width="3">–5V</text><text fill="rgb(37,37,37)" stroke="none" font-family="geogebra-sans-serif, sans-serif" font-size="12px" font-style="normal" font-weight="normal" text-decoration="normal" x="318" y="418" text-anchor="start" dominant-baseline="alphabetic" fill-opacity="1">–5V</text><text fill="rgb(37,37,37)" stroke="none" font-family="geogebra-sans-serif, sans-serif" font-size="12px" font-style="normal" font-weight="normal" text-decoration="normal" x="373" y="418" text-anchor="start" dominant-baseline="alphabetic" fill-opacity="1">–4V</text><text fill="none" stroke="rgb(255,255,255)" font-family="geogebra-sans-serif, sans-serif" font-size="12px" font-style="normal" font-weight="normal" text-decoration="normal" x="373" y="418" text-anchor="start" dominant-baseline="alphabetic" stroke-opacity="1" stroke-linejoin="bevel" stroke-miterlimit="10" stroke-width="3">–4V</text><text fill="rgb(37,37,37)" stroke="none" font-family="geogebra-sans-serif, sans-serif" font-size="12px" font-style="normal" font-weight="normal" text-decoration="normal" x="373" y="418" text-anchor="start" dominant-baseline="alphabetic" fill-opacity="1">–4V</text><text fill="rgb(37,37,37)" stroke="none" font-family="geogebra-sans-serif, sans-serif" font-size="12px" font-style="normal" font-weight="normal" text-decoration="normal" x="427" y="418" text-anchor="start" dominant-baseline="alphabetic" fill-opacity="1">–3V</text><text fill="none" stroke="rgb(255,255,255)" font-family="geogebra-sans-serif, sans-serif" font-size="12px" font-style="normal" font-weight="normal" text-decoration="normal" x="427" y="418" text-anchor="start" dominant-baseline="alphabetic" stroke-opacity="1" stroke-linejoin="bevel" stroke-miterlimit="10" stroke-width="3">–3V</text><text fill="rgb(37,37,37)" stroke="none" font-family="geogebra-sans-serif, sans-serif" font-size="12px" font-style="normal" font-weight="normal" text-decoration="normal" x="427" y="418" text-anchor="start" dominant-baseline="alphabetic" fill-opacity="1">–3V</text><text fill="rgb(37,37,37)" stroke="none" font-family="geogebra-sans-serif, sans-serif" font-size="12px" font-style="normal" font-weight="normal" text-decoration="normal" x="482" y="418" text-anchor="start" dominant-baseline="alphabetic" fill-opacity="1">–2V</text><text fill="none" stroke="rgb(255,255,255)" font-family="geogebra-sans-serif, sans-serif" font-size="12px" font-style="normal" font-weight="normal" text-decoration="normal" x="482" y="418" text-anchor="start" dominant-baseline="alphabetic" stroke-opacity="1" stroke-linejoin="bevel" stroke-miterlimit="10" stroke-width="3">–2V</text><text fill="rgb(37,37,37)" stroke="none" font-family="geogebra-sans-serif, sans-serif" font-size="12px" font-style="normal" font-weight="normal" text-decoration="normal" x="482" y="418" text-anchor="start" dominant-baseline="alphabetic" fill-opacity="1">–2V</text><text fill="rgb(37,37,37)" stroke="none" font-family="geogebra-sans-serif, sans-serif" font-size="12px" font-style="normal" font-weight="normal" text-decoration="normal" x="536" y="418" text-anchor="start" dominant-baseline="alphabetic" fill-opacity="1">–1V</text><text fill="none" stroke="rgb(255,255,255)" font-family="geogebra-sans-serif, sans-serif" font-size="12px" font-style="normal" font-weight="normal" text-decoration="normal" x="536" y="418" text-anchor="start" dominant-baseline="alphabetic" stroke-opacity="1" stroke-linejoin="bevel" stroke-miterlimit="10" stroke-width="3">–1V</text><text fill="rgb(37,37,37)" stroke="none" font-family="geogebra-sans-serif, sans-serif" font-size="12px" font-style="normal" font-weight="normal" text-decoration="normal" x="536" y="418" text-anchor="start" dominant-baseline="alphabetic" fill-opacity="1">–1V</text><text fill="rgb(37,37,37)" stroke="none" font-family="geogebra-sans-serif, sans-serif" font-size="12px" font-style="normal" font-weight="normal" text-decoration="normal" x="648" y="418" text-anchor="start" dominant-baseline="alphabetic" fill-opacity="1">1V</text><text fill="none" stroke="rgb(255,255,255)" font-family="geogebra-sans-serif, sans-serif" font-size="12px" font-style="normal" font-weight="normal" text-decoration="normal" x="648" y="418" text-anchor="start" dominant-baseline="alphabetic" stroke-opacity="1" stroke-linejoin="bevel" stroke-miterlimit="10" stroke-width="3">1V</text><text fill="rgb(37,37,37)" stroke="none" font-family="geogebra-sans-serif, sans-serif" font-size="12px" font-style="normal" font-weight="normal" text-decoration="normal" x="648" y="418" text-anchor="start" dominant-baseline="alphabetic" fill-opacity="1">1V</text><text fill="rgb(37,37,37)" stroke="none" font-family="geogebra-sans-serif, sans-serif" font-size="12px" font-style="normal" font-weight="normal" text-decoration="normal" x="702" y="418" text-anchor="start" dominant-baseline="alphabetic" fill-opacity="1">2V</text><text fill="none" stroke="rgb(255,255,255)" font-family="geogebra-sans-serif, sans-serif" font-size="12px" font-style="normal" font-weight="normal" text-decoration="normal" x="702" y="418" text-anchor="start" dominant-baseline="alphabetic" stroke-opacity="1" stroke-linejoin="bevel" stroke-miterlimit="10" stroke-width="3">2V</text><text fill="rgb(37,37,37)" stroke="none" font-family="geogebra-sans-serif, sans-serif" font-size="12px" font-style="normal" font-weight="normal" text-decoration="normal" x="702" y="418" text-anchor="start" dominant-baseline="alphabetic" fill-opacity="1">2V</text><text fill="rgb(37,37,37)" stroke="none" font-family="geogebra-sans-serif, sans-serif" font-size="12px" font-style="normal" font-weight="normal" text-decoration="normal" x="757" y="418" text-anchor="start" dominant-baseline="alphabetic" fill-opacity="1">3V</text><text fill="none" stroke="rgb(255,255,255)" font-family="geogebra-sans-serif, sans-serif" font-size="12px" font-style="normal" font-weight="normal" text-decoration="normal" x="757" y="418" text-anchor="start" dominant-baseline="alphabetic" stroke-opacity="1" stroke-linejoin="bevel" stroke-miterlimit="10" stroke-width="3">3V</text><text fill="rgb(37,37,37)" stroke="none" font-family="geogebra-sans-serif, sans-serif" font-size="12px" font-style="normal" font-weight="normal" text-decoration="normal" x="757" y="418" text-anchor="start" dominant-baseline="alphabetic" fill-opacity="1">3V</text><text fill="rgb(37,37,37)" stroke="none" font-family="geogebra-sans-serif, sans-serif" font-size="12px" font-style="normal" font-weight="normal" text-decoration="normal" x="811" y="418" text-anchor="start" dominant-baseline="alphabetic" fill-opacity="1">4V</text><text fill="none" stroke="rgb(255,255,255)" font-family="geogebra-sans-serif, sans-serif" font-size="12px" font-style="normal" font-weight="normal" text-decoration="normal" x="811" y="418" text-anchor="start" dominant-baseline="alphabetic" stroke-opacity="1" stroke-linejoin="bevel" stroke-miterlimit="10" stroke-width="3">4V</text><text fill="rgb(37,37,37)" stroke="none" font-family="geogebra-sans-serif, sans-serif" font-size="12px" font-style="normal" font-weight="normal" text-decoration="normal" x="811" y="418" text-anchor="start" dominant-baseline="alphabetic" fill-opacity="1">4V</text><text fill="rgb(37,37,37)" stroke="none" font-family="geogebra-sans-serif, sans-serif" font-size="12px" font-style="normal" font-weight="normal" text-decoration="normal" x="866" y="418" text-anchor="start" dominant-baseline="alphabetic" fill-opacity="1">5V</text><text fill="none" stroke="rgb(255,255,255)" font-family="geogebra-sans-serif, sans-serif" font-size="12px" font-style="normal" font-weight="normal" text-decoration="normal" x="866" y="418" text-anchor="start" dominant-baseline="alphabetic" stroke-opacity="1" stroke-linejoin="bevel" stroke-miterlimit="10" stroke-width="3">5V</text><text fill="rgb(37,37,37)" stroke="none" font-family="geogebra-sans-serif, sans-serif" font-size="12px" font-style="normal" font-weight="normal" text-decoration="normal" x="866" y="418" text-anchor="start" dominant-baseline="alphabetic" fill-opacity="1">5V</text><text fill="rgb(37,37,37)" stroke="none" font-family="geogebra-sans-serif, sans-serif" font-size="12px" font-style="normal" font-weight="normal" text-decoration="normal" x="920" y="418" text-anchor="start" dominant-baseline="alphabetic" fill-opacity="1">6V</text><text fill="none" stroke="rgb(255,255,255)" font-family="geogebra-sans-serif, sans-serif" font-size="12px" font-style="normal" font-weight="normal" text-decoration="normal" x="920" y="418" text-anchor="start" dominant-baseline="alphabetic" stroke-opacity="1" stroke-linejoin="bevel" stroke-miterlimit="10" stroke-width="3">6V</text><text fill="rgb(37,37,37)" stroke="none" font-family="geogebra-sans-serif, sans-serif" font-size="12px" font-style="normal" font-weight="normal" text-decoration="normal" x="920" y="418" text-anchor="start" dominant-baseline="alphabetic" fill-opacity="1">6V</text><text fill="rgb(37,37,37)" stroke="none" font-family="geogebra-sans-serif, sans-serif" font-size="12px" font-style="normal" font-weight="normal" text-decoration="normal" x="975" y="418" text-anchor="start" dominant-baseline="alphabetic" fill-opacity="1">7V</text><text fill="none" stroke="rgb(255,255,255)" font-family="geogebra-sans-serif, sans-serif" font-size="12px" font-style="normal" font-weight="normal" text-decoration="normal" x="975" y="418" text-anchor="start" dominant-baseline="alphabetic" stroke-opacity="1" stroke-linejoin="bevel" stroke-miterlimit="10" stroke-width="3">7V</text><text fill="rgb(37,37,37)" stroke="none" font-family="geogebra-sans-serif, sans-serif" font-size="12px" font-style="normal" font-weight="normal" text-decoration="normal" x="975" y="418" text-anchor="start" dominant-baseline="alphabetic" fill-opacity="1">7V</text><text fill="rgb(37,37,37)" stroke="none" font-family="geogebra-sans-serif, sans-serif" font-size="12px" font-style="normal" font-weight="normal" text-decoration="normal" x="1029" y="418" text-anchor="start" dominant-baseline="alphabetic" fill-opacity="1">8V</text><text fill="none" stroke="rgb(255,255,255)" font-family="geogebra-sans-serif, sans-serif" font-size="12px" font-style="normal" font-weight="normal" text-decoration="normal" x="1029" y="418" text-anchor="start" dominant-baseline="alphabetic" stroke-opacity="1" stroke-linejoin="bevel" stroke-miterlimit="10" stroke-width="3">8V</text><text fill="rgb(37,37,37)" stroke="none" font-family="geogebra-sans-serif, sans-serif" font-size="12px" font-style="normal" font-weight="normal" text-decoration="normal" x="1029" y="418" text-anchor="start" dominant-baseline="alphabetic" fill-opacity="1">8V</text><text fill="rgb(37,37,37)" stroke="none" font-family="geogebra-sans-serif, sans-serif" font-size="12px" font-style="normal" font-weight="normal" text-decoration="normal" x="1084" y="418" text-anchor="start" dominant-baseline="alphabetic" fill-opacity="1">9V</text><text fill="none" stroke="rgb(255,255,255)" font-family="geogebra-sans-serif, sans-serif" font-size="12px" font-style="normal" font-weight="normal" text-decoration="normal" x="1084" y="418" text-anchor="start" dominant-baseline="alphabetic" stroke-opacity="1" stroke-linejoin="bevel" stroke-miterlimit="10" stroke-width="3">9V</text><text fill="rgb(37,37,37)" stroke="none" font-family="geogebra-sans-serif, sans-serif" font-size="12px" font-style="normal" font-weight="normal" text-decoration="normal" x="1084" y="418" text-anchor="start" dominant-baseline="alphabetic" fill-opacity="1">9V</text><text fill="rgb(37,37,37)" stroke="none" font-family="geogebra-sans-serif, sans-serif" font-size="12px" font-style="normal" font-weight="normal" text-decoration="normal" x="1135" y="418" text-anchor="start" dominant-baseline="alphabetic" fill-opacity="1">10V</text><text fill="none" stroke="rgb(255,255,255)" font-family="geogebra-sans-serif, sans-serif" font-size="12px" font-style="normal" font-weight="normal" text-decoration="normal" x="1135" y="418" text-anchor="start" dominant-baseline="alphabetic" stroke-opacity="1" stroke-linejoin="bevel" stroke-miterlimit="10" stroke-width="3">10V</text><text fill="rgb(37,37,37)" stroke="none" font-family="geogebra-sans-serif, sans-serif" font-size="12px" font-style="normal" font-weight="normal" text-decoration="normal" x="1135" y="418" text-anchor="start" dominant-baseline="alphabetic" fill-opacity="1">10V</text><text fill="rgb(37,37,37)" stroke="none" font-family="geogebra-sans-serif, sans-serif" font-size="16px" font-style="normal" font-weight="normal" text-decoration="normal" x="604" y="17" text-anchor="start" dominant-baseline="alphabetic" fill-opacity="1">Vo</text><text fill="rgb(37,37,37)" stroke="none" font-family="geogebra-sans-serif, sans-serif" font-size="12px" font-style="normal" font-weight="normal" text-decoration="normal" x="572" y="729" text-anchor="start" dominant-baseline="alphabetic" fill-opacity="1">–2V</text><text fill="none" stroke="rgb(255,255,255)" font-family="geogebra-sans-serif, sans-serif" font-size="12px" font-style="normal" font-weight="normal" text-decoration="normal" x="572" y="729" text-anchor="start" dominant-baseline="alphabetic" stroke-opacity="1" stroke-linejoin="bevel" stroke-miterlimit="10" stroke-width="3">–2V</text><text fill="rgb(37,37,37)" stroke="none" font-family="geogebra-sans-serif, sans-serif" font-size="12px" font-style="normal" font-weight="normal" text-decoration="normal" x="572" y="729" text-anchor="start" dominant-baseline="alphabetic" fill-opacity="1">–2V</text><text fill="rgb(37,37,37)" stroke="none" font-family="geogebra-sans-serif, sans-serif" font-size="12px" font-style="normal" font-weight="normal" text-decoration="normal" x="562" y="649" text-anchor="start" dominant-baseline="alphabetic" fill-opacity="1">–1.5V</text><text fill="none" stroke="rgb(255,255,255)" font-family="geogebra-sans-serif, sans-serif" font-size="12px" font-style="normal" font-weight="normal" text-decoration="normal" x="562" y="649" text-anchor="start" dominant-baseline="alphabetic" stroke-opacity="1" stroke-linejoin="bevel" stroke-miterlimit="10" stroke-width="3">–1.5V</text><text fill="rgb(37,37,37)" stroke="none" font-family="geogebra-sans-serif, sans-serif" font-size="12px" font-style="normal" font-weight="normal" text-decoration="normal" x="562" y="649" text-anchor="start" dominant-baseline="alphabetic" fill-opacity="1">–1.5V</text><text fill="rgb(37,37,37)" stroke="none" font-family="geogebra-sans-serif, sans-serif" font-size="12px" font-style="normal" font-weight="normal" text-decoration="normal" x="572" y="568" text-anchor="start" dominant-baseline="alphabetic" fill-opacity="1">–1V</text><text fill="none" stroke="rgb(255,255,255)" font-family="geogebra-sans-serif, sans-serif" font-size="12px" font-style="normal" font-weight="normal" text-decoration="normal" x="572" y="568" text-anchor="start" dominant-baseline="alphabetic" stroke-opacity="1" stroke-linejoin="bevel" stroke-miterlimit="10" stroke-width="3">–1V</text><text fill="rgb(37,37,37)" stroke="none" font-family="geogebra-sans-serif, sans-serif" font-size="12px" font-style="normal" font-weight="normal" text-decoration="normal" x="572" y="568" text-anchor="start" dominant-baseline="alphabetic" fill-opacity="1">–1V</text><text fill="rgb(37,37,37)" stroke="none" font-family="geogebra-sans-serif, sans-serif" font-size="12px" font-style="normal" font-weight="normal" text-decoration="normal" x="562" y="488" text-anchor="start" dominant-baseline="alphabetic" fill-opacity="1">–0.5V</text><text fill="none" stroke="rgb(255,255,255)" font-family="geogebra-sans-serif, sans-serif" font-size="12px" font-style="normal" font-weight="normal" text-decoration="normal" x="562" y="488" text-anchor="start" dominant-baseline="alphabetic" stroke-opacity="1" stroke-linejoin="bevel" stroke-miterlimit="10" stroke-width="3">–0.5V</text><text fill="rgb(37,37,37)" stroke="none" font-family="geogebra-sans-serif, sans-serif" font-size="12px" font-style="normal" font-weight="normal" text-decoration="normal" x="562" y="488" text-anchor="start" dominant-baseline="alphabetic" fill-opacity="1">–0.5V</text><text fill="rgb(37,37,37)" stroke="none" font-family="geogebra-sans-serif, sans-serif" font-size="12px" font-style="normal" font-weight="normal" text-decoration="normal" x="568" y="327" text-anchor="start" dominant-baseline="alphabetic" fill-opacity="1">0.5V</text><text fill="none" stroke="rgb(255,255,255)" font-family="geogebra-sans-serif, sans-serif" font-size="12px" font-style="normal" font-weight="normal" text-decoration="normal" x="568" y="327" text-anchor="start" dominant-baseline="alphabetic" stroke-opacity="1" stroke-linejoin="bevel" stroke-miterlimit="10" stroke-width="3">0.5V</text><text fill="rgb(37,37,37)" stroke="none" font-family="geogebra-sans-serif, sans-serif" font-size="12px" font-style="normal" font-weight="normal" text-decoration="normal" x="568" y="327" text-anchor="start" dominant-baseline="alphabetic" fill-opacity="1">0.5V</text><text fill="rgb(37,37,37)" stroke="none" font-family="geogebra-sans-serif, sans-serif" font-size="12px" font-style="normal" font-weight="normal" text-decoration="normal" x="578" y="246" text-anchor="start" dominant-baseline="alphabetic" fill-opacity="1">1V</text><text fill="none" stroke="rgb(255,255,255)" font-family="geogebra-sans-serif, sans-serif" font-size="12px" font-style="normal" font-weight="normal" text-decoration="normal" x="578" y="246" text-anchor="start" dominant-baseline="alphabetic" stroke-opacity="1" stroke-linejoin="bevel" stroke-miterlimit="10" stroke-width="3">1V</text><text fill="rgb(37,37,37)" stroke="none" font-family="geogebra-sans-serif, sans-serif" font-size="12px" font-style="normal" font-weight="normal" text-decoration="normal" x="578" y="246" text-anchor="start" dominant-baseline="alphabetic" fill-opacity="1">1V</text><text fill="rgb(37,37,37)" stroke="none" font-family="geogebra-sans-serif, sans-serif" font-size="12px" font-style="normal" font-weight="normal" text-decoration="normal" x="568" y="166" text-anchor="start" dominant-baseline="alphabetic" fill-opacity="1">1.5V</text><text fill="none" stroke="rgb(255,255,255)" font-family="geogebra-sans-serif, sans-serif" font-size="12px" font-style="normal" font-weight="normal" text-decoration="normal" x="568" y="166" text-anchor="start" dominant-baseline="alphabetic" stroke-opacity="1" stroke-linejoin="bevel" stroke-miterlimit="10" stroke-width="3">1.5V</text><text fill="rgb(37,37,37)" stroke="none" font-family="geogebra-sans-serif, sans-serif" font-size="12px" font-style="normal" font-weight="normal" text-decoration="normal" x="568" y="166" text-anchor="start" dominant-baseline="alphabetic" fill-opacity="1">1.5V</text><text fill="rgb(37,37,37)" stroke="none" font-family="geogebra-sans-serif, sans-serif" font-size="12px" font-style="normal" font-weight="normal" text-decoration="normal" x="578" y="85" text-anchor="start" dominant-baseline="alphabetic" fill-opacity="1">2V</text><text fill="none" stroke="rgb(255,255,255)" font-family="geogebra-sans-serif, sans-serif" font-size="12px" font-style="normal" font-weight="normal" text-decoration="normal" x="578" y="85" text-anchor="start" dominant-baseline="alphabetic" stroke-opacity="1" stroke-linejoin="bevel" stroke-miterlimit="10" stroke-width="3">2V</text><text fill="rgb(37,37,37)" stroke="none" font-family="geogebra-sans-serif, sans-serif" font-size="12px" font-style="normal" font-weight="normal" text-decoration="normal" x="578" y="85" text-anchor="start" dominant-baseline="alphabetic" fill-opacity="1">2V</text><text fill="rgb(37,37,37)" stroke="none" font-family="geogebra-sans-serif, sans-serif" font-size="12px" font-style="normal" font-weight="normal" text-decoration="normal" x="578" y="418" text-anchor="start" dominant-baseline="alphabetic" fill-opacity="1">0V</text><text fill="none" stroke="rgb(255,255,255)" font-family="geogebra-sans-serif, sans-serif" font-size="12px" font-style="normal" font-weight="normal" text-decoration="normal" x="578" y="418" text-anchor="start" dominant-baseline="alphabetic" stroke-opacity="1" stroke-linejoin="bevel" stroke-miterlimit="10" stroke-width="3">0V</text><text fill="rgb(37,37,37)" stroke="none" font-family="geogebra-sans-serif, sans-serif" font-size="12px" font-style="normal" font-weight="normal" text-decoration="normal" x="578" y="418" text-anchor="start" dominant-baseline="alphabetic" fill-opacity="1">0V</text><path fill="none" stroke="rgb(46,125,50)" paint-order="fill stroke markers" d=" M 54.454544910000095 724.500000322 L 56.15625 723.49375 M 56.15625 723.49375 L 60.8359375 720.7265625 L 65.515625 717.959375 L 70.1953125 715.1921875 L 74.875 712.425 M 74.875 712.425 L 79.5546875 709.6578125 L 84.234375 706.890625 L 88.9140625 704.1234375 L 93.59375 701.35625 L 98.2734375 698.5890625 L 102.953125 695.821875 L 107.6328125 693.0546875 L 112.3125 690.2875 L 116.9921875 687.5203125 L 121.671875 684.753125 L 126.3515625 681.9859375 L 131.03125 679.21875 L 135.7109375 676.4515625 L 140.390625 673.684375 L 145.0703125 670.9171875 L 149.75 668.15 M 149.75 668.15 L 154.4296875 665.3828125 L 159.109375 662.615625 L 163.7890625 659.8484375 L 168.46875 657.08125 L 173.1484375 654.3140625 L 177.828125 651.546875 L 182.5078125 648.7796875 L 187.1875 646.0125 L 191.8671875 643.2453125 L 196.546875 640.478125 L 201.2265625 637.7109375 L 205.90625 634.94375 L 210.5859375 632.1765625 L 215.265625 629.409375 L 219.9453125 626.6421875 L 224.625 623.875 L 229.3046875 621.1078125 L 233.984375 618.340625 L 238.6640625 615.5734375 L 243.34375 612.80625 L 248.0234375 610.0390625 L 252.703125 607.271875 L 257.3828125 604.5046875 L 262.0625 601.7375 L 266.7421875 598.9703125 L 271.421875 596.203125 L 276.1015625 593.4359375 L 280.78125 590.66875 L 285.4609375 587.9015625 L 290.140625 585.134375 L 294.8203125 582.3671875 L 299.5 579.6 M 299.5 579.6 L 304.1796875 576.8328125 L 308.859375 574.065625 L 313.5390625 571.2984375 L 318.21875 568.53125 L 322.8984375 565.7640625 L 327.578125 562.996875 L 332.2578125 560.2296875 L 336.9375 557.4625 L 341.6171875 554.6953125 L 346.296875 551.928125 L 350.9765625 549.1609375 L 355.65625 546.39375 L 360.3359375 543.6265625 L 365.015625 540.859375 L 369.6953125 538.0921875 L 374.375 535.325 L 379.0546875 532.5578125 L 383.734375 529.790625 L 388.4140625 527.0234375 L 393.09375 524.25625 L 397.7734375 521.4890625 L 402.453125 518.721875 L 407.1328125 515.9546875 L 411.8125 513.1875 L 416.4921875 510.4203125 L 421.171875 507.653125 L 425.8515625 504.8859375 L 430.53125 502.11875 L 435.2109375 499.3515625 L 439.890625 496.584375 L 444.5703125 493.8171875 L 449.25 491.05 L 453.9296875 488.2828125 L 458.609375 485.515625 L 463.2890625 482.7484375 L 467.96875 479.98125 L 472.6484375 477.2140625 L 477.328125 474.446875 L 482.0078125 471.6796875 L 486.6875 468.9125 L 491.3671875 466.1453125 L 496.046875 463.378125 L 500.7265625 460.6109375 L 505.40625 457.84375 L 510.0859375 455.0765625 L 514.765625 452.309375 L 519.4453125 449.5421875 L 524.125 446.775 L 528.8046875 444.0078125 L 533.484375 441.240625 L 538.1640625 438.4734375 L 542.84375 435.70625 L 547.5234375 432.9390625 L 552.203125 430.171875 L 556.8828125 427.4046875 L 561.5625 424.6375 L 566.2421875 421.8703125 L 570.921875 419.103125 L 575.6015625 416.3359375 L 580.28125 413.56875 L 584.9609375 410.8015625 L 589.640625 408.034375 L 594.3203125 405.2671875 L 599 402.5 M 599 402.5 L 603.6796875 399.7328125 L 608.359375 396.965625 L 613.0390625 394.1984375 L 617.71875 391.43125 L 622.3984375 388.6640625 L 627.078125 385.896875 L 631.7578125 383.1296875 L 636.4375 380.3625 L 641.1171875 377.5953125 L 645.796875 374.828125 L 650.4765625 372.0609375 L 655.15625 369.29375 L 659.8359375 366.5265625 L 664.515625 363.759375 L 669.1953125 360.9921875 L 673.875 358.225 L 678.5546875 355.4578125 L 683.234375 352.690625 L 687.9140625 349.9234375 L 692.59375 347.15625 L 697.2734375 344.3890625 L 701.953125 341.621875 L 706.6328125 338.8546875 L 711.3125 336.0875 L 715.9921875 333.3203125 L 720.671875 330.553125 L 725.3515625 327.7859375 L 730.03125 325.01875 L 734.7109375 322.2515625 L 739.390625 319.484375 L 744.0703125 316.7171875 L 748.75 313.95 M 748.75 313.95 L 753.4296875 311.1828125 L 758.109375 308.415625 L 762.7890625 305.6484375 L 767.46875 302.88125 L 772.1484375 300.1140625 L 776.828125 297.346875 L 781.5078125 294.5796875 L 786.1875 291.8125 M 786.1875 291.8125 L 789.5909096354545 289.799999678" stroke-opacity="0.8" stroke-linecap="round" stroke-linejoin="round" stroke-miterlimit="10" stroke-width="2.5"/><path fill="none" stroke="rgb(211,47,47)" paint-order="fill stroke markers" d=" M 789.5909096354545 289.7999997523077 L 790.8671875 289.21947115384614 M 790.8671875 289.21947115384614 L 795.546875 287.09086538461537 M 795.546875 287.09086538461537 L 800.2265625 284.9622596153846 L 804.90625 282.8336538461538 M 804.90625 282.8336538461538 L 809.5859375 280.70504807692305 L 814.265625 278.57644230769233 L 818.9453125 276.44783653846156 L 823.625 274.3192307692308 M 823.625 274.3192307692308 L 828.3046875 272.190625 L 832.984375 270.06201923076924 L 837.6640625 267.93341346153846 L 842.34375 265.8048076923077 L 847.0234375 263.6762019230769 L 851.703125 261.54759615384614 L 856.3828125 259.41899038461537 L 861.0625 257.2903846153846 L 865.7421875 255.16177884615385 L 870.421875 253.03317307692308 L 875.1015625 250.90456730769233 L 879.78125 248.77596153846156 L 884.4609375 246.64735576923078 L 889.140625 244.51875 L 893.8203125 242.39014423076924 L 898.5 240.26153846153846 M 898.5 240.26153846153846 L 903.1796875 238.1329326923077 L 907.859375 236.00432692307692 L 912.5390625 233.87572115384614 L 917.21875 231.74711538461537 L 921.8984375 229.6185096153846 L 926.578125 227.48990384615385 L 931.2578125 225.36129807692305 L 935.9375 223.2326923076923 L 940.6171875 221.10408653846156 L 945.296875 218.97548076923076 L 949.9765625 216.846875 L 954.65625 214.7182692307692 L 959.3359375 212.58966346153844 L 964.015625 210.4610576923077 L 968.6953125 208.33245192307692 L 973.375 206.20384615384614 L 978.0546875 204.07524038461537 L 982.734375 201.9466346153846 L 987.4140625 199.81802884615385 L 992.09375 197.68942307692305 L 996.7734375 195.5608173076923 L 1001.453125 193.4322115384615 L 1006.1328125 191.30360576923076 L 1010.8125 189.17499999999998 L 1015.4921875 187.0463942307692 L 1020.171875 184.91778846153844 L 1024.8515625 182.7891826923077 L 1029.53125 180.66057692307692 L 1034.2109375 178.53197115384614 L 1038.890625 176.40336538461537 L 1043.5703125 174.2747596153846 L 1048.25 172.14615384615385 M 1048.25 172.14615384615385 L 1052.9296875 170.01754807692305 L 1057.609375 167.8889423076923 L 1062.2890625 165.7603365384615 L 1066.96875 163.63173076923076 L 1071.6484375 161.50312499999998 L 1076.328125 159.3745192307692 L 1081.0078125 157.24591346153844 L 1085.6875 155.1173076923077 L 1090.3671875 152.98870192307692 L 1095.046875 150.86009615384614 L 1099.7265625 148.73149038461537 L 1104.40625 146.6028846153846 L 1109.0859375 144.47427884615382 L 1113.765625 142.34567307692305 L 1118.4453125 140.21706730769228 L 1123.125 138.0884615384615 M 1123.125 138.0884615384615 L 1127.8046875 135.95985576923078 L 1132.484375 133.83124999999995 L 1137.1640625 131.70264423076924 L 1141.84375 129.5740384615384 M 1141.84375 129.5740384615384 L 1143.54545509 128.7999997523077" stroke-opacity="0.8" stroke-linecap="round" stroke-linejoin="round" stroke-miterlimit="10" stroke-width="2.5"/></g></g></svg>