<?xml version="1.0" standalone="no"?>
 <!DOCTYPE svg PUBLIC "-//W3C//DTD SVG 1.1//EN" 
 "http://www.w3.org/Graphics/SVG/1.1/DTD/svg11.dtd"> 
<svg
  xmlns:svg="http://www.w3.org/2000/svg"
  xmlns="http://www.w3.org/2000/svg"
  xmlns:xlink="http://www.w3.org/1999/xlink"
  version="1.1"
  width="297.0022mm" height="210.0072mm" viewBox="0.0000 0.0000 297.0022 210.0072">
<title>SVG Image created</title>
  <desc>Image generated by Eeschema-SVG </desc>
<g style="fill:#000000; fill-opacity:1.0000;stroke:#000000; stroke-opacity:1.0000;
stroke-linecap:round; stroke-linejoin:round;"
 transform="translate(0 0) scale(1 1)">
<path style="fill:none; 
stroke:#000000; stroke-width:0.2540; stroke-opacity:1; 
stroke-linecap:round; stroke-linejoin:round;fill:none"
d="M 96.7740,80.0100
92.7100,80.0100
" /> 
<path style="fill:#000000; fill-opacity:1.0000; 
stroke:#000000; stroke-width:0.1524; stroke-opacity:1; 
stroke-linecap:round; stroke-linejoin:round;fill-rule:evenodd;"
d="M 97.7900,80.0100
96.0120,80.5180
96.0120,79.5020
Z" /> 
</g>
<g style="fill:none; 
stroke:#000000; stroke-width:0.1524; stroke-opacity:1; 
stroke-linecap:round; stroke-linejoin:round;">
<text x="95.2500" y="78.8670"
textLength="1.9570" font-size="1.6933" lengthAdjust="spacingAndGlyphs"
text-anchor="middle" opacity="0" stroke-opacity="0">Io</text>
<g class="stroked-text"><desc>Io</desc>
<path d="M94.6754 78.8115
L94.6754 77.5415
" />
<path d="M95.4617 78.8115
L95.3407 78.7511
" />
<path d="M95.3407 78.7511
L95.2802 78.6906
" />
<path d="M95.2802 78.6906
L95.2198 78.5696
" />
<path d="M95.2198 78.5696
L95.2198 78.2068
" />
<path d="M95.2198 78.2068
L95.2802 78.0858
" />
<path d="M95.2802 78.0858
L95.3407 78.0253
" />
<path d="M95.3407 78.0253
L95.4617 77.9649
" />
<path d="M95.4617 77.9649
L95.6431 77.9649
" />
<path d="M95.6431 77.9649
L95.7640 78.0253
" />
<path d="M95.7640 78.0253
L95.8245 78.0858
" />
<path d="M95.8245 78.0858
L95.8850 78.2068
" />
<path d="M95.8850 78.2068
L95.8850 78.5696
" />
<path d="M95.8850 78.5696
L95.8245 78.6906
" />
<path d="M95.8245 78.6906
L95.7640 78.7511
" />
<path d="M95.7640 78.7511
L95.6431 78.8115
" />
<path d="M95.6431 78.8115
L95.4617 78.8115
" />
</g><path style="fill:none; 
stroke:#000000; stroke-width:0.1524; stroke-opacity:1; 
stroke-linecap:round; stroke-linejoin:round;fill:none"
d="M 86.6140,101.6000
83.8200,101.6000
" /> 
<path style="fill:none; 
stroke:#000000; stroke-width:0.2540; stroke-opacity:1; 
stroke-linecap:round; stroke-linejoin:round;fill:none"
d="M 86.6140,99.6950
86.6140,103.5050
" /> 
<path style="fill:none; 
stroke:#000000; stroke-width:0.2540; stroke-opacity:1; 
stroke-linecap:round; stroke-linejoin:round;fill:none"
d="M 87.1220,102.8700
87.1220,103.8860
" /> 
<path style="fill:none; 
stroke:#000000; stroke-width:0.2540; stroke-opacity:1; 
stroke-linecap:round; stroke-linejoin:round;fill:none"
d="M 87.1220,101.0920
87.1220,102.1080
" /> 
<path style="fill:none; 
stroke:#000000; stroke-width:0.2540; stroke-opacity:1; 
stroke-linecap:round; stroke-linejoin:round;fill:none"
d="M 87.1220,99.3140
87.1220,100.3300
" /> 
<path style="fill:none; 
stroke:#000000; stroke-width:0.1524; stroke-opacity:1; 
stroke-linecap:round; stroke-linejoin:round;fill:none"
d="M 88.9000,99.0600
88.9000,99.8220
" /> 
<path style="fill:none; 
stroke:#000000; stroke-width:0.1524; stroke-opacity:1; 
stroke-linecap:round; stroke-linejoin:round;fill:none"
d="M 88.9000,104.1400
88.9000,101.6000
87.1220,101.6000
" /> 
<path style="fill:none; 
stroke:#000000; stroke-width:0.1524; stroke-opacity:1; 
stroke-linecap:round; stroke-linejoin:round;fill:none"
d="M 87.1220,103.3780
89.6620,103.3780
89.6620,99.8220
87.1220,99.8220
" /> 
<path style="fill:#000000; fill-opacity:1.0000; 
stroke:#000000; stroke-width:0.1524; stroke-opacity:1; 
stroke-linecap:round; stroke-linejoin:round;fill-rule:evenodd;"
d="M 87.3760,101.6000
88.3920,101.2190
88.3920,101.9810
Z" /> 
<path style="fill:none; 
stroke:#000000; stroke-width:0.1524; stroke-opacity:1; 
stroke-linecap:round; stroke-linejoin:round;fill:none"
d="M 89.1540,101.0920
89.2810,101.2190
90.0430,101.2190
90.1700,101.3460
" /> 
<path style="fill:none; 
stroke:#000000; stroke-width:0.1524; stroke-opacity:1; 
stroke-linecap:round; stroke-linejoin:round;fill:none"
d="M 89.6620,101.2190
89.2810,101.8540
90.0430,101.8540
Z" /> 
</g>
<g style="fill:none; 
stroke:#000000; stroke-width:0.2540; stroke-opacity:1; 
stroke-linecap:round; stroke-linejoin:round;">
<circle cx="88.0110" cy="101.6000" r="2.7940" /> 
</g>
<g style="fill:#000000; fill-opacity:1.0000; 
stroke:#000000; stroke-width:0.1524; stroke-opacity:1; 
stroke-linecap:round; stroke-linejoin:round;">
<circle cx="88.9000" cy="103.3780" r="0.2540" /> 
<circle cx="88.9000" cy="99.8220" r="0.2540" /> 
</g>
<g style="fill:none; 
stroke:#000000; stroke-width:0.1524; stroke-opacity:1; 
stroke-linecap:round; stroke-linejoin:round;">
<path d="M88.9000 99.0600
L88.9000 96.5200
" />
<g transform="rotate(-90.000000 88.6460 97.7900)">
<text x="88.6460" y="97.7900"
textLength="1.4732" font-size="1.6933" lengthAdjust="spacingAndGlyphs"
text-anchor="middle" opacity="0" stroke-opacity="0">D</text>
</g>
<g class="stroked-text"><desc>D</desc>
<path d="M88.4825 98.1226
L87.2125 98.1226
" />
<path d="M87.2125 98.1226
L87.2125 97.8202
" />
<path d="M87.2125 97.8202
L87.2730 97.6388
" />
<path d="M87.2730 97.6388
L87.3940 97.5178
" />
<path d="M87.3940 97.5178
L87.5149 97.4573
" />
<path d="M87.5149 97.4573
L87.7568 97.3969
" />
<path d="M87.7568 97.3969
L87.9382 97.3969
" />
<path d="M87.9382 97.3969
L88.1801 97.4573
" />
<path d="M88.1801 97.4573
L88.3011 97.5178
" />
<path d="M88.3011 97.5178
L88.4221 97.6388
" />
<path d="M88.4221 97.6388
L88.4825 97.8202
" />
<path d="M88.4825 97.8202
L88.4825 98.1226
" />
</g><path d="M83.8200 101.6000
L81.2800 101.6000
" />
<text x="82.5500" y="101.3460"
textLength="1.4732" font-size="1.6933" lengthAdjust="spacingAndGlyphs"
text-anchor="middle" opacity="0" stroke-opacity="0">G</text>
<g class="stroked-text"><desc>G</desc>
<path d="M82.8826 99.9730
L82.7616 99.9125
" />
<path d="M82.7616 99.9125
L82.5802 99.9125
" />
<path d="M82.5802 99.9125
L82.3988 99.9730
" />
<path d="M82.3988 99.9730
L82.2778 100.0940
" />
<path d="M82.2778 100.0940
L82.2173 100.2149
" />
<path d="M82.2173 100.2149
L82.1569 100.4568
" />
<path d="M82.1569 100.4568
L82.1569 100.6382
" />
<path d="M82.1569 100.6382
L82.2173 100.8801
" />
<path d="M82.2173 100.8801
L82.2778 101.0011
" />
<path d="M82.2778 101.0011
L82.3988 101.1221
" />
<path d="M82.3988 101.1221
L82.5802 101.1825
" />
<path d="M82.5802 101.1825
L82.7011 101.1825
" />
<path d="M82.7011 101.1825
L82.8826 101.1221
" />
<path d="M82.8826 101.1221
L82.9430 101.0616
" />
<path d="M82.9430 101.0616
L82.9430 100.6382
" />
<path d="M82.9430 100.6382
L82.7011 100.6382
" />
</g><path d="M88.9000 104.1400
L88.9000 106.6800
" />
<g transform="rotate(-90.000000 88.6460 105.4100)">
<text x="88.6460" y="105.4100"
textLength="1.4127" font-size="1.6933" lengthAdjust="spacingAndGlyphs"
text-anchor="middle" opacity="0" stroke-opacity="0">S</text>
</g>
<g class="stroked-text"><desc>S</desc>
<path d="M88.4221 105.7727
L88.4825 105.5913
" />
<path d="M88.4825 105.5913
L88.4825 105.2889
" />
<path d="M88.4825 105.2889
L88.4221 105.1680
" />
<path d="M88.4221 105.1680
L88.3616 105.1075
" />
<path d="M88.3616 105.1075
L88.2406 105.0470
" />
<path d="M88.2406 105.0470
L88.1197 105.0470
" />
<path d="M88.1197 105.0470
L87.9987 105.1075
" />
<path d="M87.9987 105.1075
L87.9382 105.1680
" />
<path d="M87.9382 105.1680
L87.8778 105.2889
" />
<path d="M87.8778 105.2889
L87.8173 105.5308
" />
<path d="M87.8173 105.5308
L87.7568 105.6518
" />
<path d="M87.7568 105.6518
L87.6963 105.7123
" />
<path d="M87.6963 105.7123
L87.5754 105.7727
" />
<path d="M87.5754 105.7727
L87.4544 105.7727
" />
<path d="M87.4544 105.7727
L87.3335 105.7123
" />
<path d="M87.3335 105.7123
L87.2730 105.6518
" />
<path d="M87.2730 105.6518
L87.2125 105.5308
" />
<path d="M87.2125 105.5308
L87.2125 105.2285
" />
<path d="M87.2125 105.2285
L87.2730 105.0470
" />
</g><text x="94.0912" y="100.9649"
textLength="2.7432" font-size="1.6933" lengthAdjust="spacingAndGlyphs"
text-anchor="middle" opacity="0" stroke-opacity="0">Q4</text>
<g class="stroked-text"><desc>Q4</desc>
<path d="M93.9702 101.0304
L93.8492 100.9699
" />
<path d="M93.8492 100.9699
L93.7283 100.8490
" />
<path d="M93.7283 100.8490
L93.5469 100.6675
" />
<path d="M93.5469 100.6675
L93.4259 100.6070
" />
<path d="M93.4259 100.6070
L93.3050 100.6070
" />
<path d="M93.3654 100.9094
L93.2445 100.8490
" />
<path d="M93.2445 100.8490
L93.1235 100.7280
" />
<path d="M93.1235 100.7280
L93.0631 100.4861
" />
<path d="M93.0631 100.4861
L93.0631 100.0628
" />
<path d="M93.0631 100.0628
L93.1235 99.8209
" />
<path d="M93.1235 99.8209
L93.2445 99.6999
" />
<path d="M93.2445 99.6999
L93.3654 99.6394
" />
<path d="M93.3654 99.6394
L93.6073 99.6394
" />
<path d="M93.6073 99.6394
L93.7283 99.6999
" />
<path d="M93.7283 99.6999
L93.8492 99.8209
" />
<path d="M93.8492 99.8209
L93.9097 100.0628
" />
<path d="M93.9097 100.0628
L93.9097 100.4861
" />
<path d="M93.9097 100.4861
L93.8492 100.7280
" />
<path d="M93.8492 100.7280
L93.7283 100.8490
" />
<path d="M93.7283 100.8490
L93.6073 100.9094
" />
<path d="M93.6073 100.9094
L93.3654 100.9094
" />
<path d="M94.9983 100.0628
L94.9983 100.9094
" />
<path d="M94.6959 99.5790
L94.3936 100.4861
" />
<path d="M94.3936 100.4861
L95.1797 100.4861
" />
</g><path style="fill:none; 
stroke:#000000; stroke-width:0.1524; stroke-opacity:1; 
stroke-linecap:round; stroke-linejoin:round;fill:none"
d="M 101.6000,93.9800
101.6000,95.2500
102.8700,95.2500
101.6000,96.5200
100.3300,95.2500
101.6000,95.2500
" /> 
<path d="M101.6000 93.9800
L101.6000 93.9800
" />
<text x="101.6000" y="99.6950"
textLength="4.0737" font-size="1.6933" lengthAdjust="spacingAndGlyphs"
text-anchor="middle" opacity="0" stroke-opacity="0">GND</text>
<g class="stroked-text"><desc>GND</desc>
<path d="M100.6324 98.4300
L100.5114 98.3695
" />
<path d="M100.5114 98.3695
L100.3300 98.3695
" />
<path d="M100.3300 98.3695
L100.1486 98.4300
" />
<path d="M100.1486 98.4300
L100.0276 98.5510
" />
<path d="M100.0276 98.5510
L99.9671 98.6719
" />
<path d="M99.9671 98.6719
L99.9067 98.9138
" />
<path d="M99.9067 98.9138
L99.9067 99.0952
" />
<path d="M99.9067 99.0952
L99.9671 99.3371
" />
<path d="M99.9671 99.3371
L100.0276 99.4581
" />
<path d="M100.0276 99.4581
L100.1486 99.5791
" />
<path d="M100.1486 99.5791
L100.3300 99.6395
" />
<path d="M100.3300 99.6395
L100.4509 99.6395
" />
<path d="M100.4509 99.6395
L100.6324 99.5791
" />
<path d="M100.6324 99.5791
L100.6928 99.5186
" />
<path d="M100.6928 99.5186
L100.6928 99.0952
" />
<path d="M100.6928 99.0952
L100.4509 99.0952
" />
<path d="M101.2371 99.6395
L101.2371 98.3695
" />
<path d="M101.2371 98.3695
L101.9628 99.6395
" />
<path d="M101.9628 99.6395
L101.9628 98.3695
" />
<path d="M102.5676 99.6395
L102.5676 98.3695
" />
<path d="M102.5676 98.3695
L102.8700 98.3695
" />
<path d="M102.8700 98.3695
L103.0514 98.4300
" />
<path d="M103.0514 98.4300
L103.1724 98.5510
" />
<path d="M103.1724 98.5510
L103.2329 98.6719
" />
<path d="M103.2329 98.6719
L103.2933 98.9138
" />
<path d="M103.2933 98.9138
L103.2933 99.0952
" />
<path d="M103.2933 99.0952
L103.2329 99.3371
" />
<path d="M103.2329 99.3371
L103.1724 99.4581
" />
<path d="M103.1724 99.4581
L103.0514 99.5791
" />
<path d="M103.0514 99.5791
L102.8700 99.6395
" />
<path d="M102.8700 99.6395
L102.5676 99.6395
" />
</g></g>
<g style="fill:none; 
stroke:#000000; stroke-width:0.2540; stroke-opacity:1; 
stroke-linecap:round; stroke-linejoin:round;">
<rect x="100.584000" y="85.090000" width="2.032000" height="5.080000" rx="0.000000" />
</g>
<g style="fill:none; 
stroke:#000000; stroke-width:0.1524; stroke-opacity:1; 
stroke-linecap:round; stroke-linejoin:round;">
<path d="M101.6000 85.0900
L101.6000 83.8200
" />
<path d="M101.6000 90.1700
L101.6000 91.4400
" />
<text x="105.4002" y="86.9949"
textLength="2.5013" font-size="1.6933" lengthAdjust="spacingAndGlyphs"
text-anchor="middle" opacity="0" stroke-opacity="0">RL</text>
<g class="stroked-text"><desc>RL</desc>
<path d="M105.2792 86.9394
L104.8559 86.3347
" />
<path d="M104.5535 86.9394
L104.5535 85.6694
" />
<path d="M104.5535 85.6694
L105.0373 85.6694
" />
<path d="M105.0373 85.6694
L105.1583 85.7299
" />
<path d="M105.1583 85.7299
L105.2188 85.7904
" />
<path d="M105.2188 85.7904
L105.2792 85.9113
" />
<path d="M105.2792 85.9113
L105.2792 86.0928
" />
<path d="M105.2792 86.0928
L105.2188 86.2137
" />
<path d="M105.2188 86.2137
L105.1583 86.2742
" />
<path d="M105.1583 86.2742
L105.0373 86.3347
" />
<path d="M105.0373 86.3347
L104.5535 86.3347
" />
<path d="M106.4283 86.9394
L105.8235 86.9394
" />
<path d="M105.8235 86.9394
L105.8235 85.6694
" />
</g><text x="104.8862" y="89.5349"
textLength="1.4732" font-size="1.6933" lengthAdjust="spacingAndGlyphs"
text-anchor="middle" opacity="0" stroke-opacity="0">R</text>
<g class="stroked-text"><desc>R</desc>
<path d="M105.2792 89.4794
L104.8559 88.8747
" />
<path d="M104.5535 89.4794
L104.5535 88.2094
" />
<path d="M104.5535 88.2094
L105.0373 88.2094
" />
<path d="M105.0373 88.2094
L105.1583 88.2699
" />
<path d="M105.1583 88.2699
L105.2188 88.3304
" />
<path d="M105.2188 88.3304
L105.2792 88.4513
" />
<path d="M105.2792 88.4513
L105.2792 88.6328
" />
<path d="M105.2792 88.6328
L105.2188 88.7537
" />
<path d="M105.2188 88.7537
L105.1583 88.8142
" />
<path d="M105.1583 88.8142
L105.0373 88.8747
" />
<path d="M105.0373 88.8747
L104.5535 88.8747
" />
</g></g>
<g style="fill:none; 
stroke:#000000; stroke-width:0.2540; stroke-opacity:1; 
stroke-linecap:round; stroke-linejoin:round;">
<rect x="62.484000" y="73.660000" width="2.032000" height="5.080000" rx="0.000000" />
</g>
<g style="fill:none; 
stroke:#000000; stroke-width:0.1524; stroke-opacity:1; 
stroke-linecap:round; stroke-linejoin:round;">
<path d="M63.5000 73.6600
L63.5000 72.3900
" />
<path d="M63.5000 78.7400
L63.5000 80.0100
" />
<text x="66.7862" y="75.5649"
textLength="1.4732" font-size="1.6933" lengthAdjust="spacingAndGlyphs"
text-anchor="middle" opacity="0" stroke-opacity="0">R</text>
<g class="stroked-text"><desc>R</desc>
<path d="M67.1792 75.5094
L66.7559 74.9047
" />
<path d="M66.4535 75.5094
L66.4535 74.2394
" />
<path d="M66.4535 74.2394
L66.9373 74.2394
" />
<path d="M66.9373 74.2394
L67.0583 74.2999
" />
<path d="M67.0583 74.2999
L67.1188 74.3604
" />
<path d="M67.1188 74.3604
L67.1792 74.4813
" />
<path d="M67.1792 74.4813
L67.1792 74.6628
" />
<path d="M67.1792 74.6628
L67.1188 74.7837
" />
<path d="M67.1188 74.7837
L67.0583 74.8442
" />
<path d="M67.0583 74.8442
L66.9373 74.9047
" />
<path d="M66.9373 74.9047
L66.4535 74.9047
" />
</g><text x="68.7819" y="78.1049"
textLength="5.4646" font-size="1.6933" lengthAdjust="spacingAndGlyphs"
text-anchor="middle" opacity="0" stroke-opacity="0">13.4k</text>
<g class="stroked-text"><desc>13.4k</desc>
<path d="M67.1188 78.0494
L66.3931 78.0494
" />
<path d="M66.7559 78.0494
L66.7559 76.7794
" />
<path d="M66.7559 76.7794
L66.6350 76.9609
" />
<path d="M66.6350 76.9609
L66.5140 77.0818
" />
<path d="M66.5140 77.0818
L66.3931 77.1423
" />
<path d="M67.5421 76.7794
L68.3283 76.7794
" />
<path d="M68.3283 76.7794
L67.9049 77.2632
" />
<path d="M67.9049 77.2632
L68.0864 77.2632
" />
<path d="M68.0864 77.2632
L68.2073 77.3237
" />
<path d="M68.2073 77.3237
L68.2678 77.3842
" />
<path d="M68.2678 77.3842
L68.3283 77.5051
" />
<path d="M68.3283 77.5051
L68.3283 77.8075
" />
<path d="M68.3283 77.8075
L68.2678 77.9285
" />
<path d="M68.2678 77.9285
L68.2073 77.9890
" />
<path d="M68.2073 77.9890
L68.0864 78.0494
" />
<path d="M68.0864 78.0494
L67.7235 78.0494
" />
<path d="M67.7235 78.0494
L67.6026 77.9890
" />
<path d="M67.6026 77.9890
L67.5421 77.9285
" />
<path d="M68.8725 77.9285
L68.9330 77.9890
" />
<path d="M68.9330 77.9890
L68.8725 78.0494
" />
<path d="M68.8725 78.0494
L68.8121 77.9890
" />
<path d="M68.8121 77.9890
L68.8725 77.9285
" />
<path d="M68.8725 77.9285
L68.8725 78.0494
" />
<path d="M70.0216 77.2028
L70.0216 78.0494
" />
<path d="M69.7192 76.7190
L69.4169 77.6261
" />
<path d="M69.4169 77.6261
L70.2030 77.6261
" />
<path d="M70.6868 78.0494
L70.6868 76.7794
" />
<path d="M70.8078 77.5656
L71.1706 78.0494
" />
<path d="M71.1706 77.2028
L70.6868 77.6866
" />
</g><path style="fill:none; 
stroke:#000000; stroke-width:0.2540; stroke-opacity:1; 
stroke-linecap:round; stroke-linejoin:round;fill:none"
d="M 60.9600,77.7240
60.9600,73.6600
" /> 
<path style="fill:#000000; fill-opacity:1.0000; 
stroke:#000000; stroke-width:0.1524; stroke-opacity:1; 
stroke-linecap:round; stroke-linejoin:round;fill-rule:evenodd;"
d="M 60.9600,78.7400
60.4520,76.9620
61.4680,76.9620
Z" /> 
</g>
<g style="fill:none; 
stroke:#000000; stroke-width:0.1524; stroke-opacity:1; 
stroke-linecap:round; stroke-linejoin:round;">
<g transform="rotate(-90.000000 59.6899 76.4540)">
<text x="59.6899" y="77.0890"
textLength="3.4085" font-size="1.6933" lengthAdjust="spacingAndGlyphs"
text-anchor="middle" opacity="0" stroke-opacity="0">Iref</text>
</g>
<g class="stroked-text"><desc>Iref</desc>
<path d="M60.2694 77.7542
L58.9994 77.7542
" />
<path d="M60.2694 77.1494
L59.4228 77.1494
" />
<path d="M59.6647 77.1494
L59.5437 77.0889
" />
<path d="M59.5437 77.0889
L59.4832 77.0284
" />
<path d="M59.4832 77.0284
L59.4228 76.9075
" />
<path d="M59.4228 76.9075
L59.4228 76.7865
" />
<path d="M60.2090 75.8794
L60.2694 76.0003
" />
<path d="M60.2694 76.0003
L60.2694 76.2422
" />
<path d="M60.2694 76.2422
L60.2090 76.3632
" />
<path d="M60.2090 76.3632
L60.0880 76.4236
" />
<path d="M60.0880 76.4236
L59.6042 76.4236
" />
<path d="M59.6042 76.4236
L59.4832 76.3632
" />
<path d="M59.4832 76.3632
L59.4228 76.2422
" />
<path d="M59.4228 76.2422
L59.4228 76.0003
" />
<path d="M59.4228 76.0003
L59.4832 75.8794
" />
<path d="M59.4832 75.8794
L59.6042 75.8189
" />
<path d="M59.6042 75.8189
L59.7251 75.8189
" />
<path d="M59.7251 75.8189
L59.8461 76.4236
" />
<path d="M59.4228 75.4560
L59.4228 74.9722
" />
<path d="M60.2694 75.2746
L59.1809 75.2746
" />
<path d="M59.1809 75.2746
L59.0599 75.2141
" />
<path d="M59.0599 75.2141
L58.9994 75.0931
" />
<path d="M58.9994 75.0931
L58.9994 74.9722
" />
</g><path style="fill:none; 
stroke:#000000; stroke-width:0.1524; stroke-opacity:1; 
stroke-linecap:round; stroke-linejoin:round;fill:none"
d="M 62.7380,66.0400
63.5000,64.7700
" /> 
<path style="fill:none; 
stroke:#000000; stroke-width:0.1524; stroke-opacity:1; 
stroke-linecap:round; stroke-linejoin:round;fill:none"
d="M 63.5000,67.3100
63.5000,64.7700
" /> 
<path style="fill:none; 
stroke:#000000; stroke-width:0.1524; stroke-opacity:1; 
stroke-linecap:round; stroke-linejoin:round;fill:none"
d="M 63.5000,64.7700
64.2620,66.0400
" /> 
<path d="M63.5000 67.3100
L63.5000 67.3100
" />
<text x="63.5000" y="62.8650"
textLength="3.8318" font-size="1.6933" lengthAdjust="spacingAndGlyphs"
text-anchor="middle" opacity="0" stroke-opacity="0">VDD</text>
<g class="stroked-text"><desc>VDD</desc>
<path d="M61.8066 61.5395
L62.2299 62.8095
" />
<path d="M62.2299 62.8095
L62.6533 61.5395
" />
<path d="M63.0766 62.8095
L63.0766 61.5395
" />
<path d="M63.0766 61.5395
L63.3790 61.5395
" />
<path d="M63.3790 61.5395
L63.5604 61.6000
" />
<path d="M63.5604 61.6000
L63.6814 61.7210
" />
<path d="M63.6814 61.7210
L63.7419 61.8419
" />
<path d="M63.7419 61.8419
L63.8023 62.0838
" />
<path d="M63.8023 62.0838
L63.8023 62.2652
" />
<path d="M63.8023 62.2652
L63.7419 62.5071
" />
<path d="M63.7419 62.5071
L63.6814 62.6281
" />
<path d="M63.6814 62.6281
L63.5604 62.7491
" />
<path d="M63.5604 62.7491
L63.3790 62.8095
" />
<path d="M63.3790 62.8095
L63.0766 62.8095
" />
<path d="M64.3466 62.8095
L64.3466 61.5395
" />
<path d="M64.3466 61.5395
L64.6490 61.5395
" />
<path d="M64.6490 61.5395
L64.8304 61.6000
" />
<path d="M64.8304 61.6000
L64.9514 61.7210
" />
<path d="M64.9514 61.7210
L65.0119 61.8419
" />
<path d="M65.0119 61.8419
L65.0723 62.0838
" />
<path d="M65.0723 62.0838
L65.0723 62.2652
" />
<path d="M65.0723 62.2652
L65.0119 62.5071
" />
<path d="M65.0119 62.5071
L64.9514 62.6281
" />
<path d="M64.9514 62.6281
L64.8304 62.7491
" />
<path d="M64.8304 62.7491
L64.6490 62.8095
" />
<path d="M64.6490 62.8095
L64.3466 62.8095
" />
</g><path style="fill:none; 
stroke:#000000; stroke-width:0.1524; stroke-opacity:1; 
stroke-linecap:round; stroke-linejoin:round;fill:none"
d="M 86.6140,88.9000
83.8200,88.9000
" /> 
<path style="fill:none; 
stroke:#000000; stroke-width:0.2540; stroke-opacity:1; 
stroke-linecap:round; stroke-linejoin:round;fill:none"
d="M 86.6140,86.9950
86.6140,90.8050
" /> 
<path style="fill:none; 
stroke:#000000; stroke-width:0.2540; stroke-opacity:1; 
stroke-linecap:round; stroke-linejoin:round;fill:none"
d="M 87.1220,90.1700
87.1220,91.1860
" /> 
<path style="fill:none; 
stroke:#000000; stroke-width:0.2540; stroke-opacity:1; 
stroke-linecap:round; stroke-linejoin:round;fill:none"
d="M 87.1220,88.3920
87.1220,89.4080
" /> 
<path style="fill:none; 
stroke:#000000; stroke-width:0.2540; stroke-opacity:1; 
stroke-linecap:round; stroke-linejoin:round;fill:none"
d="M 87.1220,86.6140
87.1220,87.6300
" /> 
<path style="fill:none; 
stroke:#000000; stroke-width:0.1524; stroke-opacity:1; 
stroke-linecap:round; stroke-linejoin:round;fill:none"
d="M 88.9000,86.3600
88.9000,87.1220
" /> 
<path style="fill:none; 
stroke:#000000; stroke-width:0.1524; stroke-opacity:1; 
stroke-linecap:round; stroke-linejoin:round;fill:none"
d="M 88.9000,91.4400
88.9000,88.9000
87.1220,88.9000
" /> 
<path style="fill:none; 
stroke:#000000; stroke-width:0.1524; stroke-opacity:1; 
stroke-linecap:round; stroke-linejoin:round;fill:none"
d="M 87.1220,90.6780
89.6620,90.6780
89.6620,87.1220
87.1220,87.1220
" /> 
<path style="fill:#000000; fill-opacity:1.0000; 
stroke:#000000; stroke-width:0.1524; stroke-opacity:1; 
stroke-linecap:round; stroke-linejoin:round;fill-rule:evenodd;"
d="M 87.3760,88.9000
88.3920,88.5190
88.3920,89.2810
Z" /> 
<path style="fill:none; 
stroke:#000000; stroke-width:0.1524; stroke-opacity:1; 
stroke-linecap:round; stroke-linejoin:round;fill:none"
d="M 89.1540,88.3920
89.2810,88.5190
90.0430,88.5190
90.1700,88.6460
" /> 
<path style="fill:none; 
stroke:#000000; stroke-width:0.1524; stroke-opacity:1; 
stroke-linecap:round; stroke-linejoin:round;fill:none"
d="M 89.6620,88.5190
89.2810,89.1540
90.0430,89.1540
Z" /> 
</g>
<g style="fill:none; 
stroke:#000000; stroke-width:0.2540; stroke-opacity:1; 
stroke-linecap:round; stroke-linejoin:round;">
<circle cx="88.0110" cy="88.9000" r="2.7940" /> 
</g>
<g style="fill:#000000; fill-opacity:1.0000; 
stroke:#000000; stroke-width:0.1524; stroke-opacity:1; 
stroke-linecap:round; stroke-linejoin:round;">
<circle cx="88.9000" cy="90.6780" r="0.2540" /> 
<circle cx="88.9000" cy="87.1220" r="0.2540" /> 
</g>
<g style="fill:none; 
stroke:#000000; stroke-width:0.1524; stroke-opacity:1; 
stroke-linecap:round; stroke-linejoin:round;">
<path d="M88.9000 86.3600
L88.9000 83.8200
" />
<g transform="rotate(-90.000000 88.6460 85.0900)">
<text x="88.6460" y="85.0900"
textLength="1.4732" font-size="1.6933" lengthAdjust="spacingAndGlyphs"
text-anchor="middle" opacity="0" stroke-opacity="0">D</text>
</g>
<g class="stroked-text"><desc>D</desc>
<path d="M88.4825 85.4226
L87.2125 85.4226
" />
<path d="M87.2125 85.4226
L87.2125 85.1202
" />
<path d="M87.2125 85.1202
L87.2730 84.9388
" />
<path d="M87.2730 84.9388
L87.3940 84.8178
" />
<path d="M87.3940 84.8178
L87.5149 84.7573
" />
<path d="M87.5149 84.7573
L87.7568 84.6969
" />
<path d="M87.7568 84.6969
L87.9382 84.6969
" />
<path d="M87.9382 84.6969
L88.1801 84.7573
" />
<path d="M88.1801 84.7573
L88.3011 84.8178
" />
<path d="M88.3011 84.8178
L88.4221 84.9388
" />
<path d="M88.4221 84.9388
L88.4825 85.1202
" />
<path d="M88.4825 85.1202
L88.4825 85.4226
" />
</g><path d="M83.8200 88.9000
L81.2800 88.9000
" />
<text x="82.5500" y="88.6460"
textLength="1.4732" font-size="1.6933" lengthAdjust="spacingAndGlyphs"
text-anchor="middle" opacity="0" stroke-opacity="0">G</text>
<g class="stroked-text"><desc>G</desc>
<path d="M82.8826 87.2730
L82.7616 87.2125
" />
<path d="M82.7616 87.2125
L82.5802 87.2125
" />
<path d="M82.5802 87.2125
L82.3988 87.2730
" />
<path d="M82.3988 87.2730
L82.2778 87.3940
" />
<path d="M82.2778 87.3940
L82.2173 87.5149
" />
<path d="M82.2173 87.5149
L82.1569 87.7568
" />
<path d="M82.1569 87.7568
L82.1569 87.9382
" />
<path d="M82.1569 87.9382
L82.2173 88.1801
" />
<path d="M82.2173 88.1801
L82.2778 88.3011
" />
<path d="M82.2778 88.3011
L82.3988 88.4221
" />
<path d="M82.3988 88.4221
L82.5802 88.4825
" />
<path d="M82.5802 88.4825
L82.7011 88.4825
" />
<path d="M82.7011 88.4825
L82.8826 88.4221
" />
<path d="M82.8826 88.4221
L82.9430 88.3616
" />
<path d="M82.9430 88.3616
L82.9430 87.9382
" />
<path d="M82.9430 87.9382
L82.7011 87.9382
" />
</g><path d="M88.9000 91.4400
L88.9000 93.9800
" />
<g transform="rotate(-90.000000 88.6460 92.7100)">
<text x="88.6460" y="92.7100"
textLength="1.4127" font-size="1.6933" lengthAdjust="spacingAndGlyphs"
text-anchor="middle" opacity="0" stroke-opacity="0">S</text>
</g>
<g class="stroked-text"><desc>S</desc>
<path d="M88.4221 93.0727
L88.4825 92.8913
" />
<path d="M88.4825 92.8913
L88.4825 92.5889
" />
<path d="M88.4825 92.5889
L88.4221 92.4680
" />
<path d="M88.4221 92.4680
L88.3616 92.4075
" />
<path d="M88.3616 92.4075
L88.2406 92.3470
" />
<path d="M88.2406 92.3470
L88.1197 92.3470
" />
<path d="M88.1197 92.3470
L87.9987 92.4075
" />
<path d="M87.9987 92.4075
L87.9382 92.4680
" />
<path d="M87.9382 92.4680
L87.8778 92.5889
" />
<path d="M87.8778 92.5889
L87.8173 92.8308
" />
<path d="M87.8173 92.8308
L87.7568 92.9518
" />
<path d="M87.7568 92.9518
L87.6963 93.0123
" />
<path d="M87.6963 93.0123
L87.5754 93.0727
" />
<path d="M87.5754 93.0727
L87.4544 93.0727
" />
<path d="M87.4544 93.0727
L87.3335 93.0123
" />
<path d="M87.3335 93.0123
L87.2730 92.9518
" />
<path d="M87.2730 92.9518
L87.2125 92.8308
" />
<path d="M87.2125 92.8308
L87.2125 92.5285
" />
<path d="M87.2125 92.5285
L87.2730 92.3470
" />
</g><text x="94.0912" y="88.2649"
textLength="2.7432" font-size="1.6933" lengthAdjust="spacingAndGlyphs"
text-anchor="middle" opacity="0" stroke-opacity="0">Q3</text>
<g class="stroked-text"><desc>Q3</desc>
<path d="M93.9702 88.3304
L93.8492 88.2699
" />
<path d="M93.8492 88.2699
L93.7283 88.1490
" />
<path d="M93.7283 88.1490
L93.5469 87.9675
" />
<path d="M93.5469 87.9675
L93.4259 87.9070
" />
<path d="M93.4259 87.9070
L93.3050 87.9070
" />
<path d="M93.3654 88.2094
L93.2445 88.1490
" />
<path d="M93.2445 88.1490
L93.1235 88.0280
" />
<path d="M93.1235 88.0280
L93.0631 87.7861
" />
<path d="M93.0631 87.7861
L93.0631 87.3628
" />
<path d="M93.0631 87.3628
L93.1235 87.1209
" />
<path d="M93.1235 87.1209
L93.2445 86.9999
" />
<path d="M93.2445 86.9999
L93.3654 86.9394
" />
<path d="M93.3654 86.9394
L93.6073 86.9394
" />
<path d="M93.6073 86.9394
L93.7283 86.9999
" />
<path d="M93.7283 86.9999
L93.8492 87.1209
" />
<path d="M93.8492 87.1209
L93.9097 87.3628
" />
<path d="M93.9097 87.3628
L93.9097 87.7861
" />
<path d="M93.9097 87.7861
L93.8492 88.0280
" />
<path d="M93.8492 88.0280
L93.7283 88.1490
" />
<path d="M93.7283 88.1490
L93.6073 88.2094
" />
<path d="M93.6073 88.2094
L93.3654 88.2094
" />
<path d="M94.3331 86.9394
L95.1193 86.9394
" />
<path d="M95.1193 86.9394
L94.6959 87.4232
" />
<path d="M94.6959 87.4232
L94.8774 87.4232
" />
<path d="M94.8774 87.4232
L94.9983 87.4837
" />
<path d="M94.9983 87.4837
L95.0588 87.5442
" />
<path d="M95.0588 87.5442
L95.1193 87.6651
" />
<path d="M95.1193 87.6651
L95.1193 87.9675
" />
<path d="M95.1193 87.9675
L95.0588 88.0885
" />
<path d="M95.0588 88.0885
L94.9983 88.1490
" />
<path d="M94.9983 88.1490
L94.8774 88.2094
" />
<path d="M94.8774 88.2094
L94.5145 88.2094
" />
<path d="M94.5145 88.2094
L94.3936 88.1490
" />
<path d="M94.3936 88.1490
L94.3331 88.0885
" />
</g><path style="fill:none; 
stroke:#000000; stroke-width:0.1524; stroke-opacity:1; 
stroke-linecap:round; stroke-linejoin:round;fill:none"
d="M 65.7860,101.6000
68.5800,101.6000
" /> 
<path style="fill:none; 
stroke:#000000; stroke-width:0.2540; stroke-opacity:1; 
stroke-linecap:round; stroke-linejoin:round;fill:none"
d="M 65.7860,99.6950
65.7860,103.5050
" /> 
<path style="fill:none; 
stroke:#000000; stroke-width:0.2540; stroke-opacity:1; 
stroke-linecap:round; stroke-linejoin:round;fill:none"
d="M 65.2780,102.8700
65.2780,103.8860
" /> 
<path style="fill:none; 
stroke:#000000; stroke-width:0.2540; stroke-opacity:1; 
stroke-linecap:round; stroke-linejoin:round;fill:none"
d="M 65.2780,101.0920
65.2780,102.1080
" /> 
<path style="fill:none; 
stroke:#000000; stroke-width:0.2540; stroke-opacity:1; 
stroke-linecap:round; stroke-linejoin:round;fill:none"
d="M 65.2780,99.3140
65.2780,100.3300
" /> 
<path style="fill:none; 
stroke:#000000; stroke-width:0.1524; stroke-opacity:1; 
stroke-linecap:round; stroke-linejoin:round;fill:none"
d="M 63.5000,99.0600
63.5000,99.8220
" /> 
<path style="fill:none; 
stroke:#000000; stroke-width:0.1524; stroke-opacity:1; 
stroke-linecap:round; stroke-linejoin:round;fill:none"
d="M 63.5000,104.1400
63.5000,101.6000
65.2780,101.6000
" /> 
<path style="fill:none; 
stroke:#000000; stroke-width:0.1524; stroke-opacity:1; 
stroke-linecap:round; stroke-linejoin:round;fill:none"
d="M 65.2780,103.3780
62.7380,103.3780
62.7380,99.8220
65.2780,99.8220
" /> 
<path style="fill:#000000; fill-opacity:1.0000; 
stroke:#000000; stroke-width:0.1524; stroke-opacity:1; 
stroke-linecap:round; stroke-linejoin:round;fill-rule:evenodd;"
d="M 65.0240,101.6000
64.0080,101.2190
64.0080,101.9810
Z" /> 
<path style="fill:none; 
stroke:#000000; stroke-width:0.1524; stroke-opacity:1; 
stroke-linecap:round; stroke-linejoin:round;fill:none"
d="M 63.2460,101.0920
63.1190,101.2190
62.3570,101.2190
62.2300,101.3460
" /> 
<path style="fill:none; 
stroke:#000000; stroke-width:0.1524; stroke-opacity:1; 
stroke-linecap:round; stroke-linejoin:round;fill:none"
d="M 62.7380,101.2190
63.1190,101.8540
62.3570,101.8540
Z" /> 
</g>
<g style="fill:none; 
stroke:#000000; stroke-width:0.2540; stroke-opacity:1; 
stroke-linecap:round; stroke-linejoin:round;">
<circle cx="64.3890" cy="101.6000" r="2.7940" /> 
</g>
<g style="fill:#000000; fill-opacity:1.0000; 
stroke:#000000; stroke-width:0.1524; stroke-opacity:1; 
stroke-linecap:round; stroke-linejoin:round;">
<circle cx="63.5000" cy="103.3780" r="0.2540" /> 
<circle cx="63.5000" cy="99.8220" r="0.2540" /> 
</g>
<g style="fill:none; 
stroke:#000000; stroke-width:0.1524; stroke-opacity:1; 
stroke-linecap:round; stroke-linejoin:round;">
<path d="M63.5000 99.0600
L63.5000 96.5200
" />
<g transform="rotate(-90.000000 63.2460 97.7900)">
<text x="63.2460" y="97.7900"
textLength="1.4732" font-size="1.6933" lengthAdjust="spacingAndGlyphs"
text-anchor="middle" opacity="0" stroke-opacity="0">D</text>
</g>
<g class="stroked-text"><desc>D</desc>
<path d="M63.0825 98.1226
L61.8125 98.1226
" />
<path d="M61.8125 98.1226
L61.8125 97.8202
" />
<path d="M61.8125 97.8202
L61.8730 97.6388
" />
<path d="M61.8730 97.6388
L61.9940 97.5178
" />
<path d="M61.9940 97.5178
L62.1149 97.4573
" />
<path d="M62.1149 97.4573
L62.3568 97.3969
" />
<path d="M62.3568 97.3969
L62.5382 97.3969
" />
<path d="M62.5382 97.3969
L62.7801 97.4573
" />
<path d="M62.7801 97.4573
L62.9011 97.5178
" />
<path d="M62.9011 97.5178
L63.0221 97.6388
" />
<path d="M63.0221 97.6388
L63.0825 97.8202
" />
<path d="M63.0825 97.8202
L63.0825 98.1226
" />
</g><path d="M68.5800 101.6000
L71.1200 101.6000
" />
<text x="69.8500" y="101.3460"
textLength="1.4732" font-size="1.6933" lengthAdjust="spacingAndGlyphs"
text-anchor="middle" opacity="0" stroke-opacity="0">G</text>
<g class="stroked-text"><desc>G</desc>
<path d="M70.1826 99.9730
L70.0616 99.9125
" />
<path d="M70.0616 99.9125
L69.8802 99.9125
" />
<path d="M69.8802 99.9125
L69.6988 99.9730
" />
<path d="M69.6988 99.9730
L69.5778 100.0940
" />
<path d="M69.5778 100.0940
L69.5173 100.2149
" />
<path d="M69.5173 100.2149
L69.4569 100.4568
" />
<path d="M69.4569 100.4568
L69.4569 100.6382
" />
<path d="M69.4569 100.6382
L69.5173 100.8801
" />
<path d="M69.5173 100.8801
L69.5778 101.0011
" />
<path d="M69.5778 101.0011
L69.6988 101.1221
" />
<path d="M69.6988 101.1221
L69.8802 101.1825
" />
<path d="M69.8802 101.1825
L70.0011 101.1825
" />
<path d="M70.0011 101.1825
L70.1826 101.1221
" />
<path d="M70.1826 101.1221
L70.2430 101.0616
" />
<path d="M70.2430 101.0616
L70.2430 100.6382
" />
<path d="M70.2430 100.6382
L70.0011 100.6382
" />
</g><path d="M63.5000 104.1400
L63.5000 106.6800
" />
<g transform="rotate(-90.000000 63.2460 105.4100)">
<text x="63.2460" y="105.4100"
textLength="1.4127" font-size="1.6933" lengthAdjust="spacingAndGlyphs"
text-anchor="middle" opacity="0" stroke-opacity="0">S</text>
</g>
<g class="stroked-text"><desc>S</desc>
<path d="M63.0221 105.7727
L63.0825 105.5913
" />
<path d="M63.0825 105.5913
L63.0825 105.2889
" />
<path d="M63.0825 105.2889
L63.0221 105.1680
" />
<path d="M63.0221 105.1680
L62.9616 105.1075
" />
<path d="M62.9616 105.1075
L62.8406 105.0470
" />
<path d="M62.8406 105.0470
L62.7197 105.0470
" />
<path d="M62.7197 105.0470
L62.5987 105.1075
" />
<path d="M62.5987 105.1075
L62.5382 105.1680
" />
<path d="M62.5382 105.1680
L62.4778 105.2889
" />
<path d="M62.4778 105.2889
L62.4173 105.5308
" />
<path d="M62.4173 105.5308
L62.3568 105.6518
" />
<path d="M62.3568 105.6518
L62.2963 105.7123
" />
<path d="M62.2963 105.7123
L62.1754 105.7727
" />
<path d="M62.1754 105.7727
L62.0544 105.7727
" />
<path d="M62.0544 105.7727
L61.9335 105.7123
" />
<path d="M61.9335 105.7123
L61.8730 105.6518
" />
<path d="M61.8730 105.6518
L61.8125 105.5308
" />
<path d="M61.8125 105.5308
L61.8125 105.2285
" />
<path d="M61.8125 105.2285
L61.8730 105.0470
" />
</g><text x="58.3088" y="100.9649"
textLength="2.7432" font-size="1.6933" lengthAdjust="spacingAndGlyphs"
text-anchor="middle" opacity="0" stroke-opacity="0">Q2</text>
<g class="stroked-text"><desc>Q2</desc>
<path d="M58.1878 101.0304
L58.0668 100.9699
" />
<path d="M58.0668 100.9699
L57.9459 100.8490
" />
<path d="M57.9459 100.8490
L57.7645 100.6675
" />
<path d="M57.7645 100.6675
L57.6435 100.6070
" />
<path d="M57.6435 100.6070
L57.5226 100.6070
" />
<path d="M57.5830 100.9094
L57.4621 100.8490
" />
<path d="M57.4621 100.8490
L57.3411 100.7280
" />
<path d="M57.3411 100.7280
L57.2807 100.4861
" />
<path d="M57.2807 100.4861
L57.2807 100.0628
" />
<path d="M57.2807 100.0628
L57.3411 99.8209
" />
<path d="M57.3411 99.8209
L57.4621 99.6999
" />
<path d="M57.4621 99.6999
L57.5830 99.6394
" />
<path d="M57.5830 99.6394
L57.8249 99.6394
" />
<path d="M57.8249 99.6394
L57.9459 99.6999
" />
<path d="M57.9459 99.6999
L58.0668 99.8209
" />
<path d="M58.0668 99.8209
L58.1273 100.0628
" />
<path d="M58.1273 100.0628
L58.1273 100.4861
" />
<path d="M58.1273 100.4861
L58.0668 100.7280
" />
<path d="M58.0668 100.7280
L57.9459 100.8490
" />
<path d="M57.9459 100.8490
L57.8249 100.9094
" />
<path d="M57.8249 100.9094
L57.5830 100.9094
" />
<path d="M58.6112 99.7604
L58.6716 99.6999
" />
<path d="M58.6716 99.6999
L58.7926 99.6394
" />
<path d="M58.7926 99.6394
L59.0950 99.6394
" />
<path d="M59.0950 99.6394
L59.2159 99.6999
" />
<path d="M59.2159 99.6999
L59.2764 99.7604
" />
<path d="M59.2764 99.7604
L59.3369 99.8813
" />
<path d="M59.3369 99.8813
L59.3369 100.0023
" />
<path d="M59.3369 100.0023
L59.2764 100.1837
" />
<path d="M59.2764 100.1837
L58.5507 100.9094
" />
<path d="M58.5507 100.9094
L59.3369 100.9094
" />
</g><path style="fill:none; 
stroke:#000000; stroke-width:0.1524; stroke-opacity:1; 
stroke-linecap:round; stroke-linejoin:round;fill:none"
d="M 65.7860,88.9000
68.5800,88.9000
" /> 
<path style="fill:none; 
stroke:#000000; stroke-width:0.2540; stroke-opacity:1; 
stroke-linecap:round; stroke-linejoin:round;fill:none"
d="M 65.7860,86.9950
65.7860,90.8050
" /> 
<path style="fill:none; 
stroke:#000000; stroke-width:0.2540; stroke-opacity:1; 
stroke-linecap:round; stroke-linejoin:round;fill:none"
d="M 65.2780,90.1700
65.2780,91.1860
" /> 
<path style="fill:none; 
stroke:#000000; stroke-width:0.2540; stroke-opacity:1; 
stroke-linecap:round; stroke-linejoin:round;fill:none"
d="M 65.2780,88.3920
65.2780,89.4080
" /> 
<path style="fill:none; 
stroke:#000000; stroke-width:0.2540; stroke-opacity:1; 
stroke-linecap:round; stroke-linejoin:round;fill:none"
d="M 65.2780,86.6140
65.2780,87.6300
" /> 
<path style="fill:none; 
stroke:#000000; stroke-width:0.1524; stroke-opacity:1; 
stroke-linecap:round; stroke-linejoin:round;fill:none"
d="M 63.5000,86.3600
63.5000,87.1220
" /> 
<path style="fill:none; 
stroke:#000000; stroke-width:0.1524; stroke-opacity:1; 
stroke-linecap:round; stroke-linejoin:round;fill:none"
d="M 63.5000,91.4400
63.5000,88.9000
65.2780,88.9000
" /> 
<path style="fill:none; 
stroke:#000000; stroke-width:0.1524; stroke-opacity:1; 
stroke-linecap:round; stroke-linejoin:round;fill:none"
d="M 65.2780,90.6780
62.7380,90.6780
62.7380,87.1220
65.2780,87.1220
" /> 
<path style="fill:#000000; fill-opacity:1.0000; 
stroke:#000000; stroke-width:0.1524; stroke-opacity:1; 
stroke-linecap:round; stroke-linejoin:round;fill-rule:evenodd;"
d="M 65.0240,88.9000
64.0080,88.5190
64.0080,89.2810
Z" /> 
<path style="fill:none; 
stroke:#000000; stroke-width:0.1524; stroke-opacity:1; 
stroke-linecap:round; stroke-linejoin:round;fill:none"
d="M 63.2460,88.3920
63.1190,88.5190
62.3570,88.5190
62.2300,88.6460
" /> 
<path style="fill:none; 
stroke:#000000; stroke-width:0.1524; stroke-opacity:1; 
stroke-linecap:round; stroke-linejoin:round;fill:none"
d="M 62.7380,88.5190
63.1190,89.1540
62.3570,89.1540
Z" /> 
</g>
<g style="fill:none; 
stroke:#000000; stroke-width:0.2540; stroke-opacity:1; 
stroke-linecap:round; stroke-linejoin:round;">
<circle cx="64.3890" cy="88.9000" r="2.7940" /> 
</g>
<g style="fill:#000000; fill-opacity:1.0000; 
stroke:#000000; stroke-width:0.1524; stroke-opacity:1; 
stroke-linecap:round; stroke-linejoin:round;">
<circle cx="63.5000" cy="90.6780" r="0.2540" /> 
<circle cx="63.5000" cy="87.1220" r="0.2540" /> 
</g>
<g style="fill:none; 
stroke:#000000; stroke-width:0.1524; stroke-opacity:1; 
stroke-linecap:round; stroke-linejoin:round;">
<path d="M63.5000 86.3600
L63.5000 83.8200
" />
<g transform="rotate(-90.000000 63.2460 85.0900)">
<text x="63.2460" y="85.0900"
textLength="1.4732" font-size="1.6933" lengthAdjust="spacingAndGlyphs"
text-anchor="middle" opacity="0" stroke-opacity="0">D</text>
</g>
<g class="stroked-text"><desc>D</desc>
<path d="M63.0825 85.4226
L61.8125 85.4226
" />
<path d="M61.8125 85.4226
L61.8125 85.1202
" />
<path d="M61.8125 85.1202
L61.8730 84.9388
" />
<path d="M61.8730 84.9388
L61.9940 84.8178
" />
<path d="M61.9940 84.8178
L62.1149 84.7573
" />
<path d="M62.1149 84.7573
L62.3568 84.6969
" />
<path d="M62.3568 84.6969
L62.5382 84.6969
" />
<path d="M62.5382 84.6969
L62.7801 84.7573
" />
<path d="M62.7801 84.7573
L62.9011 84.8178
" />
<path d="M62.9011 84.8178
L63.0221 84.9388
" />
<path d="M63.0221 84.9388
L63.0825 85.1202
" />
<path d="M63.0825 85.1202
L63.0825 85.4226
" />
</g><path d="M68.5800 88.9000
L71.1200 88.9000
" />
<text x="69.8500" y="88.6460"
textLength="1.4732" font-size="1.6933" lengthAdjust="spacingAndGlyphs"
text-anchor="middle" opacity="0" stroke-opacity="0">G</text>
<g class="stroked-text"><desc>G</desc>
<path d="M70.1826 87.2730
L70.0616 87.2125
" />
<path d="M70.0616 87.2125
L69.8802 87.2125
" />
<path d="M69.8802 87.2125
L69.6988 87.2730
" />
<path d="M69.6988 87.2730
L69.5778 87.3940
" />
<path d="M69.5778 87.3940
L69.5173 87.5149
" />
<path d="M69.5173 87.5149
L69.4569 87.7568
" />
<path d="M69.4569 87.7568
L69.4569 87.9382
" />
<path d="M69.4569 87.9382
L69.5173 88.1801
" />
<path d="M69.5173 88.1801
L69.5778 88.3011
" />
<path d="M69.5778 88.3011
L69.6988 88.4221
" />
<path d="M69.6988 88.4221
L69.8802 88.4825
" />
<path d="M69.8802 88.4825
L70.0011 88.4825
" />
<path d="M70.0011 88.4825
L70.1826 88.4221
" />
<path d="M70.1826 88.4221
L70.2430 88.3616
" />
<path d="M70.2430 88.3616
L70.2430 87.9382
" />
<path d="M70.2430 87.9382
L70.0011 87.9382
" />
</g><path d="M63.5000 91.4400
L63.5000 93.9800
" />
<g transform="rotate(-90.000000 63.2460 92.7100)">
<text x="63.2460" y="92.7100"
textLength="1.4127" font-size="1.6933" lengthAdjust="spacingAndGlyphs"
text-anchor="middle" opacity="0" stroke-opacity="0">S</text>
</g>
<g class="stroked-text"><desc>S</desc>
<path d="M63.0221 93.0727
L63.0825 92.8913
" />
<path d="M63.0825 92.8913
L63.0825 92.5889
" />
<path d="M63.0825 92.5889
L63.0221 92.4680
" />
<path d="M63.0221 92.4680
L62.9616 92.4075
" />
<path d="M62.9616 92.4075
L62.8406 92.3470
" />
<path d="M62.8406 92.3470
L62.7197 92.3470
" />
<path d="M62.7197 92.3470
L62.5987 92.4075
" />
<path d="M62.5987 92.4075
L62.5382 92.4680
" />
<path d="M62.5382 92.4680
L62.4778 92.5889
" />
<path d="M62.4778 92.5889
L62.4173 92.8308
" />
<path d="M62.4173 92.8308
L62.3568 92.9518
" />
<path d="M62.3568 92.9518
L62.2963 93.0123
" />
<path d="M62.2963 93.0123
L62.1754 93.0727
" />
<path d="M62.1754 93.0727
L62.0544 93.0727
" />
<path d="M62.0544 93.0727
L61.9335 93.0123
" />
<path d="M61.9335 93.0123
L61.8730 92.9518
" />
<path d="M61.8730 92.9518
L61.8125 92.8308
" />
<path d="M61.8125 92.8308
L61.8125 92.5285
" />
<path d="M61.8125 92.5285
L61.8730 92.3470
" />
</g><text x="58.3088" y="88.2649"
textLength="2.7432" font-size="1.6933" lengthAdjust="spacingAndGlyphs"
text-anchor="middle" opacity="0" stroke-opacity="0">Q1</text>
<g class="stroked-text"><desc>Q1</desc>
<path d="M58.1878 88.3304
L58.0668 88.2699
" />
<path d="M58.0668 88.2699
L57.9459 88.1490
" />
<path d="M57.9459 88.1490
L57.7645 87.9675
" />
<path d="M57.7645 87.9675
L57.6435 87.9070
" />
<path d="M57.6435 87.9070
L57.5226 87.9070
" />
<path d="M57.5830 88.2094
L57.4621 88.1490
" />
<path d="M57.4621 88.1490
L57.3411 88.0280
" />
<path d="M57.3411 88.0280
L57.2807 87.7861
" />
<path d="M57.2807 87.7861
L57.2807 87.3628
" />
<path d="M57.2807 87.3628
L57.3411 87.1209
" />
<path d="M57.3411 87.1209
L57.4621 86.9999
" />
<path d="M57.4621 86.9999
L57.5830 86.9394
" />
<path d="M57.5830 86.9394
L57.8249 86.9394
" />
<path d="M57.8249 86.9394
L57.9459 86.9999
" />
<path d="M57.9459 86.9999
L58.0668 87.1209
" />
<path d="M58.0668 87.1209
L58.1273 87.3628
" />
<path d="M58.1273 87.3628
L58.1273 87.7861
" />
<path d="M58.1273 87.7861
L58.0668 88.0280
" />
<path d="M58.0668 88.0280
L57.9459 88.1490
" />
<path d="M57.9459 88.1490
L57.8249 88.2094
" />
<path d="M57.8249 88.2094
L57.5830 88.2094
" />
<path d="M59.3369 88.2094
L58.6112 88.2094
" />
<path d="M58.9740 88.2094
L58.9740 86.9394
" />
<path d="M58.9740 86.9394
L58.8531 87.1209
" />
<path d="M58.8531 87.1209
L58.7321 87.2418
" />
<path d="M58.7321 87.2418
L58.6112 87.3023
" />
</g><path style="fill:none; 
stroke:#000000; stroke-width:0.1524; stroke-opacity:1; 
stroke-linecap:round; stroke-linejoin:round;fill:none"
d="M 64.2620,113.0300
63.5000,114.3000
" /> 
<path style="fill:none; 
stroke:#000000; stroke-width:0.1524; stroke-opacity:1; 
stroke-linecap:round; stroke-linejoin:round;fill:none"
d="M 63.5000,111.7600
63.5000,114.3000
" /> 
<path style="fill:none; 
stroke:#000000; stroke-width:0.1524; stroke-opacity:1; 
stroke-linecap:round; stroke-linejoin:round;fill:none"
d="M 63.5000,114.3000
62.7380,113.0300
" /> 
<path d="M63.5000 111.7600
L63.5000 111.7600
" />
<text x="63.5000" y="117.4749"
textLength="5.4042" font-size="1.6933" lengthAdjust="spacingAndGlyphs"
text-anchor="middle" opacity="0" stroke-opacity="0">-VDD</text>
<g class="stroked-text"><desc>-VDD</desc>
<path d="M61.2018 116.9356
L62.1695 116.9356
" />
<path d="M62.5928 116.1494
L63.0161 117.4194
" />
<path d="M63.0161 117.4194
L63.4395 116.1494
" />
<path d="M63.8628 117.4194
L63.8628 116.1494
" />
<path d="M63.8628 116.1494
L64.1652 116.1494
" />
<path d="M64.1652 116.1494
L64.3466 116.2099
" />
<path d="M64.3466 116.2099
L64.4676 116.3309
" />
<path d="M64.4676 116.3309
L64.5281 116.4518
" />
<path d="M64.5281 116.4518
L64.5885 116.6937
" />
<path d="M64.5885 116.6937
L64.5885 116.8751
" />
<path d="M64.5885 116.8751
L64.5281 117.1170
" />
<path d="M64.5281 117.1170
L64.4676 117.2380
" />
<path d="M64.4676 117.2380
L64.3466 117.3590
" />
<path d="M64.3466 117.3590
L64.1652 117.4194
" />
<path d="M64.1652 117.4194
L63.8628 117.4194
" />
<path d="M65.1328 117.4194
L65.1328 116.1494
" />
<path d="M65.1328 116.1494
L65.4352 116.1494
" />
<path d="M65.4352 116.1494
L65.6166 116.2099
" />
<path d="M65.6166 116.2099
L65.7376 116.3309
" />
<path d="M65.7376 116.3309
L65.7981 116.4518
" />
<path d="M65.7981 116.4518
L65.8585 116.6937
" />
<path d="M65.8585 116.6937
L65.8585 116.8751
" />
<path d="M65.8585 116.8751
L65.7981 117.1170
" />
<path d="M65.7981 117.1170
L65.7376 117.2380
" />
<path d="M65.7376 117.2380
L65.6166 117.3590
" />
<path d="M65.6166 117.3590
L65.4352 117.4194
" />
<path d="M65.4352 117.4194
L65.1328 117.4194
" />
</g><path d="M63.5000 107.9500
L88.9000 107.9500
" />
<path d="M76.2000 95.2500
L76.2000 101.6000
" />
<path d="M88.9000 106.6800
L88.9000 107.9500
" />
<path d="M88.9000 93.9800
L88.9000 96.5200
" />
<path d="M76.2000 101.6000
L81.2800 101.6000
" />
<path d="M101.6000 91.4400
L101.6000 93.9800
" />
<path d="M63.5000 106.6800
L63.5000 107.9500
" />
<path d="M63.5000 95.2500
L76.2000 95.2500
" />
<path d="M63.5000 80.0100
L63.5000 83.8200
" />
<path d="M63.5000 67.3100
L63.5000 72.3900
" />
<path d="M63.5000 107.9500
L63.5000 111.7600
" />
<path d="M63.5000 93.9800
L63.5000 95.2500
" />
<path d="M71.1200 88.9000
L81.2800 88.9000
" />
<path d="M63.5000 95.2500
L63.5000 96.5200
" />
<path d="M71.1200 101.6000
L76.2000 101.6000
" />
<path d="M88.9000 81.2800
L101.6000 81.2800
" />
<path d="M88.9000 83.8200
L88.9000 81.2800
" />
<path d="M101.6000 81.2800
L101.6000 83.8200
" />
</g>
<g style="fill:#000000; fill-opacity:1.0000; 
stroke:#000000; stroke-width:0.1524; stroke-opacity:1; 
stroke-linecap:round; stroke-linejoin:round;">
<circle cx="76.2000" cy="101.6000" r="0.4572" /> 
<circle cx="63.5000" cy="95.2500" r="0.4572" /> 
<circle cx="63.5000" cy="107.9500" r="0.4572" /> 
</g> 
</svg>
