<svg version="1.1" xmlns="http://www.w3.org/2000/svg" xmlns:xlink="http://www.w3.org/1999/xlink" width="910" height="577"><defs><clipPath id="moxllqHDJEBA"><path fill="none" stroke="none" d=" M 0 0 L 910 0 L 910 577 L 0 577 L 0 0 Z"/></clipPath></defs><g transform="scale(1,1)" clip-path="url(#moxllqHDJEBA)"><g><rect fill="rgb(255,255,255)" stroke="none" x="0" y="0" width="910" height="577" fill-opacity="1"/><path fill="none" stroke="rgb(192,192,192)" paint-order="fill stroke markers" d=" M 30.5 0.5 L 30.5 577.5 M 30.5 0.5 L 30.5 577.5 M 90.5 0.5 L 90.5 577.5 M 151.5 0.5 L 151.5 577.5 M 212.5 0.5 L 212.5 577.5 M 272.5 0.5 L 272.5 577.5 M 333.5 0.5 L 333.5 577.5 M 394.5 0.5 L 394.5 577.5 M 454.5 0.5 L 454.5 577.5 M 515.5 0.5 L 515.5 577.5 M 576.5 0.5 L 576.5 577.5 M 636.5 0.5 L 636.5 577.5 M 697.5 0.5 L 697.5 577.5 M 818.5 0.5 L 818.5 577.5 M 879.5 0.5 L 879.5 577.5" stroke-opacity="1" stroke-linecap="round" stroke-linejoin="round" stroke-miterlimit="10"/><path fill="none" stroke="rgb(192,192,192)" paint-order="fill stroke markers" d=" M 6.5 0.5 L 6.5 577.5 M 18.5 0.5 L 18.5 577.5 M 42.5 0.5 L 42.5 577.5 M 54.5 0.5 L 54.5 577.5 M 66.5 0.5 L 66.5 577.5 M 78.5 0.5 L 78.5 577.5 M 103.5 0.5 L 103.5 577.5 M 115.5 0.5 L 115.5 577.5 M 127.5 0.5 L 127.5 577.5 M 139.5 0.5 L 139.5 577.5 M 163.5 0.5 L 163.5 577.5 M 175.5 0.5 L 175.5 577.5 M 188.5 0.5 L 188.5 577.5 M 200.5 0.5 L 200.5 577.5 M 224.5 0.5 L 224.5 577.5 M 236.5 0.5 L 236.5 577.5 M 248.5 0.5 L 248.5 577.5 M 260.5 0.5 L 260.5 577.5 M 285.5 0.5 L 285.5 577.5 M 297.5 0.5 L 297.5 577.5 M 309.5 0.5 L 309.5 577.5 M 321.5 0.5 L 321.5 577.5 M 345.5 0.5 L 345.5 577.5 M 357.5 0.5 L 357.5 577.5 M 370.5 0.5 L 370.5 577.5 M 382.5 0.5 L 382.5 577.5 M 406.5 0.5 L 406.5 577.5 M 418.5 0.5 L 418.5 577.5 M 430.5 0.5 L 430.5 577.5 M 442.5 0.5 L 442.5 577.5 M 467.5 0.5 L 467.5 577.5 M 479.5 0.5 L 479.5 577.5 M 491.5 0.5 L 491.5 577.5 M 503.5 0.5 L 503.5 577.5 M 527.5 0.5 L 527.5 577.5 M 539.5 0.5 L 539.5 577.5 M 552.5 0.5 L 552.5 577.5 M 564.5 0.5 L 564.5 577.5 M 588.5 0.5 L 588.5 577.5 M 600.5 0.5 L 600.5 577.5 M 612.5 0.5 L 612.5 577.5 M 624.5 0.5 L 624.5 577.5 M 649.5 0.5 L 649.5 577.5 M 661.5 0.5 L 661.5 577.5 M 673.5 0.5 L 673.5 577.5 M 685.5 0.5 L 685.5 577.5 M 709.5 0.5 L 709.5 577.5 M 721.5 0.5 L 721.5 577.5 M 734.5 0.5 L 734.5 577.5 M 746.5 0.5 L 746.5 577.5 M 770.5 0.5 L 770.5 577.5 M 782.5 0.5 L 782.5 577.5 M 794.5 0.5 L 794.5 577.5 M 806.5 0.5 L 806.5 577.5 M 831.5 0.5 L 831.5 577.5 M 843.5 0.5 L 843.5 577.5 M 855.5 0.5 L 855.5 577.5 M 867.5 0.5 L 867.5 577.5 M 891.5 0.5 L 891.5 577.5 M 903.5 0.5 L 903.5 577.5" stroke-opacity="0.23529411764705882" stroke-linecap="round" stroke-linejoin="round" stroke-miterlimit="10"/><path fill="none" stroke="rgb(192,192,192)" paint-order="fill stroke markers" d=" M 0.5 0.5 L 910.5 0.5 M 0.5 0.5 L 910.5 0.5 M 0.5 82.5 L 910.5 82.5 M 0.5 164.5 L 910.5 164.5 M 0.5 247.5 L 910.5 247.5 M 0.5 329.5 L 910.5 329.5 M 0.5 412.5 L 910.5 412.5 M 0.5 576.5 L 910.5 576.5" stroke-opacity="1" stroke-linecap="round" stroke-linejoin="round" stroke-miterlimit="10"/><path fill="none" stroke="rgb(192,192,192)" paint-order="fill stroke markers" d=" M 0.5 0.5 L 910.5 0.5 M 0.5 16.5 L 910.5 16.5 M 0.5 32.5 L 910.5 32.5 M 0.5 49.5 L 910.5 49.5 M 0.5 65.5 L 910.5 65.5 M 0.5 98.5 L 910.5 98.5 M 0.5 115.5 L 910.5 115.5 M 0.5 131.5 L 910.5 131.5 M 0.5 148.5 L 910.5 148.5 M 0.5 181.5 L 910.5 181.5 M 0.5 197.5 L 910.5 197.5 M 0.5 214.5 L 910.5 214.5 M 0.5 230.5 L 910.5 230.5 M 0.5 263.5 L 910.5 263.5 M 0.5 280.5 L 910.5 280.5 M 0.5 296.5 L 910.5 296.5 M 0.5 313.5 L 910.5 313.5 M 0.5 346.5 L 910.5 346.5 M 0.5 362.5 L 910.5 362.5 M 0.5 379.5 L 910.5 379.5 M 0.5 395.5 L 910.5 395.5 M 0.5 428.5 L 910.5 428.5 M 0.5 445.5 L 910.5 445.5 M 0.5 461.5 L 910.5 461.5 M 0.5 478.5 L 910.5 478.5 M 0.5 511.5 L 910.5 511.5 M 0.5 527.5 L 910.5 527.5 M 0.5 544.5 L 910.5 544.5 M 0.5 560.5 L 910.5 560.5" stroke-opacity="0.23529411764705882" stroke-linecap="round" stroke-linejoin="round" stroke-miterlimit="10"/><path fill="none" stroke="rgb(37,37,37)" paint-order="fill stroke markers" d=" M 758.5 2.5 L 758.5 577.5" stroke-opacity="1" stroke-miterlimit="10"/><path fill="none" stroke="rgb(37,37,37)" paint-order="fill stroke markers" d=" M 758.5 1.5 L 754.5 5.5" stroke-opacity="1" stroke-miterlimit="10"/><path fill="none" stroke="rgb(37,37,37)" paint-order="fill stroke markers" d=" M 758.5 1.5 L 762.5 5.5" stroke-opacity="1" stroke-miterlimit="10"/><text fill="rgb(37,37,37)" stroke="none" font-family="geogebra-sans-serif, sans-serif" font-size="16px" font-style="normal" font-weight="normal" text-decoration="normal" x="872" y="490" text-anchor="start" dominant-baseline="alphabetic" fill-opacity="1">Vgs</text><path fill="none" stroke="rgb(37,37,37)" paint-order="fill stroke markers" d=" M 0.5 494.5 L 908.5 494.5" stroke-opacity="1" stroke-miterlimit="10"/><path fill="none" stroke="rgb(37,37,37)" paint-order="fill stroke markers" d=" M 909.5 494.5 L 905.5 490.5" stroke-opacity="1" stroke-miterlimit="10"/><path fill="none" stroke="rgb(37,37,37)" paint-order="fill stroke markers" d=" M 909.5 494.5 L 905.5 498.5" stroke-opacity="1" stroke-miterlimit="10"/><text fill="rgb(37,37,37)" stroke="none" font-family="geogebra-sans-serif, sans-serif" font-size="12px" font-style="normal" font-weight="normal" text-decoration="normal" x="16" y="510" text-anchor="start" dominant-baseline="alphabetic" fill-opacity="1">–2.4V</text><text fill="none" stroke="rgb(255,255,255)" font-family="geogebra-sans-serif, sans-serif" font-size="12px" font-style="normal" font-weight="normal" text-decoration="normal" x="16" y="510" text-anchor="start" dominant-baseline="alphabetic" stroke-opacity="1" stroke-linejoin="bevel" stroke-miterlimit="10" stroke-width="3">–2.4V</text><text fill="rgb(37,37,37)" stroke="none" font-family="geogebra-sans-serif, sans-serif" font-size="12px" font-style="normal" font-weight="normal" text-decoration="normal" x="16" y="510" text-anchor="start" dominant-baseline="alphabetic" fill-opacity="1">–2.4V</text><text fill="rgb(37,37,37)" stroke="none" font-family="geogebra-sans-serif, sans-serif" font-size="12px" font-style="normal" font-weight="normal" text-decoration="normal" x="76" y="510" text-anchor="start" dominant-baseline="alphabetic" fill-opacity="1">–2.2V</text><text fill="none" stroke="rgb(255,255,255)" font-family="geogebra-sans-serif, sans-serif" font-size="12px" font-style="normal" font-weight="normal" text-decoration="normal" x="76" y="510" text-anchor="start" dominant-baseline="alphabetic" stroke-opacity="1" stroke-linejoin="bevel" stroke-miterlimit="10" stroke-width="3">–2.2V</text><text fill="rgb(37,37,37)" stroke="none" font-family="geogebra-sans-serif, sans-serif" font-size="12px" font-style="normal" font-weight="normal" text-decoration="normal" x="76" y="510" text-anchor="start" dominant-baseline="alphabetic" fill-opacity="1">–2.2V</text><text fill="rgb(37,37,37)" stroke="none" font-family="geogebra-sans-serif, sans-serif" font-size="12px" font-style="normal" font-weight="normal" text-decoration="normal" x="143" y="510" text-anchor="start" dominant-baseline="alphabetic" fill-opacity="1">–2V</text><text fill="none" stroke="rgb(255,255,255)" font-family="geogebra-sans-serif, sans-serif" font-size="12px" font-style="normal" font-weight="normal" text-decoration="normal" x="143" y="510" text-anchor="start" dominant-baseline="alphabetic" stroke-opacity="1" stroke-linejoin="bevel" stroke-miterlimit="10" stroke-width="3">–2V</text><text fill="rgb(37,37,37)" stroke="none" font-family="geogebra-sans-serif, sans-serif" font-size="12px" font-style="normal" font-weight="normal" text-decoration="normal" x="143" y="510" text-anchor="start" dominant-baseline="alphabetic" fill-opacity="1">–2V</text><text fill="rgb(37,37,37)" stroke="none" font-family="geogebra-sans-serif, sans-serif" font-size="12px" font-style="normal" font-weight="normal" text-decoration="normal" x="198" y="510" text-anchor="start" dominant-baseline="alphabetic" fill-opacity="1">–1.8V</text><text fill="none" stroke="rgb(255,255,255)" font-family="geogebra-sans-serif, sans-serif" font-size="12px" font-style="normal" font-weight="normal" text-decoration="normal" x="198" y="510" text-anchor="start" dominant-baseline="alphabetic" stroke-opacity="1" stroke-linejoin="bevel" stroke-miterlimit="10" stroke-width="3">–1.8V</text><text fill="rgb(37,37,37)" stroke="none" font-family="geogebra-sans-serif, sans-serif" font-size="12px" font-style="normal" font-weight="normal" text-decoration="normal" x="198" y="510" text-anchor="start" dominant-baseline="alphabetic" fill-opacity="1">–1.8V</text><text fill="rgb(37,37,37)" stroke="none" font-family="geogebra-sans-serif, sans-serif" font-size="12px" font-style="normal" font-weight="normal" text-decoration="normal" x="258" y="510" text-anchor="start" dominant-baseline="alphabetic" fill-opacity="1">–1.6V</text><text fill="none" stroke="rgb(255,255,255)" font-family="geogebra-sans-serif, sans-serif" font-size="12px" font-style="normal" font-weight="normal" text-decoration="normal" x="258" y="510" text-anchor="start" dominant-baseline="alphabetic" stroke-opacity="1" stroke-linejoin="bevel" stroke-miterlimit="10" stroke-width="3">–1.6V</text><text fill="rgb(37,37,37)" stroke="none" font-family="geogebra-sans-serif, sans-serif" font-size="12px" font-style="normal" font-weight="normal" text-decoration="normal" x="258" y="510" text-anchor="start" dominant-baseline="alphabetic" fill-opacity="1">–1.6V</text><text fill="rgb(37,37,37)" stroke="none" font-family="geogebra-sans-serif, sans-serif" font-size="12px" font-style="normal" font-weight="normal" text-decoration="normal" x="319" y="510" text-anchor="start" dominant-baseline="alphabetic" fill-opacity="1">–1.4V</text><text fill="none" stroke="rgb(255,255,255)" font-family="geogebra-sans-serif, sans-serif" font-size="12px" font-style="normal" font-weight="normal" text-decoration="normal" x="319" y="510" text-anchor="start" dominant-baseline="alphabetic" stroke-opacity="1" stroke-linejoin="bevel" stroke-miterlimit="10" stroke-width="3">–1.4V</text><text fill="rgb(37,37,37)" stroke="none" font-family="geogebra-sans-serif, sans-serif" font-size="12px" font-style="normal" font-weight="normal" text-decoration="normal" x="319" y="510" text-anchor="start" dominant-baseline="alphabetic" fill-opacity="1">–1.4V</text><text fill="rgb(37,37,37)" stroke="none" font-family="geogebra-sans-serif, sans-serif" font-size="12px" font-style="normal" font-weight="normal" text-decoration="normal" x="380" y="510" text-anchor="start" dominant-baseline="alphabetic" fill-opacity="1">–1.2V</text><text fill="none" stroke="rgb(255,255,255)" font-family="geogebra-sans-serif, sans-serif" font-size="12px" font-style="normal" font-weight="normal" text-decoration="normal" x="380" y="510" text-anchor="start" dominant-baseline="alphabetic" stroke-opacity="1" stroke-linejoin="bevel" stroke-miterlimit="10" stroke-width="3">–1.2V</text><text fill="rgb(37,37,37)" stroke="none" font-family="geogebra-sans-serif, sans-serif" font-size="12px" font-style="normal" font-weight="normal" text-decoration="normal" x="380" y="510" text-anchor="start" dominant-baseline="alphabetic" fill-opacity="1">–1.2V</text><text fill="rgb(37,37,37)" stroke="none" font-family="geogebra-sans-serif, sans-serif" font-size="12px" font-style="normal" font-weight="normal" text-decoration="normal" x="446" y="510" text-anchor="start" dominant-baseline="alphabetic" fill-opacity="1">–1V</text><text fill="none" stroke="rgb(255,255,255)" font-family="geogebra-sans-serif, sans-serif" font-size="12px" font-style="normal" font-weight="normal" text-decoration="normal" x="446" y="510" text-anchor="start" dominant-baseline="alphabetic" stroke-opacity="1" stroke-linejoin="bevel" stroke-miterlimit="10" stroke-width="3">–1V</text><text fill="rgb(37,37,37)" stroke="none" font-family="geogebra-sans-serif, sans-serif" font-size="12px" font-style="normal" font-weight="normal" text-decoration="normal" x="446" y="510" text-anchor="start" dominant-baseline="alphabetic" fill-opacity="1">–1V</text><text fill="rgb(37,37,37)" stroke="none" font-family="geogebra-sans-serif, sans-serif" font-size="12px" font-style="normal" font-weight="normal" text-decoration="normal" x="501" y="510" text-anchor="start" dominant-baseline="alphabetic" fill-opacity="1">–0.8V</text><text fill="none" stroke="rgb(255,255,255)" font-family="geogebra-sans-serif, sans-serif" font-size="12px" font-style="normal" font-weight="normal" text-decoration="normal" x="501" y="510" text-anchor="start" dominant-baseline="alphabetic" stroke-opacity="1" stroke-linejoin="bevel" stroke-miterlimit="10" stroke-width="3">–0.8V</text><text fill="rgb(37,37,37)" stroke="none" font-family="geogebra-sans-serif, sans-serif" font-size="12px" font-style="normal" font-weight="normal" text-decoration="normal" x="501" y="510" text-anchor="start" dominant-baseline="alphabetic" fill-opacity="1">–0.8V</text><text fill="rgb(37,37,37)" stroke="none" font-family="geogebra-sans-serif, sans-serif" font-size="12px" font-style="normal" font-weight="normal" text-decoration="normal" x="562" y="510" text-anchor="start" dominant-baseline="alphabetic" fill-opacity="1">–0.6V</text><text fill="none" stroke="rgb(255,255,255)" font-family="geogebra-sans-serif, sans-serif" font-size="12px" font-style="normal" font-weight="normal" text-decoration="normal" x="562" y="510" text-anchor="start" dominant-baseline="alphabetic" stroke-opacity="1" stroke-linejoin="bevel" stroke-miterlimit="10" stroke-width="3">–0.6V</text><text fill="rgb(37,37,37)" stroke="none" font-family="geogebra-sans-serif, sans-serif" font-size="12px" font-style="normal" font-weight="normal" text-decoration="normal" x="562" y="510" text-anchor="start" dominant-baseline="alphabetic" fill-opacity="1">–0.6V</text><text fill="rgb(37,37,37)" stroke="none" font-family="geogebra-sans-serif, sans-serif" font-size="12px" font-style="normal" font-weight="normal" text-decoration="normal" x="622" y="510" text-anchor="start" dominant-baseline="alphabetic" fill-opacity="1">–0.4V</text><text fill="none" stroke="rgb(255,255,255)" font-family="geogebra-sans-serif, sans-serif" font-size="12px" font-style="normal" font-weight="normal" text-decoration="normal" x="622" y="510" text-anchor="start" dominant-baseline="alphabetic" stroke-opacity="1" stroke-linejoin="bevel" stroke-miterlimit="10" stroke-width="3">–0.4V</text><text fill="rgb(37,37,37)" stroke="none" font-family="geogebra-sans-serif, sans-serif" font-size="12px" font-style="normal" font-weight="normal" text-decoration="normal" x="622" y="510" text-anchor="start" dominant-baseline="alphabetic" fill-opacity="1">–0.4V</text><text fill="rgb(37,37,37)" stroke="none" font-family="geogebra-sans-serif, sans-serif" font-size="12px" font-style="normal" font-weight="normal" text-decoration="normal" x="683" y="510" text-anchor="start" dominant-baseline="alphabetic" fill-opacity="1">–0.2V</text><text fill="none" stroke="rgb(255,255,255)" font-family="geogebra-sans-serif, sans-serif" font-size="12px" font-style="normal" font-weight="normal" text-decoration="normal" x="683" y="510" text-anchor="start" dominant-baseline="alphabetic" stroke-opacity="1" stroke-linejoin="bevel" stroke-miterlimit="10" stroke-width="3">–0.2V</text><text fill="rgb(37,37,37)" stroke="none" font-family="geogebra-sans-serif, sans-serif" font-size="12px" font-style="normal" font-weight="normal" text-decoration="normal" x="683" y="510" text-anchor="start" dominant-baseline="alphabetic" fill-opacity="1">–0.2V</text><text fill="rgb(37,37,37)" stroke="none" font-family="geogebra-sans-serif, sans-serif" font-size="12px" font-style="normal" font-weight="normal" text-decoration="normal" x="807" y="510" text-anchor="start" dominant-baseline="alphabetic" fill-opacity="1">0.2V</text><text fill="none" stroke="rgb(255,255,255)" font-family="geogebra-sans-serif, sans-serif" font-size="12px" font-style="normal" font-weight="normal" text-decoration="normal" x="807" y="510" text-anchor="start" dominant-baseline="alphabetic" stroke-opacity="1" stroke-linejoin="bevel" stroke-miterlimit="10" stroke-width="3">0.2V</text><text fill="rgb(37,37,37)" stroke="none" font-family="geogebra-sans-serif, sans-serif" font-size="12px" font-style="normal" font-weight="normal" text-decoration="normal" x="807" y="510" text-anchor="start" dominant-baseline="alphabetic" fill-opacity="1">0.2V</text><text fill="rgb(37,37,37)" stroke="none" font-family="geogebra-sans-serif, sans-serif" font-size="12px" font-style="normal" font-weight="normal" text-decoration="normal" x="868" y="510" text-anchor="start" dominant-baseline="alphabetic" fill-opacity="1">0.4V</text><text fill="none" stroke="rgb(255,255,255)" font-family="geogebra-sans-serif, sans-serif" font-size="12px" font-style="normal" font-weight="normal" text-decoration="normal" x="868" y="510" text-anchor="start" dominant-baseline="alphabetic" stroke-opacity="1" stroke-linejoin="bevel" stroke-miterlimit="10" stroke-width="3">0.4V</text><text fill="rgb(37,37,37)" stroke="none" font-family="geogebra-sans-serif, sans-serif" font-size="12px" font-style="normal" font-weight="normal" text-decoration="normal" x="868" y="510" text-anchor="start" dominant-baseline="alphabetic" fill-opacity="1">0.4V</text><text fill="rgb(37,37,37)" stroke="none" font-family="geogebra-sans-serif, sans-serif" font-size="16px" font-style="normal" font-weight="normal" text-decoration="normal" x="763" y="17" text-anchor="start" dominant-baseline="alphabetic" fill-opacity="1">Id</text><text fill="rgb(37,37,37)" stroke="none" font-family="geogebra-sans-serif, sans-serif" font-size="12px" font-style="normal" font-weight="normal" text-decoration="normal" x="713" y="417" text-anchor="start" dominant-baseline="alphabetic" fill-opacity="1">0.001A</text><text fill="none" stroke="rgb(255,255,255)" font-family="geogebra-sans-serif, sans-serif" font-size="12px" font-style="normal" font-weight="normal" text-decoration="normal" x="713" y="417" text-anchor="start" dominant-baseline="alphabetic" stroke-opacity="1" stroke-linejoin="bevel" stroke-miterlimit="10" stroke-width="3">0.001A</text><text fill="rgb(37,37,37)" stroke="none" font-family="geogebra-sans-serif, sans-serif" font-size="12px" font-style="normal" font-weight="normal" text-decoration="normal" x="713" y="417" text-anchor="start" dominant-baseline="alphabetic" fill-opacity="1">0.001A</text><text fill="rgb(37,37,37)" stroke="none" font-family="geogebra-sans-serif, sans-serif" font-size="12px" font-style="normal" font-weight="normal" text-decoration="normal" x="713" y="334" text-anchor="start" dominant-baseline="alphabetic" fill-opacity="1">0.002A</text><text fill="none" stroke="rgb(255,255,255)" font-family="geogebra-sans-serif, sans-serif" font-size="12px" font-style="normal" font-weight="normal" text-decoration="normal" x="713" y="334" text-anchor="start" dominant-baseline="alphabetic" stroke-opacity="1" stroke-linejoin="bevel" stroke-miterlimit="10" stroke-width="3">0.002A</text><text fill="rgb(37,37,37)" stroke="none" font-family="geogebra-sans-serif, sans-serif" font-size="12px" font-style="normal" font-weight="normal" text-decoration="normal" x="713" y="334" text-anchor="start" dominant-baseline="alphabetic" fill-opacity="1">0.002A</text><text fill="rgb(37,37,37)" stroke="none" font-family="geogebra-sans-serif, sans-serif" font-size="12px" font-style="normal" font-weight="normal" text-decoration="normal" x="713" y="252" text-anchor="start" dominant-baseline="alphabetic" fill-opacity="1">0.003A</text><text fill="none" stroke="rgb(255,255,255)" font-family="geogebra-sans-serif, sans-serif" font-size="12px" font-style="normal" font-weight="normal" text-decoration="normal" x="713" y="252" text-anchor="start" dominant-baseline="alphabetic" stroke-opacity="1" stroke-linejoin="bevel" stroke-miterlimit="10" stroke-width="3">0.003A</text><text fill="rgb(37,37,37)" stroke="none" font-family="geogebra-sans-serif, sans-serif" font-size="12px" font-style="normal" font-weight="normal" text-decoration="normal" x="713" y="252" text-anchor="start" dominant-baseline="alphabetic" fill-opacity="1">0.003A</text><text fill="rgb(37,37,37)" stroke="none" font-family="geogebra-sans-serif, sans-serif" font-size="12px" font-style="normal" font-weight="normal" text-decoration="normal" x="713" y="169" text-anchor="start" dominant-baseline="alphabetic" fill-opacity="1">0.004A</text><text fill="none" stroke="rgb(255,255,255)" font-family="geogebra-sans-serif, sans-serif" font-size="12px" font-style="normal" font-weight="normal" text-decoration="normal" x="713" y="169" text-anchor="start" dominant-baseline="alphabetic" stroke-opacity="1" stroke-linejoin="bevel" stroke-miterlimit="10" stroke-width="3">0.004A</text><text fill="rgb(37,37,37)" stroke="none" font-family="geogebra-sans-serif, sans-serif" font-size="12px" font-style="normal" font-weight="normal" text-decoration="normal" x="713" y="169" text-anchor="start" dominant-baseline="alphabetic" fill-opacity="1">0.004A</text><text fill="rgb(37,37,37)" stroke="none" font-family="geogebra-sans-serif, sans-serif" font-size="12px" font-style="normal" font-weight="normal" text-decoration="normal" x="713" y="87" text-anchor="start" dominant-baseline="alphabetic" fill-opacity="1">0.005A</text><text fill="none" stroke="rgb(255,255,255)" font-family="geogebra-sans-serif, sans-serif" font-size="12px" font-style="normal" font-weight="normal" text-decoration="normal" x="713" y="87" text-anchor="start" dominant-baseline="alphabetic" stroke-opacity="1" stroke-linejoin="bevel" stroke-miterlimit="10" stroke-width="3">0.005A</text><text fill="rgb(37,37,37)" stroke="none" font-family="geogebra-sans-serif, sans-serif" font-size="12px" font-style="normal" font-weight="normal" text-decoration="normal" x="713" y="87" text-anchor="start" dominant-baseline="alphabetic" fill-opacity="1">0.005A</text><text fill="rgb(37,37,37)" stroke="none" font-family="geogebra-sans-serif, sans-serif" font-size="12px" font-style="normal" font-weight="normal" text-decoration="normal" x="736" y="510" text-anchor="start" dominant-baseline="alphabetic" fill-opacity="1">0V</text><text fill="none" stroke="rgb(255,255,255)" font-family="geogebra-sans-serif, sans-serif" font-size="12px" font-style="normal" font-weight="normal" text-decoration="normal" x="736" y="510" text-anchor="start" dominant-baseline="alphabetic" stroke-opacity="1" stroke-linejoin="bevel" stroke-miterlimit="10" stroke-width="3">0V</text><text fill="rgb(37,37,37)" stroke="none" font-family="geogebra-sans-serif, sans-serif" font-size="12px" font-style="normal" font-weight="normal" text-decoration="normal" x="736" y="510" text-anchor="start" dominant-baseline="alphabetic" fill-opacity="1">0V</text><path fill="none" stroke="rgb(211,47,47)" paint-order="fill stroke markers" d=" M 151.66666363333343 494.57142857142856 L 152.8515625 494.5701708112444 M 152.8515625 494.5701708112444 L 156.40625 494.5513044084821 M 156.40625 494.5513044084821 L 159.9609375 494.5097983224051 L 163.515625 494.44565255301336 L 167.0703125 494.3588671003069 L 170.625 494.2494419642857 M 170.625 494.2494419642857 L 174.1796875 494.1173771449498 L 177.734375 493.9626726422991 L 181.2890625 493.7853284563337 L 184.84375 493.58534458705356 L 188.3984375 493.3627210344587 L 191.953125 493.1174577985491 L 195.5078125 492.8495548793248 L 199.0625 492.5590122767857 L 202.6171875 492.2458299909319 L 206.171875 491.91000802176336 L 209.7265625 491.5515463692801 L 213.28125 491.1704450334821 L 216.8359375 490.7667040143694 L 220.390625 490.340323311942 L 223.9453125 489.8913029261998 L 227.5 489.41964285714283 M 227.5 489.41964285714283 L 231.0546875 488.9253431047712 L 234.609375 488.4084036690848 L 238.1640625 487.8688245500837 L 241.71875 487.30660574776783 L 245.2734375 486.7217472621373 L 248.82812499999994 486.114249093192 L 252.38281249999994 485.4841112409319 L 255.93749999999994 484.8313337053571 L 259.49218749999994 484.1559164864676 L 263.04687499999994 483.45785958426336 L 266.60156249999994 482.7371629987444 L 270.15624999999994 481.9938267299107 L 273.71093749999994 481.2278507777623 L 277.26562499999994 480.4392351422991 L 280.82031249999994 479.6279798235212 L 284.37499999999994 478.79408482142856 L 287.92968749999994 477.9375501360212 L 291.48437499999994 477.0583757672991 L 295.03906249999994 476.1565617152623 L 298.59374999999994 475.2321079799107 L 302.14843749999994 474.2850145612444 L 305.70312499999994 473.31528145926336 L 309.25781249999994 472.3229086739676 L 312.81249999999994 471.3078962053571 L 316.36718749999994 470.2702440534319 L 319.92187499999994 469.209952218192 L 323.47656249999994 468.1270206996373 L 327.03124999999994 467.02144949776783 L 330.58593749999994 465.8932386125837 L 334.14062499999994 464.7423880440848 L 337.69531249999994 463.5688977922712 L 341.24999999999994 462.37276785714283 L 344.80468749999994 461.1539982386998 L 348.35937499999994 459.912588936942 L 351.91406249999994 458.6485399518694 L 355.46874999999994 457.3618512834821 L 359.02343749999994 456.0525229317801 L 362.57812499999994 454.72055489676336 L 366.13281249999994 453.3659471784319 L 369.68749999999994 451.9886997767857 L 373.24218749999994 450.5888126918248 L 376.79687499999994 449.1662859235491 L 380.35156249999994 447.7211194719587 L 383.90624999999994 446.25331333705356 L 387.46093749999994 444.7628675188337 L 391.01562499999994 443.2497820172991 L 394.57031249999994 441.7140568324498 L 398.12499999999994 440.1556919642857 L 401.67968749999994 438.5746874128069 L 405.23437499999994 436.97104317801336 L 408.78906249999994 435.3447592599051 L 412.34374999999994 433.6958356584821 L 415.89843749999994 432.0242723737444 L 419.45312499999994 430.330069405692 L 423.00781249999994 428.6132267543248 L 426.56249999999994 426.87374441964283 L 430.11718749999994 425.1116224016462 L 433.67187499999994 423.3268607003348 L 437.22656249999994 421.5194593157087 L 440.78124999999994 419.68941824776783 L 444.33593749999994 417.8367374965123 L 447.89062499999994 415.961417061942 L 451.44531249999994 414.0634569440569 L 454.99999999999994 412.1428571428571 M 454.99999999999994 412.1428571428571 L 458.55468749999994 410.1996176583426 L 462.10937499999994 408.23373849051336 L 465.66406249999994 406.2452196393694 L 469.21874999999994 404.2340611049107 L 472.77343749999994 402.2002628871373 L 476.32812499999994 400.1438249860491 L 479.88281249999994 398.0647474016462 L 483.43749999999994 395.96303013392856 L 486.99218749999994 393.8386731828962 L 490.54687499999994 391.6916765485491 L 494.10156249999994 389.5220402308873 L 497.65624999999994 387.3297642299107 L 501.21093749999994 385.1148485456194 L 504.76562499999994 382.87729317801336 L 508.32031249999994 380.6170981270926 L 511.87499999999994 378.3342633928571 L 515.4296875 376.02878897530695 L 518.984375 373.7006748744419 L 522.5390625 371.3499210902622 L 526.09375 368.97652762276783 L 529.6484375 366.5804944719587 L 533.203125 364.1618216378348 L 536.7578125 361.7205091203962 L 540.3125 359.2565569196429 L 543.8671875 356.7699650355747 L 547.421875 354.260733468192 L 550.9765625 351.72886221749445 L 554.53125 349.1743512834821 L 558.0859375 346.5972006661551 L 561.640625 343.99741036551336 L 565.1953125 341.37498038155695 L 568.75 338.7299107142857 L 572.3046875 336.0622013636997 L 575.859375 333.3718523297991 L 579.4140625 330.6588636125837 L 582.96875 327.92323521205356 L 586.5234375 325.1649671282087 L 590.078125 322.38405936104914 L 593.6328125 319.5805119105748 L 597.1875 316.7543247767857 L 600.7421875 313.90549795968195 L 604.296875 311.03403145926336 L 607.8515625 308.1399252755301 L 611.40625 305.2231794084821 L 614.9609375 302.28379385811945 L 618.515625 299.321768624442 L 622.0703125 296.3371037074497 L 625.625 293.3297991071429 L 629.1796875 290.29985482352123 L 632.7343749999999 287.2472708565848 L 636.2890624999999 284.1720472063337 L 639.8437499999999 281.0741838727679 L 643.3984374999999 277.9536808558873 L 646.9531249999999 274.810538155692 L 650.5078124999999 271.6447557721819 L 654.0624999999999 268.4563337053571 L 657.6171874999999 265.2452719552176 L 661.1718749999999 262.01157052176336 L 664.7265624999999 258.75522940499445 L 668.2812499999999 255.47624860491072 L 671.8359374999999 252.17462812151228 L 675.3906249999999 248.8503679547991 L 678.9453124999999 245.5034681047712 L 682.4999999999999 242.13392857142858 M 682.4999999999999 242.13392857142858 L 686.0546874999999 238.7417493547712 L 689.6093749999999 235.32693045479908 L 693.1640624999999 231.88947187151228 L 696.7187499999999 228.42937360491072 L 700.2734374999999 224.94663565499445 L 703.8281249999999 221.44125802176342 L 707.3828124999999 217.91324070521762 L 710.9374999999999 214.36258370535717 L 714.4921874999999 210.78928702218195 L 718.0468749999999 207.19335065569197 L 721.6015624999999 203.57477460588728 L 725.1562499999999 199.9335588727679 L 728.7109374999999 196.26970345633373 L 732.2656249999999 192.58320835658486 L 735.8203124999999 188.87407357352123 L 739.3749999999999 185.1422991071429 M 739.3749999999999 185.1422991071429 L 742.9296874999999 181.38788495744978 L 746.4843749999999 177.61083112444197 L 750.0390624999999 173.81113760811945 L 753.5937499999999 169.9888044084821 M 753.5937499999999 169.9888044084821 L 757.1484374999999 166.14383152553017 M 757.1484374999999 166.14383152553017 L 758.3333303 164.85714615428572" stroke-opacity="0.8" stroke-linecap="round" stroke-linejoin="round" stroke-miterlimit="10" stroke-width="2.5"/><path fill="none" stroke="rgb(97,97,97)" paint-order="fill stroke markers" d=" M 151.66666363333343 219.80952243571437 L 152.8515625 220.34616815476193 M 152.8515625 220.34616815476193 L 156.40625 221.9561011904762 M 156.40625 221.9561011904762 L 159.9609375 223.56603422619048 L 163.515625 225.17596726190476 L 167.0703125 226.78590029761904 L 170.625 228.39583333333337 M 170.625 228.39583333333337 L 174.1796875 230.00576636904765 L 177.734375 231.61569940476193 L 181.2890625 233.2256324404762 L 184.84375 234.83556547619048 L 188.3984375 236.44549851190476 L 191.953125 238.0554315476191 L 195.5078125 239.66536458333334 L 199.0625 241.27529761904765 L 202.6171875 242.88523065476193 L 206.171875 244.4951636904762 L 209.7265625 246.1050967261905 L 213.28125 247.71502976190476 L 216.8359375 249.32496279761904 L 220.390625 250.93489583333331 L 223.9453125 252.54482886904762 L 227.5 254.1547619047619 M 227.5 254.1547619047619 L 231.0546875 255.76469494047618 L 234.609375 257.3746279761905 L 238.1640625 258.98456101190476 L 241.71875 260.59449404761904 L 245.2734375 262.20442708333337 L 248.82812499999994 263.8143601190476 L 252.38281249999994 265.4242931547619 L 255.93749999999994 267.0342261904762 L 259.49218749999994 268.6441592261905 L 263.04687499999994 270.25409226190476 L 266.60156249999994 271.86402529761904 L 270.15624999999994 273.47395833333337 L 273.71093749999994 275.0838913690476 L 277.26562499999994 276.6938244047619 L 280.82031249999994 278.3037574404762 L 284.37499999999994 279.9136904761905 L 287.92968749999994 281.5236235119048 L 291.48437499999994 283.13355654761904 L 295.03906249999994 284.74348958333337 L 298.59374999999994 286.35342261904765 L 302.14843749999994 287.9633556547619 L 305.70312499999994 289.57328869047615 L 309.25781249999994 291.1832217261905 L 312.81249999999994 292.79315476190476 L 316.36718749999994 294.40308779761904 L 319.92187499999994 296.0130208333333 L 323.47656249999994 297.6229538690476 L 327.03124999999994 299.2328869047619 L 330.58593749999994 300.84281994047615 L 334.14062499999994 302.4527529761905 L 337.69531249999994 304.06268601190476 L 341.24999999999994 305.67261904761904 L 344.80468749999994 307.28255208333337 L 348.35937499999994 308.8924851190476 L 351.91406249999994 310.5024181547619 L 355.46874999999994 312.1123511904762 L 359.02343749999994 313.7222842261905 L 362.57812499999994 315.33221726190476 L 366.13281249999994 316.94215029761904 L 369.68749999999994 318.55208333333337 L 373.24218749999994 320.1620163690476 L 376.79687499999994 321.7719494047619 L 380.35156249999994 323.3818824404762 L 383.90624999999994 324.9918154761905 L 387.46093749999994 326.6017485119048 L 391.01562499999994 328.21168154761904 L 394.57031249999994 329.8216145833333 L 398.12499999999994 331.4315476190476 L 401.67968749999994 333.0414806547619 L 405.23437499999994 334.6514136904762 L 408.78906249999994 336.2613467261905 L 412.34374999999994 337.87127976190476 L 415.89843749999994 339.48121279761904 L 419.45312499999994 341.0911458333333 L 423.00781249999994 342.7010788690476 L 426.56249999999994 344.3110119047619 L 430.11718749999994 345.92094494047615 L 433.67187499999994 347.5308779761905 L 437.22656249999994 349.14081101190476 L 440.78124999999994 350.75074404761904 L 444.33593749999994 352.36067708333337 L 447.89062499999994 353.9706101190476 L 451.44531249999994 355.5805431547619 L 454.99999999999994 357.19047619047615 M 454.99999999999994 357.19047619047615 L 458.55468749999994 358.8004092261905 L 462.10937499999994 360.41034226190476 L 465.66406249999994 362.02027529761904 L 469.21874999999994 363.6302083333333 L 472.77343749999994 365.2401413690476 L 476.32812499999994 366.8500744047619 L 479.88281249999994 368.4600074404762 L 483.43749999999994 370.0699404761905 L 486.99218749999994 371.67987351190476 L 490.54687499999994 373.28980654761904 L 494.10156249999994 374.89973958333337 L 497.65624999999994 376.5096726190476 L 501.21093749999994 378.1196056547619 L 504.76562499999994 379.72953869047615 L 508.32031249999994 381.3394717261905 L 511.87499999999994 382.94940476190476 L 515.4296875 384.55933779761904 L 518.984375 386.1692708333333 L 522.5390625 387.7792038690476 L 526.09375 389.3891369047619 L 529.6484375 390.9990699404762 L 533.203125 392.6090029761905 L 536.7578125 394.21893601190476 L 540.3125 395.82886904761904 L 543.8671875 397.4388020833333 L 547.421875 399.0487351190476 L 550.9765625 400.6586681547619 L 554.53125 402.26860119047615 L 558.0859375 403.8785342261905 L 561.640625 405.48846726190476 L 565.1953125 407.09840029761904 L 568.75 408.7083333333333 L 572.3046875 410.3182663690476 L 575.859375 411.9281994047619 L 579.4140625 413.5381324404762 L 582.96875 415.1480654761905 L 586.5234375 416.75799851190476 L 590.078125 418.36793154761904 L 593.6328125 419.9778645833333 L 597.1875 421.5877976190476 L 600.7421875 423.1977306547619 L 604.296875 424.80766369047615 L 607.8515625 426.4175967261905 L 611.40625 428.02752976190476 L 614.9609375 429.63746279761904 L 618.515625 431.2473958333333 L 622.0703125 432.8573288690476 L 625.625 434.46726190476187 L 629.1796875 436.07719494047615 L 632.7343749999999 437.6871279761905 L 636.2890624999999 439.29706101190476 L 639.8437499999999 440.90699404761904 L 643.3984374999999 442.5169270833333 L 646.9531249999999 444.1268601190476 L 650.5078124999999 445.73679315476187 L 654.0624999999999 447.34672619047615 L 657.6171874999999 448.9566592261905 L 661.1718749999999 450.56659226190476 L 664.7265624999999 452.17652529761904 L 668.2812499999999 453.7864583333333 L 671.8359374999999 455.3963913690476 L 675.3906249999999 457.00632440476187 L 678.9453124999999 458.61625744047615 L 682.4999999999999 460.2261904761905 M 682.4999999999999 460.2261904761905 L 686.0546874999999 461.83612351190476 L 689.6093749999999 463.44605654761904 L 693.1640624999999 465.0559895833333 L 696.7187499999999 466.6659226190476 L 700.2734374999999 468.27585565476187 L 703.8281249999999 469.8857886904762 L 707.3828124999999 471.4957217261905 L 710.9374999999999 473.10565476190476 L 714.4921874999999 474.71558779761904 L 718.0468749999999 476.3255208333333 L 721.6015624999999 477.9354538690476 L 725.1562499999999 479.54538690476187 L 728.7109374999999 481.15531994047615 L 732.2656249999999 482.7652529761905 L 735.8203124999999 484.37518601190476 L 739.3749999999999 485.98511904761904 M 739.3749999999999 485.98511904761904 L 742.9296874999999 487.5950520833333 L 746.4843749999999 489.2049851190476 L 750.0390624999999 490.81491815476187 L 753.5937499999999 492.42485119047615 M 753.5937499999999 492.42485119047615 L 757.1484374999999 494.0347842261905 M 757.1484374999999 494.0347842261905 L 758.3333303 494.571427197619" stroke-opacity="0.8" stroke-linecap="round" stroke-linejoin="round" stroke-miterlimit="10" stroke-width="2.5"/><text fill="rgb(97,97,97)" stroke="none" font-family="geogebra-sans-serif, sans-serif" font-size="16px" font-style="normal" font-weight="normal" text-decoration="normal" x="152" y="220" text-anchor="start" dominant-baseline="alphabetic" fill-opacity="1">Recta de Carga Estatica</text><text fill="none" stroke="rgb(255,255,255)" font-family="geogebra-sans-serif, sans-serif" font-size="16px" font-style="normal" font-weight="normal" text-decoration="normal" x="152" y="220" text-anchor="start" dominant-baseline="alphabetic" stroke-opacity="1" stroke-linejoin="bevel" stroke-miterlimit="10" stroke-width="3">Recta de Carga Estatica</text><text fill="rgb(97,97,97)" stroke="none" font-family="geogebra-sans-serif, sans-serif" font-size="16px" font-style="normal" font-weight="normal" text-decoration="normal" x="152" y="220" text-anchor="start" dominant-baseline="alphabetic" fill-opacity="1">Recta de Carga Estatica</text></g></g></svg>