<?xml version="1.0" encoding="UTF-8" standalone="no"?>
<!-- Created with Inkscape (http://www.inkscape.org/) -->

<svg
   version="1.1"
   id="svg1"
   width="169.2"
   height="190.79999"
   viewBox="0 0 169.2 190.79998"
   xmlns="http://www.w3.org/2000/svg"
   xmlns:svg="http://www.w3.org/2000/svg">
  <defs
     id="defs1">
    <rect
       x="87.746742"
       y="5.5644274"
       width="29.619877"
       height="16.436462"
       id="rect1" />
    <rect
       x="87.746742"
       y="5.5644274"
       width="29.619877"
       height="16.436462"
       id="rect1-7" />
  </defs>
  <g
     id="g1"
     transform="translate(-118.8,-653.47471)">
    <path
       id="path99"
       d="M 89.1,208.794 H 216 v 143.1 H 89.1 Z"
       style="fill:#ffffff;fill-opacity:1;fill-rule:nonzero;stroke:none"
       transform="matrix(1.3333333,0,0,-1.3333333,0,1122.6667)" />
    <path
       id="path100"
       d="m 3.7854172,-4.0118275 c 0,-0.3186972 -0.1025391,-0.5526035 -0.3046875,-0.7017187 C 3.2756516,-4.8597376 2.9475266,-4.9357571 2.4963547,-4.9357571 H 1.6760422 v 1.9998984 h 0.8671875 c 0.421875,0 0.7324219,-0.081867 0.9375,-0.2456016 0.2021484,-0.169582 0.3046875,-0.4473457 0.3046875,-0.8303672 z m 0.3984375,2.5027969 c 0,-0.3654785 -0.1259766,-0.6344707 -0.375,-0.8069765 C 3.5569016,-2.4943607 3.1643234,-2.5849993 2.6252609,-2.5849993 H 1.6760422 v 2.23380466 c 0.3574219,0.017543 0.7441406,0.0233906 1.1601562,0.0233906 0.4511719,0 0.788086,-0.0935625 1.0078125,-0.2806875 0.225586,-0.19297265 0.3398438,-0.49412696 0.3398438,-0.90053906 z M 0.23463594,-3.3526562e-4 V -0.21085089 L 0.91432344,-0.3161087 V -4.9825384 L 0.23463594,-5.0877962 V -5.2866165 H 2.6486984 c 0.6708985,0 1.163086,0.09941 1.4765625,0.2923828 0.3105469,0.1958965 0.46875,0.5116699 0.46875,0.9473203 0,0.3128496 -0.099609,0.578918 -0.2929687,0.7952813 -0.1875,0.2192871 -0.4541016,0.3625546 -0.796875,0.4327265 0.4746094,0.055553 0.84375,0.1958965 1.1015625,0.4210313 0.2636719,0.2280586 0.3984375,0.5204414 0.3984375,0.8771484 0,0.5087461 -0.1757813,0.89469142 -0.5273438,1.15783595 -0.3515625,0.25729687 -0.8671875,0.38594531 -1.546875,0.38594531 l -1.6875,-0.0233906256 z M 7.0695969,-2.3744837 v 2.058375 l 0.8789062,0.10525781 V -3.3526562e-4 H 5.6750656 V -0.21085089 L 6.3078781,-0.3161087 V -4.9825384 L 5.6281906,-5.0877962 v -0.1988203 h 3.9726563 v 1.2630937 H 9.3430344 L 9.2141281,-4.8772806 C 8.9153,-4.9152903 8.4904953,-4.9357571 7.9367844,-4.9357571 H 7.0695969 v 2.210414 H 8.6281906 L 8.7453781,-3.35689 h 0.2460938 v 1.6256485 H 8.7453781 L 8.6281906,-2.3744837 Z M 13.485613,-3.3526562e-4 H 10.239519 V -0.58510089 L 10.9778,-1.2517337 c 0.46875,-0.4122598 0.811523,-0.7426523 1.03125,-0.9941016 0.225586,-0.2572968 0.386719,-0.5204414 0.480469,-0.7952812 0.09375,-0.271916 0.140625,-0.578918 0.140625,-0.9239297 0,-0.3420879 -0.0791,-0.6023086 -0.234375,-0.7835859 -0.149414,-0.1783536 -0.398438,-0.2689922 -0.75,-0.2689922 -0.140625,0 -0.28711,0.020467 -0.433594,0.058476 -0.149414,0.040934 -0.27832,0.090639 -0.386719,0.1520391 L 10.684831,-4.163867 H 10.4153 v -1.0174922 c 0.483398,-0.1169531 0.893555,-0.1754297 1.230469,-0.1754297 0.577148,0 1.010742,0.1228008 1.300781,0.3625547 0.287109,0.2426777 0.433594,0.5847656 0.433594,1.0291875 0,0.289459 -0.05859,0.5672227 -0.175781,0.8303672 -0.111329,0.2660683 -0.28711,0.526289 -0.527344,0.7835859 -0.234375,0.2572969 -0.626953,0.6198516 -1.171875,1.0876641 -0.234375,0.1958965 -0.486328,0.41518358 -0.75,0.65493748 h 2.730469 z M 17.130144,-1.1698665 V -3.3526562e-4 H 16.450456 V -1.1698665 h -2.367187 v -0.5145938 l 2.589844,-3.6372422 h 0.457031 v 3.590461 h 0.714844 v 0.561375 z m -0.679688,-3.2279063 h -0.02344 L 14.5403,-1.7312415 h 1.910156 z m 3.433594,1.2981797 c 0.615234,0 1.072266,0.1286485 1.371094,0.3859453 0.295898,0.2514493 0.445312,0.6286231 0.445312,1.1344453 0,0.5379844 -0.164062,0.95316802 -0.492187,1.23970317 -0.322266,0.2806875 -0.782227,0.42103125 -1.382813,0.42103125 -0.500976,0 -0.946289,-0.05847656 -1.335937,-0.17542969 l -0.04687,-1.11105473 h 0.257812 l 0.175782,0.74850005 c 0.117187,0.0643242 0.257812,0.11402929 0.421875,0.15203906 0.164062,0.0409336 0.319335,0.0584766 0.46875,0.0584766 0.413085,0 0.717773,-0.0964863 0.914062,-0.29238281 0.193359,-0.20174414 0.292969,-0.5321368 0.292969,-0.9941016 0,-0.3274688 -0.04395,-0.5730703 -0.128906,-0.7368047 -0.08789,-0.169582 -0.222657,-0.2953066 -0.410157,-0.37425 -0.18164,-0.07602 -0.421875,-0.1169531 -0.726562,-0.1169531 -0.243164,0 -0.477539,0.032162 -0.703125,0.093562 H 18.61843 v -2.61975 h 2.683594 v 0.5964609 h -2.320313 v 1.6958203 c 0.28125,-0.070172 0.580078,-0.1052578 0.902344,-0.1052578 z m 3.949219,2.88874221 V -3.3526562e-4 H 22.098894 V -0.21085089 l 0.597656,-0.10525781 1.804688,-5.0172891 h 0.75 l 1.875,5.0172891 0.667968,0.10525781 V -3.3526562e-4 H 25.555925 V -0.21085089 l 0.714844,-0.10525781 -0.527344,-1.5320859 h -2.085937 l -0.527344,1.5320859 z m 0.855469,-4.56117191 -0.914063,2.5729688 h 1.851563 z m 0,0"
       style="fill:#000000;fill-opacity:1;fill-rule:nonzero;stroke:none"
       aria-label="BF245A"
       transform="matrix(1.3333333,0,0,1.3360053,184.86293,711.07467)" />
    <path
       id="path101"
       d="m 144.45,303.294 v -37.8 m 0.9,-17.1 v -16.2 m -36.45,24.75 h 14.4 m -13.95,0.45 v -11.7 m -0.9,-8.1 v -9.9 m 36.9,108 v -15.3"
       style="fill:none;stroke:#000000;stroke-width:0.9;stroke-linecap:butt;stroke-linejoin:miter;stroke-miterlimit:10;stroke-dasharray:none;stroke-opacity:1"
       transform="matrix(1.3333333,0,0,-1.3333333,0,1122.6667)" />
    <path
       id="path102"
       d="m 135,335.694 h 18"
       style="fill:none;stroke:#000000;stroke-width:1.8;stroke-linecap:butt;stroke-linejoin:miter;stroke-miterlimit:10;stroke-dasharray:none;stroke-opacity:1"
       transform="matrix(1.3333333,0,0,-1.3333333,0,1122.6667)" />
    <path
       id="path104"
       d="m 3.7839734,-4.0124122 c 0,-0.3186973 -0.102539,-0.5526035 -0.3046875,-0.7017188 C 3.2742078,-4.8603224 2.9460828,-4.9363419 2.4949109,-4.9363419 H 1.6745984 v 1.9998984 h 0.8671875 c 0.421875,0 0.7324219,-0.081867 0.9375,-0.2456015 0.2021485,-0.1695821 0.3046875,-0.4473457 0.3046875,-0.8303672 z m 0.3984375,2.5027969 c 0,-0.3654786 -0.1259765,-0.6344707 -0.375,-0.8069766 C 3.5554578,-2.4949454 3.1628797,-2.5855841 2.6238172,-2.5855841 H 1.6745984 v 2.23380469 c 0.3574219,0.017543 0.7441407,0.0233906 1.1601563,0.0233906 0.4511719,0 0.7880859,-0.0935625 1.0078125,-0.2806875 C 4.0681531,-0.80204894 4.1824109,-1.1032032 4.1824109,-1.5096153 Z M 0.23319219,-9.2003125e-4 V -0.21143566 l 0.6796875,-0.10525781 V -4.9831232 L 0.23319219,-5.088381 V -5.2872013 H 2.6472547 c 0.6708984,0 1.1630859,0.09941 1.4765625,0.2923828 0.3105469,0.1958965 0.46875,0.51167 0.46875,0.9473203 0,0.3128497 -0.099609,0.578918 -0.2929688,0.7952813 -0.1875,0.2192871 -0.4541015,0.3625547 -0.796875,0.4327266 0.4746094,0.055553 0.84375,0.1958964 1.1015625,0.4210312 0.2636719,0.2280586 0.3984375,0.5204414 0.3984375,0.8771484 0,0.5087461 -0.1757812,0.89469145 -0.5273437,1.15783598 -0.3515625,0.25729688 -0.8671875,0.38594531 -1.546875,0.38594531 l -1.6875,-0.0233906212 z M 7.0681531,-2.3750685 v 2.05837503 l 0.8789063,0.10525781 V -9.2003125e-4 H 5.6736219 V -0.21143566 L 6.3064344,-0.31669347 V -4.9831232 L 5.6267469,-5.088381 v -0.1988203 h 3.9726562 v 1.2630938 H 9.3415906 L 9.2126844,-4.8778653 c -0.2988281,-0.03801 -0.7236328,-0.058477 -1.2773438,-0.058477 H 7.0681531 v 2.2104141 h 1.5585938 l 0.1171875,-0.6315469 h 0.2460937 v 1.6256484 H 8.7439344 L 8.6267469,-2.3750685 Z M 13.487098,-9.2003125e-4 H 10.241005 V -0.58568566 l 0.738281,-0.66663284 c 0.46875,-0.4122597 0.811523,-0.7426523 1.03125,-0.9941015 0.225586,-0.2572969 0.386719,-0.5204414 0.480469,-0.7952813 0.09375,-0.271916 0.140625,-0.578918 0.140625,-0.9239297 0,-0.3420879 -0.0791,-0.6023086 -0.234375,-0.7835859 -0.149414,-0.1783535 -0.398438,-0.2689922 -0.75,-0.2689922 -0.140625,0 -0.28711,0.020467 -0.433594,0.058477 -0.149414,0.040934 -0.27832,0.090639 -0.386719,0.152039 l -0.140625,0.6432422 h -0.269531 v -1.0174922 c 0.483398,-0.1169531 0.893555,-0.1754297 1.230469,-0.1754297 0.577148,0 1.010742,0.1228008 1.300781,0.3625547 0.287109,0.2426778 0.433594,0.5847657 0.433594,1.0291875 0,0.289459 -0.05859,0.5672227 -0.175782,0.8303672 -0.111328,0.2660684 -0.287109,0.5262891 -0.527343,0.783586 -0.234375,0.2572968 -0.626953,0.6198515 -1.171875,1.087664 -0.234375,0.1958965 -0.486328,0.41518361 -0.75,0.65493752 h 2.730468 z M 17.1287,-1.1704513 V -9.2003125e-4 H 16.449013 V -1.1704513 H 14.081825 V -1.685045 l 2.589844,-3.6372422 H 17.1287 v 3.5904609 h 0.714844 v 0.561375 z m -0.679687,-3.2279062 h -0.02344 l -1.886719,2.6665312 h 1.910157 z m 3.433593,1.2981797 c 0.615235,0 1.072266,0.1286484 1.371094,0.3859453 0.295898,0.2514492 0.445313,0.628623 0.445313,1.1344453 0,0.5379844 -0.164063,0.95316795 -0.492188,1.23970311 -0.322266,0.2806875 -0.782227,0.42103125 -1.382812,0.42103125 -0.500977,0 -0.94629,-0.05847657 -1.335938,-0.17542969 L 18.4412,-1.2055372 h 0.257813 l 0.175781,0.74849998 c 0.117187,0.0643242 0.257812,0.1140293 0.421875,0.15203906 0.164062,0.0409336 0.319336,0.0584766 0.46875,0.0584766 0.413086,0 0.717773,-0.0964863 0.914062,-0.29238282 0.19336,-0.20174414 0.292969,-0.53213672 0.292969,-0.99410162 0,-0.3274687 -0.04394,-0.5730703 -0.128906,-0.7368047 -0.08789,-0.169582 -0.222656,-0.2953066 -0.410156,-0.37425 -0.181641,-0.07602 -0.421875,-0.1169531 -0.726563,-0.1169531 -0.243164,0 -0.477539,0.032162 -0.703125,0.093562 h -0.386719 v -2.61975 h 2.683594 v 0.596461 H 18.980263 V -2.99492 c 0.28125,-0.070172 0.580078,-0.1052578 0.902343,-0.1052578 z m 3.949219,2.88874214 V -9.2003125e-4 H 22.09745 V -0.21143566 l 0.597656,-0.10525781 1.804688,-5.01728903 h 0.75 l 1.875,5.01728903 0.667969,0.10525781 V -9.2003125e-4 H 25.554481 V -0.21143566 L 26.269325,-0.31669347 25.741981,-1.8487794 H 23.656044 L 23.1287,-0.31669347 Z m 0.855469,-4.56117184 -0.914063,2.5729687 h 1.851563 z m 0,0"
       style="fill:#000000;fill-opacity:1;fill-rule:nonzero;stroke:none"
       aria-label="BF245A"
       transform="matrix(1.3333333,0,0,1.3360053,183.66173,784.27467)" />
    <path
       id="path105"
       d="m 118.8,285.744 h 27 m -27.45,25.65 v -26.1"
       style="fill:none;stroke:#000000;stroke-width:0.9;stroke-linecap:butt;stroke-linejoin:miter;stroke-miterlimit:10;stroke-dasharray:none;stroke-opacity:1"
       transform="matrix(1.3333333,0,0,-1.3333333,0,1122.6667)" />
    <path
       id="path106"
       d="m 99.9,228.594 h 18"
       style="fill:none;stroke:#000000;stroke-width:1.8;stroke-linecap:butt;stroke-linejoin:miter;stroke-miterlimit:10;stroke-dasharray:none;stroke-opacity:1"
       transform="matrix(1.3333333,0,0,-1.3333333,0,1122.6667)" />
    <path
       id="path107"
       d="M 6.3880594,-5.8836622 V -5.649756 L 5.7435281,-5.5328028 3.3763406,0.13942372 H 3.1536844 L 0.76305938,-5.5328028 0.10680938,-5.649756 V -5.8836622 H 2.4739969 v 0.2339062 l -0.7851563,0.1169532 1.78125,4.3272656 L 5.2396219,-5.5328028 4.4779031,-5.649756 V -5.8836622 Z M 11.928098,2.3907714 C 11.591184,2.5018768 11.239622,2.5954393 10.873411,2.6714589 10.50427,2.7474784 10.111692,2.788412 9.6898172,2.788412 c -0.9462891,0 -1.6875,-0.2572969 -2.2265625,-0.7718906 C 6.9300516,1.49608 6.6663797,0.76219911 6.6663797,-0.18219737 c 0,-1.02918753 0.2578125,-1.79523043 0.7734375,-2.30397653 0.515625,-0.5145938 1.2714844,-0.7718907 2.2734375,-0.7718907 0.7089843,0 1.3974613,0.090639 2.0625003,0.2689922 v 1.2630938 H 11.482786 L 11.365598,-2.451088 c -0.205078,-0.1461914 -0.445312,-0.2602207 -0.726562,-0.3391641 -0.28125,-0.07602 -0.580078,-0.1169531 -0.8906251,-0.1169531 -0.75,0 -1.2978515,0.2280586 -1.640625,0.6783281 -0.3457031,0.4444219 -0.515625,1.1285977 -0.515625,2.04667973 0,0.85960546 0.1757813,1.51454297 0.5273438,1.96481247 0.3574219,0.4444219 0.8847656,0.6666328 1.5820312,0.6666328 0.2490235,0 0.5068361,-0.026314 0.7734371,-0.081867 0.263672,-0.0614 0.46875,-0.1344961 0.609375,-0.222211 V 0.47274013 l -0.75,-0.11695313 V 0.12188075 h 2.167969 V 0.355787 l -0.574219,0.11695313 z m 6.483399,0 c -0.336914,0.1111054 -0.688477,0.2046679 -1.054688,0.2806875 -0.36914,0.076019 -0.761718,0.1169531 -1.183593,0.1169531 -0.946289,0 -1.6875,-0.2572969 -2.226563,-0.7718906 C 13.41345,1.49608 13.149778,0.76219911 13.149778,-0.18219737 c 0,-1.02918753 0.257813,-1.79523043 0.773438,-2.30397653 0.515625,-0.5145938 1.271484,-0.7718907 2.273437,-0.7718907 0.708985,0 1.397461,0.090639 2.0625,0.2689922 v 1.2630938 H 17.966184 L 17.848997,-2.451088 c -0.205078,-0.1461914 -0.445313,-0.2602207 -0.726563,-0.3391641 -0.28125,-0.07602 -0.580078,-0.1169531 -0.890625,-0.1169531 -0.75,0 -1.297851,0.2280586 -1.640625,0.6783281 -0.345703,0.4444219 -0.515625,1.1285977 -0.515625,2.04667973 0,0.85960546 0.175782,1.51454297 0.527344,1.96481247 0.357422,0.4444219 0.884766,0.6666328 1.582031,0.6666328 0.249024,0 0.506836,-0.026314 0.773438,-0.081867 0.263672,-0.0614 0.46875,-0.1344961 0.609375,-0.222211 V 0.47274013 l -0.75,-0.11695313 V 0.12188075 h 2.167969 V 0.355787 l -0.574219,0.11695313 z m 0,0"
       style="fill:#000000;fill-opacity:1;fill-rule:nonzero;stroke:none"
       aria-label="V&#10;GG"
       transform="matrix(1.3333333,0,0,1.3360053,133.2404,832.27467)" />
    <path
       id="path108"
       d="m 133.2,326.694 v -28.8"
       style="fill:none;stroke:#000000;stroke-width:1.8;stroke-linecap:butt;stroke-linejoin:miter;stroke-miterlimit:10;stroke-dasharray:none;stroke-opacity:1"
       transform="matrix(1.3333333,0,0,-1.3333333,0,1122.6667)" />
    <path
       id="path109"
       d="m 132.3,312.294 -7.2,-3.6 -0.9,6.3 8.1,-2.7"
       style="fill:#000000;fill-opacity:1;fill-rule:evenodd;stroke:none"
       transform="matrix(1.3333333,0,0,-1.3333333,0,1122.6667)" />
    <path
       id="path110"
       d="m 117.9,311.844 h 7.2 m 8.1,9 h 12.15 m -11.25,-18 h 10.8"
       style="fill:none;stroke:#000000;stroke-width:0.9;stroke-linecap:butt;stroke-linejoin:miter;stroke-miterlimit:10;stroke-dasharray:none;stroke-opacity:1"
       transform="matrix(1.3333333,0,0,-1.3333333,0,1122.6667)" />
    <path
       id="path111"
       d="m 114.3,240.294 h 1.8 v -1.8 l -6.3,-2.7 H 108 v 1.8"
       style="fill:#000000;fill-opacity:1;fill-rule:nonzero;stroke:none"
       transform="matrix(1.3333333,0,0,-1.3333333,0,1122.6667)" />
    <path
       id="path112"
       d="m 100.8,243.894 h 1.8 l 13.5,-3.6 v -1.8 h -1.8 l -13.5,3.6"
       style="fill:#000000;fill-opacity:1;fill-rule:nonzero;stroke:none"
       transform="matrix(1.3333333,0,0,-1.3333333,0,1122.6667)" />
    <path
       id="path113"
       d="m 108,247.494 h 1.8 v -1.8 l -7.2,-3.6 h -1.8 v 1.8"
       style="fill:#000000;fill-opacity:1;fill-rule:nonzero;stroke:none"
       transform="matrix(1.3333333,0,0,-1.3333333,0,1122.6667)" />
    <path
       id="path114"
       d="m 134.1,271.794 v -27.9"
       style="fill:none;stroke:#000000;stroke-width:1.8;stroke-linecap:butt;stroke-linejoin:miter;stroke-miterlimit:10;stroke-dasharray:none;stroke-opacity:1"
       transform="matrix(1.3333333,0,0,-1.3333333,0,1122.6667)" />
    <path
       id="path115"
       d="m 132.3,257.394 -7.2,-3.6 0.9,7.2 6.3,-3.6"
       style="fill:#000000;fill-opacity:1;fill-rule:evenodd;stroke:none"
       transform="matrix(1.3333333,0,0,-1.3333333,0,1122.6667)" />
    <path
       id="path116"
       d="m 118.8,256.944 h 7.2 m 8.1,9 h 10.8 m -9.9,-17.1 h 10.8"
       style="fill:none;stroke:#000000;stroke-width:0.9;stroke-linecap:butt;stroke-linejoin:miter;stroke-miterlimit:10;stroke-dasharray:none;stroke-opacity:1"
       transform="matrix(1.3333333,0,0,-1.3333333,0,1122.6667)" />
    <path
       id="path117"
       d="m 134.1,232.194 h 21.6"
       style="fill:none;stroke:#000000;stroke-width:1.8;stroke-linecap:butt;stroke-linejoin:miter;stroke-miterlimit:10;stroke-dasharray:none;stroke-opacity:1"
       transform="matrix(1.3333333,0,0,-1.3333333,0,1122.6667)" />
    <path
       id="path118"
       d="M 137.7,229.044 H 153 m -12.6,-3.6 h 9"
       style="fill:none;stroke:#000000;stroke-width:0.9;stroke-linecap:butt;stroke-linejoin:miter;stroke-miterlimit:10;stroke-dasharray:none;stroke-opacity:1"
       transform="matrix(1.3333333,0,0,-1.3333333,0,1122.6667)" />
    <path
       id="path119"
       d="m 1.8644531,-2.5890078 v 2.23828124 l 0.890625,0.1171875 V 8.359375e-4 H 0.31757813 V -0.23353906 L 1.0207031,-0.35072656 V -5.5421328 L 0.25898438,-5.6593203 v -0.234375 H 2.8019531 c 0.741211,0 1.2890625,0.1259766 1.640625,0.375 0.3515625,0.2519531 0.5273438,0.6503906 0.5273438,1.1953125 0,0.3984375 -0.1113281,0.7441406 -0.328125,1.03125 -0.2109375,0.28125 -0.5039063,0.4775391 -0.8789063,0.5859375 l 1.59375,2.35546874 0.6328125,0.1171875 V 8.359375e-4 h -1.40625 L 2.9191406,-2.5890078 Z m 2.2265625,-1.6640625 c 0,-0.4511719 -0.1113281,-0.7734375 -0.328125,-0.9609375 -0.2197265,-0.1875 -0.6035156,-0.28125 -1.1484375,-0.28125 h -0.75 v 2.5195312 h 0.7734375 c 0.5302735,0 0.9052735,-0.09668 1.125,-0.2929687 0.2167969,-0.1933594 0.328125,-0.5214844 0.328125,-0.984375 z m 0,0"
       style="fill:#000000;fill-opacity:1;fill-rule:nonzero;stroke:none"
       aria-label="R"
       transform="matrix(1.3333333,0,0,1.3333333,123.6,786.67467)" />
    <path
       id="path120"
       d="m 5.6239969,-0.30499816 c -0.3369141,0.11110547 -0.6884766,0.20466797 -1.0546875,0.2806875 -0.3691406,0.07601954 -0.7617188,0.11695313 -1.1835938,0.11695313 -0.946289,0 -1.6875,-0.25729688 -2.2265625,-0.77189063 C 0.62595,-1.1996896 0.36227813,-1.9335704 0.36227813,-2.8779669 c 0,-1.0291875 0.2578125,-1.7952305 0.77343747,-2.3039766 0.515625,-0.5145937 1.2714844,-0.7718906 2.2734375,-0.7718906 0.7089844,0 1.397461,0.090639 2.0625,0.2689922 v 1.2630937 H 5.1786844 L 5.0614969,-5.1468575 C 4.8564188,-5.2930489 4.6161844,-5.4070782 4.3349344,-5.4860216 c -0.28125,-0.07602 -0.5800781,-0.1169531 -0.890625,-0.1169531 -0.75,0 -1.2978516,0.2280586 -1.640625,0.6783281 -0.3457031,0.4444219 -0.515625,1.1285977 -0.515625,2.0466797 0,0.8596055 0.1757812,1.514543 0.5273437,1.96481249 0.3574219,0.44442188 0.8847657,0.66663282 1.5820313,0.66663282 0.2490234,0 0.5068359,-0.0263145 0.7734375,-0.0818672 0.2636719,-0.0614004 0.46875,-0.13449609 0.609375,-0.22221094 V -2.2230294 l -0.75,-0.1169531 v -0.2339063 h 2.1679687 v 0.2339063 l -0.5742187,0.1169531 z m 0,0"
       style="fill:#000000;fill-opacity:1;fill-rule:nonzero;stroke:none"
       aria-label="G"
       transform="matrix(1.3333333,0,0,1.3360053,132.0404,790.27467)" />
    <path
       id="path121"
       d="m 144,285.744 h 41.4"
       style="fill:none;stroke:#000000;stroke-width:0.9;stroke-linecap:butt;stroke-linejoin:miter;stroke-miterlimit:10;stroke-dasharray:none;stroke-opacity:1"
       transform="matrix(1.3333333,0,0,-1.3333333,0,1122.6667)" />
    <path
       id="path122"
       d="m 147.6,285.24 c 0,-1.49 -1.21,-2.7 -2.7,-2.7 -1.49,0 -2.7,1.21 -2.7,2.7 0,1.49 1.21,2.7 2.7,2.7 1.49,0 2.7,-1.21 2.7,-2.7"
       style="fill:#000000;fill-opacity:1;fill-rule:nonzero;stroke:none"
       transform="matrix(1.3333333,0,0,-1.3333333,0,1122.6667)" />
    <path
       id="path123"
       d="m 147.15,285.3 c 0,-1.242 -1.008,-2.25 -2.25,-2.25 -1.242,0 -2.25,1.008 -2.25,2.25 0,1.242 1.008,2.25 2.25,2.25 1.242,0 2.25,-1.008 2.25,-2.25 z m 37.8,-25.206 v -9.9"
       style="fill:none;stroke:#000000;stroke-width:0.9;stroke-linecap:butt;stroke-linejoin:miter;stroke-miterlimit:10;stroke-dasharray:none;stroke-opacity:1"
       transform="matrix(1.3333333,0,0,-1.3333333,0,1122.6667)" />
    <path
       id="path124"
       d="m 190.8,264.594 h 1.8 v -1.8 l -6.3,-2.7 h -1.8 v 1.8"
       style="fill:#000000;fill-opacity:1;fill-rule:nonzero;stroke:none"
       transform="matrix(1.3333333,0,0,-1.3333333,0,1122.6667)" />
    <path
       id="path125"
       d="m 177.3,268.194 h 1.8 l 13.5,-3.6 v -1.8 h -1.8 l -13.5,3.6"
       style="fill:#000000;fill-opacity:1;fill-rule:nonzero;stroke:none"
       transform="matrix(1.3333333,0,0,-1.3333333,0,1122.6667)" />
    <path
       id="path126"
       d="m 184.5,271.794 h 1.8 v -1.8 l -7.2,-3.6 h -1.8 v 1.8"
       style="fill:#000000;fill-opacity:1;fill-rule:nonzero;stroke:none"
       transform="matrix(1.3333333,0,0,-1.3333333,0,1122.6667)" />
    <path
       id="path127"
       d="m 184.95,286.194 v -15.3"
       style="fill:none;stroke:#000000;stroke-width:0.9;stroke-linecap:butt;stroke-linejoin:miter;stroke-miterlimit:10;stroke-dasharray:none;stroke-opacity:1"
       transform="matrix(1.3333333,0,0,-1.3333333,0,1122.6667)" />
    <path
       id="path128"
       d="m 173.7,249.294 h 21.6"
       style="fill:none;stroke:#000000;stroke-width:1.8;stroke-linecap:butt;stroke-linejoin:miter;stroke-miterlimit:10;stroke-dasharray:none;stroke-opacity:1"
       transform="matrix(1.3333333,0,0,-1.3333333,0,1122.6667)" />
    <path
       id="path129"
       d="m 176.4,246.144 h 15.3 m -12.6,-2.7 h 9.9"
       style="fill:none;stroke:#000000;stroke-width:0.9;stroke-linecap:butt;stroke-linejoin:miter;stroke-miterlimit:10;stroke-dasharray:none;stroke-opacity:1"
       transform="matrix(1.3333333,0,0,-1.3333333,0,1122.6667)" />
    <path
       id="path130"
       d="m 1.8626953,-2.5890078 v 2.23828124 l 0.890625,0.1171875 V 8.359375e-4 H 0.31582031 V -0.23353906 L 1.0189453,-0.35072656 V -5.5421328 L 0.25722656,-5.6593203 v -0.234375 H 2.8001953 c 0.741211,0 1.2890625,0.1259766 1.640625,0.375 0.3515625,0.2519531 0.5273438,0.6503906 0.5273438,1.1953125 0,0.3984375 -0.1113282,0.7441406 -0.328125,1.03125 -0.2109375,0.28125 -0.5039063,0.4775391 -0.8789063,0.5859375 l 1.59375,2.35546874 0.6328125,0.1171875 V 8.359375e-4 h -1.40625 L 2.9173828,-2.5890078 Z m 2.2265625,-1.6640625 c 0,-0.4511719 -0.1113281,-0.7734375 -0.328125,-0.9609375 -0.2197265,-0.1875 -0.6035156,-0.28125 -1.1484375,-0.28125 h -0.75 v 2.5195312 h 0.7734375 c 0.5302735,0 0.9052735,-0.09668 1.125,-0.2929687 0.2167969,-0.1933594 0.328125,-0.5214844 0.328125,-0.984375 z m 0,0"
       style="fill:#000000;fill-opacity:1;fill-rule:nonzero;stroke:none"
       aria-label="R"
       transform="matrix(1.3333333,0,0,1.3333333,253.2,762.67467)" />
    <path
       id="path131"
       d="m 2.7659094,-5.649756 -0.9023438,0.1169532 v 5.15763277 h 1.1484375 c 0.6240235,0 1.0810547,-0.0292383 1.3710938,-0.0935625 l 0.28125,-1.21631247 h 0.28125 L 4.8635656,-9.2003125e-4 H 0.25809688 V -0.23482628 L 1.0080969,-0.35177941 V -5.5328028 L 0.25809688,-5.649756 V -5.8836622 H 2.7659094 Z m 0,0"
       style="fill:#000000;fill-opacity:1;fill-rule:nonzero;stroke:none"
       aria-label="L"
       transform="matrix(1.3333333,0,0,1.3360053,261.69493,766.27467)" />
    <path
       id="path134"
       d="m 4.6394531,-2.3071719 v 0.4453125 H 0.44414062 v -0.4453125 z m 0,-1.8046875 v 0.4453125 H 0.44414062 v -0.4453125 z m 3.1904297,3.76171878 1.2070313,0.1171875 v 0.234375 H 5.8728516 v -0.234375 l 1.2070312,-0.1171875 V -5.1548281 l -1.1953125,0.421875 v -0.234375 L 7.6072266,-5.9399844 H 7.8298828 Z M 11.708789,-3.4438906 c 0.679688,0 1.183594,0.140625 1.511719,0.421875 0.333984,0.2753906 0.503906,0.6972656 0.503906,1.265625 0,0.5947265 -0.181641,1.05175779 -0.539062,1.37109373 -0.360352,0.32226562 -0.875977,0.48046875 -1.546875,0.48046875 -0.556641,0 -1.051758,-0.06738282 -1.488282,-0.19921875 L 10.10332,-1.3345156 h 0.28125 l 0.199219,0.82031248 c 0.131836,0.0703125 0.287109,0.12890625 0.46875,0.17578125 0.178711,0.0410156 0.351563,0.0585938 0.515625,0.0585938 0.459961,0 0.799805,-0.10839844 1.019531,-0.328125 0.216797,-0.21679688 0.328125,-0.58593743 0.328125,-1.10156243 0,-0.3574219 -0.04687,-0.6328126 -0.140625,-0.8203126 -0.09375,-0.1875 -0.243164,-0.3222656 -0.445312,-0.4101563 -0.205078,-0.09375 -0.480469,-0.140625 -0.832031,-0.140625 -0.266602,0 -0.524415,0.035156 -0.773438,0.1054689 h -0.421875 v -2.9179688 h 2.988281 v 0.6679688 h -2.601562 v 1.8867187 c 0.319336,-0.070312 0.659179,-0.1054687 1.019531,-0.1054688 z m 8.765625,-2.4492188 v 0.234375 l -0.644531,0.1171875 -2.367188,5.68359378 h -0.222656 l -2.402344,-5.68359378 -0.65625,-0.1171875 v -0.234375 h 2.378907 v 0.234375 l -0.796875,0.1171875 1.792968,4.3359375 1.78125,-4.3359375 -0.773437,-0.1171875 v -0.234375 z M -16.137891,10.911578 v 2.238281 l 0.890625,0.117188 v 0.234375 h -2.4375 v -0.234375 l 0.703125,-0.117188 V 7.9584531 l -0.761718,-0.1171875 v -0.234375 h 2.542968 c 0.741211,0 1.289063,0.1259766 1.640625,0.375 0.351563,0.2519532 0.527344,0.6503907 0.527344,1.1953125 0,0.3984375 -0.111328,0.7441407 -0.328125,1.0312499 -0.210937,0.28125 -0.503906,0.477539 -0.878906,0.585938 l 1.59375,2.355468 0.632812,0.117188 v 0.234375 h -1.40625 l -1.664062,-2.589844 z m 2.226563,-1.6640624 c 0,-0.4511718 -0.111328,-0.7734375 -0.328125,-0.9609375 -0.219727,-0.1875 -0.603516,-0.28125 -1.148438,-0.28125 h -0.75 v 2.5195309 h 0.773438 c 0.530273,0 0.905273,-0.09668 1.125,-0.292968 0.216797,-0.19336 0.328125,-0.5214847 0.328125,-0.9843754 z m 0,0"
       style="fill:#000000;fill-opacity:1;fill-rule:nonzero;stroke:none"
       aria-label="=15V&#10;R"
       transform="matrix(1.3333333,0,0,1.3333333,254.4,671.47467)" />
    <path
       id="path135"
       d="M 5.6259391,-0.30441339 C 5.289025,-0.19330792 4.9374625,-0.09974542 4.5712516,-0.02372589 4.2021109,0.05229364 3.8095328,0.09322723 3.3876578,0.09322723 c -0.946289,0 -1.6875,-0.25729687 -2.2265625,-0.77189062 C 0.62789219,-1.1991048 0.36422031,-1.9329857 0.36422031,-2.8773821 c 0,-1.0291875 0.2578125,-1.7952305 0.77343749,-2.3039766 0.515625,-0.5145938 1.2714844,-0.7718906 2.2734375,-0.7718906 0.7089844,0 1.397461,0.090639 2.0625,0.2689922 v 1.2630937 H 5.1806266 L 5.0634391,-5.1462728 C 4.8583609,-5.2924642 4.6181266,-5.4064935 4.3368766,-5.4854368 4.0556266,-5.5614564 3.7567984,-5.60239 3.4462516,-5.60239 c -0.75,0 -1.2978516,0.2280586 -1.640625,0.6783282 -0.3457032,0.4444218 -0.515625,1.1285976 -0.515625,2.0466797 0,0.8596054 0.1757812,1.5145429 0.5273437,1.96481246 0.3574219,0.44442187 0.8847656,0.66663281 1.5820313,0.66663281 0.2490234,0 0.5068359,-0.0263144 0.7734375,-0.0818672 0.2636718,-0.0614004 0.46875,-0.13449609 0.609375,-0.22221093 V -2.2224446 l -0.75,-0.1169532 V -2.573304 h 2.1679687 v 0.2339062 l -0.5742187,0.1169532 z m 0,0"
       style="fill:#000000;fill-opacity:1;fill-rule:nonzero;stroke:none"
       aria-label="G"
       transform="matrix(1.3333333,0,0,1.3360053,238.88547,693.07467)" />
    <g
       id="g135"
       aria-label="=1kΩ&#10;R"
       transform="matrix(1.3333333,0,0,1.3333333,247.2,689.47467)">
      <path
         id="path136"
         d="m 4.6400391,-2.3071719 v 0.4453125 H 0.44472656 v -0.4453125 z m 0,-1.8046875 v 0.4453125 H 0.44472656 v -0.4453125 z m 3.1904297,3.76171878 1.2070312,0.1171875 v 0.234375 H 5.8734375 v -0.234375 l 1.2070313,-0.1171875 V -5.1548281 l -1.1953125,0.421875 v -0.234375 l 1.7226562,-0.9726563 h 0.2226563 z m 3.2578122,-1.64062498 1.6875,-1.828125 -0.421875,-0.1171875 v -0.1992188 h 1.453125 v 0.1992188 l -0.515625,0.1054687 -1.171875,1.2070313 1.511719,2.32031248 0.445313,0.10546875 v 0.19921875 h -1.6875 v -0.19921875 l 0.375,-0.10546875 -1.136719,-1.78124998 -0.539063,0.5859375 v 1.19531248 l 0.445313,0.10546875 V 0.00142188 H 9.834375 v -0.19921875 l 0.527344,-0.10546875 V -5.9399844 L 9.7523438,-6.0454531 v -0.1992188 h 1.3359372 z m 0,0"
         style="fill:#000000;fill-opacity:1;fill-rule:nonzero;stroke:none" />
      <path
         id="path137"
         d="m 14.299219,0.00142188 v -0.71484375 h 1.429687 c -0.228515,-0.1640625 -0.445312,-0.36914063 -0.65625,-0.62109373 -0.210937,-0.2578125 -0.383789,-0.5625 -0.515625,-0.9140625 -0.134765,-0.3574219 -0.199218,-0.7617188 -0.199218,-1.2070313 0,-0.5859375 0.111328,-1.1074218 0.339843,-1.5703125 0.225586,-0.4599609 0.556641,-0.8232422 0.996094,-1.0898437 0.436523,-0.272461 0.972656,-0.4101563 1.605469,-0.4101563 0.632812,0 1.166015,0.1347657 1.605469,0.3984375 0.436523,0.2666016 0.767578,0.6298828 0.996093,1.0898438 0.234375,0.4628906 0.351563,0.984375 0.351563,1.5703125 0,0.4541015 -0.06738,0.8613281 -0.199219,1.21875 -0.134766,0.3515625 -0.304687,0.65625 -0.515625,0.9140625 -0.205078,0.2519531 -0.418945,0.45703123 -0.644531,0.62109373 h 1.40625 v 0.71484375 h -2.402344 v -0.64453125 c 0.366211,-0.26367188 0.65918,-0.53320313 0.878906,-0.80859373 0.225586,-0.28125 0.386719,-0.5800781 0.480469,-0.9023438 0.09961,-0.3193359 0.152344,-0.6796875 0.152344,-1.078125 0,-0.4511718 -0.0791,-0.8583984 -0.234375,-1.21875 -0.149414,-0.3574218 -0.38086,-0.6386718 -0.691406,-0.84375 -0.304688,-0.2109375 -0.700196,-0.3164062 -1.183594,-0.3164062 -0.477539,0 -0.873047,0.1054687 -1.183594,0.3164062 -0.313477,0.2050782 -0.544922,0.4863282 -0.691406,0.84375 -0.140625,0.3603516 -0.210938,0.7675782 -0.210938,1.21875 0,0.3984375 0.04687,0.7587891 0.140625,1.078125 0.09375,0.3222657 0.249024,0.6181641 0.46875,0.890625 0.216797,0.2753907 0.515625,0.54785159 0.890625,0.82031253 v 0.64453125 z m 0,0"
         style="fill:#000000;fill-opacity:1;fill-rule:nonzero;stroke:none" />
      <path
         id="path138"
         d="m -10.737891,10.911578 v 2.238281 l 0.8906254,0.117188 v 0.234375 h -2.4375004 v -0.234375 l 0.703125,-0.117188 V 7.9584531 l -0.761718,-0.1171875 v -0.234375 h 2.5429684 c 0.7412109,0 1.2890625,0.1259766 1.640625,0.375 0.3515625,0.2519532 0.5273437,0.6503907 0.5273437,1.1953125 0,0.3984375 -0.1113281,0.7441407 -0.328125,1.0312499 -0.2109375,0.28125 -0.5039062,0.477539 -0.8789062,0.585938 l 1.59375,2.355468 0.6328125,0.117188 v 0.234375 h -1.40625 l -1.6640625,-2.589844 z m 2.2265629,-1.6640624 c 0,-0.4511718 -0.1113281,-0.7734375 -0.328125,-0.9609375 -0.2197266,-0.1875 -0.6035156,-0.28125 -1.1484375,-0.28125 h -0.7500004 v 2.5195309 h 0.7734379 c 0.5302734,0 0.9052734,-0.09668 1.125,-0.292968 0.2167969,-0.19336 0.328125,-0.5214847 0.328125,-0.9843754 z m 0,0"
         style="fill:#000000;fill-opacity:1;fill-rule:nonzero;stroke:none" />
    </g>
    <path
       id="path139"
       d="m 2.7665641,-5.6491712 -0.9023438,0.1169531 v 5.15763283 h 1.1484375 c 0.6240235,0 1.0810547,-0.0292383 1.3710938,-0.0935625 l 0.28125,-1.21631253 h 0.28125 L 4.8642203,-3.3526562e-4 H 0.25875156 V -0.23424152 L 1.0087516,-0.35119464 V -5.5322181 L 0.25875156,-5.6491712 V -5.8830775 H 2.7665641 Z m 0,0"
       style="fill:#000000;fill-opacity:1;fill-rule:nonzero;stroke:none"
       aria-label="L"
       transform="matrix(1.3333333,0,0,1.3360053,238.88547,711.07467)" />
    <g
       id="g139"
       aria-label="=1kΩ&#10;V"
       transform="matrix(1.3333333,0,0,1.3333333,246,707.47467)">
      <path
         id="path140"
         d="m 4.640625,-2.3071719 v 0.4453125 H 0.4453125 v -0.4453125 z m 0,-1.8046875 v 0.4453125 H 0.4453125 v -0.4453125 z m 3.1904297,3.76171878 1.2070312,0.1171875 v 0.234375 H 5.8740234 v -0.234375 l 1.2070313,-0.1171875 V -5.1548281 l -1.1953125,0.421875 v -0.234375 l 1.7226562,-0.9726563 h 0.2226563 z m 3.2578123,-1.64062498 1.6875,-1.828125 -0.421875,-0.1171875 v -0.1992188 h 1.453125 v 0.1992188 l -0.515625,0.1054687 -1.171875,1.2070313 1.511719,2.32031248 0.445312,0.10546875 v 0.19921875 h -1.6875 v -0.19921875 l 0.375,-0.10546875 -1.136718,-1.78124998 -0.539063,0.5859375 v 1.19531248 l 0.445313,0.10546875 V 0.00142188 H 9.8349609 V -0.19779687 L 10.362305,-0.30326562 V -5.9399844 L 9.7529297,-6.0454531 v -0.1992188 h 1.3359373 z m 0,0"
         style="fill:#000000;fill-opacity:1;fill-rule:nonzero;stroke:none" />
      <path
         id="path141"
         d="m 14.299805,0.00142188 v -0.71484375 h 1.429687 c -0.228515,-0.1640625 -0.445312,-0.36914063 -0.65625,-0.62109373 -0.210937,-0.2578125 -0.383789,-0.5625 -0.515625,-0.9140625 -0.134765,-0.3574219 -0.199219,-0.7617188 -0.199219,-1.2070313 0,-0.5859375 0.111329,-1.1074218 0.339844,-1.5703125 0.225586,-0.4599609 0.556641,-0.8232422 0.996094,-1.0898437 0.436523,-0.272461 0.972656,-0.4101563 1.605469,-0.4101563 0.632812,0 1.166015,0.1347657 1.605468,0.3984375 0.436524,0.2666016 0.767579,0.6298828 0.996094,1.0898438 0.234375,0.4628906 0.351563,0.984375 0.351563,1.5703125 0,0.4541015 -0.06738,0.8613281 -0.199219,1.21875 -0.134766,0.3515625 -0.304688,0.65625 -0.515625,0.9140625 -0.205078,0.2519531 -0.418945,0.45703123 -0.644531,0.62109373 h 1.40625 v 0.71484375 h -2.402344 v -0.64453125 c 0.366211,-0.26367188 0.65918,-0.53320313 0.878906,-0.80859373 0.225586,-0.28125 0.386719,-0.5800781 0.480469,-0.9023438 0.09961,-0.3193359 0.152344,-0.6796875 0.152344,-1.078125 0,-0.4511718 -0.0791,-0.8583984 -0.234375,-1.21875 -0.149414,-0.3574218 -0.38086,-0.6386718 -0.691407,-0.84375 -0.304687,-0.2109375 -0.700195,-0.3164062 -1.183593,-0.3164062 -0.477539,0 -0.873047,0.1054687 -1.183594,0.3164062 -0.313477,0.2050782 -0.544922,0.4863282 -0.691406,0.84375 -0.140625,0.3603516 -0.210938,0.7675782 -0.210938,1.21875 0,0.3984375 0.04687,0.7587891 0.140625,1.078125 0.09375,0.3222657 0.249024,0.6181641 0.46875,0.890625 0.216797,0.2753907 0.515625,0.54785159 0.890625,0.82031253 v 0.64453125 z m 0,0"
         style="fill:#000000;fill-opacity:1;fill-rule:nonzero;stroke:none" />
      <path
         id="path142"
         d="m -5.3027344,7.6068906 v 0.234375 l -0.6445312,0.1171875 -2.3671875,5.6835939 h -0.2226563 l -2.4023436,-5.6835939 -0.65625,-0.1171875 v -0.234375 h 2.3789061 v 0.234375 l -0.7968751,0.1171875 1.7929689,4.3359379 1.78125,-4.3359379 -0.7734375,-0.1171875 v -0.234375 z m 0,0"
         style="fill:#000000;fill-opacity:1;fill-rule:nonzero;stroke:none" />
    </g>
    <path
       id="path143"
       d="M 5.6259391,-0.30441339 C 5.289025,-0.19330792 4.9374625,-0.09974542 4.5712516,-0.02372589 4.2021109,0.05229364 3.8095328,0.09322723 3.3876578,0.09322723 c -0.946289,0 -1.6875,-0.25729687 -2.2265625,-0.77189062 C 0.62789219,-1.1991048 0.36422031,-1.9329857 0.36422031,-2.8773821 c 0,-1.0291875 0.2578125,-1.7952305 0.77343749,-2.3039766 0.515625,-0.5145938 1.2714844,-0.7718906 2.2734375,-0.7718906 0.7089844,0 1.397461,0.090639 2.0625,0.2689922 v 1.2630937 H 5.1806266 L 5.0634391,-5.1462728 C 4.8583609,-5.2924642 4.6181266,-5.4064935 4.3368766,-5.4854368 4.0556266,-5.5614564 3.7567984,-5.60239 3.4462516,-5.60239 c -0.75,0 -1.2978516,0.2280586 -1.640625,0.6783282 -0.3457032,0.4444218 -0.515625,1.1285976 -0.515625,2.0466797 0,0.8596054 0.1757812,1.5145429 0.5273437,1.96481246 0.3574219,0.44442187 0.8847656,0.66663281 1.5820313,0.66663281 0.2490234,0 0.5068359,-0.0263144 0.7734375,-0.0818672 0.2636718,-0.0614004 0.46875,-0.13449609 0.609375,-0.22221093 V -2.2224446 l -0.75,-0.1169532 V -2.573304 h 2.1679687 v 0.2339062 l -0.5742187,0.1169532 z m 6.4833989,0 c -0.336915,0.11110547 -0.688477,0.20466797 -1.054688,0.2806875 -0.369141,0.07601953 -0.761719,0.11695312 -1.1835937,0.11695312 -0.9462891,0 -1.6875,-0.25729687 -2.2265625,-0.77189062 -0.5332032,-0.52044141 -0.796875,-1.25432231 -0.796875,-2.19871871 0,-1.0291875 0.2578125,-1.7952305 0.7734375,-2.3039766 0.515625,-0.5145938 1.2714843,-0.7718906 2.2734375,-0.7718906 0.7089842,0 1.3974612,0.090639 2.0625002,0.2689922 v 1.2630937 h -0.292969 l -0.117187,-0.7251094 c -0.205079,-0.1461914 -0.445313,-0.2602207 -0.726563,-0.339164 -0.28125,-0.07602 -0.580078,-0.1169532 -0.890625,-0.1169532 -0.75,0 -1.2978516,0.2280586 -1.640625,0.6783282 C 7.9433219,-4.47964 7.7734,-3.7954642 7.7734,-2.8773821 c 0,0.8596054 0.1757813,1.5145429 0.5273438,1.96481246 0.3574218,0.44442187 0.8847656,0.66663281 1.5820312,0.66663281 0.249023,0 0.506836,-0.0263144 0.773438,-0.0818672 0.263671,-0.0614004 0.46875,-0.13449609 0.609375,-0.22221093 V -2.2224446 l -0.75,-0.1169532 V -2.573304 h 2.167968 v 0.2339062 l -0.574218,0.1169532 z m 0,0"
       style="fill:#000000;fill-opacity:1;fill-rule:nonzero;stroke:none"
       aria-label="GG"
       transform="matrix(1.3333333,0,0,1.3360053,238.88547,729.07467)" />
    <g
       id="g143"
       aria-label="=–1 V&#10;Figura P1.9.d&#10;P1.10"
       transform="matrix(1.3333333,0,0,1.3333333,255.6,725.47467)">
      <path
         id="path144"
         d="m 4.6417969,-2.3071719 v 0.4453125 H 0.44648438 v -0.4453125 z m 0,-1.8046875 v 0.4453125 H 0.44648438 v -0.4453125 z m 4.9921875,1.7929688 v 0.4453125 H 5.0167969 v -0.4453125 z m 2.6953126,1.96874998 1.207031,0.1171875 v 0.234375 h -3.164062 v -0.234375 l 1.207031,-0.1171875 V -5.1548281 l -1.195313,0.421875 v -0.234375 l 1.722657,-0.9726563 h 0.222656 z M 22.723828,-5.8931094 v 0.234375 l -0.644531,0.1171875 -2.367188,5.68359378 h -0.222656 l -2.402344,-5.68359378 -0.65625,-0.1171875 v -0.234375 h 2.378907 v 0.234375 l -0.796875,0.1171875 1.792968,4.3359375 1.78125,-4.3359375 -0.773437,-0.1171875 v -0.234375 z m 0,0"
         style="fill:#000000;fill-opacity:1;fill-rule:nonzero;stroke:none" />
      <path
         id="path145"
         d="m -67.003711,97.381305 v 2.074218 l 0.972656,0.128907 v 0.316406 h -3.058593 V 99.58443 l 0.703125,-0.128907 v -5.015625 l -0.761719,-0.117187 v -0.316406 h 4.910156 v 1.582031 h -0.410156 l -0.140625,-1.03125 c -0.140625,-0.02344 -0.38086,-0.03809 -0.714844,-0.04687 -0.328125,-0.01465 -0.585937,-0.02344 -0.773437,-0.02344 h -0.726563 v 2.414063 h 1.429688 l 0.140625,-0.75 h 0.386718 v 1.992187 h -0.386718 l -0.140625,-0.761718 z m 5.53125,2.121093 0.445313,0.105469 v 0.292969 h -2.167969 v -0.292969 l 0.445312,-0.105469 v -3.339843 l -0.421875,-0.105469 v -0.292969 h 1.699219 z m -1.324219,-5.179687 c 0,-0.1875 0.06445,-0.342773 0.199219,-0.46875 0.140625,-0.131836 0.298828,-0.199219 0.480469,-0.199219 0.1875,0 0.345703,0.06738 0.480469,0.199219 0.131836,0.125977 0.199218,0.28125 0.199218,0.46875 0,0.1875 -0.06738,0.348633 -0.199218,0.480469 -0.125977,0.134765 -0.28711,0.199218 -0.480469,0.199218 -0.1875,0 -0.348633,-0.06152 -0.480469,-0.1875 -0.134766,-0.131835 -0.199219,-0.295898 -0.199219,-0.492187 z m 3.436524,4.054687 c -0.515625,-0.216796 -0.773438,-0.64746 -0.773438,-1.289062 0,-0.459961 0.155274,-0.811523 0.46875,-1.054688 0.319336,-0.249023 0.779297,-0.375 1.382813,-0.375 0.123047,0 0.284179,0.01172 0.480469,0.03516 0.193359,0.02344 0.339843,0.04687 0.433593,0.07031 l 0.984375,-0.480469 0.152344,0.1875 -0.492187,0.714844 c 0.17871,0.219727 0.269531,0.521485 0.269531,0.902344 0,0.46875 -0.161133,0.829102 -0.480469,1.078125 -0.313477,0.251953 -0.770508,0.375 -1.371094,0.375 -0.234375,0 -0.457031,-0.01758 -0.667968,-0.05859 l -0.105469,0.339844 c 0,0.08789 0.0498,0.169922 0.152344,0.246094 0.108398,0.07031 0.237304,0.105468 0.386718,0.105468 h 0.960938 c 1.007812,0 1.511719,0.386719 1.511719,1.160162 0,0.31934 -0.09082,0.5918 -0.269532,0.82031 -0.172851,0.23438 -0.430664,0.41309 -0.773437,0.53906 -0.336914,0.13184 -0.75586,0.19922 -1.253906,0.19922 -0.603516,0 -1.066407,-0.0879 -1.394532,-0.25781 -0.328125,-0.17285 -0.492187,-0.41016 -0.492187,-0.71484 0,-0.12598 0.05273,-0.25196 0.164062,-0.375 0.108399,-0.12598 0.316407,-0.27832 0.621094,-0.45703 -0.172852,-0.0645 -0.322266,-0.17579 -0.445312,-0.339853 -0.117188,-0.169922 -0.175782,-0.351562 -0.175782,-0.539062 z m 2.320312,2.250002 c 0,-0.27539 -0.18457,-0.41016 -0.550781,-0.41016 h -1.394531 c -0.257813,0.1875 -0.386719,0.39844 -0.386719,0.63281 0,0.1875 0.08789,0.32813 0.269531,0.42188 0.178711,0.0937 0.424805,0.14062 0.738282,0.14062 0.427734,0 0.755859,-0.0703 0.984375,-0.21093 0.225585,-0.13477 0.339843,-0.3252 0.339843,-0.57422 z m -1.277343,-2.531252 c 0.216796,0 0.375,-0.08203 0.46875,-0.246093 0.09961,-0.169922 0.152343,-0.424805 0.152343,-0.761719 0,-0.333984 -0.05273,-0.580078 -0.152343,-0.738281 -0.09375,-0.164063 -0.251954,-0.246094 -0.46875,-0.246094 -0.205079,0 -0.351563,0.08203 -0.445313,0.246094 -0.08789,0.158203 -0.128906,0.404297 -0.128906,0.738281 0,0.336914 0.04102,0.591797 0.128906,0.761719 0.09375,0.164062 0.240234,0.246093 0.445313,0.246093 z m 5.833007,1.441407 -0.292968,0.152343 c -0.416016,0.210938 -0.785157,0.316402 -1.113282,0.316402 -0.758789,0 -1.136718,-0.404292 -1.136718,-1.218745 v -2.625 l -0.410157,-0.105469 v -0.292969 h 1.675782 v 2.859375 c 0,0.243164 0.0498,0.433594 0.152343,0.574219 0.108399,0.140625 0.260743,0.210937 0.457032,0.210937 0.216796,0 0.439453,-0.0498 0.667968,-0.152343 v -3.09375 l -0.386718,-0.105469 v -0.292969 h 1.652343 v 3.738281 l 0.410157,0.105469 v 0.292969 h -1.605469 z m 4.344727,-2.90625 c 0.310547,-0.351563 0.591797,-0.603516 0.84375,-0.761719 0.257812,-0.155273 0.486328,-0.234375 0.691406,-0.234375 h 0.234375 v 1.511719 h -0.246094 l -0.257812,-0.550782 c -0.181641,0 -0.386719,0.04102 -0.621094,0.117188 -0.234375,0.0791 -0.442383,0.172852 -0.621094,0.28125 v 2.507812 l 0.65625,0.105469 v 0.292969 h -2.460937 v -0.292969 l 0.527344,-0.105469 v -3.339843 l -0.527344,-0.105469 v -0.292969 h 1.734375 z m 4.775391,-0.949219 c 1.03125,0 1.546875,0.380859 1.546875,1.136719 v 2.683593 l 0.410156,0.105469 v 0.292969 h -1.511719 l -0.105469,-0.316406 c -0.228515,0.158203 -0.433593,0.263672 -0.621093,0.316406 -0.181641,0.06152 -0.363282,0.09375 -0.550782,0.09375 -0.852539,0 -1.277343,-0.413086 -1.277343,-1.242188 0,-0.304687 0.06152,-0.550781 0.1875,-0.738281 0.123046,-0.1875 0.304687,-0.322265 0.539062,-0.410156 0.240234,-0.09375 0.615234,-0.143555 1.125,-0.152344 l 0.539063,-0.01172 v -0.609375 c 0,-0.498046 -0.205079,-0.75 -0.609375,-0.75 -0.251954,0 -0.527344,0.0791 -0.832032,0.234375 l -0.164062,0.515625 H -44.98125 V 95.83443 c 0.445313,-0.07031 0.767578,-0.111328 0.972656,-0.128907 0.210938,-0.01465 0.424805,-0.02344 0.644532,-0.02344 z m 0.28125,2.144531 -0.375,0.01172 c -0.28125,0.01758 -0.47754,0.09375 -0.585938,0.234375 -0.111328,0.134766 -0.164062,0.351562 -0.164062,0.65625 0,0.251953 0.04101,0.433594 0.128906,0.550781 0.08496,0.117188 0.199219,0.175781 0.339844,0.175781 0.202148,0 0.421875,-0.0498 0.65625,-0.152343 z m 12.782226,-2.074219 c 0,-0.46875 -0.09082,-0.796875 -0.269531,-0.984375 -0.172852,-0.1875 -0.477539,-0.28125 -0.914063,-0.28125 h -0.351562 v 2.613282 h 0.363281 c 0.404297,0 0.703125,-0.09961 0.890625,-0.304688 0.1875,-0.202148 0.28125,-0.550781 0.28125,-1.042969 z m -1.535156,1.839844 v 1.863281 l 0.984375,0.128907 v 0.316406 H -33.92168 V 99.58443 l 0.703125,-0.128907 v -5.015625 l -0.761718,-0.117187 v -0.316406 h 2.601562 c 0.834961,0 1.456055,0.140625 1.863281,0.421875 0.413086,0.28125 0.621094,0.720703 0.621094,1.3125 0,1.236328 -0.714844,1.851562 -2.144531,1.851562 z m 6.621094,1.828125 1.019531,0.105469 v 0.375 h -3.304688 v -0.375 l 1.019532,-0.105469 v -4.441406 l -1.019532,0.328125 v -0.375 l 1.664063,-0.972656 h 0.621094 z m 3.017578,0.609373 c -0.205078,0 -0.375,-0.07031 -0.515625,-0.210935 -0.140625,-0.140625 -0.210938,-0.310547 -0.210938,-0.515625 0,-0.202149 0.07031,-0.375 0.210938,-0.515625 0.140625,-0.146485 0.310547,-0.222657 0.515625,-0.222657 0.202148,0 0.375,0.07031 0.515625,0.210938 0.140625,0.140625 0.210937,0.316406 0.210937,0.527344 0,0.196289 -0.07031,0.36914 -0.210937,0.515625 -0.140625,0.140625 -0.313477,0.210935 -0.515625,0.210935 z m 1.77832,-4.230467 c 0,-0.591796 0.169922,-1.048828 0.515625,-1.371093 0.342773,-0.328125 0.820313,-0.492188 1.429688,-0.492188 0.685546,0 1.186523,0.243164 1.5,0.726563 0.319335,0.486328 0.480468,1.242187 0.480468,2.273437 0,0.665039 -0.09375,1.22461 -0.28125,1.675781 -0.18164,0.454102 -0.445312,0.796875 -0.796875,1.03125 -0.351562,0.234375 -0.770508,0.351563 -1.253906,0.351563 -0.486328,0 -0.943359,-0.06738 -1.371094,-0.199219 V 98.45943 h 0.386719 l 0.1875,0.855468 c 0.09961,0.07031 0.222656,0.128907 0.363281,0.175782 0.140625,0.04102 0.275391,0.05859 0.410157,0.05859 0.319335,0 0.565429,-0.17871 0.738281,-0.539062 0.178711,-0.357422 0.284179,-0.878906 0.316406,-1.558594 -0.304687,0.111328 -0.609375,0.164063 -0.914062,0.164063 -0.533204,0 -0.949219,-0.155274 -1.253907,-0.46875 -0.304687,-0.319336 -0.457031,-0.767578 -0.457031,-1.347657 z m 1.289063,0.02344 c 0,0.837891 0.228515,1.253906 0.691406,1.253906 0.216797,0 0.436523,-0.02637 0.65625,-0.08203 v -0.05859 c 0,-0.84375 -0.05273,-1.479492 -0.152344,-1.910156 -0.102539,-0.427734 -0.27832,-0.644531 -0.527344,-0.644531 -0.445312,0 -0.667968,0.480468 -0.667968,1.441406 z m 4.49707,4.207027 c -0.205078,0 -0.375,-0.07031 -0.515625,-0.210933 -0.140625,-0.140625 -0.210938,-0.310547 -0.210938,-0.515625 0,-0.202149 0.07031,-0.375 0.210938,-0.515625 0.140625,-0.146485 0.310547,-0.222657 0.515625,-0.222657 0.202148,0 0.375,0.07031 0.515625,0.210938 0.140625,0.140625 0.210937,0.316406 0.210937,0.527344 0,0.196289 -0.07031,0.36914 -0.210937,0.515625 -0.140625,0.140625 -0.313477,0.210933 -0.515625,0.210933 z m 4.7548826,-0.363277 c -0.1640626,0.111328 -0.2929686,0.181641 -0.3867186,0.210937 -0.08789,0.0293 -0.18457,0.05859 -0.292969,0.08203 -0.111328,0.02344 -0.231445,0.03516 -0.363281,0.03516 -0.609375,0 -1.066406,-0.175781 -1.371094,-0.527344 -0.298828,-0.351562 -0.445312,-0.890625 -0.445312,-1.617187 0,-0.717774 0.158203,-1.259766 0.480468,-1.628907 0.319336,-0.375 0.785157,-0.5625 1.394532,-0.5625 0.319336,0 0.644531,0.04102 0.9726559,0.117188 -0.017578,-0.09375 -0.023437,-0.319336 -0.023437,-0.679688 V 94.05318 l -0.4218749,-0.105469 v -0.292969 h 1.6874999 v 5.847656 l 0.4570312,0.105469 v 0.292969 h -1.59375 z M -11.448047,97.8149 c 0,0.547852 0.06445,0.966797 0.199219,1.253907 0.140625,0.290039 0.339844,0.433593 0.597656,0.433593 0.234375,0 0.480469,-0.06152 0.7382814,-0.1875 v -3.117187 c -0.2343754,-0.06152 -0.4687504,-0.09375 -0.7031254,-0.09375 -0.257812,0 -0.46289,0.146484 -0.609375,0.433594 -0.149414,0.290039 -0.222656,0.714843 -0.222656,1.277343 z"
         style="fill:#000000;fill-opacity:1;fill-rule:nonzero;stroke:none" />
    </g>
    <g
       id="g326"
       aria-label="Figura P1.11.b&#10;Electronica Básica para Ingenieros"
       transform="matrix(1.3333333,0,0,1.3333333,487.2,1002.6747)">
      <path
         id="path327"
         d="m 2.2962891,-2.5186953 v 2.07421874 l 0.9726562,0.12890625 V 8.359375e-4 H 0.21035156 V -0.31557031 l 0.703125,-0.12890625 V -5.4601016 L 0.15175781,-5.5772891 V -5.8936953 H 5.0619141 v 1.5820312 H 4.6517578 l -0.140625,-1.03125 C 4.3705078,-5.3663516 4.1302734,-5.381 3.7962891,-5.3897891 3.4681641,-5.4044375 3.2103516,-5.4132266 3.0228516,-5.4132266 H 2.2962891 v 2.4140625 h 1.4296875 l 0.140625,-0.75 h 0.3867187 v 1.9921875 H 3.8666016 l -0.140625,-0.7617187 z m 5.5927734,2.12109374 0.4453125,0.10546875 V 8.359375e-4 H 6.1664063 V -0.29213281 L 6.6117188,-0.39760156 V -3.7374453 L 6.1898438,-3.8429141 V -4.1358828 H 7.8890625 Z M 6.5648438,-5.5772891 c 0,-0.1875 0.064453,-0.3427734 0.1992187,-0.46875 0.140625,-0.1318359 0.2988281,-0.1992187 0.4804688,-0.1992187 0.1875,0 0.3457031,0.067383 0.4804687,0.1992187 0.1318359,0.1259766 0.1992188,0.28125 0.1992188,0.46875 0,0.1875 -0.067383,0.3486329 -0.1992188,0.4804688 -0.1259766,0.1347656 -0.2871094,0.1992187 -0.4804687,0.1992187 -0.1875,0 -0.3486329,-0.061523 -0.4804688,-0.1875 C 6.6292969,-5.2169375 6.5648438,-5.381 6.5648438,-5.5772891 Z m 3.4951172,4.0546875 C 9.5443359,-1.7393984 9.2865234,-2.1700625 9.2865234,-2.8116641 c 0,-0.4599609 0.1552735,-0.8115234 0.46875,-1.0546875 0.3193356,-0.2490234 0.7792966,-0.375 1.3828126,-0.375 0.123047,0 0.28418,0.011719 0.480469,0.035156 0.193359,0.023437 0.339843,0.046875 0.433593,0.070312 l 0.984375,-0.4804688 0.152344,0.1875 -0.492187,0.7148438 c 0.178711,0.2197266 0.269531,0.5214844 0.269531,0.9023437 0,0.46875 -0.161133,0.8291016 -0.480469,1.078125 -0.313476,0.2519532 -0.770508,0.375 -1.371094,0.375 -0.234375,0 -0.457031,-0.017578 -0.667968,-0.058594 l -0.105469,0.3398437 c 0,0.0878907 0.04981,0.16992191 0.152344,0.24609379 0.108398,0.0703125 0.237304,0.10546875 0.386718,0.10546875 h 0.960938 c 1.007812,0 1.511719,0.38671875 1.511719,1.16015625 0,0.31933594 -0.09082,0.59179691 -0.269532,0.82031251 -0.172851,0.234375 -0.430664,0.4130859 -0.773437,0.5390625 -0.336914,0.1318359 -0.755859,0.1992187 -1.253906,0.1992187 -0.603516,0 -1.0664066,-0.087891 -1.3945316,-0.2578125 C 9.3333984,1.5623594 9.1693359,1.3250547 9.1693359,1.0203672 c 0,-0.12597657 0.052734,-0.25195314 0.1640625,-0.37500001 C 9.4417969,0.51939063 9.6498047,0.36704688 9.9544922,0.18833594 9.7816406,0.12388281 9.6322266,0.01255469 9.5091797,-0.15150781 9.3919922,-0.32142969 9.3333984,-0.50307031 9.3333984,-0.69057031 Z m 2.320312,2.25000004 c 0,-0.27539063 -0.18457,-0.41015625 -0.550781,-0.41015625 h -1.394531 c -0.257813,0.1875 -0.386719,0.3984375 -0.386719,0.6328125 0,0.18750001 0.08789,0.32812501 0.269531,0.42187501 0.178711,0.09375 0.424805,0.140625 0.738282,0.140625 0.427734,0 0.755859,-0.070312 0.984375,-0.2109375 0.225586,-0.1347656 0.339843,-0.32519532 0.339843,-0.57421876 z M 11.10293,-1.8038516 c 0.216797,0 0.375,-0.082031 0.46875,-0.2460937 0.09961,-0.1699219 0.152343,-0.4248047 0.152343,-0.7617188 0,-0.3339843 -0.05273,-0.5800781 -0.152343,-0.7382812 -0.09375,-0.1640625 -0.251953,-0.2460938 -0.46875,-0.2460938 -0.205078,0 -0.351563,0.082031 -0.445313,0.2460938 -0.08789,0.1582031 -0.128906,0.4042969 -0.128906,0.7382812 0,0.3369141 0.04102,0.5917969 0.128906,0.7617188 0.09375,0.1640625 0.240235,0.2460937 0.445313,0.2460937 z m 5.894531,1.44140629 -0.292969,0.15234375 c -0.416015,0.2109374975 -0.785156,0.31640625 -1.113281,0.31640625 -0.758789,0 -1.136719,-0.40429688 -1.136719,-1.21874999 v -2.625 l -0.410156,-0.1054688 v -0.2929687 h 1.675781 v 2.859375 c 0,0.2431641 0.0498,0.43359374 0.152344,0.57421874 0.108398,0.140625 0.260742,0.2109375 0.457031,0.2109375 0.216797,0 0.439453,-0.0498047 0.667969,-0.15234375 V -3.7374453 l -0.386719,-0.1054688 v -0.2929687 h 1.652344 v 3.73828124 l 0.410156,0.10546875 V 8.359375e-4 h -1.605469 z m 4.40332,-2.90624999 c 0.310547,-0.3515625 0.591797,-0.6035156 0.84375,-0.7617188 0.257813,-0.1552734 0.486328,-0.234375 0.691407,-0.234375 h 0.234375 v 1.5117188 h -0.246094 l -0.257813,-0.5507813 c -0.18164,0 -0.386718,0.041016 -0.621093,0.1171875 -0.234375,0.079102 -0.442383,0.1728516 -0.621094,0.28125 v 2.50781254 l 0.65625,0.10546875 V 8.359375e-4 H 19.619531 V -0.29213281 l 0.527344,-0.10546875 V -3.7374453 l -0.527344,-0.1054688 v -0.2929687 h 1.734375 z m 4.836914,-0.9492188 c 1.03125,0 1.546875,0.3808594 1.546875,1.1367188 v 2.68359374 l 0.410157,0.10546875 V 8.359375e-4 H 26.683008 L 26.577539,-0.31557031 C 26.349023,-0.15736719 26.143945,-0.05189844 25.956445,8.359375e-4 25.774805,0.06235938 25.593164,0.09458594 25.405664,0.09458594 c -0.852539,0 -1.277344,-0.41308594 -1.277344,-1.24218754 0,-0.3046875 0.06152,-0.5507812 0.1875,-0.7382812 0.123047,-0.1875 0.304688,-0.3222656 0.539063,-0.4101563 0.240234,-0.09375 0.615234,-0.1435546 1.125,-0.1523437 l 0.539062,-0.011719 v -0.609375 c 0,-0.4980468 -0.205078,-0.75 -0.609375,-0.75 -0.251953,0 -0.527343,0.079102 -0.832031,0.234375 l -0.164062,0.515625 h -0.292969 v -0.9960937 c 0.445312,-0.070312 0.767578,-0.1113281 0.972656,-0.1289063 0.210938,-0.014648 0.424805,-0.023437 0.644531,-0.023437 z m 0.28125,2.1445313 -0.375,0.011719 c -0.28125,0.017578 -0.477539,0.09375 -0.585937,0.234375 -0.111328,0.1347657 -0.164063,0.3515625 -0.164063,0.65625 0,0.25195316 0.04102,0.43359379 0.128907,0.55078129 0.08496,0.1171875 0.199218,0.17578125 0.339843,0.17578125 0.202149,0 0.421875,-0.0498047 0.65625,-0.15234375 z m 13.508789,-2.0742188 c 0,-0.46875 -0.09082,-0.796875 -0.269531,-0.984375 -0.172851,-0.1875 -0.477539,-0.28125 -0.914062,-0.28125 h -0.351563 v 2.6132813 h 0.363281 c 0.404297,0 0.703125,-0.099609 0.890625,-0.3046875 0.1875,-0.2021484 0.28125,-0.5507813 0.28125,-1.0429688 z m -1.535156,1.8398438 v 1.86328124 l 0.984375,0.12890625 V 8.359375e-4 H 36.406641 V -0.31557031 l 0.703125,-0.12890625 V -5.4601016 l -0.761719,-0.1171875 v -0.3164062 h 2.601562 c 0.834961,0 1.456055,0.140625 1.863282,0.421875 0.413086,0.28125 0.621093,0.7207031 0.621093,1.3125 0,1.2363281 -0.714843,1.8515625 -2.144531,1.8515625 z m 6.679688,1.82812499 1.019531,0.10546875 V 8.359375e-4 H 42.887109 V -0.37416406 l 1.019532,-0.10546875 V -4.9210391 l -1.019532,0.328125 v -0.375 l 1.664063,-0.9726562 h 0.621094 z m 3.079101,0.609375 c -0.205078,0 -0.375,-0.0703125 -0.515625,-0.2109375 -0.140625,-0.140625 -0.210937,-0.31054688 -0.210937,-0.515625 0,-0.20214844 0.07031,-0.375 0.210937,-0.51562499 0.140625,-0.1464844 0.310547,-0.2226563 0.515625,-0.2226563 0.202149,0 0.375,0.070312 0.515625,0.2109375 0.140625,0.14062504 0.210938,0.31640629 0.210938,0.52734379 0,0.19628906 -0.07031,0.36914062 -0.210938,0.515625 -0.140625,0.140625 -0.313476,0.2109375 -0.515625,0.2109375 z m 4.605469,-0.609375 1.019531,0.10546875 V 8.359375e-4 H 50.57168 V -0.37416406 l 1.019531,-0.10546875 V -4.9210391 l -1.019531,0.328125 v -0.375 l 1.664062,-0.9726562 h 0.621094 z m 4.96582,0 1.019532,0.10546875 V 8.359375e-4 H 55.5375 V -0.37416406 l 1.019531,-0.10546875 V -4.9210391 l -1.019531,0.328125 v -0.375 l 1.664063,-0.9726562 h 0.621093 z m 3.082032,0.609375 c -0.205079,0 -0.375,-0.0703125 -0.515625,-0.2109375 -0.140625,-0.140625 -0.210938,-0.31054688 -0.210938,-0.515625 0,-0.20214844 0.07031,-0.375 0.210938,-0.51562499 0.140625,-0.1464844 0.310546,-0.2226563 0.515625,-0.2226563 0.202148,0 0.375,0.070312 0.515625,0.2109375 0.140625,0.14062504 0.210937,0.31640629 0.210937,0.52734379 0,0.19628906 -0.07031,0.36914062 -0.210937,0.515625 -0.140625,0.140625 -0.313477,0.2109375 -0.515625,0.2109375 z M 65.84707,-2.1788516 c 0,-0.5449218 -0.06738,-0.9433593 -0.199218,-1.1953125 -0.134766,-0.2490234 -0.351563,-0.375 -0.65625,-0.375 -0.111329,0 -0.231446,0.011719 -0.363282,0.035156 -0.134765,0.023437 -0.243164,0.058594 -0.328125,0.1054687 v 3.16406254 c 0.1875,0.046875 0.416016,0.0703125 0.691407,0.0703125 0.287109,0 0.503906,-0.140625 0.644531,-0.421875 C 65.776758,-1.0772891 65.84707,-1.53725 65.84707,-2.1788516 Z m -2.8125,-3.6796875 -0.421875,-0.1054687 v -0.28125 h 1.6875 v 1.5117187 c 0,0.2753907 -0.01758,0.5507813 -0.04687,0.8320313 0.117188,-0.09375 0.28418,-0.1699219 0.503907,-0.234375 0.225586,-0.070312 0.445312,-0.1054688 0.65625,-0.1054688 0.600586,0 1.037109,0.1640625 1.3125,0.4921875 0.272461,0.328125 0.410156,0.8525391 0.410156,1.5703125 0,0.7119141 -0.175781,1.27148441 -0.527344,1.67578129 -0.351562,0.3984375 -0.849609,0.59765625 -1.488281,0.59765625 -0.477539,0 -1.171875,-0.09960938 -2.085938,-0.3046875 z m 0,0"
         style="fill:#000000;fill-opacity:1;fill-rule:nonzero;stroke:none" />
      <path
         id="path328"
         d="m -328.66172,-702.89858 v -6.1875 h 4.69922 v 0.67969 h -3.85547 v 1.99219 h 3.58594 v 0.66797 h -3.58594 v 2.15625 h 4.03125 v 0.6914 z m 5.80371,0 v -6.52734 h 0.78516 v 6.52734 z m 2.54004,-2.21484 c 0,0.54785 0.1084,0.96972 0.32813,1.26562 0.22558,0.29883 0.55664,0.44532 0.99609,0.44532 0.34277,0 0.61523,-0.0645 0.82031,-0.19922 0.21094,-0.14063 0.35157,-0.31641 0.42188,-0.52735 l 0.6914,0.1875 c -0.28125,0.75879 -0.92578,1.13672 -1.93359,1.13672 -0.70312,0 -1.23926,-0.21094 -1.60547,-0.63281 -0.36914,-0.42188 -0.55078,-1.0459 -0.55078,-1.875 0,-0.7793 0.18164,-1.37695 0.55078,-1.79297 0.36621,-0.42187 0.89063,-0.63281 1.57031,-0.63281 1.39746,0 2.09766,0.84082 2.09766,2.51953 v 0.10547 z m 2.56641,-0.59766 c -0.041,-0.50683 -0.16406,-0.87304 -0.375,-1.10156 -0.21094,-0.22559 -0.51563,-0.33984 -0.91406,-0.33984 -0.38379,0 -0.68848,0.1289 -0.91407,0.38671 -0.21972,0.25196 -0.33984,0.60352 -0.36328,1.05469 z m 2.35547,0.41016 c 0,0.63281 0.0967,1.10156 0.29297,1.40625 0.20214,0.30469 0.50683,0.45703 0.91406,0.45703 0.28125,0 0.51562,-0.0732 0.70312,-0.22266 0.1875,-0.15527 0.30469,-0.38965 0.35157,-0.70312 l 0.79687,0.0469 c -0.0645,0.46289 -0.25781,0.8291 -0.58594,1.10157 -0.32812,0.27539 -0.74707,0.41015 -1.2539,0.41015 -0.66504,0 -1.17188,-0.21094 -1.52344,-0.63281 -0.3457,-0.42188 -0.51563,-1.03418 -0.51563,-1.83984 0,-0.80274 0.17579,-1.41211 0.52735,-1.82813 0.35156,-0.42187 0.85547,-0.63281 1.51172,-0.63281 0.48339,0 0.88476,0.12597 1.20703,0.375 0.31933,0.25195 0.52148,0.59765 0.60937,1.04297 l -0.82031,0.0586 c -0.041,-0.26367 -0.14648,-0.47168 -0.31641,-0.62109 -0.16406,-0.15528 -0.39843,-0.23438 -0.70312,-0.23438 -0.42188,0 -0.72656,0.14063 -0.91406,0.42188 -0.1875,0.27539 -0.28125,0.73828 -0.28125,1.39453 z m 5.66015,2.36719 c -0.2666,0.0703 -0.5332,0.10546 -0.79687,0.10546 -0.63281,0 -0.94922,-0.35742 -0.94922,-1.07812 v -3.17578 h -0.55078 v -0.57422 h 0.57422 l 0.23437,-1.06641 h 0.52735 v 1.06641 h 0.8789 v 0.57422 h -0.8789 v 3 c 0,0.23437 0.0351,0.39844 0.10546,0.49219 0.0762,0.0879 0.21094,0.1289 0.39844,0.1289 0.0996,0 0.25195,-0.0176 0.45703,-0.0586 z m 0.61817,0.0351 v -3.64453 c 0,-0.33398 -0.009,-0.70605 -0.0234,-1.11328 h 0.75 c 0.0234,0.53906 0.0352,0.86426 0.0352,0.97266 h 0.0117 c 0.12305,-0.4043 0.26954,-0.68262 0.4336,-0.83204 0.16406,-0.14648 0.39844,-0.22265 0.70312,-0.22265 0.0996,0 0.20508,0.0117 0.31641,0.0352 v 0.72657 c -0.10254,-0.0234 -0.24316,-0.0352 -0.42188,-0.0352 -0.32812,0 -0.58007,0.14063 -0.75,0.42188 -0.17285,0.28125 -0.25781,0.68554 -0.25781,1.20703 v 2.48437 z m 6.93457,-2.3789 c 0,0.8291 -0.18457,1.45019 -0.55078,1.86328 -0.36914,0.40722 -0.89942,0.60937 -1.59375,0.60937 -0.69727,0 -1.22461,-0.21094 -1.58204,-0.63281 -0.35156,-0.42773 -0.52734,-1.04297 -0.52734,-1.83984 0,-1.64063 0.70899,-2.46094 2.13281,-2.46094 0.72657,0 1.25977,0.19922 1.60547,0.59765 0.34278,0.39844 0.51563,1.01954 0.51563,1.86329 z m -0.83203,0 c 0,-0.65625 -0.0996,-1.13086 -0.29297,-1.42969 -0.19629,-0.2959 -0.52442,-0.44531 -0.98438,-0.44531 -0.46289,0 -0.79687,0.15234 -1.00781,0.45703 -0.20508,0.29883 -0.30469,0.7705 -0.30469,1.41797 0,0.62695 0.0996,1.09863 0.30469,1.41796 0.20215,0.31348 0.52148,0.46875 0.96094,0.46875 0.47461,0 0.81445,-0.15234 1.01953,-0.45703 0.20215,-0.30468 0.30469,-0.77929 0.30469,-1.42968 z m 4.75781,2.3789 v -3.01172 c 0,-0.31054 -0.0322,-0.55371 -0.0937,-0.72656 -0.0557,-0.17871 -0.15235,-0.30469 -0.29297,-0.375 -0.13477,-0.0762 -0.32813,-0.11719 -0.58594,-0.11719 -0.38379,0 -0.68554,0.13477 -0.90234,0.39844 -0.21973,0.25781 -0.32813,0.61816 -0.32813,1.07813 v 2.7539 h -0.79687 v -3.73828 c 0,-0.55371 -0.009,-0.89355 -0.0234,-1.01953 h 0.75 c 0,0.0176 0,0.0586 0,0.12891 0.006,0.0644 0.0117,0.13769 0.0117,0.22265 0.006,0.0791 0.0147,0.23438 0.0234,0.46875 h 0.0117 c 0.17871,-0.32812 0.38671,-0.55664 0.62109,-0.6914 0.24023,-0.14063 0.54199,-0.21094 0.90234,-0.21094 0.51563,0 0.89356,0.1289 1.13672,0.38672 0.24024,0.25781 0.36328,0.68847 0.36328,1.28906 v 3.16406 z m 1.91308,-5.76562 v -0.76172 h 0.79688 v 0.76172 z m 0,5.76562 v -4.75781 h 0.79688 v 4.75781 z m 2.53711,-2.40234 c 0,0.63281 0.0967,1.10156 0.29297,1.40625 0.20215,0.30469 0.50684,0.45703 0.91406,0.45703 0.28125,0 0.51563,-0.0732 0.70313,-0.22266 0.1875,-0.15527 0.30469,-0.38965 0.35156,-0.70312 l 0.79688,0.0469 c -0.0645,0.46289 -0.25782,0.8291 -0.58594,1.10157 -0.32813,0.27539 -0.74707,0.41015 -1.25391,0.41015 -0.66504,0 -1.17187,-0.21094 -1.52343,-0.63281 -0.34571,-0.42188 -0.51563,-1.03418 -0.51563,-1.83984 0,-0.80274 0.17578,-1.41211 0.52734,-1.82813 0.35157,-0.42187 0.85547,-0.63281 1.51172,-0.63281 0.4834,0 0.88477,0.12597 1.20703,0.375 0.31934,0.25195 0.52149,0.59765 0.60938,1.04297 l -0.82031,0.0586 c -0.041,-0.26367 -0.14649,-0.47168 -0.31641,-0.62109 -0.16406,-0.15528 -0.39844,-0.23438 -0.70312,-0.23438 -0.42188,0 -0.72657,0.14063 -0.91407,0.42188 -0.1875,0.27539 -0.28125,0.73828 -0.28125,1.39453 z m 5.042,2.49609 c -0.47754,0 -0.83789,-0.12304 -1.07813,-0.375 -0.23437,-0.25781 -0.35156,-0.60351 -0.35156,-1.04297 0,-0.49218 0.1582,-0.87011 0.48047,-1.13672 0.32812,-0.26367 0.84961,-0.40429 1.57031,-0.42187 l 1.06641,-0.0234 v -0.25781 c 0,-0.38086 -0.082,-0.65625 -0.2461,-0.82031 -0.16406,-0.16992 -0.42187,-0.25782 -0.77344,-0.25782 -0.35156,0 -0.60937,0.0645 -0.77343,0.1875 -0.16407,0.11719 -0.26367,0.31055 -0.29297,0.57422 l -0.82031,-0.082 c 0.13183,-0.84961 0.76464,-1.27734 1.89843,-1.27734 0.60059,0 1.04883,0.13769 1.34766,0.41015 0.30469,0.2754 0.45703,0.66797 0.45703,1.1836 v 2.05078 c 0,0.23437 0.0293,0.41016 0.0937,0.52734 0.0615,0.11719 0.17871,0.17578 0.35156,0.17578 0.0762,0 0.16407,-0.006 0.25782,-0.0234 v 0.49218 c -0.19629,0.0469 -0.39844,0.0703 -0.60938,0.0703 -0.29004,0 -0.50391,-0.0762 -0.64453,-0.23438 -0.13477,-0.15527 -0.20801,-0.39844 -0.22266,-0.72656 h -0.0234 c -0.20508,0.36914 -0.44239,0.62988 -0.71485,0.78516 -0.2666,0.14648 -0.59179,0.22265 -0.97265,0.22265 z m 0.1875,-0.59765 c 0.28711,0 0.54492,-0.0645 0.77343,-0.19922 0.22559,-0.13184 0.40137,-0.31055 0.52735,-0.53907 0.13183,-0.23437 0.19922,-0.47168 0.19922,-0.71484 v -0.38672 l -0.86719,0.0117 c -0.375,0.009 -0.66211,0.0469 -0.85547,0.11719 -0.1875,0.0703 -0.33398,0.18164 -0.43359,0.32812 -0.10254,0.14063 -0.15235,0.33399 -0.15235,0.57422 0,0.25781 0.0703,0.45703 0.21094,0.59766 0.14062,0.14062 0.33984,0.21094 0.59766,0.21094 z m 10.89257,-1.24219 c 0,0.55664 -0.20507,0.98437 -0.60937,1.28906 -0.39844,0.30469 -0.95508,0.45703 -1.66406,0.45703 h -2.51953 v -6.1875 h 2.25 c 1.45312,0 2.17968,0.50098 2.17968,1.5 0,0.36914 -0.10254,0.67676 -0.30468,0.92578 -0.20508,0.24317 -0.49219,0.40723 -0.86719,0.49219 0.49219,0.0644 0.87011,0.23145 1.13672,0.50391 0.26367,0.2666 0.39843,0.60644 0.39843,1.01953 z m -1.20703,-2.84766 c 0,-0.32812 -0.11426,-0.5625 -0.33984,-0.70312 -0.22852,-0.14649 -0.55957,-0.22266 -0.99609,-0.22266 h -1.40625 v 1.95703 h 1.40625 c 0.44531,0 0.77636,-0.082 0.99609,-0.24609 0.22558,-0.16992 0.33984,-0.4336 0.33984,-0.78516 z m 0.35157,2.77735 c 0,-0.72657 -0.5127,-1.08985 -1.53516,-1.08985 h -1.55859 v 2.23828 h 1.6289 c 0.50684,0 0.87891,-0.0937 1.11328,-0.28125 0.23438,-0.19336 0.35157,-0.4834 0.35157,-0.86718 z m 3.07617,1.91015 c -0.47754,0 -0.83789,-0.12304 -1.07813,-0.375 -0.23437,-0.25781 -0.35156,-0.60351 -0.35156,-1.04297 0,-0.49218 0.1582,-0.87011 0.48047,-1.13672 0.32812,-0.26367 0.84961,-0.40429 1.57031,-0.42187 l 1.06641,-0.0234 v -0.25781 c 0,-0.38086 -0.082,-0.65625 -0.2461,-0.82031 -0.16406,-0.16992 -0.42187,-0.25782 -0.77343,-0.25782 -0.35157,0 -0.60938,0.0645 -0.77344,0.1875 -0.16406,0.11719 -0.26367,0.31055 -0.29297,0.57422 l -0.82031,-0.082 c 0.13183,-0.84961 0.76465,-1.27734 1.89843,-1.27734 0.60059,0 1.04883,0.13769 1.34766,0.41015 0.30469,0.2754 0.45703,0.66797 0.45703,1.1836 v 2.05078 c 0,0.23437 0.0293,0.41016 0.0937,0.52734 0.0615,0.11719 0.17871,0.17578 0.35156,0.17578 0.0762,0 0.16407,-0.006 0.25782,-0.0234 v 0.49218 c -0.19629,0.0469 -0.39844,0.0703 -0.60938,0.0703 -0.29004,0 -0.5039,-0.0762 -0.64453,-0.23438 -0.13476,-0.15527 -0.20801,-0.39844 -0.22266,-0.72656 h -0.0234 c -0.20508,0.36914 -0.44239,0.62988 -0.71485,0.78516 -0.2666,0.14648 -0.59179,0.22265 -0.97265,0.22265 z m 0.1875,-0.59765 c 0.28711,0 0.54492,-0.0645 0.77343,-0.19922 0.22559,-0.13184 0.40137,-0.31055 0.52735,-0.53907 0.13183,-0.23437 0.19922,-0.47168 0.19922,-0.71484 v -0.38672 l -0.86719,0.0117 c -0.375,0.009 -0.66211,0.0469 -0.85547,0.11719 -0.1875,0.0703 -0.33398,0.18164 -0.43359,0.32812 -0.10254,0.14063 -0.15235,0.33399 -0.15235,0.57422 0,0.25781 0.0703,0.45703 0.21094,0.59766 0.14063,0.14062 0.33984,0.21094 0.59766,0.21094 z m -0.1875,-4.76954 v -0.0937 l 0.94922,-1.26562 h 0.91406 v 0.12891 l -1.45313,1.23046 z m 7.28906,3.96094 c 0,0.44531 -0.16992,0.79395 -0.50391,1.04297 -0.33691,0.24316 -0.80859,0.36328 -1.41797,0.36328 -0.59472,0 -1.05175,-0.0967 -1.37109,-0.29297 -0.32226,-0.19336 -0.5332,-0.49804 -0.63281,-0.91406 l 0.70312,-0.14062 c 0.0703,0.25781 0.21094,0.44531 0.42188,0.5625 0.21094,0.11718 0.5039,0.17578 0.8789,0.17578 0.39844,0 0.69141,-0.0586 0.87891,-0.17578 0.1875,-0.12305 0.28125,-0.31055 0.28125,-0.5625 0,-0.1875 -0.0674,-0.33985 -0.19922,-0.45704 -0.12597,-0.11718 -0.33398,-0.21386 -0.62109,-0.29296 l -0.5625,-0.14063 c -0.46289,-0.11719 -0.79102,-0.22851 -0.98438,-0.33984 -0.1875,-0.11719 -0.33691,-0.25782 -0.44531,-0.42188 -0.10254,-0.16406 -0.15234,-0.36328 -0.15234,-0.59765 0,-0.42774 0.15234,-0.75586 0.45703,-0.98438 0.31055,-0.22559 0.76172,-0.33984 1.34765,-0.33984 0.53028,0 0.94922,0.0937 1.25391,0.28125 0.31055,0.18164 0.50684,0.47461 0.58594,0.8789 l -0.71485,0.0937 c -0.041,-0.21093 -0.1582,-0.36914 -0.35156,-0.48047 -0.1875,-0.11718 -0.44531,-0.17578 -0.77344,-0.17578 -0.35156,0 -0.61523,0.0557 -0.78515,0.16407 -0.17285,0.11132 -0.25781,0.27539 -0.25781,0.49218 0,0.13477 0.0351,0.24317 0.10546,0.32813 0.0703,0.0879 0.16993,0.16113 0.30469,0.22265 0.14063,0.0645 0.4336,0.14942 0.87891,0.25782 0.42187,0.11133 0.7207,0.208 0.90234,0.29297 0.1875,0.0879 0.33106,0.18457 0.4336,0.29296 0.10839,0.11133 0.19043,0.24024 0.24609,0.38672 0.0615,0.14063 0.0937,0.30176 0.0937,0.48047 z m 0.85547,-4.45312 v -0.76172 h 0.79687 v 0.76172 z m 0,5.76562 v -4.75781 h 0.79687 v 4.75781 z m 2.54004,-2.40234 c 0,0.63281 0.0967,1.10156 0.29297,1.40625 0.20214,0.30469 0.50683,0.45703 0.91406,0.45703 0.28125,0 0.51562,-0.0732 0.70312,-0.22266 0.1875,-0.15527 0.30469,-0.38965 0.35157,-0.70312 l 0.79687,0.0469 c -0.0644,0.46289 -0.25781,0.8291 -0.58594,1.10157 -0.32812,0.27539 -0.74707,0.41015 -1.2539,0.41015 -0.66504,0 -1.17188,-0.21094 -1.52344,-0.63281 -0.3457,-0.42188 -0.51563,-1.03418 -0.51563,-1.83984 0,-0.80274 0.17579,-1.41211 0.52735,-1.82813 0.35156,-0.42187 0.85547,-0.63281 1.51172,-0.63281 0.4834,0 0.88476,0.12597 1.20703,0.375 0.31933,0.25195 0.52148,0.59765 0.60937,1.04297 l -0.82031,0.0586 c -0.041,-0.26367 -0.14648,-0.47168 -0.31641,-0.62109 -0.16406,-0.15528 -0.39843,-0.23438 -0.70312,-0.23438 -0.42188,0 -0.72656,0.14063 -0.91406,0.42188 -0.1875,0.27539 -0.28125,0.73828 -0.28125,1.39453 z m 5.03906,2.49609 c -0.47754,0 -0.83789,-0.12304 -1.07813,-0.375 -0.23437,-0.25781 -0.35156,-0.60351 -0.35156,-1.04297 0,-0.49218 0.15821,-0.87011 0.48047,-1.13672 0.32813,-0.26367 0.84961,-0.40429 1.57031,-0.42187 l 1.06641,-0.0234 v -0.25781 c 0,-0.38086 -0.082,-0.65625 -0.24609,-0.82031 -0.16407,-0.16992 -0.42188,-0.25782 -0.77344,-0.25782 -0.35156,0 -0.60938,0.0645 -0.77344,0.1875 -0.16406,0.11719 -0.26367,0.31055 -0.29297,0.57422 l -0.82031,-0.082 c 0.13184,-0.84961 0.76465,-1.27734 1.89844,-1.27734 0.60058,0 1.04883,0.13769 1.34765,0.41015 0.30469,0.2754 0.45703,0.66797 0.45703,1.1836 v 2.05078 c 0,0.23437 0.0293,0.41016 0.0937,0.52734 0.0615,0.11719 0.17872,0.17578 0.35157,0.17578 0.0762,0 0.16406,-0.006 0.25781,-0.0234 v 0.49218 c -0.19629,0.0469 -0.39844,0.0703 -0.60938,0.0703 -0.29003,0 -0.5039,-0.0762 -0.64453,-0.23438 -0.13476,-0.15527 -0.208,-0.39844 -0.22265,-0.72656 h -0.0234 c -0.20508,0.36914 -0.44238,0.62988 -0.71484,0.78516 -0.26661,0.14648 -0.5918,0.22265 -0.97266,0.22265 z m 0.1875,-0.59765 c 0.28711,0 0.54492,-0.0645 0.77344,-0.19922 0.22558,-0.13184 0.40136,-0.31055 0.52734,-0.53907 0.13184,-0.23437 0.19922,-0.47168 0.19922,-0.71484 v -0.38672 l -0.86719,0.0117 c -0.375,0.009 -0.66211,0.0469 -0.85547,0.11719 -0.1875,0.0703 -0.33398,0.18164 -0.43359,0.32812 -0.10254,0.14063 -0.15234,0.33399 -0.15234,0.57422 0,0.25781 0.0703,0.45703 0.21093,0.59766 0.14063,0.14062 0.33985,0.21094 0.59766,0.21094 z m 9.99316,-1.89844 c 0,1.66406 -0.583,2.49609 -1.74609,2.49609 -0.73535,0 -1.22754,-0.27539 -1.47656,-0.83203 h -0.0234 c 0.006,0.0234 0.0117,0.27539 0.0117,0.75 v 1.85156 h -0.78516 v -5.64843 c 0,-0.49219 -0.009,-0.81446 -0.0234,-0.97266 h 0.76171 c 0,0.0176 0.003,0.0586 0.0117,0.12891 0.006,0.0703 0.0146,0.18164 0.0234,0.32812 0.006,0.14941 0.0117,0.25195 0.0117,0.30469 h 0.0117 c 0.14062,-0.28711 0.32226,-0.49805 0.55078,-0.63281 0.23437,-0.14063 0.54199,-0.21094 0.92578,-0.21094 0.58594,0 1.02246,0.19922 1.3125,0.59765 0.28711,0.39258 0.43359,1.00489 0.43359,1.83985 z m -0.83203,0.0234 c 0,-0.66211 -0.0908,-1.13672 -0.26953,-1.41797 -0.18164,-0.28711 -0.46582,-0.4336 -0.85547,-0.4336 -0.31347,0 -0.55957,0.0674 -0.73828,0.19922 -0.17285,0.13477 -0.30469,0.33985 -0.39844,0.6211 -0.0937,0.28125 -0.14062,0.64453 -0.14062,1.08984 0,0.62695 0.0967,1.08691 0.29297,1.38281 0.20215,0.29883 0.53027,0.44531 0.98437,0.44531 0.38965,0 0.67383,-0.14355 0.85547,-0.43359 0.17871,-0.28711 0.26953,-0.77344 0.26953,-1.45312 z m 2.95313,2.47265 c -0.47754,0 -0.83789,-0.12304 -1.07813,-0.375 -0.23437,-0.25781 -0.35156,-0.60351 -0.35156,-1.04297 0,-0.49218 0.1582,-0.87011 0.48047,-1.13672 0.32812,-0.26367 0.84961,-0.40429 1.57031,-0.42187 l 1.06641,-0.0234 v -0.25781 c 0,-0.38086 -0.082,-0.65625 -0.2461,-0.82031 -0.16406,-0.16992 -0.42187,-0.25782 -0.77343,-0.25782 -0.35157,0 -0.60938,0.0645 -0.77344,0.1875 -0.16406,0.11719 -0.26367,0.31055 -0.29297,0.57422 l -0.82031,-0.082 c 0.13183,-0.84961 0.76465,-1.27734 1.89844,-1.27734 0.60058,0 1.04882,0.13769 1.34765,0.41015 0.30469,0.2754 0.45703,0.66797 0.45703,1.1836 v 2.05078 c 0,0.23437 0.0293,0.41016 0.0937,0.52734 0.0615,0.11719 0.17871,0.17578 0.35157,0.17578 0.0762,0 0.16406,-0.006 0.25781,-0.0234 v 0.49218 c -0.19629,0.0469 -0.39844,0.0703 -0.60938,0.0703 -0.29004,0 -0.5039,-0.0762 -0.64453,-0.23438 -0.13476,-0.15527 -0.20801,-0.39844 -0.22265,-0.72656 h -0.0234 c -0.20508,0.36914 -0.44239,0.62988 -0.71485,0.78516 -0.2666,0.14648 -0.59179,0.22265 -0.97265,0.22265 z m 0.1875,-0.59765 c 0.28711,0 0.54492,-0.0645 0.77344,-0.19922 0.22558,-0.13184 0.40136,-0.31055 0.52734,-0.53907 0.13183,-0.23437 0.19922,-0.47168 0.19922,-0.71484 v -0.38672 l -0.86719,0.0117 c -0.375,0.009 -0.66211,0.0469 -0.85547,0.11719 -0.1875,0.0703 -0.33398,0.18164 -0.43359,0.32812 -0.10254,0.14063 -0.15235,0.33399 -0.15235,0.57422 0,0.25781 0.0703,0.45703 0.21094,0.59766 0.14063,0.14062 0.33985,0.21094 0.59766,0.21094 z m 3.55371,0.5039 v -3.64453 c 0,-0.33398 -0.009,-0.70605 -0.0234,-1.11328 h 0.75 c 0.0234,0.53906 0.0352,0.86426 0.0352,0.97266 h 0.0117 c 0.12304,-0.4043 0.26953,-0.68262 0.43359,-0.83204 0.16406,-0.14648 0.39844,-0.22265 0.70312,-0.22265 0.0996,0 0.20508,0.0117 0.31641,0.0352 v 0.72657 c -0.10254,-0.0234 -0.24316,-0.0352 -0.42187,-0.0352 -0.32813,0 -0.58008,0.14063 -0.75,0.42188 -0.17286,0.28125 -0.25782,0.68554 -0.25782,1.20703 v 2.48437 z m 4.12207,0.0937 c -0.47754,0 -0.83789,-0.12304 -1.07813,-0.375 -0.23437,-0.25781 -0.35156,-0.60351 -0.35156,-1.04297 0,-0.49218 0.1582,-0.87011 0.48047,-1.13672 0.32813,-0.26367 0.84961,-0.40429 1.57031,-0.42187 l 1.06641,-0.0234 v -0.25781 c 0,-0.38086 -0.082,-0.65625 -0.24609,-0.82031 -0.16407,-0.16992 -0.42188,-0.25782 -0.77344,-0.25782 -0.35156,0 -0.60938,0.0645 -0.77344,0.1875 -0.16406,0.11719 -0.26367,0.31055 -0.29297,0.57422 l -0.82031,-0.082 c 0.13183,-0.84961 0.76465,-1.27734 1.89844,-1.27734 0.60058,0 1.04882,0.13769 1.34765,0.41015 0.30469,0.2754 0.45703,0.66797 0.45703,1.1836 v 2.05078 c 0,0.23437 0.0293,0.41016 0.0937,0.52734 0.0615,0.11719 0.17871,0.17578 0.35157,0.17578 0.0762,0 0.16406,-0.006 0.25781,-0.0234 v 0.49218 c -0.19629,0.0469 -0.39844,0.0703 -0.60938,0.0703 -0.29004,0 -0.5039,-0.0762 -0.64453,-0.23438 -0.13476,-0.15527 -0.20801,-0.39844 -0.22265,-0.72656 h -0.0234 c -0.20508,0.36914 -0.44238,0.62988 -0.71484,0.78516 -0.26661,0.14648 -0.5918,0.22265 -0.97266,0.22265 z m 0.1875,-0.59765 c 0.28711,0 0.54492,-0.0645 0.77344,-0.19922 0.22558,-0.13184 0.40136,-0.31055 0.52734,-0.53907 0.13184,-0.23437 0.19922,-0.47168 0.19922,-0.71484 v -0.38672 l -0.86719,0.0117 c -0.375,0.009 -0.66211,0.0469 -0.85547,0.11719 -0.1875,0.0703 -0.33398,0.18164 -0.43359,0.32812 -0.10254,0.14063 -0.15234,0.33399 -0.15234,0.57422 0,0.25781 0.0703,0.45703 0.21093,0.59766 0.14063,0.14062 0.33985,0.21094 0.59766,0.21094 z m 6.19629,0.5039 v -6.1875 h 0.84375 v 6.1875 z m 5.2207,0 v -3.01172 c 0,-0.31054 -0.0322,-0.55371 -0.0937,-0.72656 -0.0557,-0.17871 -0.15234,-0.30469 -0.29297,-0.375 -0.13476,-0.0762 -0.32812,-0.11719 -0.58594,-0.11719 -0.38378,0 -0.68554,0.13477 -0.90234,0.39844 -0.21973,0.25781 -0.32812,0.61816 -0.32812,1.07813 v 2.7539 h -0.79688 v -3.73828 c 0,-0.55371 -0.009,-0.89355 -0.0234,-1.01953 h 0.75 c 0,0.0176 0,0.0586 0,0.12891 0.006,0.0644 0.0117,0.13769 0.0117,0.22265 0.006,0.0791 0.0147,0.23438 0.0234,0.46875 h 0.0117 c 0.17871,-0.32812 0.38672,-0.55664 0.62109,-0.6914 0.24024,-0.14063 0.54199,-0.21094 0.90235,-0.21094 0.51562,0 0.89355,0.1289 1.13671,0.38672 0.24024,0.25781 0.36329,0.68847 0.36329,1.28906 v 3.16406 z m 3.72656,1.86328 c -0.52441,0 -0.94336,-0.10254 -1.2539,-0.30468 -0.30469,-0.20508 -0.50098,-0.49219 -0.58594,-0.86719 l 0.79687,-0.10547 c 0.0527,0.2168 0.16993,0.38672 0.35157,0.50391 0.17871,0.11718 0.41308,0.17578 0.70312,0.17578 0.78809,0 1.1836,-0.46289 1.1836,-1.38282 v -0.76171 c -0.15821,0.30468 -0.36329,0.53613 -0.6211,0.6914 -0.25781,0.14942 -0.5625,0.22266 -0.91406,0.22266 -0.58594,0 -1.0166,-0.19043 -1.28906,-0.57422 -0.27539,-0.38965 -0.41016,-0.99902 -0.41016,-1.82813 0,-0.84375 0.14649,-1.46484 0.44531,-1.86328 0.2959,-0.39843 0.74414,-0.59765 1.34766,-0.59765 0.33398,0 0.62402,0.0791 0.86719,0.23437 0.24902,0.14942 0.43945,0.36914 0.57422,0.65625 h 0.0117 c 0,-0.0937 0.003,-0.24609 0.0117,-0.45703 0.0147,-0.2168 0.0293,-0.33984 0.0469,-0.36328 h 0.75 c -0.0234,0.1582 -0.0352,0.48633 -0.0352,0.98437 v 3.63282 c 0,1.33593 -0.66211,2.0039 -1.98047,2.0039 z m 1.19532,-4.24218 c 0,-0.38086 -0.0557,-0.71485 -0.16407,-0.9961 -0.10254,-0.28125 -0.25195,-0.49512 -0.44531,-0.64453 -0.1875,-0.14648 -0.4043,-0.22266 -0.64453,-0.22266 -0.40723,0 -0.70313,0.14942 -0.89063,0.44532 -0.18164,0.29004 -0.26953,0.76172 -0.26953,1.41797 0,0.65039 0.085,1.11914 0.25782,1.40625 0.16992,0.28125 0.46875,0.42187 0.89062,0.42187 0.24902,0 0.46875,-0.0703 0.65625,-0.21094 0.19336,-0.14648 0.34277,-0.35742 0.44531,-0.63281 0.1084,-0.28125 0.16407,-0.60937 0.16407,-0.98437 z m 2.54589,0.16406 c 0,0.54785 0.1084,0.96972 0.32813,1.26562 0.22559,0.29883 0.55664,0.44532 0.99609,0.44532 0.34278,0 0.61524,-0.0645 0.82032,-0.19922 0.21093,-0.14063 0.35156,-0.31641 0.42187,-0.52735 l 0.69141,0.1875 c -0.28125,0.75879 -0.92578,1.13672 -1.9336,1.13672 -0.70312,0 -1.23925,-0.21094 -1.60547,-0.63281 -0.36914,-0.42188 -0.55078,-1.0459 -0.55078,-1.875 0,-0.7793 0.18164,-1.37695 0.55078,-1.79297 0.36622,-0.42187 0.89063,-0.63281 1.57032,-0.63281 1.39746,0 2.09765,0.84082 2.09765,2.51953 v 0.10547 z m 2.56641,-0.59766 c -0.041,-0.50683 -0.16406,-0.87304 -0.375,-1.10156 -0.21094,-0.22559 -0.51562,-0.33984 -0.91406,-0.33984 -0.38379,0 -0.68848,0.1289 -0.91406,0.38671 -0.21973,0.25196 -0.33985,0.60352 -0.36329,1.05469 z m 4.76953,2.8125 v -3.01172 c 0,-0.31054 -0.0322,-0.55371 -0.0937,-0.72656 -0.0557,-0.17871 -0.15234,-0.30469 -0.29297,-0.375 -0.13476,-0.0762 -0.32812,-0.11719 -0.58593,-0.11719 -0.38379,0 -0.68555,0.13477 -0.90235,0.39844 -0.21972,0.25781 -0.32812,0.61816 -0.32812,1.07813 v 2.7539 h -0.79688 v -3.73828 c 0,-0.55371 -0.009,-0.89355 -0.0234,-1.01953 h 0.75 c 0,0.0176 0,0.0586 0,0.12891 0.006,0.0644 0.0117,0.13769 0.0117,0.22265 0.006,0.0791 0.0147,0.23438 0.0234,0.46875 h 0.0117 c 0.17871,-0.32812 0.38672,-0.55664 0.62109,-0.6914 0.24024,-0.14063 0.542,-0.21094 0.90235,-0.21094 0.51562,0 0.89355,0.1289 1.13672,0.38672 0.24023,0.25781 0.36328,0.68847 0.36328,1.28906 v 3.16406 z m 1.91016,-5.76562 v -0.76172 h 0.79687 v 0.76172 z m 0,5.76562 v -4.75781 h 0.79687 v 4.75781 z m 2.55176,-2.21484 c 0,0.54785 0.10839,0.96972 0.32812,1.26562 0.22559,0.29883 0.55664,0.44532 0.99609,0.44532 0.34278,0 0.61524,-0.0645 0.82032,-0.19922 0.21093,-0.14063 0.35156,-0.31641 0.42187,-0.52735 l 0.69141,0.1875 c -0.28125,0.75879 -0.92578,1.13672 -1.9336,1.13672 -0.70312,0 -1.23925,-0.21094 -1.60546,-0.63281 -0.36914,-0.42188 -0.55079,-1.0459 -0.55079,-1.875 0,-0.7793 0.18165,-1.37695 0.55079,-1.79297 0.36621,-0.42187 0.89062,-0.63281 1.57031,-0.63281 1.39746,0 2.09765,0.84082 2.09765,2.51953 v 0.10547 z m 2.5664,-0.59766 c -0.041,-0.50683 -0.16406,-0.87304 -0.375,-1.10156 -0.21094,-0.22559 -0.51562,-0.33984 -0.91406,-0.33984 -0.38379,0 -0.68848,0.1289 -0.91406,0.38671 -0.21973,0.25196 -0.33985,0.60352 -0.36328,1.05469 z m 1.76953,2.8125 v -3.64453 c 0,-0.33398 -0.009,-0.70605 -0.0234,-1.11328 h 0.75 c 0.0234,0.53906 0.0351,0.86426 0.0351,0.97266 h 0.0117 c 0.12305,-0.4043 0.26953,-0.68262 0.43359,-0.83204 0.16407,-0.14648 0.39844,-0.22265 0.70313,-0.22265 0.0996,0 0.20508,0.0117 0.31641,0.0352 v 0.72657 c -0.10254,-0.0234 -0.24317,-0.0352 -0.42188,-0.0352 -0.32812,0 -0.58008,0.14063 -0.75,0.42188 -0.17285,0.28125 -0.25781,0.68554 -0.25781,1.20703 v 2.48437 z m 6.93457,-2.3789 c 0,0.8291 -0.18457,1.45019 -0.55078,1.86328 -0.36914,0.40722 -0.89941,0.60937 -1.59375,0.60937 -0.69726,0 -1.22461,-0.21094 -1.58203,-0.63281 -0.35156,-0.42773 -0.52734,-1.04297 -0.52734,-1.83984 0,-1.64063 0.70898,-2.46094 2.13281,-2.46094 0.72656,0 1.25977,0.19922 1.60547,0.59765 0.34277,0.39844 0.51562,1.01954 0.51562,1.86329 z m -0.83203,0 c 0,-0.65625 -0.0996,-1.13086 -0.29297,-1.42969 -0.19629,-0.2959 -0.52441,-0.44531 -0.98437,-0.44531 -0.46289,0 -0.79688,0.15234 -1.00781,0.45703 -0.20508,0.29883 -0.30469,0.7705 -0.30469,1.41797 0,0.62695 0.0996,1.09863 0.30469,1.41796 0.20214,0.31348 0.52148,0.46875 0.96093,0.46875 0.47461,0 0.81446,-0.15234 1.01954,-0.45703 0.20214,-0.30468 0.30468,-0.77929 0.30468,-1.42968 z m 5.31153,1.0664 c 0,0.44531 -0.16993,0.79395 -0.50391,1.04297 -0.33691,0.24316 -0.80859,0.36328 -1.41797,0.36328 -0.59473,0 -1.05176,-0.0967 -1.37109,-0.29297 -0.32227,-0.19336 -0.53321,-0.49804 -0.63282,-0.91406 l 0.70313,-0.14062 c 0.0703,0.25781 0.21094,0.44531 0.42187,0.5625 0.21094,0.11718 0.50391,0.17578 0.87891,0.17578 0.39844,0 0.69141,-0.0586 0.87891,-0.17578 0.1875,-0.12305 0.28125,-0.31055 0.28125,-0.5625 0,-0.1875 -0.0674,-0.33985 -0.19922,-0.45704 -0.12598,-0.11718 -0.33399,-0.21386 -0.6211,-0.29296 l -0.5625,-0.14063 c -0.46289,-0.11719 -0.79101,-0.22851 -0.98437,-0.33984 -0.1875,-0.11719 -0.33691,-0.25782 -0.44531,-0.42188 -0.10254,-0.16406 -0.15235,-0.36328 -0.15235,-0.59765 0,-0.42774 0.15235,-0.75586 0.45703,-0.98438 0.31055,-0.22559 0.76172,-0.33984 1.34766,-0.33984 0.53027,0 0.94922,0.0937 1.25391,0.28125 0.31054,0.18164 0.50683,0.47461 0.58593,0.8789 l -0.71484,0.0937 c -0.041,-0.21093 -0.1582,-0.36914 -0.35156,-0.48047 -0.1875,-0.11718 -0.44531,-0.17578 -0.77344,-0.17578 -0.35156,0 -0.61523,0.0557 -0.78516,0.16407 -0.17285,0.11132 -0.25781,0.27539 -0.25781,0.49218 0,0.13477 0.0352,0.24317 0.10547,0.32813 0.0703,0.0879 0.16992,0.16113 0.30469,0.22265 0.14062,0.0645 0.43359,0.14942 0.8789,0.25782 0.42188,0.11133 0.72071,0.208 0.90235,0.29297 0.1875,0.0879 0.33105,0.18457 0.43359,0.29296 0.1084,0.11133 0.19043,0.24024 0.2461,0.38672 0.0615,0.14063 0.0937,0.30176 0.0937,0.48047 z m 0,0"
         style="fill:#000000;fill-opacity:1;fill-rule:nonzero;stroke:none" />
    </g>
    <text
       xml:space="preserve"
       transform="translate(90.036176,651.84817)"
       id="text1"
       style="font-weight:900;font-size:12px;font-family:Roboto;-inkscape-font-specification:'Roboto Heavy';text-align:center;writing-mode:lr-tb;direction:ltr;white-space:pre;shape-inside:url(#rect1);fill:#000000;-inkscape-stroke:none"><tspan
         x="89.557617"
         y="16.5987"
         id="tspan8"><tspan
           style="font-weight:normal;font-family:'times new roman';-inkscape-font-specification:'times new roman, '"
           id="tspan6">V</tspan><tspan
           style="font-weight:normal;font-family:'times new roman';-inkscape-font-specification:'times new roman, ';baseline-shift:sub"
           id="tspan7">DD</tspan></tspan></text>
    <text
       xml:space="preserve"
       transform="translate(137.50459,654.98342)"
       id="text1-5"
       style="font-weight:900;font-size:12px;font-family:Roboto;-inkscape-font-specification:'Roboto Heavy';text-align:center;writing-mode:lr-tb;direction:ltr;white-space:pre;shape-inside:url(#rect1-7);fill:#000000;-inkscape-stroke:none"><tspan
         x="89.557617"
         y="16.5987"
         id="tspan11"><tspan
           style="font-weight:normal;font-family:'times new roman';-inkscape-font-specification:'times new roman, '"
           id="tspan9">V</tspan><tspan
           style="font-weight:normal;font-family:'times new roman';-inkscape-font-specification:'times new roman, ';baseline-shift:sub"
           id="tspan10">DD</tspan></tspan></text>
  </g>
</svg>
