<?xml version="1.0" encoding="UTF-8" standalone="no"?>
<!-- Created with Inkscape (http://www.inkscape.org/) -->

<svg
   width="63.779053mm"
   height="67.5867mm"
   viewBox="0 0 63.779053 67.5867"
   version="1.1"
   id="svg1"
   xmlns="http://www.w3.org/2000/svg"
   xmlns:svg="http://www.w3.org/2000/svg">
  <defs
     id="defs1">
    <clipPath
       clipPathUnits="userSpaceOnUse"
       id="clipPath356-5">
      <path
         d="M 0,841.98 H 595.2 V 0 H 0 Z"
         transform="translate(-429.72902,-245.458)"
         id="path356-6" />
    </clipPath>
    <clipPath
       clipPathUnits="userSpaceOnUse"
       id="clipPath358-3">
      <path
         d="M 0,841.98 H 595.2 V 0 H 0 Z"
         transform="translate(-512.85101,-397.00001)"
         id="path358-9" />
    </clipPath>
    <clipPath
       clipPathUnits="userSpaceOnUse"
       id="clipPath362-4">
      <path
         d="M 0,841.98 H 595.2 V 0 H 0 Z"
         transform="translate(-512.85101,-394.396)"
         id="path362-8" />
    </clipPath>
    <clipPath
       clipPathUnits="userSpaceOnUse"
       id="clipPath384-1">
      <path
         d="M 0,841.98 H 595.2 V 0 H 0 Z"
         transform="translate(-351.788,-258.29801)"
         id="path384-1" />
    </clipPath>
    <clipPath
       clipPathUnits="userSpaceOnUse"
       id="clipPath386-5">
      <path
         d="M 0,841.98 H 595.2 V 0 H 0 Z"
         transform="translate(-351.788,-271.698)"
         id="path386-9" />
    </clipPath>
    <clipPath
       clipPathUnits="userSpaceOnUse"
       id="clipPath388-8">
      <path
         d="M 0,841.98 H 595.2 V 0 H 0 Z"
         transform="translate(-351.788,-285.09801)"
         id="path388-4" />
    </clipPath>
    <clipPath
       clipPathUnits="userSpaceOnUse"
       id="clipPath390-8">
      <path
         d="M 0,841.98 H 595.2 V 0 H 0 Z"
         transform="translate(-351.788,-311.89801)"
         id="path390-1" />
    </clipPath>
    <clipPath
       clipPathUnits="userSpaceOnUse"
       id="clipPath392-0">
      <path
         d="M 0,841.98 H 595.2 V 0 H 0 Z"
         transform="translate(-351.788,-298.49801)"
         id="path392-3" />
    </clipPath>
    <clipPath
       clipPathUnits="userSpaceOnUse"
       id="clipPath394-0">
      <path
         d="M 0,841.98 H 595.2 V 0 H 0 Z"
         transform="translate(-351.788,-338.698)"
         id="path394-4" />
    </clipPath>
    <clipPath
       clipPathUnits="userSpaceOnUse"
       id="clipPath396-4">
      <path
         d="M 0,841.98 H 595.2 V 0 H 0 Z"
         transform="translate(-351.788,-325.29802)"
         id="path396-4" />
    </clipPath>
    <clipPath
       clipPathUnits="userSpaceOnUse"
       id="clipPath398-4">
      <path
         d="M 0,841.98 H 595.2 V 0 H 0 Z"
         transform="translate(-351.788,-378.898)"
         id="path398-7" />
    </clipPath>
    <clipPath
       clipPathUnits="userSpaceOnUse"
       id="clipPath400-6">
      <path
         d="M 0,841.98 H 595.2 V 0 H 0 Z"
         transform="translate(-351.788,-365.49801)"
         id="path400-3" />
    </clipPath>
    <clipPath
       clipPathUnits="userSpaceOnUse"
       id="clipPath402-1">
      <path
         d="M 0,841.98 H 595.2 V 0 H 0 Z"
         transform="translate(-351.788,-392.29801)"
         id="path402-7" />
    </clipPath>
    <clipPath
       clipPathUnits="userSpaceOnUse"
       id="clipPath404-5">
      <path
         d="M 0,841.98 H 595.2 V 0 H 0 Z"
         transform="translate(-351.788,-352.09801)"
         id="path404-9" />
    </clipPath>
    <clipPath
       clipPathUnits="userSpaceOnUse"
       id="clipPath406-6">
      <path
         d="M 0,841.98 H 595.2 V 0 H 0 Z"
         transform="translate(-399.98701,-405.17401)"
         id="path406-2" />
    </clipPath>
    <clipPath
       clipPathUnits="userSpaceOnUse"
       id="clipPath408-1">
      <path
         d="M 0,841.98 H 595.2 V 0 H 0 Z"
         transform="translate(-480.38001,-405.17401)"
         id="path408-7" />
    </clipPath>
    <clipPath
       clipPathUnits="userSpaceOnUse"
       id="clipPath410-8">
      <path
         d="M 0,841.98 H 595.2 V 0 H 0 Z"
         transform="translate(-367.83001,-405.17401)"
         id="path410-5" />
    </clipPath>
    <clipPath
       clipPathUnits="userSpaceOnUse"
       id="clipPath412-7">
      <path
         d="M 0,841.98 H 595.2 V 0 H 0 Z"
         transform="translate(-432.14401,-405.17401)"
         id="path412-4" />
    </clipPath>
    <clipPath
       clipPathUnits="userSpaceOnUse"
       id="clipPath414-1">
      <path
         d="M 0,841.98 H 595.2 V 0 H 0 Z"
         transform="translate(-464.301,-405.17401)"
         id="path414-8" />
    </clipPath>
    <clipPath
       clipPathUnits="userSpaceOnUse"
       id="clipPath416-5">
      <path
         d="M 0,841.98 H 595.2 V 0 H 0 Z"
         transform="translate(-416.06502,-405.17401)"
         id="path416-9" />
    </clipPath>
    <clipPath
       clipPathUnits="userSpaceOnUse"
       id="clipPath418-7">
      <path
         d="M 0,841.98 H 595.2 V 0 H 0 Z"
         transform="translate(-383.90801,-405.17401)"
         id="path418-5" />
    </clipPath>
    <clipPath
       clipPathUnits="userSpaceOnUse"
       id="clipPath420-3">
      <path
         d="M 0,841.98 H 595.2 V 0 H 0 Z"
         transform="translate(-448.22201,-405.17401)"
         id="path420-8" />
    </clipPath>
    <clipPath
       clipPathUnits="userSpaceOnUse"
       id="clipPath422-8">
      <path
         d="M 0,841.98 H 595.2 V 0 H 0 Z"
         transform="translate(-496.458,-405.17401)"
         id="path422-3" />
    </clipPath>
    <clipPath
       clipPathUnits="userSpaceOnUse"
       id="clipPath424-1">
      <path
         d="M 0,841.98 H 595.2 V 0 H 0 Z"
         transform="translate(-512.51501,-244.879)"
         id="path424-8" />
    </clipPath>
    <clipPath
       clipPathUnits="userSpaceOnUse"
       id="clipPath426-9">
      <path
         d="M 0,841.98 H 595.2 V 0 H 0 Z"
         transform="translate(-512.51501,-244.879)"
         id="path426-6" />
    </clipPath>
    <clipPath
       clipPathUnits="userSpaceOnUse"
       id="clipPath432-4">
      <path
         d="M 0,841.98 H 595.2 V 0 H 0 Z"
         transform="matrix(1,0,0,-0.99998585,-460.69171,233.99729)"
         id="path432-3" />
    </clipPath>
    <clipPath
       clipPathUnits="userSpaceOnUse"
       id="clipPath436-3">
      <path
         d="M 0,841.98 H 595.2 V 0 H 0 Z"
         transform="matrix(1,0,0,-0.99998585,-345.43841,375.90568)"
         id="path436-3" />
    </clipPath>
    <clipPath
       clipPathUnits="userSpaceOnUse"
       id="clipPath440-8">
      <path
         d="M 0,841.98 H 595.2 V 0 H 0 Z"
         transform="matrix(1,0,0,-1,-318.84001,184.1003)"
         id="path440-6" />
    </clipPath>
    <clipPath
       clipPathUnits="userSpaceOnUse"
       id="clipPath442-0">
      <path
         d="M 0,841.98 H 595.2 V 0 H 0 Z"
         transform="matrix(1,0,0,-1,-323.58001,182.8403)"
         id="path442-4" />
    </clipPath>
    <clipPath
       clipPathUnits="userSpaceOnUse"
       id="clipPath444-8">
      <path
         d="M 0,841.98 H 595.2 V 0 H 0 Z"
         transform="matrix(1,0,0,-1,-332.88001,184.1003)"
         id="path444-8" />
    </clipPath>
    <clipPath
       clipPathUnits="userSpaceOnUse"
       id="clipPath446-8">
      <path
         d="M 0,841.98 H 595.2 V 0 H 0 Z"
         transform="matrix(1,0,0,-1,-361.80001,182.8403)"
         id="path446-9" />
    </clipPath>
    <clipPath
       clipPathUnits="userSpaceOnUse"
       id="clipPath450-7">
      <path
         d="M 0,841.98 H 595.2 V 0 H 0 Z"
         transform="matrix(1,0,0,-1,-364.92001,184.1003)"
         id="path450-7" />
    </clipPath>
  </defs>
  <g
     id="layer1"
     transform="translate(-42.420079,-83.391943)">
    <g
       id="g607"
       transform="matrix(0.26458333,0,0,0.26458333,-73.73408,-69.087997)">
      <path
         id="path355"
         d="m 0,0 c 15.84,0.628 32.898,6.37 46.605,33.076 9.377,18.269 29.547,58.437 35.944,73.518"
         style="fill:none;stroke:#000000;stroke-width:1.003;stroke-linecap:butt;stroke-linejoin:miter;stroke-miterlimit:4;stroke-dasharray:none;stroke-opacity:1"
         transform="matrix(1.3333333,0,0,-1.3333333,566.64783,792.62117)"
         clip-path="url(#clipPath356-5)" />
      <path
         id="path357"
         d="M 0,0 V -2.605"
         style="fill:#ffffff;fill-opacity:1;fill-rule:nonzero;stroke:none"
         transform="matrix(1.3333333,0,0,-1.3333333,677.47715,590.56516)"
         clip-path="url(#clipPath358-3)" />
      <path
         id="path361"
         d="M 0,0 V -3.001"
         style="fill:#ffffff;fill-opacity:1;fill-rule:nonzero;stroke:none"
         transform="matrix(1.3333333,0,0,-1.3333333,677.47715,594.03717)"
         clip-path="url(#clipPath362-4)" />
      <path
         id="path383"
         d="M 0,0 H 160.727"
         style="fill:none;stroke:#000000;stroke-width:0.354;stroke-linecap:butt;stroke-linejoin:miter;stroke-miterlimit:10;stroke-dasharray:none;stroke-opacity:1"
         transform="matrix(1.3333333,0,0,-1.3333333,462.72648,775.50116)"
         clip-path="url(#clipPath384-1)" />
      <path
         id="path385"
         d="M 0,0 H 160.727"
         style="fill:none;stroke:#000000;stroke-width:0.354;stroke-linecap:butt;stroke-linejoin:miter;stroke-miterlimit:10;stroke-dasharray:none;stroke-opacity:1"
         transform="matrix(1.3333333,0,0,-1.3333333,462.72648,757.6345)"
         clip-path="url(#clipPath386-5)" />
      <path
         id="path387"
         d="M 0,0 H 160.727"
         style="fill:none;stroke:#000000;stroke-width:0.354;stroke-linecap:butt;stroke-linejoin:miter;stroke-miterlimit:10;stroke-dasharray:none;stroke-opacity:1"
         transform="matrix(1.3333333,0,0,-1.3333333,462.72648,739.76782)"
         clip-path="url(#clipPath388-8)" />
      <path
         id="path389"
         d="M 0,0 H 160.727"
         style="fill:none;stroke:#000000;stroke-width:0.354;stroke-linecap:butt;stroke-linejoin:miter;stroke-miterlimit:10;stroke-dasharray:none;stroke-opacity:1"
         transform="matrix(1.3333333,0,0,-1.3333333,462.72648,704.0345)"
         clip-path="url(#clipPath390-8)" />
      <path
         id="path391"
         d="M 0,0 H 160.727"
         style="fill:none;stroke:#000000;stroke-width:0.354;stroke-linecap:butt;stroke-linejoin:miter;stroke-miterlimit:10;stroke-dasharray:none;stroke-opacity:1"
         transform="matrix(1.3333333,0,0,-1.3333333,462.72648,721.90116)"
         clip-path="url(#clipPath392-0)" />
      <path
         id="path393"
         d="M 0,0 H 160.727"
         style="fill:none;stroke:#000000;stroke-width:0.354;stroke-linecap:butt;stroke-linejoin:miter;stroke-miterlimit:10;stroke-dasharray:none;stroke-opacity:1"
         transform="matrix(1.3333333,0,0,-1.3333333,462.72648,668.30117)"
         clip-path="url(#clipPath394-0)" />
      <path
         id="path395"
         d="M 0,0 H 160.727"
         style="fill:none;stroke:#000000;stroke-width:0.354;stroke-linecap:butt;stroke-linejoin:miter;stroke-miterlimit:10;stroke-dasharray:none;stroke-opacity:1"
         transform="matrix(1.3333333,0,0,-1.3333333,462.72648,686.16782)"
         clip-path="url(#clipPath396-4)" />
      <path
         id="path397"
         d="M 0,0 H 160.727"
         style="fill:none;stroke:#000000;stroke-width:0.354;stroke-linecap:butt;stroke-linejoin:miter;stroke-miterlimit:10;stroke-dasharray:none;stroke-opacity:1"
         transform="matrix(1.3333333,0,0,-1.3333333,462.72648,614.70117)"
         clip-path="url(#clipPath398-4)" />
      <path
         id="path399"
         d="M 0,0 H 160.727"
         style="fill:none;stroke:#000000;stroke-width:0.354;stroke-linecap:butt;stroke-linejoin:miter;stroke-miterlimit:10;stroke-dasharray:none;stroke-opacity:1"
         transform="matrix(1.3333333,0,0,-1.3333333,462.72648,632.56783)"
         clip-path="url(#clipPath400-6)" />
      <path
         id="path401"
         d="M 0,0 H 160.727"
         style="fill:none;stroke:#000000;stroke-width:0.354;stroke-linecap:butt;stroke-linejoin:miter;stroke-miterlimit:10;stroke-dasharray:none;stroke-opacity:1"
         transform="matrix(1.3333333,0,0,-1.3333333,462.72648,596.83449)"
         clip-path="url(#clipPath402-1)" />
      <path
         id="path403"
         d="M 0,0 H 160.727"
         style="fill:none;stroke:#000000;stroke-width:0.354;stroke-linecap:butt;stroke-linejoin:miter;stroke-miterlimit:10;stroke-dasharray:none;stroke-opacity:1"
         transform="matrix(1.3333333,0,0,-1.3333333,462.72648,650.43449)"
         clip-path="url(#clipPath404-5)" />
      <path
         id="path405"
         d="M 0,0 V -160.295"
         style="fill:none;stroke:#000000;stroke-width:0.354;stroke-linecap:butt;stroke-linejoin:miter;stroke-miterlimit:10;stroke-dasharray:none;stroke-opacity:1"
         transform="matrix(1.3333333,0,0,-1.3333333,526.99182,579.6665)"
         clip-path="url(#clipPath406-6)" />
      <path
         id="path407"
         d="M 0,0 V -160.295"
         style="fill:none;stroke:#000000;stroke-width:0.354;stroke-linecap:butt;stroke-linejoin:miter;stroke-miterlimit:10;stroke-dasharray:none;stroke-opacity:1"
         transform="matrix(1.3333333,0,0,-1.3333333,634.18249,579.6665)"
         clip-path="url(#clipPath408-1)" />
      <path
         id="path409"
         d="M 0,0 V -160.295"
         style="fill:none;stroke:#000000;stroke-width:0.354;stroke-linecap:butt;stroke-linejoin:miter;stroke-miterlimit:10;stroke-dasharray:none;stroke-opacity:1"
         transform="matrix(1.3333333,0,0,-1.3333333,484.11582,579.6665)"
         clip-path="url(#clipPath410-8)" />
      <path
         id="path411"
         d="M 0,0 V -160.295"
         style="fill:none;stroke:#000000;stroke-width:0.354;stroke-linecap:butt;stroke-linejoin:miter;stroke-miterlimit:10;stroke-dasharray:none;stroke-opacity:1"
         transform="matrix(1.3333333,0,0,-1.3333333,569.86782,579.6665)"
         clip-path="url(#clipPath412-7)" />
      <path
         id="path413"
         d="M 0,0 V -160.295"
         style="fill:none;stroke:#000000;stroke-width:0.354;stroke-linecap:butt;stroke-linejoin:miter;stroke-miterlimit:10;stroke-dasharray:none;stroke-opacity:1"
         transform="matrix(1.3333333,0,0,-1.3333333,612.74381,579.6665)"
         clip-path="url(#clipPath414-1)" />
      <path
         id="path415"
         d="M 0,0 V -160.295"
         style="fill:none;stroke:#000000;stroke-width:0.354;stroke-linecap:butt;stroke-linejoin:miter;stroke-miterlimit:10;stroke-dasharray:none;stroke-opacity:1"
         transform="matrix(1.3333333,0,0,-1.3333333,548.42916,579.6665)"
         clip-path="url(#clipPath416-5)" />
      <path
         id="path417"
         d="M 0,0 V -160.295"
         style="fill:none;stroke:#000000;stroke-width:0.354;stroke-linecap:butt;stroke-linejoin:miter;stroke-miterlimit:10;stroke-dasharray:none;stroke-opacity:1"
         transform="matrix(1.3333333,0,0,-1.3333333,505.55316,579.6665)"
         clip-path="url(#clipPath418-7)" />
      <path
         id="path419"
         d="M 0,0 V -160.295"
         style="fill:none;stroke:#000000;stroke-width:0.354;stroke-linecap:butt;stroke-linejoin:miter;stroke-miterlimit:10;stroke-dasharray:none;stroke-opacity:1"
         transform="matrix(1.3333333,0,0,-1.3333333,591.30515,579.6665)"
         clip-path="url(#clipPath420-3)" />
      <path
         id="path421"
         d="M 0,0 V -160.295"
         style="fill:none;stroke:#000000;stroke-width:0.354;stroke-linecap:butt;stroke-linejoin:miter;stroke-miterlimit:10;stroke-dasharray:none;stroke-opacity:1"
         transform="matrix(1.3333333,0,0,-1.3333333,655.61981,579.6665)"
         clip-path="url(#clipPath422-8)" />
      <path
         id="path423"
         d="M -160.56,0 H 0 v 160.56 h -160.56 z"
         style="fill:none;stroke:#000000;stroke-width:0.354;stroke-linecap:butt;stroke-linejoin:miter;stroke-miterlimit:10;stroke-dasharray:none;stroke-opacity:1"
         transform="matrix(1.3333333,0,0,-1.3333333,677.02915,793.39317)"
         clip-path="url(#clipPath424-1)" />
      <path
         id="path425"
         d="M 0,0 Z"
         style="fill:none;stroke:#000000;stroke-width:0.354;stroke-linecap:butt;stroke-linejoin:miter;stroke-miterlimit:10;stroke-dasharray:none;stroke-opacity:1"
         transform="matrix(1.3333333,0,0,-1.3333333,677.02915,793.39317)"
         clip-path="url(#clipPath426-9)" />
      <g
         id="g426"
         aria-label="V&#10;GS&#10; (V)&#10;I&#10;D&#10;(mA)&#10;6&#10;0&#10;−40−2"
         transform="matrix(1.3333333,0,0,1.3333522,607.93142,807.8977)"
         clip-path="url(#clipPath432-4)">
        <path
           id="path427"
           d="M 2.7057609,-0.00135311 H 2.0143547 L 0.03388594,-4.8762843 H 0.72529219 L 2.0729484,-1.442739 2.3659172,-0.58728233 2.6588859,-1.442739 3.9948234,-4.8762843 h 0.6914063 z m 2.3671875,-0.10253761 c 0,-0.78807481 0.2109375,-1.39744118 0.6328125,-1.82809918 0.4277344,-0.4365173 1.0253907,-0.6562407 1.7929688,-0.6562407 0.5390625,0 0.9755859,0.093749 1.3125,0.281246 0.3339844,0.1816381 0.5976562,0.4687434 0.7851562,0.8671752 L 8.9635734,-1.252312 C 8.8229484,-1.5247691 8.6295891,-1.723985 8.3893547,-1.8499598 8.1461906,-1.9817939 7.8444328,-2.0491757 7.4870109,-2.0491757 c -0.5625,0 -0.993164,0.1728491 -1.2890625,0.5156177 -0.2988281,0.3369093 -0.4453125,0.81444159 -0.4453125,1.42966728 0,0.61815533 0.1552735,1.10740622 0.46875,1.46482302 0.3105469,0.3515576 0.75,0.5273363 1.3125,0.5273363 0.3105469,0 0.6035157,-0.046874 0.8789063,-0.140623 0.28125,-0.099608 0.5068359,-0.2343717 0.6796875,-0.3984318 V 0.47031992 h -1.453125 v -0.55077347 h 2.0625 V 1.595304 C 9.4440422,1.8619018 9.1276359,2.0699067 8.7526359,2.216389 c -0.375,0.140623 -0.7822265,0.2109345 -1.21875,0.2109345 -0.5097656,0 -0.9492187,-0.099608 -1.3242187,-0.3046832 C 5.8405266,1.9204948 5.5592766,1.6275301 5.3659172,1.2437465 5.1696281,0.8628925 5.0729484,0.411727 5.0729484,-0.10389072 Z M 14.626659,1.0093748 c 0,0.4540952 -0.175781,0.8056527 -0.527343,1.0546726 -0.351563,0.2431606 -0.84961,0.3632761 -1.488282,0.3632761 -1.180664,0 -1.86914,-0.4130801 -2.0625,-1.2421699 l 0.644532,-0.1289045 c 0.07031,0.2988239 0.225586,0.5156178 0.46875,0.6562408 0.240234,0.1347637 0.568359,0.1992159 0.984375,0.1992159 0.421875,0 0.74414,-0.073241 0.972656,-0.2226531 0.234375,-0.1464823 0.351562,-0.3632761 0.351562,-0.6445221 0,-0.15527128 -0.03516,-0.28124607 -0.105468,-0.37499474 C 13.794628,0.56992789 13.692089,0.4878978 13.560253,0.42344558 13.425488,0.35313407 13.270214,0.30040044 13.091503,0.2593854 12.909863,0.21251106 12.707714,0.16270708 12.482128,0.1070438 12.098339,0.02208406 11.80537,-0.05994603 11.603222,-0.13904647 c -0.196289,-0.0849597 -0.351563,-0.17870842 -0.46875,-0.28124603 -0.111328,-0.10839691 -0.196289,-0.23437169 -0.257813,-0.3749947 -0.06445,-0.14062302 -0.09375,-0.3046832 -0.09375,-0.4921806 0,-0.4130801 0.158204,-0.7324115 0.480469,-0.9609239 0.319336,-0.2255827 0.776367,-0.3398389 1.371094,-0.3398389 0.544922,0 0.963867,0.087889 1.253906,0.2578088 0.295899,0.1728491 0.503906,0.4628841 0.621094,0.8671753 l -0.644531,0.1171858 c -0.07031,-0.2578088 -0.208008,-0.4453062 -0.410157,-0.562492 -0.196289,-0.1171859 -0.474609,-0.1757788 -0.832031,-0.1757788 -0.392578,0 -0.688476,0.067382 -0.890625,0.1992159 -0.205078,0.1259748 -0.304687,0.3134722 -0.304687,0.5624921 0,0.1582009 0.03809,0.2871053 0.117187,0.38671328 0.07617,0.0937487 0.19043,0.17577877 0.339844,0.24609028 0.146484,0.0644522 0.448242,0.1464823 0.902344,0.24609027 0.146484,0.0322261 0.295898,0.0673819 0.445312,0.10546726 0.146485,0.0322261 0.28711,0.0761708 0.421875,0.12890443 0.140625,0.0468743 0.269531,0.10546726 0.386719,0.17577877 0.117187,0.06445221 0.216797,0.1464823 0.304687,0.24609027 0.08496,0.0937487 0.152344,0.20800488 0.199219,0.33983895 0.05274,0.13476372 0.08203,0.28710532 0.08203,0.45702479 z m 2.727539,-2.8505457 c 0,-0.6621 0.105469,-1.2597478 0.316407,-1.7929434 0.210937,-0.5302659 0.530273,-1.0312354 0.960937,-1.4999788 h 0.609375 c -0.439453,0.4863212 -0.758789,0.9960797 -0.960937,1.5351346 -0.196289,0.5390548 -0.292969,1.1308434 -0.292969,1.7695062 0,0.6328036 0.09668,1.2187328 0.292969,1.75778769 0.202148,0.53905488 0.521484,1.04881331 0.960937,1.53513461 h -0.609375 c -0.430664,-0.46874342 -0.75,-0.96971291 -0.960937,-1.49997886 -0.210938,-0.53026595 -0.316407,-1.12791374 -0.316407,-1.79294344 z m 4.631836,1.83981779 H 21.294628 L 19.314159,-4.8762843 h 0.691407 l 1.347656,3.4335453 0.292969,0.85545667 0.292968,-0.85545667 1.335938,-3.4335453 h 0.691406 z m 3.9375,-1.82809919 c 0,0.6738186 -0.105468,1.27439608 -0.316406,1.80466203 -0.210937,0.521477 -0.533203,1.01951685 -0.960937,1.48826027 h -0.597657 c 0.427735,-0.4863213 0.741211,-0.99315008 0.9375,-1.52341603 0.202149,-0.53905488 0.304688,-1.12791377 0.304688,-1.76950627 0,-0.6474518 -0.102539,-1.2363106 -0.304688,-1.7695062 -0.196289,-0.5390549 -0.509765,-1.0488134 -0.9375,-1.5351346 h 0.597657 c 0.436523,0.4687434 0.755859,0.9697129 0.960937,1.4999788 0.210938,0.5331956 0.316406,1.1308434 0.316406,1.7929434 z M -122.34209,-161.2315 v -4.87493 h 0.65625 v 4.87493 z m 6.08203,-0.12597 c 0,0.50097 -0.0996,0.94334 -0.29297,1.3242 -0.19629,0.37499 -0.47461,0.66503 -0.83203,0.86717 -0.36035,0.19629 -0.77344,0.29297 -1.24219,0.29297 h -1.8164 v -4.87493 h 1.60547 c 0.82617,0 1.46484,0.208 1.91015,0.62108 0.44531,0.41601 0.66797,1.00487 0.66797,1.76951 z m -0.65625,0 c 0,-0.60058 -0.16992,-1.0576 -0.50391,-1.37108 -0.32812,-0.31933 -0.80566,-0.48046 -1.42968,-0.48046 h -0.9375 v 3.80854 h 1.07812 c 0.35742,0 0.67383,-0.0762 0.94922,-0.23437 0.27246,-0.15527 0.48047,-0.38085 0.62109,-0.67968 0.14649,-0.29589 0.22266,-0.64452 0.22266,-1.04295 z m -9.77637,9.19909 c 0,-0.6621 0.10547,-1.25975 0.31641,-1.79295 0.21094,-0.53026 0.53027,-1.03123 0.96094,-1.49998 h 0.60937 c -0.43945,0.48633 -0.75879,0.99608 -0.96094,1.53514 -0.19628,0.53905 -0.29296,1.13084 -0.29296,1.7695 0,0.63281 0.0967,1.21874 0.29296,1.75779 0.20215,0.53906 0.52149,1.04882 0.96094,1.53514 h -0.60937 c -0.43067,-0.46875 -0.75,-0.96972 -0.96094,-1.49998 -0.21094,-0.53027 -0.31641,-1.12792 -0.31641,-1.79295 z m 4.58496,1.83981 v -2.36715 c 0,-0.36621 -0.0527,-0.61523 -0.15234,-0.74999 -0.10254,-0.14062 -0.28125,-0.21093 -0.53906,-0.21093 -0.2666,0 -0.47754,0.10253 -0.63281,0.30468 -0.14942,0.20507 -0.22266,0.48925 -0.22266,0.85546 v 2.16793 h -0.62109 v -2.94136 c 0,-0.43652 -0.009,-0.70312 -0.0234,-0.79686 h 0.58594 c 0.006,0.009 0.0117,0.041 0.0117,0.0937 0,0.0469 0,0.10547 0,0.17578 0.006,0.0645 0.0147,0.18457 0.0234,0.36328 0.14063,-0.25781 0.2959,-0.43652 0.46875,-0.53906 0.16992,-0.10839 0.38086,-0.16406 0.63281,-0.16406 0.28125,0 0.50391,0.0586 0.66797,0.17578 0.16407,0.11133 0.27539,0.28711 0.33985,0.52734 h 0.0117 c 0.13183,-0.24902 0.28711,-0.42773 0.46875,-0.53906 0.1875,-0.10839 0.41015,-0.16406 0.66796,-0.16406 0.375,0 0.64747,0.10254 0.82032,0.30469 0.16992,0.20507 0.25781,0.53905 0.25781,1.0078 v 2.49605 h -0.60938 v -2.36715 c 0,-0.36621 -0.0527,-0.61523 -0.15234,-0.74999 -0.10254,-0.14062 -0.28125,-0.21093 -0.53906,-0.21093 -0.2666,0 -0.47754,0.10253 -0.63281,0.30468 -0.14942,0.20507 -0.22266,0.48925 -0.22266,0.85546 v 2.16793 z m 7.26856,0 -0.55078,-1.42966 h -2.22656 l -0.55079,1.42966 h -0.6914 l 1.99219,-4.87493 h 0.75 l 1.95703,4.87493 z m -1.66406,-4.37103 -0.0352,0.0937 c -0.0557,0.19629 -0.13769,0.44238 -0.24609,0.73827 l -0.63282,1.60545 h 1.82813 l -0.62109,-1.61717 c -0.0703,-0.15527 -0.1377,-0.33398 -0.19922,-0.53905 z m 4.27734,2.54293 c 0,0.67382 -0.10547,1.2744 -0.31641,1.80467 -0.21093,0.52147 -0.5332,1.01951 -0.96093,1.48826 h -0.59766 c 0.42773,-0.48632 0.74121,-0.99315 0.9375,-1.52342 0.20215,-0.53905 0.30469,-1.12791 0.30469,-1.76951 0,-0.64745 -0.10254,-1.23631 -0.30469,-1.7695 -0.19629,-0.53906 -0.50977,-1.04881 -0.9375,-1.53514 h 0.59766 c 0.43652,0.46875 0.75586,0.96972 0.96093,1.49998 0.21094,0.5332 0.31641,1.13085 0.31641,1.79295 z m 0.58887,-18.19603 c 0,0.51562 -0.14063,0.92284 -0.42188,1.21874 -0.27539,0.29882 -0.65625,0.4453 -1.14843,0.4453 -0.54786,0 -0.9668,-0.20214 -1.25391,-0.60936 -0.29004,-0.41308 -0.43359,-1.0078 -0.43359,-1.78123 0,-0.84374 0.14648,-1.49119 0.44531,-1.94528 0.30469,-0.45117 0.73242,-0.67968 1.28906,-0.67968 0.73242,0 1.19824,0.33398 1.39453,0.99608 l -0.59765,0.10546 c -0.11719,-0.39843 -0.38379,-0.59764 -0.79688,-0.59764 -0.36035,0 -0.63867,0.16992 -0.83203,0.5039 -0.19629,0.32812 -0.29297,0.80565 -0.29297,1.42966 0.11719,-0.21093 0.27539,-0.36913 0.48047,-0.48046 0.20215,-0.1084 0.43652,-0.16406 0.70312,-0.16406 0.45118,0 0.8086,0.14062 1.06641,0.42187 0.26367,0.28125 0.39844,0.6621 0.39844,1.1367 z m -0.63281,0.0234 c 0,-0.35156 -0.0879,-0.62109 -0.25782,-0.80858 -0.17285,-0.19336 -0.41015,-0.29297 -0.71484,-0.29297 -0.29883,0 -0.53613,0.0879 -0.71484,0.25781 -0.17286,0.17285 -0.25782,0.40722 -0.25782,0.70312 0,0.37499 0.0879,0.68553 0.26953,0.92577 0.1875,0.23437 0.42481,0.35155 0.71485,0.35155 0.30469,0 0.53906,-0.0967 0.70312,-0.29296 0.16992,-0.20215 0.25782,-0.48339 0.25782,-0.84374 z m 0.66796,159.908874 c 0,0.8144418 -0.14648,1.4355268 -0.43359,1.8632552 -0.28125,0.4306579 -0.70312,0.6445221 -1.26562,0.6445221 -0.55665,0 -0.97266,-0.2109345 -1.25391,-0.6328036 -0.28125,-0.4277283 -0.42188,-1.0546726 -0.42188,-1.8749737 0,-0.834949 0.13184,-1.458964 0.39844,-1.874973 0.27246,-0.421869 0.70606,-0.632804 1.30078,-0.632804 0.56836,0 0.99024,0.210935 1.26563,0.632804 0.27246,0.421869 0.41015,1.048813 0.41015,1.874973 z m -0.63281,0 c 0,-0.703115 -0.082,-1.209944 -0.24609,-1.523416 -0.15821,-0.319331 -0.42188,-0.480462 -0.79688,-0.480462 -0.38379,0 -0.66211,0.158201 -0.83203,0.468744 -0.16406,0.313472 -0.24609,0.82616 -0.24609,1.535134 0,0.697256 0.085,1.2040848 0.25781,1.5234162 0.16992,0.3222611 0.43945,0.480462 0.80859,0.480462 0.36621,0 0.63282,-0.1640602 0.79688,-0.4921806 0.16992,-0.3281203 0.25781,-0.8320195 0.25781,-1.5116976 z m 0,0"
           style="fill:#000000;fill-opacity:1;fill-rule:nonzero;stroke:none" />
        <path
           id="path428"
           d="m -112.49248,-3.1184966 h 3.70312 v -0.3867133 h -3.70312 z m 0,0"
           style="fill:#000000;fill-opacity:1;fill-rule:nonzero;stroke:none" />
        <path
           id="path429"
           d="m -105.63994,-2.5677231 v 1.1015469 h -0.58594 v -1.1015469 h -2.29687 v -0.480462 l 2.22656,-3.2929222 h 0.65625 v 3.2812036 h 0.67969 v 0.4921806 z m -0.58594,-3.0702691 c -0.009,0.017578 -0.0439,0.0791 -0.10547,0.1874973 -0.0557,0.1113266 -0.0996,0.1845677 -0.1289,0.2226531 l -1.25391,1.8398178 -0.17578,0.2578088 -0.0586,0.070311 h 1.72266 z m 160.324219,1.7343505 c 0,0.8144416 -0.146484,1.4355266 -0.433594,1.8632549 -0.28125,0.430658 -0.703125,0.6445221 -1.265625,0.6445221 -0.55664,0 -0.972656,-0.2109345 -1.253906,-0.6328035 -0.28125,-0.4277284 -0.421875,-1.0546726 -0.421875,-1.8749735 0,-0.8349492 0.131836,-1.4589638 0.398438,-1.8749736 0.272461,-0.421869 0.706054,-0.6328035 1.300781,-0.6328035 0.568359,0 0.990234,0.2109345 1.265625,0.6328035 0.272461,0.4218691 0.410156,1.0488134 0.410156,1.8749736 z m -0.632812,0 c 0,-0.7031151 -0.08203,-1.2099439 -0.246094,-1.523416 -0.158203,-0.3193315 -0.421875,-0.480462 -0.796875,-0.480462 -0.383789,0 -0.66211,0.1582009 -0.832031,0.4687434 -0.164063,0.3134721 -0.246094,0.8261602 -0.246094,1.5351346 0,0.6972557 0.08496,1.2040845 0.257812,1.5234159 0.169922,0.3222611 0.439453,0.480462 0.808594,0.480462 0.366211,0 0.632813,-0.1640602 0.796875,-0.4921805 0.169922,-0.3281204 0.257813,-0.8320195 0.257813,-1.5116974 z m 0,0"
           style="fill:#000000;fill-opacity:1;fill-rule:nonzero;stroke:none" />
        <path
           id="path430"
           d="m -32.840137,-3.1184966 h 3.703125 v -0.3867133 h -3.703125 z m 0,0"
           style="fill:#000000;fill-opacity:1;fill-rule:nonzero;stroke:none" />
        <path
           id="path431"
           d="m -28.682911,-1.4661762 v -0.4335876 c 0.117188,-0.2724571 0.260742,-0.5097584 0.433594,-0.7148336 0.169922,-0.2109346 0.351562,-0.3984319 0.539062,-0.5624921 0.1875,-0.1699195 0.369141,-0.3281204 0.550782,-0.4687434 0.178711,-0.140623 0.342773,-0.281246 0.492187,-0.421869 0.146484,-0.1464823 0.263672,-0.2988239 0.351563,-0.4570248 0.09375,-0.1552713 0.140625,-0.33105 0.140625,-0.5273363 0,-0.2636682 -0.0791,-0.471673 -0.234375,-0.621085 -0.158204,-0.1464823 -0.372071,-0.2226531 -0.644532,-0.2226531 -0.266601,0 -0.486328,0.076171 -0.65625,0.2226531 -0.172851,0.140623 -0.27539,0.339839 -0.304687,0.5976478 l -0.632813,-0.058593 c 0.04687,-0.3896429 0.210938,-0.6972558 0.492188,-0.9257682 0.28125,-0.2343717 0.647461,-0.3515575 1.101562,-0.3515575 0.492188,0 0.867188,0.1171858 1.125,0.3515575 0.263672,0.2343717 0.398438,0.5624921 0.398438,0.9843611 0,0.1874974 -0.04394,0.3749947 -0.128906,0.5624921 -0.08789,0.1874973 -0.216797,0.3749947 -0.386719,0.562492 -0.172852,0.1874974 -0.498047,0.4775323 -0.972656,0.8671753 -0.266602,0.2197234 -0.477539,0.4160097 -0.632813,0.5859292 -0.158203,0.1728491 -0.269531,0.3398389 -0.339844,0.5038991 h 2.542969 v 0.5273363 z m 0,0"
           style="fill:#000000;fill-opacity:1;fill-rule:nonzero;stroke:none" />
      </g>
      <path
         id="path435"
         d="m 3.6455844,-1.5811652 c 0,0.5097585 -0.1582031,0.91111998 -0.46875,1.20701423 -0.3046875,0.29882391 -0.7265625,0.44530622 -1.265625,0.44530622 -0.4541016,0 -0.8203125,-0.09667833 -1.10156252,-0.29296462 C 0.53425625,-0.42395495 0.358475,-0.71398992 0.28230313,-1.0889846 l 0.6328125,-0.070311 c 0.13183597,0.48632123 0.46874997,0.72655221 1.00781247,0.72655221 0.3339844,0 0.5976563,-0.099608 0.7851563,-0.30468319 0.1875,-0.20214559 0.28125,-0.48046192 0.28125,-0.83201952 0,-0.3046832 -0.09375,-0.5507735 -0.28125,-0.7382708 -0.1875,-0.1933567 -0.4453125,-0.2929646 -0.7734375,-0.2929646 -0.1640625,0 -0.3222656,0.029296 -0.46875,0.08203 -0.140625,0.055663 -0.2871094,0.1464823 -0.4335938,0.2695274 H 0.42292813 L 0.58699063,-4.874087 H 3.3526156 v 0.5390549 H 1.1612094 l -0.09375,1.5351345 c 0.2636719,-0.2021455 0.5976562,-0.3046832 0.9960937,-0.3046832 0.4833985,0 0.8671875,0.1406231 1.1484375,0.4218691 0.2871094,0.281246 0.4335938,0.6503814 0.4335938,1.1015465 z M 3.0479281,25.151856 v 1.101547 H 2.4619906 V 25.151856 H 0.16511563 V 24.671394 L 2.3916781,21.378471 h 0.65625 v 3.281204 h 0.6796875 v 0.492181 z M 2.4619906,22.081587 c -0.00879,0.01758 -0.043945,0.0791 -0.1054687,0.187497 -0.055664,0.111326 -0.099609,0.184568 -0.1289063,0.222653 l -1.25390622,1.839818 -0.17578125,0.257809 -0.0585938,0.07031 H 2.4619906 Z m 1.1601563,29.96149 c 0,0.454096 -0.1464844,0.805653 -0.4335938,1.054673 -0.28125,0.243161 -0.6884765,0.363276 -1.21875,0.363276 -0.4921875,0 -0.8876953,-0.108397 -1.18359372,-0.32812 -0.29003907,-0.225583 -0.46289063,-0.556633 -0.515625,-0.99608 l 0.64453125,-0.05859 c 0.0761719,0.58007 0.42773437,0.867175 1.05468747,0.867175 0.319336,0 0.5654297,-0.07617 0.7382813,-0.234371 0.1787109,-0.155271 0.2695312,-0.380854 0.2695312,-0.679678 0,-0.263668 -0.102539,-0.471673 -0.3046875,-0.621085 C 2.46785,51.263792 2.1748813,51.187621 1.7940219,51.187621 H 1.4424594 v -0.539055 h 0.3398437 c 0.3339844,0 0.5976563,-0.07324 0.7851563,-0.222653 0.1875,-0.155271 0.28125,-0.363276 0.28125,-0.621085 0,-0.257809 -0.079102,-0.459955 -0.234375,-0.609367 -0.1494141,-0.155271 -0.375,-0.234371 -0.6796875,-0.234371 -0.2753906,0 -0.4980469,0.07031 -0.6679688,0.210934 -0.1640625,0.140623 -0.2636718,0.339839 -0.29296872,0.597648 l -0.62109375,-0.05859 c 0.046875,-0.398432 0.2109375,-0.706045 0.4921875,-0.925768 0.28710937,-0.225583 0.65624997,-0.339839 1.10156247,-0.339839 0.4921875,0 0.8701172,0.114256 1.1367188,0.339839 0.2724609,0.228512 0.4101562,0.544914 0.4101562,0.949205 0,0.313472 -0.09082,0.568352 -0.2695312,0.761708 -0.1728516,0.196287 -0.421875,0.328121 -0.75,0.398432 v 0.01172 c 0.3574219,0.04102 0.6386719,0.16113 0.84375,0.363276 0.2021484,0.205075 0.3046875,0.462884 0.3046875,0.773426 z M 0.35261563,79.956746 V 79.523158 C 0.46980313,79.250701 0.61335781,79.0134 0.78620938,78.808324 0.95613125,78.59739 1.1377719,78.409893 1.3252719,78.245832 c 0.1875,-0.169919 0.3691406,-0.32812 0.5507812,-0.468743 0.178711,-0.140623 0.3427735,-0.281246 0.4921875,-0.421869 0.1464844,-0.146482 0.2636719,-0.298824 0.3515625,-0.457025 0.09375,-0.155271 0.140625,-0.33105 0.140625,-0.527336 0,-0.263668 -0.079102,-0.471673 -0.234375,-0.621085 C 2.46785,75.603292 2.2539828,75.527121 1.9815219,75.527121 c -0.2666016,0 -0.4863281,0.07617 -0.65625,0.222653 -0.1728516,0.140623 -0.2753906,0.339839 -0.3046875,0.597648 l -0.63281252,-0.05859 c 0.046875,-0.389643 0.2109375,-0.697256 0.4921875,-0.925768 0.28125002,-0.234372 0.64746092,-0.351558 1.10156252,-0.351558 0.4921875,0 0.8671875,0.117186 1.125,0.351558 0.2636719,0.234371 0.3984375,0.562492 0.3984375,0.984361 0,0.187497 -0.043945,0.374994 -0.1289063,0.562492 -0.087891,0.187497 -0.2167968,0.374994 -0.3867187,0.562492 -0.1728516,0.187497 -0.4980469,0.477532 -0.9726563,0.867175 -0.2666015,0.219723 -0.477539,0.41601 -0.6328125,0.585929 -0.1582031,0.172849 -0.2695312,0.339839 -0.3398437,0.503899 h 2.5429687 v 0.527337 z m 0.1875,27.436134 v -0.52733 H 1.7823031 v -3.74995 l -1.10156247,0.78514 v -0.58593 l 1.14843747,-0.79686 h 0.5742188 v 4.3476 h 1.1835937 v 0.52733 z m 0,0"
         style="fill:#000000;fill-opacity:1;fill-rule:nonzero;stroke:none"
         aria-label="5&#10;4&#10;3&#10;2&#10;1"
         transform="matrix(1.3333333,0,0,1.3333522,454.26035,618.68383)"
         clip-path="url(#clipPath436-3)" />
      <path
         id="path439"
         d="M 2.7078516,-2.859375e-4 H 2.0164453 L 0.03597656,-4.8752859 h 0.69140625 l 1.34765629,3.4335937 0.2929687,0.85546876 0.2929688,-0.85546876 1.3359375,-3.4335937 h 0.6914062 z m 0,0"
         style="fill:#000000;fill-opacity:1;fill-rule:nonzero;stroke:none"
         aria-label="V"
         transform="matrix(1.3333333,0,0,1.3333333,454.05082,828.59991)"
         clip-path="url(#clipPath440-8)" />
      <path
         id="path441"
         d="m 3.5635547,-1.8520828 c 0,0.375 -0.076172,0.703125 -0.2226563,0.98437499 -0.140625,0.28125 -0.3486328,0.49804687 -0.6210937,0.64453125 C 2.4532031,-0.0737625 2.1455859,-5.203125e-4 1.7940234,-5.203125e-4 H 0.43464844 V -3.6333328 H 1.6416797 c 0.609375,0 1.0810547,0.1582031 1.4179687,0.46875 0.3339844,0.3046875 0.5039063,0.7441406 0.5039063,1.3125 z m -0.4921875,0 c 0,-0.4511719 -0.1259766,-0.796875 -0.375,-1.03125 C 2.4532031,-3.1235672 2.0987109,-3.2466141 1.6299609,-3.2466141 H 0.92683594 v 2.84765629 H 1.7354297 c 0.2636719,0 0.4980469,-0.0585938 0.703125,-0.17578125 0.2021484,-0.1171875 0.3574219,-0.28417969 0.46875,-0.50390624 0.1083984,-0.2167969 0.1640625,-0.4746094 0.1640625,-0.7734375 z m 4.0488281,0.84375 c 0,0.33691405 -0.1347656,0.59765624 -0.3984375,0.78515624 -0.2578125,0.18164062 -0.6269531,0.26953125 -1.1015625,0.26953125 -0.8847656,0 -1.4003906,-0.3046875 -1.546875,-0.9140625 l 0.4804688,-0.10546875 c 0.052734,0.21972656 0.1699218,0.38378906 0.3515625,0.4921875 0.1787109,0.10253906 0.421875,0.15234375 0.7265625,0.15234375 0.3193359,0 0.5654297,-0.0527344 0.7382812,-0.1640625 0.1699219,-0.10839844 0.2578125,-0.26953125 0.2578125,-0.48046875 0,-0.12304684 -0.029297,-0.22265624 -0.082031,-0.29296874 -0.046875,-0.076172 -0.1230469,-0.140625 -0.2226563,-0.1875 -0.09375,-0.046875 -0.2109375,-0.084961 -0.3515625,-0.1171875 -0.1347656,-0.029297 -0.28125,-0.064453 -0.4453125,-0.1054688 -0.290039,-0.061523 -0.5097656,-0.1230468 -0.65625,-0.1875 C 4.7207815,-1.9341136 4.603594,-2.0073562 4.518633,-2.0864578 4.430742,-2.1626298 4.3662893,-2.25345 4.3194143,-2.3559891 c -0.046875,-0.099609 -0.070312,-0.2226562 -0.070312,-0.3632812 0,-0.3105469 0.1171875,-0.5507813 0.3515625,-0.7148438 0.2402343,-0.1699218 0.5859375,-0.2578125 1.03125,-0.2578125 0.4130859,0 0.7294922,0.064453 0.9492187,0.1875 0.2167969,0.1259766 0.3691406,0.3398438 0.4570313,0.6445313 l -0.4921875,0.09375 C 6.4991016,-2.9595047 6.3965625,-3.1001297 6.2412891,-3.1880203 6.091875,-3.2729812 5.8838672,-3.3169266 5.6201953,-3.3169266 c -0.290039,0 -0.5126953,0.046875 -0.6679687,0.140625 -0.1494141,0.09375 -0.2226563,0.2402344 -0.2226563,0.4335938 0,0.1113281 0.026367,0.2050781 0.082031,0.28125 0.061523,0.070312 0.1464843,0.1347656 0.2578125,0.1875 0.1171875,0.046875 0.3427734,0.1054687 0.6796875,0.1757812 0.1083984,0.032227 0.2167968,0.064453 0.328125,0.09375 0.1083984,0.023437 0.2138672,0.055664 0.3164062,0.09375 0.099609,0.032227 0.1933594,0.076172 0.28125,0.1289063 0.09375,0.046875 0.1699219,0.1054687 0.234375,0.1757812 0.070312,0.070312 0.1201172,0.1582032 0.1523438,0.2578125 0.038086,0.09375 0.058594,0.2080079 0.058594,0.3398438 z m 0,0"
         style="fill:#000000;fill-opacity:1;fill-rule:nonzero;stroke:none"
         aria-label="DS"
         transform="matrix(1.3333333,0,0,1.3333333,460.37083,830.27991)"
         clip-path="url(#clipPath442-0)" />
      <path
         id="path443"
         d="m 0.33972656,-2.9534109 v -0.515625 H 3.7850391 v 0.515625 z m 0,1.7695312 v -0.515625 H 3.7850391 v 0.515625 z M 6.6092578,-2.859375e-4 V -0.52762969 H 7.8514453 V -4.2776297 l -1.1015625,0.7851563 v -0.5859375 l 1.1484375,-0.796875 h 0.5742188 v 4.34765621 H 9.6561328 V -2.859375e-4 Z M 13.672734,-1.5823172 c 0,0.5097656 -0.158203,0.91113283 -0.46875,1.20703126 -0.304687,0.29882813 -0.726562,0.4453125 -1.265625,0.4453125 -0.454101,0 -0.820312,-0.09667968 -1.101562,-0.29296875 -0.275391,-0.20214843 -0.451172,-0.4921875 -0.527344,-0.86718751 l 0.632813,-0.070312 c 0.131836,0.48632814 0.46875,0.72656251 1.007812,0.72656251 0.333985,0 0.597656,-0.0996094 0.785156,-0.3046875 0.1875,-0.20214843 0.28125,-0.48046871 0.28125,-0.83203121 0,-0.3046875 -0.09375,-0.5507813 -0.28125,-0.7382813 -0.1875,-0.1933594 -0.445312,-0.2929687 -0.773437,-0.2929687 -0.164063,0 -0.322266,0.029297 -0.46875,0.082031 -0.140625,0.055664 -0.287109,0.1464844 -0.433594,0.2695313 h -0.609375 l 0.164063,-2.625 h 2.765625 v 0.5390625 h -2.191407 l -0.09375,1.5351562 c 0.263672,-0.2021484 0.597657,-0.3046875 0.996094,-0.3046875 0.483399,0 0.867188,0.140625 1.148438,0.421875 0.287109,0.28125 0.433593,0.6503906 0.433593,1.1015622 z m 4.933594,1.5820312625 H 17.914922 L 15.934453,-4.8752859 h 0.691406 l 1.347657,3.4335937 0.292968,0.85546876 0.292969,-0.85546876 1.335938,-3.4335937 h 0.691406 z M 21.972539,-0.71512969 v 0.5390625 c 0,0.24023438 -0.02344,0.4453125 -0.07031,0.609375 -0.04687,0.1640625 -0.114258,0.31933594 -0.199219,0.46875 H 21.269414 C 21.486211,0.58858125 21.597539,0.28682344 21.597539,-2.859375e-4 H 21.292852 V -0.71512969 Z M 21.292852,-3.0237234 v -0.7148438 h 0.679687 v 0.7148438 z m 5.791992,-1.3125 v 4.3359374625 h -0.65625 V -4.3362234 h -1.664063 v -0.5390625 h 3.996094 v 0.5390625 z m 0,0"
         style="fill:#000000;fill-opacity:1;fill-rule:nonzero;stroke:none"
         aria-label="=15V; T"
         transform="matrix(1.3333333,0,0,1.3333333,472.77082,828.59991)"
         clip-path="url(#clipPath444-8)" />
      <path
         id="path445"
         d="m 0.35039063,-3.3872391 v -0.4453125 h 0.46875 v 0.4453125 z m 0.46875,3.73828129 c 0,0.2578125 -0.0556641,0.4453125 -0.1640625,0.5625 C 0.55253906,1.0365891 0.40019531,1.1010422 0.19804688,1.1010422 c -0.13476563,0 -0.24023438,-0.00879 -0.328125,-0.023437 V 0.71432344 l 0.1640625,0.0117188 c 0.1171875,0 0.19921875,-0.0322266 0.24609375,-0.09375 0.046875,-0.0644531 0.0703125,-0.18164063 0.0703125,-0.3515625 V -2.7895828 h 0.46875 z m 0,0"
         style="fill:#000000;fill-opacity:1;fill-rule:nonzero;stroke:none"
         aria-label="j"
         transform="matrix(1.3333333,0,0,1.3333333,511.33082,830.27991)"
         clip-path="url(#clipPath446-8)" />
      <g
         id="g446"
         aria-label="=25C."
         transform="matrix(1.3333333,0,0,1.3333333,515.49082,828.59991)"
         clip-path="url(#clipPath450-7)">
        <path
           id="path447"
           d="m 0.33878906,-2.9534109 v -0.515625 H 3.7841016 v 0.515625 z m 0,1.7695312 v -0.515625 H 3.7841016 v 0.515625 z M 6.470625,-2.859375e-4 V -0.43387969 c 0.1171875,-0.27246093 0.2607422,-0.50976562 0.4335938,-0.71484371 0.1699218,-0.2109375 0.3515625,-0.3984375 0.5390625,-0.5625 0.1875,-0.1699219 0.3691406,-0.328125 0.5507812,-0.46875 0.1787109,-0.140625 0.3427734,-0.28125 0.4921875,-0.421875 0.1464844,-0.1464844 0.2636719,-0.2988282 0.3515625,-0.4570313 0.09375,-0.1552734 0.140625,-0.3310547 0.140625,-0.5273437 0,-0.2636719 -0.079102,-0.4716797 -0.234375,-0.6210938 -0.1582031,-0.1464844 -0.3720703,-0.2226562 -0.6445312,-0.2226562 -0.2666016,0 -0.4863282,0.076172 -0.65625,0.2226562 -0.1728516,0.140625 -0.2753907,0.3398438 -0.3046875,0.5976563 l -0.6328125,-0.058594 c 0.046875,-0.3896484 0.2109375,-0.6972656 0.4921875,-0.9257812 0.28125,-0.234375 0.6474609,-0.3515625 1.1015625,-0.3515625 0.4921875,0 0.8671875,0.1171875 1.125,0.3515625 0.2636718,0.234375 0.3984375,0.5625 0.3984375,0.984375 0,0.1875 -0.043945,0.375 -0.1289063,0.5625 -0.087891,0.1875 -0.2167969,0.375 -0.3867187,0.5625 -0.1728516,0.1875 -0.4980469,0.477539 -0.9726563,0.8671875 C 7.8680859,-1.3977471 7.6571484,-1.201458 7.501875,-1.0315361 7.3436719,-0.85868457 7.2323438,-0.69169239 7.1620313,-0.52762989 H 9.705 V -2.859375e-4 Z M 13.660078,-1.5823172 c 0,0.5097656 -0.158203,0.91113283 -0.46875,1.20703126 -0.304687,0.29882813 -0.726562,0.4453125 -1.265625,0.4453125 -0.454101,0 -0.820312,-0.09667968 -1.101562,-0.29296875 -0.275391,-0.20214843 -0.451172,-0.4921875 -0.527344,-0.86718751 l 0.632812,-0.070312 c 0.131836,0.48632814 0.46875,0.72656251 1.007813,0.72656251 0.333984,0 0.597656,-0.0996094 0.785156,-0.3046875 0.1875,-0.20214843 0.28125,-0.48046871 0.28125,-0.83203121 0,-0.3046875 -0.09375,-0.5507813 -0.28125,-0.7382813 -0.1875,-0.1933594 -0.445312,-0.2929687 -0.773437,-0.2929687 -0.164063,0 -0.322266,0.029297 -0.46875,0.082031 -0.140625,0.055664 -0.28711,0.1464844 -0.433594,0.2695313 h -0.609375 l 0.164062,-2.625 h 2.765625 v 0.5390625 h -2.191406 l -0.09375,1.5351562 c 0.263672,-0.2021484 0.597656,-0.3046875 0.996094,-0.3046875 0.483398,0 0.867187,0.140625 1.148437,0.421875 0.28711,0.28125 0.433594,0.6503906 0.433594,1.1015622 z m 0,0"
           style="fill:#000000;fill-opacity:1;fill-rule:nonzero;stroke:none" />
        <path
           id="path448"
           d="m 18.441328,-3.7268484 c 0,0.290039 -0.105469,0.5390625 -0.316406,0.75 -0.205078,0.2050781 -0.454102,0.3046875 -0.75,0.3046875 -0.298828,0 -0.550781,-0.099609 -0.761719,-0.3046875 -0.205078,-0.2109375 -0.304687,-0.459961 -0.304687,-0.75 0,-0.2958985 0.09961,-0.5449219 0.304687,-0.75 0.210938,-0.2109375 0.462891,-0.3164063 0.761719,-0.3164063 0.295898,0 0.544922,0.1054688 0.75,0.3164063 0.210937,0.2050781 0.316406,0.4541015 0.316406,0.75 z m -0.292969,-0.011719 c 0,-0.2109375 -0.0791,-0.3896484 -0.234375,-0.5390625 -0.149414,-0.1464844 -0.328125,-0.2226562 -0.539062,-0.2226562 -0.210938,0 -0.395508,0.076172 -0.550781,0.2226562 -0.149414,0.1494141 -0.222657,0.328125 -0.222657,0.5390625 0,0.2197266 0.07324,0.4042969 0.222657,0.5507813 0.155273,0.149414 0.339843,0.2226562 0.550781,0.2226562 0.210937,0 0.389648,-0.073242 0.539062,-0.2226562 0.155274,-0.1464844 0.234375,-0.3310547 0.234375,-0.5507813 z m 0,0"
           style="fill:#000000;fill-opacity:1;fill-rule:nonzero;stroke:none" />
        <path
           id="path449"
           d="m 21.5175,-4.4065359 c -0.539062,0 -0.960937,0.1757812 -1.265625,0.5273437 -0.298828,0.3457031 -0.445312,0.8173828 -0.445312,1.4179688 0,0.6035156 0.155273,1.086914 0.46875,1.453125 0.310546,0.36035153 0.732421,0.53906246 1.265625,0.53906246 0.679687,0 1.189453,-0.33984375 1.535156,-1.01953126 l 0.539062,0.2695313 c -0.196289,0.42187496 -0.477539,0.74414059 -0.84375,0.96093746 -0.360351,0.21972657 -0.782226,0.328125 -1.265625,0.328125 -0.492187,0 -0.919922,-0.09960937 -1.277343,-0.3046875 -0.351563,-0.20214843 -0.621094,-0.4921875 -0.808594,-0.86718746 -0.1875,-0.3808594 -0.28125,-0.834961 -0.28125,-1.359375 0,-0.7734375 0.205078,-1.3769532 0.621094,-1.8164063 0.421875,-0.4453125 1.001953,-0.6679687 1.746093,-0.6679687 0.515625,0 0.94336,0.102539 1.289063,0.3046875 0.351562,0.2050781 0.609375,0.5039062 0.773437,0.9023437 l -0.621093,0.2109375 c -0.111329,-0.28125 -0.29004,-0.4951172 -0.539063,-0.6445312 -0.251953,-0.1552735 -0.547852,-0.234375 -0.890625,-0.234375 z m 3.00293,4.4062499625 V -0.76200469 h 0.679687 v 0.7617187525 z m 0,0"
           style="fill:#000000;fill-opacity:1;fill-rule:nonzero;stroke:none" />
      </g>
    </g>
  </g>
</svg>
