<?xml version="1.0" encoding="UTF-8" standalone="no"?>
<!-- Created with Inkscape (http://www.inkscape.org/) -->

<svg
   width="64.472549mm"
   height="67.159348mm"
   viewBox="0 0 64.472549 67.159348"
   version="1.1"
   id="svg1"
   xmlns="http://www.w3.org/2000/svg"
   xmlns:svg="http://www.w3.org/2000/svg">
  <defs
     id="defs1">
    <clipPath
       clipPathUnits="userSpaceOnUse"
       id="clipPath465">
      <path
         d="M 0,841.98 H 595.2 V 0 H 0 Z"
         transform="translate(-257.66703,-659.22702)"
         id="path465" />
    </clipPath>
    <clipPath
       clipPathUnits="userSpaceOnUse"
       id="clipPath469">
      <path
         d="M 0,841.98 H 595.2 V 0 H 0 Z"
         transform="translate(-257.66703,-656.62201)"
         id="path469" />
    </clipPath>
    <clipPath
       clipPathUnits="userSpaceOnUse"
       id="clipPath491">
      <path
         d="M 0,841.98 H 595.2 V 0 H 0 Z"
         transform="translate(-96.60401,-520.52501)"
         id="path491" />
    </clipPath>
    <clipPath
       clipPathUnits="userSpaceOnUse"
       id="clipPath493">
      <path
         d="M 0,841.98 H 595.2 V 0 H 0 Z"
         transform="translate(-96.60401,-533.92502)"
         id="path493" />
    </clipPath>
    <clipPath
       clipPathUnits="userSpaceOnUse"
       id="clipPath495">
      <path
         d="M 0,841.98 H 595.2 V 0 H 0 Z"
         transform="translate(-96.60401,-547.32501)"
         id="path495" />
    </clipPath>
    <clipPath
       clipPathUnits="userSpaceOnUse"
       id="clipPath497">
      <path
         d="M 0,841.98 H 595.2 V 0 H 0 Z"
         transform="translate(-96.60401,-574.12501)"
         id="path497" />
    </clipPath>
    <clipPath
       clipPathUnits="userSpaceOnUse"
       id="clipPath499">
      <path
         d="M 0,841.98 H 595.2 V 0 H 0 Z"
         transform="translate(-96.60401,-560.72502)"
         id="path499" />
    </clipPath>
    <clipPath
       clipPathUnits="userSpaceOnUse"
       id="clipPath501">
      <path
         d="M 0,841.98 H 595.2 V 0 H 0 Z"
         transform="translate(-96.60401,-600.92502)"
         id="path501" />
    </clipPath>
    <clipPath
       clipPathUnits="userSpaceOnUse"
       id="clipPath503">
      <path
         d="M 0,841.98 H 595.2 V 0 H 0 Z"
         transform="translate(-96.60401,-587.52501)"
         id="path503" />
    </clipPath>
    <clipPath
       clipPathUnits="userSpaceOnUse"
       id="clipPath505">
      <path
         d="M 0,841.98 H 595.2 V 0 H 0 Z"
         transform="translate(-96.60401,-641.12502)"
         id="path505" />
    </clipPath>
    <clipPath
       clipPathUnits="userSpaceOnUse"
       id="clipPath507">
      <path
         d="M 0,841.98 H 595.2 V 0 H 0 Z"
         transform="translate(-96.60401,-627.72502)"
         id="path507" />
    </clipPath>
    <clipPath
       clipPathUnits="userSpaceOnUse"
       id="clipPath509">
      <path
         d="M 0,841.98 H 595.2 V 0 H 0 Z"
         transform="translate(-96.60401,-654.52501)"
         id="path509" />
    </clipPath>
    <clipPath
       clipPathUnits="userSpaceOnUse"
       id="clipPath511">
      <path
         d="M 0,841.98 H 595.2 V 0 H 0 Z"
         transform="translate(-96.60401,-614.32501)"
         id="path511" />
    </clipPath>
    <clipPath
       clipPathUnits="userSpaceOnUse"
       id="clipPath513">
      <path
         d="M 0,841.98 H 595.2 V 0 H 0 Z"
         transform="translate(-144.80298,-667.40101)"
         id="path513" />
    </clipPath>
    <clipPath
       clipPathUnits="userSpaceOnUse"
       id="clipPath515">
      <path
         d="M 0,841.98 H 595.2 V 0 H 0 Z"
         transform="translate(-225.19601,-667.40101)"
         id="path515" />
    </clipPath>
    <clipPath
       clipPathUnits="userSpaceOnUse"
       id="clipPath517">
      <path
         d="M 0,841.98 H 595.2 V 0 H 0 Z"
         transform="translate(-112.646,-667.40101)"
         id="path517" />
    </clipPath>
    <clipPath
       clipPathUnits="userSpaceOnUse"
       id="clipPath519">
      <path
         d="M 0,841.98 H 595.2 V 0 H 0 Z"
         transform="translate(-176.95998,-667.40101)"
         id="path519" />
    </clipPath>
    <clipPath
       clipPathUnits="userSpaceOnUse"
       id="clipPath521">
      <path
         d="M 0,841.98 H 595.2 V 0 H 0 Z"
         transform="translate(-209.11698,-667.40101)"
         id="path521" />
    </clipPath>
    <clipPath
       clipPathUnits="userSpaceOnUse"
       id="clipPath523">
      <path
         d="M 0,841.98 H 595.2 V 0 H 0 Z"
         transform="translate(-160.88103,-667.40101)"
         id="path523" />
    </clipPath>
    <clipPath
       clipPathUnits="userSpaceOnUse"
       id="clipPath525">
      <path
         d="M 0,841.98 H 595.2 V 0 H 0 Z"
         transform="translate(-128.72401,-667.40101)"
         id="path525" />
    </clipPath>
    <clipPath
       clipPathUnits="userSpaceOnUse"
       id="clipPath527">
      <path
         d="M 0,841.98 H 595.2 V 0 H 0 Z"
         transform="translate(-193.03803,-667.40101)"
         id="path527" />
    </clipPath>
    <clipPath
       clipPathUnits="userSpaceOnUse"
       id="clipPath529">
      <path
         d="M 0,841.98 H 595.2 V 0 H 0 Z"
         transform="translate(-241.27398,-667.40101)"
         id="path529" />
    </clipPath>
    <clipPath
       clipPathUnits="userSpaceOnUse"
       id="clipPath531">
      <path
         d="M 0,841.98 H 595.2 V 0 H 0 Z"
         transform="translate(-257.33103,-507.10602)"
         id="path531" />
    </clipPath>
    <clipPath
       clipPathUnits="userSpaceOnUse"
       id="clipPath533">
      <path
         d="M 0,841.98 H 595.2 V 0 H 0 Z"
         transform="translate(-257.33103,-507.10602)"
         id="path533" />
    </clipPath>
    <clipPath
       clipPathUnits="userSpaceOnUse"
       id="clipPath535">
      <path
         d="M 0,841.98 H 595.2 V 0 H 0 Z"
         transform="translate(-97.095005,-507.69201)"
         id="path535" />
    </clipPath>
    <clipPath
       clipPathUnits="userSpaceOnUse"
       id="clipPath537">
      <path
         d="M 0,841.98 H 595.2 V 0 H 0 Z"
         transform="translate(-217.36503,-614.05702)"
         id="path537" />
    </clipPath>
    <clipPath
       clipPathUnits="userSpaceOnUse"
       id="clipPath539">
      <path
         d="M 0,841.98 H 595.2 V 0 H 0 Z"
         transform="translate(-98.589005,-539.74801)"
         id="path539" />
    </clipPath>
    <clipPath
       clipPathUnits="userSpaceOnUse"
       id="clipPath541">
      <path
         d="M 0,841.98 H 595.2 V 0 H 0 Z"
         transform="translate(-97.153002,-514.22902)"
         id="path541" />
    </clipPath>
    <clipPath
       clipPathUnits="userSpaceOnUse"
       id="clipPath543">
      <path
         d="M 0,841.98 H 595.2 V 0 H 0 Z"
         transform="matrix(1,0,0,-1,-205.70553,496.22741)"
         id="path543" />
    </clipPath>
    <clipPath
       clipPathUnits="userSpaceOnUse"
       id="clipPath545">
      <path
         d="M 0,841.98 H 595.2 V 0 H 0 Z"
         transform="matrix(1,0,0,-1,-236.12568,670.48002)"
         id="path545" />
    </clipPath>
    <clipPath
       clipPathUnits="userSpaceOnUse"
       id="clipPath547">
      <path
         d="M 0,841.98 H 595.2 V 0 H 0 Z"
         transform="matrix(1,0,0,-1,-90.2543,638.13762)"
         id="path547" />
    </clipPath>
    <clipPath
       clipPathUnits="userSpaceOnUse"
       id="clipPath549">
      <path
         d="M 0,841.98 H 595.2 V 0 H 0 Z"
         transform="translate(-232.27503,-617.46002)"
         id="path549" />
    </clipPath>
    <clipPath
       clipPathUnits="userSpaceOnUse"
       id="clipPath551">
      <path
         d="M 0,841.98 H 595.2 V 0 H 0 Z"
         transform="matrix(1,0,0,-1,-197.23503,621.28512)"
         id="path551" />
    </clipPath>
    <clipPath
       clipPathUnits="userSpaceOnUse"
       id="clipPath553">
      <path
         d="M 0,841.98 H 595.2 V 0 H 0 Z"
         transform="translate(-245.56503,-567.01602)"
         id="path553" />
    </clipPath>
    <clipPath
       clipPathUnits="userSpaceOnUse"
       id="clipPath555">
      <path
         d="M 0,841.98 H 595.2 V 0 H 0 Z"
         transform="translate(-238.00803,-529.55101)"
         id="path555" />
    </clipPath>
    <clipPath
       clipPathUnits="userSpaceOnUse"
       id="clipPath557">
      <path
         d="M 0,841.98 H 595.2 V 0 H 0 Z"
         transform="translate(-243.64301,-509.78901)"
         id="path557" />
    </clipPath>
    <clipPath
       clipPathUnits="userSpaceOnUse"
       id="clipPath564">
      <path
         d="M 0,841.98 H 595.2 V 0 H 0 Z"
         transform="matrix(1,0,0,-0.99998585,-222.01578,569.06035)"
         id="path564" />
    </clipPath>
    <clipPath
       clipPathUnits="userSpaceOnUse"
       id="clipPath572">
      <path
         d="M 0,841.98 H 595.2 V 0 H 0 Z"
         transform="matrix(1,0,0,-1,-63.960004,446.06031)"
         id="path572" />
    </clipPath>
    <clipPath
       clipPathUnits="userSpaceOnUse"
       id="clipPath574">
      <path
         d="M 0,841.98 H 595.2 V 0 H 0 Z"
         transform="matrix(1,0,0,-1,-68.700004,444.80031)"
         id="path574" />
    </clipPath>
    <clipPath
       clipPathUnits="userSpaceOnUse"
       id="clipPath576">
      <path
         d="M 0,841.98 H 595.2 V 0 H 0 Z"
         transform="matrix(1,0,0,-1,-78.000004,446.06031)"
         id="path576" />
    </clipPath>
    <clipPath
       clipPathUnits="userSpaceOnUse"
       id="clipPath578">
      <path
         d="M 0,841.98 H 595.2 V 0 H 0 Z"
         transform="matrix(1,0,0,-1,-106.92001,444.80031)"
         id="path578" />
    </clipPath>
    <clipPath
       clipPathUnits="userSpaceOnUse"
       id="clipPath582">
      <path
         d="M 0,841.98 H 595.2 V 0 H 0 Z"
         transform="matrix(1,0,0,-1,-110.04001,446.06031)"
         id="path582" />
    </clipPath>
  </defs>
  <g
     id="layer1"
     transform="translate(-78.897859,-111.65417)">
    <g
       id="group-MC0"
       transform="matrix(0.26458333,0,0,0.26458333,-164.17819,52.436078)">
      <path
         id="path464"
         d="M 0,0 V -2.605"
         style="fill:#ffffff;fill-opacity:1;fill-rule:nonzero;stroke:none"
         transform="matrix(1.3333333,0,0,-1.3333333,1157.1827,243.69733)"
         clip-path="url(#clipPath465)" />
      <path
         id="path468"
         d="M 0,0 V -3.001"
         style="fill:#ffffff;fill-opacity:1;fill-rule:nonzero;stroke:none"
         transform="matrix(1.3333333,0,0,-1.3333333,1157.1827,247.17067)"
         clip-path="url(#clipPath469)" />
      <path
         id="path490"
         d="M 0,0 H 160.727"
         style="fill:none;stroke:#000000;stroke-width:0.354;stroke-linecap:butt;stroke-linejoin:miter;stroke-miterlimit:10;stroke-dasharray:none;stroke-opacity:1"
         transform="matrix(1.3333333,0,0,-1.3333333,942.43201,428.63334)"
         clip-path="url(#clipPath491)" />
      <path
         id="path492"
         d="M 0,0 H 160.727"
         style="fill:none;stroke:#000000;stroke-width:0.354;stroke-linecap:butt;stroke-linejoin:miter;stroke-miterlimit:10;stroke-dasharray:none;stroke-opacity:1"
         transform="matrix(1.3333333,0,0,-1.3333333,942.43201,410.76666)"
         clip-path="url(#clipPath493)" />
      <path
         id="path494"
         d="M 0,0 H 160.727"
         style="fill:none;stroke:#000000;stroke-width:0.354;stroke-linecap:butt;stroke-linejoin:miter;stroke-miterlimit:10;stroke-dasharray:none;stroke-opacity:1"
         transform="matrix(1.3333333,0,0,-1.3333333,942.43201,392.9)"
         clip-path="url(#clipPath495)" />
      <path
         id="path496"
         d="M 0,0 H 160.727"
         style="fill:none;stroke:#000000;stroke-width:0.354;stroke-linecap:butt;stroke-linejoin:miter;stroke-miterlimit:10;stroke-dasharray:none;stroke-opacity:1"
         transform="matrix(1.3333333,0,0,-1.3333333,942.43201,357.16667)"
         clip-path="url(#clipPath497)" />
      <path
         id="path498"
         d="M 0,0 H 160.727"
         style="fill:none;stroke:#000000;stroke-width:0.354;stroke-linecap:butt;stroke-linejoin:miter;stroke-miterlimit:10;stroke-dasharray:none;stroke-opacity:1"
         transform="matrix(1.3333333,0,0,-1.3333333,942.43201,375.03333)"
         clip-path="url(#clipPath499)" />
      <path
         id="path500"
         d="M 0,0 H 160.727"
         style="fill:none;stroke:#000000;stroke-width:0.354;stroke-linecap:butt;stroke-linejoin:miter;stroke-miterlimit:10;stroke-dasharray:none;stroke-opacity:1"
         transform="matrix(1.3333333,0,0,-1.3333333,942.43201,321.43333)"
         clip-path="url(#clipPath501)" />
      <path
         id="path502"
         d="M 0,0 H 160.727"
         style="fill:none;stroke:#000000;stroke-width:0.354;stroke-linecap:butt;stroke-linejoin:miter;stroke-miterlimit:10;stroke-dasharray:none;stroke-opacity:1"
         transform="matrix(1.3333333,0,0,-1.3333333,942.43201,339.30001)"
         clip-path="url(#clipPath503)" />
      <path
         id="path504"
         d="M 0,0 H 160.727"
         style="fill:none;stroke:#000000;stroke-width:0.354;stroke-linecap:butt;stroke-linejoin:miter;stroke-miterlimit:10;stroke-dasharray:none;stroke-opacity:1"
         transform="matrix(1.3333333,0,0,-1.3333333,942.43201,267.83333)"
         clip-path="url(#clipPath505)" />
      <path
         id="path506"
         d="M 0,0 H 160.727"
         style="fill:none;stroke:#000000;stroke-width:0.354;stroke-linecap:butt;stroke-linejoin:miter;stroke-miterlimit:10;stroke-dasharray:none;stroke-opacity:1"
         transform="matrix(1.3333333,0,0,-1.3333333,942.43201,285.69999)"
         clip-path="url(#clipPath507)" />
      <path
         id="path508"
         d="M 0,0 H 160.727"
         style="fill:none;stroke:#000000;stroke-width:0.354;stroke-linecap:butt;stroke-linejoin:miter;stroke-miterlimit:10;stroke-dasharray:none;stroke-opacity:1"
         transform="matrix(1.3333333,0,0,-1.3333333,942.43201,249.96667)"
         clip-path="url(#clipPath509)" />
      <path
         id="path510"
         d="M 0,0 H 160.727"
         style="fill:none;stroke:#000000;stroke-width:0.354;stroke-linecap:butt;stroke-linejoin:miter;stroke-miterlimit:10;stroke-dasharray:none;stroke-opacity:1"
         transform="matrix(1.3333333,0,0,-1.3333333,942.43201,303.56667)"
         clip-path="url(#clipPath511)" />
      <path
         id="path512"
         d="M 0,0 V -160.295"
         style="fill:none;stroke:#000000;stroke-width:0.354;stroke-linecap:butt;stroke-linejoin:miter;stroke-miterlimit:10;stroke-dasharray:none;stroke-opacity:1"
         transform="matrix(1.3333333,0,0,-1.3333333,1006.6973,232.79867)"
         clip-path="url(#clipPath513)" />
      <path
         id="path514"
         d="M 0,0 V -160.295"
         style="fill:none;stroke:#000000;stroke-width:0.354;stroke-linecap:butt;stroke-linejoin:miter;stroke-miterlimit:10;stroke-dasharray:none;stroke-opacity:1"
         transform="matrix(1.3333333,0,0,-1.3333333,1113.888,232.79867)"
         clip-path="url(#clipPath515)" />
      <path
         id="path516"
         d="M 0,0 V -160.295"
         style="fill:none;stroke:#000000;stroke-width:0.354;stroke-linecap:butt;stroke-linejoin:miter;stroke-miterlimit:10;stroke-dasharray:none;stroke-opacity:1"
         transform="matrix(1.3333333,0,0,-1.3333333,963.82133,232.79867)"
         clip-path="url(#clipPath517)" />
      <path
         id="path518"
         d="M 0,0 V -160.295"
         style="fill:none;stroke:#000000;stroke-width:0.354;stroke-linecap:butt;stroke-linejoin:miter;stroke-miterlimit:10;stroke-dasharray:none;stroke-opacity:1"
         transform="matrix(1.3333333,0,0,-1.3333333,1049.5733,232.79867)"
         clip-path="url(#clipPath519)" />
      <path
         id="path520"
         d="M 0,0 V -160.295"
         style="fill:none;stroke:#000000;stroke-width:0.354;stroke-linecap:butt;stroke-linejoin:miter;stroke-miterlimit:10;stroke-dasharray:none;stroke-opacity:1"
         transform="matrix(1.3333333,0,0,-1.3333333,1092.4493,232.79867)"
         clip-path="url(#clipPath521)" />
      <path
         id="path522"
         d="M 0,0 V -160.295"
         style="fill:none;stroke:#000000;stroke-width:0.354;stroke-linecap:butt;stroke-linejoin:miter;stroke-miterlimit:10;stroke-dasharray:none;stroke-opacity:1"
         transform="matrix(1.3333333,0,0,-1.3333333,1028.1347,232.79867)"
         clip-path="url(#clipPath523)" />
      <path
         id="path524"
         d="M 0,0 V -160.295"
         style="fill:none;stroke:#000000;stroke-width:0.354;stroke-linecap:butt;stroke-linejoin:miter;stroke-miterlimit:10;stroke-dasharray:none;stroke-opacity:1"
         transform="matrix(1.3333333,0,0,-1.3333333,985.25867,232.79867)"
         clip-path="url(#clipPath525)" />
      <path
         id="path526"
         d="M 0,0 V -160.295"
         style="fill:none;stroke:#000000;stroke-width:0.354;stroke-linecap:butt;stroke-linejoin:miter;stroke-miterlimit:10;stroke-dasharray:none;stroke-opacity:1"
         transform="matrix(1.3333333,0,0,-1.3333333,1071.0107,232.79867)"
         clip-path="url(#clipPath527)" />
      <path
         id="path528"
         d="M 0,0 V -160.295"
         style="fill:none;stroke:#000000;stroke-width:0.354;stroke-linecap:butt;stroke-linejoin:miter;stroke-miterlimit:10;stroke-dasharray:none;stroke-opacity:1"
         transform="matrix(1.3333333,0,0,-1.3333333,1135.3253,232.79867)"
         clip-path="url(#clipPath529)" />
      <path
         id="path530"
         d="M -160.818,0 H 0 v 160.56 h -160.818 z"
         style="fill:none;stroke:#000000;stroke-width:0.354;stroke-linecap:butt;stroke-linejoin:miter;stroke-miterlimit:10;stroke-dasharray:none;stroke-opacity:1"
         transform="matrix(1.3333333,0,0,-1.3333333,1156.7347,446.52533)"
         clip-path="url(#clipPath531)" />
      <path
         id="path532"
         d="M 0,0 Z"
         style="fill:none;stroke:#000000;stroke-width:0.354;stroke-linecap:butt;stroke-linejoin:miter;stroke-miterlimit:10;stroke-dasharray:none;stroke-opacity:1"
         transform="matrix(1.3333333,0,0,-1.3333333,1156.7347,446.52533)"
         clip-path="url(#clipPath533)" />
      <path
         id="path534"
         d="m 0,0 c 2.185,5.907 18.513,4.704 25.808,5.018 3.644,0.158 16.96,0.711 94.462,1.654"
         style="fill:none;stroke:#000000;stroke-width:1.003;stroke-linecap:butt;stroke-linejoin:miter;stroke-miterlimit:10;stroke-dasharray:none;stroke-opacity:1"
         transform="matrix(1.3333333,0,0,-1.3333333,943.08667,445.744)"
         clip-path="url(#clipPath535)" />
      <path
         id="path536"
         d="m 0,0 c -29.626,-0.355 -48.317,0.251 -66.417,-0.427 -27.278,-1.022 -42.478,-9.389 -50.756,-59.464 -3.951,-23.899 -3.097,-43.577 -3.097,-46.474"
         style="fill:none;stroke:#000000;stroke-width:1.003;stroke-linecap:butt;stroke-linejoin:miter;stroke-miterlimit:10;stroke-dasharray:none;stroke-opacity:1"
         transform="matrix(1.3333333,0,0,-1.3333333,1103.4467,303.92399)"
         clip-path="url(#clipPath537)" />
      <path
         id="path538"
         d="m 0,0 c 0.692,5.928 2.485,10.839 5.296,15.872 9.376,16.786 35.536,14.357 57.406,15.054 14.884,0.474 32.512,0.159 56.074,0.287"
         style="fill:none;stroke:#000000;stroke-width:1.003;stroke-linecap:butt;stroke-linejoin:miter;stroke-miterlimit:10;stroke-dasharray:none;stroke-opacity:1"
         transform="matrix(1.3333333,0,0,-1.3333333,945.07867,403.00267)"
         clip-path="url(#clipPath539)" />
      <path
         id="path540"
         d="m 0,0 c 3.647,17.925 22.888,17.897 38.607,18.729 3.643,0.192 4.103,0 81.605,0.943"
         style="fill:none;stroke:#000000;stroke-width:1.003;stroke-linecap:butt;stroke-linejoin:miter;stroke-miterlimit:10;stroke-dasharray:none;stroke-opacity:1"
         transform="matrix(1.3333333,0,0,-1.3333333,943.164,437.02799)"
         clip-path="url(#clipPath541)" />
      <path
         id="path542"
         d="M 2.7066094,8.375e-4 H 2.0152031 l -1.98046872,-4.875 H 0.72614063 L 2.0737969,-1.4405687 2.3667656,-0.5851 2.6597344,-1.4405687 3.9956719,-4.8741625 h 0.6914062 z m 6.7851562,-0.12890625 c 0,0.50097656 -0.099609,0.94335938 -0.2929687,1.32421875 C 9.0025078,1.57115 8.7241875,1.8611891 8.3667656,2.0633375 8.0064141,2.2596266 7.5933281,2.3563063 7.1245781,2.3563063 H 5.3081719 v -4.875 h 1.6054687 c 0.8261719,0 1.4648438,0.2080078 1.9101563,0.6210937 0.4453125,0.4160156 0.6679687,1.00488281 0.6679687,1.76953125 z m -0.65625,0 c 0,-0.60058594 -0.1699218,-1.05761715 -0.5039062,-1.37109375 -0.328125,-0.3193359 -0.8056641,-0.4804687 -1.4296875,-0.4804687 h -0.9375 v 3.8085937 h 1.078125 c 0.3574219,0 0.6738281,-0.076172 0.9492187,-0.234375 C 8.2642266,1.4393141 8.4722344,1.2137281 8.6128594,0.9149 8.7593438,0.61900156 8.8355156,0.27036875 8.8355156,-0.12806875 Z M 14.22907,1.00865 c 0,0.4541016 -0.175781,0.8056641 -0.527343,1.0546875 -0.351563,0.2431641 -0.84961,0.3632813 -1.488282,0.3632813 -1.180664,0 -1.86914,-0.413086 -2.0625,-1.2421875 L 10.795477,1.055525 c 0.07031,0.2988281 0.225586,0.515625 0.46875,0.65625 0.240234,0.1347656 0.568359,0.1992188 0.984375,0.1992188 0.421875,0 0.74414,-0.073242 0.972656,-0.2226563 0.234375,-0.1464844 0.351562,-0.3632812 0.351562,-0.6445312 0,-0.15527349 -0.03516,-0.28125005 -0.105468,-0.37500005 C 13.397039,0.56919688 13.2945,0.48716563 13.162664,0.4227125 13.027898,0.3524 12.872625,0.29966563 12.693914,0.25865 12.512273,0.211775 12.310125,0.16197031 12.084539,0.10630625 11.70075,0.02134531 11.407781,-0.06068594 11.205633,-0.1397875 c -0.196289,-0.0849609 -0.351563,-0.17871094 -0.46875,-0.28125 -0.111328,-0.10839844 -0.196289,-0.234375 -0.257813,-0.375 -0.06445,-0.140625 -0.09375,-0.3046875 -0.09375,-0.4921875 0,-0.4130859 0.158203,-0.7324219 0.480469,-0.9609375 0.319336,-0.2255859 0.776367,-0.3398437 1.371094,-0.3398437 0.544922,0 0.963867,0.087891 1.253906,0.2578125 0.295899,0.1728515 0.503906,0.4628906 0.621094,0.8671875 l -0.644531,0.1171875 c -0.07031,-0.2578125 -0.208008,-0.4453125 -0.410157,-0.5625 C 12.860906,-2.0265062 12.582586,-2.0851 12.225164,-2.0851 c -0.392578,0 -0.688476,0.067383 -0.890625,0.1992188 -0.205078,0.1259765 -0.304687,0.3134765 -0.304687,0.5625 0,0.1582031 0.03809,0.2871093 0.117187,0.3867187 0.07617,0.09375 0.19043,0.17578125 0.339844,0.24609375 0.146484,0.0644531 0.448242,0.14648438 0.902344,0.24609375 0.146484,0.0322266 0.295898,0.0673828 0.445312,0.10546875 0.146484,0.0322266 0.287109,0.0761719 0.421875,0.12890625 0.140625,0.046875 0.269531,0.10546875 0.386719,0.17578125 0.117187,0.06445313 0.216797,0.14648438 0.304687,0.24609375 0.08496,0.09375 0.152344,0.20800781 0.199219,0.33984375 0.05273,0.13476563 0.08203,0.28710938 0.08203,0.45703125 z m 2.730469,-2.8476562 c 0,-0.6621094 0.105469,-1.2597657 0.316406,-1.7929688 0.210938,-0.5302734 0.530274,-1.03125 0.960938,-1.5 h 0.609375 c -0.439453,0.4863281 -0.758789,0.9960938 -0.960938,1.5351563 -0.196289,0.5390625 -0.292968,1.1308593 -0.292968,1.7695312 0,0.6328125 0.09668,1.21875 0.292968,1.7578125 0.202149,0.5390625 0.521485,1.04882813 0.960938,1.5351563 h -0.609375 c -0.430664,-0.46875005 -0.75,-0.96972661 -0.960938,-1.50000005 -0.210937,-0.53027344 -0.316406,-1.12792965 -0.316406,-1.79296875 z m 4.631836,1.8398437 h -0.691406 l -1.980469,-4.875 h 0.691406 l 1.347657,3.4335938 0.292968,0.8554687 0.292969,-0.8554687 1.335938,-3.4335938 h 0.691406 z m 3.93457,-1.828125 c 0,0.6738281 -0.105468,1.27441406 -0.316406,1.8046875 -0.210937,0.52148438 -0.533203,1.01953125 -0.960937,1.4882813 h -0.597657 c 0.427735,-0.48632817 0.741211,-0.99316411 0.9375,-1.52343755 0.202149,-0.5390625 0.304688,-1.12792965 0.304688,-1.76953125 0,-0.6474609 -0.102539,-1.2363281 -0.304688,-1.7695312 -0.196289,-0.5390625 -0.509765,-1.0488282 -0.9375,-1.5351563 h 0.597657 c 0.436523,0.46875 0.755859,0.9697266 0.960937,1.5 0.210938,0.5332031 0.316406,1.1308594 0.316406,1.7929688 z M -122.54046,-161.23158 v -4.875 h 0.65625 v 4.875 z m 6.08203,-0.12598 c 0,0.50098 -0.0996,0.94336 -0.29297,1.32422 -0.19629,0.375 -0.47461,0.66504 -0.83203,0.86719 -0.36035,0.19628 -0.77344,0.29296 -1.24219,0.29296 h -1.8164 v -4.875 h 1.60547 c 0.82617,0 1.46484,0.20801 1.91015,0.6211 0.44531,0.41601 0.66797,1.00488 0.66797,1.76953 z m -0.65625,0 c 0,-0.60059 -0.16992,-1.05762 -0.50391,-1.37109 -0.32812,-0.31934 -0.80566,-0.48047 -1.42968,-0.48047 h -0.9375 v 3.80859 h 1.07812 c 0.35742,0 0.67383,-0.0762 0.94922,-0.23437 0.27246,-0.15528 0.48047,-0.38086 0.62109,-0.67969 0.14649,-0.2959 0.22266,-0.64453 0.22266,-1.04297 z m -9.77637,9.19922 c 0,-0.66211 0.10547,-1.25977 0.31641,-1.79297 0.21094,-0.53027 0.53027,-1.03125 0.96094,-1.5 h 0.60937 c -0.43945,0.48633 -0.75879,0.99609 -0.96094,1.53516 -0.19628,0.53906 -0.29296,1.13085 -0.29296,1.76953 0,0.63281 0.0967,1.21875 0.29296,1.75781 0.20215,0.53906 0.52149,1.04883 0.96094,1.53516 h -0.60937 c -0.43067,-0.46875 -0.75,-0.96973 -0.96094,-1.5 -0.21094,-0.53028 -0.31641,-1.12793 -0.31641,-1.79297 z m 4.58496,1.83984 v -2.36719 c 0,-0.36621 -0.0527,-0.61523 -0.15234,-0.75 -0.10254,-0.14062 -0.28125,-0.21093 -0.53906,-0.21093 -0.2666,0 -0.47754,0.10254 -0.63281,0.30468 -0.14942,0.20508 -0.22266,0.48926 -0.22266,0.85547 v 2.16797 h -0.62109 v -2.9414 c 0,-0.43653 -0.009,-0.70313 -0.0234,-0.79688 h 0.58594 c 0.006,0.009 0.0117,0.041 0.0117,0.0937 0,0.0469 0,0.10547 0,0.17578 0.006,0.0644 0.0147,0.18457 0.0234,0.36328 0.14063,-0.25781 0.2959,-0.43652 0.46875,-0.53906 0.16992,-0.1084 0.38086,-0.16406 0.63281,-0.16406 0.28125,0 0.50391,0.0586 0.66797,0.17578 0.16407,0.11133 0.27539,0.28711 0.33985,0.52734 h 0.0117 c 0.13183,-0.24902 0.2871,-0.42773 0.46875,-0.53906 0.1875,-0.1084 0.41015,-0.16406 0.66796,-0.16406 0.375,0 0.64747,0.10254 0.82032,0.30469 0.16992,0.20507 0.25781,0.53906 0.25781,1.00781 v 2.49609 h -0.60938 v -2.36719 c 0,-0.36621 -0.0527,-0.61523 -0.15234,-0.75 -0.10254,-0.14062 -0.28125,-0.21093 -0.53906,-0.21093 -0.2666,0 -0.47754,0.10254 -0.63281,0.30468 -0.14942,0.20508 -0.22266,0.48926 -0.22266,0.85547 v 2.16797 z m 7.26856,0 -0.55078,-1.42969 h -2.22656 l -0.55079,1.42969 h -0.6914 l 1.99219,-4.875 h 0.75 l 1.95703,4.875 z m -1.66406,-4.37109 -0.0352,0.0937 c -0.0557,0.19629 -0.1377,0.44238 -0.24609,0.73828 l -0.63282,1.60547 h 1.82813 l -0.62109,-1.61719 c -0.0703,-0.15527 -0.1377,-0.33398 -0.19922,-0.53906 z m 4.27734,2.54297 c 0,0.67382 -0.10547,1.27441 -0.31641,1.80468 -0.21093,0.52149 -0.5332,1.01954 -0.96093,1.48829 h -0.59766 c 0.42773,-0.48633 0.74121,-0.99317 0.9375,-1.52344 0.20215,-0.53906 0.30469,-1.12793 0.30469,-1.76953 0,-0.64746 -0.10254,-1.23633 -0.30469,-1.76953 -0.19629,-0.53907 -0.50977,-1.04883 -0.9375,-1.53516 h 0.59766 c 0.43652,0.46875 0.75586,0.96973 0.96093,1.5 0.21094,0.5332 0.31641,1.13086 0.31641,1.79297 z m 0.58887,-18.19629 c 0,0.51562 -0.14063,0.92285 -0.42188,1.21875 -0.27539,0.29883 -0.65625,0.44531 -1.14844,0.44531 -0.54785,0 -0.96679,-0.20215 -1.2539,-0.60937 -0.29004,-0.41309 -0.4336,-1.00782 -0.4336,-1.78125 0,-0.84375 0.14649,-1.49122 0.44532,-1.94532 0.30468,-0.45117 0.73242,-0.67968 1.28906,-0.67968 0.73242,0 1.19824,0.33398 1.39453,0.99609 l -0.59766,0.10547 c -0.11718,-0.39844 -0.38378,-0.59766 -0.79687,-0.59766 -0.36035,0 -0.63867,0.16992 -0.83203,0.50391 -0.19629,0.32812 -0.29297,0.80566 -0.29297,1.42969 0.11719,-0.21094 0.27539,-0.36915 0.48047,-0.48047 0.20215,-0.1084 0.43652,-0.16407 0.70312,-0.16407 0.45118,0 0.8086,0.14063 1.06641,0.42188 0.26367,0.28125 0.39844,0.66211 0.39844,1.13672 z m -0.63282,0.0234 c 0,-0.35157 -0.0879,-0.6211 -0.25781,-0.8086 -0.17285,-0.19336 -0.41015,-0.29297 -0.71484,-0.29297 -0.29883,0 -0.53613,0.0879 -0.71485,0.25782 -0.17285,0.17285 -0.25781,0.40722 -0.25781,0.70312 0,0.375 0.0879,0.68555 0.26953,0.92578 0.1875,0.23438 0.42481,0.35156 0.71485,0.35156 0.30468,0 0.53906,-0.0967 0.70312,-0.29296 0.16992,-0.20215 0.25781,-0.4834 0.25781,-0.84375 z m 0.66797,159.911128 c 0,0.8144529 -0.14648,1.4355467 -0.43359,1.8632811 -0.28125,0.430664 -0.70313,0.6445312 -1.26563,0.6445312 -0.55664,0 -0.97265,-0.2109375 -1.2539,-0.6328125 -0.28125,-0.4277344 -0.42188,-1.0546875 -0.42188,-1.8749998 0,-0.834961 0.13184,-1.458985 0.39844,-1.875 0.27246,-0.421875 0.70606,-0.632813 1.30078,-0.632813 0.56836,0 0.99024,0.210938 1.26563,0.632813 0.27246,0.421875 0.41015,1.048828 0.41015,1.875 z m -0.63281,0 c 0,-0.703125 -0.082,-1.209961 -0.24609,-1.523438 -0.15821,-0.319336 -0.42188,-0.480468 -0.79688,-0.480468 -0.38379,0 -0.66211,0.158203 -0.83203,0.46875 -0.16406,0.313476 -0.24609,0.826171 -0.24609,1.535156 0,0.6972654 0.085,1.2041014 0.25781,1.5234373 0.16992,0.3222656 0.43945,0.4804688 0.80859,0.4804688 0.36621,0 0.63282,-0.1640625 0.79688,-0.4921875 0.16992,-0.328125 0.25781,-0.8320313 0.25781,-1.5117186 z m 5.25586,6.5039061 c 0,0.8144531 -0.14648,1.4355468 -0.43359,1.8632812 -0.28125,0.4306641 -0.70313,0.6445313 -1.26563,0.6445313 -0.55664,0 -0.97265,-0.2109375 -1.2539,-0.6328125 -0.28125,-0.4277344 -0.42188,-1.0546875 -0.42188,-1.875 0,-0.834961 0.13184,-1.4589844 0.39844,-1.875 0.27246,-0.421875 0.70605,-0.6328125 1.30078,-0.6328125 0.56836,0 0.99023,0.2109375 1.26562,0.6328125 0.27247,0.421875 0.41016,1.0488281 0.41016,1.875 z m -0.63281,0 c 0,-0.703125 -0.082,-1.209961 -0.2461,-1.5234375 -0.1582,-0.319336 -0.42187,-0.4804688 -0.79687,-0.4804688 -0.38379,0 -0.66211,0.1582031 -0.83203,0.46875 -0.16406,0.3134766 -0.2461,0.8261719 -0.2461,1.5351563 0,0.6972656 0.085,1.2041015 0.25782,1.5234375 0.16992,0.3222656 0.43945,0.4804687 0.80859,0.4804687 0.36621,0 0.63281,-0.1640625 0.79688,-0.4921875 0.16992,-0.328125 0.25781,-0.8320312 0.25781,-1.5117187 z m 156.433592,2.4375 v -0.4335938 c 0.117187,-0.2724609 0.260742,-0.5097656 0.433593,-0.7148437 0.169922,-0.2109375 0.351563,-0.3984375 0.539063,-0.5625 0.1875,-0.1699219 0.36914,-0.328125 0.550781,-0.46875 0.178711,-0.140625 0.342774,-0.28125 0.492188,-0.421875 0.146484,-0.1464844 0.263671,-0.2988282 0.351562,-0.4570313 0.09375,-0.1552734 0.140625,-0.3310547 0.140625,-0.5273437 0,-0.2636719 -0.0791,-0.4716797 -0.234375,-0.6210938 -0.158203,-0.1464844 -0.37207,-0.2226562 -0.644531,-0.2226562 -0.266602,0 -0.486328,0.076172 -0.65625,0.2226562 -0.172852,0.140625 -0.275391,0.3398438 -0.304688,0.5976563 l -0.632812,-0.058594 c 0.04687,-0.3896484 0.210937,-0.6972656 0.492187,-0.9257812 0.28125,-0.234375 0.647461,-0.3515625 1.101563,-0.3515625 0.492187,0 0.867187,0.1171875 1.125,0.3515625 0.263672,0.234375 0.398437,0.5625 0.398437,0.984375 0,0.1875 -0.04395,0.375 -0.128906,0.5625 -0.08789,0.1875 -0.216797,0.375 -0.386719,0.5625 -0.172851,0.1875 -0.498047,0.477539 -0.972656,0.8671875 -0.266601,0.2197265 -0.477539,0.4160156 -0.632812,0.5859375 -0.158204,0.1728515 -0.269532,0.3398437 -0.339844,0.5039062 h 2.542969 v 0.5273438 z m 7.242187,-2.4375 c 0,0.8144531 -0.146484,1.4355468 -0.433594,1.8632812 -0.28125,0.4306641 -0.703125,0.6445313 -1.265625,0.6445313 -0.55664,0 -0.972656,-0.2109375 -1.253906,-0.6328125 -0.28125,-0.4277344 -0.421875,-1.0546875 -0.421875,-1.875 0,-0.834961 0.131836,-1.4589844 0.398438,-1.875 0.272461,-0.421875 0.706054,-0.6328125 1.300781,-0.6328125 0.568359,0 0.990234,0.2109375 1.265625,0.6328125 0.272461,0.421875 0.410156,1.0488281 0.410156,1.875 z m -0.632812,0 c 0,-0.703125 -0.08203,-1.209961 -0.246094,-1.5234375 -0.158203,-0.319336 -0.421875,-0.4804688 -0.796875,-0.4804688 -0.383789,0 -0.66211,0.1582031 -0.832031,0.46875 -0.164063,0.3134766 -0.246094,0.8261719 -0.246094,1.5351563 0,0.6972656 0.08496,1.2041015 0.257812,1.5234375 0.169922,0.3222656 0.439453,0.4804687 0.808594,0.4804687 0.366211,0 0.632813,-0.1640625 0.796875,-0.4921875 0.169922,-0.328125 0.257813,-0.8320312 0.257813,-1.5117187 z m -87.84375,2.4375 v -0.5273438 h 1.242187 v -3.75 l -1.101562,0.7851563 v -0.5859375 l 1.148437,-0.796875 h 0.574219 v 4.3476562 h 1.183594 v 0.5273438 z m 7.054687,-2.4375 c 0,0.8144531 -0.146484,1.4355468 -0.433594,1.8632812 -0.28125,0.4306641 -0.703125,0.6445313 -1.265625,0.6445313 -0.55664,0 -0.972656,-0.2109375 -1.253906,-0.6328125 -0.28125,-0.4277344 -0.421875,-1.0546875 -0.421875,-1.875 0,-0.834961 0.131836,-1.4589844 0.398438,-1.875 0.272461,-0.421875 0.706054,-0.6328125 1.300781,-0.6328125 0.568359,0 0.990234,0.2109375 1.265625,0.6328125 0.272461,0.421875 0.410156,1.0488281 0.410156,1.875 z m -0.632812,0 c 0,-0.703125 -0.08203,-1.209961 -0.246094,-1.5234375 -0.158203,-0.319336 -0.421875,-0.4804688 -0.796875,-0.4804688 -0.383789,0 -0.66211,0.1582031 -0.832031,0.46875 -0.164063,0.3134766 -0.246094,0.8261719 -0.246094,1.5351563 0,0.6972656 0.08496,1.2041015 0.257812,1.5234375 0.169922,0.3222656 0.439453,0.4804687 0.808594,0.4804687 0.366211,0 0.632813,-0.1640625 0.796875,-0.4921875 0.169922,-0.328125 0.257813,-0.8320312 0.257813,-1.5117187 z m 0,0"
         style="fill:#000000;fill-opacity:1;fill-rule:nonzero;stroke:none"
         aria-label="V&#10;DS&#10; (V)&#10;I&#10;D&#10;(mA)&#10;6&#10;0&#10;02010"
         transform="matrix(1.3333333,0,0,1.3333333,1087.9007,461.03013)"
         clip-path="url(#clipPath543)" />
      <path
         id="path544"
         d="m 3.2707844,-0.00144531 0.46875,-2.40234379 c 0.061523,-0.3193359 0.1171875,-0.5800781 0.1640625,-0.7851562 -0.1582031,0.328125 -0.28125,0.5712891 -0.375,0.7265625 L 2.1106281,-0.00144531 H 1.7825031 L 1.3020344,-2.4623828 c -0.00879,-0.046875 -0.043945,-0.2871094 -0.1054688,-0.7265625 -0.017578,0.1113281 -0.043945,0.2753906 -0.082031,0.4921875 -0.032227,0.2197266 -0.19921877,1.1191406 -0.50390627,2.69531249 h -0.4453125 l 0.703125,-3.65624999 H 1.4895344 l 0.4804687,2.53125 c 0.014649,0.070312 0.041016,0.25195311 0.082031,0.53906249 L 2.3215656,-1.1381641 3.7629719,-3.6576953 h 0.65625 l -0.703125,3.65624999 z M 5.2893391,-3.6576953 h 1.3242187 c 0.3574219,0 0.6445313,0.079102 0.8554688,0.234375 0.2109375,0.1494141 0.3164062,0.3515625 0.3164062,0.609375 0,0.4921875 -0.2929687,0.7910156 -0.8789062,0.890625 0.234375,0.041016 0.4160156,0.1289062 0.5507812,0.2695312 0.131836,0.140625 0.1992188,0.3134766 0.1992188,0.515625 0,0.36914066 -0.1376953,0.65039066 -0.4101563,0.84375004 -0.2666015,0.19628906 -0.6386719,0.29296875 -1.1132812,0.29296875 h -1.546875 z m 0.1992187,1.5585937 h 0.8554688 c 0.6152343,0 0.9257812,-0.2226562 0.9257812,-0.6679687 0,-0.328125 -0.234375,-0.4921875 -0.703125,-0.4921875 H 5.7112141 Z m -0.328125,1.69921879 h 0.9492188 c 0.3574218,0 0.6240234,-0.0615234 0.796875,-0.1875 0.1699218,-0.12304688 0.2578125,-0.31054688 0.2578125,-0.56249999 0,-0.1787109 -0.070312,-0.3164063 -0.2109375,-0.4101563 -0.140625,-0.099609 -0.3398438,-0.1523437 -0.5976563,-0.1523437 H 5.4065266 Z m 5.4521482,0.3984375 0.328125,-1.68749999 H 8.9485188 l -0.328125,1.68749999 H 8.1282063 L 8.84305,-3.6576953 H 9.3352375 L 9.03055,-2.1108203 h 1.992188 l 0.292968,-1.546875 h 0.492188 L 11.09305,-0.00144531 Z M 12.68973,-3.6576953 h 2.074218 l -0.07031,0.3984375 h -1.652344 l -0.292969,1.1601562 c 0.08496,-0.070312 0.1875,-0.1230468 0.304688,-0.1640625 0.123047,-0.046875 0.260742,-0.070312 0.410156,-0.070312 0.310547,0 0.56543,0.09375 0.761719,0.28125 0.193359,0.1816407 0.292969,0.4277344 0.292969,0.7382813 0,0.42187499 -0.125977,0.75585936 -0.375,0.99609374 -0.243164,0.24316406 -0.585938,0.36328125 -1.03125,0.36328125 -0.641602,0 -1.040039,-0.28125 -1.195313,-0.84375 l 0.421875,-0.1171875 c 0.05274,0.19628906 0.146485,0.34570312 0.28125,0.4453125 0.140625,0.09375 0.310547,0.140625 0.515625,0.140625 0.28711,0 0.506836,-0.0761719 0.65625,-0.234375 0.155274,-0.1640625 0.234375,-0.39257813 0.234375,-0.69140629 0,-0.2109375 -0.05859,-0.3779296 -0.175781,-0.5039062 -0.117188,-0.1230469 -0.27832,-0.1875 -0.480469,-0.1875 -0.28125,0 -0.524414,0.087891 -0.726562,0.2578125 h -0.457032 z m 2.953125,0 h 2.074218 l -0.07031,0.3984375 h -1.652344 l -0.292969,1.1601562 c 0.08496,-0.070312 0.1875,-0.1230468 0.304688,-0.1640625 0.123047,-0.046875 0.260742,-0.070312 0.410156,-0.070312 0.310547,0 0.56543,0.09375 0.761719,0.28125 0.193359,0.1816407 0.292969,0.4277344 0.292969,0.7382813 0,0.42187499 -0.125977,0.75585936 -0.375,0.99609374 -0.243164,0.24316406 -0.585938,0.36328125 -1.03125,0.36328125 -0.641602,0 -1.040039,-0.28125 -1.195313,-0.84375 l 0.421875,-0.1171875 c 0.05274,0.19628906 0.146485,0.34570312 0.28125,0.4453125 0.140625,0.09375 0.310547,0.140625 0.515625,0.140625 0.28711,0 0.506836,-0.0761719 0.65625,-0.234375 0.155274,-0.1640625 0.234375,-0.39257813 0.234375,-0.69140629 0,-0.2109375 -0.05859,-0.3779296 -0.175781,-0.5039062 -0.117188,-0.1230469 -0.27832,-0.1875 -0.480469,-0.1875 -0.28125,0 -0.524414,0.087891 -0.726562,0.2578125 H 15.13895 Z m 2.953125,0 h 2.074218 l -0.07031,0.3984375 h -1.652344 l -0.292969,1.1601562 c 0.08496,-0.070312 0.1875,-0.1230468 0.304688,-0.1640625 0.123047,-0.046875 0.260742,-0.070312 0.410156,-0.070312 0.310547,0 0.56543,0.09375 0.761719,0.28125 0.193359,0.1816407 0.292969,0.4277344 0.292969,0.7382813 0,0.42187499 -0.125977,0.75585936 -0.375,0.99609374 -0.243164,0.24316406 -0.585938,0.36328125 -1.03125,0.36328125 -0.641602,0 -1.040039,-0.28125 -1.195313,-0.84375 l 0.421875,-0.1171875 c 0.05274,0.19628906 0.146485,0.34570312 0.28125,0.4453125 0.140625,0.09375 0.310547,0.140625 0.515625,0.140625 0.28711,0 0.506836,-0.0761719 0.65625,-0.234375 0.155274,-0.1640625 0.234375,-0.39257813 0.234375,-0.69140629 0,-0.2109375 -0.05859,-0.3779296 -0.175781,-0.5039062 -0.117188,-0.1230469 -0.27832,-0.1875 -0.480469,-0.1875 -0.28125,0 -0.524414,0.087891 -0.726562,0.2578125 h -0.457032 z m 0,0"
         style="fill:#000000;fill-opacity:1;fill-rule:nonzero;stroke:none"
         aria-label="MBH555"
         transform="matrix(1.3333333,0,0,1.3333333,1128.4609,228.69333)"
         clip-path="url(#clipPath545)" />
      <path
         id="path546"
         d="m 3.6451141,-1.5821266 c 0,0.5097657 -0.1582032,0.91113285 -0.46875,1.20703129 -0.3046875,0.29882812 -0.7265625,0.4453125 -1.265625,0.4453125 -0.4541016,0 -0.8203125,-0.09667969 -1.10156254,-0.29296875 C 0.53378594,-0.4249 0.35800469,-0.71493906 0.28183281,-1.0899391 l 0.6328125,-0.070312 c 0.13183589,0.48632816 0.46874999,0.72656254 1.00781249,0.72656254 0.3339844,0 0.5976563,-0.0996094 0.7851563,-0.3046875 0.1875,-0.20214844 0.28125,-0.48046874 0.28125,-0.83203124 0,-0.3046875 -0.09375,-0.5507813 -0.28125,-0.7382813 -0.1875,-0.1933593 -0.4453125,-0.2929687 -0.7734375,-0.2929687 -0.1640625,0 -0.3222657,0.029297 -0.46875,0.082031 -0.140625,0.055664 -0.2871094,0.1464844 -0.4335938,0.2695313 H 0.42245781 l 0.1640625,-2.625 H 3.3521453 v 0.5390625 H 1.1607391 l -0.09375,1.5351562 c 0.2636718,-0.2021484 0.5976562,-0.3046875 0.9960937,-0.3046875 0.4833984,0 0.8671875,0.140625 1.1484375,0.421875 0.2871094,0.28125 0.4335938,0.6503907 0.4335938,1.1015622 z M 3.0474578,25.151272 v 1.101562 H 2.4615203 V 25.151272 H 0.16464531 V 24.670803 L 2.3912078,21.377834 h 0.65625 v 3.28125 h 0.6796875 v 0.492188 z M 2.4615203,22.080959 c -0.00879,0.01758 -0.043945,0.0791 -0.1054687,0.1875 -0.055664,0.111328 -0.099609,0.184571 -0.1289063,0.222657 l -1.25390624,1.839843 -0.17578125,0.257813 -0.0585938,0.07031 H 2.4615203 Z m 1.1601563,29.961914 c 0,0.454102 -0.1464844,0.805664 -0.4335938,1.054688 -0.28125,0.243164 -0.6884766,0.363281 -1.21875,0.363281 -0.4921875,0 -0.8876953,-0.108398 -1.18359374,-0.328125 C 0.4957,52.907131 0.32284844,52.576077 0.27011406,52.136623 l 0.64453125,-0.05859 c 0.0761719,0.580078 0.42773439,0.867187 1.05468749,0.867187 0.3193359,0 0.5654297,-0.07617 0.7382813,-0.234375 0.1787109,-0.155273 0.2695312,-0.380859 0.2695312,-0.679687 0,-0.263672 -0.1025391,-0.47168 -0.3046875,-0.621094 C 2.4673797,51.263577 2.1744109,51.187405 1.7935516,51.187405 H 1.4419891 v -0.539063 h 0.3398437 c 0.3339844,0 0.5976563,-0.07324 0.7851563,-0.222656 0.1875,-0.155274 0.28125,-0.363281 0.28125,-0.621094 0,-0.257812 -0.079102,-0.459961 -0.234375,-0.609375 -0.1494141,-0.155273 -0.375,-0.234375 -0.6796875,-0.234375 -0.2753907,0 -0.4980469,0.07031 -0.6679688,0.210938 -0.1640625,0.140625 -0.2636719,0.339843 -0.29296874,0.597656 l -0.62109375,-0.05859 c 0.046875,-0.398437 0.2109375,-0.706055 0.4921875,-0.925781 0.28710939,-0.225586 0.65624999,-0.339844 1.10156249,-0.339844 0.4921875,0 0.8701172,0.114258 1.1367188,0.339844 0.2724609,0.228516 0.4101562,0.544922 0.4101562,0.949219 0,0.313476 -0.09082,0.568359 -0.2695312,0.761718 -0.1728516,0.196289 -0.421875,0.328125 -0.75,0.398438 v 0.01172 c 0.3574218,0.04102 0.6386718,0.161132 0.84375,0.363281 0.2021484,0.205078 0.3046875,0.462891 0.3046875,0.773437 z M 0.35214531,79.956936 v -0.433594 c 0.1171875,-0.272461 0.26074219,-0.509765 0.43359375,-0.714844 0.16992188,-0.210937 0.35156254,-0.398437 0.53906254,-0.5625 0.1875,-0.169921 0.3691406,-0.328125 0.5507812,-0.46875 0.1787109,-0.140625 0.3427734,-0.28125 0.4921875,-0.421875 0.1464844,-0.146484 0.2636719,-0.298828 0.3515625,-0.457031 0.09375,-0.155273 0.140625,-0.331055 0.140625,-0.527344 0,-0.263671 -0.079102,-0.471679 -0.234375,-0.621093 -0.1582031,-0.146485 -0.3720703,-0.222657 -0.6445312,-0.222657 -0.2666016,0 -0.4863282,0.07617 -0.65625,0.222657 C 1.15195,75.89053 1.0494109,76.089748 1.0201141,76.347561 l -0.63281254,-0.05859 c 0.046875,-0.389648 0.2109375,-0.697265 0.4921875,-0.925781 C 1.1607391,75.128811 1.52695,75.011623 1.9810516,75.011623 c 0.4921875,0 0.8671875,0.117188 1.125,0.351563 0.2636718,0.234375 0.3984375,0.5625 0.3984375,0.984375 0,0.1875 -0.043945,0.375 -0.1289063,0.5625 -0.087891,0.1875 -0.2167969,0.375 -0.3867187,0.5625 -0.1728516,0.1875 -0.4980469,0.477539 -0.9726563,0.867187 -0.2666016,0.219727 -0.4775391,0.416016 -0.6328125,0.585938 -0.1582031,0.172851 -0.2695312,0.339844 -0.3398437,0.503906 h 2.5429687 v 0.527344 z m 0.1875,27.436524 v -0.52734 H 1.7818328 v -3.75 l -1.10156249,0.78515 v -0.58594 l 1.14843749,-0.79687 h 0.5742188 v 4.34766 h 1.1835937 v 0.52734 z m 0,0"
         style="fill:#000000;fill-opacity:1;fill-rule:nonzero;stroke:none"
         aria-label="5&#10;4&#10;3&#10;2&#10;1"
         transform="matrix(1.3333333,0,0,1.3333333,933.96573,271.81653)"
         clip-path="url(#clipPath547)" />
      <path
         id="path548"
         d="M -37.233,0 H 0 V 9.646 H -37.233 Z M 0,0 Z"
         style="fill:#ffffff;fill-opacity:1;fill-rule:nonzero;stroke:#ffffff;stroke-width:0.059;stroke-linecap:butt;stroke-linejoin:miter;stroke-miterlimit:4;stroke-dasharray:none;stroke-opacity:1"
         transform="matrix(1.3333333,0,0,-1.3333333,1123.3267,299.38666)"
         clip-path="url(#clipPath549)" />
      <path
         id="path550"
         d="M 2.7073828,-0.00103281 H 2.0159766 L 0.03550781,-4.8760328 h 0.69140625 l 1.34765624,3.4335937 0.2929688,0.85546879 0.2929687,-0.85546879 1.3359375,-3.4335937 h 0.6914063 z m 2.3671875,-0.10253906 c 0,-0.78808594 0.2109375,-1.39746093 0.6328125,-1.82812503 0.4277344,-0.4365234 1.0253906,-0.65625 1.7929688,-0.65625 0.5390625,0 0.9755859,0.09375 1.3125,0.28125 0.3339843,0.1816407 0.5976562,0.46875 0.7851562,0.8671875 l -0.6328125,0.1875 C 8.8245703,-1.5244703 8.6312109,-1.7236891 8.3909766,-1.8496656 8.1478125,-1.9815016 7.8460547,-2.0488844 7.4886328,-2.0488844 c -0.5625,0 -0.993164,0.1728516 -1.2890625,0.515625 -0.2988281,0.3369141 -0.4453125,0.81445315 -0.4453125,1.42968753 0,0.61816406 0.1552735,1.10742187 0.46875,1.46484377 0.3105469,0.3515625 0.75,0.5273437 1.3125,0.5273437 0.3105469,0 0.6035156,-0.046875 0.8789063,-0.140625 0.28125,-0.099609 0.5068359,-0.234375 0.6796875,-0.3984375 V 0.47064688 h -1.453125 v -0.55078125 h 2.0625 V 1.5956469 C 9.4456641,1.8622484 9.1292578,2.0702563 8.7542578,2.2167406 c -0.375,0.140625 -0.7822265,0.2109375 -1.21875,0.2109375 -0.5097656,0 -0.9492187,-0.099609 -1.3242187,-0.3046875 C 5.8421484,1.9208422 5.5608984,1.6278734 5.3675391,1.2440844 5.17125,0.863225 5.0745703,0.41205313 5.0745703,-0.10357187 Z M 14.625352,1.0097094 c 0,0.4541015 -0.175782,0.805664 -0.527344,1.0546875 -0.351563,0.243164 -0.84961,0.3632812 -1.488281,0.3632812 -1.180664,0 -1.869141,-0.4130859 -2.0625,-1.2421875 l 0.644531,-0.1289062 c 0.07031,0.2988281 0.225586,0.515625 0.46875,0.65625 0.240234,0.1347656 0.568359,0.1992187 0.984375,0.1992187 0.421875,0 0.74414,-0.073242 0.972656,-0.2226562 0.234375,-0.1464844 0.351563,-0.3632813 0.351563,-0.6445313 0,-0.15527341 -0.03516,-0.28124997 -0.105469,-0.37499997 C 13.79332,0.57025625 13.690781,0.488225 13.558945,0.42377188 13.42418,0.35345938 13.268906,0.300725 13.090195,0.25970938 12.908555,0.21283438 12.706406,0.16302969 12.48082,0.10736563 12.097031,0.02240469 11.804063,-0.05962656 11.601914,-0.13872812 c -0.196289,-0.0849609 -0.351562,-0.17871094 -0.46875,-0.28125 -0.111328,-0.10839844 -0.196289,-0.234375 -0.257812,-0.375 -0.06445,-0.140625 -0.09375,-0.30468748 -0.09375,-0.49218748 0,-0.413086 0.158203,-0.7324219 0.480468,-0.9609375 0.319336,-0.225586 0.776368,-0.3398438 1.371094,-0.3398438 0.544922,0 0.963867,0.087891 1.253906,0.2578125 0.295899,0.1728516 0.503907,0.4628907 0.621094,0.8671875 l -0.644531,0.1171875 c -0.07031,-0.2578125 -0.208008,-0.4453125 -0.410156,-0.5625 -0.196289,-0.1171875 -0.47461,-0.1757812 -0.832032,-0.1757812 -0.392578,0 -0.688476,0.067383 -0.890625,0.1992187 -0.205078,0.1259766 -0.304687,0.3134766 -0.304687,0.5625 0,0.1582032 0.03809,0.2871094 0.117187,0.38671878 0.07617,0.09375 0.19043,0.17578125 0.339844,0.24609375 0.146484,0.0644531 0.448242,0.14648437 0.902344,0.24609375 0.146484,0.0322266 0.295898,0.0673828 0.445312,0.10546875 0.146485,0.0322266 0.28711,0.0761719 0.421875,0.12890625 0.140625,0.046875 0.269532,0.10546875 0.386719,0.17578125 0.117188,0.06445312 0.216797,0.14648437 0.304688,0.24609375 0.08496,0.09375 0.152343,0.20800781 0.199218,0.33984375 0.05274,0.13476562 0.08203,0.28710937 0.08203,0.45703127 z m 2.636718,-3.9638672 v -0.515625 h 3.445313 v 0.515625 z m 0,1.7695312 v -0.515625 h 3.445313 v 0.515625 z m 9.418946,-1.2539062 c 0,0.8144531 -0.146485,1.4355469 -0.433594,1.86328124 -0.28125,0.43066406 -0.703125,0.64453125 -1.265625,0.64453125 -0.556641,0 -0.972656,-0.2109375 -1.253906,-0.6328125 -0.28125,-0.42773438 -0.421875,-1.05468749 -0.421875,-1.87499999 0,-0.8349609 0.131836,-1.4589844 0.398437,-1.875 0.272461,-0.421875 0.706055,-0.6328125 1.300781,-0.6328125 0.56836,0 0.990235,0.2109375 1.265625,0.6328125 0.272461,0.421875 0.410157,1.0488281 0.410157,1.875 z m -0.632813,0 c 0,-0.703125 -0.08203,-1.2099609 -0.246094,-1.5234375 -0.158203,-0.3193359 -0.421875,-0.4804688 -0.796875,-0.4804688 -0.383789,0 -0.662109,0.1582032 -0.832031,0.46875 -0.164062,0.3134766 -0.246094,0.8261719 -0.246094,1.5351563 0,0.6972656 0.08496,1.2041016 0.257813,1.52343749 0.169922,0.32226562 0.439453,0.48046875 0.808594,0.48046875 0.366211,0 0.632812,-0.1640625 0.796875,-0.4921875 0.169922,-0.32812504 0.257812,-0.83203124 0.257812,-1.51171874 z m 5.589844,2.43749999 H 30.946641 L 28.966172,-4.8760328 h 0.691406 l 1.347656,3.4335937 0.292969,0.85546879 0.292969,-0.85546879 1.335937,-3.4335937 h 0.691407 z m 0,0"
         style="fill:#000000;fill-opacity:1;fill-rule:nonzero;stroke:none"
         aria-label="V&#10;GS&#10; = 0 V"
         transform="matrix(1.3333333,0,0,1.3333333,1076.6067,294.28653)"
         clip-path="url(#clipPath551)" />
      <path
         id="path552"
         d="M -25.027,0 H 0 V 8.542 H -25.027 Z M 0,0 Z"
         style="fill:#ffffff;fill-opacity:1;fill-rule:nonzero;stroke:#ffffff;stroke-width:0.059;stroke-linecap:butt;stroke-linejoin:miter;stroke-miterlimit:4;stroke-dasharray:none;stroke-opacity:1"
         transform="matrix(1.3333333,0,0,-1.3333333,1141.0467,366.64532)"
         clip-path="url(#clipPath553)" />
      <path
         id="path554"
         d="M -17.351,0 H 0 V 8.79 H -17.351 Z M 0,0 Z"
         style="fill:#ffffff;fill-opacity:1;fill-rule:nonzero;stroke:#ffffff;stroke-width:0.059;stroke-linecap:butt;stroke-linejoin:miter;stroke-miterlimit:4;stroke-dasharray:none;stroke-opacity:1"
         transform="matrix(1.3333333,0,0,-1.3333333,1130.9707,416.59867)"
         clip-path="url(#clipPath555)" />
      <path
         id="path556"
         d="M -22.986,0 H 0 V 9.039 H -22.986 Z M 0,0 Z"
         style="fill:#ffffff;fill-opacity:1;fill-rule:nonzero;stroke:#ffffff;stroke-width:0.059;stroke-linecap:butt;stroke-linejoin:miter;stroke-miterlimit:4;stroke-dasharray:none;stroke-opacity:1"
         transform="matrix(1.3333333,0,0,-1.3333333,1138.484,442.948)"
         clip-path="url(#clipPath557)" />
      <g
         id="g557"
         aria-label="−0.5 V&#10;−1 V&#10;−1.5 V"
         transform="matrix(1.3333333,0,0,1.3333522,1109.6477,363.9088)"
         clip-path="url(#clipPath564)">
        <path
           id="path558"
           d="M 0.08087969,-1.6513032 H 3.7840047 V -2.0380165 H 0.08087969 Z m 0,0"
           style="fill:#000000;fill-opacity:1;fill-rule:nonzero;stroke:none" />
        <path
           id="path559"
           d="m 7.5427938,-2.4364484 c 0,0.8144416 -0.1464844,1.4355266 -0.4335938,1.86325493 -0.28125,0.43065798 -0.703125,0.64452215 -1.265625,0.64452215 -0.5566406,0 -0.9726562,-0.21093452 -1.2539062,-0.63280356 -0.28125,-0.42772834 -0.421875,-1.05467262 -0.421875,-1.87497352 0,-0.8349491 0.1318359,-1.4589638 0.3984375,-1.8749735 0.2724609,-0.4218691 0.7060546,-0.6328036 1.3007812,-0.6328036 0.5683594,0 0.9902344,0.2109345 1.265625,0.6328036 0.2724609,0.421869 0.4101563,1.0488133 0.4101563,1.8749735 z m -0.6328125,0 c 0,-0.7031151 -0.082031,-1.2099438 -0.2460938,-1.523416 -0.1582031,-0.3193314 -0.421875,-0.4804619 -0.796875,-0.4804619 -0.3837891,0 -0.6621094,0.1582008 -0.8320312,0.4687433 -0.1640625,0.3134722 -0.2460938,0.8261602 -0.2460938,1.5351346 0,0.6972558 0.084961,1.2040846 0.2578125,1.52341598 0.1699219,0.32226108 0.4394531,0.48046197 0.8085938,0.48046197 0.3662109,0 0.6328125,-0.16406019 0.796875,-0.49218055 0.1699218,-0.3281204 0.2578125,-0.8320195 0.2578125,-1.5116974 z M 8.468575,0.00101717 v -0.76170799 h 0.6796875 v 0.76170799 z m 4.96875,-1.58200887 c 0,0.5097584 -0.158203,0.91111991 -0.46875,1.20701417 -0.304687,0.2988239 -0.726562,0.44530621 -1.265625,0.44530621 -0.454102,0 -0.820312,-0.09667832 -1.101562,-0.29296461 -0.275391,-0.20214558 -0.451172,-0.49218055 -0.527344,-0.86717527 l 0.632812,-0.070311 c 0.131836,0.48632127 0.46875,0.72655225 1.007813,0.72655225 0.333984,0 0.597656,-0.099608 0.785156,-0.3046832 0.1875,-0.20214558 0.28125,-0.48046195 0.28125,-0.83201945 0,-0.3046832 -0.09375,-0.5507735 -0.28125,-0.7382709 -0.1875,-0.1933566 -0.445312,-0.2929646 -0.773437,-0.2929646 -0.164063,0 -0.322266,0.029297 -0.46875,0.08203 -0.140625,0.055663 -0.28711,0.1464823 -0.433594,0.2695275 h -0.609375 l 0.164062,-2.624963 h 2.765625 v 0.5390549 H 10.95295 l -0.09375,1.5351346 c 0.263672,-0.2021456 0.597656,-0.3046832 0.996094,-0.3046832 0.483398,0 0.867187,0.140623 1.148437,0.421869 0.28711,0.2812461 0.433594,0.6503815 0.433594,1.1015466 z m 4.96582,1.58200887 H 17.711739 L 15.73127,-4.873914 h 0.691407 l 1.347656,3.4335453 0.292969,0.85545665 0.292968,-0.85545665 1.335938,-3.4335453 h 0.691406 z m 0,0"
           style="fill:#000000;fill-opacity:1;fill-rule:nonzero;stroke:none" />
        <path
           id="path560"
           d="M 0.20099688,36.73585 H 3.9041219 V 36.349137 H 0.20099688 Z m 0,0"
           style="fill:#000000;fill-opacity:1;fill-rule:nonzero;stroke:none" />
        <path
           id="path561"
           d="m 4.5457234,38.38817 v -0.527336 h 1.2421875 v -3.749947 l -1.1015625,0.785145 v -0.585929 l 1.1484375,-0.796864 h 0.5742188 v 4.347595 h 1.1835937 v 0.527336 z m 8.0742186,0 H 11.928536 L 9.9480672,33.513239 h 0.6914058 l 1.347657,3.433545 0.292968,0.855457 0.292969,-0.855457 1.335938,-3.433545 h 0.691406 z m 0,0"
           style="fill:#000000;fill-opacity:1;fill-rule:nonzero;stroke:none" />
        <path
           id="path562"
           d="M 0.20099688,55.585193 H 3.9041219 V 55.19848 H 0.20099688 Z m 0,0"
           style="fill:#000000;fill-opacity:1;fill-rule:nonzero;stroke:none" />
        <path
           id="path563"
           d="M 4.5457234,57.237513 V 56.710177 H 5.7879109 V 52.96023 l -1.1015625,0.785145 v -0.585929 l 1.1484375,-0.796864 h 0.5742188 v 4.347595 h 1.1835937 v 0.527336 z m 4.0429688,0 v -0.761708 h 0.6796875 v 0.761708 z m 4.9687498,-1.582008 c 0,0.509758 -0.158203,0.911119 -0.46875,1.207014 -0.304687,0.298824 -0.726562,0.445306 -1.265625,0.445306 -0.454101,0 -0.820312,-0.09668 -1.101562,-0.292965 -0.275391,-0.202145 -0.451172,-0.49218 -0.527344,-0.867175 l 0.632812,-0.07031 c 0.131836,0.486321 0.46875,0.726552 1.007813,0.726552 0.333984,0 0.597656,-0.09961 0.785156,-0.304683 0.1875,-0.202146 0.28125,-0.480462 0.28125,-0.83202 0,-0.304683 -0.09375,-0.550773 -0.28125,-0.738271 -0.1875,-0.193356 -0.445312,-0.292964 -0.773437,-0.292964 -0.164063,0 -0.322266,0.0293 -0.46875,0.08203 -0.140625,0.05566 -0.28711,0.146482 -0.433594,0.269527 h -0.609375 l 0.164062,-2.624963 h 2.765625 v 0.539055 h -2.191406 l -0.09375,1.535135 c 0.263672,-0.202146 0.597656,-0.304683 0.996094,-0.304683 0.483398,0 0.867187,0.140623 1.148437,0.421869 0.28711,0.281246 0.433594,0.650381 0.433594,1.101547 z m 4.965821,1.582008 h -0.691407 l -1.980468,-4.874931 h 0.691406 l 1.347656,3.433546 0.292969,0.855456 0.292969,-0.855456 1.335937,-3.433546 h 0.691406 z m 0,0"
           style="fill:#000000;fill-opacity:1;fill-rule:nonzero;stroke:none" />
      </g>
    </g>
    <path
       id="path571"
       d="M 2.7079687,-0.00122344 H 2.0165625 L 0.03609375,-4.8762234 H 0.7275 l 1.3476562,3.4335937 0.2929688,0.85546876 0.2929687,-0.85546876 1.3359375,-3.4335937 h 0.6914063 z m 0,0"
       style="fill:#000000;fill-opacity:1;fill-rule:nonzero;stroke:none"
       aria-label="V"
       transform="matrix(0.35277776,0,0,0.35277776,84.399281,177.98092)"
       clip-path="url(#clipPath572)" />
    <path
       id="path573"
       d="m 3.5636719,-1.8530203 c 0,0.375 -0.076172,0.703125 -0.2226563,0.98437499 -0.140625,0.28125 -0.3486328,0.49804687 -0.6210937,0.64453125 C 2.4533203,-0.0747 2.1457031,-0.00145781 1.7941406,-0.00145781 H 0.43476563 V -3.6342703 H 1.6417969 c 0.609375,0 1.0810547,0.1582031 1.4179687,0.46875 0.3339844,0.3046875 0.5039063,0.7441406 0.5039063,1.3125 z m -0.4921875,0 c 0,-0.4511719 -0.1259766,-0.796875 -0.375,-1.03125 C 2.4533203,-3.1245047 2.0988281,-3.2475516 1.6300781,-3.2475516 H 0.92695313 v 2.84765629 H 1.7355469 c 0.2636719,0 0.4980469,-0.0585938 0.703125,-0.17578125 0.2021484,-0.1171875 0.3574219,-0.28417969 0.46875,-0.50390624 0.1083984,-0.2167969 0.1640625,-0.4746094 0.1640625,-0.7734375 z m 4.0488281,0.84375 c 0,0.33691405 -0.1347656,0.59765624 -0.3984375,0.78515624 -0.2578125,0.18164062 -0.6269531,0.26953125 -1.1015625,0.26953125 -0.8847656,0 -1.4003906,-0.3046875 -1.546875,-0.9140625 l 0.4804688,-0.10546875 c 0.052734,0.21972656 0.1699218,0.38378906 0.3515625,0.4921875 0.1787109,0.10253906 0.421875,0.15234375 0.7265625,0.15234375 0.3193359,0 0.5654296,-0.0527344 0.7382812,-0.1640625 0.1699219,-0.10839844 0.2578125,-0.26953125 0.2578125,-0.48046875 0,-0.12304684 -0.029297,-0.22265624 -0.082031,-0.29296874 -0.046875,-0.076172 -0.1230469,-0.140625 -0.2226563,-0.1875 C 6.2296875,-1.5014578 6.1125,-1.5395437 5.971875,-1.5717703 5.8371094,-1.6010672 5.690625,-1.6362234 5.5265625,-1.6772391 5.2365234,-1.7387625 5.0167969,-1.8002859 4.8703125,-1.8647391 4.7208984,-1.9350516 4.6037109,-2.0082937 4.51875,-2.0873953 4.4308594,-2.1635672 4.3664063,-2.2543875 4.3195313,-2.3569266 c -0.046875,-0.099609 -0.070312,-0.2226562 -0.070312,-0.3632812 0,-0.3105469 0.1171875,-0.5507813 0.3515625,-0.7148438 0.2402343,-0.1699218 0.5859375,-0.2578125 1.03125,-0.2578125 0.4130859,0 0.7294921,0.064453 0.9492187,0.1875 0.2167969,0.1259766 0.3691406,0.3398438 0.4570313,0.6445313 l -0.4921875,0.09375 c -0.046875,-0.1933594 -0.1494146,-0.3339844 -0.304688,-0.421875 -0.1494141,-0.084961 -0.3574219,-0.1289063 -0.6210938,-0.1289063 -0.2900391,0 -0.5126953,0.046875 -0.6679687,0.140625 -0.1494141,0.09375 -0.2226563,0.2402344 -0.2226563,0.4335938 0,0.1113281 0.026367,0.2050781 0.082031,0.28125 0.061523,0.070312 0.1464843,0.1347656 0.2578125,0.1875 0.1171875,0.046875 0.3427734,0.1054687 0.6796875,0.1757812 0.1083984,0.032227 0.2167968,0.064453 0.328125,0.09375 0.1083984,0.023437 0.2138671,0.055664 0.3164062,0.09375 0.099609,0.032227 0.1933594,0.076172 0.28125,0.1289063 0.09375,0.046875 0.1699219,0.1054687 0.234375,0.1757812 0.070312,0.070312 0.1201172,0.1582032 0.1523438,0.2578125 0.038086,0.09375 0.058594,0.2080079 0.058594,0.3398438 z m 0,0"
       style="fill:#000000;fill-opacity:1;fill-rule:nonzero;stroke:none"
       aria-label="DS"
       transform="matrix(0.35277776,0,0,0.35277776,86.071448,178.42542)"
       clip-path="url(#clipPath574)" />
    <path
       id="path575"
       d="m 0.33984375,-2.9543484 v -0.515625 H 3.7851563 v 0.515625 z m 0,1.7695312 v -0.515625 H 3.7851563 v 0.515625 z M 6.609375,-0.00122344 V -0.52856719 H 7.8515625 V -4.2785672 L 6.75,-3.4934109 v -0.5859375 l 1.1484375,-0.796875 h 0.5742188 v 4.34765621 H 9.65625 v 0.52734375 z m 7.063477,-1.58203126 c 0,0.5097656 -0.158204,0.91113283 -0.46875,1.20703126 -0.304688,0.29882813 -0.726563,0.4453125 -1.265625,0.4453125 -0.454102,0 -0.820313,-0.09667968 -1.101563,-0.29296875 -0.275391,-0.20214843 -0.451172,-0.4921875 -0.527344,-0.86718751 l 0.632813,-0.070312 c 0.131836,0.48632814 0.46875,0.72656251 1.007812,0.72656251 0.333985,0 0.597657,-0.0996094 0.785157,-0.3046875 0.1875,-0.20214843 0.28125,-0.48046871 0.28125,-0.83203121 0,-0.3046875 -0.09375,-0.5507813 -0.28125,-0.7382813 -0.1875,-0.1933594 -0.445313,-0.2929687 -0.773438,-0.2929687 -0.164062,0 -0.322266,0.029297 -0.46875,0.082031 -0.140625,0.055664 -0.287109,0.1464844 -0.433594,0.2695313 h -0.609375 l 0.164063,-2.625 h 2.765625 v 0.5390625 h -2.191406 l -0.09375,1.5351562 c 0.263671,-0.2021484 0.597656,-0.3046875 0.996093,-0.3046875 0.483399,0 0.867188,0.140625 1.148438,0.421875 0.287109,0.28125 0.433594,0.6503906 0.433594,1.1015622 z m 4.933593,1.58203126 H 17.915039 L 15.93457,-4.8762234 h 0.691407 l 1.347656,3.4335937 0.292969,0.85546876 0.292968,-0.85546876 1.335938,-3.4335937 h 0.691406 z m 3.366211,-0.71484375 v 0.5390625 c 0,0.24023438 -0.02344,0.4453125 -0.07031,0.609375 -0.04687,0.1640625 -0.114258,0.31933594 -0.199219,0.46875 H 21.269533 C 21.48633,0.58764375 21.597658,0.28588594 21.597658,-0.00122344 H 21.292969 V -0.71606719 Z M 21.292969,-3.0246609 v -0.7148438 h 0.679687 v 0.7148438 z m 5.791992,-1.3125 v 4.33593746 h -0.65625 V -4.3371609 h -1.664063 v -0.5390625 h 3.996094 v 0.5390625 z m 0,0"
       style="fill:#000000;fill-opacity:1;fill-rule:nonzero;stroke:none"
       aria-label="=15V; T"
       transform="matrix(0.35277776,0,0,0.35277776,89.352281,177.98092)"
       clip-path="url(#clipPath576)" />
    <path
       id="path577"
       d="m 0.35050781,-3.3881766 v -0.4453125 h 0.46875 v 0.4453125 z m 0.46875,3.73828129 c 0,0.2578125 -0.0556641,0.4453125 -0.1640625,0.5625 C 0.55265625,1.0356516 0.4003125,1.1001047 0.19816406,1.1001047 c -0.13476562,0 -0.24023437,-0.00879 -0.328125,-0.023437 V 0.71338594 l 0.1640625,0.0117188 c 0.1171875,0 0.19921875,-0.0322266 0.24609375,-0.09375 0.046875,-0.0644531 0.0703125,-0.18164063 0.0703125,-0.3515625 V -2.7905203 h 0.46875 z m 0,0"
       style="fill:#000000;fill-opacity:1;fill-rule:nonzero;stroke:none"
       aria-label="j"
       transform="matrix(0.35277776,0,0,0.35277776,99.554614,178.42542)"
       clip-path="url(#clipPath578)" />
    <g
       id="g578"
       aria-label="=25C."
       transform="matrix(0.35277776,0,0,0.35277776,100.65528,177.98092)"
       clip-path="url(#clipPath582)">
      <path
         id="path579"
         d="m 0.33890625,-2.9543484 v -0.515625 H 3.7842188 v 0.515625 z m 0,1.7695312 v -0.515625 H 3.7842188 v 0.515625 z m 6.13183595,1.18359376 v -0.43359375 c 0.1171875,-0.27246093 0.2607422,-0.50976562 0.4335937,-0.71484371 0.1699219,-0.2109375 0.3515625,-0.3984375 0.5390625,-0.5625 0.1875,-0.1699219 0.3691407,-0.328125 0.5507813,-0.46875 0.1787109,-0.140625 0.3427734,-0.28125 0.4921875,-0.421875 0.1464844,-0.1464844 0.2636719,-0.2988282 0.3515625,-0.4570313 0.09375,-0.1552734 0.140625,-0.3310547 0.140625,-0.5273437 0,-0.2636719 -0.079102,-0.4716797 -0.234375,-0.6210938 -0.1582031,-0.1464844 -0.3720703,-0.2226562 -0.6445313,-0.2226562 -0.2666015,0 -0.4863281,0.076172 -0.65625,0.2226562 -0.1728515,0.140625 -0.2753906,0.3398438 -0.3046875,0.5976563 l -0.6328125,-0.058594 c 0.046875,-0.3896484 0.2109375,-0.6972656 0.4921875,-0.9257812 0.28125,-0.234375 0.647461,-0.3515625 1.1015625,-0.3515625 0.4921875,0 0.8671875,0.1171875 1.125,0.3515625 0.2636719,0.234375 0.3984375,0.5625 0.3984375,0.984375 0,0.1875 -0.043945,0.375 -0.1289062,0.5625 -0.087891,0.1875 -0.2167969,0.375 -0.3867188,0.5625 -0.1728515,0.1875 -0.4980468,0.477539 -0.9726562,0.8671875 -0.2666016,0.2197265 -0.4775391,0.4160156 -0.6328125,0.5859375 -0.1582031,0.17285153 -0.2695313,0.33984371 -0.3398438,0.50390621 h 2.5429688 v 0.52734375 z M 13.660195,-1.5832547 c 0,0.5097656 -0.158203,0.91113283 -0.46875,1.20703126 -0.304687,0.29882813 -0.726562,0.4453125 -1.265625,0.4453125 -0.454101,0 -0.820312,-0.09667968 -1.101562,-0.29296875 -0.275391,-0.20214843 -0.451172,-0.4921875 -0.527344,-0.86718751 l 0.632813,-0.070312 c 0.131836,0.48632814 0.46875,0.72656251 1.007812,0.72656251 0.333984,0 0.597656,-0.0996094 0.785156,-0.3046875 0.1875,-0.20214843 0.28125,-0.48046871 0.28125,-0.83203121 0,-0.3046875 -0.09375,-0.5507813 -0.28125,-0.7382813 -0.1875,-0.1933594 -0.445312,-0.2929687 -0.773437,-0.2929687 -0.164063,0 -0.322266,0.029297 -0.46875,0.082031 -0.140625,0.055664 -0.28711,0.1464844 -0.433594,0.2695313 h -0.609375 l 0.164063,-2.625 h 2.765625 v 0.5390625 H 11.17582 l -0.09375,1.5351562 c 0.263672,-0.2021484 0.597657,-0.3046875 0.996094,-0.3046875 0.483399,0 0.867188,0.140625 1.148438,0.421875 0.287109,0.28125 0.433593,0.6503906 0.433593,1.1015622 z m 0,0"
         style="fill:#000000;fill-opacity:1;fill-rule:nonzero;stroke:none" />
      <path
         id="path580"
         d="m 18.441445,-3.7277859 c 0,0.290039 -0.105468,0.5390625 -0.316406,0.75 -0.205078,0.2050781 -0.454101,0.3046875 -0.75,0.3046875 -0.298828,0 -0.550781,-0.099609 -0.761719,-0.3046875 -0.205078,-0.2109375 -0.304687,-0.459961 -0.304687,-0.75 0,-0.2958985 0.09961,-0.5449219 0.304687,-0.75 0.210938,-0.2109375 0.462891,-0.3164063 0.761719,-0.3164063 0.295899,0 0.544922,0.1054688 0.75,0.3164063 0.210938,0.2050781 0.316406,0.4541015 0.316406,0.75 z m -0.292968,-0.011719 c 0,-0.2109375 -0.0791,-0.3896484 -0.234375,-0.5390625 -0.149414,-0.1464844 -0.328125,-0.2226562 -0.539063,-0.2226562 -0.210937,0 -0.395508,0.076172 -0.550781,0.2226562 -0.149414,0.1494141 -0.222656,0.328125 -0.222656,0.5390625 0,0.2197266 0.07324,0.4042969 0.222656,0.5507813 0.155273,0.149414 0.339844,0.2226562 0.550781,0.2226562 0.210938,0 0.389649,-0.073242 0.539063,-0.2226562 0.155273,-0.1464844 0.234375,-0.3310547 0.234375,-0.5507813 z m 0,0"
         style="fill:#000000;fill-opacity:1;fill-rule:nonzero;stroke:none" />
      <path
         id="path581"
         d="m 21.517617,-4.4074734 c -0.539062,0 -0.960937,0.1757812 -1.265625,0.5273437 -0.298828,0.3457031 -0.445312,0.8173828 -0.445312,1.4179688 0,0.6035156 0.155273,1.086914 0.46875,1.453125 0.310547,0.36035153 0.732422,0.53906246 1.265625,0.53906246 0.679687,0 1.189453,-0.33984375 1.535156,-1.01953126 l 0.539062,0.2695313 c -0.196289,0.42187496 -0.477539,0.74414059 -0.84375,0.96093746 -0.360351,0.21972657 -0.782226,0.328125 -1.265625,0.328125 -0.492187,0 -0.919921,-0.09960937 -1.277343,-0.3046875 -0.351563,-0.20214843 -0.621094,-0.4921875 -0.808594,-0.86718746 -0.1875,-0.3808594 -0.28125,-0.834961 -0.28125,-1.359375 0,-0.7734375 0.205078,-1.3769532 0.621094,-1.8164063 0.421875,-0.4453125 1.001953,-0.6679687 1.746093,-0.6679687 0.515625,0 0.94336,0.102539 1.289063,0.3046875 0.351562,0.2050781 0.609375,0.5039062 0.773437,0.9023437 l -0.621093,0.2109375 c -0.111328,-0.28125 -0.290039,-0.4951172 -0.539063,-0.6445312 -0.251953,-0.1552735 -0.547851,-0.234375 -0.890625,-0.234375 z m 3.00293,4.40624996 v -0.76171875 h 0.679687 v 0.76171875 z m 0,0"
         style="fill:#000000;fill-opacity:1;fill-rule:nonzero;stroke:none" />
    </g>
  </g>
</svg>
