<svg version="1.1" xmlns="http://www.w3.org/2000/svg" xmlns:xlink="http://www.w3.org/1999/xlink" width="745" height="486"><defs><clipPath id="MhBSTOmDSFyW"><path fill="none" stroke="none" d=" M 0 0 L 745 0 L 745 486 L 0 486 L 0 0 Z"/></clipPath></defs><g transform="scale(1,1)" clip-path="url(#MhBSTOmDSFyW)"><g><rect fill="rgb(255,255,255)" stroke="none" x="0" y="0" width="746" height="487" fill-opacity="1"/><path fill="none" stroke="rgb(192,192,192)" paint-order="fill stroke markers" d=" M 53.5 0.5 L 53.5 486.5 M 53.5 0.5 L 53.5 486.5 M 106.5 0.5 L 106.5 486.5 M 159.5 0.5 L 159.5 486.5 M 212.5 0.5 L 212.5 486.5 M 266.5 0.5 L 266.5 486.5 M 319.5 0.5 L 319.5 486.5 M 372.5 0.5 L 372.5 486.5 M 425.5 0.5 L 425.5 486.5 M 478.5 0.5 L 478.5 486.5 M 532.5 0.5 L 532.5 486.5 M 585.5 0.5 L 585.5 486.5 M 691.5 0.5 L 691.5 486.5 M 745.5 0.5 L 745.5 486.5" stroke-opacity="1" stroke-linecap="round" stroke-linejoin="round" stroke-miterlimit="10"/><path fill="none" stroke="rgb(192,192,192)" paint-order="fill stroke markers" d=" M 10.5 0.5 L 10.5 486.5 M 21.5 0.5 L 21.5 486.5 M 31.5 0.5 L 31.5 486.5 M 42.5 0.5 L 42.5 486.5 M 63.5 0.5 L 63.5 486.5 M 74.5 0.5 L 74.5 486.5 M 85.5 0.5 L 85.5 486.5 M 95.5 0.5 L 95.5 486.5 M 117.5 0.5 L 117.5 486.5 M 127.5 0.5 L 127.5 486.5 M 138.5 0.5 L 138.5 486.5 M 149.5 0.5 L 149.5 486.5 M 170.5 0.5 L 170.5 486.5 M 180.5 0.5 L 180.5 486.5 M 191.5 0.5 L 191.5 486.5 M 202.5 0.5 L 202.5 486.5 M 223.5 0.5 L 223.5 486.5 M 234.5 0.5 L 234.5 486.5 M 244.5 0.5 L 244.5 486.5 M 255.5 0.5 L 255.5 486.5 M 276.5 0.5 L 276.5 486.5 M 287.5 0.5 L 287.5 486.5 M 298.5 0.5 L 298.5 486.5 M 308.5 0.5 L 308.5 486.5 M 329.5 0.5 L 329.5 486.5 M 340.5 0.5 L 340.5 486.5 M 351.5 0.5 L 351.5 486.5 M 361.5 0.5 L 361.5 486.5 M 383.5 0.5 L 383.5 486.5 M 393.5 0.5 L 393.5 486.5 M 404.5 0.5 L 404.5 486.5 M 415.5 0.5 L 415.5 486.5 M 436.5 0.5 L 436.5 486.5 M 447.5 0.5 L 447.5 486.5 M 457.5 0.5 L 457.5 486.5 M 468.5 0.5 L 468.5 486.5 M 489.5 0.5 L 489.5 486.5 M 500.5 0.5 L 500.5 486.5 M 510.5 0.5 L 510.5 486.5 M 521.5 0.5 L 521.5 486.5 M 542.5 0.5 L 542.5 486.5 M 553.5 0.5 L 553.5 486.5 M 564.5 0.5 L 564.5 486.5 M 574.5 0.5 L 574.5 486.5 M 596.5 0.5 L 596.5 486.5 M 606.5 0.5 L 606.5 486.5 M 617.5 0.5 L 617.5 486.5 M 627.5 0.5 L 627.5 486.5 M 649.5 0.5 L 649.5 486.5 M 659.5 0.5 L 659.5 486.5 M 670.5 0.5 L 670.5 486.5 M 681.5 0.5 L 681.5 486.5 M 702.5 0.5 L 702.5 486.5 M 713.5 0.5 L 713.5 486.5 M 723.5 0.5 L 723.5 486.5 M 734.5 0.5 L 734.5 486.5" stroke-opacity="0.23529411764705882" stroke-linecap="round" stroke-linejoin="round" stroke-miterlimit="10"/><path fill="none" stroke="rgb(192,192,192)" paint-order="fill stroke markers" d=" M 0.5 -0.5 L 745.5 -0.5 M 0.5 -0.5 L 745.5 -0.5 M 0.5 60.5 L 745.5 60.5 M 0.5 121.5 L 745.5 121.5 M 0.5 182.5 L 745.5 182.5 M 0.5 243.5 L 745.5 243.5 M 0.5 303.5 L 745.5 303.5 M 0.5 364.5 L 745.5 364.5 M 0.5 486.5 L 745.5 486.5" stroke-opacity="1" stroke-linecap="round" stroke-linejoin="round" stroke-miterlimit="10"/><path fill="none" stroke="rgb(192,192,192)" paint-order="fill stroke markers" d=" M 0.5 12.5 L 745.5 12.5 M 0.5 24.5 L 745.5 24.5 M 0.5 36.5 L 745.5 36.5 M 0.5 48.5 L 745.5 48.5 M 0.5 72.5 L 745.5 72.5 M 0.5 85.5 L 745.5 85.5 M 0.5 97.5 L 745.5 97.5 M 0.5 109.5 L 745.5 109.5 M 0.5 133.5 L 745.5 133.5 M 0.5 145.5 L 745.5 145.5 M 0.5 157.5 L 745.5 157.5 M 0.5 170.5 L 745.5 170.5 M 0.5 194.5 L 745.5 194.5 M 0.5 206.5 L 745.5 206.5 M 0.5 218.5 L 745.5 218.5 M 0.5 230.5 L 745.5 230.5 M 0.5 255.5 L 745.5 255.5 M 0.5 267.5 L 745.5 267.5 M 0.5 279.5 L 745.5 279.5 M 0.5 291.5 L 745.5 291.5 M 0.5 315.5 L 745.5 315.5 M 0.5 328.5 L 745.5 328.5 M 0.5 340.5 L 745.5 340.5 M 0.5 352.5 L 745.5 352.5 M 0.5 376.5 L 745.5 376.5 M 0.5 388.5 L 745.5 388.5 M 0.5 400.5 L 745.5 400.5 M 0.5 413.5 L 745.5 413.5 M 0.5 437.5 L 745.5 437.5 M 0.5 449.5 L 745.5 449.5 M 0.5 461.5 L 745.5 461.5 M 0.5 473.5 L 745.5 473.5" stroke-opacity="0.23529411764705882" stroke-linecap="round" stroke-linejoin="round" stroke-miterlimit="10"/><path fill="none" stroke="rgb(37,37,37)" paint-order="fill stroke markers" d=" M 638.5 2.5 L 638.5 486.5" stroke-opacity="1" stroke-miterlimit="10"/><path fill="none" stroke="rgb(37,37,37)" paint-order="fill stroke markers" d=" M 638.5 1.5 L 634.5 5.5" stroke-opacity="1" stroke-miterlimit="10"/><path fill="none" stroke="rgb(37,37,37)" paint-order="fill stroke markers" d=" M 638.5 1.5 L 642.5 5.5" stroke-opacity="1" stroke-miterlimit="10"/><text fill="rgb(37,37,37)" stroke="none" font-family="geogebra-sans-serif, sans-serif" font-size="16px" font-style="normal" font-weight="normal" text-decoration="normal" x="708" y="421" text-anchor="start" dominant-baseline="alphabetic" fill-opacity="1">Vgs</text><path fill="none" stroke="rgb(37,37,37)" paint-order="fill stroke markers" d=" M 0.5 425.5 L 743.5 425.5" stroke-opacity="1" stroke-miterlimit="10"/><path fill="none" stroke="rgb(37,37,37)" paint-order="fill stroke markers" d=" M 744.5 425.5 L 740.5 421.5" stroke-opacity="1" stroke-miterlimit="10"/><path fill="none" stroke="rgb(37,37,37)" paint-order="fill stroke markers" d=" M 744.5 425.5 L 740.5 429.5" stroke-opacity="1" stroke-miterlimit="10"/><text fill="rgb(37,37,37)" stroke="none" font-family="geogebra-sans-serif, sans-serif" font-size="12px" font-style="normal" font-weight="normal" text-decoration="normal" x="39" y="441" text-anchor="start" dominant-baseline="alphabetic" fill-opacity="1">–5.5V</text><text fill="none" stroke="rgb(255,255,255)" font-family="geogebra-sans-serif, sans-serif" font-size="12px" font-style="normal" font-weight="normal" text-decoration="normal" x="39" y="441" text-anchor="start" dominant-baseline="alphabetic" stroke-opacity="1" stroke-linejoin="bevel" stroke-miterlimit="10" stroke-width="3">–5.5V</text><text fill="rgb(37,37,37)" stroke="none" font-family="geogebra-sans-serif, sans-serif" font-size="12px" font-style="normal" font-weight="normal" text-decoration="normal" x="39" y="441" text-anchor="start" dominant-baseline="alphabetic" fill-opacity="1">–5.5V</text><text fill="rgb(37,37,37)" stroke="none" font-family="geogebra-sans-serif, sans-serif" font-size="12px" font-style="normal" font-weight="normal" text-decoration="normal" x="98" y="441" text-anchor="start" dominant-baseline="alphabetic" fill-opacity="1">–5V</text><text fill="none" stroke="rgb(255,255,255)" font-family="geogebra-sans-serif, sans-serif" font-size="12px" font-style="normal" font-weight="normal" text-decoration="normal" x="98" y="441" text-anchor="start" dominant-baseline="alphabetic" stroke-opacity="1" stroke-linejoin="bevel" stroke-miterlimit="10" stroke-width="3">–5V</text><text fill="rgb(37,37,37)" stroke="none" font-family="geogebra-sans-serif, sans-serif" font-size="12px" font-style="normal" font-weight="normal" text-decoration="normal" x="98" y="441" text-anchor="start" dominant-baseline="alphabetic" fill-opacity="1">–5V</text><text fill="rgb(37,37,37)" stroke="none" font-family="geogebra-sans-serif, sans-serif" font-size="12px" font-style="normal" font-weight="normal" text-decoration="normal" x="145" y="441" text-anchor="start" dominant-baseline="alphabetic" fill-opacity="1">–4.5V</text><text fill="none" stroke="rgb(255,255,255)" font-family="geogebra-sans-serif, sans-serif" font-size="12px" font-style="normal" font-weight="normal" text-decoration="normal" x="145" y="441" text-anchor="start" dominant-baseline="alphabetic" stroke-opacity="1" stroke-linejoin="bevel" stroke-miterlimit="10" stroke-width="3">–4.5V</text><text fill="rgb(37,37,37)" stroke="none" font-family="geogebra-sans-serif, sans-serif" font-size="12px" font-style="normal" font-weight="normal" text-decoration="normal" x="145" y="441" text-anchor="start" dominant-baseline="alphabetic" fill-opacity="1">–4.5V</text><text fill="rgb(37,37,37)" stroke="none" font-family="geogebra-sans-serif, sans-serif" font-size="12px" font-style="normal" font-weight="normal" text-decoration="normal" x="204" y="441" text-anchor="start" dominant-baseline="alphabetic" fill-opacity="1">–4V</text><text fill="none" stroke="rgb(255,255,255)" font-family="geogebra-sans-serif, sans-serif" font-size="12px" font-style="normal" font-weight="normal" text-decoration="normal" x="204" y="441" text-anchor="start" dominant-baseline="alphabetic" stroke-opacity="1" stroke-linejoin="bevel" stroke-miterlimit="10" stroke-width="3">–4V</text><text fill="rgb(37,37,37)" stroke="none" font-family="geogebra-sans-serif, sans-serif" font-size="12px" font-style="normal" font-weight="normal" text-decoration="normal" x="204" y="441" text-anchor="start" dominant-baseline="alphabetic" fill-opacity="1">–4V</text><text fill="rgb(37,37,37)" stroke="none" font-family="geogebra-sans-serif, sans-serif" font-size="12px" font-style="normal" font-weight="normal" text-decoration="normal" x="252" y="441" text-anchor="start" dominant-baseline="alphabetic" fill-opacity="1">–3.5V</text><text fill="none" stroke="rgb(255,255,255)" font-family="geogebra-sans-serif, sans-serif" font-size="12px" font-style="normal" font-weight="normal" text-decoration="normal" x="252" y="441" text-anchor="start" dominant-baseline="alphabetic" stroke-opacity="1" stroke-linejoin="bevel" stroke-miterlimit="10" stroke-width="3">–3.5V</text><text fill="rgb(37,37,37)" stroke="none" font-family="geogebra-sans-serif, sans-serif" font-size="12px" font-style="normal" font-weight="normal" text-decoration="normal" x="252" y="441" text-anchor="start" dominant-baseline="alphabetic" fill-opacity="1">–3.5V</text><text fill="rgb(37,37,37)" stroke="none" font-family="geogebra-sans-serif, sans-serif" font-size="12px" font-style="normal" font-weight="normal" text-decoration="normal" x="311" y="441" text-anchor="start" dominant-baseline="alphabetic" fill-opacity="1">–3V</text><text fill="none" stroke="rgb(255,255,255)" font-family="geogebra-sans-serif, sans-serif" font-size="12px" font-style="normal" font-weight="normal" text-decoration="normal" x="311" y="441" text-anchor="start" dominant-baseline="alphabetic" stroke-opacity="1" stroke-linejoin="bevel" stroke-miterlimit="10" stroke-width="3">–3V</text><text fill="rgb(37,37,37)" stroke="none" font-family="geogebra-sans-serif, sans-serif" font-size="12px" font-style="normal" font-weight="normal" text-decoration="normal" x="311" y="441" text-anchor="start" dominant-baseline="alphabetic" fill-opacity="1">–3V</text><text fill="rgb(37,37,37)" stroke="none" font-family="geogebra-sans-serif, sans-serif" font-size="12px" font-style="normal" font-weight="normal" text-decoration="normal" x="358" y="441" text-anchor="start" dominant-baseline="alphabetic" fill-opacity="1">–2.5V</text><text fill="none" stroke="rgb(255,255,255)" font-family="geogebra-sans-serif, sans-serif" font-size="12px" font-style="normal" font-weight="normal" text-decoration="normal" x="358" y="441" text-anchor="start" dominant-baseline="alphabetic" stroke-opacity="1" stroke-linejoin="bevel" stroke-miterlimit="10" stroke-width="3">–2.5V</text><text fill="rgb(37,37,37)" stroke="none" font-family="geogebra-sans-serif, sans-serif" font-size="12px" font-style="normal" font-weight="normal" text-decoration="normal" x="358" y="441" text-anchor="start" dominant-baseline="alphabetic" fill-opacity="1">–2.5V</text><text fill="rgb(37,37,37)" stroke="none" font-family="geogebra-sans-serif, sans-serif" font-size="12px" font-style="normal" font-weight="normal" text-decoration="normal" x="417" y="441" text-anchor="start" dominant-baseline="alphabetic" fill-opacity="1">–2V</text><text fill="none" stroke="rgb(255,255,255)" font-family="geogebra-sans-serif, sans-serif" font-size="12px" font-style="normal" font-weight="normal" text-decoration="normal" x="417" y="441" text-anchor="start" dominant-baseline="alphabetic" stroke-opacity="1" stroke-linejoin="bevel" stroke-miterlimit="10" stroke-width="3">–2V</text><text fill="rgb(37,37,37)" stroke="none" font-family="geogebra-sans-serif, sans-serif" font-size="12px" font-style="normal" font-weight="normal" text-decoration="normal" x="417" y="441" text-anchor="start" dominant-baseline="alphabetic" fill-opacity="1">–2V</text><text fill="rgb(37,37,37)" stroke="none" font-family="geogebra-sans-serif, sans-serif" font-size="12px" font-style="normal" font-weight="normal" text-decoration="normal" x="464" y="441" text-anchor="start" dominant-baseline="alphabetic" fill-opacity="1">–1.5V</text><text fill="none" stroke="rgb(255,255,255)" font-family="geogebra-sans-serif, sans-serif" font-size="12px" font-style="normal" font-weight="normal" text-decoration="normal" x="464" y="441" text-anchor="start" dominant-baseline="alphabetic" stroke-opacity="1" stroke-linejoin="bevel" stroke-miterlimit="10" stroke-width="3">–1.5V</text><text fill="rgb(37,37,37)" stroke="none" font-family="geogebra-sans-serif, sans-serif" font-size="12px" font-style="normal" font-weight="normal" text-decoration="normal" x="464" y="441" text-anchor="start" dominant-baseline="alphabetic" fill-opacity="1">–1.5V</text><text fill="rgb(37,37,37)" stroke="none" font-family="geogebra-sans-serif, sans-serif" font-size="12px" font-style="normal" font-weight="normal" text-decoration="normal" x="524" y="441" text-anchor="start" dominant-baseline="alphabetic" fill-opacity="1">–1V</text><text fill="none" stroke="rgb(255,255,255)" font-family="geogebra-sans-serif, sans-serif" font-size="12px" font-style="normal" font-weight="normal" text-decoration="normal" x="524" y="441" text-anchor="start" dominant-baseline="alphabetic" stroke-opacity="1" stroke-linejoin="bevel" stroke-miterlimit="10" stroke-width="3">–1V</text><text fill="rgb(37,37,37)" stroke="none" font-family="geogebra-sans-serif, sans-serif" font-size="12px" font-style="normal" font-weight="normal" text-decoration="normal" x="524" y="441" text-anchor="start" dominant-baseline="alphabetic" fill-opacity="1">–1V</text><text fill="rgb(37,37,37)" stroke="none" font-family="geogebra-sans-serif, sans-serif" font-size="12px" font-style="normal" font-weight="normal" text-decoration="normal" x="571" y="441" text-anchor="start" dominant-baseline="alphabetic" fill-opacity="1">–0.5V</text><text fill="none" stroke="rgb(255,255,255)" font-family="geogebra-sans-serif, sans-serif" font-size="12px" font-style="normal" font-weight="normal" text-decoration="normal" x="571" y="441" text-anchor="start" dominant-baseline="alphabetic" stroke-opacity="1" stroke-linejoin="bevel" stroke-miterlimit="10" stroke-width="3">–0.5V</text><text fill="rgb(37,37,37)" stroke="none" font-family="geogebra-sans-serif, sans-serif" font-size="12px" font-style="normal" font-weight="normal" text-decoration="normal" x="571" y="441" text-anchor="start" dominant-baseline="alphabetic" fill-opacity="1">–0.5V</text><text fill="rgb(37,37,37)" stroke="none" font-family="geogebra-sans-serif, sans-serif" font-size="12px" font-style="normal" font-weight="normal" text-decoration="normal" x="680" y="441" text-anchor="start" dominant-baseline="alphabetic" fill-opacity="1">0.5V</text><text fill="none" stroke="rgb(255,255,255)" font-family="geogebra-sans-serif, sans-serif" font-size="12px" font-style="normal" font-weight="normal" text-decoration="normal" x="680" y="441" text-anchor="start" dominant-baseline="alphabetic" stroke-opacity="1" stroke-linejoin="bevel" stroke-miterlimit="10" stroke-width="3">0.5V</text><text fill="rgb(37,37,37)" stroke="none" font-family="geogebra-sans-serif, sans-serif" font-size="12px" font-style="normal" font-weight="normal" text-decoration="normal" x="680" y="441" text-anchor="start" dominant-baseline="alphabetic" fill-opacity="1">0.5V</text><text fill="rgb(37,37,37)" stroke="none" font-family="geogebra-sans-serif, sans-serif" font-size="16px" font-style="normal" font-weight="normal" text-decoration="normal" x="643" y="17" text-anchor="start" dominant-baseline="alphabetic" fill-opacity="1">Id</text><text fill="rgb(37,37,37)" stroke="none" font-family="geogebra-sans-serif, sans-serif" font-size="12px" font-style="normal" font-weight="normal" text-decoration="normal" x="593" y="369" text-anchor="start" dominant-baseline="alphabetic" fill-opacity="1">0.001A</text><text fill="none" stroke="rgb(255,255,255)" font-family="geogebra-sans-serif, sans-serif" font-size="12px" font-style="normal" font-weight="normal" text-decoration="normal" x="593" y="369" text-anchor="start" dominant-baseline="alphabetic" stroke-opacity="1" stroke-linejoin="bevel" stroke-miterlimit="10" stroke-width="3">0.001A</text><text fill="rgb(37,37,37)" stroke="none" font-family="geogebra-sans-serif, sans-serif" font-size="12px" font-style="normal" font-weight="normal" text-decoration="normal" x="593" y="369" text-anchor="start" dominant-baseline="alphabetic" fill-opacity="1">0.001A</text><text fill="rgb(37,37,37)" stroke="none" font-family="geogebra-sans-serif, sans-serif" font-size="12px" font-style="normal" font-weight="normal" text-decoration="normal" x="593" y="308" text-anchor="start" dominant-baseline="alphabetic" fill-opacity="1">0.002A</text><text fill="none" stroke="rgb(255,255,255)" font-family="geogebra-sans-serif, sans-serif" font-size="12px" font-style="normal" font-weight="normal" text-decoration="normal" x="593" y="308" text-anchor="start" dominant-baseline="alphabetic" stroke-opacity="1" stroke-linejoin="bevel" stroke-miterlimit="10" stroke-width="3">0.002A</text><text fill="rgb(37,37,37)" stroke="none" font-family="geogebra-sans-serif, sans-serif" font-size="12px" font-style="normal" font-weight="normal" text-decoration="normal" x="593" y="308" text-anchor="start" dominant-baseline="alphabetic" fill-opacity="1">0.002A</text><text fill="rgb(37,37,37)" stroke="none" font-family="geogebra-sans-serif, sans-serif" font-size="12px" font-style="normal" font-weight="normal" text-decoration="normal" x="593" y="248" text-anchor="start" dominant-baseline="alphabetic" fill-opacity="1">0.003A</text><text fill="none" stroke="rgb(255,255,255)" font-family="geogebra-sans-serif, sans-serif" font-size="12px" font-style="normal" font-weight="normal" text-decoration="normal" x="593" y="248" text-anchor="start" dominant-baseline="alphabetic" stroke-opacity="1" stroke-linejoin="bevel" stroke-miterlimit="10" stroke-width="3">0.003A</text><text fill="rgb(37,37,37)" stroke="none" font-family="geogebra-sans-serif, sans-serif" font-size="12px" font-style="normal" font-weight="normal" text-decoration="normal" x="593" y="248" text-anchor="start" dominant-baseline="alphabetic" fill-opacity="1">0.003A</text><text fill="rgb(37,37,37)" stroke="none" font-family="geogebra-sans-serif, sans-serif" font-size="12px" font-style="normal" font-weight="normal" text-decoration="normal" x="593" y="187" text-anchor="start" dominant-baseline="alphabetic" fill-opacity="1">0.004A</text><text fill="none" stroke="rgb(255,255,255)" font-family="geogebra-sans-serif, sans-serif" font-size="12px" font-style="normal" font-weight="normal" text-decoration="normal" x="593" y="187" text-anchor="start" dominant-baseline="alphabetic" stroke-opacity="1" stroke-linejoin="bevel" stroke-miterlimit="10" stroke-width="3">0.004A</text><text fill="rgb(37,37,37)" stroke="none" font-family="geogebra-sans-serif, sans-serif" font-size="12px" font-style="normal" font-weight="normal" text-decoration="normal" x="593" y="187" text-anchor="start" dominant-baseline="alphabetic" fill-opacity="1">0.004A</text><text fill="rgb(37,37,37)" stroke="none" font-family="geogebra-sans-serif, sans-serif" font-size="12px" font-style="normal" font-weight="normal" text-decoration="normal" x="593" y="126" text-anchor="start" dominant-baseline="alphabetic" fill-opacity="1">0.005A</text><text fill="none" stroke="rgb(255,255,255)" font-family="geogebra-sans-serif, sans-serif" font-size="12px" font-style="normal" font-weight="normal" text-decoration="normal" x="593" y="126" text-anchor="start" dominant-baseline="alphabetic" stroke-opacity="1" stroke-linejoin="bevel" stroke-miterlimit="10" stroke-width="3">0.005A</text><text fill="rgb(37,37,37)" stroke="none" font-family="geogebra-sans-serif, sans-serif" font-size="12px" font-style="normal" font-weight="normal" text-decoration="normal" x="593" y="126" text-anchor="start" dominant-baseline="alphabetic" fill-opacity="1">0.005A</text><text fill="rgb(37,37,37)" stroke="none" font-family="geogebra-sans-serif, sans-serif" font-size="12px" font-style="normal" font-weight="normal" text-decoration="normal" x="593" y="65" text-anchor="start" dominant-baseline="alphabetic" fill-opacity="1">0.006A</text><text fill="none" stroke="rgb(255,255,255)" font-family="geogebra-sans-serif, sans-serif" font-size="12px" font-style="normal" font-weight="normal" text-decoration="normal" x="593" y="65" text-anchor="start" dominant-baseline="alphabetic" stroke-opacity="1" stroke-linejoin="bevel" stroke-miterlimit="10" stroke-width="3">0.006A</text><text fill="rgb(37,37,37)" stroke="none" font-family="geogebra-sans-serif, sans-serif" font-size="12px" font-style="normal" font-weight="normal" text-decoration="normal" x="593" y="65" text-anchor="start" dominant-baseline="alphabetic" fill-opacity="1">0.006A</text><text fill="rgb(37,37,37)" stroke="none" font-family="geogebra-sans-serif, sans-serif" font-size="12px" font-style="normal" font-weight="normal" text-decoration="normal" x="617" y="441" text-anchor="start" dominant-baseline="alphabetic" fill-opacity="1">0V</text><text fill="none" stroke="rgb(255,255,255)" font-family="geogebra-sans-serif, sans-serif" font-size="12px" font-style="normal" font-weight="normal" text-decoration="normal" x="617" y="441" text-anchor="start" dominant-baseline="alphabetic" stroke-opacity="1" stroke-linejoin="bevel" stroke-miterlimit="10" stroke-width="3">0V</text><text fill="rgb(37,37,37)" stroke="none" font-family="geogebra-sans-serif, sans-serif" font-size="12px" font-style="normal" font-weight="normal" text-decoration="normal" x="617" y="441" text-anchor="start" dominant-baseline="alphabetic" fill-opacity="1">0V</text><path fill="none" stroke="rgb(211,47,47)" paint-order="fill stroke markers" d=" M 106.42857036428575 425.25 L 110.5859375 425.2277526855469 M 110.5859375 425.2277526855469 L 116.40625 425.12185546875 M 116.40625 425.12185546875 L 122.2265625 424.9287487792969 L 128.046875 424.6484326171875 L 133.8671875 424.28090698242187 L 139.6875 423.826171875 M 139.6875 423.826171875 L 145.5078125 423.2842272949219 L 151.328125 422.6550732421875 L 157.1484375 421.9387097167969 L 162.96875 421.13513671875 L 168.7890625 420.2443542480469 L 174.609375 419.2663623046875 L 180.4296875 418.2011608886719 L 186.25 417.04875 M 186.25 417.04875 L 192.0703125 415.8091296386719 L 197.890625 414.4822998046875 L 203.7109375 413.06826049804687 L 209.53125 411.56701171875 L 215.3515625 409.9785534667969 L 221.171875 408.3028857421875 L 226.9921875 406.5400085449219 L 232.8125 404.689921875 L 238.6328125 402.75262573242185 L 244.453125 400.7281201171875 L 250.2734375 398.61640502929686 L 256.09375 396.41748046875 L 261.9140625 394.1313464355469 L 267.734375 391.7580029296875 L 273.5546875 389.29744995117187 L 279.375 386.7496875 L 285.1953125 384.1147155761719 L 291.015625 381.3925341796875 L 296.8359375 378.58314331054686 L 302.65625 375.68654296875 L 308.4765625 372.7027331542969 L 314.296875 369.6317138671875 L 320.1171875 366.4734851074219 L 325.9375 363.228046875 L 331.7578125 359.89539916992186 L 337.578125 356.4755419921875 L 343.3984375 352.9684753417969 L 349.21875 349.37419921875 L 355.0390625 345.69271362304687 L 360.859375 341.9240185546875 L 366.6796875 338.0681140136719 L 372.5 334.125 M 372.5 334.125 L 378.3203125 330.09467651367186 L 384.140625 325.9771435546875 L 389.9609375 321.77240112304685 L 395.78125 317.48044921875 L 401.6015625 313.1012878417969 L 407.421875 308.6349169921875 L 413.2421875 304.0813366699219 L 419.0625 299.440546875 L 424.8828125 294.71254760742187 L 430.703125 289.8973388671875 L 436.5234375 284.99492065429683 L 442.34375 280.00529296875 L 448.1640625 274.9284558105469 L 453.984375 269.7644091796875 L 459.8046875 264.5131530761719 L 465.625 259.1746875 L 471.4453125 253.7490124511719 L 477.265625 248.23612792968748 L 483.0859375 242.63603393554686 L 488.90625 236.94873046875 L 494.7265625 231.17421752929687 L 500.546875 225.3124951171875 L 506.3671875 219.36356323242188 L 512.1875 213.327421875 L 518.0078125 207.20407104492185 L 523.828125 200.99351074218748 L 529.6484375 194.69574096679688 L 535.46875 188.31076171875 L 541.2890625 181.83857299804686 L 547.109375 175.2791748046875 L 552.9296875 168.63256713867185 L 558.75 161.89875 M 558.75 161.89875 L 564.5703125 155.07772338867187 L 570.390625 148.1694873046875 L 576.2109375 141.17404174804688 L 582.03125 134.09138671874996 L 587.8515625 126.92152221679686 L 593.671875 119.66444824218746 L 599.4921875 112.32016479492188 L 605.3125 104.888671875 M 605.3125 104.888671875 L 611.1328125 97.36996948242188 L 616.953125 89.76405761718752 L 622.7734375 82.07093627929686 L 628.59375 74.29060546874996 M 628.59375 74.29060546874996 L 634.4140625 66.42306518554688 M 634.4140625 66.42306518554688 L 638.5714275071429 60.75000145799993" stroke-opacity="0.8" stroke-linecap="round" stroke-linejoin="round" stroke-miterlimit="10" stroke-width="2.5"/><path fill="none" stroke="rgb(97,97,97)" paint-order="fill stroke markers" d=" M 106.42857036428575 287.1818179977273 L 110.5859375 287.90092329545456 M 110.5859375 287.90092329545456 L 116.40625 288.90767045454544 M 116.40625 288.90767045454544 L 122.2265625 289.9144176136364 L 128.046875 290.92116477272725 L 133.8671875 291.9279119318182 L 139.6875 292.9346590909091 M 139.6875 292.9346590909091 L 145.5078125 293.94140625 L 151.328125 294.9481534090909 L 157.1484375 295.95490056818187 L 162.96875 296.96164772727275 L 168.7890625 297.9683948863636 L 174.609375 298.97514204545456 L 180.4296875 299.9818892045455 L 186.25 300.9886363636364 M 186.25 300.9886363636364 L 192.0703125 301.99538352272725 L 197.890625 303.0021306818182 L 203.7109375 304.0088778409091 L 209.53125 305.015625 L 215.3515625 306.0223721590909 L 221.171875 307.0291193181818 L 226.9921875 308.03586647727275 L 232.8125 309.0426136363636 L 238.6328125 310.04936079545456 L 244.453125 311.05610795454544 L 250.2734375 312.0628551136364 L 256.09375 313.06960227272725 L 261.9140625 314.0763494318182 L 267.734375 315.0830965909091 L 273.5546875 316.08984375 L 279.375 317.0965909090909 L 285.1953125 318.1033380681818 L 291.015625 319.11008522727275 L 296.8359375 320.1168323863636 L 302.65625 321.12357954545456 L 308.4765625 322.13032670454544 L 314.296875 323.1370738636364 L 320.1171875 324.14382102272725 L 325.9375 325.1505681818182 L 331.7578125 326.15731534090907 L 337.578125 327.1640625 L 343.3984375 328.1708096590909 L 349.21875 329.1775568181818 L 355.0390625 330.18430397727275 L 360.859375 331.1910511363636 L 366.6796875 332.1977982954545 L 372.5 333.20454545454544 M 372.5 333.20454545454544 L 378.3203125 334.2112926136364 L 384.140625 335.21803977272725 L 389.9609375 336.2247869318182 L 395.78125 337.2315340909091 L 401.6015625 338.23828125 L 407.421875 339.2450284090909 L 413.2421875 340.2517755681818 L 419.0625 341.25852272727275 L 424.8828125 342.2652698863636 L 430.703125 343.27201704545456 L 436.5234375 344.27876420454544 L 442.34375 345.2855113636364 L 448.1640625 346.29225852272725 L 453.984375 347.2990056818182 L 459.8046875 348.3057528409091 L 465.625 349.3125 L 471.4453125 350.31924715909093 L 477.265625 351.3259943181818 L 483.0859375 352.33274147727275 L 488.90625 353.3394886363636 L 494.7265625 354.34623579545456 L 500.546875 355.35298295454544 L 506.3671875 356.3597301136364 L 512.1875 357.36647727272725 L 518.0078125 358.3732244318182 L 523.828125 359.3799715909091 L 529.6484375 360.38671875 L 535.46875 361.3934659090909 L 541.2890625 362.4002130681818 L 547.109375 363.40696022727275 L 552.9296875 364.4137073863636 L 558.75 365.42045454545456 M 558.75 365.42045454545456 L 564.5703125 366.42720170454544 L 570.390625 367.4339488636364 L 576.2109375 368.44069602272725 L 582.03125 369.4474431818182 L 587.8515625 370.4541903409091 L 593.671875 371.4609375 L 599.4921875 372.46768465909093 L 605.3125 373.4744318181818 M 605.3125 373.4744318181818 L 611.1328125 374.48117897727275 L 616.953125 375.4879261363636 L 622.7734375 376.49467329545456 L 628.59375 377.50142045454544 M 628.59375 377.50142045454544 L 634.4140625 378.5081676136364 M 634.4140625 378.5081676136364 L 638.5714275071429 379.2272725431818" stroke-opacity="0.8" stroke-linecap="round" stroke-linejoin="round" stroke-miterlimit="10" stroke-width="2.5"/><text fill="rgb(97,97,97)" stroke="none" font-family="geogebra-sans-serif, sans-serif" font-size="16px" font-style="normal" font-weight="normal" text-decoration="normal" x="110" y="287" text-anchor="start" dominant-baseline="alphabetic" fill-opacity="1">Recta de Carga Estatica</text><text fill="none" stroke="rgb(255,255,255)" font-family="geogebra-sans-serif, sans-serif" font-size="16px" font-style="normal" font-weight="normal" text-decoration="normal" x="110" y="287" text-anchor="start" dominant-baseline="alphabetic" stroke-opacity="1" stroke-linejoin="bevel" stroke-miterlimit="10" stroke-width="3">Recta de Carga Estatica</text><text fill="rgb(97,97,97)" stroke="none" font-family="geogebra-sans-serif, sans-serif" font-size="16px" font-style="normal" font-weight="normal" text-decoration="normal" x="110" y="287" text-anchor="start" dominant-baseline="alphabetic" fill-opacity="1">Recta de Carga Estatica</text></g></g></svg>