<?xml version="1.0" encoding="UTF-8" standalone="no"?>
<!-- Created with Inkscape (http://www.inkscape.org/) -->

<svg
   version="1.1"
   id="svg1"
   width="127.20001"
   height="175.2"
   viewBox="0 0 127.20001 175.19999"
   xmlns="http://www.w3.org/2000/svg"
   xmlns:svg="http://www.w3.org/2000/svg">
  <defs
     id="defs1">
    <clipPath
       clipPathUnits="userSpaceOnUse"
       id="clipPath42">
      <path
         d="m 106.2,529.194 h 92.7 v 128.7 h -92.7 z"
         transform="translate(0,2.5000001e-5)"
         id="path42" />
    </clipPath>
    <clipPath
       clipPathUnits="userSpaceOnUse"
       id="clipPath44">
      <path
         d="m 106.2,529.194 h 92.7 v 128.7 h -92.7 z"
         transform="translate(0,2.5000001e-5)"
         id="path44" />
    </clipPath>
    <rect
       x="87.746742"
       y="5.5644274"
       width="29.619877"
       height="16.436462"
       id="rect1" />
    <rect
       x="87.746742"
       y="5.5644274"
       width="29.619877"
       height="16.436462"
       id="rect1-2" />
  </defs>
  <g
     id="g1"
     transform="translate(-140.39999,-245.47473)">
    <path
       id="path3"
       d="m 105.3,526.494 h 95.4 v 131.4 h -95.4 z"
       style="fill:#ffffff;fill-opacity:1;fill-rule:nonzero;stroke:none"
       transform="matrix(1.3333333,0,0,-1.3333333,0,1122.6667)" />
    <text
       xml:space="preserve"
       transform="translate(52.167002,249.33345)"
       id="text1-1"
       style="font-weight:900;font-size:12px;font-family:Roboto;-inkscape-font-specification:'Roboto Heavy';text-align:center;writing-mode:lr-tb;direction:ltr;white-space:pre;shape-inside:url(#rect1-2);display:inline;fill:#000000;-inkscape-stroke:none"><tspan
         x="89.557617"
         y="16.5987"
         id="tspan6"><tspan
           style="font-weight:normal;font-family:'times new roman';-inkscape-font-specification:'times new roman, '"
           id="tspan1">V</tspan><tspan
           style="font-weight:normal;font-family:'times new roman';-inkscape-font-specification:'times new roman, ';baseline-shift:sub"
           id="tspan4">DD</tspan></tspan></text>
    <path
       id="path4"
       d="m 175.05,615.594 v -13.5 m 0,-17.1 v -14.4 m 0,-9.9 v -12.6 m -14.4,0.9 v -12.6 m 14.4,103.5 v -13.5"
       style="fill:none;stroke:#000000;stroke-width:0.9;stroke-linecap:butt;stroke-linejoin:miter;stroke-miterlimit:10;stroke-dasharray:none;stroke-opacity:1"
       transform="matrix(1.3333333,0,0,-1.3333333,0,1122.6667)" />
    <path
       id="path5"
       d="m 166.5,640.794 h 18"
       style="fill:none;stroke:#000000;stroke-width:1.8;stroke-linecap:butt;stroke-linejoin:miter;stroke-miterlimit:10;stroke-dasharray:none;stroke-opacity:1"
       transform="matrix(1.3333333,0,0,-1.3333333,0,1122.6667)" />
    <path
       id="path7"
       d="m 3.7851109,-4.0124122 c 0,-0.3186973 -0.102539,-0.5526035 -0.3046875,-0.7017188 C 3.2753453,-4.8603224 2.9472203,-4.9363419 2.4960484,-4.9363419 H 1.6757359 v 1.9998984 h 0.8671875 c 0.421875,0 0.7324219,-0.081867 0.9375,-0.2456015 0.2021485,-0.1695821 0.3046875,-0.4473457 0.3046875,-0.8303672 z m 0.3984375,2.5027969 c 0,-0.3654786 -0.1259765,-0.6344707 -0.375,-0.8069766 C 3.5565953,-2.4949454 3.1640172,-2.5855841 2.6249547,-2.5855841 H 1.6757359 v 2.23380469 c 0.3574219,0.017543 0.7441407,0.0233906 1.1601563,0.0233906 0.4511719,0 0.7880859,-0.0935625 1.0078125,-0.2806875 C 4.0692906,-0.80204894 4.1835484,-1.1032032 4.1835484,-1.5096153 Z M 0.23432969,-9.2003125e-4 V -0.21143566 l 0.6796875,-0.10525781 V -4.9831232 L 0.23432969,-5.088381 V -5.2872013 H 2.6483922 c 0.6708984,0 1.1630859,0.09941 1.4765625,0.2923828 0.3105469,0.1958965 0.46875,0.51167 0.46875,0.9473203 0,0.3128497 -0.099609,0.578918 -0.2929688,0.7952813 -0.1875,0.2192871 -0.4541015,0.3625547 -0.796875,0.4327266 0.4746094,0.055553 0.84375,0.1958964 1.1015625,0.4210312 0.2636719,0.2280586 0.3984375,0.5204414 0.3984375,0.8771484 0,0.5087461 -0.1757812,0.89469145 -0.5273437,1.15783598 -0.3515625,0.25729688 -0.8671875,0.38594531 -1.546875,0.38594531 l -1.6875,-0.0233906212 z M 7.0692906,-2.3750685 v 2.05837503 l 0.8789063,0.10525781 V -9.2003125e-4 H 5.6747594 V -0.21143566 L 6.3075719,-0.31669347 V -4.9831232 L 5.6278844,-5.088381 v -0.1988203 h 3.9726562 v 1.2630938 H 9.3427281 L 9.2138219,-4.8778653 c -0.2988281,-0.03801 -0.7236328,-0.058477 -1.2773438,-0.058477 H 7.0692906 v 2.2104141 h 1.5585938 l 0.1171875,-0.6315469 h 0.2460937 v 1.6256484 H 8.7450719 L 8.6278844,-2.3750685 Z M 13.485306,-9.2003125e-4 H 10.239213 V -0.58568566 l 0.738281,-0.66663284 c 0.46875,-0.4122597 0.811523,-0.7426523 1.03125,-0.9941015 0.225586,-0.2572969 0.386719,-0.5204414 0.480469,-0.7952813 0.09375,-0.271916 0.140625,-0.5789179 0.140625,-0.9239297 0,-0.3420879 -0.0791,-0.6023086 -0.234375,-0.7835859 -0.149415,-0.1783535 -0.398438,-0.2689922 -0.75,-0.2689922 -0.140625,0 -0.28711,0.020467 -0.433594,0.058477 -0.149414,0.040934 -0.278321,0.090639 -0.386719,0.152039 l -0.140625,0.6432422 h -0.269531 v -1.0174922 c 0.483398,-0.1169531 0.893554,-0.1754297 1.230469,-0.1754297 0.577148,0 1.010742,0.1228008 1.300781,0.3625547 0.287109,0.2426778 0.433594,0.5847657 0.433594,1.0291875 0,0.289459 -0.05859,0.5672227 -0.175782,0.8303672 -0.111328,0.2660684 -0.287109,0.5262891 -0.527343,0.783586 -0.234375,0.2572968 -0.626954,0.6198515 -1.171875,1.087664 -0.234375,0.1958965 -0.486329,0.41518361 -0.75,0.65493752 h 2.730468 z M 17.129838,-1.1704513 V -9.2003125e-4 H 16.45015 V -1.1704513 H 14.082963 V -1.685045 l 2.589843,-3.6372422 h 0.457032 v 3.5904609 h 0.714843 v 0.561375 z M 16.45015,-4.3983575 h -0.02344 l -1.886719,2.6665312 h 1.910156 z m 3.433594,1.2981797 c 0.615234,0 1.072265,0.1286484 1.371094,0.3859453 0.295898,0.2514492 0.445312,0.628623 0.445312,1.1344453 0,0.5379844 -0.164062,0.95316795 -0.492187,1.23970311 -0.322266,0.2806875 -0.782227,0.42103125 -1.382813,0.42103125 -0.500977,0 -0.946289,-0.05847657 -1.335937,-0.17542969 l -0.04687,-1.11105467 h 0.257812 l 0.175781,0.74849998 c 0.117188,0.0643242 0.257813,0.1140293 0.421875,0.15203906 0.164063,0.0409336 0.319336,0.0584766 0.46875,0.0584766 0.413086,0 0.717774,-0.0964863 0.914063,-0.29238282 0.193359,-0.20174414 0.292969,-0.53213672 0.292969,-0.99410162 0,-0.3274687 -0.04395,-0.5730703 -0.128907,-0.7368047 -0.08789,-0.169582 -0.222656,-0.2953066 -0.410156,-0.37425 -0.181641,-0.07602 -0.421875,-0.1169531 -0.726562,-0.1169531 -0.243165,0 -0.47754,0.032162 -0.703125,0.093562 h -0.386719 v -2.61975 h 2.683594 v 0.596461 H 18.9814 V -2.99492 c 0.28125,-0.070172 0.580078,-0.1052578 0.902344,-0.1052578 z m 3.949219,2.88874214 V -9.2003125e-4 H 22.098588 V -0.21143566 l 0.597656,-0.10525781 1.804687,-5.01728903 h 0.75 l 1.875,5.01728903 0.667969,0.10525781 V -9.2003125e-4 H 25.555619 V -0.21143566 l 0.714844,-0.10525781 -0.527344,-1.53208593 h -2.085938 l -0.527343,1.53208593 z m 0.855468,-4.56117184 -0.914062,2.5729687 h 1.851562 z m 0,0"
       style="fill:#000000;fill-opacity:1;fill-rule:nonzero;stroke:none"
       aria-label="BF245A"
       transform="matrix(1.3333333,0,0,1.3360053,225.69147,334.27467)" />
    <path
       id="path8"
       d="m 180.9,620.994 h 1.8 v -1.8 l -6.3,-3.6 h -1.8 v 1.8"
       style="fill:#000000;fill-opacity:1;fill-rule:nonzero;stroke:none"
       transform="matrix(1.3333333,0,0,-1.3333333,0,1122.6667)" />
    <path
       id="path9"
       d="m 167.4,623.694 h 1.8 l 13.5,-2.7 v -1.8 h -1.8 l -13.5,2.7"
       style="fill:#000000;fill-opacity:1;fill-rule:nonzero;stroke:none"
       transform="matrix(1.3333333,0,0,-1.3333333,0,1122.6667)" />
    <path
       id="path10"
       d="m 174.6,627.294 h 1.8 v -1.8 l -7.2,-3.6 h -1.8 v 1.8"
       style="fill:#000000;fill-opacity:1;fill-rule:nonzero;stroke:none"
       transform="matrix(1.3333333,0,0,-1.3333333,0,1122.6667)" />
    <path
       id="path11"
       d="m 163.8,608.394 v -27.9"
       style="fill:none;stroke:#000000;stroke-width:1.8;stroke-linecap:butt;stroke-linejoin:miter;stroke-miterlimit:10;stroke-dasharray:none;stroke-opacity:1"
       transform="matrix(1.3333333,0,0,-1.3333333,0,1122.6667)" />
    <path
       id="path12"
       d="m 162.9,594.894 -8.1,-3.6 v 6.3 l 8.1,-2.7"
       style="fill:#000000;fill-opacity:1;fill-rule:evenodd;stroke:none"
       transform="matrix(1.3333333,0,0,-1.3333333,0,1122.6667)" />
    <path
       id="path13"
       d="m 148.5,593.544 h 7.2 m 8.1,9 h 10.8 m -9.9,-17.1 h 10.8"
       style="fill:none;stroke:#000000;stroke-width:0.9;stroke-linecap:butt;stroke-linejoin:miter;stroke-miterlimit:10;stroke-dasharray:none;stroke-opacity:1"
       transform="matrix(1.3333333,0,0,-1.3333333,0,1122.6667)" />
    <path
       id="path14"
       d="m 149.4,566.094 h 1.8 v -1.8 l -6.3,-2.7 h -1.8 v 1.8"
       style="fill:#000000;fill-opacity:1;fill-rule:nonzero;stroke:none"
       transform="matrix(1.3333333,0,0,-1.3333333,0,1122.6667)" />
    <path
       id="path15"
       d="m 135.9,569.694 h 1.8 l 13.5,-3.6 v -1.8 h -1.8 l -13.5,3.6"
       style="fill:#000000;fill-opacity:1;fill-rule:nonzero;stroke:none"
       transform="matrix(1.3333333,0,0,-1.3333333,0,1122.6667)" />
    <path
       id="path16"
       d="m 143.1,573.294 h 1.8 v -1.8 l -7.2,-3.6 h -1.8 v 1.8"
       style="fill:#000000;fill-opacity:1;fill-rule:nonzero;stroke:none"
       transform="matrix(1.3333333,0,0,-1.3333333,0,1122.6667)" />
    <path
       id="path17"
       d="m 180.9,565.194 h 1.8 v -1.8 l -6.3,-2.7 h -1.8 v 1.8"
       style="fill:#000000;fill-opacity:1;fill-rule:nonzero;stroke:none"
       transform="matrix(1.3333333,0,0,-1.3333333,0,1122.6667)" />
    <path
       id="path18"
       d="m 167.4,568.794 h 1.8 l 13.5,-3.6 v -1.8 h -1.8 l -13.5,3.6"
       style="fill:#000000;fill-opacity:1;fill-rule:nonzero;stroke:none"
       transform="matrix(1.3333333,0,0,-1.3333333,0,1122.6667)" />
    <path
       id="path19"
       d="m 174.6,572.394 h 1.8 v -1.8 l -7.2,-3.6 h -1.8 v 1.8"
       style="fill:#000000;fill-opacity:1;fill-rule:nonzero;stroke:none"
       transform="matrix(1.3333333,0,0,-1.3333333,0,1122.6667)" />
    <path
       id="path20"
       d="m 143.1,548.544 h 32.4 m -31.95,45.45 v -21.6 m 0,-10.8 v -12.6 m 0.45,44.55 h 8.1"
       style="fill:none;stroke:#000000;stroke-width:0.9;stroke-linecap:butt;stroke-linejoin:miter;stroke-miterlimit:10;stroke-dasharray:none;stroke-opacity:1"
       transform="matrix(1.3333333,0,0,-1.3333333,0,1122.6667)" />
    <path
       id="path21"
       d="m 1.8621094,-2.5884219 v 2.23828128 l 0.890625,0.1171875 v 0.234375 H 0.31523437 v -0.234375 L 1.0183594,-0.35014062 V -5.5415469 L 0.25664062,-5.6587344 v -0.234375 H 2.7996094 c 0.7412109,0 1.2890625,0.1259766 1.640625,0.375 0.3515625,0.2519532 0.5273437,0.6503907 0.5273437,1.1953125 0,0.3984375 -0.1113281,0.7441407 -0.328125,1.03125 -0.2109375,0.28125 -0.5039062,0.4775391 -0.8789062,0.5859375 l 1.59375,2.35546878 0.6328125,0.1171875 v 0.234375 h -1.40625 L 2.9167969,-2.5884219 Z m 2.2265625,-1.6640625 c 0,-0.4511718 -0.1113282,-0.7734375 -0.328125,-0.9609375 -0.2197266,-0.1875 -0.6035157,-0.28125 -1.1484375,-0.28125 h -0.75 v 2.5195313 h 0.7734375 c 0.5302734,0 0.9052734,-0.09668 1.125,-0.2929688 0.2167968,-0.1933593 0.328125,-0.5214843 0.328125,-0.984375 z m 0,0"
       style="fill:#000000;fill-opacity:1;fill-rule:nonzero;stroke:none"
       aria-label="R"
       transform="matrix(1.3333333,0,0,1.3333333,242.4,287.47467)" />
    <path
       id="path22"
       d="m 5.2023828,-2.98264 c 0,-0.8186718 -0.2226562,-1.4385234 -0.6679687,-1.8595546 C 4.0949609,-5.2690735 3.4680078,-5.4854368 2.6476953,-5.4854368 H 1.8625391 v 5.0757656 c 0.3427734,0.0233906 0.7558593,0.0350859 1.2421875,0.0350859 0.7177734,0 1.2451172,-0.21051562 1.5820312,-0.6315468 0.3427735,-0.4268789 0.515625,-1.0876641 0.515625,-1.9765079 z M 2.9289453,-5.8830775 c 1.0839844,0 1.8896485,0.2426778 2.4140625,0.7251094 0.5214844,0.4853555 0.7851563,1.2133887 0.7851563,2.1870235 0,0.9824062 -0.2548828,1.7279824 -0.7617188,2.23380465 C 4.8566797,-0.22839386 4.10375,0.02305536 3.1047266,0.02305536 L 1.0070703,-3.3526562e-4 H 0.25707031 V -0.23424152 L 1.0070703,-0.35119464 V -5.5322181 L 0.25707031,-5.6491712 v -0.2339063 z m 0,0"
       style="fill:#000000;fill-opacity:1;fill-rule:nonzero;stroke:none"
       aria-label="D"
       transform="matrix(1.3333333,0,0,1.3360053,250.90333,291.07467)" />
    <path
       id="path23"
       d="m 1.8626953,-2.5895937 v 2.2382812 l 0.890625,0.1171875 V 2.5e-4 H 0.31582031 V -0.234125 L 1.0189453,-0.3513125 V -5.5427187 L 0.25722656,-5.6599062 v -0.234375 H 2.8001953 c 0.741211,0 1.2890625,0.1259765 1.640625,0.375 0.3515625,0.2519531 0.5273438,0.6503906 0.5273438,1.1953125 0,0.3984375 -0.1113282,0.7441406 -0.328125,1.03125 -0.2109375,0.28125 -0.5039063,0.477539 -0.8789063,0.5859375 l 1.59375,2.3554687 0.6328125,0.1171875 V 2.5e-4 h -1.40625 L 2.9173828,-2.5895937 Z m 2.2265625,-1.6640625 c 0,-0.4511719 -0.1113281,-0.7734375 -0.328125,-0.9609375 -0.2197265,-0.1875 -0.6035156,-0.28125 -1.1484375,-0.28125 h -0.75 v 2.5195312 h 0.7734375 c 0.5302735,0 0.9052735,-0.09668 1.125,-0.2929687 0.2167969,-0.1933594 0.328125,-0.5214844 0.328125,-0.984375 z m 0,0"
       style="fill:#000000;fill-opacity:1;fill-rule:nonzero;stroke:none"
       aria-label="R"
       transform="matrix(1.3333333,0,0,1.3333333,241.2,361.87467)" />
    <path
       id="path24"
       d="m 0.60921875,-1.5774482 h 0.28125 l 0.15234375,0.78358598 c 0.1083984,0.14034375 0.2958984,0.26606836 0.5625,0.37425 0.2636719,0.10233399 0.5273438,0.15203906 0.7851563,0.15203906 0.4042968,0 0.7207031,-0.10525781 0.9492187,-0.31577343 C 3.5740625,-0.79386222 3.69125,-1.0803974 3.69125,-1.4487997 3.69125,-1.6593153 3.644375,-1.8288974 3.550625,-1.9633935 3.4627344,-2.1037372 3.3455469,-2.2206903 3.1990625,-2.3142528 3.0584375,-2.4078153 2.894375,-2.4838349 2.706875,-2.5481591 2.5252344,-2.618331 2.3377344,-2.6885028 2.144375,-2.7586747 1.9480859,-2.8288466 1.7576563,-2.9019423 1.5701563,-2.9808857 1.3885156,-3.0656767 1.2244531,-3.1709345 1.0779688,-3.2966591 0.93734375,-3.4194599 0.82015625,-3.5714989 0.72640625,-3.7527763 0.63851563,-3.9399013 0.5975,-4.1679599 0.5975,-4.4427997 c 0,-0.4678125 0.17578125,-0.833291 0.5273438,-1.0993594 0.3515625,-0.271916 0.8378906,-0.4093359 1.4648437,-0.4093359 0.46875,0 0.9785156,0.067248 1.5351563,0.1988203 v 1.2163125 h -0.28125 L 3.69125,-5.2497763 C 3.3924219,-5.4661396 3.0262109,-5.577245 2.5896875,-5.577245 c -0.3925781,0 -0.7001953,0.081867 -0.9257812,0.2456015 -0.2197266,0.1578868 -0.328125,0.37425 -0.328125,0.6549375 0,0.187125 0.041016,0.3450118 0.1289062,0.4678125 0.09375,0.1257246 0.2109375,0.2339063 0.3515625,0.3274688 0.1464844,0.087715 0.3105469,0.1637344 0.4921875,0.2339062 0.1875,0.064324 0.3779297,0.1286485 0.5742188,0.1988203 0.1933593,0.064324 0.3867187,0.1403438 0.5742187,0.2339063 0.1875,0.087715 0.3515625,0.1958965 0.4921875,0.3274687 0.1464844,0.1344961 0.2636719,0.2982305 0.3515625,0.4912032 0.09375,0.187125 0.140625,0.4210312 0.140625,0.7017187 0,0.5701465 -0.1757812,1.01164455 -0.5273437,1.32157033 -0.3515625,0.31284961 -0.8525391,0.4678125 -1.5,0.4678125 -0.3222657,0 -0.6416016,-0.03216211 -0.9609375,-0.0935625 -0.3134766,-0.0526289 -0.59472661,-0.12864844 -0.84375005,-0.22221094 z m 0,0"
       style="fill:#000000;fill-opacity:1;fill-rule:nonzero;stroke:none"
       aria-label="S"
       transform="matrix(1.3333333,0,0,1.3360053,249.70333,365.47467)" />
    <path
       id="path25"
       d="m 1.8626953,-2.5895937 v 2.2382812 l 0.890625,0.1171875 V 2.5e-4 H 0.31582031 V -0.234125 L 1.0189453,-0.3513125 V -5.5427187 L 0.25722656,-5.6599062 v -0.234375 H 2.8001953 c 0.741211,0 1.2890625,0.1259765 1.640625,0.375 0.3515625,0.2519531 0.5273438,0.6503906 0.5273438,1.1953125 0,0.3984375 -0.1113282,0.7441406 -0.328125,1.03125 -0.2109375,0.28125 -0.5039063,0.477539 -0.8789063,0.5859375 l 1.59375,2.3554687 0.6328125,0.1171875 V 2.5e-4 h -1.40625 L 2.9173828,-2.5895937 Z m 2.2265625,-1.6640625 c 0,-0.4511719 -0.1113281,-0.7734375 -0.328125,-0.9609375 -0.2197265,-0.1875 -0.6035156,-0.28125 -1.1484375,-0.28125 h -0.75 v 2.5195312 h 0.7734375 c 0.5302735,0 0.9052735,-0.09668 1.125,-0.2929687 0.2167969,-0.1933594 0.328125,-0.5214844 0.328125,-0.984375 z m 0,0"
       style="fill:#000000;fill-opacity:1;fill-rule:nonzero;stroke:none"
       aria-label="R"
       transform="matrix(1.3333333,0,0,1.3333333,169.2,379.87467)" />
    <path
       id="path26"
       d="M 5.6251766,-0.30265909 C 5.2882625,-0.19155362 4.9367,-0.09799112 4.5704891,-0.02197159 4.2013484,0.05404794 3.8087703,0.09498153 3.3868953,0.09498153 c -0.946289,0 -1.6875,-0.25729687 -2.2265625,-0.77189062 C 0.62712969,-1.1973505 0.36345781,-1.9312314 0.36345781,-2.8756278 c 0,-1.0291875 0.2578125,-1.7952305 0.77343749,-2.3039766 0.515625,-0.5145938 1.2714844,-0.7718906 2.2734375,-0.7718906 0.7089844,0 1.397461,0.090639 2.0625,0.2689922 v 1.2630937 H 5.1798641 L 5.0626766,-5.1445185 c -0.2050782,-0.1461914 -0.4453125,-0.2602207 -0.7265625,-0.339164 -0.28125,-0.07602 -0.5800782,-0.1169532 -0.890625,-0.1169532 -0.75,0 -1.2978516,0.2280586 -1.640625,0.6783282 -0.3457032,0.4444218 -0.515625,1.1285976 -0.515625,2.0466797 0,0.8596054 0.1757812,1.5145429 0.5273437,1.96481246 0.3574219,0.44442187 0.8847656,0.66663281 1.5820313,0.66663281 0.2490234,0 0.5068359,-0.0263144 0.7734375,-0.0818672 0.2636718,-0.0614004 0.46875,-0.13449609 0.609375,-0.22221094 V -2.2206903 l -0.75,-0.1169532 v -0.2339062 h 2.1679687 v 0.2339062 l -0.5742187,0.1169532 z m 0,0"
       style="fill:#000000;fill-opacity:1;fill-rule:nonzero;stroke:none"
       aria-label="G"
       transform="matrix(1.3333333,0,0,1.3360053,177.66773,383.47467)" />
    <path
       id="path29"
       d="m 4.640625,-2.3083437 v 0.4453125 H 0.4453125 v -0.4453125 z m 0,-1.8046875 v 0.4453125 H 0.4453125 v -0.4453125 z m 3.1904297,3.7617187 1.2070312,0.1171875 V 2.5e-4 H 5.8740234 V -0.234125 L 7.0810547,-0.3513125 V -5.156 L 5.8857422,-4.734125 V -4.9685 l 1.7226562,-0.9726562 h 0.2226563 z m 3.8789063,-3.09375 c 0.679687,0 1.183594,0.140625 1.511719,0.421875 0.333984,0.2753906 0.503906,0.6972656 0.503906,1.265625 0,0.5947266 -0.181641,1.05175781 -0.539063,1.37109375 C 12.826172,-0.06420312 12.310547,0.094 11.639648,0.094 c -0.55664,0 -1.051757,-0.06738281 -1.488281,-0.19921875 l -0.04687,-1.23046875 h 0.28125 l 0.199219,0.8203125 c 0.131836,0.0703125 0.287109,0.12890625 0.46875,0.17578125 0.178711,0.0410156 0.351562,0.0585938 0.515625,0.0585938 0.459961,0 0.799805,-0.10839844 1.019531,-0.328125 0.216797,-0.21679687 0.328125,-0.58593745 0.328125,-1.10156245 0,-0.3574219 -0.04687,-0.6328126 -0.140625,-0.8203126 -0.09375,-0.1875 -0.243164,-0.3222656 -0.445312,-0.4101561 -0.205078,-0.09375 -0.480469,-0.140625 -0.832032,-0.140625 -0.266601,0 -0.524414,0.035156 -0.773437,0.1054686 h -0.421875 v -2.9179686 h 2.988281 v 0.6679687 H 10.69043 v 1.8867188 c 0.319336,-0.070312 0.659179,-0.1054688 1.019531,-0.1054689 z m 11.015625,-2.4492187 v 0.234375 l -0.644531,0.1171875 -2.367188,5.6835937 h -0.222656 l -2.402344,-5.6835937 -0.65625,-0.1171875 v -0.234375 h 2.378906 v 0.234375 l -0.796875,0.1171875 1.792969,4.3359375 1.78125,-4.3359375 -0.773437,-0.1171875 v -0.234375 z M -16.136719,10.910406 v 2.238282 l 0.890625,0.117187 v 0.234375 h -2.4375 v -0.234375 l 0.703125,-0.117187 V 7.9572813 l -0.761718,-0.1171875 v -0.234375 h 2.542968 c 0.741211,0 1.289063,0.1259765 1.640625,0.375 0.351563,0.2519531 0.527344,0.6503906 0.527344,1.1953125 0,0.3984375 -0.111328,0.7441406 -0.328125,1.0312497 -0.210938,0.28125 -0.503906,0.477539 -0.878906,0.585938 l 1.59375,2.355469 0.632812,0.117187 v 0.234375 h -1.40625 l -1.664062,-2.589844 z m 2.226563,-1.6640622 c 0,-0.4511719 -0.111328,-0.7734375 -0.328125,-0.9609375 -0.219727,-0.1875 -0.603516,-0.28125 -1.148438,-0.28125 h -0.75 v 2.5195317 h 0.773438 c 0.530273,0 0.905273,-0.09668 1.125,-0.292969 0.216797,-0.19336 0.328125,-0.5214846 0.328125,-0.9843752 z m 0,0"
       style="fill:#000000;fill-opacity:1;fill-rule:nonzero;stroke:none"
       aria-label="=15 V&#10;R"
       transform="matrix(1.3333333,0,0,1.3333333,168,265.87467)" />
    <path
       id="path30"
       d="m 5.2039984,-2.9808857 c 0,-0.8186718 -0.2226562,-1.4385234 -0.6679687,-1.8595546 C 4.0965766,-5.2673192 3.4696234,-5.4836825 2.6493109,-5.4836825 H 1.8641547 v 5.07576559 c 0.3427734,0.0233906 0.7558594,0.0350859 1.2421875,0.0350859 0.7177734,0 1.2451172,-0.21051562 1.5820312,-0.63154679 0.3427735,-0.4268789 0.515625,-1.0876641 0.515625,-1.9765079 z M 2.9305609,-5.8813232 c 1.0839844,0 1.8896485,0.2426778 2.4140625,0.7251094 0.5214844,0.4853555 0.7851563,1.2133887 0.7851563,2.1870235 0,0.9824062 -0.2548828,1.7279824 -0.7617188,2.23380464 -0.5097656,0.5087461 -1.2626953,0.76019532 -2.2617187,0.76019532 L 1.0086859,0.00141903 H 0.25868594 V -0.23248722 L 1.0086859,-0.34944034 V -5.5304638 L 0.25868594,-5.6474169 v -0.2339063 z m 0,0"
       style="fill:#000000;fill-opacity:1;fill-rule:nonzero;stroke:none"
       aria-label="D"
       transform="matrix(1.3333333,0,0,1.3360053,152.45587,287.47467)" />
    <g
       id="g30"
       aria-label="=1.6kΩ&#10;R"
       transform="matrix(1.3333333,0,0,1.3333333,160.8,283.87467)">
      <path
         id="path31"
         d="m 4.6412109,-2.3083437 v 0.4453125 H 0.44589844 v -0.4453125 z m 0,-1.8046875 v 0.4453125 H 0.44589844 v -0.4453125 z m 3.1875,3.7617187 1.2070313,0.1171875 V 2.5e-4 H 5.8716797 V -0.234125 L 7.0787109,-0.3513125 V -5.156 L 5.8833984,-4.734125 V -4.9685 l 1.7226563,-0.9726562 h 0.2226562 z m 3.3984371,-0.0585938 c 0,0.14941406 -0.05273,0.27832031 -0.152343,0.38671875 -0.09375,0.09960938 -0.219727,0.15234375 -0.375,0.15234375 -0.149414,0 -0.275391,-0.05273437 -0.375,-0.15234375 -0.102539,-0.10839844 -0.152344,-0.23730469 -0.152344,-0.38671875 0,-0.14648437 0.0498,-0.27246094 0.152344,-0.375 0.09961,-0.0996094 0.225586,-0.15234375 0.375,-0.15234375 0.146484,0 0.272461,0.0527344 0.375,0.15234375 0.09961,0.10253906 0.152343,0.22851563 0.152343,0.375 z m 4.828125,-1.4179687 c 0,0.609375 -0.158203,1.08398438 -0.46875,1.41796875 C 15.281836,-0.07299219 14.836523,0.094 14.250586,0.094 c -0.65625,0 -1.160156,-0.2578125 -1.511719,-0.7734375 -0.351562,-0.5214844 -0.527344,-1.265625 -0.527344,-2.2265625 0,-0.6328125 0.08789,-1.1777344 0.269532,-1.640625 0.1875,-0.4599609 0.445312,-0.8115234 0.773437,-1.0546875 0.333985,-0.2402344 0.720703,-0.3632812 1.160156,-0.3632812 0.427735,0 0.855469,0.055664 1.277344,0.1640625 v 1.0078125 h -0.28125 L 15.258398,-5.390375 C 15.155859,-5.443109 15.024023,-5.489984 14.859961,-5.531 c -0.164063,-0.038086 -0.313477,-0.058594 -0.445313,-0.058594 -0.421875,0 -0.755859,0.2080078 -0.996093,0.6210937 -0.243164,0.4160156 -0.375,1.0195313 -0.398438,1.8164063 0.483399,-0.2490235 0.963867,-0.375 1.441406,-0.375 0.515625,0 0.908204,0.1464843 1.183594,0.4335937 0.272461,0.2900391 0.410156,0.7119141 0.410156,1.2656253 z m -1.816406,1.5703125 c 0.351563,0 0.603516,-0.11132812 0.761719,-0.33984375 0.164062,-0.234375 0.246094,-0.61523435 0.246094,-1.14843745 0,-0.4746094 -0.0791,-0.8203125 -0.234375,-1.03125 -0.149414,-0.2167969 -0.386719,-0.328125 -0.714844,-0.328125 -0.398438,0 -0.826172,0.076172 -1.277344,0.2226562 0,0.890625 0.09961,1.5527344 0.304688,1.98046875 0.202148,0.43066406 0.506836,0.64453125 0.914062,0.64453125 z m 3.597656,-1.734375 1.6875,-1.828125 -0.421875,-0.1171875 v -0.1992187 h 1.453125 V -3.93725 l -0.515625,0.1054688 -1.171875,1.2070312 1.511719,2.3203125 0.445313,0.10546875 V 2.5e-4 h -1.6875 v -0.19921875 l 0.375,-0.10546875 -1.136719,-1.78125 -0.539063,0.5859375 v 1.1953125 l 0.445313,0.10546875 V 2.5e-4 H 16.582617 V -0.19896875 L 17.109961,-0.3044375 V -5.9411562 L 16.500586,-6.046625 v -0.1992187 h 1.335937 z m 0,0"
         style="fill:#000000;fill-opacity:1;fill-rule:nonzero;stroke:none" />
      <path
         id="path32"
         d="m 21.047461,2.5e-4 v -0.71484375 h 1.429687 c -0.228515,-0.1640625 -0.445312,-0.36914065 -0.65625,-0.62109375 -0.210937,-0.2578125 -0.383789,-0.5625 -0.515625,-0.9140625 -0.134765,-0.3574219 -0.199218,-0.7617187 -0.199218,-1.2070312 0,-0.5859375 0.111328,-1.1074219 0.339843,-1.5703125 0.225586,-0.459961 0.556641,-0.8232422 0.996094,-1.0898438 0.436524,-0.2724609 0.972656,-0.4101562 1.605469,-0.4101562 0.632812,0 1.166016,0.1347656 1.605469,0.3984375 0.436523,0.2666015 0.767578,0.6298828 0.996093,1.0898437 0.234375,0.4628906 0.351563,0.984375 0.351563,1.5703125 0,0.4541016 -0.06738,0.8613281 -0.199219,1.21875 -0.134765,0.3515625 -0.304687,0.65625 -0.515625,0.9140625 -0.205078,0.2519531 -0.418945,0.45703125 -0.644531,0.62109375 h 1.40625 V 2.5e-4 h -2.402344 v -0.64453125 c 0.366211,-0.26367187 0.65918,-0.53320315 0.878906,-0.80859375 0.225586,-0.28125 0.386719,-0.5800781 0.480469,-0.9023437 0.09961,-0.319336 0.152344,-0.6796875 0.152344,-1.078125 0,-0.4511719 -0.0791,-0.8583985 -0.234375,-1.21875 -0.149414,-0.3574219 -0.380859,-0.6386719 -0.691406,-0.84375 -0.304688,-0.2109375 -0.700196,-0.3164063 -1.183594,-0.3164063 -0.477539,0 -0.873047,0.1054688 -1.183594,0.3164063 -0.313476,0.2050781 -0.544922,0.4863281 -0.691406,0.84375 -0.140625,0.3603515 -0.210938,0.7675781 -0.210938,1.21875 0,0.3984375 0.04687,0.758789 0.140625,1.078125 0.09375,0.3222656 0.249024,0.618164 0.46875,0.890625 0.216797,0.2753906 0.515625,0.54785151 0.890625,0.82031245 V 2.5e-4 Z m 0,0"
         style="fill:#000000;fill-opacity:1;fill-rule:nonzero;stroke:none" />
      <path
         id="path33"
         d="m -10.736719,10.910406 v 2.238282 l 0.8906253,0.117187 v 0.234375 h -2.4375003 v -0.234375 l 0.703125,-0.117187 V 7.9572813 l -0.761718,-0.1171875 v -0.234375 h 2.5429683 c 0.7412109,0 1.2890625,0.1259765 1.640625,0.375 0.3515625,0.2519531 0.5273437,0.6503906 0.5273437,1.1953125 0,0.3984375 -0.1113281,0.7441406 -0.328125,1.0312497 -0.2109375,0.28125 -0.5039062,0.477539 -0.8789062,0.585938 l 1.59375,2.355469 0.6328125,0.117187 v 0.234375 h -1.40625 l -1.6640625,-2.589844 z m 2.2265628,-1.6640622 c 0,-0.4511719 -0.1113282,-0.7734375 -0.328125,-0.9609375 -0.2197266,-0.1875 -0.6035157,-0.28125 -1.1484375,-0.28125 h -0.7500003 v 2.5195317 h 0.7734378 c 0.5302734,0 0.9052734,-0.09668 1.125,-0.292969 0.2167968,-0.19336 0.328125,-0.5214846 0.328125,-0.9843752 z m 0,0"
         style="fill:#000000;fill-opacity:1;fill-rule:nonzero;stroke:none" />
    </g>
    <path
       id="path34"
       d="m 0.61024844,-1.5774482 h 0.28125 l 0.15234376,0.78358598 c 0.1083984,0.14034375 0.2958984,0.26606836 0.5625,0.37425 0.2636719,0.10233399 0.5273437,0.15203906 0.7851562,0.15203906 0.4042969,0 0.7207032,-0.10525781 0.9492188,-0.31577343 0.234375,-0.21051563 0.3515625,-0.49705081 0.3515625,-0.86545311 0,-0.2105156 -0.046875,-0.3800977 -0.140625,-0.5145938 C 3.4637641,-2.1037372 3.3465766,-2.2206903 3.2000922,-2.3142528 3.0594672,-2.4078153 2.8954047,-2.4838349 2.7079047,-2.5481591 2.5262641,-2.618331 2.3387641,-2.6885028 2.1454047,-2.7586747 1.9491156,-2.8288466 1.7586859,-2.9019423 1.5711859,-2.9808857 1.3895453,-3.0656767 1.2254828,-3.1709345 1.0789984,-3.2966591 0.93837344,-3.4194599 0.82118594,-3.5714989 0.72743594,-3.7527763 0.63954531,-3.9399013 0.59852969,-4.1679599 0.59852969,-4.4427997 c 0,-0.4678125 0.17578125,-0.833291 0.52734371,-1.0993594 0.3515625,-0.271916 0.8378907,-0.4093359 1.4648438,-0.4093359 0.46875,0 0.9785156,0.067248 1.5351562,0.1988203 v 1.2163125 h -0.28125 L 3.6922797,-5.2497763 C 3.3934516,-5.4661396 3.0272406,-5.577245 2.5907172,-5.577245 c -0.3925781,0 -0.7001953,0.081867 -0.9257813,0.2456015 -0.2197265,0.1578868 -0.328125,0.37425 -0.328125,0.6549375 0,0.187125 0.041016,0.3450118 0.1289063,0.4678125 0.09375,0.1257246 0.2109375,0.2339063 0.3515625,0.3274688 0.1464844,0.087715 0.3105469,0.1637344 0.4921875,0.2339062 0.1875,0.064324 0.3779297,0.1286485 0.5742187,0.1988203 0.1933594,0.064324 0.3867188,0.1403438 0.5742188,0.2339063 0.1875,0.087715 0.3515625,0.1958965 0.4921875,0.3274687 0.1464844,0.1344961 0.2636719,0.2982305 0.3515625,0.4912032 0.09375,0.187125 0.140625,0.4210312 0.140625,0.7017187 0,0.5701465 -0.1757813,1.01164455 -0.5273438,1.32157033 -0.3515625,0.31284961 -0.852539,0.4678125 -1.5,0.4678125 -0.3222656,0 -0.6416015,-0.03216211 -0.9609375,-0.0935625 -0.3134765,-0.0526289 -0.59472653,-0.12864844 -0.84374996,-0.22221094 z m 0,0"
       style="fill:#000000;fill-opacity:1;fill-rule:nonzero;stroke:none"
       aria-label="S"
       transform="matrix(1.3333333,0,0,1.3360053,152.45587,305.47467)" />
    <g
       id="g34"
       aria-label="=600Ω&#10;R"
       transform="matrix(1.3333333,0,0,1.3333333,159.6,301.87467)">
      <path
         id="path35"
         d="m 4.6417969,-2.3083437 v 0.4453125 H 0.44648438 v -0.4453125 z m 0,-1.8046875 v 0.4453125 H 0.44648438 v -0.4453125 z m 4.6640625,2.2851562 c 0,0.609375 -0.1582031,1.08398438 -0.46875,1.41796875 C 8.5324219,-0.07299219 8.0871094,0.094 7.5011719,0.094 6.8449219,0.094 6.3410156,-0.1638125 5.9894531,-0.6794375 5.6378906,-1.2009219 5.4621094,-1.9450625 5.4621094,-2.906 c 0,-0.6328125 0.087891,-1.1777344 0.2695312,-1.640625 0.1875,-0.4599609 0.4453125,-0.8115234 0.7734375,-1.0546875 0.3339844,-0.2402344 0.7207032,-0.3632812 1.1601563,-0.3632812 0.4277344,0 0.8554687,0.055664 1.2773437,0.1640625 v 1.0078125 h -0.28125 L 8.5089844,-5.390375 C 8.4064453,-5.4431094 8.2746094,-5.4899844 8.1105469,-5.531 7.9464844,-5.569086 7.7970703,-5.589594 7.6652344,-5.589594 c -0.421875,0 -0.7558594,0.2080078 -0.9960938,0.6210937 -0.243164,0.4160156 -0.375,1.0195313 -0.3984375,1.8164063 0.4833985,-0.2490235 0.9638672,-0.375 1.4414063,-0.375 0.515625,0 0.9082031,0.1464843 1.1835937,0.4335937 0.272461,0.2900391 0.4101563,0.7119141 0.4101563,1.2656253 z m -1.8164063,1.5703125 c 0.3515625,0 0.6035157,-0.11132812 0.7617188,-0.33984375 0.1640625,-0.234375 0.2460937,-0.61523435 0.2460937,-1.14843745 0,-0.4746094 -0.079102,-0.8203125 -0.234375,-1.03125 -0.149414,-0.2167969 -0.3867187,-0.328125 -0.7148437,-0.328125 -0.3984375,0 -0.8261719,0.076172 -1.2773438,0.2226562 0,0.890625 0.099609,1.5527344 0.3046875,1.98046875 0.2021485,0.43066406 0.506836,0.64453125 0.9140625,0.64453125 z m 6.2460939,-2.71875 C 13.735547,-0.92846094 13.091016,0.094 11.801953,0.094 11.175,0.094 10.70332,-0.16674219 10.383984,-0.69115625 10.070508,-1.2126406 9.9152344,-1.9743594 9.9152344,-2.9763125 c 0,-0.9667969 0.1552736,-1.7109375 0.4687496,-2.2265625 0.319336,-0.5214844 0.802735,-0.7851562 1.453125,-0.7851562 0.615235,0 1.083985,0.2578125 1.40625,0.7734375 0.328125,0.5097656 0.492188,1.2539062 0.492188,2.2382812 z m -0.808594,0 c 0,-0.9375 -0.09082,-1.6113281 -0.269531,-2.0273437 -0.181641,-0.421875 -0.46582,-0.6328125 -0.855469,-0.6328125 -0.383789,0 -0.662109,0.1992187 -0.832031,0.5976562 -0.164063,0.3925781 -0.246094,1.078125 -0.246094,2.0625 0,1.0019531 0.08496,1.7050781 0.257813,2.109375 0.169922,0.40722656 0.445312,0.609375 0.820312,0.609375 0.38086,0 0.66211,-0.2109375 0.84375,-0.6328125 0.1875,-0.4277344 0.28125,-1.125 0.28125,-2.0859375 z m 5.308594,0 c 0,2.04785156 -0.644531,3.0703125 -1.933594,3.0703125 -0.626953,0 -1.098633,-0.26074219 -1.417969,-0.78515625 -0.313476,-0.52148435 -0.46875,-1.28320315 -0.46875,-2.28515625 0,-0.9667969 0.155274,-1.7109375 0.46875,-2.2265625 0.319336,-0.5214844 0.802735,-0.7851562 1.453125,-0.7851562 0.615235,0 1.083985,0.2578125 1.40625,0.7734375 0.328125,0.5097656 0.492188,1.2539062 0.492188,2.2382812 z m -0.808594,0 c 0,-0.9375 -0.09082,-1.6113281 -0.269531,-2.0273437 -0.181641,-0.421875 -0.46582,-0.6328125 -0.855469,-0.6328125 -0.383789,0 -0.662109,0.1992187 -0.832031,0.5976562 -0.164063,0.3925781 -0.246094,1.078125 -0.246094,2.0625 0,1.0019531 0.08496,1.7050781 0.257813,2.109375 0.169922,0.40722656 0.445312,0.609375 0.820312,0.609375 0.38086,0 0.66211,-0.2109375 0.84375,-0.6328125 0.1875,-0.4277344 0.28125,-1.125 0.28125,-2.0859375 z m 0,0"
         style="fill:#000000;fill-opacity:1;fill-rule:nonzero;stroke:none" />
      <path
         id="path36"
         d="m 18.798047,2.5e-4 v -0.71484375 h 1.429687 c -0.228515,-0.1640625 -0.445312,-0.36914065 -0.65625,-0.62109375 -0.210937,-0.2578125 -0.383789,-0.5625 -0.515625,-0.9140625 -0.134765,-0.3574219 -0.199218,-0.7617187 -0.199218,-1.2070312 0,-0.5859375 0.111328,-1.1074219 0.339843,-1.5703125 0.225586,-0.459961 0.556641,-0.8232422 0.996094,-1.0898438 0.436524,-0.2724609 0.972656,-0.4101562 1.605469,-0.4101562 0.632812,0 1.166016,0.1347656 1.605469,0.3984375 0.436523,0.2666015 0.767578,0.6298828 0.996093,1.0898437 0.234375,0.4628906 0.351563,0.984375 0.351563,1.5703125 0,0.4541016 -0.06738,0.8613281 -0.199219,1.21875 -0.134765,0.3515625 -0.304687,0.65625 -0.515625,0.9140625 -0.205078,0.2519531 -0.418945,0.45703125 -0.644531,0.62109375 h 1.40625 V 2.5e-4 h -2.402344 v -0.64453125 c 0.366211,-0.26367187 0.65918,-0.53320315 0.878906,-0.80859375 0.225586,-0.28125 0.386719,-0.5800781 0.480469,-0.9023437 0.09961,-0.319336 0.152344,-0.6796875 0.152344,-1.078125 0,-0.4511719 -0.0791,-0.8583985 -0.234375,-1.21875 -0.149414,-0.3574219 -0.380859,-0.6386719 -0.691406,-0.84375 -0.304688,-0.2109375 -0.700196,-0.3164063 -1.183594,-0.3164063 -0.477539,0 -0.873047,0.1054688 -1.183594,0.3164063 -0.313476,0.2050781 -0.544922,0.4863281 -0.691406,0.84375 -0.140625,0.3603515 -0.210938,0.7675781 -0.210938,1.21875 0,0.3984375 0.04687,0.758789 0.140625,1.078125 0.09375,0.3222656 0.249024,0.618164 0.46875,0.890625 0.216797,0.2753906 0.515625,0.54785151 0.890625,0.82031245 V 2.5e-4 Z m 0,0"
         style="fill:#000000;fill-opacity:1;fill-rule:nonzero;stroke:none" />
      <path
         id="path37"
         d="m -9.8367187,10.910406 v 2.238282 l 0.890625,0.117187 v 0.234375 h -2.4375003 v -0.234375 l 0.703125,-0.117187 V 7.9572813 l -0.761718,-0.1171875 v -0.234375 h 2.5429683 c 0.7412109,0 1.2890625,0.1259765 1.640625,0.375 0.3515625,0.2519531 0.5273437,0.6503906 0.5273437,1.1953125 0,0.3984375 -0.1113281,0.7441406 -0.328125,1.0312497 -0.2109375,0.28125 -0.5039062,0.477539 -0.8789062,0.585938 l 1.59375,2.355469 0.6328125,0.117187 v 0.234375 h -1.40625 l -1.6640625,-2.589844 z m 2.2265625,-1.6640622 c 0,-0.4511719 -0.1113282,-0.7734375 -0.328125,-0.9609375 -0.2197266,-0.1875 -0.6035157,-0.28125 -1.1484375,-0.28125 h -0.75 v 2.5195317 h 0.7734375 c 0.5302734,0 0.9052734,-0.09668 1.125,-0.292969 0.2167968,-0.19336 0.328125,-0.5214846 0.328125,-0.9843752 z m 0,0"
         style="fill:#000000;fill-opacity:1;fill-rule:nonzero;stroke:none" />
    </g>
    <path
       id="path38"
       d="m 5.6258734,-0.30265909 c -0.336914,0.11110547 -0.6884765,0.20466797 -1.0546875,0.2806875 -0.3691406,0.07601953 -0.7617187,0.11695312 -1.1835937,0.11695312 -0.9462891,0 -1.6875,-0.25729687 -2.2265625,-0.77189062 C 0.62782656,-1.1973505 0.36415469,-1.9312314 0.36415469,-2.8756278 c 0,-1.0291875 0.2578125,-1.7952305 0.77343751,-2.3039766 0.515625,-0.5145938 1.2714844,-0.7718906 2.2734375,-0.7718906 0.7089844,0 1.3974609,0.090639 2.0625,0.2689922 v 1.2630937 H 5.1805609 L 5.0633734,-5.1445185 c -0.2050781,-0.1461914 -0.4453125,-0.2602207 -0.7265625,-0.339164 -0.28125,-0.07602 -0.5800781,-0.1169532 -0.890625,-0.1169532 -0.75,0 -1.2978515,0.2280586 -1.640625,0.6783282 -0.3457031,0.4444218 -0.515625,1.1285976 -0.515625,2.0466797 0,0.8596054 0.1757813,1.5145429 0.5273438,1.96481246 0.3574219,0.44442187 0.8847656,0.66663281 1.5820312,0.66663281 0.2490235,0 0.506836,-0.0263144 0.7734375,-0.0818672 0.2636719,-0.0614004 0.46875,-0.13449609 0.609375,-0.22221094 V -2.2206903 l -0.75,-0.1169532 v -0.2339062 h 2.1679688 v 0.2339062 l -0.5742188,0.1169532 z m 0,0"
       style="fill:#000000;fill-opacity:1;fill-rule:nonzero;stroke:none"
       aria-label="G"
       transform="matrix(1.3333333,0,0,1.3360053,152.45587,323.47467)" />
    <g
       id="g38"
       aria-label="=5MΩ"
       transform="matrix(1.3333333,0,0,1.3333333,160.8,319.87467)">
      <path
         id="path39"
         d="m 4.6412109,-2.3083437 v 0.4453125 H 0.44589844 v -0.4453125 z m 0,-1.8046875 v 0.4453125 H 0.44589844 v -0.4453125 z m 2.5664063,0.6679687 c 0.6796875,0 1.1835937,0.140625 1.5117187,0.421875 0.3339844,0.2753906 0.5039063,0.6972656 0.5039063,1.265625 0,0.5947266 -0.1816406,1.05175781 -0.5390625,1.37109375 C 8.3238281,-0.06420312 7.8082031,0.094 7.1373047,0.094 6.5806641,0.094 6.0855469,0.02661719 5.6490234,-0.10521875 L 5.6021484,-1.3356875 h 0.28125 l 0.1992188,0.8203125 c 0.1318359,0.0703125 0.2871094,0.12890625 0.46875,0.17578125 0.1787109,0.0410156 0.3515625,0.0585938 0.515625,0.0585938 0.4599609,0 0.7998047,-0.10839844 1.0195312,-0.328125 0.2167969,-0.21679687 0.328125,-0.58593745 0.328125,-1.10156245 0,-0.3574219 -0.046875,-0.6328126 -0.140625,-0.8203126 -0.09375,-0.1875 -0.243164,-0.3222656 -0.4453125,-0.4101561 -0.2050781,-0.09375 -0.4804687,-0.140625 -0.8320312,-0.140625 -0.2666016,0 -0.5244141,0.035156 -0.7734375,0.1054686 h -0.421875 v -2.9179686 h 2.9882812 v 0.6679687 H 6.1880859 v 1.8867188 c 0.319336,-0.070312 0.6591797,-0.1054688 1.0195313,-0.1054689 z M 13.359961,2.5e-4 h -0.152344 l -2.15625,-5.0625 v 4.7109375 l 0.796875,0.1171875 V 2.5e-4 H 9.8326172 V -0.234125 L 10.594336,-0.3513125 V -5.5427187 L 9.8326172,-5.6599062 v -0.234375 H 11.613867 L 13.535742,-1.406 15.62168,-5.8942812 h 1.6875 v 0.234375 l -0.75,0.1171875 v 5.1914062 l 0.75,0.1171875 V 2.5e-4 H 14.918555 V -0.234125 L 15.71543,-0.3513125 V -5.06225 Z m 0,0"
         style="fill:#000000;fill-opacity:1;fill-rule:nonzero;stroke:none" />
      <path
         id="path40"
         d="m 17.801367,2.5e-4 v -0.71484375 h 1.429688 C 19.002539,-0.87865625 18.785742,-1.0837344 18.574805,-1.3356875 18.363867,-1.5935 18.191016,-1.8981875 18.05918,-2.24975 c -0.134766,-0.3574219 -0.199219,-0.7617187 -0.199219,-1.2070312 0,-0.5859375 0.111328,-1.1074219 0.339844,-1.5703125 0.225586,-0.459961 0.55664,-0.8232422 0.996093,-1.0898438 0.436524,-0.2724609 0.972657,-0.4101562 1.605469,-0.4101562 0.632813,0 1.166016,0.1347656 1.605469,0.3984375 0.436523,0.2666015 0.767578,0.6298828 0.996094,1.0898437 0.234375,0.4628906 0.351562,0.984375 0.351562,1.5703125 0,0.4541016 -0.06738,0.8613281 -0.199219,1.21875 -0.134765,0.3515625 -0.304687,0.65625 -0.515625,0.9140625 -0.205078,0.2519531 -0.418945,0.45703125 -0.644531,0.62109375 h 1.40625 V 2.5e-4 h -2.402344 v -0.64453125 c 0.366211,-0.26367187 0.65918,-0.53320315 0.878907,-0.80859375 0.225586,-0.28125 0.386718,-0.5800781 0.480468,-0.9023437 0.09961,-0.319336 0.152344,-0.6796875 0.152344,-1.078125 0,-0.4511719 -0.0791,-0.8583985 -0.234375,-1.21875 -0.149414,-0.3574219 -0.380859,-0.6386719 -0.691406,-0.84375 -0.304688,-0.2109375 -0.700195,-0.3164063 -1.183594,-0.3164063 -0.477539,0 -0.873047,0.1054688 -1.183594,0.3164063 -0.313476,0.2050781 -0.544921,0.4863281 -0.691406,0.84375 -0.140625,0.3603515 -0.210937,0.7675781 -0.210937,1.21875 0,0.3984375 0.04687,0.758789 0.140625,1.078125 0.09375,0.3222656 0.249023,0.618164 0.46875,0.890625 0.216797,0.2753906 0.515625,0.54785151 0.890625,0.82031245 V 2.5e-4 Z m 0,0"
         style="fill:#000000;fill-opacity:1;fill-rule:nonzero;stroke:none" />
    </g>
    <path
       id="path41"
       d="M 149.4,536.394 H 171"
       style="fill:none;stroke:#000000;stroke-width:1.8;stroke-linecap:butt;stroke-linejoin:miter;stroke-miterlimit:10;stroke-dasharray:none;stroke-opacity:1"
       transform="matrix(1.3333333,0,0,-1.3333333,0,1122.6667)"
       clip-path="url(#clipPath42)" />
    <path
       id="path43"
       d="m 153,533.244 h 15.3 m -12.6,-2.7 h 9"
       style="fill:none;stroke:#000000;stroke-width:0.9;stroke-linecap:butt;stroke-linejoin:miter;stroke-miterlimit:10;stroke-dasharray:none;stroke-opacity:1"
       transform="matrix(1.3333333,0,0,-1.3333333,0,1122.6667)"
       clip-path="url(#clipPath44)" />
    <g
       id="g326"
       aria-label="Figura P1.11.b&#10;Electronica Básica para Ingenieros"
       transform="matrix(1.3333333,0,0,1.3333333,487.2,1002.6747)">
      <path
         id="path327"
         d="m 2.2962891,-2.5186953 v 2.07421874 l 0.9726562,0.12890625 V 8.359375e-4 H 0.21035156 V -0.31557031 l 0.703125,-0.12890625 V -5.4601016 L 0.15175781,-5.5772891 V -5.8936953 H 5.0619141 v 1.5820312 H 4.6517578 l -0.140625,-1.03125 C 4.3705078,-5.3663516 4.1302734,-5.381 3.7962891,-5.3897891 3.4681641,-5.4044375 3.2103516,-5.4132266 3.0228516,-5.4132266 H 2.2962891 v 2.4140625 h 1.4296875 l 0.140625,-0.75 h 0.3867187 v 1.9921875 H 3.8666016 l -0.140625,-0.7617187 z m 5.5927734,2.12109374 0.4453125,0.10546875 V 8.359375e-4 H 6.1664063 V -0.29213281 L 6.6117188,-0.39760156 V -3.7374453 L 6.1898438,-3.8429141 V -4.1358828 H 7.8890625 Z M 6.5648438,-5.5772891 c 0,-0.1875 0.064453,-0.3427734 0.1992187,-0.46875 0.140625,-0.1318359 0.2988281,-0.1992187 0.4804688,-0.1992187 0.1875,0 0.3457031,0.067383 0.4804687,0.1992187 0.1318359,0.1259766 0.1992188,0.28125 0.1992188,0.46875 0,0.1875 -0.067383,0.3486329 -0.1992188,0.4804688 -0.1259766,0.1347656 -0.2871094,0.1992187 -0.4804687,0.1992187 -0.1875,0 -0.3486329,-0.061523 -0.4804688,-0.1875 C 6.6292969,-5.2169375 6.5648438,-5.381 6.5648438,-5.5772891 Z m 3.4951172,4.0546875 C 9.5443359,-1.7393984 9.2865234,-2.1700625 9.2865234,-2.8116641 c 0,-0.4599609 0.1552735,-0.8115234 0.46875,-1.0546875 0.3193356,-0.2490234 0.7792966,-0.375 1.3828126,-0.375 0.123047,0 0.28418,0.011719 0.480469,0.035156 0.193359,0.023437 0.339843,0.046875 0.433593,0.070312 l 0.984375,-0.4804688 0.152344,0.1875 -0.492187,0.7148438 c 0.178711,0.2197266 0.269531,0.5214844 0.269531,0.9023437 0,0.46875 -0.161133,0.8291016 -0.480469,1.078125 -0.313476,0.2519532 -0.770508,0.375 -1.371094,0.375 -0.234375,0 -0.457031,-0.017578 -0.667968,-0.058594 l -0.105469,0.3398437 c 0,0.0878907 0.04981,0.16992191 0.152344,0.24609379 0.108398,0.0703125 0.237304,0.10546875 0.386718,0.10546875 h 0.960938 c 1.007812,0 1.511719,0.38671875 1.511719,1.16015625 0,0.31933594 -0.09082,0.59179691 -0.269532,0.82031251 -0.172851,0.234375 -0.430664,0.4130859 -0.773437,0.5390625 -0.336914,0.1318359 -0.755859,0.1992187 -1.253906,0.1992187 -0.603516,0 -1.0664066,-0.087891 -1.3945316,-0.2578125 C 9.3333984,1.5623594 9.1693359,1.3250547 9.1693359,1.0203672 c 0,-0.12597657 0.052734,-0.25195314 0.1640625,-0.37500001 C 9.4417969,0.51939063 9.6498047,0.36704688 9.9544922,0.18833594 9.7816406,0.12388281 9.6322266,0.01255469 9.5091797,-0.15150781 9.3919922,-0.32142969 9.3333984,-0.50307031 9.3333984,-0.69057031 Z m 2.320312,2.25000004 c 0,-0.27539063 -0.18457,-0.41015625 -0.550781,-0.41015625 h -1.394531 c -0.257813,0.1875 -0.386719,0.3984375 -0.386719,0.6328125 0,0.18750001 0.08789,0.32812501 0.269531,0.42187501 0.178711,0.09375 0.424805,0.140625 0.738282,0.140625 0.427734,0 0.755859,-0.070312 0.984375,-0.2109375 0.225586,-0.1347656 0.339843,-0.32519532 0.339843,-0.57421876 z M 11.10293,-1.8038516 c 0.216797,0 0.375,-0.082031 0.46875,-0.2460937 0.09961,-0.1699219 0.152343,-0.4248047 0.152343,-0.7617188 0,-0.3339843 -0.05273,-0.5800781 -0.152343,-0.7382812 -0.09375,-0.1640625 -0.251953,-0.2460938 -0.46875,-0.2460938 -0.205078,0 -0.351563,0.082031 -0.445313,0.2460938 -0.08789,0.1582031 -0.128906,0.4042969 -0.128906,0.7382812 0,0.3369141 0.04102,0.5917969 0.128906,0.7617188 0.09375,0.1640625 0.240235,0.2460937 0.445313,0.2460937 z m 5.894531,1.44140629 -0.292969,0.15234375 c -0.416015,0.2109374975 -0.785156,0.31640625 -1.113281,0.31640625 -0.758789,0 -1.136719,-0.40429688 -1.136719,-1.21874999 v -2.625 l -0.410156,-0.1054688 v -0.2929687 h 1.675781 v 2.859375 c 0,0.2431641 0.0498,0.43359374 0.152344,0.57421874 0.108398,0.140625 0.260742,0.2109375 0.457031,0.2109375 0.216797,0 0.439453,-0.0498047 0.667969,-0.15234375 V -3.7374453 l -0.386719,-0.1054688 v -0.2929687 h 1.652344 v 3.73828124 l 0.410156,0.10546875 V 8.359375e-4 h -1.605469 z m 4.40332,-2.90624999 c 0.310547,-0.3515625 0.591797,-0.6035156 0.84375,-0.7617188 0.257813,-0.1552734 0.486328,-0.234375 0.691407,-0.234375 h 0.234375 v 1.5117188 h -0.246094 l -0.257813,-0.5507813 c -0.18164,0 -0.386718,0.041016 -0.621093,0.1171875 -0.234375,0.079102 -0.442383,0.1728516 -0.621094,0.28125 v 2.50781254 l 0.65625,0.10546875 V 8.359375e-4 H 19.619531 V -0.29213281 l 0.527344,-0.10546875 V -3.7374453 l -0.527344,-0.1054688 v -0.2929687 h 1.734375 z m 4.836914,-0.9492188 c 1.03125,0 1.546875,0.3808594 1.546875,1.1367188 v 2.68359374 l 0.410157,0.10546875 V 8.359375e-4 H 26.683008 L 26.577539,-0.31557031 C 26.349023,-0.15736719 26.143945,-0.05189844 25.956445,8.359375e-4 25.774805,0.06235938 25.593164,0.09458594 25.405664,0.09458594 c -0.852539,0 -1.277344,-0.41308594 -1.277344,-1.24218754 0,-0.3046875 0.06152,-0.5507812 0.1875,-0.7382812 0.123047,-0.1875 0.304688,-0.3222656 0.539063,-0.4101563 0.240234,-0.09375 0.615234,-0.1435546 1.125,-0.1523437 l 0.539062,-0.011719 v -0.609375 c 0,-0.4980468 -0.205078,-0.75 -0.609375,-0.75 -0.251953,0 -0.527343,0.079102 -0.832031,0.234375 l -0.164062,0.515625 h -0.292969 v -0.9960937 c 0.445312,-0.070312 0.767578,-0.1113281 0.972656,-0.1289063 0.210938,-0.014648 0.424805,-0.023437 0.644531,-0.023437 z m 0.28125,2.1445313 -0.375,0.011719 c -0.28125,0.017578 -0.477539,0.09375 -0.585937,0.234375 -0.111328,0.1347657 -0.164063,0.3515625 -0.164063,0.65625 0,0.25195316 0.04102,0.43359379 0.128907,0.55078129 0.08496,0.1171875 0.199218,0.17578125 0.339843,0.17578125 0.202149,0 0.421875,-0.0498047 0.65625,-0.15234375 z m 13.508789,-2.0742188 c 0,-0.46875 -0.09082,-0.796875 -0.269531,-0.984375 -0.172851,-0.1875 -0.477539,-0.28125 -0.914062,-0.28125 h -0.351563 v 2.6132813 h 0.363281 c 0.404297,0 0.703125,-0.099609 0.890625,-0.3046875 0.1875,-0.2021484 0.28125,-0.5507813 0.28125,-1.0429688 z m -1.535156,1.8398438 v 1.86328124 l 0.984375,0.12890625 V 8.359375e-4 H 36.406641 V -0.31557031 l 0.703125,-0.12890625 V -5.4601016 l -0.761719,-0.1171875 v -0.3164062 h 2.601562 c 0.834961,0 1.456055,0.140625 1.863282,0.421875 0.413086,0.28125 0.621093,0.7207031 0.621093,1.3125 0,1.2363281 -0.714843,1.8515625 -2.144531,1.8515625 z m 6.679688,1.82812499 1.019531,0.10546875 V 8.359375e-4 H 42.887109 V -0.37416406 l 1.019532,-0.10546875 V -4.9210391 l -1.019532,0.328125 v -0.375 l 1.664063,-0.9726562 h 0.621094 z m 3.079101,0.609375 c -0.205078,0 -0.375,-0.0703125 -0.515625,-0.2109375 -0.140625,-0.140625 -0.210937,-0.31054688 -0.210937,-0.515625 0,-0.20214844 0.07031,-0.375 0.210937,-0.51562499 0.140625,-0.1464844 0.310547,-0.2226563 0.515625,-0.2226563 0.202149,0 0.375,0.070312 0.515625,0.2109375 0.140625,0.14062504 0.210938,0.31640629 0.210938,0.52734379 0,0.19628906 -0.07031,0.36914062 -0.210938,0.515625 -0.140625,0.140625 -0.313476,0.2109375 -0.515625,0.2109375 z m 4.605469,-0.609375 1.019531,0.10546875 V 8.359375e-4 H 50.57168 V -0.37416406 l 1.019531,-0.10546875 V -4.9210391 l -1.019531,0.328125 v -0.375 l 1.664062,-0.9726562 h 0.621094 z m 4.96582,0 1.019532,0.10546875 V 8.359375e-4 H 55.5375 V -0.37416406 l 1.019531,-0.10546875 V -4.9210391 l -1.019531,0.328125 v -0.375 l 1.664063,-0.9726562 h 0.621093 z m 3.082032,0.609375 c -0.205079,0 -0.375,-0.0703125 -0.515625,-0.2109375 -0.140625,-0.140625 -0.210938,-0.31054688 -0.210938,-0.515625 0,-0.20214844 0.07031,-0.375 0.210938,-0.51562499 0.140625,-0.1464844 0.310546,-0.2226563 0.515625,-0.2226563 0.202148,0 0.375,0.070312 0.515625,0.2109375 0.140625,0.14062504 0.210937,0.31640629 0.210937,0.52734379 0,0.19628906 -0.07031,0.36914062 -0.210937,0.515625 -0.140625,0.140625 -0.313477,0.2109375 -0.515625,0.2109375 z M 65.84707,-2.1788516 c 0,-0.5449218 -0.06738,-0.9433593 -0.199218,-1.1953125 -0.134766,-0.2490234 -0.351563,-0.375 -0.65625,-0.375 -0.111329,0 -0.231446,0.011719 -0.363282,0.035156 -0.134765,0.023437 -0.243164,0.058594 -0.328125,0.1054687 v 3.16406254 c 0.1875,0.046875 0.416016,0.0703125 0.691407,0.0703125 0.287109,0 0.503906,-0.140625 0.644531,-0.421875 C 65.776758,-1.0772891 65.84707,-1.53725 65.84707,-2.1788516 Z m -2.8125,-3.6796875 -0.421875,-0.1054687 v -0.28125 h 1.6875 v 1.5117187 c 0,0.2753907 -0.01758,0.5507813 -0.04687,0.8320313 0.117188,-0.09375 0.28418,-0.1699219 0.503907,-0.234375 0.225586,-0.070312 0.445312,-0.1054688 0.65625,-0.1054688 0.600586,0 1.037109,0.1640625 1.3125,0.4921875 0.272461,0.328125 0.410156,0.8525391 0.410156,1.5703125 0,0.7119141 -0.175781,1.27148441 -0.527344,1.67578129 -0.351562,0.3984375 -0.849609,0.59765625 -1.488281,0.59765625 -0.477539,0 -1.171875,-0.09960938 -2.085938,-0.3046875 z m 0,0"
         style="fill:#000000;fill-opacity:1;fill-rule:nonzero;stroke:none" />
      <path
         id="path328"
         d="m -328.66172,-702.89858 v -6.1875 h 4.69922 v 0.67969 h -3.85547 v 1.99219 h 3.58594 v 0.66797 h -3.58594 v 2.15625 h 4.03125 v 0.6914 z m 5.80371,0 v -6.52734 h 0.78516 v 6.52734 z m 2.54004,-2.21484 c 0,0.54785 0.1084,0.96972 0.32813,1.26562 0.22558,0.29883 0.55664,0.44532 0.99609,0.44532 0.34277,0 0.61523,-0.0645 0.82031,-0.19922 0.21094,-0.14063 0.35157,-0.31641 0.42188,-0.52735 l 0.6914,0.1875 c -0.28125,0.75879 -0.92578,1.13672 -1.93359,1.13672 -0.70312,0 -1.23926,-0.21094 -1.60547,-0.63281 -0.36914,-0.42188 -0.55078,-1.0459 -0.55078,-1.875 0,-0.7793 0.18164,-1.37695 0.55078,-1.79297 0.36621,-0.42187 0.89063,-0.63281 1.57031,-0.63281 1.39746,0 2.09766,0.84082 2.09766,2.51953 v 0.10547 z m 2.56641,-0.59766 c -0.041,-0.50683 -0.16406,-0.87304 -0.375,-1.10156 -0.21094,-0.22559 -0.51563,-0.33984 -0.91406,-0.33984 -0.38379,0 -0.68848,0.1289 -0.91407,0.38671 -0.21972,0.25196 -0.33984,0.60352 -0.36328,1.05469 z m 2.35547,0.41016 c 0,0.63281 0.0967,1.10156 0.29297,1.40625 0.20214,0.30469 0.50683,0.45703 0.91406,0.45703 0.28125,0 0.51562,-0.0732 0.70312,-0.22266 0.1875,-0.15527 0.30469,-0.38965 0.35157,-0.70312 l 0.79687,0.0469 c -0.0645,0.46289 -0.25781,0.8291 -0.58594,1.10157 -0.32812,0.27539 -0.74707,0.41015 -1.2539,0.41015 -0.66504,0 -1.17188,-0.21094 -1.52344,-0.63281 -0.3457,-0.42188 -0.51563,-1.03418 -0.51563,-1.83984 0,-0.80274 0.17579,-1.41211 0.52735,-1.82813 0.35156,-0.42187 0.85547,-0.63281 1.51172,-0.63281 0.48339,0 0.88476,0.12597 1.20703,0.375 0.31933,0.25195 0.52148,0.59765 0.60937,1.04297 l -0.82031,0.0586 c -0.041,-0.26367 -0.14648,-0.47168 -0.31641,-0.62109 -0.16406,-0.15528 -0.39843,-0.23438 -0.70312,-0.23438 -0.42188,0 -0.72656,0.14063 -0.91406,0.42188 -0.1875,0.27539 -0.28125,0.73828 -0.28125,1.39453 z m 5.66015,2.36719 c -0.2666,0.0703 -0.5332,0.10546 -0.79687,0.10546 -0.63281,0 -0.94922,-0.35742 -0.94922,-1.07812 v -3.17578 h -0.55078 v -0.57422 h 0.57422 l 0.23437,-1.06641 h 0.52735 v 1.06641 h 0.8789 v 0.57422 h -0.8789 v 3 c 0,0.23437 0.0351,0.39844 0.10546,0.49219 0.0762,0.0879 0.21094,0.1289 0.39844,0.1289 0.0996,0 0.25195,-0.0176 0.45703,-0.0586 z m 0.61817,0.0351 v -3.64453 c 0,-0.33398 -0.009,-0.70605 -0.0234,-1.11328 h 0.75 c 0.0234,0.53906 0.0352,0.86426 0.0352,0.97266 h 0.0117 c 0.12305,-0.4043 0.26954,-0.68262 0.4336,-0.83204 0.16406,-0.14648 0.39844,-0.22265 0.70312,-0.22265 0.0996,0 0.20508,0.0117 0.31641,0.0352 v 0.72657 c -0.10254,-0.0234 -0.24316,-0.0352 -0.42188,-0.0352 -0.32812,0 -0.58007,0.14063 -0.75,0.42188 -0.17285,0.28125 -0.25781,0.68554 -0.25781,1.20703 v 2.48437 z m 6.93457,-2.3789 c 0,0.8291 -0.18457,1.45019 -0.55078,1.86328 -0.36914,0.40722 -0.89942,0.60937 -1.59375,0.60937 -0.69727,0 -1.22461,-0.21094 -1.58204,-0.63281 -0.35156,-0.42773 -0.52734,-1.04297 -0.52734,-1.83984 0,-1.64063 0.70899,-2.46094 2.13281,-2.46094 0.72657,0 1.25977,0.19922 1.60547,0.59765 0.34278,0.39844 0.51563,1.01954 0.51563,1.86329 z m -0.83203,0 c 0,-0.65625 -0.0996,-1.13086 -0.29297,-1.42969 -0.19629,-0.2959 -0.52442,-0.44531 -0.98438,-0.44531 -0.46289,0 -0.79687,0.15234 -1.00781,0.45703 -0.20508,0.29883 -0.30469,0.7705 -0.30469,1.41797 0,0.62695 0.0996,1.09863 0.30469,1.41796 0.20215,0.31348 0.52148,0.46875 0.96094,0.46875 0.47461,0 0.81445,-0.15234 1.01953,-0.45703 0.20215,-0.30468 0.30469,-0.77929 0.30469,-1.42968 z m 4.75781,2.3789 v -3.01172 c 0,-0.31054 -0.0322,-0.55371 -0.0937,-0.72656 -0.0557,-0.17871 -0.15235,-0.30469 -0.29297,-0.375 -0.13477,-0.0762 -0.32813,-0.11719 -0.58594,-0.11719 -0.38379,0 -0.68554,0.13477 -0.90234,0.39844 -0.21973,0.25781 -0.32813,0.61816 -0.32813,1.07813 v 2.7539 h -0.79687 v -3.73828 c 0,-0.55371 -0.009,-0.89355 -0.0234,-1.01953 h 0.75 c 0,0.0176 0,0.0586 0,0.12891 0.006,0.0644 0.0117,0.13769 0.0117,0.22265 0.006,0.0791 0.0147,0.23438 0.0234,0.46875 h 0.0117 c 0.17871,-0.32812 0.38671,-0.55664 0.62109,-0.6914 0.24023,-0.14063 0.54199,-0.21094 0.90234,-0.21094 0.51563,0 0.89356,0.1289 1.13672,0.38672 0.24024,0.25781 0.36328,0.68847 0.36328,1.28906 v 3.16406 z m 1.91308,-5.76562 v -0.76172 h 0.79688 v 0.76172 z m 0,5.76562 v -4.75781 h 0.79688 v 4.75781 z m 2.53711,-2.40234 c 0,0.63281 0.0967,1.10156 0.29297,1.40625 0.20215,0.30469 0.50684,0.45703 0.91406,0.45703 0.28125,0 0.51563,-0.0732 0.70313,-0.22266 0.1875,-0.15527 0.30469,-0.38965 0.35156,-0.70312 l 0.79688,0.0469 c -0.0645,0.46289 -0.25782,0.8291 -0.58594,1.10157 -0.32813,0.27539 -0.74707,0.41015 -1.25391,0.41015 -0.66504,0 -1.17187,-0.21094 -1.52343,-0.63281 -0.34571,-0.42188 -0.51563,-1.03418 -0.51563,-1.83984 0,-0.80274 0.17578,-1.41211 0.52734,-1.82813 0.35157,-0.42187 0.85547,-0.63281 1.51172,-0.63281 0.4834,0 0.88477,0.12597 1.20703,0.375 0.31934,0.25195 0.52149,0.59765 0.60938,1.04297 l -0.82031,0.0586 c -0.041,-0.26367 -0.14649,-0.47168 -0.31641,-0.62109 -0.16406,-0.15528 -0.39844,-0.23438 -0.70312,-0.23438 -0.42188,0 -0.72657,0.14063 -0.91407,0.42188 -0.1875,0.27539 -0.28125,0.73828 -0.28125,1.39453 z m 5.042,2.49609 c -0.47754,0 -0.83789,-0.12304 -1.07813,-0.375 -0.23437,-0.25781 -0.35156,-0.60351 -0.35156,-1.04297 0,-0.49218 0.1582,-0.87011 0.48047,-1.13672 0.32812,-0.26367 0.84961,-0.40429 1.57031,-0.42187 l 1.06641,-0.0234 v -0.25781 c 0,-0.38086 -0.082,-0.65625 -0.2461,-0.82031 -0.16406,-0.16992 -0.42187,-0.25782 -0.77344,-0.25782 -0.35156,0 -0.60937,0.0645 -0.77343,0.1875 -0.16407,0.11719 -0.26367,0.31055 -0.29297,0.57422 l -0.82031,-0.082 c 0.13183,-0.84961 0.76464,-1.27734 1.89843,-1.27734 0.60059,0 1.04883,0.13769 1.34766,0.41015 0.30469,0.2754 0.45703,0.66797 0.45703,1.1836 v 2.05078 c 0,0.23437 0.0293,0.41016 0.0937,0.52734 0.0615,0.11719 0.17871,0.17578 0.35156,0.17578 0.0762,0 0.16407,-0.006 0.25782,-0.0234 v 0.49218 c -0.19629,0.0469 -0.39844,0.0703 -0.60938,0.0703 -0.29004,0 -0.50391,-0.0762 -0.64453,-0.23438 -0.13477,-0.15527 -0.20801,-0.39844 -0.22266,-0.72656 h -0.0234 c -0.20508,0.36914 -0.44239,0.62988 -0.71485,0.78516 -0.2666,0.14648 -0.59179,0.22265 -0.97265,0.22265 z m 0.1875,-0.59765 c 0.28711,0 0.54492,-0.0645 0.77343,-0.19922 0.22559,-0.13184 0.40137,-0.31055 0.52735,-0.53907 0.13183,-0.23437 0.19922,-0.47168 0.19922,-0.71484 v -0.38672 l -0.86719,0.0117 c -0.375,0.009 -0.66211,0.0469 -0.85547,0.11719 -0.1875,0.0703 -0.33398,0.18164 -0.43359,0.32812 -0.10254,0.14063 -0.15235,0.33399 -0.15235,0.57422 0,0.25781 0.0703,0.45703 0.21094,0.59766 0.14062,0.14062 0.33984,0.21094 0.59766,0.21094 z m 10.89257,-1.24219 c 0,0.55664 -0.20507,0.98437 -0.60937,1.28906 -0.39844,0.30469 -0.95508,0.45703 -1.66406,0.45703 h -2.51953 v -6.1875 h 2.25 c 1.45312,0 2.17968,0.50098 2.17968,1.5 0,0.36914 -0.10254,0.67676 -0.30468,0.92578 -0.20508,0.24317 -0.49219,0.40723 -0.86719,0.49219 0.49219,0.0644 0.87011,0.23145 1.13672,0.50391 0.26367,0.2666 0.39843,0.60644 0.39843,1.01953 z m -1.20703,-2.84766 c 0,-0.32812 -0.11426,-0.5625 -0.33984,-0.70312 -0.22852,-0.14649 -0.55957,-0.22266 -0.99609,-0.22266 h -1.40625 v 1.95703 h 1.40625 c 0.44531,0 0.77636,-0.082 0.99609,-0.24609 0.22558,-0.16992 0.33984,-0.4336 0.33984,-0.78516 z m 0.35157,2.77735 c 0,-0.72657 -0.5127,-1.08985 -1.53516,-1.08985 h -1.55859 v 2.23828 h 1.6289 c 0.50684,0 0.87891,-0.0937 1.11328,-0.28125 0.23438,-0.19336 0.35157,-0.4834 0.35157,-0.86718 z m 3.07617,1.91015 c -0.47754,0 -0.83789,-0.12304 -1.07813,-0.375 -0.23437,-0.25781 -0.35156,-0.60351 -0.35156,-1.04297 0,-0.49218 0.1582,-0.87011 0.48047,-1.13672 0.32812,-0.26367 0.84961,-0.40429 1.57031,-0.42187 l 1.06641,-0.0234 v -0.25781 c 0,-0.38086 -0.082,-0.65625 -0.2461,-0.82031 -0.16406,-0.16992 -0.42187,-0.25782 -0.77343,-0.25782 -0.35157,0 -0.60938,0.0645 -0.77344,0.1875 -0.16406,0.11719 -0.26367,0.31055 -0.29297,0.57422 l -0.82031,-0.082 c 0.13183,-0.84961 0.76465,-1.27734 1.89843,-1.27734 0.60059,0 1.04883,0.13769 1.34766,0.41015 0.30469,0.2754 0.45703,0.66797 0.45703,1.1836 v 2.05078 c 0,0.23437 0.0293,0.41016 0.0937,0.52734 0.0615,0.11719 0.17871,0.17578 0.35156,0.17578 0.0762,0 0.16407,-0.006 0.25782,-0.0234 v 0.49218 c -0.19629,0.0469 -0.39844,0.0703 -0.60938,0.0703 -0.29004,0 -0.5039,-0.0762 -0.64453,-0.23438 -0.13476,-0.15527 -0.20801,-0.39844 -0.22266,-0.72656 h -0.0234 c -0.20508,0.36914 -0.44239,0.62988 -0.71485,0.78516 -0.2666,0.14648 -0.59179,0.22265 -0.97265,0.22265 z m 0.1875,-0.59765 c 0.28711,0 0.54492,-0.0645 0.77343,-0.19922 0.22559,-0.13184 0.40137,-0.31055 0.52735,-0.53907 0.13183,-0.23437 0.19922,-0.47168 0.19922,-0.71484 v -0.38672 l -0.86719,0.0117 c -0.375,0.009 -0.66211,0.0469 -0.85547,0.11719 -0.1875,0.0703 -0.33398,0.18164 -0.43359,0.32812 -0.10254,0.14063 -0.15235,0.33399 -0.15235,0.57422 0,0.25781 0.0703,0.45703 0.21094,0.59766 0.14063,0.14062 0.33984,0.21094 0.59766,0.21094 z m -0.1875,-4.76954 v -0.0937 l 0.94922,-1.26562 h 0.91406 v 0.12891 l -1.45313,1.23046 z m 7.28906,3.96094 c 0,0.44531 -0.16992,0.79395 -0.50391,1.04297 -0.33691,0.24316 -0.80859,0.36328 -1.41797,0.36328 -0.59472,0 -1.05175,-0.0967 -1.37109,-0.29297 -0.32226,-0.19336 -0.5332,-0.49804 -0.63281,-0.91406 l 0.70312,-0.14062 c 0.0703,0.25781 0.21094,0.44531 0.42188,0.5625 0.21094,0.11718 0.5039,0.17578 0.8789,0.17578 0.39844,0 0.69141,-0.0586 0.87891,-0.17578 0.1875,-0.12305 0.28125,-0.31055 0.28125,-0.5625 0,-0.1875 -0.0674,-0.33985 -0.19922,-0.45704 -0.12597,-0.11718 -0.33398,-0.21386 -0.62109,-0.29296 l -0.5625,-0.14063 c -0.46289,-0.11719 -0.79102,-0.22851 -0.98438,-0.33984 -0.1875,-0.11719 -0.33691,-0.25782 -0.44531,-0.42188 -0.10254,-0.16406 -0.15234,-0.36328 -0.15234,-0.59765 0,-0.42774 0.15234,-0.75586 0.45703,-0.98438 0.31055,-0.22559 0.76172,-0.33984 1.34765,-0.33984 0.53028,0 0.94922,0.0937 1.25391,0.28125 0.31055,0.18164 0.50684,0.47461 0.58594,0.8789 l -0.71485,0.0937 c -0.041,-0.21093 -0.1582,-0.36914 -0.35156,-0.48047 -0.1875,-0.11718 -0.44531,-0.17578 -0.77344,-0.17578 -0.35156,0 -0.61523,0.0557 -0.78515,0.16407 -0.17285,0.11132 -0.25781,0.27539 -0.25781,0.49218 0,0.13477 0.0351,0.24317 0.10546,0.32813 0.0703,0.0879 0.16993,0.16113 0.30469,0.22265 0.14063,0.0645 0.4336,0.14942 0.87891,0.25782 0.42187,0.11133 0.7207,0.208 0.90234,0.29297 0.1875,0.0879 0.33106,0.18457 0.4336,0.29296 0.10839,0.11133 0.19043,0.24024 0.24609,0.38672 0.0615,0.14063 0.0937,0.30176 0.0937,0.48047 z m 0.85547,-4.45312 v -0.76172 h 0.79687 v 0.76172 z m 0,5.76562 v -4.75781 h 0.79687 v 4.75781 z m 2.54004,-2.40234 c 0,0.63281 0.0967,1.10156 0.29297,1.40625 0.20214,0.30469 0.50683,0.45703 0.91406,0.45703 0.28125,0 0.51562,-0.0732 0.70312,-0.22266 0.1875,-0.15527 0.30469,-0.38965 0.35157,-0.70312 l 0.79687,0.0469 c -0.0644,0.46289 -0.25781,0.8291 -0.58594,1.10157 -0.32812,0.27539 -0.74707,0.41015 -1.2539,0.41015 -0.66504,0 -1.17188,-0.21094 -1.52344,-0.63281 -0.3457,-0.42188 -0.51563,-1.03418 -0.51563,-1.83984 0,-0.80274 0.17579,-1.41211 0.52735,-1.82813 0.35156,-0.42187 0.85547,-0.63281 1.51172,-0.63281 0.4834,0 0.88476,0.12597 1.20703,0.375 0.31933,0.25195 0.52148,0.59765 0.60937,1.04297 l -0.82031,0.0586 c -0.041,-0.26367 -0.14648,-0.47168 -0.31641,-0.62109 -0.16406,-0.15528 -0.39843,-0.23438 -0.70312,-0.23438 -0.42188,0 -0.72656,0.14063 -0.91406,0.42188 -0.1875,0.27539 -0.28125,0.73828 -0.28125,1.39453 z m 5.03906,2.49609 c -0.47754,0 -0.83789,-0.12304 -1.07813,-0.375 -0.23437,-0.25781 -0.35156,-0.60351 -0.35156,-1.04297 0,-0.49218 0.15821,-0.87011 0.48047,-1.13672 0.32813,-0.26367 0.84961,-0.40429 1.57031,-0.42187 l 1.06641,-0.0234 v -0.25781 c 0,-0.38086 -0.082,-0.65625 -0.24609,-0.82031 -0.16407,-0.16992 -0.42188,-0.25782 -0.77344,-0.25782 -0.35156,0 -0.60938,0.0645 -0.77344,0.1875 -0.16406,0.11719 -0.26367,0.31055 -0.29297,0.57422 l -0.82031,-0.082 c 0.13184,-0.84961 0.76465,-1.27734 1.89844,-1.27734 0.60058,0 1.04883,0.13769 1.34765,0.41015 0.30469,0.2754 0.45703,0.66797 0.45703,1.1836 v 2.05078 c 0,0.23437 0.0293,0.41016 0.0937,0.52734 0.0615,0.11719 0.17872,0.17578 0.35157,0.17578 0.0762,0 0.16406,-0.006 0.25781,-0.0234 v 0.49218 c -0.19629,0.0469 -0.39844,0.0703 -0.60938,0.0703 -0.29003,0 -0.5039,-0.0762 -0.64453,-0.23438 -0.13476,-0.15527 -0.208,-0.39844 -0.22265,-0.72656 h -0.0234 c -0.20508,0.36914 -0.44238,0.62988 -0.71484,0.78516 -0.26661,0.14648 -0.5918,0.22265 -0.97266,0.22265 z m 0.1875,-0.59765 c 0.28711,0 0.54492,-0.0645 0.77344,-0.19922 0.22558,-0.13184 0.40136,-0.31055 0.52734,-0.53907 0.13184,-0.23437 0.19922,-0.47168 0.19922,-0.71484 v -0.38672 l -0.86719,0.0117 c -0.375,0.009 -0.66211,0.0469 -0.85547,0.11719 -0.1875,0.0703 -0.33398,0.18164 -0.43359,0.32812 -0.10254,0.14063 -0.15234,0.33399 -0.15234,0.57422 0,0.25781 0.0703,0.45703 0.21093,0.59766 0.14063,0.14062 0.33985,0.21094 0.59766,0.21094 z m 9.99316,-1.89844 c 0,1.66406 -0.583,2.49609 -1.74609,2.49609 -0.73535,0 -1.22754,-0.27539 -1.47656,-0.83203 h -0.0234 c 0.006,0.0234 0.0117,0.27539 0.0117,0.75 v 1.85156 h -0.78516 v -5.64843 c 0,-0.49219 -0.009,-0.81446 -0.0234,-0.97266 h 0.76171 c 0,0.0176 0.003,0.0586 0.0117,0.12891 0.006,0.0703 0.0146,0.18164 0.0234,0.32812 0.006,0.14941 0.0117,0.25195 0.0117,0.30469 h 0.0117 c 0.14062,-0.28711 0.32226,-0.49805 0.55078,-0.63281 0.23437,-0.14063 0.54199,-0.21094 0.92578,-0.21094 0.58594,0 1.02246,0.19922 1.3125,0.59765 0.28711,0.39258 0.43359,1.00489 0.43359,1.83985 z m -0.83203,0.0234 c 0,-0.66211 -0.0908,-1.13672 -0.26953,-1.41797 -0.18164,-0.28711 -0.46582,-0.4336 -0.85547,-0.4336 -0.31347,0 -0.55957,0.0674 -0.73828,0.19922 -0.17285,0.13477 -0.30469,0.33985 -0.39844,0.6211 -0.0937,0.28125 -0.14062,0.64453 -0.14062,1.08984 0,0.62695 0.0967,1.08691 0.29297,1.38281 0.20215,0.29883 0.53027,0.44531 0.98437,0.44531 0.38965,0 0.67383,-0.14355 0.85547,-0.43359 0.17871,-0.28711 0.26953,-0.77344 0.26953,-1.45312 z m 2.95313,2.47265 c -0.47754,0 -0.83789,-0.12304 -1.07813,-0.375 -0.23437,-0.25781 -0.35156,-0.60351 -0.35156,-1.04297 0,-0.49218 0.1582,-0.87011 0.48047,-1.13672 0.32812,-0.26367 0.84961,-0.40429 1.57031,-0.42187 l 1.06641,-0.0234 v -0.25781 c 0,-0.38086 -0.082,-0.65625 -0.2461,-0.82031 -0.16406,-0.16992 -0.42187,-0.25782 -0.77343,-0.25782 -0.35157,0 -0.60938,0.0645 -0.77344,0.1875 -0.16406,0.11719 -0.26367,0.31055 -0.29297,0.57422 l -0.82031,-0.082 c 0.13183,-0.84961 0.76465,-1.27734 1.89844,-1.27734 0.60058,0 1.04882,0.13769 1.34765,0.41015 0.30469,0.2754 0.45703,0.66797 0.45703,1.1836 v 2.05078 c 0,0.23437 0.0293,0.41016 0.0937,0.52734 0.0615,0.11719 0.17871,0.17578 0.35157,0.17578 0.0762,0 0.16406,-0.006 0.25781,-0.0234 v 0.49218 c -0.19629,0.0469 -0.39844,0.0703 -0.60938,0.0703 -0.29004,0 -0.5039,-0.0762 -0.64453,-0.23438 -0.13476,-0.15527 -0.20801,-0.39844 -0.22265,-0.72656 h -0.0234 c -0.20508,0.36914 -0.44239,0.62988 -0.71485,0.78516 -0.2666,0.14648 -0.59179,0.22265 -0.97265,0.22265 z m 0.1875,-0.59765 c 0.28711,0 0.54492,-0.0645 0.77344,-0.19922 0.22558,-0.13184 0.40136,-0.31055 0.52734,-0.53907 0.13183,-0.23437 0.19922,-0.47168 0.19922,-0.71484 v -0.38672 l -0.86719,0.0117 c -0.375,0.009 -0.66211,0.0469 -0.85547,0.11719 -0.1875,0.0703 -0.33398,0.18164 -0.43359,0.32812 -0.10254,0.14063 -0.15235,0.33399 -0.15235,0.57422 0,0.25781 0.0703,0.45703 0.21094,0.59766 0.14063,0.14062 0.33985,0.21094 0.59766,0.21094 z m 3.55371,0.5039 v -3.64453 c 0,-0.33398 -0.009,-0.70605 -0.0234,-1.11328 h 0.75 c 0.0234,0.53906 0.0352,0.86426 0.0352,0.97266 h 0.0117 c 0.12304,-0.4043 0.26953,-0.68262 0.43359,-0.83204 0.16406,-0.14648 0.39844,-0.22265 0.70312,-0.22265 0.0996,0 0.20508,0.0117 0.31641,0.0352 v 0.72657 c -0.10254,-0.0234 -0.24316,-0.0352 -0.42187,-0.0352 -0.32813,0 -0.58008,0.14063 -0.75,0.42188 -0.17286,0.28125 -0.25782,0.68554 -0.25782,1.20703 v 2.48437 z m 4.12207,0.0937 c -0.47754,0 -0.83789,-0.12304 -1.07813,-0.375 -0.23437,-0.25781 -0.35156,-0.60351 -0.35156,-1.04297 0,-0.49218 0.1582,-0.87011 0.48047,-1.13672 0.32813,-0.26367 0.84961,-0.40429 1.57031,-0.42187 l 1.06641,-0.0234 v -0.25781 c 0,-0.38086 -0.082,-0.65625 -0.24609,-0.82031 -0.16407,-0.16992 -0.42188,-0.25782 -0.77344,-0.25782 -0.35156,0 -0.60938,0.0645 -0.77344,0.1875 -0.16406,0.11719 -0.26367,0.31055 -0.29297,0.57422 l -0.82031,-0.082 c 0.13183,-0.84961 0.76465,-1.27734 1.89844,-1.27734 0.60058,0 1.04882,0.13769 1.34765,0.41015 0.30469,0.2754 0.45703,0.66797 0.45703,1.1836 v 2.05078 c 0,0.23437 0.0293,0.41016 0.0937,0.52734 0.0615,0.11719 0.17871,0.17578 0.35157,0.17578 0.0762,0 0.16406,-0.006 0.25781,-0.0234 v 0.49218 c -0.19629,0.0469 -0.39844,0.0703 -0.60938,0.0703 -0.29004,0 -0.5039,-0.0762 -0.64453,-0.23438 -0.13476,-0.15527 -0.20801,-0.39844 -0.22265,-0.72656 h -0.0234 c -0.20508,0.36914 -0.44238,0.62988 -0.71484,0.78516 -0.26661,0.14648 -0.5918,0.22265 -0.97266,0.22265 z m 0.1875,-0.59765 c 0.28711,0 0.54492,-0.0645 0.77344,-0.19922 0.22558,-0.13184 0.40136,-0.31055 0.52734,-0.53907 0.13184,-0.23437 0.19922,-0.47168 0.19922,-0.71484 v -0.38672 l -0.86719,0.0117 c -0.375,0.009 -0.66211,0.0469 -0.85547,0.11719 -0.1875,0.0703 -0.33398,0.18164 -0.43359,0.32812 -0.10254,0.14063 -0.15234,0.33399 -0.15234,0.57422 0,0.25781 0.0703,0.45703 0.21093,0.59766 0.14063,0.14062 0.33985,0.21094 0.59766,0.21094 z m 6.19629,0.5039 v -6.1875 h 0.84375 v 6.1875 z m 5.2207,0 v -3.01172 c 0,-0.31054 -0.0322,-0.55371 -0.0937,-0.72656 -0.0557,-0.17871 -0.15234,-0.30469 -0.29297,-0.375 -0.13476,-0.0762 -0.32812,-0.11719 -0.58594,-0.11719 -0.38378,0 -0.68554,0.13477 -0.90234,0.39844 -0.21973,0.25781 -0.32812,0.61816 -0.32812,1.07813 v 2.7539 h -0.79688 v -3.73828 c 0,-0.55371 -0.009,-0.89355 -0.0234,-1.01953 h 0.75 c 0,0.0176 0,0.0586 0,0.12891 0.006,0.0644 0.0117,0.13769 0.0117,0.22265 0.006,0.0791 0.0147,0.23438 0.0234,0.46875 h 0.0117 c 0.17871,-0.32812 0.38672,-0.55664 0.62109,-0.6914 0.24024,-0.14063 0.54199,-0.21094 0.90235,-0.21094 0.51562,0 0.89355,0.1289 1.13671,0.38672 0.24024,0.25781 0.36329,0.68847 0.36329,1.28906 v 3.16406 z m 3.72656,1.86328 c -0.52441,0 -0.94336,-0.10254 -1.2539,-0.30468 -0.30469,-0.20508 -0.50098,-0.49219 -0.58594,-0.86719 l 0.79687,-0.10547 c 0.0527,0.2168 0.16993,0.38672 0.35157,0.50391 0.17871,0.11718 0.41308,0.17578 0.70312,0.17578 0.78809,0 1.1836,-0.46289 1.1836,-1.38282 v -0.76171 c -0.15821,0.30468 -0.36329,0.53613 -0.6211,0.6914 -0.25781,0.14942 -0.5625,0.22266 -0.91406,0.22266 -0.58594,0 -1.0166,-0.19043 -1.28906,-0.57422 -0.27539,-0.38965 -0.41016,-0.99902 -0.41016,-1.82813 0,-0.84375 0.14649,-1.46484 0.44531,-1.86328 0.2959,-0.39843 0.74414,-0.59765 1.34766,-0.59765 0.33398,0 0.62402,0.0791 0.86719,0.23437 0.24902,0.14942 0.43945,0.36914 0.57422,0.65625 h 0.0117 c 0,-0.0937 0.003,-0.24609 0.0117,-0.45703 0.0147,-0.2168 0.0293,-0.33984 0.0469,-0.36328 h 0.75 c -0.0234,0.1582 -0.0352,0.48633 -0.0352,0.98437 v 3.63282 c 0,1.33593 -0.66211,2.0039 -1.98047,2.0039 z m 1.19532,-4.24218 c 0,-0.38086 -0.0557,-0.71485 -0.16407,-0.9961 -0.10254,-0.28125 -0.25195,-0.49512 -0.44531,-0.64453 -0.1875,-0.14648 -0.4043,-0.22266 -0.64453,-0.22266 -0.40723,0 -0.70313,0.14942 -0.89063,0.44532 -0.18164,0.29004 -0.26953,0.76172 -0.26953,1.41797 0,0.65039 0.085,1.11914 0.25782,1.40625 0.16992,0.28125 0.46875,0.42187 0.89062,0.42187 0.24902,0 0.46875,-0.0703 0.65625,-0.21094 0.19336,-0.14648 0.34277,-0.35742 0.44531,-0.63281 0.1084,-0.28125 0.16407,-0.60937 0.16407,-0.98437 z m 2.54589,0.16406 c 0,0.54785 0.1084,0.96972 0.32813,1.26562 0.22559,0.29883 0.55664,0.44532 0.99609,0.44532 0.34278,0 0.61524,-0.0645 0.82032,-0.19922 0.21093,-0.14063 0.35156,-0.31641 0.42187,-0.52735 l 0.69141,0.1875 c -0.28125,0.75879 -0.92578,1.13672 -1.9336,1.13672 -0.70312,0 -1.23925,-0.21094 -1.60547,-0.63281 -0.36914,-0.42188 -0.55078,-1.0459 -0.55078,-1.875 0,-0.7793 0.18164,-1.37695 0.55078,-1.79297 0.36622,-0.42187 0.89063,-0.63281 1.57032,-0.63281 1.39746,0 2.09765,0.84082 2.09765,2.51953 v 0.10547 z m 2.56641,-0.59766 c -0.041,-0.50683 -0.16406,-0.87304 -0.375,-1.10156 -0.21094,-0.22559 -0.51562,-0.33984 -0.91406,-0.33984 -0.38379,0 -0.68848,0.1289 -0.91406,0.38671 -0.21973,0.25196 -0.33985,0.60352 -0.36329,1.05469 z m 4.76953,2.8125 v -3.01172 c 0,-0.31054 -0.0322,-0.55371 -0.0937,-0.72656 -0.0557,-0.17871 -0.15234,-0.30469 -0.29297,-0.375 -0.13476,-0.0762 -0.32812,-0.11719 -0.58593,-0.11719 -0.38379,0 -0.68555,0.13477 -0.90235,0.39844 -0.21972,0.25781 -0.32812,0.61816 -0.32812,1.07813 v 2.7539 h -0.79688 v -3.73828 c 0,-0.55371 -0.009,-0.89355 -0.0234,-1.01953 h 0.75 c 0,0.0176 0,0.0586 0,0.12891 0.006,0.0644 0.0117,0.13769 0.0117,0.22265 0.006,0.0791 0.0147,0.23438 0.0234,0.46875 h 0.0117 c 0.17871,-0.32812 0.38672,-0.55664 0.62109,-0.6914 0.24024,-0.14063 0.542,-0.21094 0.90235,-0.21094 0.51562,0 0.89355,0.1289 1.13672,0.38672 0.24023,0.25781 0.36328,0.68847 0.36328,1.28906 v 3.16406 z m 1.91016,-5.76562 v -0.76172 h 0.79687 v 0.76172 z m 0,5.76562 v -4.75781 h 0.79687 v 4.75781 z m 2.55176,-2.21484 c 0,0.54785 0.10839,0.96972 0.32812,1.26562 0.22559,0.29883 0.55664,0.44532 0.99609,0.44532 0.34278,0 0.61524,-0.0645 0.82032,-0.19922 0.21093,-0.14063 0.35156,-0.31641 0.42187,-0.52735 l 0.69141,0.1875 c -0.28125,0.75879 -0.92578,1.13672 -1.9336,1.13672 -0.70312,0 -1.23925,-0.21094 -1.60546,-0.63281 -0.36914,-0.42188 -0.55079,-1.0459 -0.55079,-1.875 0,-0.7793 0.18165,-1.37695 0.55079,-1.79297 0.36621,-0.42187 0.89062,-0.63281 1.57031,-0.63281 1.39746,0 2.09765,0.84082 2.09765,2.51953 v 0.10547 z m 2.5664,-0.59766 c -0.041,-0.50683 -0.16406,-0.87304 -0.375,-1.10156 -0.21094,-0.22559 -0.51562,-0.33984 -0.91406,-0.33984 -0.38379,0 -0.68848,0.1289 -0.91406,0.38671 -0.21973,0.25196 -0.33985,0.60352 -0.36328,1.05469 z m 1.76953,2.8125 v -3.64453 c 0,-0.33398 -0.009,-0.70605 -0.0234,-1.11328 h 0.75 c 0.0234,0.53906 0.0351,0.86426 0.0351,0.97266 h 0.0117 c 0.12305,-0.4043 0.26953,-0.68262 0.43359,-0.83204 0.16407,-0.14648 0.39844,-0.22265 0.70313,-0.22265 0.0996,0 0.20508,0.0117 0.31641,0.0352 v 0.72657 c -0.10254,-0.0234 -0.24317,-0.0352 -0.42188,-0.0352 -0.32812,0 -0.58008,0.14063 -0.75,0.42188 -0.17285,0.28125 -0.25781,0.68554 -0.25781,1.20703 v 2.48437 z m 6.93457,-2.3789 c 0,0.8291 -0.18457,1.45019 -0.55078,1.86328 -0.36914,0.40722 -0.89941,0.60937 -1.59375,0.60937 -0.69726,0 -1.22461,-0.21094 -1.58203,-0.63281 -0.35156,-0.42773 -0.52734,-1.04297 -0.52734,-1.83984 0,-1.64063 0.70898,-2.46094 2.13281,-2.46094 0.72656,0 1.25977,0.19922 1.60547,0.59765 0.34277,0.39844 0.51562,1.01954 0.51562,1.86329 z m -0.83203,0 c 0,-0.65625 -0.0996,-1.13086 -0.29297,-1.42969 -0.19629,-0.2959 -0.52441,-0.44531 -0.98437,-0.44531 -0.46289,0 -0.79688,0.15234 -1.00781,0.45703 -0.20508,0.29883 -0.30469,0.7705 -0.30469,1.41797 0,0.62695 0.0996,1.09863 0.30469,1.41796 0.20214,0.31348 0.52148,0.46875 0.96093,0.46875 0.47461,0 0.81446,-0.15234 1.01954,-0.45703 0.20214,-0.30468 0.30468,-0.77929 0.30468,-1.42968 z m 5.31153,1.0664 c 0,0.44531 -0.16993,0.79395 -0.50391,1.04297 -0.33691,0.24316 -0.80859,0.36328 -1.41797,0.36328 -0.59473,0 -1.05176,-0.0967 -1.37109,-0.29297 -0.32227,-0.19336 -0.53321,-0.49804 -0.63282,-0.91406 l 0.70313,-0.14062 c 0.0703,0.25781 0.21094,0.44531 0.42187,0.5625 0.21094,0.11718 0.50391,0.17578 0.87891,0.17578 0.39844,0 0.69141,-0.0586 0.87891,-0.17578 0.1875,-0.12305 0.28125,-0.31055 0.28125,-0.5625 0,-0.1875 -0.0674,-0.33985 -0.19922,-0.45704 -0.12598,-0.11718 -0.33399,-0.21386 -0.6211,-0.29296 l -0.5625,-0.14063 c -0.46289,-0.11719 -0.79101,-0.22851 -0.98437,-0.33984 -0.1875,-0.11719 -0.33691,-0.25782 -0.44531,-0.42188 -0.10254,-0.16406 -0.15235,-0.36328 -0.15235,-0.59765 0,-0.42774 0.15235,-0.75586 0.45703,-0.98438 0.31055,-0.22559 0.76172,-0.33984 1.34766,-0.33984 0.53027,0 0.94922,0.0937 1.25391,0.28125 0.31054,0.18164 0.50683,0.47461 0.58593,0.8789 l -0.71484,0.0937 c -0.041,-0.21093 -0.1582,-0.36914 -0.35156,-0.48047 -0.1875,-0.11718 -0.44531,-0.17578 -0.77344,-0.17578 -0.35156,0 -0.61523,0.0557 -0.78516,0.16407 -0.17285,0.11132 -0.25781,0.27539 -0.25781,0.49218 0,0.13477 0.0352,0.24317 0.10547,0.32813 0.0703,0.0879 0.16992,0.16113 0.30469,0.22265 0.14062,0.0645 0.43359,0.14942 0.8789,0.25782 0.42188,0.11133 0.72071,0.208 0.90235,0.29297 0.1875,0.0879 0.33105,0.18457 0.43359,0.29296 0.1084,0.11133 0.19043,0.24024 0.2461,0.38672 0.0615,0.14063 0.0937,0.30176 0.0937,0.48047 z m 0,0"
         style="fill:#000000;fill-opacity:1;fill-rule:nonzero;stroke:none" />
    </g>
    <text
       xml:space="preserve"
       transform="translate(131.05543,243.12804)"
       id="text1"
       style="font-weight:900;font-size:12px;font-family:Roboto;-inkscape-font-specification:'Roboto Heavy';text-align:center;writing-mode:lr-tb;direction:ltr;white-space:pre;shape-inside:url(#rect1);fill:#000000;-inkscape-stroke:none"><tspan
         x="89.557617"
         y="16.5987"
         id="tspan9"><tspan
           style="font-weight:normal;font-family:'times new roman';-inkscape-font-specification:'times new roman, '"
           id="tspan7">V</tspan><tspan
           style="font-weight:normal;font-family:'times new roman';-inkscape-font-specification:'times new roman, ';baseline-shift:sub"
           id="tspan8">DD</tspan></tspan></text>
  </g>
</svg>
