<svg version="1.1" xmlns="http://www.w3.org/2000/svg" xmlns:xlink="http://www.w3.org/1999/xlink" width="905" height="577"><defs><clipPath id="ZKbFHrhWqeci"><path fill="none" stroke="none" d=" M 0 0 L 905 0 L 905 577 L 0 577 L 0 0 Z"/></clipPath></defs><g transform="scale(1,1)" clip-path="url(#ZKbFHrhWqeci)"><g><rect fill="rgb(255,255,255)" stroke="none" x="0" y="0" width="905" height="577" fill-opacity="1"/><path fill="none" stroke="rgb(192,192,192)" paint-order="fill stroke markers" d=" M 27.5 0.5 L 27.5 577.5 M 27.5 0.5 L 27.5 577.5 M 88.5 0.5 L 88.5 577.5 M 149.5 0.5 L 149.5 577.5 M 209.5 0.5 L 209.5 577.5 M 270.5 0.5 L 270.5 577.5 M 331.5 0.5 L 331.5 577.5 M 391.5 0.5 L 391.5 577.5 M 452.5 0.5 L 452.5 577.5 M 513.5 0.5 L 513.5 577.5 M 573.5 0.5 L 573.5 577.5 M 634.5 0.5 L 634.5 577.5 M 695.5 0.5 L 695.5 577.5 M 816.5 0.5 L 816.5 577.5 M 877.5 0.5 L 877.5 577.5" stroke-opacity="1" stroke-linecap="round" stroke-linejoin="round" stroke-miterlimit="10"/><path fill="none" stroke="rgb(192,192,192)" paint-order="fill stroke markers" d=" M 3.5 0.5 L 3.5 577.5 M 15.5 0.5 L 15.5 577.5 M 39.5 0.5 L 39.5 577.5 M 52.5 0.5 L 52.5 577.5 M 64.5 0.5 L 64.5 577.5 M 76.5 0.5 L 76.5 577.5 M 100.5 0.5 L 100.5 577.5 M 112.5 0.5 L 112.5 577.5 M 124.5 0.5 L 124.5 577.5 M 137.5 0.5 L 137.5 577.5 M 161.5 0.5 L 161.5 577.5 M 173.5 0.5 L 173.5 577.5 M 185.5 0.5 L 185.5 577.5 M 197.5 0.5 L 197.5 577.5 M 221.5 0.5 L 221.5 577.5 M 234.5 0.5 L 234.5 577.5 M 246.5 0.5 L 246.5 577.5 M 258.5 0.5 L 258.5 577.5 M 282.5 0.5 L 282.5 577.5 M 294.5 0.5 L 294.5 577.5 M 306.5 0.5 L 306.5 577.5 M 319.5 0.5 L 319.5 577.5 M 343.5 0.5 L 343.5 577.5 M 355.5 0.5 L 355.5 577.5 M 367.5 0.5 L 367.5 577.5 M 379.5 0.5 L 379.5 577.5 M 403.5 0.5 L 403.5 577.5 M 416.5 0.5 L 416.5 577.5 M 428.5 0.5 L 428.5 577.5 M 440.5 0.5 L 440.5 577.5 M 464.5 0.5 L 464.5 577.5 M 476.5 0.5 L 476.5 577.5 M 488.5 0.5 L 488.5 577.5 M 501.5 0.5 L 501.5 577.5 M 525.5 0.5 L 525.5 577.5 M 537.5 0.5 L 537.5 577.5 M 549.5 0.5 L 549.5 577.5 M 561.5 0.5 L 561.5 577.5 M 585.5 0.5 L 585.5 577.5 M 598.5 0.5 L 598.5 577.5 M 610.5 0.5 L 610.5 577.5 M 622.5 0.5 L 622.5 577.5 M 646.5 0.5 L 646.5 577.5 M 658.5 0.5 L 658.5 577.5 M 670.5 0.5 L 670.5 577.5 M 683.5 0.5 L 683.5 577.5 M 707.5 0.5 L 707.5 577.5 M 719.5 0.5 L 719.5 577.5 M 731.5 0.5 L 731.5 577.5 M 743.5 0.5 L 743.5 577.5 M 767.5 0.5 L 767.5 577.5 M 780.5 0.5 L 780.5 577.5 M 792.5 0.5 L 792.5 577.5 M 804.5 0.5 L 804.5 577.5 M 828.5 0.5 L 828.5 577.5 M 840.5 0.5 L 840.5 577.5 M 852.5 0.5 L 852.5 577.5 M 865.5 0.5 L 865.5 577.5 M 889.5 0.5 L 889.5 577.5 M 901.5 0.5 L 901.5 577.5" stroke-opacity="0.23529411764705882" stroke-linecap="round" stroke-linejoin="round" stroke-miterlimit="10"/><path fill="none" stroke="rgb(192,192,192)" paint-order="fill stroke markers" d=" M 0.5 0.5 L 905.5 0.5 M 0.5 0.5 L 905.5 0.5 M 0.5 82.5 L 905.5 82.5 M 0.5 164.5 L 905.5 164.5 M 0.5 247.5 L 905.5 247.5 M 0.5 329.5 L 905.5 329.5 M 0.5 412.5 L 905.5 412.5 M 0.5 576.5 L 905.5 576.5" stroke-opacity="1" stroke-linecap="round" stroke-linejoin="round" stroke-miterlimit="10"/><path fill="none" stroke="rgb(192,192,192)" paint-order="fill stroke markers" d=" M 0.5 0.5 L 905.5 0.5 M 0.5 16.5 L 905.5 16.5 M 0.5 32.5 L 905.5 32.5 M 0.5 49.5 L 905.5 49.5 M 0.5 65.5 L 905.5 65.5 M 0.5 98.5 L 905.5 98.5 M 0.5 115.5 L 905.5 115.5 M 0.5 131.5 L 905.5 131.5 M 0.5 148.5 L 905.5 148.5 M 0.5 181.5 L 905.5 181.5 M 0.5 197.5 L 905.5 197.5 M 0.5 214.5 L 905.5 214.5 M 0.5 230.5 L 905.5 230.5 M 0.5 263.5 L 905.5 263.5 M 0.5 280.5 L 905.5 280.5 M 0.5 296.5 L 905.5 296.5 M 0.5 313.5 L 905.5 313.5 M 0.5 346.5 L 905.5 346.5 M 0.5 362.5 L 905.5 362.5 M 0.5 379.5 L 905.5 379.5 M 0.5 395.5 L 905.5 395.5 M 0.5 428.5 L 905.5 428.5 M 0.5 445.5 L 905.5 445.5 M 0.5 461.5 L 905.5 461.5 M 0.5 478.5 L 905.5 478.5 M 0.5 511.5 L 905.5 511.5 M 0.5 527.5 L 905.5 527.5 M 0.5 544.5 L 905.5 544.5 M 0.5 560.5 L 905.5 560.5" stroke-opacity="0.23529411764705882" stroke-linecap="round" stroke-linejoin="round" stroke-miterlimit="10"/><path fill="none" stroke="rgb(37,37,37)" paint-order="fill stroke markers" d=" M 755.5 2.5 L 755.5 577.5" stroke-opacity="1" stroke-miterlimit="10"/><path fill="none" stroke="rgb(37,37,37)" paint-order="fill stroke markers" d=" M 755.5 1.5 L 751.5 5.5" stroke-opacity="1" stroke-miterlimit="10"/><path fill="none" stroke="rgb(37,37,37)" paint-order="fill stroke markers" d=" M 755.5 1.5 L 759.5 5.5" stroke-opacity="1" stroke-miterlimit="10"/><text fill="rgb(37,37,37)" stroke="none" font-family="geogebra-sans-serif, sans-serif" font-size="16px" font-style="normal" font-weight="normal" text-decoration="normal" x="867" y="490" text-anchor="start" dominant-baseline="alphabetic" fill-opacity="1">Vgs</text><path fill="none" stroke="rgb(37,37,37)" paint-order="fill stroke markers" d=" M 0.5 494.5 L 903.5 494.5" stroke-opacity="1" stroke-miterlimit="10"/><path fill="none" stroke="rgb(37,37,37)" paint-order="fill stroke markers" d=" M 904.5 494.5 L 900.5 490.5" stroke-opacity="1" stroke-miterlimit="10"/><path fill="none" stroke="rgb(37,37,37)" paint-order="fill stroke markers" d=" M 904.5 494.5 L 900.5 498.5" stroke-opacity="1" stroke-miterlimit="10"/><text fill="rgb(37,37,37)" stroke="none" font-family="geogebra-sans-serif, sans-serif" font-size="12px" font-style="normal" font-weight="normal" text-decoration="normal" x="13" y="510" text-anchor="start" dominant-baseline="alphabetic" fill-opacity="1">–2.4V</text><text fill="none" stroke="rgb(255,255,255)" font-family="geogebra-sans-serif, sans-serif" font-size="12px" font-style="normal" font-weight="normal" text-decoration="normal" x="13" y="510" text-anchor="start" dominant-baseline="alphabetic" stroke-opacity="1" stroke-linejoin="bevel" stroke-miterlimit="10" stroke-width="3">–2.4V</text><text fill="rgb(37,37,37)" stroke="none" font-family="geogebra-sans-serif, sans-serif" font-size="12px" font-style="normal" font-weight="normal" text-decoration="normal" x="13" y="510" text-anchor="start" dominant-baseline="alphabetic" fill-opacity="1">–2.4V</text><text fill="rgb(37,37,37)" stroke="none" font-family="geogebra-sans-serif, sans-serif" font-size="12px" font-style="normal" font-weight="normal" text-decoration="normal" x="74" y="510" text-anchor="start" dominant-baseline="alphabetic" fill-opacity="1">–2.2V</text><text fill="none" stroke="rgb(255,255,255)" font-family="geogebra-sans-serif, sans-serif" font-size="12px" font-style="normal" font-weight="normal" text-decoration="normal" x="74" y="510" text-anchor="start" dominant-baseline="alphabetic" stroke-opacity="1" stroke-linejoin="bevel" stroke-miterlimit="10" stroke-width="3">–2.2V</text><text fill="rgb(37,37,37)" stroke="none" font-family="geogebra-sans-serif, sans-serif" font-size="12px" font-style="normal" font-weight="normal" text-decoration="normal" x="74" y="510" text-anchor="start" dominant-baseline="alphabetic" fill-opacity="1">–2.2V</text><text fill="rgb(37,37,37)" stroke="none" font-family="geogebra-sans-serif, sans-serif" font-size="12px" font-style="normal" font-weight="normal" text-decoration="normal" x="141" y="510" text-anchor="start" dominant-baseline="alphabetic" fill-opacity="1">–2V</text><text fill="none" stroke="rgb(255,255,255)" font-family="geogebra-sans-serif, sans-serif" font-size="12px" font-style="normal" font-weight="normal" text-decoration="normal" x="141" y="510" text-anchor="start" dominant-baseline="alphabetic" stroke-opacity="1" stroke-linejoin="bevel" stroke-miterlimit="10" stroke-width="3">–2V</text><text fill="rgb(37,37,37)" stroke="none" font-family="geogebra-sans-serif, sans-serif" font-size="12px" font-style="normal" font-weight="normal" text-decoration="normal" x="141" y="510" text-anchor="start" dominant-baseline="alphabetic" fill-opacity="1">–2V</text><text fill="rgb(37,37,37)" stroke="none" font-family="geogebra-sans-serif, sans-serif" font-size="12px" font-style="normal" font-weight="normal" text-decoration="normal" x="195" y="510" text-anchor="start" dominant-baseline="alphabetic" fill-opacity="1">–1.8V</text><text fill="none" stroke="rgb(255,255,255)" font-family="geogebra-sans-serif, sans-serif" font-size="12px" font-style="normal" font-weight="normal" text-decoration="normal" x="195" y="510" text-anchor="start" dominant-baseline="alphabetic" stroke-opacity="1" stroke-linejoin="bevel" stroke-miterlimit="10" stroke-width="3">–1.8V</text><text fill="rgb(37,37,37)" stroke="none" font-family="geogebra-sans-serif, sans-serif" font-size="12px" font-style="normal" font-weight="normal" text-decoration="normal" x="195" y="510" text-anchor="start" dominant-baseline="alphabetic" fill-opacity="1">–1.8V</text><text fill="rgb(37,37,37)" stroke="none" font-family="geogebra-sans-serif, sans-serif" font-size="12px" font-style="normal" font-weight="normal" text-decoration="normal" x="256" y="510" text-anchor="start" dominant-baseline="alphabetic" fill-opacity="1">–1.6V</text><text fill="none" stroke="rgb(255,255,255)" font-family="geogebra-sans-serif, sans-serif" font-size="12px" font-style="normal" font-weight="normal" text-decoration="normal" x="256" y="510" text-anchor="start" dominant-baseline="alphabetic" stroke-opacity="1" stroke-linejoin="bevel" stroke-miterlimit="10" stroke-width="3">–1.6V</text><text fill="rgb(37,37,37)" stroke="none" font-family="geogebra-sans-serif, sans-serif" font-size="12px" font-style="normal" font-weight="normal" text-decoration="normal" x="256" y="510" text-anchor="start" dominant-baseline="alphabetic" fill-opacity="1">–1.6V</text><text fill="rgb(37,37,37)" stroke="none" font-family="geogebra-sans-serif, sans-serif" font-size="12px" font-style="normal" font-weight="normal" text-decoration="normal" x="317" y="510" text-anchor="start" dominant-baseline="alphabetic" fill-opacity="1">–1.4V</text><text fill="none" stroke="rgb(255,255,255)" font-family="geogebra-sans-serif, sans-serif" font-size="12px" font-style="normal" font-weight="normal" text-decoration="normal" x="317" y="510" text-anchor="start" dominant-baseline="alphabetic" stroke-opacity="1" stroke-linejoin="bevel" stroke-miterlimit="10" stroke-width="3">–1.4V</text><text fill="rgb(37,37,37)" stroke="none" font-family="geogebra-sans-serif, sans-serif" font-size="12px" font-style="normal" font-weight="normal" text-decoration="normal" x="317" y="510" text-anchor="start" dominant-baseline="alphabetic" fill-opacity="1">–1.4V</text><text fill="rgb(37,37,37)" stroke="none" font-family="geogebra-sans-serif, sans-serif" font-size="12px" font-style="normal" font-weight="normal" text-decoration="normal" x="377" y="510" text-anchor="start" dominant-baseline="alphabetic" fill-opacity="1">–1.2V</text><text fill="none" stroke="rgb(255,255,255)" font-family="geogebra-sans-serif, sans-serif" font-size="12px" font-style="normal" font-weight="normal" text-decoration="normal" x="377" y="510" text-anchor="start" dominant-baseline="alphabetic" stroke-opacity="1" stroke-linejoin="bevel" stroke-miterlimit="10" stroke-width="3">–1.2V</text><text fill="rgb(37,37,37)" stroke="none" font-family="geogebra-sans-serif, sans-serif" font-size="12px" font-style="normal" font-weight="normal" text-decoration="normal" x="377" y="510" text-anchor="start" dominant-baseline="alphabetic" fill-opacity="1">–1.2V</text><text fill="rgb(37,37,37)" stroke="none" font-family="geogebra-sans-serif, sans-serif" font-size="12px" font-style="normal" font-weight="normal" text-decoration="normal" x="444" y="510" text-anchor="start" dominant-baseline="alphabetic" fill-opacity="1">–1V</text><text fill="none" stroke="rgb(255,255,255)" font-family="geogebra-sans-serif, sans-serif" font-size="12px" font-style="normal" font-weight="normal" text-decoration="normal" x="444" y="510" text-anchor="start" dominant-baseline="alphabetic" stroke-opacity="1" stroke-linejoin="bevel" stroke-miterlimit="10" stroke-width="3">–1V</text><text fill="rgb(37,37,37)" stroke="none" font-family="geogebra-sans-serif, sans-serif" font-size="12px" font-style="normal" font-weight="normal" text-decoration="normal" x="444" y="510" text-anchor="start" dominant-baseline="alphabetic" fill-opacity="1">–1V</text><text fill="rgb(37,37,37)" stroke="none" font-family="geogebra-sans-serif, sans-serif" font-size="12px" font-style="normal" font-weight="normal" text-decoration="normal" x="499" y="510" text-anchor="start" dominant-baseline="alphabetic" fill-opacity="1">–0.8V</text><text fill="none" stroke="rgb(255,255,255)" font-family="geogebra-sans-serif, sans-serif" font-size="12px" font-style="normal" font-weight="normal" text-decoration="normal" x="499" y="510" text-anchor="start" dominant-baseline="alphabetic" stroke-opacity="1" stroke-linejoin="bevel" stroke-miterlimit="10" stroke-width="3">–0.8V</text><text fill="rgb(37,37,37)" stroke="none" font-family="geogebra-sans-serif, sans-serif" font-size="12px" font-style="normal" font-weight="normal" text-decoration="normal" x="499" y="510" text-anchor="start" dominant-baseline="alphabetic" fill-opacity="1">–0.8V</text><text fill="rgb(37,37,37)" stroke="none" font-family="geogebra-sans-serif, sans-serif" font-size="12px" font-style="normal" font-weight="normal" text-decoration="normal" x="559" y="510" text-anchor="start" dominant-baseline="alphabetic" fill-opacity="1">–0.6V</text><text fill="none" stroke="rgb(255,255,255)" font-family="geogebra-sans-serif, sans-serif" font-size="12px" font-style="normal" font-weight="normal" text-decoration="normal" x="559" y="510" text-anchor="start" dominant-baseline="alphabetic" stroke-opacity="1" stroke-linejoin="bevel" stroke-miterlimit="10" stroke-width="3">–0.6V</text><text fill="rgb(37,37,37)" stroke="none" font-family="geogebra-sans-serif, sans-serif" font-size="12px" font-style="normal" font-weight="normal" text-decoration="normal" x="559" y="510" text-anchor="start" dominant-baseline="alphabetic" fill-opacity="1">–0.6V</text><text fill="rgb(37,37,37)" stroke="none" font-family="geogebra-sans-serif, sans-serif" font-size="12px" font-style="normal" font-weight="normal" text-decoration="normal" x="620" y="510" text-anchor="start" dominant-baseline="alphabetic" fill-opacity="1">–0.4V</text><text fill="none" stroke="rgb(255,255,255)" font-family="geogebra-sans-serif, sans-serif" font-size="12px" font-style="normal" font-weight="normal" text-decoration="normal" x="620" y="510" text-anchor="start" dominant-baseline="alphabetic" stroke-opacity="1" stroke-linejoin="bevel" stroke-miterlimit="10" stroke-width="3">–0.4V</text><text fill="rgb(37,37,37)" stroke="none" font-family="geogebra-sans-serif, sans-serif" font-size="12px" font-style="normal" font-weight="normal" text-decoration="normal" x="620" y="510" text-anchor="start" dominant-baseline="alphabetic" fill-opacity="1">–0.4V</text><text fill="rgb(37,37,37)" stroke="none" font-family="geogebra-sans-serif, sans-serif" font-size="12px" font-style="normal" font-weight="normal" text-decoration="normal" x="681" y="510" text-anchor="start" dominant-baseline="alphabetic" fill-opacity="1">–0.2V</text><text fill="none" stroke="rgb(255,255,255)" font-family="geogebra-sans-serif, sans-serif" font-size="12px" font-style="normal" font-weight="normal" text-decoration="normal" x="681" y="510" text-anchor="start" dominant-baseline="alphabetic" stroke-opacity="1" stroke-linejoin="bevel" stroke-miterlimit="10" stroke-width="3">–0.2V</text><text fill="rgb(37,37,37)" stroke="none" font-family="geogebra-sans-serif, sans-serif" font-size="12px" font-style="normal" font-weight="normal" text-decoration="normal" x="681" y="510" text-anchor="start" dominant-baseline="alphabetic" fill-opacity="1">–0.2V</text><text fill="rgb(37,37,37)" stroke="none" font-family="geogebra-sans-serif, sans-serif" font-size="12px" font-style="normal" font-weight="normal" text-decoration="normal" x="805" y="510" text-anchor="start" dominant-baseline="alphabetic" fill-opacity="1">0.2V</text><text fill="none" stroke="rgb(255,255,255)" font-family="geogebra-sans-serif, sans-serif" font-size="12px" font-style="normal" font-weight="normal" text-decoration="normal" x="805" y="510" text-anchor="start" dominant-baseline="alphabetic" stroke-opacity="1" stroke-linejoin="bevel" stroke-miterlimit="10" stroke-width="3">0.2V</text><text fill="rgb(37,37,37)" stroke="none" font-family="geogebra-sans-serif, sans-serif" font-size="12px" font-style="normal" font-weight="normal" text-decoration="normal" x="805" y="510" text-anchor="start" dominant-baseline="alphabetic" fill-opacity="1">0.2V</text><text fill="rgb(37,37,37)" stroke="none" font-family="geogebra-sans-serif, sans-serif" font-size="12px" font-style="normal" font-weight="normal" text-decoration="normal" x="866" y="510" text-anchor="start" dominant-baseline="alphabetic" fill-opacity="1">0.4V</text><text fill="none" stroke="rgb(255,255,255)" font-family="geogebra-sans-serif, sans-serif" font-size="12px" font-style="normal" font-weight="normal" text-decoration="normal" x="866" y="510" text-anchor="start" dominant-baseline="alphabetic" stroke-opacity="1" stroke-linejoin="bevel" stroke-miterlimit="10" stroke-width="3">0.4V</text><text fill="rgb(37,37,37)" stroke="none" font-family="geogebra-sans-serif, sans-serif" font-size="12px" font-style="normal" font-weight="normal" text-decoration="normal" x="866" y="510" text-anchor="start" dominant-baseline="alphabetic" fill-opacity="1">0.4V</text><text fill="rgb(37,37,37)" stroke="none" font-family="geogebra-sans-serif, sans-serif" font-size="16px" font-style="normal" font-weight="normal" text-decoration="normal" x="760" y="17" text-anchor="start" dominant-baseline="alphabetic" fill-opacity="1">Id</text><text fill="rgb(37,37,37)" stroke="none" font-family="geogebra-sans-serif, sans-serif" font-size="12px" font-style="normal" font-weight="normal" text-decoration="normal" x="710" y="417" text-anchor="start" dominant-baseline="alphabetic" fill-opacity="1">0.001A</text><text fill="none" stroke="rgb(255,255,255)" font-family="geogebra-sans-serif, sans-serif" font-size="12px" font-style="normal" font-weight="normal" text-decoration="normal" x="710" y="417" text-anchor="start" dominant-baseline="alphabetic" stroke-opacity="1" stroke-linejoin="bevel" stroke-miterlimit="10" stroke-width="3">0.001A</text><text fill="rgb(37,37,37)" stroke="none" font-family="geogebra-sans-serif, sans-serif" font-size="12px" font-style="normal" font-weight="normal" text-decoration="normal" x="710" y="417" text-anchor="start" dominant-baseline="alphabetic" fill-opacity="1">0.001A</text><text fill="rgb(37,37,37)" stroke="none" font-family="geogebra-sans-serif, sans-serif" font-size="12px" font-style="normal" font-weight="normal" text-decoration="normal" x="710" y="334" text-anchor="start" dominant-baseline="alphabetic" fill-opacity="1">0.002A</text><text fill="none" stroke="rgb(255,255,255)" font-family="geogebra-sans-serif, sans-serif" font-size="12px" font-style="normal" font-weight="normal" text-decoration="normal" x="710" y="334" text-anchor="start" dominant-baseline="alphabetic" stroke-opacity="1" stroke-linejoin="bevel" stroke-miterlimit="10" stroke-width="3">0.002A</text><text fill="rgb(37,37,37)" stroke="none" font-family="geogebra-sans-serif, sans-serif" font-size="12px" font-style="normal" font-weight="normal" text-decoration="normal" x="710" y="334" text-anchor="start" dominant-baseline="alphabetic" fill-opacity="1">0.002A</text><text fill="rgb(37,37,37)" stroke="none" font-family="geogebra-sans-serif, sans-serif" font-size="12px" font-style="normal" font-weight="normal" text-decoration="normal" x="710" y="252" text-anchor="start" dominant-baseline="alphabetic" fill-opacity="1">0.003A</text><text fill="none" stroke="rgb(255,255,255)" font-family="geogebra-sans-serif, sans-serif" font-size="12px" font-style="normal" font-weight="normal" text-decoration="normal" x="710" y="252" text-anchor="start" dominant-baseline="alphabetic" stroke-opacity="1" stroke-linejoin="bevel" stroke-miterlimit="10" stroke-width="3">0.003A</text><text fill="rgb(37,37,37)" stroke="none" font-family="geogebra-sans-serif, sans-serif" font-size="12px" font-style="normal" font-weight="normal" text-decoration="normal" x="710" y="252" text-anchor="start" dominant-baseline="alphabetic" fill-opacity="1">0.003A</text><text fill="rgb(37,37,37)" stroke="none" font-family="geogebra-sans-serif, sans-serif" font-size="12px" font-style="normal" font-weight="normal" text-decoration="normal" x="710" y="169" text-anchor="start" dominant-baseline="alphabetic" fill-opacity="1">0.004A</text><text fill="none" stroke="rgb(255,255,255)" font-family="geogebra-sans-serif, sans-serif" font-size="12px" font-style="normal" font-weight="normal" text-decoration="normal" x="710" y="169" text-anchor="start" dominant-baseline="alphabetic" stroke-opacity="1" stroke-linejoin="bevel" stroke-miterlimit="10" stroke-width="3">0.004A</text><text fill="rgb(37,37,37)" stroke="none" font-family="geogebra-sans-serif, sans-serif" font-size="12px" font-style="normal" font-weight="normal" text-decoration="normal" x="710" y="169" text-anchor="start" dominant-baseline="alphabetic" fill-opacity="1">0.004A</text><text fill="rgb(37,37,37)" stroke="none" font-family="geogebra-sans-serif, sans-serif" font-size="12px" font-style="normal" font-weight="normal" text-decoration="normal" x="710" y="87" text-anchor="start" dominant-baseline="alphabetic" fill-opacity="1">0.005A</text><text fill="none" stroke="rgb(255,255,255)" font-family="geogebra-sans-serif, sans-serif" font-size="12px" font-style="normal" font-weight="normal" text-decoration="normal" x="710" y="87" text-anchor="start" dominant-baseline="alphabetic" stroke-opacity="1" stroke-linejoin="bevel" stroke-miterlimit="10" stroke-width="3">0.005A</text><text fill="rgb(37,37,37)" stroke="none" font-family="geogebra-sans-serif, sans-serif" font-size="12px" font-style="normal" font-weight="normal" text-decoration="normal" x="710" y="87" text-anchor="start" dominant-baseline="alphabetic" fill-opacity="1">0.005A</text><text fill="rgb(37,37,37)" stroke="none" font-family="geogebra-sans-serif, sans-serif" font-size="12px" font-style="normal" font-weight="normal" text-decoration="normal" x="733" y="510" text-anchor="start" dominant-baseline="alphabetic" fill-opacity="1">0V</text><text fill="none" stroke="rgb(255,255,255)" font-family="geogebra-sans-serif, sans-serif" font-size="12px" font-style="normal" font-weight="normal" text-decoration="normal" x="733" y="510" text-anchor="start" dominant-baseline="alphabetic" stroke-opacity="1" stroke-linejoin="bevel" stroke-miterlimit="10" stroke-width="3">0V</text><text fill="rgb(37,37,37)" stroke="none" font-family="geogebra-sans-serif, sans-serif" font-size="12px" font-style="normal" font-weight="normal" text-decoration="normal" x="733" y="510" text-anchor="start" dominant-baseline="alphabetic" fill-opacity="1">0V</text><path fill="none" stroke="rgb(211,47,47)" paint-order="fill stroke markers" d=" M 149.16666363333354 494.57142857142856 L 152.01171875 494.56417723690953 M 152.01171875 494.56417723690953 L 155.546875 494.5349609684561 M 155.546875 494.5349609684561 L 159.08203125 494.4833531209339 L 162.6171875 494.4093536943429 L 166.15234375 494.3129626886831 L 169.6875 494.19418010395464 M 169.6875 494.19418010395464 L 173.22265625 494.05300594015733 L 176.7578125 493.88944019729126 L 180.29296875 493.70348287535637 L 183.828125 493.49513397435277 L 187.36328125 493.2643934942804 L 190.8984375 493.01126143513926 L 194.43359375 492.73573779692936 L 197.96875 492.43782257965063 L 201.50390625 492.1175157833032 L 205.0390625 491.7748174078869 L 208.57421875 491.40972745340196 L 212.109375 491.02224591984816 L 215.64453125 490.61237280722565 L 219.1796875 490.1801081155343 L 222.71484375 489.7254518447742 L 226.25 489.2484039949454 M 226.25 489.2484039949454 L 229.78515625 488.7489645660478 L 233.3203125000001 488.2271335580814 L 236.85546875 487.6829109710462 L 240.390625 487.1162968049423 L 243.92578125000006 486.5272910597696 L 247.46093750000006 485.91589373552813 L 250.99609375 485.2821048322179 L 254.53125 484.62592434983884 L 258.06640625000006 483.9473522883911 L 261.60156250000006 483.24638864787454 L 265.13671875 482.52303342828924 L 268.671875 481.7772866296351 L 272.20703125000006 481.0091482519123 L 275.74218750000006 480.2186182951206 L 279.27734375000006 479.4056967592602 L 282.8125 478.57038364433106 L 286.34765625000006 477.7126789503331 L 289.88281250000006 476.8325826772664 L 293.41796875 475.93009482513094 L 296.953125 475.0052153939267 L 300.48828125 474.05794438365365 L 304.02343750000006 473.08828179431185 L 307.55859375000006 472.0962276259013 L 311.09375000000006 471.0817818784219 L 314.62890625 470.04494455187387 L 318.16406250000006 468.98571564625695 L 321.69921875000006 467.9040951615713 L 325.234375 466.8000830978169 L 328.76953125 465.67367945499376 L 332.30468750000006 464.5248842331018 L 335.83984375000006 463.3536974321411 L 339.37500000000006 462.16011905211155 L 342.91015625 460.9441490930133 L 346.44531250000006 459.70578755484627 L 349.98046875000006 458.44503443761045 L 353.515625 457.1618897413059 L 357.05078125 455.85635346593256 L 360.5859375 454.52842561149043 L 364.12109375000006 453.17810617797954 L 367.65625000000006 451.8053951653999 L 371.19140625000006 450.41029257375146 L 374.7265625 448.99279840303427 L 378.26171875000006 447.5529126532483 L 381.796875 446.0906353243936 L 385.33203125 444.6059664164701 L 388.8671875 443.09890592947784 L 392.40234375000006 441.56945386341675 L 395.93750000000006 440.01761021828696 L 399.47265625000006 438.44337499408834 L 403.00781250000006 436.846748190821 L 406.54296875000006 435.2277298084849 L 410.07812500000006 433.58631984708 L 413.61328125 431.9225183066063 L 417.1484375 430.2363251870639 L 420.68359375 428.5277404884527 L 424.21875000000006 426.7967642107727 L 427.75390625000006 425.04339635402397 L 431.28906250000006 423.26763691820645 L 434.82421875 421.4694859033202 L 438.35937500000006 419.6489433093651 L 441.89453125 417.80600913634134 L 445.4296875 415.9406833842487 L 448.96484375 414.05296605308735 L 452.50000000000006 412.1428571428572 M 452.50000000000006 412.1428571428572 L 456.03515625000006 410.2103566535583 L 459.57031250000006 408.2554645851906 L 463.10546875000006 406.27818093775414 L 466.64062500000006 404.27850571124895 L 470.17578125000006 402.25643890567494 L 473.71093750000006 400.2119805210323 L 477.24609375000006 398.1451305573207 L 480.78125 396.0558890145404 L 484.31640625000006 393.94425589269133 L 487.85156250000006 391.8102311917735 L 491.38671875000006 389.65381491178687 L 494.921875 387.47500705273154 L 498.45703125000006 385.2738076146074 L 501.99218750000006 383.0502165974145 L 505.52734375 380.8042340011528 L 509.06250000000006 378.53585982582234 L 512.59765625 376.24509407142307 L 516.1328125 373.9319367379551 L 519.66796875 371.59638782541833 L 523.203125 369.23844733381276 L 526.73828125 366.8581152631385 L 530.2734375 364.4553916133954 L 533.80859375 362.03027638458354 L 537.34375 359.58276957670296 L 540.87890625 357.1128711897536 L 544.4140625 354.6205812237354 L 547.94921875 352.1058996786485 L 551.4843750000001 349.5688265544928 L 555.01953125 347.0093618512683 L 558.5546875 344.4275055689751 L 562.08984375 341.82325770761304 L 565.6250000000001 339.1966182671823 L 569.16015625 336.5475872476828 L 572.6953125 333.87616464911446 L 576.23046875 331.1823504714773 L 579.765625 328.4661447147715 L 583.30078125 325.72754737899686 L 586.8359375 322.9665584641534 L 590.37109375 320.18317797024133 L 593.90625 317.37740589726036 L 597.4414062500001 314.5492422452107 L 600.9765625 311.69868701409223 L 604.5117187500001 308.82574020390496 L 608.046875 305.9304018146489 L 611.5820312500001 303.0126718463241 L 615.1171875 300.07255029893054 L 618.6523437500001 297.1100371724682 L 622.1875 294.1251324669372 L 625.7226562500001 291.11783618233727 L 629.2578125 288.0881483186687 L 632.7929687500001 285.0360688759313 L 636.328125 281.9615978541251 L 639.8632812500001 278.86473525325005 L 643.3984375000001 275.74548107330634 L 646.9335937500001 272.60383531429386 L 650.4687500000001 269.4397979762126 L 654.0039062500001 266.2533690590626 L 657.5390625000001 263.04454856284383 L 661.0742187500001 259.8133364875563 L 664.6093750000001 256.5597328331999 L 668.14453125 253.28373759977478 L 671.6796875000001 249.98535078728094 L 675.21484375 246.66457239571824 L 678.7500000000001 243.32140242508677 M 678.7500000000001 243.32140242508677 L 682.2851562500001 239.95584087538666 L 685.8203125000001 236.5678877466177 L 689.3554687500001 233.15754303877998 L 692.8906250000001 229.72480675187342 L 696.4257812500001 226.2696788858982 L 699.9609375000001 222.79215944085416 L 703.4960937500001 219.29224841674136 L 707.0312500000001 215.7699458135598 L 710.5664062500001 212.2252516313094 L 714.1015625000001 208.65816586999034 L 717.6367187500001 205.0686885296024 L 721.1718750000001 201.45681961014577 L 724.7070312500001 197.82255911162036 L 728.2421875000001 194.1659070340262 L 731.7773437500001 190.48686337736314 L 735.3125000000001 186.78542814163143 M 735.3125000000001 186.78542814163143 L 738.8476562500001 183.0616013268309 L 742.3828125000001 179.31538293296165 L 745.9179687500001 175.5467729600236 L 749.4531250000001 171.75577140801676 M 749.4531250000001 171.75577140801676 L 752.9882812500001 167.94237827694116 M 752.9882812500001 167.94237827694116 L 755.8333303000003 164.85714615428572" stroke-opacity="0.8" stroke-linecap="round" stroke-linejoin="round" stroke-miterlimit="10" stroke-width="2.5"/><path fill="none" stroke="rgb(97,97,97)" paint-order="fill stroke markers" d=" M 149.16666363333354 171.56644435843856 L 152.01171875 172.33956687130353 M 152.01171875 172.33956687130353 L 155.546875 173.30021922118578 M 155.546875 173.30021922118578 L 159.08203125 174.26087157106804 L 162.6171875 175.2215239209503 L 166.15234375 176.1821762708326 L 169.6875 177.14282862071485 M 169.6875 177.14282862071485 L 173.22265625 178.1034809705971 L 176.7578125 179.06413332047936 L 180.29296875 180.0247856703616 L 183.828125 180.98543802024386 L 187.36328125 181.94609037012611 L 190.8984375 182.90674272000837 L 194.43359375 183.86739506989068 L 197.96875 184.82804741977287 L 201.50390625 185.78869976965512 L 205.0390625 186.74935211953738 L 208.57421875 187.7100044694197 L 212.109375 188.67065681930194 L 215.64453125 189.6313091691842 L 219.1796875 190.59196151906644 L 222.71484375 191.55261386894875 L 226.25 192.513266218831 M 226.25 192.513266218831 L 229.78515625 193.47391856871326 L 233.3203125000001 194.4345709185955 L 236.85546875 195.39522326847782 L 240.390625 196.35587561836007 L 243.92578125000006 197.31652796824233 L 247.46093750000006 198.27718031812458 L 250.99609375 199.23783266800683 L 254.53125 200.19848501788908 L 258.06640625000006 201.15913736777134 L 261.60156250000006 202.1197897176536 L 265.13671875 203.08044206753578 L 268.671875 204.0410944174181 L 272.20703125000006 205.00174676730035 L 275.74218750000006 205.9623991171826 L 279.27734375000006 206.92305146706485 L 282.8125 207.88370381694716 L 286.34765625000006 208.8443561668294 L 289.88281250000006 209.80500851671167 L 293.41796875 210.76566086659392 L 296.953125 211.72631321647623 L 300.48828125 212.68696556635848 L 304.02343750000006 213.64761791624073 L 307.55859375000006 214.608270266123 L 311.09375000000006 215.5689226160053 L 314.62890625 216.5295749658875 L 318.16406250000006 217.49022731576974 L 321.69921875000006 218.450879665652 L 325.234375 219.41153201553425 L 328.76953125 220.3721843654165 L 332.30468750000006 221.33283671529875 L 335.83984375000006 222.293489065181 L 339.37500000000006 223.25414141506332 L 342.91015625 224.21479376494557 L 346.44531250000006 225.17544611482782 L 349.98046875000006 226.13609846471007 L 353.515625 227.09675081459238 L 357.05078125 228.05740316447464 L 360.5859375 229.0180555143569 L 364.12109375000006 229.97870786423914 L 367.65625000000006 230.93936021412145 L 371.19140625000006 231.9000125640037 L 374.7265625 232.8606649138859 L 378.26171875000006 233.82131726376815 L 381.796875 234.7819696136504 L 385.33203125 235.74262196353266 L 388.8671875 236.70327431341497 L 392.40234375000006 237.66392666329722 L 395.93750000000006 238.62457901317947 L 399.47265625000006 239.58523136306175 L 403.00781250000006 240.545883712944 L 406.54296875000006 241.50653606282626 L 410.07812500000006 242.46718841270854 L 413.61328125 243.4278407625908 L 417.1484375 244.38849311247304 L 420.68359375 245.34914546235532 L 424.21875000000006 246.3097978122376 L 427.75390625000006 247.27045016211986 L 431.28906250000006 248.2311025120021 L 434.82421875 249.19175486188433 L 438.35937500000006 250.15240721176662 L 441.89453125 251.11305956164884 L 445.4296875 252.0737119115311 L 448.96484375 253.03436426141334 L 452.50000000000006 253.9950166112956 M 452.50000000000006 253.9950166112956 L 456.03515625000006 254.9556689611779 L 459.57031250000006 255.91632131106016 L 463.10546875000006 256.87697366094244 L 466.64062500000006 257.8376260108247 L 470.17578125000006 258.79827836070695 L 473.71093750000006 259.7589307105892 L 477.24609375000006 260.71958306047145 L 480.78125 261.6802354103537 L 484.31640625000006 262.640887760236 L 487.85156250000006 263.60154011011826 L 491.38671875000006 264.56219246000046 L 494.921875 265.5228448098827 L 498.45703125000006 266.4834971597651 L 501.99218750000006 267.44414950964733 L 505.52734375 268.4048018595296 L 509.06250000000006 269.36545420941184 L 512.59765625 270.3261065592941 L 516.1328125 271.28675890917634 L 519.66796875 272.2474112590586 L 523.203125 273.20806360894085 L 526.73828125 274.1687159588231 L 530.2734375 275.12936830870535 L 533.80859375 276.0900206585876 L 537.34375 277.05067300846986 L 540.87890625 278.0113253583522 L 544.4140625 278.9719777082345 L 547.94921875 279.93263005811673 L 551.4843750000001 280.893282407999 L 555.01953125 281.85393475788123 L 558.5546875 282.8145871077635 L 562.08984375 283.77523945764574 L 565.6250000000001 284.735891807528 L 569.16015625 285.69654415741024 L 572.6953125 286.6571965072925 L 576.23046875 287.61784885717475 L 579.765625 288.578501207057 L 583.30078125 289.53915355693925 L 586.8359375 290.4998059068215 L 590.37109375 291.46045825670376 L 593.90625 292.421110606586 L 597.4414062500001 293.3817629564684 L 600.9765625 294.34241530635063 L 604.5117187500001 295.3030676562329 L 608.046875 296.26372000611514 L 611.5820312500001 297.2243723559974 L 615.1171875 298.18502470587964 L 618.6523437500001 299.1456770557619 L 622.1875 300.10632940564415 L 625.7226562500001 301.0669817555264 L 629.2578125 302.02763410540865 L 632.7929687500001 302.9882864552909 L 636.328125 303.94893880517316 L 639.8632812500001 304.9095911550554 L 643.3984375000001 305.87024350493766 L 646.9335937500001 306.83089585481997 L 650.4687500000001 307.7915482047022 L 654.0039062500001 308.7522005545845 L 657.5390625000001 309.7128529044668 L 661.0742187500001 310.67350525434904 L 664.6093750000001 311.6341576042313 L 668.14453125 312.59480995411354 L 671.6796875000001 313.5554623039958 L 675.21484375 314.51611465387805 L 678.7500000000001 315.4767670037603 M 678.7500000000001 315.4767670037603 L 682.2851562500001 316.43741935364255 L 685.8203125000001 317.3980717035248 L 689.3554687500001 318.35872405340706 L 692.8906250000001 319.3193764032893 L 696.4257812500001 320.2800287531716 L 699.9609375000001 321.24068110305393 L 703.4960937500001 322.2013334529361 L 707.0312500000001 323.1619858028184 L 710.5664062500001 324.12263815270063 L 714.1015625000001 325.08329050258294 L 717.6367187500001 326.0439428524652 L 721.1718750000001 327.00459520234745 L 724.7070312500001 327.9652475522297 L 728.2421875000001 328.92589990211195 L 731.7773437500001 329.8865522519942 L 735.3125000000001 330.84720460187646 M 735.3125000000001 330.84720460187646 L 738.8476562500001 331.8078569517587 L 742.3828125000001 332.768509301641 L 745.9179687500001 333.72916165152327 L 749.4531250000001 334.6898140014055 M 749.4531250000001 334.6898140014055 L 752.9882812500001 335.6504663512878 M 752.9882812500001 335.6504663512878 L 755.8333303000003 336.4235872155814" stroke-opacity="0.8" stroke-linecap="round" stroke-linejoin="round" stroke-miterlimit="10" stroke-width="2.5"/><text fill="rgb(97,97,97)" stroke="none" font-family="geogebra-sans-serif, sans-serif" font-size="16px" font-style="normal" font-weight="normal" text-decoration="normal" x="152" y="172" text-anchor="start" dominant-baseline="alphabetic" fill-opacity="1">Recta de Carga Estatica</text><text fill="none" stroke="rgb(255,255,255)" font-family="geogebra-sans-serif, sans-serif" font-size="16px" font-style="normal" font-weight="normal" text-decoration="normal" x="152" y="172" text-anchor="start" dominant-baseline="alphabetic" stroke-opacity="1" stroke-linejoin="bevel" stroke-miterlimit="10" stroke-width="3">Recta de Carga Estatica</text><text fill="rgb(97,97,97)" stroke="none" font-family="geogebra-sans-serif, sans-serif" font-size="16px" font-style="normal" font-weight="normal" text-decoration="normal" x="152" y="172" text-anchor="start" dominant-baseline="alphabetic" fill-opacity="1">Recta de Carga Estatica</text></g></g></svg>