<svg version="1.1" xmlns="http://www.w3.org/2000/svg" xmlns:xlink="http://www.w3.org/1999/xlink" width="905" height="577"><defs><clipPath id="sFZpOCVoTxxT"><path fill="none" stroke="none" d=" M 0 0 L 905 0 L 905 577 L 0 577 L 0 0 Z"/></clipPath></defs><g transform="scale(1,1)" clip-path="url(#sFZpOCVoTxxT)"><g><rect fill="rgb(255,255,255)" stroke="none" x="0" y="0" width="905" height="577" fill-opacity="1"/><path fill="none" stroke="rgb(192,192,192)" paint-order="fill stroke markers" d=" M 27.5 0.5 L 27.5 577.5 M 27.5 0.5 L 27.5 577.5 M 88.5 0.5 L 88.5 577.5 M 149.5 0.5 L 149.5 577.5 M 209.5 0.5 L 209.5 577.5 M 270.5 0.5 L 270.5 577.5 M 331.5 0.5 L 331.5 577.5 M 391.5 0.5 L 391.5 577.5 M 452.5 0.5 L 452.5 577.5 M 513.5 0.5 L 513.5 577.5 M 573.5 0.5 L 573.5 577.5 M 634.5 0.5 L 634.5 577.5 M 695.5 0.5 L 695.5 577.5 M 816.5 0.5 L 816.5 577.5 M 877.5 0.5 L 877.5 577.5" stroke-opacity="1" stroke-linecap="round" stroke-linejoin="round" stroke-miterlimit="10"/><path fill="none" stroke="rgb(192,192,192)" paint-order="fill stroke markers" d=" M 3.5 0.5 L 3.5 577.5 M 15.5 0.5 L 15.5 577.5 M 39.5 0.5 L 39.5 577.5 M 52.5 0.5 L 52.5 577.5 M 64.5 0.5 L 64.5 577.5 M 76.5 0.5 L 76.5 577.5 M 100.5 0.5 L 100.5 577.5 M 112.5 0.5 L 112.5 577.5 M 124.5 0.5 L 124.5 577.5 M 137.5 0.5 L 137.5 577.5 M 161.5 0.5 L 161.5 577.5 M 173.5 0.5 L 173.5 577.5 M 185.5 0.5 L 185.5 577.5 M 197.5 0.5 L 197.5 577.5 M 221.5 0.5 L 221.5 577.5 M 234.5 0.5 L 234.5 577.5 M 246.5 0.5 L 246.5 577.5 M 258.5 0.5 L 258.5 577.5 M 282.5 0.5 L 282.5 577.5 M 294.5 0.5 L 294.5 577.5 M 306.5 0.5 L 306.5 577.5 M 319.5 0.5 L 319.5 577.5 M 343.5 0.5 L 343.5 577.5 M 355.5 0.5 L 355.5 577.5 M 367.5 0.5 L 367.5 577.5 M 379.5 0.5 L 379.5 577.5 M 403.5 0.5 L 403.5 577.5 M 416.5 0.5 L 416.5 577.5 M 428.5 0.5 L 428.5 577.5 M 440.5 0.5 L 440.5 577.5 M 464.5 0.5 L 464.5 577.5 M 476.5 0.5 L 476.5 577.5 M 488.5 0.5 L 488.5 577.5 M 501.5 0.5 L 501.5 577.5 M 525.5 0.5 L 525.5 577.5 M 537.5 0.5 L 537.5 577.5 M 549.5 0.5 L 549.5 577.5 M 561.5 0.5 L 561.5 577.5 M 585.5 0.5 L 585.5 577.5 M 598.5 0.5 L 598.5 577.5 M 610.5 0.5 L 610.5 577.5 M 622.5 0.5 L 622.5 577.5 M 646.5 0.5 L 646.5 577.5 M 658.5 0.5 L 658.5 577.5 M 670.5 0.5 L 670.5 577.5 M 683.5 0.5 L 683.5 577.5 M 707.5 0.5 L 707.5 577.5 M 719.5 0.5 L 719.5 577.5 M 731.5 0.5 L 731.5 577.5 M 743.5 0.5 L 743.5 577.5 M 767.5 0.5 L 767.5 577.5 M 780.5 0.5 L 780.5 577.5 M 792.5 0.5 L 792.5 577.5 M 804.5 0.5 L 804.5 577.5 M 828.5 0.5 L 828.5 577.5 M 840.5 0.5 L 840.5 577.5 M 852.5 0.5 L 852.5 577.5 M 865.5 0.5 L 865.5 577.5 M 889.5 0.5 L 889.5 577.5 M 901.5 0.5 L 901.5 577.5" stroke-opacity="0.23529411764705882" stroke-linecap="round" stroke-linejoin="round" stroke-miterlimit="10"/><path fill="none" stroke="rgb(192,192,192)" paint-order="fill stroke markers" d=" M 0.5 0.5 L 905.5 0.5 M 0.5 0.5 L 905.5 0.5 M 0.5 82.5 L 905.5 82.5 M 0.5 164.5 L 905.5 164.5 M 0.5 247.5 L 905.5 247.5 M 0.5 329.5 L 905.5 329.5 M 0.5 412.5 L 905.5 412.5 M 0.5 576.5 L 905.5 576.5" stroke-opacity="1" stroke-linecap="round" stroke-linejoin="round" stroke-miterlimit="10"/><path fill="none" stroke="rgb(192,192,192)" paint-order="fill stroke markers" d=" M 0.5 0.5 L 905.5 0.5 M 0.5 16.5 L 905.5 16.5 M 0.5 32.5 L 905.5 32.5 M 0.5 49.5 L 905.5 49.5 M 0.5 65.5 L 905.5 65.5 M 0.5 98.5 L 905.5 98.5 M 0.5 115.5 L 905.5 115.5 M 0.5 131.5 L 905.5 131.5 M 0.5 148.5 L 905.5 148.5 M 0.5 181.5 L 905.5 181.5 M 0.5 197.5 L 905.5 197.5 M 0.5 214.5 L 905.5 214.5 M 0.5 230.5 L 905.5 230.5 M 0.5 263.5 L 905.5 263.5 M 0.5 280.5 L 905.5 280.5 M 0.5 296.5 L 905.5 296.5 M 0.5 313.5 L 905.5 313.5 M 0.5 346.5 L 905.5 346.5 M 0.5 362.5 L 905.5 362.5 M 0.5 379.5 L 905.5 379.5 M 0.5 395.5 L 905.5 395.5 M 0.5 428.5 L 905.5 428.5 M 0.5 445.5 L 905.5 445.5 M 0.5 461.5 L 905.5 461.5 M 0.5 478.5 L 905.5 478.5 M 0.5 511.5 L 905.5 511.5 M 0.5 527.5 L 905.5 527.5 M 0.5 544.5 L 905.5 544.5 M 0.5 560.5 L 905.5 560.5" stroke-opacity="0.23529411764705882" stroke-linecap="round" stroke-linejoin="round" stroke-miterlimit="10"/><path fill="none" stroke="rgb(37,37,37)" paint-order="fill stroke markers" d=" M 755.5 2.5 L 755.5 577.5" stroke-opacity="1" stroke-miterlimit="10"/><path fill="none" stroke="rgb(37,37,37)" paint-order="fill stroke markers" d=" M 755.5 1.5 L 751.5 5.5" stroke-opacity="1" stroke-miterlimit="10"/><path fill="none" stroke="rgb(37,37,37)" paint-order="fill stroke markers" d=" M 755.5 1.5 L 759.5 5.5" stroke-opacity="1" stroke-miterlimit="10"/><text fill="rgb(37,37,37)" stroke="none" font-family="geogebra-sans-serif, sans-serif" font-size="16px" font-style="normal" font-weight="normal" text-decoration="normal" x="867" y="490" text-anchor="start" dominant-baseline="alphabetic" fill-opacity="1">Vgs</text><path fill="none" stroke="rgb(37,37,37)" paint-order="fill stroke markers" d=" M 0.5 494.5 L 903.5 494.5" stroke-opacity="1" stroke-miterlimit="10"/><path fill="none" stroke="rgb(37,37,37)" paint-order="fill stroke markers" d=" M 904.5 494.5 L 900.5 490.5" stroke-opacity="1" stroke-miterlimit="10"/><path fill="none" stroke="rgb(37,37,37)" paint-order="fill stroke markers" d=" M 904.5 494.5 L 900.5 498.5" stroke-opacity="1" stroke-miterlimit="10"/><text fill="rgb(37,37,37)" stroke="none" font-family="geogebra-sans-serif, sans-serif" font-size="12px" font-style="normal" font-weight="normal" text-decoration="normal" x="13" y="510" text-anchor="start" dominant-baseline="alphabetic" fill-opacity="1">–2.4V</text><text fill="none" stroke="rgb(255,255,255)" font-family="geogebra-sans-serif, sans-serif" font-size="12px" font-style="normal" font-weight="normal" text-decoration="normal" x="13" y="510" text-anchor="start" dominant-baseline="alphabetic" stroke-opacity="1" stroke-linejoin="bevel" stroke-miterlimit="10" stroke-width="3">–2.4V</text><text fill="rgb(37,37,37)" stroke="none" font-family="geogebra-sans-serif, sans-serif" font-size="12px" font-style="normal" font-weight="normal" text-decoration="normal" x="13" y="510" text-anchor="start" dominant-baseline="alphabetic" fill-opacity="1">–2.4V</text><text fill="rgb(37,37,37)" stroke="none" font-family="geogebra-sans-serif, sans-serif" font-size="12px" font-style="normal" font-weight="normal" text-decoration="normal" x="74" y="510" text-anchor="start" dominant-baseline="alphabetic" fill-opacity="1">–2.2V</text><text fill="none" stroke="rgb(255,255,255)" font-family="geogebra-sans-serif, sans-serif" font-size="12px" font-style="normal" font-weight="normal" text-decoration="normal" x="74" y="510" text-anchor="start" dominant-baseline="alphabetic" stroke-opacity="1" stroke-linejoin="bevel" stroke-miterlimit="10" stroke-width="3">–2.2V</text><text fill="rgb(37,37,37)" stroke="none" font-family="geogebra-sans-serif, sans-serif" font-size="12px" font-style="normal" font-weight="normal" text-decoration="normal" x="74" y="510" text-anchor="start" dominant-baseline="alphabetic" fill-opacity="1">–2.2V</text><text fill="rgb(37,37,37)" stroke="none" font-family="geogebra-sans-serif, sans-serif" font-size="12px" font-style="normal" font-weight="normal" text-decoration="normal" x="141" y="510" text-anchor="start" dominant-baseline="alphabetic" fill-opacity="1">–2V</text><text fill="none" stroke="rgb(255,255,255)" font-family="geogebra-sans-serif, sans-serif" font-size="12px" font-style="normal" font-weight="normal" text-decoration="normal" x="141" y="510" text-anchor="start" dominant-baseline="alphabetic" stroke-opacity="1" stroke-linejoin="bevel" stroke-miterlimit="10" stroke-width="3">–2V</text><text fill="rgb(37,37,37)" stroke="none" font-family="geogebra-sans-serif, sans-serif" font-size="12px" font-style="normal" font-weight="normal" text-decoration="normal" x="141" y="510" text-anchor="start" dominant-baseline="alphabetic" fill-opacity="1">–2V</text><text fill="rgb(37,37,37)" stroke="none" font-family="geogebra-sans-serif, sans-serif" font-size="12px" font-style="normal" font-weight="normal" text-decoration="normal" x="195" y="510" text-anchor="start" dominant-baseline="alphabetic" fill-opacity="1">–1.8V</text><text fill="none" stroke="rgb(255,255,255)" font-family="geogebra-sans-serif, sans-serif" font-size="12px" font-style="normal" font-weight="normal" text-decoration="normal" x="195" y="510" text-anchor="start" dominant-baseline="alphabetic" stroke-opacity="1" stroke-linejoin="bevel" stroke-miterlimit="10" stroke-width="3">–1.8V</text><text fill="rgb(37,37,37)" stroke="none" font-family="geogebra-sans-serif, sans-serif" font-size="12px" font-style="normal" font-weight="normal" text-decoration="normal" x="195" y="510" text-anchor="start" dominant-baseline="alphabetic" fill-opacity="1">–1.8V</text><text fill="rgb(37,37,37)" stroke="none" font-family="geogebra-sans-serif, sans-serif" font-size="12px" font-style="normal" font-weight="normal" text-decoration="normal" x="256" y="510" text-anchor="start" dominant-baseline="alphabetic" fill-opacity="1">–1.6V</text><text fill="none" stroke="rgb(255,255,255)" font-family="geogebra-sans-serif, sans-serif" font-size="12px" font-style="normal" font-weight="normal" text-decoration="normal" x="256" y="510" text-anchor="start" dominant-baseline="alphabetic" stroke-opacity="1" stroke-linejoin="bevel" stroke-miterlimit="10" stroke-width="3">–1.6V</text><text fill="rgb(37,37,37)" stroke="none" font-family="geogebra-sans-serif, sans-serif" font-size="12px" font-style="normal" font-weight="normal" text-decoration="normal" x="256" y="510" text-anchor="start" dominant-baseline="alphabetic" fill-opacity="1">–1.6V</text><text fill="rgb(37,37,37)" stroke="none" font-family="geogebra-sans-serif, sans-serif" font-size="12px" font-style="normal" font-weight="normal" text-decoration="normal" x="317" y="510" text-anchor="start" dominant-baseline="alphabetic" fill-opacity="1">–1.4V</text><text fill="none" stroke="rgb(255,255,255)" font-family="geogebra-sans-serif, sans-serif" font-size="12px" font-style="normal" font-weight="normal" text-decoration="normal" x="317" y="510" text-anchor="start" dominant-baseline="alphabetic" stroke-opacity="1" stroke-linejoin="bevel" stroke-miterlimit="10" stroke-width="3">–1.4V</text><text fill="rgb(37,37,37)" stroke="none" font-family="geogebra-sans-serif, sans-serif" font-size="12px" font-style="normal" font-weight="normal" text-decoration="normal" x="317" y="510" text-anchor="start" dominant-baseline="alphabetic" fill-opacity="1">–1.4V</text><text fill="rgb(37,37,37)" stroke="none" font-family="geogebra-sans-serif, sans-serif" font-size="12px" font-style="normal" font-weight="normal" text-decoration="normal" x="377" y="510" text-anchor="start" dominant-baseline="alphabetic" fill-opacity="1">–1.2V</text><text fill="none" stroke="rgb(255,255,255)" font-family="geogebra-sans-serif, sans-serif" font-size="12px" font-style="normal" font-weight="normal" text-decoration="normal" x="377" y="510" text-anchor="start" dominant-baseline="alphabetic" stroke-opacity="1" stroke-linejoin="bevel" stroke-miterlimit="10" stroke-width="3">–1.2V</text><text fill="rgb(37,37,37)" stroke="none" font-family="geogebra-sans-serif, sans-serif" font-size="12px" font-style="normal" font-weight="normal" text-decoration="normal" x="377" y="510" text-anchor="start" dominant-baseline="alphabetic" fill-opacity="1">–1.2V</text><text fill="rgb(37,37,37)" stroke="none" font-family="geogebra-sans-serif, sans-serif" font-size="12px" font-style="normal" font-weight="normal" text-decoration="normal" x="444" y="510" text-anchor="start" dominant-baseline="alphabetic" fill-opacity="1">–1V</text><text fill="none" stroke="rgb(255,255,255)" font-family="geogebra-sans-serif, sans-serif" font-size="12px" font-style="normal" font-weight="normal" text-decoration="normal" x="444" y="510" text-anchor="start" dominant-baseline="alphabetic" stroke-opacity="1" stroke-linejoin="bevel" stroke-miterlimit="10" stroke-width="3">–1V</text><text fill="rgb(37,37,37)" stroke="none" font-family="geogebra-sans-serif, sans-serif" font-size="12px" font-style="normal" font-weight="normal" text-decoration="normal" x="444" y="510" text-anchor="start" dominant-baseline="alphabetic" fill-opacity="1">–1V</text><text fill="rgb(37,37,37)" stroke="none" font-family="geogebra-sans-serif, sans-serif" font-size="12px" font-style="normal" font-weight="normal" text-decoration="normal" x="499" y="510" text-anchor="start" dominant-baseline="alphabetic" fill-opacity="1">–0.8V</text><text fill="none" stroke="rgb(255,255,255)" font-family="geogebra-sans-serif, sans-serif" font-size="12px" font-style="normal" font-weight="normal" text-decoration="normal" x="499" y="510" text-anchor="start" dominant-baseline="alphabetic" stroke-opacity="1" stroke-linejoin="bevel" stroke-miterlimit="10" stroke-width="3">–0.8V</text><text fill="rgb(37,37,37)" stroke="none" font-family="geogebra-sans-serif, sans-serif" font-size="12px" font-style="normal" font-weight="normal" text-decoration="normal" x="499" y="510" text-anchor="start" dominant-baseline="alphabetic" fill-opacity="1">–0.8V</text><text fill="rgb(37,37,37)" stroke="none" font-family="geogebra-sans-serif, sans-serif" font-size="12px" font-style="normal" font-weight="normal" text-decoration="normal" x="559" y="510" text-anchor="start" dominant-baseline="alphabetic" fill-opacity="1">–0.6V</text><text fill="none" stroke="rgb(255,255,255)" font-family="geogebra-sans-serif, sans-serif" font-size="12px" font-style="normal" font-weight="normal" text-decoration="normal" x="559" y="510" text-anchor="start" dominant-baseline="alphabetic" stroke-opacity="1" stroke-linejoin="bevel" stroke-miterlimit="10" stroke-width="3">–0.6V</text><text fill="rgb(37,37,37)" stroke="none" font-family="geogebra-sans-serif, sans-serif" font-size="12px" font-style="normal" font-weight="normal" text-decoration="normal" x="559" y="510" text-anchor="start" dominant-baseline="alphabetic" fill-opacity="1">–0.6V</text><text fill="rgb(37,37,37)" stroke="none" font-family="geogebra-sans-serif, sans-serif" font-size="12px" font-style="normal" font-weight="normal" text-decoration="normal" x="620" y="510" text-anchor="start" dominant-baseline="alphabetic" fill-opacity="1">–0.4V</text><text fill="none" stroke="rgb(255,255,255)" font-family="geogebra-sans-serif, sans-serif" font-size="12px" font-style="normal" font-weight="normal" text-decoration="normal" x="620" y="510" text-anchor="start" dominant-baseline="alphabetic" stroke-opacity="1" stroke-linejoin="bevel" stroke-miterlimit="10" stroke-width="3">–0.4V</text><text fill="rgb(37,37,37)" stroke="none" font-family="geogebra-sans-serif, sans-serif" font-size="12px" font-style="normal" font-weight="normal" text-decoration="normal" x="620" y="510" text-anchor="start" dominant-baseline="alphabetic" fill-opacity="1">–0.4V</text><text fill="rgb(37,37,37)" stroke="none" font-family="geogebra-sans-serif, sans-serif" font-size="12px" font-style="normal" font-weight="normal" text-decoration="normal" x="681" y="510" text-anchor="start" dominant-baseline="alphabetic" fill-opacity="1">–0.2V</text><text fill="none" stroke="rgb(255,255,255)" font-family="geogebra-sans-serif, sans-serif" font-size="12px" font-style="normal" font-weight="normal" text-decoration="normal" x="681" y="510" text-anchor="start" dominant-baseline="alphabetic" stroke-opacity="1" stroke-linejoin="bevel" stroke-miterlimit="10" stroke-width="3">–0.2V</text><text fill="rgb(37,37,37)" stroke="none" font-family="geogebra-sans-serif, sans-serif" font-size="12px" font-style="normal" font-weight="normal" text-decoration="normal" x="681" y="510" text-anchor="start" dominant-baseline="alphabetic" fill-opacity="1">–0.2V</text><text fill="rgb(37,37,37)" stroke="none" font-family="geogebra-sans-serif, sans-serif" font-size="12px" font-style="normal" font-weight="normal" text-decoration="normal" x="805" y="510" text-anchor="start" dominant-baseline="alphabetic" fill-opacity="1">0.2V</text><text fill="none" stroke="rgb(255,255,255)" font-family="geogebra-sans-serif, sans-serif" font-size="12px" font-style="normal" font-weight="normal" text-decoration="normal" x="805" y="510" text-anchor="start" dominant-baseline="alphabetic" stroke-opacity="1" stroke-linejoin="bevel" stroke-miterlimit="10" stroke-width="3">0.2V</text><text fill="rgb(37,37,37)" stroke="none" font-family="geogebra-sans-serif, sans-serif" font-size="12px" font-style="normal" font-weight="normal" text-decoration="normal" x="805" y="510" text-anchor="start" dominant-baseline="alphabetic" fill-opacity="1">0.2V</text><text fill="rgb(37,37,37)" stroke="none" font-family="geogebra-sans-serif, sans-serif" font-size="12px" font-style="normal" font-weight="normal" text-decoration="normal" x="866" y="510" text-anchor="start" dominant-baseline="alphabetic" fill-opacity="1">0.4V</text><text fill="none" stroke="rgb(255,255,255)" font-family="geogebra-sans-serif, sans-serif" font-size="12px" font-style="normal" font-weight="normal" text-decoration="normal" x="866" y="510" text-anchor="start" dominant-baseline="alphabetic" stroke-opacity="1" stroke-linejoin="bevel" stroke-miterlimit="10" stroke-width="3">0.4V</text><text fill="rgb(37,37,37)" stroke="none" font-family="geogebra-sans-serif, sans-serif" font-size="12px" font-style="normal" font-weight="normal" text-decoration="normal" x="866" y="510" text-anchor="start" dominant-baseline="alphabetic" fill-opacity="1">0.4V</text><text fill="rgb(37,37,37)" stroke="none" font-family="geogebra-sans-serif, sans-serif" font-size="16px" font-style="normal" font-weight="normal" text-decoration="normal" x="760" y="17" text-anchor="start" dominant-baseline="alphabetic" fill-opacity="1">Id</text><text fill="rgb(37,37,37)" stroke="none" font-family="geogebra-sans-serif, sans-serif" font-size="12px" font-style="normal" font-weight="normal" text-decoration="normal" x="710" y="417" text-anchor="start" dominant-baseline="alphabetic" fill-opacity="1">0.001A</text><text fill="none" stroke="rgb(255,255,255)" font-family="geogebra-sans-serif, sans-serif" font-size="12px" font-style="normal" font-weight="normal" text-decoration="normal" x="710" y="417" text-anchor="start" dominant-baseline="alphabetic" stroke-opacity="1" stroke-linejoin="bevel" stroke-miterlimit="10" stroke-width="3">0.001A</text><text fill="rgb(37,37,37)" stroke="none" font-family="geogebra-sans-serif, sans-serif" font-size="12px" font-style="normal" font-weight="normal" text-decoration="normal" x="710" y="417" text-anchor="start" dominant-baseline="alphabetic" fill-opacity="1">0.001A</text><text fill="rgb(37,37,37)" stroke="none" font-family="geogebra-sans-serif, sans-serif" font-size="12px" font-style="normal" font-weight="normal" text-decoration="normal" x="710" y="334" text-anchor="start" dominant-baseline="alphabetic" fill-opacity="1">0.002A</text><text fill="none" stroke="rgb(255,255,255)" font-family="geogebra-sans-serif, sans-serif" font-size="12px" font-style="normal" font-weight="normal" text-decoration="normal" x="710" y="334" text-anchor="start" dominant-baseline="alphabetic" stroke-opacity="1" stroke-linejoin="bevel" stroke-miterlimit="10" stroke-width="3">0.002A</text><text fill="rgb(37,37,37)" stroke="none" font-family="geogebra-sans-serif, sans-serif" font-size="12px" font-style="normal" font-weight="normal" text-decoration="normal" x="710" y="334" text-anchor="start" dominant-baseline="alphabetic" fill-opacity="1">0.002A</text><text fill="rgb(37,37,37)" stroke="none" font-family="geogebra-sans-serif, sans-serif" font-size="12px" font-style="normal" font-weight="normal" text-decoration="normal" x="710" y="252" text-anchor="start" dominant-baseline="alphabetic" fill-opacity="1">0.003A</text><text fill="none" stroke="rgb(255,255,255)" font-family="geogebra-sans-serif, sans-serif" font-size="12px" font-style="normal" font-weight="normal" text-decoration="normal" x="710" y="252" text-anchor="start" dominant-baseline="alphabetic" stroke-opacity="1" stroke-linejoin="bevel" stroke-miterlimit="10" stroke-width="3">0.003A</text><text fill="rgb(37,37,37)" stroke="none" font-family="geogebra-sans-serif, sans-serif" font-size="12px" font-style="normal" font-weight="normal" text-decoration="normal" x="710" y="252" text-anchor="start" dominant-baseline="alphabetic" fill-opacity="1">0.003A</text><text fill="rgb(37,37,37)" stroke="none" font-family="geogebra-sans-serif, sans-serif" font-size="12px" font-style="normal" font-weight="normal" text-decoration="normal" x="710" y="169" text-anchor="start" dominant-baseline="alphabetic" fill-opacity="1">0.004A</text><text fill="none" stroke="rgb(255,255,255)" font-family="geogebra-sans-serif, sans-serif" font-size="12px" font-style="normal" font-weight="normal" text-decoration="normal" x="710" y="169" text-anchor="start" dominant-baseline="alphabetic" stroke-opacity="1" stroke-linejoin="bevel" stroke-miterlimit="10" stroke-width="3">0.004A</text><text fill="rgb(37,37,37)" stroke="none" font-family="geogebra-sans-serif, sans-serif" font-size="12px" font-style="normal" font-weight="normal" text-decoration="normal" x="710" y="169" text-anchor="start" dominant-baseline="alphabetic" fill-opacity="1">0.004A</text><text fill="rgb(37,37,37)" stroke="none" font-family="geogebra-sans-serif, sans-serif" font-size="12px" font-style="normal" font-weight="normal" text-decoration="normal" x="710" y="87" text-anchor="start" dominant-baseline="alphabetic" fill-opacity="1">0.005A</text><text fill="none" stroke="rgb(255,255,255)" font-family="geogebra-sans-serif, sans-serif" font-size="12px" font-style="normal" font-weight="normal" text-decoration="normal" x="710" y="87" text-anchor="start" dominant-baseline="alphabetic" stroke-opacity="1" stroke-linejoin="bevel" stroke-miterlimit="10" stroke-width="3">0.005A</text><text fill="rgb(37,37,37)" stroke="none" font-family="geogebra-sans-serif, sans-serif" font-size="12px" font-style="normal" font-weight="normal" text-decoration="normal" x="710" y="87" text-anchor="start" dominant-baseline="alphabetic" fill-opacity="1">0.005A</text><text fill="rgb(37,37,37)" stroke="none" font-family="geogebra-sans-serif, sans-serif" font-size="12px" font-style="normal" font-weight="normal" text-decoration="normal" x="733" y="510" text-anchor="start" dominant-baseline="alphabetic" fill-opacity="1">0V</text><text fill="none" stroke="rgb(255,255,255)" font-family="geogebra-sans-serif, sans-serif" font-size="12px" font-style="normal" font-weight="normal" text-decoration="normal" x="733" y="510" text-anchor="start" dominant-baseline="alphabetic" stroke-opacity="1" stroke-linejoin="bevel" stroke-miterlimit="10" stroke-width="3">0V</text><text fill="rgb(37,37,37)" stroke="none" font-family="geogebra-sans-serif, sans-serif" font-size="12px" font-style="normal" font-weight="normal" text-decoration="normal" x="733" y="510" text-anchor="start" dominant-baseline="alphabetic" fill-opacity="1">0V</text><path fill="none" stroke="rgb(211,47,47)" paint-order="fill stroke markers" d=" M 149.16666363333354 494.57142857142856 L 152.01171875 494.56417723690953 M 152.01171875 494.56417723690953 L 155.546875 494.5349609684561 M 155.546875 494.5349609684561 L 159.08203125 494.4833531209339 L 162.6171875 494.4093536943429 L 166.15234375 494.3129626886831 L 169.6875 494.19418010395464 M 169.6875 494.19418010395464 L 173.22265625 494.05300594015733 L 176.7578125 493.88944019729126 L 180.29296875 493.70348287535637 L 183.828125 493.49513397435277 L 187.36328125 493.2643934942804 L 190.8984375 493.01126143513926 L 194.43359375 492.73573779692936 L 197.96875 492.43782257965063 L 201.50390625 492.1175157833032 L 205.0390625 491.7748174078869 L 208.57421875 491.40972745340196 L 212.109375 491.02224591984816 L 215.64453125 490.61237280722565 L 219.1796875 490.1801081155343 L 222.71484375 489.7254518447742 L 226.25 489.2484039949454 M 226.25 489.2484039949454 L 229.78515625 488.7489645660478 L 233.3203125000001 488.2271335580814 L 236.85546875 487.6829109710462 L 240.390625 487.1162968049423 L 243.92578125000006 486.5272910597696 L 247.46093750000006 485.91589373552813 L 250.99609375 485.2821048322179 L 254.53125 484.62592434983884 L 258.06640625000006 483.9473522883911 L 261.60156250000006 483.24638864787454 L 265.13671875 482.52303342828924 L 268.671875 481.7772866296351 L 272.20703125000006 481.0091482519123 L 275.74218750000006 480.2186182951206 L 279.27734375000006 479.4056967592602 L 282.8125 478.57038364433106 L 286.34765625000006 477.7126789503331 L 289.88281250000006 476.8325826772664 L 293.41796875 475.93009482513094 L 296.953125 475.0052153939267 L 300.48828125 474.05794438365365 L 304.02343750000006 473.08828179431185 L 307.55859375000006 472.0962276259013 L 311.09375000000006 471.0817818784219 L 314.62890625 470.04494455187387 L 318.16406250000006 468.98571564625695 L 321.69921875000006 467.9040951615713 L 325.234375 466.8000830978169 L 328.76953125 465.67367945499376 L 332.30468750000006 464.5248842331018 L 335.83984375000006 463.3536974321411 L 339.37500000000006 462.16011905211155 L 342.91015625 460.9441490930133 L 346.44531250000006 459.70578755484627 L 349.98046875000006 458.44503443761045 L 353.515625 457.1618897413059 L 357.05078125 455.85635346593256 L 360.5859375 454.52842561149043 L 364.12109375000006 453.17810617797954 L 367.65625000000006 451.8053951653999 L 371.19140625000006 450.41029257375146 L 374.7265625 448.99279840303427 L 378.26171875000006 447.5529126532483 L 381.796875 446.0906353243936 L 385.33203125 444.6059664164701 L 388.8671875 443.09890592947784 L 392.40234375000006 441.56945386341675 L 395.93750000000006 440.01761021828696 L 399.47265625000006 438.44337499408834 L 403.00781250000006 436.846748190821 L 406.54296875000006 435.2277298084849 L 410.07812500000006 433.58631984708 L 413.61328125 431.9225183066063 L 417.1484375 430.2363251870639 L 420.68359375 428.5277404884527 L 424.21875000000006 426.7967642107727 L 427.75390625000006 425.04339635402397 L 431.28906250000006 423.26763691820645 L 434.82421875 421.4694859033202 L 438.35937500000006 419.6489433093651 L 441.89453125 417.80600913634134 L 445.4296875 415.9406833842487 L 448.96484375 414.05296605308735 L 452.50000000000006 412.1428571428572 M 452.50000000000006 412.1428571428572 L 456.03515625000006 410.2103566535583 L 459.57031250000006 408.2554645851906 L 463.10546875000006 406.27818093775414 L 466.64062500000006 404.27850571124895 L 470.17578125000006 402.25643890567494 L 473.71093750000006 400.2119805210323 L 477.24609375000006 398.1451305573207 L 480.78125 396.0558890145404 L 484.31640625000006 393.94425589269133 L 487.8515625 391.8102311917735 L 491.38671875000006 389.65381491178687 L 494.921875 387.47500705273154 L 498.45703125000006 385.2738076146074 L 501.9921875 383.05021659741453 L 505.52734375 380.8042340011528 L 509.0625 378.53585982582234 L 512.59765625 376.24509407142307 L 516.1328125 373.9319367379551 L 519.66796875 371.59638782541833 L 523.203125 369.2384473338128 L 526.73828125 366.8581152631385 L 530.2734375 364.4553916133954 L 533.80859375 362.0302763845836 L 537.34375 359.58276957670296 L 540.87890625 357.1128711897536 L 544.4140625 354.6205812237354 L 547.94921875 352.1058996786485 L 551.484375 349.56882655449283 L 555.01953125 347.00936185126835 L 558.5546875 344.4275055689751 L 562.08984375 341.82325770761315 L 565.625 339.1966182671823 L 569.16015625 336.5475872476828 L 572.6953125 333.87616464911446 L 576.23046875 331.1823504714773 L 579.765625 328.46614471477153 L 583.30078125 325.72754737899686 L 586.8359375 322.9665584641535 L 590.37109375 320.18317797024133 L 593.90625 317.37740589726036 L 597.44140625 314.54924224521073 L 600.9765625 311.69868701409223 L 604.51171875 308.82574020390496 L 608.046875 305.9304018146489 L 611.58203125 303.01267184632417 L 615.1171875 300.0725502989306 L 618.65234375 297.1100371724683 L 622.1875 294.1251324669372 L 625.72265625 291.1178361823373 L 629.2578125 288.0881483186687 L 632.79296875 285.0360688759313 L 636.328125 281.9615978541251 L 639.86328125 278.86473525325016 L 643.3984375 275.74548107330645 L 646.93359375 272.603835314294 L 650.46875 269.43979797621273 L 654.00390625 266.25336905906266 L 657.5390625 263.04454856284383 L 661.07421875 259.8133364875563 L 664.609375 256.5597328331999 L 668.14453125 253.28373759977487 L 671.6796875 249.985350787281 L 675.21484375 246.66457239571838 L 678.75 243.32140242508692 M 678.75 243.32140242508692 L 682.28515625 239.95584087538674 L 685.8203125 236.56788774661777 L 689.35546875 233.15754303878003 L 692.890625 229.72480675187347 L 696.42578125 226.26967888589832 L 699.9609375 222.79215944085422 L 703.49609375 219.29224841674136 L 707.03125 215.7699458135598 L 710.56640625 212.2252516313095 L 714.1015625 208.6581658699904 L 717.63671875 205.06868852960247 L 721.171875 201.45681961014583 L 724.70703125 197.82255911162036 L 728.2421875 194.16590703402625 L 731.77734375 190.4868633773632 L 735.3125 186.78542814163148 M 735.3125 186.78542814163148 L 738.84765625 183.061601326831 L 742.3828125 179.3153829329617 L 745.91796875 175.54677296002365 L 749.453125 171.7557714080168 M 749.453125 171.7557714080168 L 752.98828125 167.9423782769412 M 752.98828125 167.9423782769412 L 755.8333303000003 164.85714615428572" stroke-opacity="0.8" stroke-linecap="round" stroke-linejoin="round" stroke-miterlimit="10" stroke-width="2.5"/><path fill="none" stroke="rgb(0,0,0)" paint-order="fill stroke markers" d=" M 149.16666363333354 412.1428571428571 L 152.01171875 412.1428571428571 M 152.01171875 412.1428571428571 L 155.546875 412.1428571428571 M 155.546875 412.1428571428571 L 159.08203125 412.1428571428571 L 162.6171875 412.1428571428571 L 166.15234375 412.1428571428571 L 169.6875 412.1428571428571 M 169.6875 412.1428571428571 L 173.22265625 412.1428571428571 L 176.7578125 412.1428571428571 L 180.29296875 412.1428571428571 L 183.828125 412.1428571428571 L 187.36328125 412.1428571428571 L 190.8984375 412.1428571428571 L 194.43359375 412.1428571428571 L 197.96875 412.1428571428571 L 201.50390625 412.1428571428571 L 205.0390625 412.1428571428571 L 208.57421875 412.1428571428571 L 212.109375 412.1428571428571 L 215.64453125 412.1428571428571 L 219.1796875 412.1428571428571 L 222.71484375 412.1428571428571 L 226.25 412.1428571428571 M 226.25 412.1428571428571 L 229.78515625 412.1428571428571 L 233.3203125000001 412.1428571428571 L 236.85546875 412.1428571428571 L 240.390625 412.1428571428571 L 243.92578125000006 412.1428571428571 L 247.46093750000006 412.1428571428571 L 250.99609375 412.1428571428571 L 254.53125 412.1428571428571 L 258.06640625000006 412.1428571428571 L 261.60156250000006 412.1428571428571 L 265.13671875 412.1428571428571 L 268.671875 412.1428571428571 L 272.20703125000006 412.1428571428571 L 275.74218750000006 412.1428571428571 L 279.27734375000006 412.1428571428571 L 282.8125 412.1428571428571 L 286.34765625000006 412.1428571428571 L 289.88281250000006 412.1428571428571 L 293.41796875 412.1428571428571 L 296.953125 412.1428571428571 L 300.48828125 412.1428571428571 L 304.02343750000006 412.1428571428571 L 307.55859375000006 412.1428571428571 L 311.09375000000006 412.1428571428571 L 314.62890625 412.1428571428571 L 318.16406250000006 412.1428571428571 L 321.69921875000006 412.1428571428571 L 325.234375 412.1428571428571 L 328.76953125 412.1428571428571 L 332.30468750000006 412.1428571428571 L 335.83984375000006 412.1428571428571 L 339.37500000000006 412.1428571428571 L 342.91015625 412.1428571428571 L 346.44531250000006 412.1428571428571 L 349.98046875000006 412.1428571428571 L 353.515625 412.1428571428571 L 357.05078125 412.1428571428571 L 360.5859375 412.1428571428571 L 364.12109375000006 412.1428571428571 L 367.65625000000006 412.1428571428571 L 371.19140625000006 412.1428571428571 L 374.7265625 412.1428571428571 L 378.26171875000006 412.1428571428571 L 381.796875 412.1428571428571 L 385.33203125 412.1428571428571 L 388.8671875 412.1428571428571 L 392.40234375000006 412.1428571428571 L 395.93750000000006 412.1428571428571 L 399.47265625000006 412.1428571428571 L 403.00781250000006 412.1428571428571 L 406.54296875000006 412.1428571428571 L 410.07812500000006 412.1428571428571 L 413.61328125 412.1428571428571 L 417.1484375 412.1428571428571 L 420.68359375 412.1428571428571 L 424.21875000000006 412.1428571428571 L 427.75390625000006 412.1428571428571 L 431.28906250000006 412.1428571428571 L 434.82421875 412.1428571428571 L 438.35937500000006 412.1428571428571 L 441.89453125 412.1428571428571 L 445.4296875 412.1428571428571 L 448.96484375 412.1428571428571 L 452.50000000000006 412.1428571428571 M 452.50000000000006 412.1428571428571 L 456.03515625000006 412.1428571428571 L 459.57031250000006 412.1428571428571 L 463.10546875000006 412.1428571428571 L 466.64062500000006 412.1428571428571 L 470.17578125000006 412.1428571428571 L 473.71093750000006 412.1428571428571 L 477.24609375000006 412.1428571428571 L 480.78125 412.1428571428571 L 484.31640625000006 412.1428571428571 L 487.8515625 412.1428571428571 L 491.38671875000006 412.1428571428571 L 494.921875 412.1428571428571 L 498.45703125000006 412.1428571428571 L 501.9921875 412.1428571428571 L 505.52734375 412.1428571428571 L 509.0625 412.1428571428571 L 512.59765625 412.1428571428571 L 516.1328125 412.1428571428571 L 519.66796875 412.1428571428571 L 523.203125 412.1428571428571 L 526.73828125 412.1428571428571 L 530.2734375 412.1428571428571 L 533.80859375 412.1428571428571 L 537.34375 412.1428571428571 L 540.87890625 412.1428571428571 L 544.4140625 412.1428571428571 L 547.94921875 412.1428571428571 L 551.484375 412.1428571428571 L 555.01953125 412.1428571428571 L 558.5546875 412.1428571428571 L 562.08984375 412.1428571428571 L 565.625 412.1428571428571 L 569.16015625 412.1428571428571 L 572.6953125 412.1428571428571 L 576.23046875 412.1428571428571 L 579.765625 412.1428571428571 L 583.30078125 412.1428571428571 L 586.8359375 412.1428571428571 L 590.37109375 412.1428571428571 L 593.90625 412.1428571428571 L 597.44140625 412.1428571428571 L 600.9765625 412.1428571428571 L 604.51171875 412.1428571428571 L 608.046875 412.1428571428571 L 611.58203125 412.1428571428571 L 615.1171875 412.1428571428571 L 618.65234375 412.1428571428571 L 622.1875 412.1428571428571 L 625.72265625 412.1428571428571 L 629.2578125 412.1428571428571 L 632.79296875 412.1428571428571 L 636.328125 412.1428571428571 L 639.86328125 412.1428571428571 L 643.3984375 412.1428571428571 L 646.93359375 412.1428571428571 L 650.46875 412.1428571428571 L 654.00390625 412.1428571428571 L 657.5390625 412.1428571428571 L 661.07421875 412.1428571428571 L 664.609375 412.1428571428571 L 668.14453125 412.1428571428571 L 671.6796875 412.1428571428571 L 675.21484375 412.1428571428571 L 678.75 412.1428571428571 M 678.75 412.1428571428571 L 682.28515625 412.1428571428571 L 685.8203125 412.1428571428571 L 689.35546875 412.1428571428571 L 692.890625 412.1428571428571 L 696.42578125 412.1428571428571 L 699.9609375 412.1428571428571 L 703.49609375 412.1428571428571 L 707.03125 412.1428571428571 L 710.56640625 412.1428571428571 L 714.1015625 412.1428571428571 L 717.63671875 412.1428571428571 L 721.171875 412.1428571428571 L 724.70703125 412.1428571428571 L 728.2421875 412.1428571428571 L 731.77734375 412.1428571428571 L 735.3125 412.1428571428571 M 735.3125 412.1428571428571 L 738.84765625 412.1428571428571 L 742.3828125 412.1428571428571 L 745.91796875 412.1428571428571 L 749.453125 412.1428571428571 M 749.453125 412.1428571428571 L 752.98828125 412.1428571428571 M 752.98828125 412.1428571428571 L 755.8333303000003 412.1428571428571" stroke-opacity="1" stroke-linecap="round" stroke-linejoin="round" stroke-miterlimit="10"/><text fill="rgb(0,0,0)" stroke="none" font-family="geogebra-sans-serif, sans-serif" font-size="16px" font-style="normal" font-weight="normal" text-decoration="normal" x="152" y="412" text-anchor="start" dominant-baseline="alphabetic" fill-opacity="1">Recta de Carga Estática JFET 2</text><text fill="none" stroke="rgb(255,255,255)" font-family="geogebra-sans-serif, sans-serif" font-size="16px" font-style="normal" font-weight="normal" text-decoration="normal" x="152" y="412" text-anchor="start" dominant-baseline="alphabetic" stroke-opacity="1" stroke-linejoin="bevel" stroke-miterlimit="10" stroke-width="3">Recta de Carga Estática JFET 2</text><text fill="rgb(0,0,0)" stroke="none" font-family="geogebra-sans-serif, sans-serif" font-size="16px" font-style="normal" font-weight="normal" text-decoration="normal" x="152" y="412" text-anchor="start" dominant-baseline="alphabetic" fill-opacity="1">Recta de Carga Estática JFET 2</text><path fill="none" stroke="rgb(0,0,0)" paint-order="fill stroke markers" d=" M 149.16666363333354 164.8571428571429 L 152.01171875 164.8571428571429 M 152.01171875 164.8571428571429 L 155.546875 164.8571428571429 M 155.546875 164.8571428571429 L 159.08203125 164.8571428571429 L 162.6171875 164.8571428571429 L 166.15234375 164.8571428571429 L 169.6875 164.8571428571429 M 169.6875 164.8571428571429 L 173.22265625 164.8571428571429 L 176.7578125 164.8571428571429 L 180.29296875 164.8571428571429 L 183.828125 164.8571428571429 L 187.36328125 164.8571428571429 L 190.8984375 164.8571428571429 L 194.43359375 164.8571428571429 L 197.96875 164.8571428571429 L 201.50390625 164.8571428571429 L 205.0390625 164.8571428571429 L 208.57421875 164.8571428571429 L 212.109375 164.8571428571429 L 215.64453125 164.8571428571429 L 219.1796875 164.8571428571429 L 222.71484375 164.8571428571429 L 226.25 164.8571428571429 M 226.25 164.8571428571429 L 229.78515625 164.8571428571429 L 233.3203125000001 164.8571428571429 L 236.85546875 164.8571428571429 L 240.390625 164.8571428571429 L 243.92578125000006 164.8571428571429 L 247.46093750000006 164.8571428571429 L 250.99609375 164.8571428571429 L 254.53125 164.8571428571429 L 258.06640625000006 164.8571428571429 L 261.60156250000006 164.8571428571429 L 265.13671875 164.8571428571429 L 268.671875 164.8571428571429 L 272.20703125000006 164.8571428571429 L 275.74218750000006 164.8571428571429 L 279.27734375000006 164.8571428571429 L 282.8125 164.8571428571429 L 286.34765625000006 164.8571428571429 L 289.88281250000006 164.8571428571429 L 293.41796875 164.8571428571429 L 296.953125 164.8571428571429 L 300.48828125 164.8571428571429 L 304.02343750000006 164.8571428571429 L 307.55859375000006 164.8571428571429 L 311.09375000000006 164.8571428571429 L 314.62890625 164.8571428571429 L 318.16406250000006 164.8571428571429 L 321.69921875000006 164.8571428571429 L 325.234375 164.8571428571429 L 328.76953125 164.8571428571429 L 332.30468750000006 164.8571428571429 L 335.83984375000006 164.8571428571429 L 339.37500000000006 164.8571428571429 L 342.91015625 164.8571428571429 L 346.44531250000006 164.8571428571429 L 349.98046875000006 164.8571428571429 L 353.515625 164.8571428571429 L 357.05078125 164.8571428571429 L 360.5859375 164.8571428571429 L 364.12109375000006 164.8571428571429 L 367.65625000000006 164.8571428571429 L 371.19140625000006 164.8571428571429 L 374.7265625 164.8571428571429 L 378.26171875000006 164.8571428571429 L 381.796875 164.8571428571429 L 385.33203125 164.8571428571429 L 388.8671875 164.8571428571429 L 392.40234375000006 164.8571428571429 L 395.93750000000006 164.8571428571429 L 399.47265625000006 164.8571428571429 L 403.00781250000006 164.8571428571429 L 406.54296875000006 164.8571428571429 L 410.07812500000006 164.8571428571429 L 413.61328125 164.8571428571429 L 417.1484375 164.8571428571429 L 420.68359375 164.8571428571429 L 424.21875000000006 164.8571428571429 L 427.75390625000006 164.8571428571429 L 431.28906250000006 164.8571428571429 L 434.82421875 164.8571428571429 L 438.35937500000006 164.8571428571429 L 441.89453125 164.8571428571429 L 445.4296875 164.8571428571429 L 448.96484375 164.8571428571429 L 452.50000000000006 164.8571428571429 M 452.50000000000006 164.8571428571429 L 456.03515625000006 164.8571428571429 L 459.57031250000006 164.8571428571429 L 463.10546875000006 164.8571428571429 L 466.64062500000006 164.8571428571429 L 470.17578125000006 164.8571428571429 L 473.71093750000006 164.8571428571429 L 477.24609375000006 164.8571428571429 L 480.78125 164.8571428571429 L 484.31640625000006 164.8571428571429 L 487.8515625 164.8571428571429 L 491.38671875000006 164.8571428571429 L 494.921875 164.8571428571429 L 498.45703125000006 164.8571428571429 L 501.9921875 164.8571428571429 L 505.52734375 164.8571428571429 L 509.0625 164.8571428571429 L 512.59765625 164.8571428571429 L 516.1328125 164.8571428571429 L 519.66796875 164.8571428571429 L 523.203125 164.8571428571429 L 526.73828125 164.8571428571429 L 530.2734375 164.8571428571429 L 533.80859375 164.8571428571429 L 537.34375 164.8571428571429 L 540.87890625 164.8571428571429 L 544.4140625 164.8571428571429 L 547.94921875 164.8571428571429 L 551.484375 164.8571428571429 L 555.01953125 164.8571428571429 L 558.5546875 164.8571428571429 L 562.08984375 164.8571428571429 L 565.625 164.8571428571429 L 569.16015625 164.8571428571429 L 572.6953125 164.8571428571429 L 576.23046875 164.8571428571429 L 579.765625 164.8571428571429 L 583.30078125 164.8571428571429 L 586.8359375 164.8571428571429 L 590.37109375 164.8571428571429 L 593.90625 164.8571428571429 L 597.44140625 164.8571428571429 L 600.9765625 164.8571428571429 L 604.51171875 164.8571428571429 L 608.046875 164.8571428571429 L 611.58203125 164.8571428571429 L 615.1171875 164.8571428571429 L 618.65234375 164.8571428571429 L 622.1875 164.8571428571429 L 625.72265625 164.8571428571429 L 629.2578125 164.8571428571429 L 632.79296875 164.8571428571429 L 636.328125 164.8571428571429 L 639.86328125 164.8571428571429 L 643.3984375 164.8571428571429 L 646.93359375 164.8571428571429 L 650.46875 164.8571428571429 L 654.00390625 164.8571428571429 L 657.5390625 164.8571428571429 L 661.07421875 164.8571428571429 L 664.609375 164.8571428571429 L 668.14453125 164.8571428571429 L 671.6796875 164.8571428571429 L 675.21484375 164.8571428571429 L 678.75 164.8571428571429 M 678.75 164.8571428571429 L 682.28515625 164.8571428571429 L 685.8203125 164.8571428571429 L 689.35546875 164.8571428571429 L 692.890625 164.8571428571429 L 696.42578125 164.8571428571429 L 699.9609375 164.8571428571429 L 703.49609375 164.8571428571429 L 707.03125 164.8571428571429 L 710.56640625 164.8571428571429 L 714.1015625 164.8571428571429 L 717.63671875 164.8571428571429 L 721.171875 164.8571428571429 L 724.70703125 164.8571428571429 L 728.2421875 164.8571428571429 L 731.77734375 164.8571428571429 L 735.3125 164.8571428571429 M 735.3125 164.8571428571429 L 738.84765625 164.8571428571429 L 742.3828125 164.8571428571429 L 745.91796875 164.8571428571429 L 749.453125 164.8571428571429 M 749.453125 164.8571428571429 L 752.98828125 164.8571428571429 M 752.98828125 164.8571428571429 L 755.8333303000003 164.8571428571429" stroke-opacity="1" stroke-linecap="round" stroke-linejoin="round" stroke-miterlimit="10"/><text fill="rgb(0,0,0)" stroke="none" font-family="geogebra-sans-serif, sans-serif" font-size="16px" font-style="normal" font-weight="normal" text-decoration="normal" x="152" y="164" text-anchor="start" dominant-baseline="alphabetic" fill-opacity="1">Recta de Carga Estática JFET 1</text><text fill="none" stroke="rgb(255,255,255)" font-family="geogebra-sans-serif, sans-serif" font-size="16px" font-style="normal" font-weight="normal" text-decoration="normal" x="152" y="164" text-anchor="start" dominant-baseline="alphabetic" stroke-opacity="1" stroke-linejoin="bevel" stroke-miterlimit="10" stroke-width="3">Recta de Carga Estática JFET 1</text><text fill="rgb(0,0,0)" stroke="none" font-family="geogebra-sans-serif, sans-serif" font-size="16px" font-style="normal" font-weight="normal" text-decoration="normal" x="152" y="164" text-anchor="start" dominant-baseline="alphabetic" fill-opacity="1">Recta de Carga Estática JFET 1</text></g></g></svg>