<?xml version="1.0" encoding="UTF-8" standalone="no"?>
<svg
   version="1.1"
   width="27.424128mm"
   height="56.7229mm"
   viewBox="0 0 27.424128 56.7229"
   id="svg341"
   xmlns="http://www.w3.org/2000/svg"
   xmlns:svg="http://www.w3.org/2000/svg">
  <defs
     id="defs341" />
  <title
     id="title1">SVG Image created as masacre3.svg date 2024/11/30 11:11:14 </title>
  <desc
     id="desc1">Image generated by Eeschema-SVG </desc>
  <g
     style="fill:#000000;fill-opacity:1;stroke:#000000;stroke-linecap:round;stroke-linejoin:round;stroke-opacity:1"
     id="g4"
     transform="translate(-83.0532,-64.0033)">
    <path
       style="fill:none;stroke:#000000;stroke-width:0.1524;stroke-linecap:round;stroke-linejoin:round;stroke-opacity:1"
       d="m 88.265,120.015 h 1.27"
       id="path1" />
    <path
       style="fill:none;stroke:#000000;stroke-width:0.1524;stroke-linecap:round;stroke-linejoin:round;stroke-opacity:1"
       d="m 88.773,120.65 h 0.254"
       id="path2" />
    <path
       style="fill:none;stroke:#000000;stroke-width:0.1524;stroke-linecap:round;stroke-linejoin:round;stroke-opacity:1"
       d="m 88.9,119.38 v -1.27"
       id="path3" />
    <path
       style="fill:none;stroke:#000000;stroke-width:0.1524;stroke-linecap:round;stroke-linejoin:round;stroke-opacity:1"
       d="M 90.17,119.38 H 87.63"
       id="path4" />
  </g>
  <g
     style="fill:none;stroke:#000000;stroke-width:0.1524;stroke-linecap:round;stroke-linejoin:round;stroke-opacity:1"
     id="g7"
     transform="translate(-83.0532,-64.0033)">
    <path
       d="m 88.9,118.11 v 0"
       id="path5" />
    <path
       style="fill:none;stroke:#000000;stroke-width:0.254;stroke-linecap:round;stroke-linejoin:round;stroke-opacity:1"
       d="M 85.09,101.854 V 98.298"
       id="path6" />
    <path
       style="fill:#000000;fill-opacity:1;fill-rule:evenodd;stroke:#000000;stroke-width:0.1524;stroke-linecap:round;stroke-linejoin:round;stroke-opacity:1"
       d="m 85.09,102.362 -0.508,-1.27 h 1.016 z"
       id="path7" />
  </g>
  <g
     style="fill:none;stroke:#000000;stroke-width:0.1524;stroke-linecap:round;stroke-linejoin:round;stroke-opacity:1"
     id="g35"
     transform="translate(-83.0532,-64.0033)">
    <g
       transform="rotate(-90,83.8199,100.584)"
       id="g8">
      <text
         x="83.819901"
         y="101.219"
         textLength="5.4646001"
         font-size="1.6933px"
         lengthAdjust="spacingAndGlyphs"
         text-anchor="middle"
         opacity="0"
         stroke-opacity="0"
         id="text7">R1-2</text>
    </g>
    <g
       class="stroked-text"
       id="g34">
      <desc
         id="desc8">R1-2</desc>
      <path
         d="m 84.3994,102.1866 -0.6047,0.4233"
         id="path8" />
      <path
         d="m 84.3994,102.9123 h -1.27"
         id="path9" />
      <path
         d="m 83.1294,102.9123 v -0.4838"
         id="path10" />
      <path
         d="m 83.1294,102.4285 0.0605,-0.121"
         id="path11" />
      <path
         d="m 83.1899,102.3075 0.0605,-0.0605"
         id="path12" />
      <path
         d="m 83.2504,102.247 0.1209,-0.0604"
         id="path13" />
      <path
         d="m 83.3713,102.1866 h 0.1815"
         id="path14" />
      <path
         d="m 83.5528,102.1866 0.1209,0.0604"
         id="path15" />
      <path
         d="m 83.6737,102.247 0.0605,0.0605"
         id="path16" />
      <path
         d="m 83.7342,102.3075 0.0605,0.121"
         id="path17" />
      <path
         d="m 83.7947,102.4285 v 0.4838"
         id="path18" />
      <path
         d="m 84.3994,100.977 v 0.7257"
         id="path19" />
      <path
         d="m 84.3994,101.3399 h -1.27"
         id="path20" />
      <path
         d="m 83.1294,101.3399 0.1815,0.1209"
         id="path21" />
      <path
         d="m 83.3109,101.4608 0.1209,0.121"
         id="path22" />
      <path
         d="m 83.4318,101.5818 0.0605,0.1209"
         id="path23" />
      <path
         d="M 83.9156,100.4328 V 99.4652"
         id="path24" />
      <path
         d="M 83.2504,98.9208 83.1899,98.8604"
         id="path25" />
      <path
         d="m 83.1899,98.8604 -0.0605,-0.121"
         id="path26" />
      <path
         d="M 83.1294,98.7394 V 98.437"
         id="path27" />
      <path
         d="m 83.1294,98.437 0.0605,-0.1209"
         id="path28" />
      <path
         d="m 83.1899,98.3161 0.0605,-0.0605"
         id="path29" />
      <path
         d="m 83.2504,98.2556 0.1209,-0.0605"
         id="path30" />
      <path
         d="m 83.3713,98.1951 h 0.121"
         id="path31" />
      <path
         d="m 83.4923,98.1951 0.1814,0.0605"
         id="path32" />
      <path
         d="m 83.6737,98.2556 0.7257,0.7257"
         id="path33" />
      <path
         d="M 84.3994,98.9813 V 98.1951"
         id="path34" />
    </g>
  </g>
  <g
     style="fill:none;stroke:#000000;stroke-width:0.254;stroke-linecap:round;stroke-linejoin:round;stroke-opacity:1"
     id="g36"
     transform="translate(-83.0532,-64.0033)">
    <rect
       x="87.884003"
       y="109.22"
       width="2.0320001"
       height="5.0799999"
       rx="0.000000"
       id="rect35" />
  </g>
  <g
     style="fill:none;stroke:#000000;stroke-width:0.1524;stroke-linecap:round;stroke-linejoin:round;stroke-opacity:1"
     id="g101"
     transform="translate(-83.0532,-64.0033)">
    <path
       d="m 88.9,109.22 v -1.27"
       id="path36" />
    <path
       d="m 88.9,114.3 v 1.27"
       id="path37" />
    <text
       x="92.790901"
       y="111.1249"
       textLength="2.6826999"
       font-size="1.6933px"
       lengthAdjust="spacingAndGlyphs"
       text-anchor="middle"
       opacity="0"
       stroke-opacity="0"
       id="text37">R3</text>
    <g
       class="stroked-text"
       id="g61">
      <desc
         id="desc37">R3</desc>
      <path
         d="m 92.5792,111.0694 -0.4233,-0.6047"
         id="path38" />
      <path
         d="m 91.8535,111.0694 v -1.27"
         id="path39" />
      <path
         d="m 91.8535,109.7994 h 0.4838"
         id="path40" />
      <path
         d="m 92.3373,109.7994 0.121,0.0605"
         id="path41" />
      <path
         d="m 92.4583,109.8599 0.0605,0.0605"
         id="path42" />
      <path
         d="m 92.5188,109.9204 0.0604,0.1209"
         id="path43" />
      <path
         d="m 92.5792,110.0413 v 0.1815"
         id="path44" />
      <path
         d="m 92.5792,110.2228 -0.0604,0.1209"
         id="path45" />
      <path
         d="m 92.5188,110.3437 -0.0605,0.0605"
         id="path46" />
      <path
         d="m 92.4583,110.4042 -0.121,0.0605"
         id="path47" />
      <path
         d="M 92.3373,110.4647 H 91.8535"
         id="path48" />
      <path
         d="m 93.0026,109.7994 h 0.7862"
         id="path49" />
      <path
         d="m 93.7888,109.7994 -0.4234,0.4838"
         id="path50" />
      <path
         d="m 93.3654,110.2832 h 0.1815"
         id="path51" />
      <path
         d="m 93.5469,110.2832 0.1209,0.0605"
         id="path52" />
      <path
         d="m 93.6678,110.3437 0.0605,0.0605"
         id="path53" />
      <path
         d="m 93.7283,110.4042 0.0605,0.1209"
         id="path54" />
      <path
         d="m 93.7888,110.5251 v 0.3024"
         id="path55" />
      <path
         d="m 93.7888,110.8275 -0.0605,0.121"
         id="path56" />
      <path
         d="m 93.7283,110.9485 -0.0605,0.0605"
         id="path57" />
      <path
         d="m 93.6678,111.009 -0.1209,0.0604"
         id="path58" />
      <path
         d="M 93.5469,111.0694 H 93.184"
         id="path59" />
      <path
         d="M 93.184,111.0694 93.0631,111.009"
         id="path60" />
      <path
         d="m 93.0631,111.009 -0.0605,-0.0605"
         id="path61" />
    </g>
    <text
       x="93.879501"
       y="113.6649"
       textLength="4.8597999"
       font-size="1.6933px"
       lengthAdjust="spacingAndGlyphs"
       text-anchor="middle"
       opacity="0"
       stroke-opacity="0"
       id="text61">120k</text>
    <g
       class="stroked-text"
       id="g99">
      <desc
         id="desc61">120k</desc>
      <path
         d="M 92.5188,113.6094 H 91.7931"
         id="path62" />
      <path
         d="m 92.1559,113.6094 v -1.27"
         id="path63" />
      <path
         d="m 92.1559,112.3394 -0.1209,0.1815"
         id="path64" />
      <path
         d="m 92.035,112.5209 -0.121,0.1209"
         id="path65" />
      <path
         d="m 91.914,112.6418 -0.1209,0.0605"
         id="path66" />
      <path
         d="m 93.0026,112.4604 0.0604,-0.0605"
         id="path67" />
      <path
         d="m 93.063,112.3999 0.121,-0.0605"
         id="path68" />
      <path
         d="m 93.184,112.3394 h 0.3024"
         id="path69" />
      <path
         d="m 93.4864,112.3394 0.1209,0.0605"
         id="path70" />
      <path
         d="m 93.6073,112.3999 0.0605,0.0605"
         id="path71" />
      <path
         d="m 93.6678,112.4604 0.0605,0.1209"
         id="path72" />
      <path
         d="m 93.7283,112.5813 v 0.121"
         id="path73" />
      <path
         d="m 93.7283,112.7023 -0.0605,0.1814"
         id="path74" />
      <path
         d="m 93.6678,112.8837 -0.7257,0.7257"
         id="path75" />
      <path
         d="m 92.9421,113.6094 h 0.7862"
         id="path76" />
      <path
         d="m 94.5144,112.3394 h 0.121"
         id="path77" />
      <path
         d="m 94.6354,112.3394 0.1209,0.0605"
         id="path78" />
      <path
         d="m 94.7563,112.3999 0.0605,0.0605"
         id="path79" />
      <path
         d="m 94.8168,112.4604 0.0605,0.1209"
         id="path80" />
      <path
         d="m 94.8773,112.5813 0.0605,0.2419"
         id="path81" />
      <path
         d="m 94.9378,112.8232 v 0.3024"
         id="path82" />
      <path
         d="m 94.9378,113.1256 -0.0605,0.2419"
         id="path83" />
      <path
         d="m 94.8773,113.3675 -0.0605,0.121"
         id="path84" />
      <path
         d="m 94.8168,113.4885 -0.0605,0.0605"
         id="path85" />
      <path
         d="m 94.7563,113.549 -0.1209,0.0604"
         id="path86" />
      <path
         d="m 94.6354,113.6094 h -0.121"
         id="path87" />
      <path
         d="M 94.5144,113.6094 94.3935,113.549"
         id="path88" />
      <path
         d="M 94.3935,113.549 94.333,113.4885"
         id="path89" />
      <path
         d="m 94.333,113.4885 -0.0605,-0.121"
         id="path90" />
      <path
         d="m 94.2725,113.3675 -0.0604,-0.2419"
         id="path91" />
      <path
         d="m 94.2121,113.1256 v -0.3024"
         id="path92" />
      <path
         d="m 94.2121,112.8232 0.0604,-0.2419"
         id="path93" />
      <path
         d="m 94.2725,112.5813 0.0605,-0.1209"
         id="path94" />
      <path
         d="m 94.333,112.4604 0.0605,-0.0605"
         id="path95" />
      <path
         d="m 94.3935,112.3999 0.1209,-0.0605"
         id="path96" />
      <path
         d="m 95.482,113.6094 v -1.27"
         id="path97" />
      <path
         d="m 95.603,113.1256 0.3628,0.4838"
         id="path98" />
      <path
         d="m 95.9658,112.7628 -0.4838,0.4838"
         id="path99" />
    </g>
    <path
       style="fill:none;stroke:#000000;stroke-width:0.254;stroke-linecap:round;stroke-linejoin:round;stroke-opacity:1"
       d="m 85.09,110.744 v -3.556"
       id="path100" />
    <path
       style="fill:#000000;fill-opacity:1;fill-rule:evenodd;stroke:#000000;stroke-width:0.1524;stroke-linecap:round;stroke-linejoin:round;stroke-opacity:1"
       d="m 85.09,111.252 -0.508,-1.27 h 1.016 z"
       id="path101" />
  </g>
  <g
     style="fill:none;stroke:#000000;stroke-width:0.1524;stroke-linecap:round;stroke-linejoin:round;stroke-opacity:1"
     id="g127"
     transform="translate(-83.0532,-64.0033)">
    <g
       transform="rotate(-90,83.8199,109.474)"
       id="g102">
      <text
         x="83.819901"
         y="110.109"
         textLength="2.6826999"
         font-size="1.6933px"
         lengthAdjust="spacingAndGlyphs"
         text-anchor="middle"
         opacity="0"
         stroke-opacity="0"
         id="text101">R3</text>
    </g>
    <g
       class="stroked-text"
       id="g125">
      <desc
         id="desc102">R3</desc>
      <path
         d="m 84.3994,109.6856 -0.6047,0.4233"
         id="path102" />
      <path
         d="m 84.3994,110.4113 h -1.27"
         id="path103" />
      <path
         d="m 83.1294,110.4113 v -0.4838"
         id="path104" />
      <path
         d="m 83.1294,109.9275 0.0605,-0.121"
         id="path105" />
      <path
         d="m 83.1899,109.8065 0.0605,-0.0605"
         id="path106" />
      <path
         d="m 83.2504,109.746 0.1209,-0.0604"
         id="path107" />
      <path
         d="m 83.3713,109.6856 h 0.1815"
         id="path108" />
      <path
         d="m 83.5528,109.6856 0.1209,0.0604"
         id="path109" />
      <path
         d="m 83.6737,109.746 0.0605,0.0605"
         id="path110" />
      <path
         d="m 83.7342,109.8065 0.0605,0.121"
         id="path111" />
      <path
         d="m 83.7947,109.9275 v 0.4838"
         id="path112" />
      <path
         d="M 83.1294,109.2622 V 108.476"
         id="path113" />
      <path
         d="m 83.1294,108.476 0.4838,0.4234"
         id="path114" />
      <path
         d="m 83.6132,108.8994 v -0.1815"
         id="path115" />
      <path
         d="m 83.6132,108.7179 0.0605,-0.1209"
         id="path116" />
      <path
         d="m 83.6737,108.597 0.0605,-0.0605"
         id="path117" />
      <path
         d="m 83.7342,108.5365 0.1209,-0.0605"
         id="path118" />
      <path
         d="m 83.8551,108.476 h 0.3024"
         id="path119" />
      <path
         d="m 84.1575,108.476 0.121,0.0605"
         id="path120" />
      <path
         d="m 84.2785,108.5365 0.0605,0.0605"
         id="path121" />
      <path
         d="m 84.339,108.597 0.0604,0.1209"
         id="path122" />
      <path
         d="m 84.3994,108.7179 v 0.3629"
         id="path123" />
      <path
         d="m 84.3994,109.0808 -0.0604,0.1209"
         id="path124" />
      <path
         d="m 84.339,109.2017 -0.0605,0.0605"
         id="path125" />
    </g>
    <path
       style="fill:none;stroke:#000000;stroke-width:0.254;stroke-linecap:round;stroke-linejoin:round;stroke-opacity:1"
       d="M 96.774,102.87 H 93.218"
       id="path126" />
    <path
       style="fill:#000000;fill-opacity:1;fill-rule:evenodd;stroke:#000000;stroke-width:0.1524;stroke-linecap:round;stroke-linejoin:round;stroke-opacity:1"
       d="m 97.282,102.87 -1.27,0.508 v -1.016 z"
       id="path127" />
  </g>
  <g
     style="fill:none;stroke:#000000;stroke-width:0.1524;stroke-linecap:round;stroke-linejoin:round;stroke-opacity:1"
     id="g147"
     transform="translate(-83.0532,-64.0033)">
    <text
       x="94.996002"
       y="102.235"
       textLength="2.0780001"
       font-size="1.6933px"
       lengthAdjust="spacingAndGlyphs"
       text-anchor="middle"
       opacity="0"
       stroke-opacity="0"
       id="text127">IB</text>
    <g
       class="stroked-text"
       id="g146">
      <desc
         id="desc127">IB</desc>
      <path
         d="m 94.3609,102.1795 v -1.27"
         id="path128" />
      <path
         d="m 95.3891,101.5143 0.1814,0.0605"
         id="path129" />
      <path
         d="m 95.5705,101.5748 0.0605,0.0604"
         id="path130" />
      <path
         d="m 95.631,101.6352 0.0604,0.121"
         id="path131" />
      <path
         d="m 95.6914,101.7562 v 0.1814"
         id="path132" />
      <path
         d="m 95.6914,101.9376 -0.0604,0.121"
         id="path133" />
      <path
         d="m 95.631,102.0586 -0.0605,0.0605"
         id="path134" />
      <path
         d="m 95.5705,102.1191 -0.121,0.0604"
         id="path135" />
      <path
         d="M 95.4495,102.1795 H 94.9657"
         id="path136" />
      <path
         d="m 94.9657,102.1795 v -1.27"
         id="path137" />
      <path
         d="m 94.9657,100.9095 h 0.4234"
         id="path138" />
      <path
         d="M 95.3891,100.9095 95.51,100.97"
         id="path139" />
      <path
         d="m 95.51,100.97 0.0605,0.0605"
         id="path140" />
      <path
         d="m 95.5705,101.0305 0.0605,0.1209"
         id="path141" />
      <path
         d="m 95.631,101.1514 v 0.121"
         id="path142" />
      <path
         d="m 95.631,101.2724 -0.0605,0.1209"
         id="path143" />
      <path
         d="M 95.5705,101.3933 95.51,101.4538"
         id="path144" />
      <path
         d="m 95.51,101.4538 -0.1209,0.0605"
         id="path145" />
      <path
         d="M 95.3891,101.5143 H 94.9657"
         id="path146" />
    </g>
  </g>
  <g
     style="fill:none;stroke:#000000;stroke-width:0.254;stroke-linecap:round;stroke-linejoin:round;stroke-opacity:1"
     id="g148"
     transform="translate(-83.0532,-64.0033)">
    <rect
       x="87.884003"
       y="76.199997"
       width="2.0320001"
       height="5.0799999"
       rx="0.000000"
       id="rect147" />
  </g>
  <g
     style="fill:none;stroke:#000000;stroke-width:0.1524;stroke-linecap:round;stroke-linejoin:round;stroke-opacity:1"
     id="g204"
     transform="translate(-83.0532,-64.0033)">
    <path
       d="M 88.9,76.2 V 74.93"
       id="path148" />
    <path
       d="m 88.9,81.28 v 1.27"
       id="path149" />
    <text
       x="92.790901"
       y="78.104897"
       textLength="2.6826999"
       font-size="1.6933px"
       lengthAdjust="spacingAndGlyphs"
       text-anchor="middle"
       opacity="0"
       stroke-opacity="0"
       id="text149">R1</text>
    <g
       class="stroked-text"
       id="g165">
      <desc
         id="desc149">R1</desc>
      <path
         d="M 92.5792,78.0494 92.1559,77.4447"
         id="path150" />
      <path
         d="m 91.8535,78.0494 v -1.27"
         id="path151" />
      <path
         d="m 91.8535,76.7794 h 0.4838"
         id="path152" />
      <path
         d="m 92.3373,76.7794 0.121,0.0605"
         id="path153" />
      <path
         d="m 92.4583,76.8399 0.0605,0.0605"
         id="path154" />
      <path
         d="m 92.5188,76.9004 0.0604,0.1209"
         id="path155" />
      <path
         d="m 92.5792,77.0213 v 0.1815"
         id="path156" />
      <path
         d="m 92.5792,77.2028 -0.0604,0.1209"
         id="path157" />
      <path
         d="m 92.5188,77.3237 -0.0605,0.0605"
         id="path158" />
      <path
         d="m 92.4583,77.3842 -0.121,0.0605"
         id="path159" />
      <path
         d="M 92.3373,77.4447 H 91.8535"
         id="path160" />
      <path
         d="M 93.7888,78.0494 H 93.0631"
         id="path161" />
      <path
         d="m 93.4259,78.0494 v -1.27"
         id="path162" />
      <path
         d="M 93.4259,76.7794 93.305,76.9609"
         id="path163" />
      <path
         d="m 93.305,76.9609 -0.121,0.1209"
         id="path164" />
      <path
         d="m 93.184,77.0818 -0.1209,0.0605"
         id="path165" />
    </g>
    <text
       x="93.879501"
       y="80.644897"
       textLength="4.8597999"
       font-size="1.6933px"
       lengthAdjust="spacingAndGlyphs"
       text-anchor="middle"
       opacity="0"
       stroke-opacity="0"
       id="text165">120k</text>
    <g
       class="stroked-text"
       id="g203">
      <desc
         id="desc165">120k</desc>
      <path
         d="M 92.5188,80.5894 H 91.7931"
         id="path166" />
      <path
         d="m 92.1559,80.5894 v -1.27"
         id="path167" />
      <path
         d="M 92.1559,79.3194 92.035,79.5009"
         id="path168" />
      <path
         d="m 92.035,79.5009 -0.121,0.1209"
         id="path169" />
      <path
         d="m 91.914,79.6218 -0.1209,0.0605"
         id="path170" />
      <path
         d="M 93.0026,79.4404 93.063,79.3799"
         id="path171" />
      <path
         d="m 93.063,79.3799 0.121,-0.0605"
         id="path172" />
      <path
         d="m 93.184,79.3194 h 0.3024"
         id="path173" />
      <path
         d="m 93.4864,79.3194 0.1209,0.0605"
         id="path174" />
      <path
         d="m 93.6073,79.3799 0.0605,0.0605"
         id="path175" />
      <path
         d="m 93.6678,79.4404 0.0605,0.1209"
         id="path176" />
      <path
         d="m 93.7283,79.5613 v 0.121"
         id="path177" />
      <path
         d="m 93.7283,79.6823 -0.0605,0.1814"
         id="path178" />
      <path
         d="m 93.6678,79.8637 -0.7257,0.7257"
         id="path179" />
      <path
         d="m 92.9421,80.5894 h 0.7862"
         id="path180" />
      <path
         d="m 94.5144,79.3194 h 0.121"
         id="path181" />
      <path
         d="m 94.6354,79.3194 0.1209,0.0605"
         id="path182" />
      <path
         d="m 94.7563,79.3799 0.0605,0.0605"
         id="path183" />
      <path
         d="m 94.8168,79.4404 0.0605,0.1209"
         id="path184" />
      <path
         d="m 94.8773,79.5613 0.0605,0.2419"
         id="path185" />
      <path
         d="m 94.9378,79.8032 v 0.3024"
         id="path186" />
      <path
         d="m 94.9378,80.1056 -0.0605,0.2419"
         id="path187" />
      <path
         d="m 94.8773,80.3475 -0.0605,0.121"
         id="path188" />
      <path
         d="M 94.8168,80.4685 94.7563,80.529"
         id="path189" />
      <path
         d="m 94.7563,80.529 -0.1209,0.0604"
         id="path190" />
      <path
         d="m 94.6354,80.5894 h -0.121"
         id="path191" />
      <path
         d="M 94.5144,80.5894 94.3935,80.529"
         id="path192" />
      <path
         d="M 94.3935,80.529 94.333,80.4685"
         id="path193" />
      <path
         d="m 94.333,80.4685 -0.0605,-0.121"
         id="path194" />
      <path
         d="M 94.2725,80.3475 94.2121,80.1056"
         id="path195" />
      <path
         d="M 94.2121,80.1056 V 79.8032"
         id="path196" />
      <path
         d="m 94.2121,79.8032 0.0604,-0.2419"
         id="path197" />
      <path
         d="M 94.2725,79.5613 94.333,79.4404"
         id="path198" />
      <path
         d="m 94.333,79.4404 0.0605,-0.0605"
         id="path199" />
      <path
         d="m 94.3935,79.3799 0.1209,-0.0605"
         id="path200" />
      <path
         d="m 95.482,80.5894 v -1.27"
         id="path201" />
      <path
         d="m 95.603,80.1056 0.3628,0.4838"
         id="path202" />
      <path
         d="M 95.9658,79.7428 95.482,80.2266"
         id="path203" />
    </g>
  </g>
  <g
     style="fill:none;stroke:#000000;stroke-width:0.254;stroke-linecap:round;stroke-linejoin:round;stroke-opacity:1"
     id="g205"
     transform="translate(-83.0532,-64.0033)">
    <rect
       x="87.884003"
       y="92.709999"
       width="2.0320001"
       height="5.0799999"
       rx="0.000000"
       id="rect204" />
  </g>
  <g
     style="fill:none;stroke:#000000;stroke-width:0.1524;stroke-linecap:round;stroke-linejoin:round;stroke-opacity:1"
     id="g340"
     transform="translate(-83.0532,-64.0033)">
    <path
       d="M 88.9,92.71 V 91.44"
       id="path205" />
    <path
       d="m 88.9,97.79 v 1.27"
       id="path206" />
    <text
       x="92.790901"
       y="94.614899"
       textLength="2.6826999"
       font-size="1.6933px"
       lengthAdjust="spacingAndGlyphs"
       text-anchor="middle"
       opacity="0"
       stroke-opacity="0"
       id="text206">R2</text>
    <g
       class="stroked-text"
       id="g227">
      <desc
         id="desc206">R2</desc>
      <path
         d="M 92.5792,94.5594 92.1559,93.9547"
         id="path207" />
      <path
         d="m 91.8535,94.5594 v -1.27"
         id="path208" />
      <path
         d="m 91.8535,93.2894 h 0.4838"
         id="path209" />
      <path
         d="m 92.3373,93.2894 0.121,0.0605"
         id="path210" />
      <path
         d="m 92.4583,93.3499 0.0605,0.0605"
         id="path211" />
      <path
         d="m 92.5188,93.4104 0.0604,0.1209"
         id="path212" />
      <path
         d="m 92.5792,93.5313 v 0.1815"
         id="path213" />
      <path
         d="m 92.5792,93.7128 -0.0604,0.1209"
         id="path214" />
      <path
         d="m 92.5188,93.8337 -0.0605,0.0605"
         id="path215" />
      <path
         d="m 92.4583,93.8942 -0.121,0.0605"
         id="path216" />
      <path
         d="M 92.3373,93.9547 H 91.8535"
         id="path217" />
      <path
         d="m 93.0631,93.4104 0.0604,-0.0605"
         id="path218" />
      <path
         d="m 93.1235,93.3499 0.121,-0.0605"
         id="path219" />
      <path
         d="m 93.2445,93.2894 h 0.3024"
         id="path220" />
      <path
         d="m 93.5469,93.2894 0.1209,0.0605"
         id="path221" />
      <path
         d="m 93.6678,93.3499 0.0605,0.0605"
         id="path222" />
      <path
         d="m 93.7283,93.4104 0.0605,0.1209"
         id="path223" />
      <path
         d="m 93.7888,93.5313 v 0.121"
         id="path224" />
      <path
         d="m 93.7888,93.6523 -0.0605,0.1814"
         id="path225" />
      <path
         d="m 93.7283,93.8337 -0.7257,0.7257"
         id="path226" />
      <path
         d="m 93.0026,94.5594 h 0.7862"
         id="path227" />
    </g>
    <text
       x="93.879501"
       y="97.1549"
       textLength="4.8597999"
       font-size="1.6933px"
       lengthAdjust="spacingAndGlyphs"
       text-anchor="middle"
       opacity="0"
       stroke-opacity="0"
       id="text227">120k</text>
    <g
       class="stroked-text"
       id="g265">
      <desc
         id="desc227">120k</desc>
      <path
         d="M 92.5188,97.0994 H 91.7931"
         id="path228" />
      <path
         d="m 92.1559,97.0994 v -1.27"
         id="path229" />
      <path
         d="M 92.1559,95.8294 92.035,96.0109"
         id="path230" />
      <path
         d="m 92.035,96.0109 -0.121,0.1209"
         id="path231" />
      <path
         d="m 91.914,96.1318 -0.1209,0.0605"
         id="path232" />
      <path
         d="M 93.0026,95.9504 93.063,95.8899"
         id="path233" />
      <path
         d="m 93.063,95.8899 0.121,-0.0605"
         id="path234" />
      <path
         d="m 93.184,95.8294 h 0.3024"
         id="path235" />
      <path
         d="m 93.4864,95.8294 0.1209,0.0605"
         id="path236" />
      <path
         d="m 93.6073,95.8899 0.0605,0.0605"
         id="path237" />
      <path
         d="m 93.6678,95.9504 0.0605,0.1209"
         id="path238" />
      <path
         d="m 93.7283,96.0713 v 0.121"
         id="path239" />
      <path
         d="m 93.7283,96.1923 -0.0605,0.1814"
         id="path240" />
      <path
         d="m 93.6678,96.3737 -0.7257,0.7257"
         id="path241" />
      <path
         d="m 92.9421,97.0994 h 0.7862"
         id="path242" />
      <path
         d="m 94.5144,95.8294 h 0.121"
         id="path243" />
      <path
         d="m 94.6354,95.8294 0.1209,0.0605"
         id="path244" />
      <path
         d="m 94.7563,95.8899 0.0605,0.0605"
         id="path245" />
      <path
         d="m 94.8168,95.9504 0.0605,0.1209"
         id="path246" />
      <path
         d="m 94.8773,96.0713 0.0605,0.2419"
         id="path247" />
      <path
         d="m 94.9378,96.3132 v 0.3024"
         id="path248" />
      <path
         d="m 94.9378,96.6156 -0.0605,0.2419"
         id="path249" />
      <path
         d="m 94.8773,96.8575 -0.0605,0.121"
         id="path250" />
      <path
         d="M 94.8168,96.9785 94.7563,97.039"
         id="path251" />
      <path
         d="m 94.7563,97.039 -0.1209,0.0604"
         id="path252" />
      <path
         d="m 94.6354,97.0994 h -0.121"
         id="path253" />
      <path
         d="M 94.5144,97.0994 94.3935,97.039"
         id="path254" />
      <path
         d="M 94.3935,97.039 94.333,96.9785"
         id="path255" />
      <path
         d="m 94.333,96.9785 -0.0605,-0.121"
         id="path256" />
      <path
         d="M 94.2725,96.8575 94.2121,96.6156"
         id="path257" />
      <path
         d="M 94.2121,96.6156 V 96.3132"
         id="path258" />
      <path
         d="m 94.2121,96.3132 0.0604,-0.2419"
         id="path259" />
      <path
         d="M 94.2725,96.0713 94.333,95.9504"
         id="path260" />
      <path
         d="m 94.333,95.9504 0.0605,-0.0605"
         id="path261" />
      <path
         d="m 94.3935,95.8899 0.1209,-0.0605"
         id="path262" />
      <path
         d="m 95.482,97.0994 v -1.27"
         id="path263" />
      <path
         d="m 95.603,96.6156 0.3628,0.4838"
         id="path264" />
      <path
         d="M 95.9658,96.2528 95.482,96.7366"
         id="path265" />
    </g>
    <g
       transform="rotate(-90,106.3371,105.41)"
       id="g266">
      <text
         x="106.3371"
         y="105.41"
         textLength="0.45719999"
         font-size="1.6933px"
         lengthAdjust="spacingAndGlyphs"
         text-anchor="end"
         opacity="0"
         stroke-opacity="0"
         id="text265" />
    </g>
    <g
       class="stroked-text"
       id="g267">
      <desc
         id="desc266" />
    </g>
    <path
       d="m 106.68,105.41 h 2.032"
       id="path267" />
    <circle
       cx="109.22"
       cy="105.41"
       r="0.50800002"
       id="circle267" />
    <text
       x="107.95"
       y="104.267"
       textLength="2.5618"
       font-size="1.6933px"
       lengthAdjust="spacingAndGlyphs"
       text-anchor="start"
       opacity="0"
       stroke-opacity="0"
       id="text267">VB</text>
    <g
       class="stroked-text"
       id="g287">
      <desc
         id="desc267">VB</desc>
      <path
         d="m 108.3223,102.9415 0.2646,1.27"
         id="path268" />
      <path
         d="m 108.5869,104.2115 0.5821,-1.27"
         id="path269" />
      <path
         d="m 109.9401,103.5463 0.1738,0.0605"
         id="path270" />
      <path
         d="m 110.1139,103.6068 0.0529,0.0604"
         id="path271" />
      <path
         d="m 110.1668,103.6672 0.0454,0.121"
         id="path272" />
      <path
         d="m 110.2122,103.7882 -0.0227,0.1814"
         id="path273" />
      <path
         d="m 110.1895,103.9696 -0.0756,0.121"
         id="path274" />
      <path
         d="m 110.1139,104.0906 -0.068,0.0605"
         id="path275" />
      <path
         d="m 110.0459,104.1511 -0.1285,0.0604"
         id="path276" />
      <path
         d="m 109.9174,104.2115 h -0.4838"
         id="path277" />
      <path
         d="m 109.4336,104.2115 0.1587,-1.27"
         id="path278" />
      <path
         d="m 109.5923,102.9415 h 0.4234"
         id="path279" />
      <path
         d="m 110.0157,102.9415 0.1133,0.0605"
         id="path280" />
      <path
         d="m 110.129,103.002 0.053,0.0605"
         id="path281" />
      <path
         d="m 110.182,103.0625 0.0453,0.1209"
         id="path282" />
      <path
         d="m 110.2273,103.1834 -0.0151,0.121"
         id="path283" />
      <path
         d="m 110.2122,103.3044 -0.0756,0.1209"
         id="path284" />
      <path
         d="m 110.1366,103.4253 -0.068,0.0605"
         id="path285" />
      <path
         d="m 110.0686,103.4858 -0.1285,0.0605"
         id="path286" />
      <path
         d="m 109.9401,103.5463 h -0.4234"
         id="path287" />
    </g>
    <g
       transform="rotate(-90,106.3371,85.09)"
       id="g288">
      <text
         x="106.3371"
         y="85.089996"
         textLength="0.45719999"
         font-size="1.6933px"
         lengthAdjust="spacingAndGlyphs"
         text-anchor="end"
         opacity="0"
         stroke-opacity="0"
         id="text287" />
    </g>
    <g
       class="stroked-text"
       id="g289">
      <desc
         id="desc288" />
    </g>
    <path
       d="m 106.68,85.09 h 2.032"
       id="path289" />
    <circle
       cx="109.22"
       cy="85.089996"
       r="0.50800002"
       id="circle289" />
    <text
       x="107.95"
       y="84.200996"
       textLength="2.5618"
       font-size="1.6933px"
       lengthAdjust="spacingAndGlyphs"
       text-anchor="start"
       opacity="0"
       stroke-opacity="0"
       id="text289">VG</text>
    <g
       class="stroked-text"
       id="g307">
      <desc
         id="desc289">VG</desc>
      <path
         d="m 108.3223,82.8755 0.2646,1.27"
         id="path290" />
      <path
         d="m 108.5869,84.1455 0.5821,-1.27"
         id="path291" />
      <path
         d="m 110.25,82.936 -0.1134,-0.0605"
         id="path292" />
      <path
         d="m 110.1366,82.8755 h -0.1814"
         id="path293" />
      <path
         d="m 109.9552,82.8755 -0.189,0.0605"
         id="path294" />
      <path
         d="m 109.7662,82.936 -0.1361,0.121"
         id="path295" />
      <path
         d="m 109.6301,83.057 -0.0756,0.1209"
         id="path296" />
      <path
         d="m 109.5545,83.1779 -0.0907,0.2419"
         id="path297" />
      <path
         d="m 109.4638,83.4198 -0.0227,0.1814"
         id="path298" />
      <path
         d="m 109.4411,83.6012 0.0303,0.2419"
         id="path299" />
      <path
         d="m 109.4714,83.8431 0.0453,0.121"
         id="path300" />
      <path
         d="m 109.5167,83.9641 0.1059,0.121"
         id="path301" />
      <path
         d="m 109.6226,84.0851 0.1738,0.0604"
         id="path302" />
      <path
         d="m 109.7964,84.1455 h 0.121"
         id="path303" />
      <path
         d="m 109.9174,84.1455 0.189,-0.0604"
         id="path304" />
      <path
         d="m 110.1064,84.0851 0.068,-0.0605"
         id="path305" />
      <path
         d="m 110.1744,84.0246 0.0529,-0.4234"
         id="path306" />
      <path
         d="m 110.2273,83.6012 h -0.2419"
         id="path307" />
    </g>
    <text
       x="88.900002"
       y="66.967102"
       textLength="0.45719999"
       font-size="1.6933px"
       lengthAdjust="spacingAndGlyphs"
       text-anchor="start"
       opacity="0"
       stroke-opacity="0"
       id="text307" />
    <g
       class="stroked-text"
       id="g308">
      <desc
         id="desc307" />
    </g>
    <path
       d="M 88.9,67.31 V 65.278"
       id="path308" />
    <circle
       cx="88.900002"
       cy="64.769997"
       r="0.50800002"
       id="circle308" />
    <text
       x="89.598503"
       y="65.404999"
       textLength="3.4690001"
       font-size="1.6933px"
       lengthAdjust="spacingAndGlyphs"
       text-anchor="start"
       opacity="0"
       stroke-opacity="0"
       id="text308">Vcc</text>
    <g
       class="stroked-text"
       id="g332">
      <desc
         id="desc308">Vcc</desc>
      <path
         d="m 89.9708,64.0795 0.2646,1.27"
         id="path309" />
      <path
         d="m 90.2354,65.3495 0.5821,-1.27"
         id="path310" />
      <path
         d="m 91.6339,65.2891 -0.1285,0.0604"
         id="path311" />
      <path
         d="M 91.5054,65.3495 H 91.2635"
         id="path312" />
      <path
         d="M 91.2635,65.3495 91.1501,65.2891"
         id="path313" />
      <path
         d="M 91.1501,65.2891 91.0972,65.2286"
         id="path314" />
      <path
         d="m 91.0972,65.2286 -0.0454,-0.121"
         id="path315" />
      <path
         d="m 91.0518,65.1076 0.0454,-0.3628"
         id="path316" />
      <path
         d="m 91.0972,64.7448 0.0756,-0.121"
         id="path317" />
      <path
         d="m 91.1728,64.6238 0.068,-0.0605"
         id="path318" />
      <path
         d="m 91.2408,64.5633 0.1285,-0.0604"
         id="path319" />
      <path
         d="m 91.3693,64.5029 h 0.2419"
         id="path320" />
      <path
         d="m 91.6112,64.5029 0.1134,0.0604"
         id="path321" />
      <path
         d="M 92.7225,65.2891 92.594,65.3495"
         id="path322" />
      <path
         d="M 92.594,65.3495 H 92.3521"
         id="path323" />
      <path
         d="M 92.3521,65.3495 92.2387,65.2891"
         id="path324" />
      <path
         d="M 92.2387,65.2891 92.1858,65.2286"
         id="path325" />
      <path
         d="m 92.1858,65.2286 -0.0454,-0.121"
         id="path326" />
      <path
         d="m 92.1404,65.1076 0.0454,-0.3628"
         id="path327" />
      <path
         d="m 92.1858,64.7448 0.0756,-0.121"
         id="path328" />
      <path
         d="m 92.2614,64.6238 0.068,-0.0605"
         id="path329" />
      <path
         d="m 92.3294,64.5633 0.1285,-0.0604"
         id="path330" />
      <path
         d="m 92.4579,64.5029 h 0.2419"
         id="path331" />
      <path
         d="m 92.6998,64.5029 0.1134,0.0604"
         id="path332" />
    </g>
    <path
       d="m 88.9,99.06 v 6.35"
       id="path333" />
    <path
       d="m 88.9,82.55 v 2.54"
       id="path334" />
    <path
       d="m 88.9,105.41 h 17.78"
       id="path335" />
    <path
       d="m 88.9,115.57 v 2.54"
       id="path336" />
    <path
       d="m 88.9,105.41 v 2.54"
       id="path337" />
    <path
       d="m 88.9,67.31 v 7.62"
       id="path338" />
    <path
       d="m 88.9,85.09 h 17.78"
       id="path339" />
    <path
       d="m 88.9,85.09 v 6.35"
       id="path340" />
  </g>
  <g
     style="fill:#000000;fill-opacity:1;stroke:#000000;stroke-width:0.1524;stroke-linecap:round;stroke-linejoin:round;stroke-opacity:1"
     id="g341"
     transform="translate(-83.0532,-64.0033)">
    <circle
       cx="88.900002"
       cy="85.089996"
       r="0.45719999"
       id="circle340" />
    <circle
       cx="88.900002"
       cy="105.41"
       r="0.45719999"
       id="circle341" />
  </g>
</svg>
